<?xml version="1.0" encoding="UTF-8"?>
<svg xmlns="http://www.w3.org/2000/svg" xmlns:xlink="http://www.w3.org/1999/xlink" version="1.1" id="Capa_1" x="0px" y="0px" viewBox="0 0 512 512" style="enable-background:new 0 0 512 512;" xml:space="preserve" width="512" height="512">
<g>
	<g>
		<polygon style="fill-rule:evenodd;clip-rule:evenodd;fill:#4796C6;" points="89,367.829 86,333.701 61,324.701 32,333.701 &#10;&#9;&#9;&#9;32,367.829 &#9;&#9;"/>
		<polygon style="fill-rule:evenodd;clip-rule:evenodd;fill:#A1C5E4;" points="86,333.701 89,367.829 151,367.829 151,346.265 &#10;&#9;&#9;&#9;138,324.701 &#9;&#9;"/>
		<polygon style="fill-rule:evenodd;clip-rule:evenodd;fill:#4796C6;" points="86,333.701 138,324.701 125.609,296.536 &#10;&#9;&#9;&#9;100.86,294.826 76.109,293.117 61,324.701 &#9;&#9;"/>
		<polygon style="fill-rule:evenodd;clip-rule:evenodd;fill:#A1C5E4;" points="125.609,296.536 138,324.701 151,346.265 &#10;&#9;&#9;&#9;182,315.782 188.5,286.202 158.754,291.09 &#9;&#9;"/>
		<polygon style="fill-rule:evenodd;clip-rule:evenodd;fill:#4796C6;" points="125.609,296.536 158.754,291.09 143.608,260.702 &#10;&#9;&#9;&#9;125.358,262.202 107.108,263.702 100.86,294.826 &#9;&#9;"/>
		<polygon style="fill-rule:evenodd;clip-rule:evenodd;fill:#A1C5E4;" points="143.608,260.702 158.754,291.09 188.5,286.202 &#10;&#9;&#9;&#9;212.805,291.202 209.108,257.202 177.108,244.702 &#9;&#9;"/>
		<polygon style="fill-rule:evenodd;clip-rule:evenodd;fill:#4796C6;" points="143.608,260.702 177.108,244.702 186.858,227.042 &#10;&#9;&#9;&#9;143.608,212.549 125.609,224.132 125.358,262.202 &#9;&#9;"/>
		<polygon style="fill-rule:evenodd;clip-rule:evenodd;fill:#A1C5E4;" points="177.108,244.702 209.108,257.202 230.359,258.953 &#10;&#9;&#9;&#9;247.179,239.501 218.391,209.382 196.609,209.382 186.858,227.042 &#9;&#9;"/>
		<polygon style="fill-rule:evenodd;clip-rule:evenodd;fill:#4796C6;" points="143.608,212.549 186.858,227.042 196.609,209.382 &#10;&#9;&#9;&#9;177.108,183.047 156.109,183.047 &#9;&#9;"/>
		<polygon style="fill-rule:evenodd;clip-rule:evenodd;fill:#A1C5E4;" points="177.108,183.047 196.609,209.382 218.391,209.382 &#10;&#9;&#9;&#9;230.359,185.575 212.144,173.702 &#9;&#9;"/>
		<polygon style="fill-rule:evenodd;clip-rule:evenodd;fill:#4796C6;" points="182,315.782 151,346.265 151,367.829 226,367.829 &#10;&#9;&#9;&#9;218.391,331.023 &#9;&#9;"/>
		<polygon style="fill-rule:evenodd;clip-rule:evenodd;fill:#4796C6;" points="182,315.782 218.391,331.023 237.109,296.202 &#10;&#9;&#9;&#9;212.805,291.202 188.5,286.202 &#9;&#9;"/>
		<polygon style="fill-rule:evenodd;clip-rule:evenodd;fill:#4796C6;" points="212.805,291.202 237.109,296.202 266.61,296.202 &#10;&#9;&#9;&#9;251.609,260.702 230.359,258.953 209.108,257.202 &#9;&#9;"/>
		<polygon style="fill-rule:evenodd;clip-rule:evenodd;fill:#4796C6;" points="230.359,258.953 251.609,260.702 293.608,260.702 &#10;&#9;&#9;&#9;299.5,231.882 264,220.049 247.179,239.501 &#9;&#9;"/>
		<polygon style="fill-rule:evenodd;clip-rule:evenodd;fill:#4796C6;" points="218.391,209.382 247.179,239.501 264,220.049 &#10;&#9;&#9;&#9;262.108,189.702 230.359,185.575 &#9;&#9;"/>
		<polygon style="fill-rule:evenodd;clip-rule:evenodd;fill:#A1C5E4;" points="230.359,185.575 262.108,189.702 293.608,183.047 &#10;&#9;&#9;&#9;286,154.953 251.609,140.953 230.359,154.953 212.144,173.702 &#9;&#9;"/>
		<polygon style="fill-rule:evenodd;clip-rule:evenodd;fill:#4796C6;" points="177.108,183.047 212.144,173.702 230.359,154.953 &#10;&#9;&#9;&#9;188.5,141.935 163.608,154.453 156.109,183.047 &#9;&#9;"/>
		<polygon style="fill-rule:evenodd;clip-rule:evenodd;fill:#A1C5E4;" points="188.5,141.935 230.359,154.953 251.609,140.953 &#10;&#9;&#9;&#9;222.858,110.452 196.609,117.452 &#9;&#9;"/>
		<polygon style="fill-rule:evenodd;clip-rule:evenodd;fill:#A1C5E4;" points="222.858,110.452 251.609,140.953 272.358,110.452 &#10;&#9;&#9;&#9;256,84.452 226,86.452 &#9;&#9;"/>
		<polygon style="fill-rule:evenodd;clip-rule:evenodd;fill:#A1C5E4;" points="272.358,110.452 251.609,140.953 286,154.953 &#10;&#9;&#9;&#9;311.88,146.953 317.054,118.952 292.358,110.452 &#9;&#9;"/>
		<polygon style="fill-rule:evenodd;clip-rule:evenodd;fill:#A1C5E4;" points="311.88,146.953 286,154.953 293.608,183.047 &#10;&#9;&#9;&#9;311.88,200.451 332.454,188.202 346.031,188.202 348.109,161.953 &#9;&#9;"/>
		<polygon style="fill-rule:evenodd;clip-rule:evenodd;fill:#A1C5E4;" points="332.454,188.202 311.88,200.451 332.454,220.049 &#10;&#9;&#9;&#9;338.561,237.712 360.608,227.042 376.168,233.272 383,209.382 359.608,188.202 346.031,188.202 &#9;&#9;"/>
		<polygon style="fill-rule:evenodd;clip-rule:evenodd;fill:#A1C5E4;" points="332.454,220.049 311.88,200.451 293.608,183.047 &#10;&#9;&#9;&#9;262.108,189.702 264,220.049 299.5,231.882 &#9;&#9;"/>
		<polygon style="fill-rule:evenodd;clip-rule:evenodd;fill:#4796C6;" points="332.454,220.049 299.5,231.882 293.608,260.702 &#10;&#9;&#9;&#9;306.609,278.452 345.3,257.202 338.561,237.712 &#9;&#9;"/>
		<polygon style="fill-rule:evenodd;clip-rule:evenodd;fill:#A1C5E4;" points="306.609,278.452 293.608,260.702 251.609,260.702 &#10;&#9;&#9;&#9;266.61,296.202 294,315.782 319.609,296.202 &#9;&#9;"/>
		<polygon style="fill-rule:evenodd;clip-rule:evenodd;fill:#A1C5E4;" points="294,315.782 266.61,296.202 237.109,296.202 &#10;&#9;&#9;&#9;218.391,331.023 264,331.023 &#9;&#9;"/>
		<polygon style="fill-rule:evenodd;clip-rule:evenodd;fill:#A1C5E4;" points="264,331.023 218.391,331.023 226,367.829 &#10;&#9;&#9;&#9;262,367.829 &#9;&#9;"/>
		<polygon style="fill-rule:evenodd;clip-rule:evenodd;fill:#A1C5E4;" points="264,331.023 262,367.829 335,367.829 324.6,333.449 &#10;&#9;&#9;&#9;294,315.782 &#9;&#9;"/>
		<polygon style="fill-rule:evenodd;clip-rule:evenodd;fill:#A1C5E4;" points="294,315.782 324.6,333.449 366,333.449 383,315.782 &#10;&#9;&#9;&#9;355.609,296.202 319.609,296.202 &#9;&#9;"/>
		<polygon style="fill-rule:evenodd;clip-rule:evenodd;fill:#4796C6;" points="319.609,296.202 355.609,296.202 389.61,280.702 &#10;&#9;&#9;&#9;345.3,257.202 306.609,278.452 &#9;&#9;"/>
		<polygon style="fill-rule:evenodd;clip-rule:evenodd;fill:#A1C5E4;" points="345.3,257.202 389.61,280.702 402.986,284.286 &#10;&#9;&#9;&#9;391.729,239.501 376.168,233.272 360.608,227.042 338.561,237.712 &#9;&#9;"/>
		<polygon style="fill-rule:evenodd;clip-rule:evenodd;fill:#A1C5E4;" points="389.61,280.702 355.609,296.202 383,315.782 &#10;&#9;&#9;&#9;417,321.701 434.445,317.951 416.363,287.87 402.986,284.286 &#9;&#9;"/>
		<polygon style="fill-rule:evenodd;clip-rule:evenodd;fill:#A1C5E4;" points="434.445,317.951 417,321.701 434,367.829 &#10;&#9;&#9;&#9;480,367.829 451.891,314.201 &#9;&#9;"/>
		<polygon style="fill-rule:evenodd;clip-rule:evenodd;fill:#4796C6;" points="434,367.829 417,321.701 383,315.782 366,333.449 &#10;&#9;&#9;&#9;324.6,333.449 335,367.829 &#9;&#9;"/>
		<rect x="7.5" y="367.829" style="fill-rule:evenodd;clip-rule:evenodd;fill:#FFA981;" width="497" height="30"/>
		<path style="fill-rule:evenodd;clip-rule:evenodd;fill:#FF8E5D;" d="M82.5,427.829v-30l-60-0.001v30H82.5L82.5,427.829z&#10;&#9;&#9;&#9; M429.5,397.829v30h60v-30L429.5,397.829L429.5,397.829z M226,397.829v30h60v-30L226,397.829z"/>
		<rect x="7.5" y="367.829" style="fill-rule:evenodd;clip-rule:evenodd;fill:#FF8E5D;" width="22.5" height="30"/>
	</g>
	<g>
		
			<polyline style="fill-rule:evenodd;clip-rule:evenodd;fill:none;stroke:#000000;stroke-width:15;stroke-miterlimit:22.9256;" points="&#10;&#9;&#9;&#9;286,397.829 286,427.829 226,427.829 226,397.829 &#9;&#9;"/>
		
			<polyline style="fill-rule:evenodd;clip-rule:evenodd;fill:none;stroke:#000000;stroke-width:15;stroke-miterlimit:22.9256;" points="&#10;&#9;&#9;&#9;489.5,397.829 489.5,427.829 429.5,427.829 429.5,397.829 &#9;&#9;"/>
		
			<polyline style="fill-rule:evenodd;clip-rule:evenodd;fill:none;stroke:#000000;stroke-width:15;stroke-miterlimit:22.9256;" points="&#10;&#9;&#9;&#9;82.5,397.829 82.5,427.829 22.5,427.829 22.5,397.829 &#9;&#9;"/>
		
			<polyline style="fill-rule:evenodd;clip-rule:evenodd;fill:none;stroke:#000000;stroke-width:15;stroke-miterlimit:22.9256;" points="&#10;&#9;&#9;&#9;32,367.829 32,333.701 61,324.701 86,333.701 89,367.829 &#9;&#9;"/>
		
			<polyline style="fill-rule:evenodd;clip-rule:evenodd;fill:none;stroke:#000000;stroke-width:15;stroke-miterlimit:22.9256;" points="&#10;&#9;&#9;&#9;86,333.701 138,324.701 151,346.265 151,367.829 &#9;&#9;"/>
		
			<polyline style="fill-rule:evenodd;clip-rule:evenodd;fill:none;stroke:#000000;stroke-width:15;stroke-miterlimit:22.9256;" points="&#10;&#9;&#9;&#9;151,346.265 182,315.782 218.391,331.023 226,367.829 &#9;&#9;"/>
		
			<polyline style="fill-rule:evenodd;clip-rule:evenodd;fill:none;stroke:#000000;stroke-width:15;stroke-miterlimit:22.9256;" points="&#10;&#9;&#9;&#9;262,367.829 264,331.023 218.391,331.023 &#9;&#9;"/>
		
			<polyline style="fill-rule:evenodd;clip-rule:evenodd;fill:none;stroke:#000000;stroke-width:15;stroke-miterlimit:22.9256;" points="&#10;&#9;&#9;&#9;264,331.023 294,315.782 324.6,333.449 335,367.829 &#9;&#9;"/>
		
			<polyline style="fill-rule:evenodd;clip-rule:evenodd;fill:none;stroke:#000000;stroke-width:15;stroke-miterlimit:22.9256;" points="&#10;&#9;&#9;&#9;366,363.448 366,333.449 324.6,333.449 &#9;&#9;"/>
		
			<polyline style="fill-rule:evenodd;clip-rule:evenodd;fill:none;stroke:#000000;stroke-width:15;stroke-miterlimit:22.9256;" points="&#10;&#9;&#9;&#9;366,333.449 383,315.782 417,321.701 434,367.829 &#9;&#9;"/>
		
			<polyline style="fill-rule:evenodd;clip-rule:evenodd;fill:none;stroke:#000000;stroke-width:15;stroke-miterlimit:22.9256;" points="&#10;&#9;&#9;&#9;417,321.701 451.891,314.201 480,367.829 &#9;&#9;"/>
		
			<polyline style="fill-rule:evenodd;clip-rule:evenodd;fill:none;stroke:#000000;stroke-width:15;stroke-miterlimit:22.9256;" points="&#10;&#9;&#9;&#9;61,324.701 76.109,293.117 125.609,296.536 138,324.701 &#9;&#9;"/>
		
			<polyline style="fill-rule:evenodd;clip-rule:evenodd;fill:none;stroke:#000000;stroke-width:15;stroke-miterlimit:22.9256;" points="&#10;&#9;&#9;&#9;125.609,296.536 188.5,286.202 237.109,296.202 218.391,331.023 &#9;&#9;"/>
		
			<polyline style="fill-rule:evenodd;clip-rule:evenodd;fill:none;stroke:#000000;stroke-width:15;stroke-miterlimit:22.9256;" points="&#10;&#9;&#9;&#9;237.109,296.202 266.61,296.202 294,315.782 319.609,296.202 355.609,296.202 383,315.782 &#9;&#9;"/>
		
			<polyline style="fill-rule:evenodd;clip-rule:evenodd;fill:none;stroke:#000000;stroke-width:15;stroke-miterlimit:22.9256;" points="&#10;&#9;&#9;&#9;355.609,296.202 389.61,280.702 416.363,287.87 434.445,317.951 &#9;&#9;"/>
		
			<line style="fill-rule:evenodd;clip-rule:evenodd;fill:none;stroke:#000000;stroke-width:15;stroke-miterlimit:22.9256;" x1="188.5" y1="286.202" x2="182" y2="315.782"/>
		
			<polyline style="fill-rule:evenodd;clip-rule:evenodd;fill:none;stroke:#000000;stroke-width:15;stroke-miterlimit:22.9256;" points="&#10;&#9;&#9;&#9;100.86,294.826 107.108,263.702 143.608,260.702 158.754,291.09 &#9;&#9;"/>
		
			<polyline style="fill-rule:evenodd;clip-rule:evenodd;fill:none;stroke:#000000;stroke-width:15;stroke-miterlimit:22.9256;" points="&#10;&#9;&#9;&#9;143.608,260.702 177.108,244.702 209.108,257.202 212.805,291.202 &#9;&#9;"/>
		
			<polyline style="fill-rule:evenodd;clip-rule:evenodd;fill:none;stroke:#000000;stroke-width:15;stroke-miterlimit:22.9256;" points="&#10;&#9;&#9;&#9;209.108,257.202 251.609,260.702 266.61,296.202 &#9;&#9;"/>
		
			<polyline style="fill-rule:evenodd;clip-rule:evenodd;fill:none;stroke:#000000;stroke-width:15;stroke-miterlimit:22.9256;" points="&#10;&#9;&#9;&#9;251.609,260.702 293.608,260.702 319.609,296.202 &#9;&#9;"/>
		
			<polyline style="fill-rule:evenodd;clip-rule:evenodd;fill:none;stroke:#000000;stroke-width:15;stroke-miterlimit:22.9256;" points="&#10;&#9;&#9;&#9;306.609,278.452 345.3,257.202 389.61,280.702 &#9;&#9;"/>
		
			<polyline style="fill-rule:evenodd;clip-rule:evenodd;fill:none;stroke:#000000;stroke-width:15;stroke-miterlimit:22.9256;" points="&#10;&#9;&#9;&#9;299.5,231.882 264,220.049 230.359,258.953 &#9;&#9;"/>
		
			<polyline style="fill-rule:evenodd;clip-rule:evenodd;fill:none;stroke:#000000;stroke-width:15;stroke-miterlimit:22.9256;" points="&#10;&#9;&#9;&#9;247.179,239.501 218.391,209.382 196.609,209.382 177.108,244.702 &#9;&#9;"/>
		
			<polyline style="fill-rule:evenodd;clip-rule:evenodd;fill:none;stroke:#000000;stroke-width:15;stroke-miterlimit:22.9256;" points="&#10;&#9;&#9;&#9;186.858,227.042 143.608,212.549 125.609,224.132 125.358,262.202 &#9;&#9;"/>
		
			<polyline style="fill-rule:evenodd;clip-rule:evenodd;fill:none;stroke:#000000;stroke-width:15;stroke-miterlimit:22.9256;" points="&#10;&#9;&#9;&#9;143.608,212.549 156.109,183.047 177.108,183.047 196.609,209.382 &#9;&#9;"/>
		
			<polyline style="fill-rule:evenodd;clip-rule:evenodd;fill:none;stroke:#000000;stroke-width:15;stroke-miterlimit:22.9256;" points="&#10;&#9;&#9;&#9;338.561,237.712 360.608,227.042 391.729,239.501 402.986,284.286 &#9;&#9;"/>
		
			<polyline style="fill-rule:evenodd;clip-rule:evenodd;fill:none;stroke:#000000;stroke-width:15;stroke-miterlimit:22.9256;" points="&#10;&#9;&#9;&#9;177.108,183.047 212.144,173.702 230.359,185.575 218.391,209.382 &#9;&#9;"/>
		
			<polyline style="fill-rule:evenodd;clip-rule:evenodd;fill:none;stroke:#000000;stroke-width:15;stroke-miterlimit:22.9256;" points="&#10;&#9;&#9;&#9;230.359,185.575 262.108,189.702 264,220.049 &#9;&#9;"/>
		<path style="fill-rule:evenodd;clip-rule:evenodd;fill:none;stroke:#000000;stroke-width:15;stroke-miterlimit:22.9256;" d="&#10;&#9;&#9;&#9;M262.108,189.702l31.5-6.655l38.846,37.002l12.845,37.154 M332.454,220.049L299.5,231.882l-5.891,28.82"/>
		
			<polyline style="fill-rule:evenodd;clip-rule:evenodd;fill:none;stroke:#000000;stroke-width:15;stroke-miterlimit:22.9256;" points="&#10;&#9;&#9;&#9;311.88,200.451 332.454,188.202 359.608,188.202 383,209.382 376.168,233.272 &#9;&#9;"/>
		
			<polyline style="fill-rule:evenodd;clip-rule:evenodd;fill:none;stroke:#000000;stroke-width:15;stroke-miterlimit:22.9256;" points="&#10;&#9;&#9;&#9;346.031,188.202 348.109,161.953 311.88,146.953 286,154.953 293.608,183.047 &#9;&#9;"/>
		
			<polyline style="fill-rule:evenodd;clip-rule:evenodd;fill:none;stroke:#000000;stroke-width:15;stroke-miterlimit:22.9256;" points="&#10;&#9;&#9;&#9;286,154.953 251.609,140.953 230.359,154.953 212.144,173.702 &#9;&#9;"/>
		
			<polyline style="fill-rule:evenodd;clip-rule:evenodd;fill:none;stroke:#000000;stroke-width:15;stroke-miterlimit:22.9256;" points="&#10;&#9;&#9;&#9;230.359,154.953 188.5,141.935 163.608,154.453 156.109,183.047 &#9;&#9;"/>
		
			<polyline style="fill-rule:evenodd;clip-rule:evenodd;fill:none;stroke:#000000;stroke-width:15;stroke-miterlimit:22.9256;" points="&#10;&#9;&#9;&#9;188.5,141.935 196.609,117.452 222.858,110.452 251.609,140.953 &#9;&#9;"/>
		
			<polyline style="fill-rule:evenodd;clip-rule:evenodd;fill:none;stroke:#000000;stroke-width:15;stroke-miterlimit:22.9256;" points="&#10;&#9;&#9;&#9;311.88,146.953 317.054,118.952 292.358,110.452 272.358,110.452 251.609,140.953 &#9;&#9;"/>
		
			<polyline style="fill-rule:evenodd;clip-rule:evenodd;fill:none;stroke:#000000;stroke-width:15;stroke-miterlimit:22.9256;" points="&#10;&#9;&#9;&#9;222.858,110.452 226,86.452 256,84.452 272.358,110.452 &#9;&#9;"/>
		
			<polyline style="fill-rule:evenodd;clip-rule:evenodd;fill:none;stroke:#000000;stroke-width:15;stroke-miterlimit:22.9256;" points="&#10;&#9;&#9;&#9;377,397.829 7.5,397.829 7.5,367.829 504.5,367.829 504.5,397.829 392,397.829 &#9;&#9;"/>
	</g>
</g>















</svg>
