<svg version="1.1" id="Layer_1" xmlns="http://www.w3.org/2000/svg" xmlns:xlink="http://www.w3.org/1999/xlink" x="0px" y="0px" viewBox="0 0 512 512" style="enable-background:new 0 0 512 512;" xml:space="preserve">
<g>
	
		<ellipse transform="matrix(0.4715 -0.8818 0.8818 0.4715 -228.2663 510.8547)" style="fill:#DD636E;" cx="312.101" cy="445.882" rx="20.751" ry="27.333"/>
	
		<ellipse transform="matrix(0.8721 -0.4893 0.4893 0.8721 -193.3929 202.3021)" style="fill:#DA4A54;" cx="290.285" cy="471.09" rx="20.751" ry="27.333"/>
	
		<ellipse transform="matrix(0.8818 -0.4715 0.4715 0.8818 -186.6329 146.9445)" style="fill:#DD636E;" cx="199.899" cy="445.882" rx="27.333" ry="20.751"/>
	
		<ellipse transform="matrix(0.4893 -0.8721 0.8721 0.4893 -297.614 433.9248)" style="fill:#DA4A54;" cx="221.715" cy="471.09" rx="27.333" ry="20.751"/>
	<path style="fill:#DD636E;" d="M256,504.5L256,504.5c-9.88,0-17.889-8.009-17.889-17.889v-61.283c0-4.823,3.91-8.733,8.733-8.733&#10;&#9;&#9;h18.311c4.823,0,8.733,3.91,8.733,8.733v61.283C273.889,496.491,265.88,504.5,256,504.5z"/>
	<path style="fill:#DA4A54;" d="M263.822,455.12h-15.643c-18.748,0-33.947-15.199-33.947-33.947v-48.686&#10;&#9;&#9;c0-8.236,6.676-14.912,14.912-14.912h53.714c8.236,0,14.912,6.676,14.912,14.912v48.686&#10;&#9;&#9;C297.769,439.922,282.57,455.12,263.822,455.12z"/>
	<path style="fill:#DD636E;" d="M268.348,416.595h-24.697c-18.555,0-33.597-15.042-33.597-33.597v-45.15&#10;&#9;&#9;c0-8.638,7.002-15.64,15.64-15.64h60.612c8.638,0,15.64,7.002,15.64,15.64v45.15C301.946,401.553,286.904,416.595,268.348,416.595z&#10;&#9;&#9;"/>
	<path style="fill:#DA4A54;" d="M269.792,377.036h-27.585c-20.577,0-37.258-16.681-37.258-37.258v-48.325&#10;&#9;&#9;c0-9.105,7.381-16.486,16.486-16.486h69.13c9.105,0,16.486,7.381,16.486,16.486v48.325&#10;&#9;&#9;C307.051,360.355,290.37,377.036,269.792,377.036z"/>
	<path style="fill:#D82E3D;" d="M146.66,133.333c0,0-5.255,56.478,79.809,41L218.247,205c0,0-89.59,36.375-102.701-41.402&#10;&#9;&#9;L146.66,133.333z"/>
	<path style="fill:#D82E3D;" d="M365.34,133.333c0,0,5.255,56.478-79.809,41L293.753,205c0,0,89.59,36.375,102.701-41.402&#10;&#9;&#9;L365.34,133.333z"/>
	<path style="fill:#DD636E;" d="M318.5,208.67v87.243c0,21.771-22.002,39.42-49.143,39.42h-26.715&#10;&#9;&#9;c-27.141,0-49.143-17.649-49.143-39.42V208.67c0-11.959,3.35-23.766,9.802-34.548l20.444-34.164&#10;&#9;&#9;c4.209-7.034,13.074-11.508,22.8-11.508h18.908c9.726,0,18.591,4.474,22.8,11.508l20.444,34.164&#10;&#9;&#9;C315.15,184.904,318.5,196.711,318.5,208.67z"/>
	<path style="fill:#DA4A54;" d="M308.698,174.123l-20.444-34.164c-4.209-7.034-13.074-11.508-22.8-11.508h-18.908&#10;&#9;&#9;c-1.891,0-3.748,0.174-5.546,0.498c7.45,1.343,13.863,5.344,17.254,11.01l20.444,34.164c6.452,10.781,9.802,22.588,9.802,34.548&#10;&#9;&#9;v87.243c0,21.329-21.121,38.69-47.5,39.387c0.547,0.014,1.092,0.033,1.643,0.033h26.715c27.141,0,49.143-17.649,49.143-39.42&#10;&#9;&#9;V208.67C318.5,196.711,315.15,184.904,308.698,174.123z"/>
	<path style="fill:#D82E3D;" d="M124.534,77.625c15.66-13.729,24.85-36.312,29.155-49.474c1.14-3.486,6.029-3.611,7.351-0.19&#10;&#9;&#9;c8.612,22.289,23.652,74.244-17.174,86.824C143.865,114.784,101.396,97.909,124.534,77.625z"/>
	<path style="fill:#D82E3D;" d="M387.466,77.625c-15.66-13.729-24.85-36.312-29.155-49.474c-1.14-3.486-6.029-3.611-7.351-0.19&#10;&#9;&#9;c-8.612,22.289-23.652,74.244,17.174,86.824C368.135,114.784,410.604,97.909,387.466,77.625z"/>
	<path style="fill:#DD636E;" d="M118.167,12.591c0.029-3.96-3.023-6.624-7.694-4.11C94.699,16.97,71,18.095,71,90.3&#10;&#9;&#9;c0,60.74,23.001,90.578,51.191,81.644c32.209-10.208,51.014-83.535,17.759-96.81C120.128,67.221,118.038,29.916,118.167,12.591z"/>
	<path style="fill:#DA4A54;" d="M139.95,75.134c-19.822-7.913-21.912-45.218-21.783-62.543c0.029-3.96-3.023-6.624-7.694-4.11&#10;&#9;&#9;c-6.762,3.639-14.979,5.93-22.162,13.041c0.748,18.878,4.775,46.88,21.639,53.612c31.184,12.448,16.591,77.7-11.905,94.197&#10;&#9;&#9;c7.201,4.426,15.425,5.377,24.147,2.613C154.4,161.736,173.205,88.409,139.95,75.134z"/>
	<path style="fill:#DD636E;" d="M393.833,12.591c-0.029-3.96,3.023-6.624,7.694-4.11C417.301,16.97,441,18.095,441,90.3&#10;&#9;&#9;c0,60.74-23.001,90.578-51.191,81.644c-32.209-10.208-51.014-83.535-17.759-96.81C391.872,67.221,393.962,29.916,393.833,12.591z"/>
	<path style="fill:#DA4A54;" d="M401.527,8.48c-4.671-2.514-7.723,0.15-7.694,4.11c0.019,2.585-0.013,5.621-0.144,8.931&#10;&#9;&#9;C403.263,31,411,49.046,411,90.3c0,41.947-10.971,69.152-27.044,79.031c1.893,1.096,3.847,1.977,5.853,2.613&#10;&#9;&#9;C417.999,180.878,441,151.04,441,90.3C441,18.095,417.301,16.97,401.527,8.48z"/>
	<g>
		
			<polyline style="fill:none;stroke:#000000;stroke-width:15;stroke-linecap:round;stroke-linejoin:round;stroke-miterlimit:10;" points="&#10;&#9;&#9;&#9;190.631,252.615 142.297,246.379 93.854,272.612 &#9;&#9;"/>
		
			<polyline style="fill:none;stroke:#000000;stroke-width:15;stroke-linecap:round;stroke-linejoin:round;stroke-miterlimit:10;" points="&#10;&#9;&#9;&#9;196.402,311.771 148.281,326.824 125.674,383.713 &#9;&#9;"/>
		
			<polyline style="fill:none;stroke:#000000;stroke-width:15;stroke-linecap:round;stroke-linejoin:round;stroke-miterlimit:10;" points="&#10;&#9;&#9;&#9;190.631,284.001 141.583,287.49 86,329.459 &#9;&#9;"/>
		
			<polyline style="fill:none;stroke:#000000;stroke-width:15;stroke-linecap:round;stroke-linejoin:round;stroke-miterlimit:10;" points="&#10;&#9;&#9;&#9;321.369,252.615 369.703,246.379 418.146,272.612 &#9;&#9;"/>
		
			<polyline style="fill:none;stroke:#000000;stroke-width:15;stroke-linecap:round;stroke-linejoin:round;stroke-miterlimit:10;" points="&#10;&#9;&#9;&#9;315.598,311.771 363.719,326.824 386.326,383.713 &#9;&#9;"/>
		
			<polyline style="fill:none;stroke:#000000;stroke-width:15;stroke-linecap:round;stroke-linejoin:round;stroke-miterlimit:10;" points="&#10;&#9;&#9;&#9;321.369,284.001 370.417,287.49 426,329.459 &#9;&#9;"/>
		<path style="fill:none;stroke:#000000;stroke-width:15;stroke-linecap:round;stroke-linejoin:round;stroke-miterlimit:10;" d="&#10;&#9;&#9;&#9;M313.01,467.854c9.933,1.636,19.214-1.639,23.195-9.083c5.404-10.106-1.007-24.069-14.319-31.188&#10;&#9;&#9;&#9;c-7.744-4.141-16.118-5.053-22.832-3.102"/>
		<path style="fill:none;stroke:#000000;stroke-width:15;stroke-linecap:round;stroke-linejoin:round;stroke-miterlimit:10;" d="&#10;&#9;&#9;&#9;M274.622,485.015c7.759,10.513,20.054,14.954,29.038,9.913c9.995-5.608,12.108-20.826,4.721-33.991&#10;&#9;&#9;&#9;c-4.766-8.494-12.323-14.058-19.769-15.431"/>
		<path style="fill:none;stroke:#000000;stroke-width:15;stroke-linecap:round;stroke-linejoin:round;stroke-miterlimit:10;" d="&#10;&#9;&#9;&#9;M199.899,467.691c-10.272,1.995-20.002-1.249-24.104-8.92c-5.404-10.106,1.007-24.069,14.319-31.188&#10;&#9;&#9;&#9;c7.881-4.214,16.413-5.084,23.185-2.997"/>
		<path style="fill:none;stroke:#000000;stroke-width:15;stroke-linecap:round;stroke-linejoin:round;stroke-miterlimit:10;" d="&#10;&#9;&#9;&#9;M237.489,484.863c-7.753,10.621-20.122,15.13-29.149,10.064c-9.994-5.608-12.108-20.826-4.721-33.991&#10;&#9;&#9;&#9;c4.527-8.069,11.573-13.493,18.65-15.193"/>
		<path style="fill:none;stroke:#000000;stroke-width:15;stroke-linecap:round;stroke-linejoin:round;stroke-miterlimit:10;" d="&#10;&#9;&#9;&#9;M273.889,455.12v31.491c0,9.88-8.009,17.889-17.889,17.889h0c-9.88,0-17.889-8.009-17.889-17.889V455.12"/>
		<path style="fill:none;stroke:#000000;stroke-width:15;stroke-linecap:round;stroke-linejoin:round;stroke-miterlimit:10;" d="&#10;&#9;&#9;&#9;M297.769,400.556v20.618c0,18.748-15.199,33.947-33.947,33.947h-15.643c-18.748,0-33.947-15.199-33.947-33.947V400"/>
		<path style="fill:none;stroke:#000000;stroke-width:15;stroke-linecap:round;stroke-linejoin:round;stroke-miterlimit:10;" d="&#10;&#9;&#9;&#9;M301.946,360.111v22.887c0,18.555-15.042,33.597-33.597,33.597h-24.697c-18.555,0-33.597-15.042-33.597-33.597V360"/>
		<path style="fill:none;stroke:#000000;stroke-width:15;stroke-linecap:round;stroke-linejoin:round;stroke-miterlimit:10;" d="&#10;&#9;&#9;&#9;M307.051,322.778v17c0,20.577-16.681,37.258-37.258,37.258h-27.585c-20.577,0-37.258-16.681-37.258-37.258v-17.57"/>
		<path style="fill:none;stroke:#000000;stroke-width:15;stroke-linecap:round;stroke-linejoin:round;stroke-miterlimit:10;" d="&#10;&#9;&#9;&#9;M148.364,147.123c3.835,12.923,15.757,30.219,52.136,29.891"/>
		<path style="fill:none;stroke:#000000;stroke-width:15;stroke-linecap:round;stroke-linejoin:round;stroke-miterlimit:10;" d="&#10;&#9;&#9;&#9;M192.917,211.834c-25.63,4.345-63.136,2.863-75.128-38.334"/>
		<path style="fill:none;stroke:#000000;stroke-width:15;stroke-linecap:round;stroke-linejoin:round;stroke-miterlimit:10;" d="&#10;&#9;&#9;&#9;M363.636,147.123c-3.835,12.923-15.757,30.219-52.136,29.891"/>
		<path style="fill:none;stroke:#000000;stroke-width:15;stroke-linecap:round;stroke-linejoin:round;stroke-miterlimit:10;" d="&#10;&#9;&#9;&#9;M319.083,211.834c25.63,4.345,63.136,2.863,75.128-38.334"/>
		<path style="fill:none;stroke:#000000;stroke-width:15;stroke-linecap:round;stroke-linejoin:round;stroke-miterlimit:10;" d="&#10;&#9;&#9;&#9;M252.333,335.333h-9.691c-27.141,0-49.143-17.649-49.143-39.42V208.67c0-11.959,3.35-23.766,9.802-34.548l20.444-34.164&#10;&#9;&#9;&#9;c4.209-7.034,13.074-11.508,22.8-11.508h18.908c9.726,0,18.591,4.474,22.8,11.508l20.444,34.164&#10;&#9;&#9;&#9;c6.452,10.782,9.802,22.588,9.802,34.548v87.243c0,16.97-13.368,31.435-32.117,36.99"/>
		<path style="fill:none;stroke:#000000;stroke-width:15;stroke-linecap:round;stroke-linejoin:round;stroke-miterlimit:10;" d="&#10;&#9;&#9;&#9;M133.575,67.952c10.27-13.143,16.715-29.409,20.113-39.802c1.14-3.486,6.029-3.611,7.351-0.19&#10;&#9;&#9;&#9;c7.266,18.806,19.109,58.733-1.891,78.306"/>
		<path style="fill:none;stroke:#000000;stroke-width:15;stroke-linecap:round;stroke-linejoin:round;stroke-miterlimit:10;" d="&#10;&#9;&#9;&#9;M378.425,67.952c-10.271-13.143-16.715-29.409-20.113-39.802c-1.14-3.486-6.029-3.611-7.351-0.19&#10;&#9;&#9;&#9;c-7.266,18.806-19.109,58.733,1.891,78.306"/>
		<path style="fill:none;stroke:#000000;stroke-width:15;stroke-linecap:round;stroke-linejoin:round;stroke-miterlimit:10;" d="&#10;&#9;&#9;&#9;M72.479,62.457C71.528,70.328,71,79.522,71,90.3c0,60.74,23.001,90.578,51.191,81.644c32.209-10.208,51.014-83.535,17.759-96.81&#10;&#9;&#9;&#9;c-19.822-7.913-21.912-45.218-21.783-62.543c0.029-3.96-3.023-6.624-7.694-4.11c-8.698,4.681-19.805,7.123-28.02,20.478"/>
		<path style="fill:none;stroke:#000000;stroke-width:15;stroke-linecap:round;stroke-linejoin:round;stroke-miterlimit:10;" d="&#10;&#9;&#9;&#9;M393.833,12.591c-0.029-3.96,3.023-6.624,7.694-4.11C417.301,16.97,441,18.095,441,90.3c0,60.74-23.001,90.578-51.191,81.644&#10;&#9;&#9;&#9;c-32.209-10.208-51.014-83.535-17.759-96.81C391.872,67.221,393.962,29.916,393.833,12.591z"/>
		<g>
			
				<line style="fill:none;stroke:#000000;stroke-width:15;stroke-linecap:round;stroke-linejoin:round;stroke-miterlimit:10;" x1="223.464" y1="149.837" x2="231.155" y2="153.495"/>
			
				<line style="fill:none;stroke:#000000;stroke-width:15;stroke-linecap:round;stroke-linejoin:round;stroke-miterlimit:10;" x1="288.535" y1="149.837" x2="280.845" y2="153.495"/>
		</g>
		<g>
			<g>
				<path style="fill:none;stroke:#000000;stroke-width:15;stroke-linecap:round;stroke-linejoin:round;stroke-miterlimit:10;" d="&#10;&#9;&#9;&#9;&#9;&#9;M242.461,126.333c0,0,3.389-55.791-22.843-70.667c0,0-29.162,174.758-161.618,179.157"/>
			</g>
			<g>
				<path style="fill:none;stroke:#000000;stroke-width:15;stroke-linecap:round;stroke-linejoin:round;stroke-miterlimit:10;" d="&#10;&#9;&#9;&#9;&#9;&#9;M269.539,126.333c0,0-3.389-55.791,22.843-70.667c0,0,29.162,174.758,161.618,179.157"/>
			</g>
		</g>
	</g>
</g>
<g>
</g>
<g>
</g>
<g>
</g>
<g>
</g>
<g>
</g>
<g>
</g>
<g>
</g>
<g>
</g>
<g>
</g>
<g>
</g>
<g>
</g>
<g>
</g>
<g>
</g>
<g>
</g>
<g>
</g>
</svg>