<?xml version="1.0" encoding="utf-8"?>
<!-- Generator: Adobe Illustrator 27.5.0, SVG Export Plug-In . SVG Version: 6.00 Build 0)  -->
<svg version="1.1" id="Ñëîé_1" xmlns="http://www.w3.org/2000/svg" xmlns:xlink="http://www.w3.org/1999/xlink" x="0px" y="0px"
	 viewBox="0 0 2000 2586.444" style="enable-background:new 0 0 2000 2586.444;" xml:space="preserve">
<g>
	<g style="opacity:0.8;">
		<g>
			<g>
				<path style="fill:#976D43;" d="M616.625,1450.409c2.026,0,1.948-3.146-0.077-3.146
					C614.522,1447.263,614.6,1450.409,616.625,1450.409L616.625,1450.409z"/>
			</g>
		</g>
	</g>
	<g>
		<g>
			<path style="fill:#AA7722;" d="M696.361,986.214c-41.339-46.555-71.056-103.35-85.736-163.854
				c-7.348-30.284-10.671-63.516,2.951-91.544c4.891-10.064,11.851-19.173,15.307-29.815c6.516-20.066-0.377-41.648-4.412-62.356
				c-7.452-38.247-4.845-78.408,7.49-115.37c8.355-25.037,26.049-51.868,52.437-52.43c30.035-0.639,49.243,33.95,49.338,63.992
				c0.095,30.042-11.489,59.312-10.547,89.339c0.996,31.713,15.866,63.7,6.972,94.157c-4.911,16.819-16.583,30.847-23.038,47.136
				c-14.76,37.247,3.286,84.34,39.157,102.185c5.352-7.429,10.704-14.858,16.055-22.287c14.472-0.182,24.605,15.324,25.936,29.736
				c1.331,14.412-3.087,28.752-3.208,43.225c-0.341,41.016,32.624,74.153,45.279,113.169c25.657,79.101-35.083,168.546-5.201,246.15
				c5.837,15.16,20.917,31.101,35.815,24.624c9.31-4.047,13.188-14.968,15.731-24.796c13.076-50.557,16.95-103.479,11.375-155.401
				c-3.204-29.835-9.412-60.631-0.574-89.307c11.408-37.017,46.603-65.541,49.047-104.199c1.356-21.451-7.842-41.945-15.503-62.028
				c-7.66-20.082-13.952-42.449-6.869-62.742c7.085-20.293,33.14-34.807,50.962-22.793c6.667,4.495,13.14,12.412,20.83,10.062
				c4.606-1.407,7.27-6.109,9.259-10.494c15.227-33.577,17.594-72.797,6.515-107.961c-8.325-26.422-23.809-50.291-30.741-77.112
				c-14.523-56.188,11.696-116.746,52.818-157.697c41.121-40.951,95.191-65.877,148.608-88.562
				c8.226-3.494,17.031-7.028,25.843-5.533c15.638,2.651,24.692,20.816,22.811,36.565c-1.881,15.749-11.655,29.306-21.502,41.741
				c-22.674,28.632-47.511,55.551-74.229,80.453c-17.136,15.971-35.477,31.666-45.973,52.607
				c-10.497,20.941-10.948,49.038,5.799,65.417c9.748,9.534,24.094,14.105,31.832,25.331c12.041,17.469,2.371,41.588-10.332,58.581
				c-12.703,16.994-29.01,33.542-30.54,54.703c-1.371,18.949,9.727,36.827,10.148,55.821c1.038,46.91-57.861,71.17-76.65,114.165
				c-8.849,20.25-8.077,43.337-13.917,64.651c-8.905,32.502-32.435,58.754-47.297,88.999
				c-26.41,53.746-24.083,116.388-25.384,176.259c-1.3,59.87-8.762,124.375-49.021,168.708c-3.726,4.102-8.23,8.231-13.765,8.51
				c-7.482,0.379-13.245-6.255-17.557-12.382c-50.098-71.181-77.039-165.069-64.859-251.929
				c4.067-29.002,13.323-52.627,2.797-81.462C765.362,1048.658,724.949,1018.411,696.361,986.214z"/>
		</g>
	</g>
	<g>
		<g>
			<path style="fill:#AA7722;" d="M1463.203,649.427c-4.255-13.712-10.287-27.076-11.603-41.372
				c-1.521-16.516,3.377-32.995,3.123-49.578c-0.312-20.476-12.379-44.288-37.062-39.246c-3.542,0.723-6.933,2.099-10.124,3.8
				c-27.787,14.816-39.125,47.79-42.418,78.632c-3.145,29.449-0.907,59.721-8.973,88.219
				c-13.333,47.106-56.555,84.264-105.127,90.382c-7.78,0.98-15.778,1.259-23.105,4.051c-10.25,3.905-18.146,12.368-24.109,21.573
				c-25.136,38.805-20.733,91.017-44.816,130.484c-23.868,39.116-69.909,57.317-108.009,82.776
				c-24.39,16.297-34.388,22.727-53.649,55.228c-9.498,16.027-17.744,32.76-24.896,49.963
				c-12.692,30.53-37.677,90.232-59.453,139.898c-20.017,45.657-44.097,95.505-27.825,143.145c0.725,2.124,1.725,4.186,3.139,5.929
				c8.56,10.548,21.873,3.453,30.545-4.182c68.667-60.452,85.792-161.997,147.016-229.977c14.712-16.335,32.582-30.897,53.88-36.344
				c27.51-7.036,56.68,1.96,84.872-1.429c27.609-3.319,52.92-19.728,68.662-42.543c11.147-16.156-7.567-36.118-24.583-26.335
				c-11.582,6.659-23.596,12.421-34.917,6.447c-6.55-3.456-10.704-10.164-11.948-17.464c-2.561-15.027,4.676-28.279,11.706-40.848
				c17.405-31.126,34.811-62.251,52.216-93.376c7.381-13.199,14.964-26.654,26.209-36.766
				c19.904-17.896,47.935-22.641,72.729-32.729C1442.826,825.972,1488.21,729.999,1463.203,649.427z"/>
		</g>
	</g>
	<g>
		<g>
			<g>
				<path style="fill:#AA7722;" d="M859,1330.754c-58.603,150.061,4.53,303.506,37.448,451.145
					c8.646,38.778,13.957,78.769,8.092,118.392c-5.799,39.179-19.291,76.783-25.268,115.958
					c-11.206,73.444,2.402,146.934,36.822,212.544c17.073,32.545,66.361,3.722,49.292-28.813
					c-34.523-65.808-40.009-137.164-22.982-208.834c7.983-33.605,17.371-66.814,20.522-101.348
					c3.465-37.976-1.628-76.368-9.355-113.536c-29.39-141.372-95.638-286.64-39.522-430.331
					C927.418,1311.694,872.239,1296.855,859,1330.754L859,1330.754z"/>
			</g>
		</g>
	</g>
	<g>
		<g>
			<path style="fill:#AA7722;" d="M779.784,1629.316c-12.044-0.618-24.247,0.635-36.097-1.602
				c-53.238-10.052-70.148-79.064-113.753-111.218c-21.865-16.123-49.531-22.099-73.203-35.429
				c-43.128-24.287-70.249-74.467-66.935-123.853c0.768-11.457,3.026-23.017,1.023-34.323
				c-3.534-19.956-19.327-35.006-31.647-51.097c-18.693-24.417-30.58-54.005-33.844-84.594c-0.727-6.805,0.439-13.797,3.962-19.664
				c13.447-22.393,44.282-9.369,60.964,7.655c28.221,28.799,46.753,66.932,51.961,106.915c3.002,23.052,1.984,47.603,13.227,67.95
				c6.024,10.9,17.573,19.403,29.478,22.374c19.304,4.818,34.364,19.796,41.084,38.523c6.07,16.915,13.518,33.335,22.268,49.034
				c5.944,10.667,17.547,17.35,29.715,16.323c26.54-2.242,27.6-36.994,16.795-58.575c-2.659-5.312-5.732-10.648-8.719-16.029
				c-11.217-20.199,16.309-39.493,31.325-21.932c10.273,12.013,17.916,27.044,22.543,42.075
				c9.772,31.743,10.631,65.889,22.267,97.004c10.339,27.644,28.667,50.886,49.573,71.329c15.901,15.549,56.486,34.69,64.776,54.901
				C894.703,1689.349,803.057,1630.511,779.784,1629.316z"/>
		</g>
	</g>
	<g>
		<g>
			<path style="fill:#AA7722;" d="M1052.646,1510.395c34.221-5.446,52.787-41.509,71.181-70.875
				c16.474-26.302,36.788-50.195,60.097-70.686c7.298-6.415,15.129-12.632,24.394-15.561c20.699-6.543,42.375,4.575,63.857,7.706
				c60.414,8.805,113.318-49.489,123.867-109.623c1.489-8.484,2.739-17.582,4.38-26.554c4.408-24.104,26.982-40.948,51.22-37.345
				c7.613,1.132,16.011-0.406,22.2-4.869c14.192-10.236,19.94-28.185,27.172-44.119c7.953-17.521,21.83-35.852,42.203-33.518
				c10.993,1.26,20.214,8.573,25.53,18.277c9.224,16.838,6.641,36.372,1.375,54.094c-6.858,23.083-18.185,44.828-33.17,63.677
				c-16.874,21.226-39.782,47.884-26.26,71.388c2.775,4.824,6.924,8.812,9.253,13.867c8.097,17.573-8.562,36.013-23.566,48.228
				c-16.972,13.816-33.944,27.633-50.916,41.448c-35.55,28.94-73.493,58.97-118.847,65.63
				c-54.797,8.046-120.372-16.886-160.508,21.279c-12.447,11.836-19.86,28.128-31.978,40.301
				c-21.671,21.768-51.854,34.497-81.091,32.945c-114.148-6.058-118.26,105.695-140.265,96.337
				c-26.487-11.265,29.898-124.026,44.771-143.51C982.284,1496.51,1019.385,1515.689,1052.646,1510.395z"/>
		</g>
	</g>
	<g style="opacity:0.6;">
		<g>
			<g>
				<path style="fill:#976D43;" d="M635.185,647.953c7.206,13.735,9.074,25.886,7.252,41.166c-0.163,1.366,1.691,1.903,2.117,0.528
					c4.312-13.952,0.824-31.018-8.062-42.501C635.893,646.371,634.719,647.063,635.185,647.953L635.185,647.953z"/>
			</g>
		</g>
	</g>
	<g style="opacity:0.6;">
		<g>
			<g>
				<path style="fill:#976D43;" d="M648.056,662.18c3.549,9.372,3.768,18.381,3.952,28.231c0.021,1.117,1.682,1.305,1.953,0.216
					c2.394-9.633,0.189-20.131-3.391-29.207C649.957,659.865,647.453,660.588,648.056,662.18L648.056,662.18z"/>
			</g>
		</g>
	</g>
	<g style="opacity:0.6;">
		<g>
			<g>
				<path style="fill:#976D43;" d="M619.058,760.994c-2.068,16.37-0.912,32.251,4.366,47.899c0.305,0.904,1.684,0.495,1.423-0.43
					c-4.361-15.53-6.162-31.273-4.617-47.339C620.293,760.463,619.142,760.33,619.058,760.994L619.058,760.994z"/>
			</g>
		</g>
	</g>
	<g style="opacity:0.6;">
		<g>
			<g>
				<path style="fill:#976D43;" d="M691.076,763.579c-5.922,12.623-7.496,27.432-5.194,41.141c0.169,1.009,1.666,0.649,1.697-0.272
					c0.47-13.769,2.474-26.703,5.326-40.15C693.13,763.244,691.572,762.522,691.076,763.579L691.076,763.579z"/>
			</g>
		</g>
	</g>
	<g style="opacity:0.6;">
		<g>
			<g>
				<path style="fill:#976D43;" d="M701.677,600.951c3.761,15.8,6.789,32.065,12.188,47.406c0.419,1.19,2.53,1.021,2.328-0.373
					c-2.357-16.223-7.218-32.155-11.242-48.023C704.409,597.824,701.169,598.817,701.677,600.951L701.677,600.951z"/>
			</g>
		</g>
	</g>
	<g style="opacity:0.6;">
		<g>
			<g>
				<path style="fill:#976D43;" d="M697.618,620.985c1.966,8.026,3.544,17.405,7.337,24.786c0.742,1.444,3.33,0.72,3.118-0.927
					c-1.06-8.244-5.056-16.861-7.988-24.604C699.5,618.694,697.22,619.362,697.618,620.985L697.618,620.985z"/>
			</g>
		</g>
	</g>
	<g style="opacity:0.6;">
		<g>
			<g>
				<path style="fill:#976D43;" d="M721.424,691.106c-0.998,7.227-3.824,14.031-5.917,20.971c-0.355,1.176,1.402,2.245,2.184,1.2
					c4.849-6.477,6.029-14.047,6.125-21.907C723.832,690.031,721.614,689.731,721.424,691.106L721.424,691.106z"/>
			</g>
		</g>
	</g>
	<g style="opacity:0.6;">
		<g>
			<g>
				<path style="fill:#976D43;" d="M716.042,987.672c4.51,11.083,12.75,17.996,21.315,26.056
					c12.519,11.78,21.72,25.562,32.255,38.947c1.515,1.924,4.339,0.226,3.247-2.006c-5.88-12.008-15.26-22.755-24.561-32.28
					c-10.127-10.371-23.357-18.619-30.464-31.524C717.302,985.899,715.614,986.621,716.042,987.672L716.042,987.672z"/>
			</g>
		</g>
	</g>
	<g style="opacity:0.6;">
		<g>
			<g>
				<path style="fill:#976D43;" d="M753.703,1015.596c9.942,17.491,29.277,26.375,31.905,48.019
					c0.191,1.573,2.527,2.066,2.929,0.323c5.048-21.898-22.331-34.576-32.895-49.541
					C754.801,1013.205,752.973,1014.31,753.703,1015.596L753.703,1015.596z"/>
			</g>
		</g>
	</g>
	<g style="opacity:0.6;">
		<g>
			<g>
				<path style="fill:#976D43;" d="M814.914,1043.913c14.649,17.366,3.828,40.688,1.536,60.58c-0.195,1.688,2.196,2.413,2.645,0.66
					c4.446-17.381,14.255-48.882-3.258-62.209C815.149,1042.421,814.356,1043.251,814.914,1043.913L814.914,1043.913z"/>
			</g>
		</g>
	</g>
	<g style="opacity:0.6;">
		<g>
			<g>
				<path style="fill:#976D43;" d="M790.251,1254.646c-8.266,28.084-0.162,59.633,19.047,81.35c0.904,1.022,2.547-0.364,1.832-1.486
					c-15.747-24.722-21.229-50.634-18.829-79.638C792.402,1253.658,790.567,1253.572,790.251,1254.646L790.251,1254.646z"/>
			</g>
		</g>
	</g>
	<g style="opacity:0.6;">
		<g>
			<g>
				<path style="fill:#976D43;" d="M806.678,1313.348c2.36,12.341,7.07,24.354,16.722,32.835c1.363,1.198,3.66-0.454,2.557-2.075
					c-6.793-9.986-13.678-19.698-17.571-31.276C808.014,1311.724,806.466,1312.238,806.678,1313.348L806.678,1313.348z"/>
			</g>
		</g>
	</g>
	<g style="opacity:0.6;">
		<g>
			<g>
				<path style="fill:#976D43;" d="M839.291,1319.729c4.953,1.076,10.036,2.614,15.11,2.893c0.828,0.046,1.195-1.307,0.398-1.626
					c-4.716-1.888-9.944-2.65-14.885-3.768C838.296,1316.862,837.67,1319.377,839.291,1319.729L839.291,1319.729z"/>
			</g>
		</g>
	</g>
	<g style="opacity:0.6;">
		<g>
			<g>
				<path style="fill:#976D43;" d="M827.783,1381.328c1.646,9.526,4.273,21.054,10.459,28.767c1.364,1.701,4.142,0.694,3.584-1.616
					c-2.31-9.566-7.309-18.848-10.343-28.27C830.701,1377.778,827.37,1378.937,827.783,1381.328L827.783,1381.328z"/>
			</g>
		</g>
	</g>
	<g style="opacity:0.6;">
		<g>
			<g>
				<path style="fill:#976D43;" d="M903.136,1274.096c4.487-18.39,6.075-39.54,5.58-58.392c-0.039-1.459-2.401-1.823-2.636-0.291
					c-2.899,18.865-4.877,39.464-4.36,58.526C901.742,1274.745,902.942,1274.89,903.136,1274.096L903.136,1274.096z"/>
			</g>
		</g>
	</g>
	<g style="opacity:0.6;">
		<g>
			<g>
				<path style="fill:#976D43;" d="M917.01,1239.568c0.866,0.478,1.217,0.419,1.052-0.177c-0.027-0.233-0.045-0.467-0.054-0.702
					c0.158-0.579-0.092-1.431-0.134-2.044c-0.087-1.273-0.161-2.549-0.271-3.821c-0.429-4.97-0.247-10.074-0.948-14.999
					c-0.13-0.911-1.554-1.271-1.758-0.194c-1.231,6.522-0.546,14.33,0.574,20.914c0.339,1.986,2.175,5.25,3.368,1.743
					C919.198,1239.231,917.477,1238.548,917.01,1239.568L917.01,1239.568z"/>
			</g>
		</g>
	</g>
	<g style="opacity:0.6;">
		<g>
			<g>
				<path style="fill:#976D43;" d="M976.806,1152.498c8.747-30.017,24.318-55.305,41.184-81.237
					c0.666-1.023-0.849-2.017-1.665-1.221c-22.311,21.795-34.69,52.064-40.961,82.098
					C975.167,1153.076,976.538,1153.417,976.806,1152.498L976.806,1152.498z"/>
			</g>
		</g>
	</g>
	<g style="opacity:0.6;">
		<g>
			<g>
				<path style="fill:#976D43;" d="M997.304,1130.765c8.091-12.637,17.585-24.234,27.277-35.665c1.051-1.239-0.654-2.879-1.83-1.742
					c-11.037,10.663-19.887,22.997-27.79,36.114C994.065,1130.959,996.383,1132.204,997.304,1130.765L997.304,1130.765z"/>
			</g>
		</g>
	</g>
	<g style="opacity:0.6;">
		<g>
			<g>
				<path style="fill:#976D43;" d="M1191.263,1046.623c-0.377,11.701,2.43,27.501,12.729,34.789
					c1.282,0.908,3.208-0.706,2.642-2.136c-2.054-5.192-5.704-9.56-7.798-14.808c-2.27-5.689-4.057-11.824-4.7-17.915
					C1193.943,1044.723,1191.323,1044.758,1191.263,1046.623L1191.263,1046.623z"/>
			</g>
		</g>
	</g>
	<g style="opacity:0.6;">
		<g>
			<g>
				<path style="fill:#976D43;" d="M1187.172,1064.968c2.813,10.561,11.459,22.723,23.197,24.227
					c1.607,0.205,2.531-1.767,1.061-2.699c-4.446-2.82-9.029-4.823-12.92-8.536c-4.052-3.867-7.352-8.365-9.487-13.551
					C1188.557,1063.278,1186.846,1063.743,1187.172,1064.968L1187.172,1064.968z"/>
			</g>
		</g>
	</g>
	<g style="opacity:0.6;">
		<g>
			<g>
				<path style="fill:#976D43;" d="M1138.828,1134.19c5.673,0.502,11.365,0.558,17.021,1.29c4.545,0.589,9.044,1.53,13.632,1.701
					c1.584,0.059,2.221-2.403,0.75-3.066c-9.45-4.262-21.809-4.694-31.886-2.932
					C1136.499,1131.507,1137.261,1134.052,1138.828,1134.19L1138.828,1134.19z"/>
			</g>
		</g>
	</g>
	<g style="opacity:0.6;">
		<g>
			<g>
				<path style="fill:#976D43;" d="M1024.594,1239.56c8.843-15.957,20.108-30.849,28.349-47.049
					c0.822-1.616-1.326-3.329-2.616-1.918c-12.218,13.366-20.757,31.203-28.64,47.363
					C1020.754,1239.868,1023.552,1241.44,1024.594,1239.56L1024.594,1239.56z"/>
			</g>
		</g>
	</g>
	<g style="opacity:0.6;">
		<g>
			<g>
				<path style="fill:#976D43;" d="M1002.052,1258.415c1.17-5.326,2.76-10.484,5.014-15.458c2.033-4.486,5.134-8.468,7.018-12.968
					c0.793-1.894-1.454-3.912-3.052-2.238c-7.014,7.347-10.069,20.304-11.577,30.016
					C999.195,1259.442,1001.677,1260.121,1002.052,1258.415L1002.052,1258.415z"/>
			</g>
		</g>
	</g>
	<g style="opacity:0.6;">
		<g>
			<g>
				<path style="fill:#976D43;" d="M946.701,1354.478c1.859-2.165,3.495-4.278,5.066-6.668c1.682-2.559,3.792-5.13,4.967-7.959
					c0.431-1.038-0.835-2.225-1.705-1.25c-1.866,2.094-3.13,4.75-4.567,7.151c-1.639,2.737-3.043,5.402-4.316,8.318
					C945.999,1354.408,946.426,1354.799,946.701,1354.478L946.701,1354.478z"/>
			</g>
		</g>
	</g>
	<g style="opacity:0.6;">
		<g>
			<g>
				<path style="fill:#976D43;" d="M939.117,892.221c-0.264-8.995-2.887-17.871-4.81-26.639
					c-2.212-10.091-3.942-20.405-7.135-30.233c-0.872-2.684-5.602-2.213-5.141,0.825c1.481,9.743,4.3,19.229,6.723,28.773
					c2.378,9.367,4.091,19.134,8.161,27.928C937.431,893.989,939.149,893.32,939.117,892.221L939.117,892.221z"/>
			</g>
		</g>
	</g>
	<g style="opacity:0.6;">
		<g>
			<g>
				<path style="fill:#976D43;" d="M937.384,869.925c-0.836-9.744-0.926-19.875-2.451-29.515c-0.199-1.256-2.041-1.712-2.392-0.264
					c-2.331,9.599-0.6,20.922,2.613,30.136C935.558,871.443,937.499,871.263,937.384,869.925L937.384,869.925z"/>
			</g>
		</g>
	</g>
	<g style="opacity:0.6;">
		<g>
			<g>
				<path style="fill:#976D43;" d="M938.572,805.418c1.276-1.87,3.147-3.099,5.321-3.688c1.81-0.49,3.785-0.23,5.439-1.164
					c0.932-0.526,0.866-1.708,0.252-2.42c-1.891-2.19-5.687-1.423-8.017-0.406c-2.725,1.189-4.885,3.252-6.292,5.857
					C934.1,805.77,937.23,807.386,938.572,805.418L938.572,805.418z"/>
			</g>
		</g>
	</g>
	<g style="opacity:0.6;">
		<g>
			<g>
				<path style="fill:#976D43;" d="M1001.58,655.984c3.837,6.054,6.746,12.403,8.686,19.307c1.713,6.096,1.74,12.669,3.918,18.56
					c0.415,1.123,2.137,1.215,2.436-0.06c3.016-12.86-6.186-28.829-13.48-38.77C1002.452,654.083,1000.938,654.973,1001.58,655.984
					L1001.58,655.984z"/>
			</g>
		</g>
	</g>
	<g style="opacity:0.6;">
		<g>
			<g>
				<path style="fill:#976D43;" d="M1011.356,656.893c6.955,8.564,8.142,17.701,9.687,28.191c0.242,1.648,2.781,2.292,3.173,0.351
					c2.227-11.02-4.144-22.047-11.867-29.347C1011.837,655.604,1010.882,656.309,1011.356,656.893L1011.356,656.893z"/>
			</g>
		</g>
	</g>
	<g style="opacity:0.6;">
		<g>
			<g>
				<path style="fill:#976D43;" d="M1059.149,591.586c-9.604,13.169-3.675,36.575,8.675,46.111c1.262,0.974,3.645,0.028,2.938-1.808
					c-5.516-14.337-14.531-26.286-7.881-42.242C1063.949,591.083,1060.763,589.373,1059.149,591.586L1059.149,591.586z"/>
			</g>
		</g>
	</g>
	<g style="opacity:0.6;">
		<g>
			<g>
				<path style="fill:#976D43;" d="M1045.322,602.742c-5.955,13.278,1.014,26.823,10.339,36.664c1.206,1.274,3.068-0.43,2.29-1.858
					c-5.855-10.746-13.99-20.747-10.067-33.799C1048.33,602.263,1045.97,601.296,1045.322,602.742L1045.322,602.742z"/>
			</g>
		</g>
	</g>
	<g style="opacity:0.6;">
		<g>
			<g>
				<path style="fill:#976D43;" d="M1030.71,444.628c-0.683-3.191,26.103-21.153,29.842-24.173
					c10.66-8.609,22.872-16.86,31.84-27.212c1.192-1.376-0.396-3.408-2.013-2.481c-12.715,7.287-23.887,18.488-35.063,27.903
					c-5.934,4.999-11.835,10.038-17.753,15.057c-3.402,2.885-8.355,5.481-9.673,9.956c-0.179,0.609,0.171,1.184,0.658,1.509
					c0.269,0.179,0.538,0.359,0.806,0.538C1030.1,446.223,1030.865,445.355,1030.71,444.628L1030.71,444.628z"/>
			</g>
		</g>
	</g>
	<g style="opacity:0.6;">
		<g>
			<g>
				<path style="fill:#976D43;" d="M1063.474,427.802c3.775-3.102,7.549-6.204,11.324-9.305c3.711-3.047,7.955-5.884,10.991-9.623
					c0.984-1.212-0.324-3.025-1.765-2.175c-4.03,2.376-7.353,5.989-10.806,9.112c-3.819,3.454-7.645,6.901-11.467,10.352
					C1060.596,427.205,1062.32,428.75,1063.474,427.802L1063.474,427.802z"/>
			</g>
		</g>
	</g>
	<g style="opacity:0.6;">
		<g>
			<g>
				<path style="fill:#976D43;" d="M1165.066,361.385c3.634-0.172,7.166-1.002,10.824-0.937c3.288,0.058,6.585,1.103,9.826,0.388
					c1.068-0.235,1.234-1.639,0.555-2.333c-4.878-4.981-16.761-3.543-22.037,0.086
					C1163.048,359.404,1163.502,361.46,1165.066,361.385L1165.066,361.385z"/>
			</g>
		</g>
	</g>
	<g style="opacity:0.6;">
		<g>
			<g>
				<path style="fill:#976D43;" d="M1170.58,373.778c2.279,0.193,4.438,0.932,6.416,2.073c1.806,1.043,3.636,1.983,5.427,3.062
					c1.631,0.983,3.155-1.017,2.38-2.5c-1.478-2.83-3.327-4.381-6.326-5.403c-2.725-0.929-5.603-0.9-8.411-0.432
					C1168.102,370.905,1168.909,373.636,1170.58,373.778L1170.58,373.778z"/>
			</g>
		</g>
	</g>
	<g style="opacity:0.6;">
		<g>
			<g>
				<path style="fill:#976D43;" d="M1199.272,845.31c3.728-8.841,6.199-18.227,10.746-26.716
					c4.725-8.82,11.675-14.193,18.231-21.388c1.095-1.201-0.067-3.244-1.683-2.734c-18.606,5.872-28.414,32.862-29.433,50.315
					C1197.071,845.886,1198.837,846.343,1199.272,845.31L1199.272,845.31z"/>
			</g>
		</g>
	</g>
	<g style="opacity:0.6;">
		<g>
			<g>
				<path style="fill:#976D43;" d="M1216.574,824.801c0.553-10.386,17.486-14.201,24.343-19.486c1.804-1.39,0.616-3.924-1.595-3.539
					c-6.665,1.159-12.708,5.551-17.847,9.784c-4.203,3.462-7.677,7.595-7.427,13.303
					C1214.12,826.506,1216.489,826.41,1216.574,824.801L1216.574,824.801z"/>
			</g>
		</g>
	</g>
	<g style="opacity:0.6;">
		<g>
			<g>
				<path style="fill:#976D43;" d="M1346.049,735.32c8.302-11.177,17.332-22.542,20.874-36.25c0.291-1.127-1.24-1.641-1.83-0.719
					c-7.454,11.665-12.077,24.909-19.48,36.649C1345.45,735.258,1345.863,735.57,1346.049,735.32L1346.049,735.32z"/>
			</g>
		</g>
	</g>
	<g style="opacity:0.6;">
		<g>
			<g>
				<path style="fill:#976D43;" d="M1364.324,721.454c4.002-7.308,8.01-15.606,9.123-23.948c0.17-1.269-1.479-1.683-1.924-0.48
					c-2.932,7.939-5.142,15.82-9.109,23.374C1361.762,721.644,1363.649,722.687,1364.324,721.454L1364.324,721.454z"/>
			</g>
		</g>
	</g>
	<g style="opacity:0.6;">
		<g>
			<g>
				<path style="fill:#976D43;" d="M1421.398,535.093c7.619-2.174,21.056,6.177,20.954,14.539c-0.011,0.94,1.396,1.307,1.812,0.443
					c2.405-4.997-1.919-9.423-5.759-12.175c-5.079-3.642-11.416-7.159-17.432-3.748
					C1420.454,534.447,1420.839,535.253,1421.398,535.093L1421.398,535.093z"/>
			</g>
		</g>
	</g>
	<g style="opacity:0.6;">
		<g>
			<g>
				<path style="fill:#976D43;" d="M1426.998,542.98c4.765,6.257,7.604,13.367,11.702,19.986c0.689,1.114,2.189,0.272,1.971-0.889
					c-1.457-7.767-6.906-14.67-12.146-20.336C1427.771,540.927,1426.311,542.078,1426.998,542.98L1426.998,542.98z"/>
			</g>
		</g>
	</g>
	<g style="opacity:0.6;">
		<g>
			<g>
				<path style="fill:#976D43;" d="M1411.867,795.204c7.966-5.329,14.025-12.021,18.219-20.65c0.657-1.351-1.249-2.403-2.039-1.126
					c-4.611,7.451-10.505,14.402-17.326,19.921C1409.667,794.203,1410.666,796.008,1411.867,795.204L1411.867,795.204z"/>
			</g>
		</g>
	</g>
	<g style="opacity:0.6;">
		<g>
			<g>
				<path style="fill:#976D43;" d="M1421.12,770.104c2.691-5.284,6.133-10.22,9.543-15.05c1.059-1.5-1.281-3.014-2.497-1.831
					c-4.512,4.39-7.501,9.49-9.909,15.301C1417.469,770.421,1420.144,772.02,1421.12,770.104L1421.12,770.104z"/>
			</g>
		</g>
	</g>
	<g style="opacity:0.6;">
		<g>
			<g>
				<path style="fill:#976D43;" d="M1443.988,709.908c-0.556,6.453-1.634,13.837-0.158,20.203c0.312,1.35,2.461,1.276,2.723-0.067
					c1.25-6.414-0.095-13.759-0.879-20.178C1445.541,708.782,1444.082,708.828,1443.988,709.908L1443.988,709.908z"/>
			</g>
		</g>
	</g>
	<g style="opacity:0.6;">
		<g>
			<g>
				<path style="fill:#976D43;" d="M1334.845,830.337c-10.639,13.464-23.601,25.902-33.165,40.089
					c-0.58,0.861,0.677,1.547,1.348,0.988c12.94-10.771,23.418-25.991,33.826-39.164
					C1337.954,830.859,1335.953,828.934,1334.845,830.337L1334.845,830.337z"/>
			</g>
		</g>
	</g>
	<g style="opacity:0.6;">
		<g>
			<g>
				<path style="fill:#976D43;" d="M1336.225,846.891c-3.252,2.608-6.503,5.216-9.755,7.824c-2.954,2.37-6.41,4.704-8.677,7.747
					c-1.138,1.528,0.321,3.387,2.075,2.557c3.417-1.616,6.409-4.554,9.303-6.975c3.198-2.675,6.396-5.349,9.594-8.024
					C1340.515,848.556,1338.027,845.445,1336.225,846.891L1336.225,846.891z"/>
			</g>
		</g>
	</g>
	<g style="opacity:0.6;">
		<g>
			<g>
				<path style="fill:#976D43;" d="M1261.034,918.679c-7.444,13.717-14.897,27.435-19.576,42.387
					c-0.287,0.917,1.114,1.448,1.555,0.611c7.231-13.7,12.902-28.153,19.756-42.04
					C1263.333,918.496,1261.646,917.552,1261.034,918.679L1261.034,918.679z"/>
			</g>
		</g>
	</g>
	<g style="opacity:0.6;">
		<g>
			<g>
				<path style="fill:#976D43;" d="M912.173,1658.082c1.35-7.657,2.539-15.24,4.722-22.724c2.165-7.422,5.749-14.379,7.255-21.965
					c0.245-1.23-1.4-2.402-2.31-1.27c-9.386,11.695-12.79,30.915-13.572,45.527C908.149,1659.867,911.786,1660.282,912.173,1658.082
					L912.173,1658.082z"/>
			</g>
		</g>
	</g>
	<g style="opacity:0.6;">
		<g>
			<g>
				<path style="fill:#976D43;" d="M919.555,1648.242c3.694-10.025,6.99-19.994,8.895-30.523c0.196-1.084-1.44-1.907-1.922-0.755
					c-4.164,9.973-6.863,20.181-9.234,30.714C916.957,1649.174,919.047,1649.619,919.555,1648.242L919.555,1648.242z"/>
			</g>
		</g>
	</g>
	<g style="opacity:0.6;">
		<g>
			<g>
				<path style="fill:#976D43;" d="M888.682,1533.956c-0.569,15.072,0.873,30.948,4.326,45.638c0.209,0.889,1.683,0.665,1.6-0.257
					c-1.351-15.115-3.099-30.344-4.985-45.405C889.549,1533.338,888.705,1533.342,888.682,1533.956L888.682,1533.956z"/>
			</g>
		</g>
	</g>
	<g style="opacity:0.6;">
		<g>
			<g>
				<path style="fill:#976D43;" d="M879.214,1437.317c-3.159,10.751-6.151,22.98-4.803,34.28c0.16,1.344,2.375,1.87,2.587,0.286
					c1.529-11.391,1.472-22.832,3.707-34.194C880.896,1436.718,879.493,1436.366,879.214,1437.317L879.214,1437.317z"/>
			</g>
		</g>
	</g>
	<g style="opacity:0.6;">
		<g>
			<g>
				<path style="fill:#976D43;" d="M886.398,1400.561c-1.983,8.73-4.732,17.545-4.82,26.574c-0.012,1.252,1.748,1.335,2.099,0.232
					c2.727-8.576,2.851-17.816,3.697-26.698C887.428,1400.107,886.519,1400.026,886.398,1400.561L886.398,1400.561z"/>
			</g>
		</g>
	</g>
	<g style="opacity:0.6;">
		<g>
			<g>
				<path style="fill:#976D43;" d="M1104.592,1493.157c19.24-23.779,37.767-52.732,50.832-80.388
					c0.571-1.208-1.029-2.029-1.779-0.982c-9.194,12.833-16.748,26.983-24.954,40.466c-8.198,13.469-17.076,26.747-24.257,40.788
					C1104.385,1493.137,1104.519,1493.248,1104.592,1493.157L1104.592,1493.157z"/>
			</g>
		</g>
	</g>
	<g style="opacity:0.6;">
		<g>
			<g>
				<path style="fill:#976D43;" d="M1136.703,1462.631c7.435-13.094,17.381-23.638,26.524-35.429
					c0.937-1.208-0.437-3.441-1.858-2.29c-11.663,9.443-19.958,23.403-26.792,36.545
					C1133.856,1462.845,1135.931,1463.993,1136.703,1462.631L1136.703,1462.631z"/>
			</g>
		</g>
	</g>
	<g style="opacity:0.6;">
		<g>
			<g>
				<path style="fill:#976D43;" d="M1206.85,1377.065c7.588-4.881,15.185-5.241,23.89-4.541c1.301,0.105,1.253-1.714,0.232-2.099
					c-8.448-3.186-18.223-0.309-25.268,4.784C1204.581,1376.022,1205.655,1377.834,1206.85,1377.065L1206.85,1377.065z"/>
			</g>
		</g>
	</g>
	<g style="opacity:0.6;">
		<g>
			<g>
				<path style="fill:#976D43;" d="M1232.948,1390.618c3.609,0.2,7.209,0.268,10.823,0.319c3.183,0.045,6.538,0.372,9.577-0.668
					c1.183-0.405,1.061-1.959-0.057-2.341c-3.024-1.031-6.445-0.697-9.609-0.652c-3.608,0.051-7.204,0.12-10.808,0.32
					C1230.91,1387.705,1231.022,1390.511,1232.948,1390.618L1232.948,1390.618z"/>
			</g>
		</g>
	</g>
	<g style="opacity:0.6;">
		<g>
			<g>
				<path style="fill:#976D43;" d="M1396.691,1432.101c19.158-1.419,36.63-13.827,48.865-28.136c1.153-1.349-0.49-3.755-2.075-2.557
					c-15.166,11.458-27.383,25.298-47.14,28.512C1395.101,1430.12,1395.448,1432.193,1396.691,1432.101L1396.691,1432.101z"/>
			</g>
		</g>
	</g>
	<g style="opacity:0.6;">
		<g>
			<g>
				<path style="fill:#976D43;" d="M1430.157,1397.347c11.356-5.043,24.424-12.042,32.056-22.179
					c1.129-1.499-0.343-3.637-2.137-2.633c-5.501,3.076-10.319,7.408-15.482,11.013c-5.218,3.643-10.515,7.167-15.892,10.573
					C1427.067,1395.157,1428.25,1398.194,1430.157,1397.347L1430.157,1397.347z"/>
			</g>
		</g>
	</g>
	<g style="opacity:0.6;">
		<g>
			<g>
				<path style="fill:#976D43;" d="M1487.485,1346.014c1.432-8.759,1.95-16.851,0.871-25.681c-0.216-1.771-2.85-1.784-2.824,0.069
					c0.119,8.412,0.204,16.955-0.391,25.353C1485.047,1347.083,1487.268,1347.335,1487.485,1346.014L1487.485,1346.014z"/>
			</g>
		</g>
	</g>
	<g style="opacity:0.6;">
		<g>
			<g>
				<path style="fill:#976D43;" d="M1414.114,1245.208c-4.213-13.633,7.236-21.492,14.704-30.631
					c1.12-1.371-0.378-3.473-2.013-2.481c-11.317,6.862-21.422,20.536-15.916,34.087
					C1411.688,1248.154,1414.766,1247.321,1414.114,1245.208L1414.114,1245.208z"/>
			</g>
		</g>
	</g>
	<g style="opacity:0.6;">
		<g>
			<g>
				<path style="fill:#976D43;" d="M1421.909,1249.415c-2.944-13.47,8.253-20.937,16.139-29.494
					c1.176-1.276-0.396-3.175-1.889-2.328c-11.151,6.319-21.297,19.211-16.48,32.497
					C1420.193,1251.507,1422.229,1250.877,1421.909,1249.415L1421.909,1249.415z"/>
			</g>
		</g>
	</g>
	<g style="opacity:0.6;">
		<g>
			<g>
				<path style="fill:#976D43;" d="M1494.99,1168.692c4.189-7.516,9.67-13.772,15.639-19.908c0.78-0.802-0.34-2.292-1.27-1.565
					c-6.938,5.425-12.197,12.661-16.322,20.395C1492.362,1168.882,1494.291,1169.947,1494.99,1168.692L1494.99,1168.692z"/>
			</g>
		</g>
	</g>
	<g style="opacity:0.6;">
		<g>
			<g>
				<path style="fill:#976D43;" d="M764.326,1550.609c6.449,13.529,17.454,25.527,27.968,36.012c1.165,1.162,2.824-0.638,1.743-1.83
					c-10.152-11.198-18.137-23.786-27.392-35.614C765.561,1547.792,763.566,1549.014,764.326,1550.609L764.326,1550.609z"/>
			</g>
		</g>
	</g>
	<g style="opacity:0.6;">
		<g>
			<g>
				<path style="fill:#976D43;" d="M757.783,1555.129c1.321,8.317,6.197,14.876,11.781,20.97c7.493,8.177,15.799,16.25,25.02,22.466
					c1.327,0.894,2.748-1.159,1.627-2.22c-6.593-6.242-13.623-11.968-20.036-18.419c-6.657-6.697-14.44-13.49-16.259-23.138
					C759.692,1553.593,757.59,1553.914,757.783,1555.129L757.783,1555.129z"/>
			</g>
		</g>
	</g>
	<g style="opacity:0.6;">
		<g>
			<g>
				<path style="fill:#976D43;" d="M694.823,1482.003c6.16-7.202,10.624-20.106,10.663-29.521c0.005-1.218-1.833-1.726-2.369-0.58
					c-2.065,4.409-3.339,9.179-4.879,13.79c-1.695,5.077-4.242,9.999-5.431,15.203
					C692.554,1482.002,694.023,1482.938,694.823,1482.003L694.823,1482.003z"/>
			</g>
		</g>
	</g>
	<g style="opacity:0.6;">
		<g>
			<g>
				<path style="fill:#976D43;" d="M701.861,1478.353c1.799-5.815,4.758-12.277,4.914-18.412c0.033-1.31-1.757-1.599-2.37-0.58
					c-3.16,5.253-4.117,12.338-5.718,18.2C698.128,1479.606,701.243,1480.35,701.861,1478.353L701.861,1478.353z"/>
			</g>
		</g>
	</g>
	<g style="opacity:0.6;">
		<g>
			<g>
				<path style="fill:#976D43;" d="M640.669,1507.905c4.245,13.777,10.995,26.563,22.344,35.695
					c1.576,1.268,3.473-0.745,2.153-2.261c-9.023-10.368-17.336-21.163-22.362-34.079
					C642.291,1505.941,640.24,1506.513,640.669,1507.905L640.669,1507.905z"/>
			</g>
		</g>
	</g>
	<g style="opacity:0.6;">
		<g>
			<g>
				<path style="fill:#976D43;" d="M659.243,1524.845c6.258,11.295,12.001,23.892,20.646,33.584c1.083,1.214,3.445-0.17,2.775-1.708
					c-5.197-11.923-14.213-22.412-21.862-32.84C660.111,1522.937,658.665,1523.801,659.243,1524.845L659.243,1524.845z"/>
			</g>
		</g>
	</g>
	<g style="opacity:0.6;">
		<g>
			<g>
				<path style="fill:#976D43;" d="M472.484,1267.536c-0.967,0.06-1.935,0.121-2.904,0.182c-1.324-0.045-1.628,1.555-0.923,2.392
					c9.341,11.077,16.814,22.78,24.95,34.699c0.648,0.949,2.374,0.315,1.926-0.868c-5.064-13.404-14.672-25.953-24.962-35.841
					c-0.076,0.729-0.151,1.457-0.227,2.186c0.89-0.331,1.781-0.662,2.671-0.994C474.181,1268.98,473.615,1267.339,472.484,1267.536
					L472.484,1267.536z"/>
			</g>
		</g>
	</g>
	<g style="opacity:0.6;">
		<g>
			<g>
				<path style="fill:#976D43;" d="M477.222,1264.922c8.392,13.947,14.165,29.226,22.086,43.407c0.72,1.288,2.429,0.274,2.195-0.99
					c-3.066-16.522-12.503-30.455-22.891-43.278C477.971,1263.27,476.661,1263.99,477.222,1264.922L477.222,1264.922z"/>
			</g>
		</g>
	</g>
	<g style="opacity:0.6;">
		<g>
			<g>
				<path style="fill:#976D43;" d="M501.056,1346.752c-8.768,10.687-12.316,26.18-10.043,39.663
					c0.279,1.657,2.889,1.141,2.861-0.459c-0.253-14.197,2.632-25.286,8.847-37.984
					C503.215,1346.964,501.842,1345.794,501.056,1346.752L501.056,1346.752z"/>
			</g>
		</g>
	</g>
	<g style="opacity:0.6;">
		<g>
			<g>
				<path style="fill:#976D43;" d="M503.643,1375.962c-2.812,10.833-1.126,22.022,3.863,31.917c0.846,1.679,3.484,0.407,2.957-1.333
					c-3.029-9.998-3.891-19.833-3.5-30.217C507.036,1374.394,504.111,1374.16,503.643,1375.962L503.643,1375.962z"/>
			</g>
		</g>
	</g>
</g>
</svg>
