<?xml version="1.0" encoding="utf-8"?>
<!-- Generator: Adobe Illustrator 27.5.0, SVG Export Plug-In . SVG Version: 6.00 Build 0)  -->
<svg version="1.1" id="Layer_1" xmlns="http://www.w3.org/2000/svg" xmlns:xlink="http://www.w3.org/1999/xlink" x="0px" y="0px"
	 viewBox="0 0 2000 2000" style="enable-background:new 0 0 2000 2000;" xml:space="preserve">
<g>
	<polygon style="fill:#806A50;" points="1137.343,627.409 1128.872,692.28 1111.876,722.163 1073.166,748.345 1030.061,777.869 
		1007.985,808.108 1007.985,812.5 1116.293,842.74 1296.919,907.276 1348.543,916.465 1422.198,916.465 1516.593,877.393 
		1593.659,834.266 1675.834,773.452 1792.283,726.244 1860.876,713.689 1878.539,722.163 1878.539,782.977 1822.857,907.276 
		1788.226,963.674 1792.283,1019.714 1870.041,1144.349 1899.589,1187.5 1913.17,1243.181 1908.087,1260.177 1899.589,1268.672 
		1792.283,1251.679 1693.472,1208.552 1525.066,1101.197 1305.392,1087.975 1188.945,1118.215 1176.031,1126.686 1223.577,1161.342 
		1262.287,1183.086 1262.287,1195.973 1210.687,1251.679 1155.006,1359.345 1137.343,1381.086 1120.375,1398.079 1025.621,1286.335 
		995.405,1234.71 991.014,1212.942 974.02,1212.942 931.25,1225.521 814.779,1239.124 814.779,1260.177 861.987,1316.215 
		754.681,1458.869 741.125,1449.704 720.074,1398.079 711.577,1389.584 676.945,1407.245 664.368,1407.245 650.811,1381.086 
		650.811,1239.124 457.249,1225.521 362.544,1212.942 272.231,1187.5 129.959,1118.215 91.246,1079.478 86.83,1036.683 
		95.328,1011.217 129.959,968.065 198.552,924.939 327.889,873.314 543.505,804.027 771.674,777.869 831.772,782.977 
		861.987,739.847 1055.503,549.626 1073.166,541.131 1090.159,549.626 1137.343,627.409 	"/>
	<polygon style="fill:#F9A64A;" points="1124.432,631.49 1116.293,687.531 1094.216,722.163 1034.118,756.819 991.014,804.027 
		995.405,787.058 1064.668,722.163 1098.298,700.778 1103.381,696.696 1103.381,692.28 1081.661,692.28 991.014,765.289 
		974.02,791.448 964.855,799.611 978.437,769.395 1077.247,674.62 1098.298,662.04 1107.819,653.567 1085.719,653.567 
		974.02,752.402 944.14,795.529 939.748,791.448 931.25,791.448 1030.061,683.093 1098.298,627.409 1098.298,618.938 
		1081.661,622.995 927.169,765.289 927.169,765.289 909.509,787.058 909.509,787.058 978.437,696.696 1085.719,596.837 
		1068.75,596.837 1034.118,618.938 913.59,748.345 892.537,782.977 888.124,787.058 892.537,765.289 995.405,649.153 
		1060.277,588.339 1060.277,584.282 1042.616,588.339 947.887,674.62 866.379,773.452 861.987,777.869 861.987,782.977 
		853.492,782.977 874.877,739.847 1042.616,575.784 1068.75,558.791 1077.247,558.791 1124.432,631.49 	"/>
	<polygon style="fill:#E2D996;" points="1870.041,735.409 1860.876,795.529 1817.749,890.307 1774.62,959.57 1774.62,1011.217 
		1860.876,1156.925 1891.094,1204.471 1895.507,1234.71 1895.507,1247.622 1817.749,1247.622 1706.051,1204.471 1559.722,1105.636 
		1593.659,1028.21 1593.659,946.013 1559.722,877.393 1555.64,873.314 1697.578,777.869 1796.721,739.847 1856.462,726.244 
		1860.876,726.244 1870.041,735.409 	"/>
	<polygon style="fill:#C3BE97;" points="1661.253,802.333 1673.138,856.678 1694.523,963.317 1686.025,1057.066 1660.202,1142.296 
		1642.898,1161.677 1559.722,1105.636 1593.659,1028.21 1593.659,946.013 1559.722,877.393 1555.64,873.314 	"/>
	<polygon style="fill:#D1AA67;" points="964.855,816.604 1132.929,859.733 1262.287,907.276 1309.833,924.939 1404.538,933.434 
		1516.593,894.364 1533.564,881.81 1559.722,911.357 1581.107,976.563 1568.217,1045.181 1546.451,1087.975 1318.304,1079.478 
		1266.704,1083.535 1124.432,1130.745 1098.298,1144.349 935.642,1212.942 818.861,1225.521 814.779,1221.44 806.306,1221.44 
		801.892,1208.552 754.681,1195.973 711.577,1200.055 703.081,1225.521 500.376,1221.44 341.494,1195.973 237.576,1161.342 
		125.878,1097.14 103.825,1070.98 159.839,1079.478 169.004,1092.032 181.559,1092.032 185.975,1087.975 159.839,1049.595 
		121.486,1028.21 103.825,1028.21 125.878,989.14 202.969,933.434 315.334,890.307 422.642,855.651 483.407,830.161 
		612.768,804.027 707.495,791.448 866.379,795.529 964.855,816.604 	"/>
	<path style="fill:#D1AA67;" d="M185.975,1075.396l-4.751,10.191c7.471,2.053,48.57,13.246,48.57,13.246l47.521,5.443l43.796-10.192
		l34.297-21.385l13.914-37.044l-6.442-37.352l-11.218-30.574l-11.888-13.247l-35.633-3.747l-23.079,12.244l-28.878,52.986
		l-35.658,35.99L185.975,1075.396z"/>
	<g>
		<path style="fill:#D9AB63;" d="M206.691,1071.984c-1.359,2.72-2.385,5.775-3.722,8.877c6.11,1.337,41.076,10.837,41.076,10.837
			c13.579,1.718,26.825,3.079,40.407,4.773c12.22-2.72,24.772-5.775,36.992-8.495c9.859-6.11,19.716-12.22,29.548-18.354
			c3.725-10.526,7.806-21.075,11.888-31.242c-2.053-10.861-3.725-21.385-5.778-31.936c-3.055-8.495-6.11-17.304-9.497-26.158
			c-3.39-3.722-6.804-7.112-10.191-10.837c-9.859-1.048-20.026-2.385-29.883-3.412c-6.802,3.412-13.246,7.136-20.024,10.526
			c-8.163,14.94-16.301,29.88-24.44,45.18c-10.216,10.191-20.048,20.383-30.218,30.574
			C224.354,1058.76,215.523,1065.205,206.691,1071.984z"/>
		<path style="fill:#E0AA5D;" d="M227.743,1068.619c-1.026,2.361-2.388,4.749-3.39,7.136c5.44,1.359,33.94,9.165,33.94,9.165
			c11.215,1.002,22.077,2.361,33.27,3.722c10.216-2.363,20.383-4.749,30.574-7.112c8.138-5.108,16.301-9.857,24.105-14.94
			c3.39-8.855,6.777-17.328,9.857-25.826c-1.383-8.83-3.079-17.328-4.438-26.158c-2.723-7.161-5.418-14.273-7.782-21.409
			c-3.079-3.031-5.775-6.086-8.495-9.141c-8.498-1.051-16.661-1.718-24.775-2.72c-5.443,3.055-10.883,5.775-16.326,8.473
			c-6.777,12.577-13.579,24.797-20.383,37.352c-8.114,8.495-16.612,16.993-24.772,25.156
			C242.014,1057.736,234.88,1063.201,227.743,1068.619z"/>
		<path style="fill:#E8A957;" d="M248.459,1064.87c-0.667,2.053-1.694,3.749-2.385,5.778c4.081,1.026,26.49,7.112,26.49,7.112
			c8.833,1.051,17.328,2.053,26.161,3.101c8.114-1.718,15.942-3.747,24.105-5.465c6.445-4.057,12.555-8.139,18.997-11.885
			c2.388-6.802,5.108-13.581,7.806-20.026c-1.361-7.134-2.698-13.938-3.749-20.74c-2.004-5.418-4.057-11.193-6.11-16.969
			c-2.361-2.388-4.389-4.751-6.777-7.112c-6.445-0.716-12.887-1.361-19.356-2.053c-4.416,2.385-8.473,4.414-12.912,6.777
			c-5.084,9.524-10.502,19.356-15.945,29.213c-6.442,6.445-12.887,13.246-19.354,19.716
			C259.652,1056.375,254.234,1060.813,248.459,1064.87z"/>
		<path style="fill:#EFA651;" d="M269.509,1061.482c-0.667,1.359-1.359,2.72-2.051,4.081c3.055,0.692,19.378,5.416,19.378,5.416
			c6.445,0.694,12.89,1.361,19,2.053c5.775-1.359,11.885-2.72,17.66-4.057c4.392-2.72,9.165-5.775,13.581-8.52
			c2.029-5.083,3.722-9.857,5.751-14.608c-1.002-5.083-1.669-9.832-2.696-14.965c-1.361-4.057-3.055-8.138-4.416-12.195
			c-1.718-1.694-3.055-3.414-4.773-5.443c-4.724-0.332-9.5-0.667-14.249-1.359c-3.055,1.718-6.086,3.387-9.165,4.749
			c-4.081,7.136-7.804,14.248-11.528,21.409c-4.773,4.773-9.522,9.5-14.273,14.273
			C277.672,1055.372,273.568,1058.427,269.509,1061.482z"/>
	</g>
	<path style="fill:#F9A64A;" d="M290.227,1058.093l-1.026,2.72c1.694,0.335,11.885,3.055,11.885,3.055l11.888,1.337l11.194-2.363
		l8.495-5.416l3.39-9.189l-1.694-9.189l-2.723-7.804l-3.055-3.033l-8.83-1.048l-5.751,3.079l-7.161,13.244l-8.83,8.833
		L290.227,1058.093z"/>
	<path style="fill:#D1AA67;" d="M131.653,989.14l178.957-29.905l186.379-29.883l178.932-22.411l253.636,7.471l208.121,22.436
		l156.521,37.327h74.703l126.641-7.447l76.399-17.66l-12.22-37.711l-26.158-29.548l-16.971,12.555l-112.055,39.07l-94.705-8.495
		l-47.546-17.663l-129.358-47.543l-168.074-43.129l0,0l-98.476-21.075l-158.884-4.081l-94.727,12.579l-129.361,26.134
		l-60.765,25.491l-107.309,34.656l-112.365,43.127l-74.371,53.677C129.959,988.114,130.985,988.783,131.653,989.14z"/>
	<g>
		<polygon style="fill:#BEA067;" points="963.496,823.383 865.377,802.333 707.854,798.252 613.77,810.828 485.46,836.63 
			425.028,862.096 317.387,896.75 206.024,939.544 151.701,978.949 309.559,952.456 495.962,922.575 675.586,900.139 
			929.891,907.635 1139.039,930.044 1295.225,967.398 1368.545,967.398 1494.516,959.927 1563.444,943.96 1553.944,914.747 
			1532.894,890.974 1520.007,900.474 1405.229,940.236 1308.112,931.406 1259.902,913.745 1131.233,866.178 		"/>
		<polygon style="fill:#AD9568;" points="864.71,809.11 708.189,805.053 614.821,817.273 487.489,843.097 427.391,868.206 
			319.75,903.195 209.413,945.319 179.196,967.398 308.557,946.013 494.96,916.106 675.251,893.362 930.224,900.809 
			1140.041,923.577 1295.892,960.619 1368.545,960.619 1493.849,953.125 1554.614,939.209 1547.834,918.469 1531.868,900.139 
			1523.037,906.609 1406.256,947.015 1306.778,938.185 1257.539,919.855 1129.204,872.979 961.8,829.828 		"/>
		<path style="fill:#9B8A66;" d="M1415.753,951.097l77.069-4.751l52.983-12.22l-4.081-12.242l-10.883-12.579l-4.392,3.414
			L1415.753,951.097L1415.753,951.097z M1389.93,952.456l-84.873-7.469l-49.882-18.689l-128.024-46.873L960.107,836.63
			l-96.091-20.718l-155.494-4.081l-92.366,12.244l-126.638,25.801l-59.763,24.797l-107.617,34.631l-109.337,42.149l-6.442,4.392
			l101.172-16.636l186.76-29.905l180.626-22.746l255.999,7.471l210.508,22.771l155.495,36.992h71.291L1389.93,952.456z"/>
		<path style="fill:#8A7D61;" d="M1491.796,939.879l45.155-10.526l-1.337-4.081l-5.775-6.802l-65.538,22.771L1491.796,939.879
			L1491.796,939.879z M324.166,915.774l-62.486,24.105l44.488-7.471l187.095-29.88l181.32-22.771l256.666,7.496l211.176,22.744
			l137.859,32.962l-27.163-10.216l-127.999-46.876l-166.378-42.77l-95.753-20.383l-154.136-4.079l-91.674,12.242L491.57,856.319
			l-59.431,24.824L324.166,915.774z"/>
		<polygon style="fill:#7B725D;" points="957.052,849.876 862.322,829.493 709.191,825.436 618.209,837.656 493.264,862.788 
			434.527,887.585 326.219,922.241 492.238,895.748 674.225,872.979 931.585,880.448 1143.453,903.195 1170.615,909.639 
			1123.094,892.336 		"/>
		<polygon style="fill:#696355;" points="495.293,869.233 436.891,894.029 412.786,901.501 491.236,888.946 673.868,866.178 
			932.252,873.647 1089.133,890.64 955.69,856.319 861.655,836.295 709.526,832.214 619.545,844.099 		"/>
		<polygon style="fill:#58554D;" points="490.185,882.479 673.533,859.374 932.587,866.869 996.432,873.981 953.997,863.145 
			860.629,843.097 709.883,838.993 620.596,850.903 497.346,875.7 476.63,884.53 		"/>
		<polygon style="fill:#43423D;" points="905.092,859.374 859.937,849.876 710.218,845.819 621.598,857.704 602.934,861.427 
			673.198,852.596 		"/>
	</g>
	<polygon style="fill:#D1AA67;" points="1145.149,1026.492 1264.675,974.175 996.097,906.941 758.096,892.001 579.163,914.412 
		489.517,966.729 526.869,1033.987 675.921,1055.705 892.205,1048.546 	"/>
	<g>
		<path style="fill:#D5AD67;" d="M1105.099,1018.688c33.605-14.965,67.544-29.905,101.149-44.513
			c-76.042-18.997-152.082-38.043-227.812-57.043c-67.569-4.081-135.111-8.495-202.705-12.552
			c-50.574,6.11-101.147,12.552-152.105,18.997c-25.132,14.608-50.574,29.548-76.065,44.153
			c10.883,19.046,21.409,38.046,31.933,57.067c42.103,6.445,84.538,12.912,126.641,19.022c61.124-2.053,122.581-4.057,183.681-6.11
			C961.466,1031.243,1033.116,1024.798,1105.099,1018.688z"/>
		<path style="fill:#DBB166;" d="M1064.668,1010.86c27.854-12.196,55.706-24.44,83.536-36.684
			c-62.485-15.61-125.279-31.217-187.74-46.876c-55.371-3.722-111.029-7.112-166.735-10.499
			c-41.768,5.083-83.511,10.499-125.279,15.607c-20.718,12.22-41.768,24.464-62.461,36.709
			c8.473,15.607,17.304,31.217,26.136,46.851c34.631,5.084,69.26,10.524,104.227,15.632c50.266-1.718,100.864-3.39,151.437-5.108
			C946.525,1021.051,1005.621,1015.968,1064.668,1010.86z"/>
		<path style="fill:#DFB264;" d="M1024.619,1002.721c21.719-9.524,43.464-19.022,65.54-28.546
			c-49.239-12.22-98.476-24.775-147.356-36.995c-43.821-2.72-87.593-5.44-131.079-8.161c-32.938,4.057-65.873,8.161-98.452,12.22
			c-16.301,9.497-32.938,19.378-49.239,28.878c6.78,12.22,13.581,24.44,20.383,37.017c27.495,4.081,54.655,8.138,82.15,12.244
			c39.739-1.383,79.12-2.745,118.859-4.106C931.92,1011.217,978.102,1007.135,1024.619,1002.721z"/>
		<path style="fill:#E3B562;" d="M984.212,994.915c15.967-6.802,31.911-13.914,47.878-20.74
			c-35.992-8.83-71.626-17.995-107.284-26.825c-31.599-2.031-63.486-4.06-95.419-6.11c-23.773,3.055-47.546,6.11-71.291,9.165
			c-12.244,6.802-24.108,13.938-35.993,20.715c5.084,8.83,9.857,18.02,14.918,26.828c20.048,3.077,39.737,6.132,59.763,9.187
			c28.878-1.026,57.71-2.051,86.256-3.055C916.977,1001.025,950.607,997.948,984.212,994.915z"/>
	</g>
	<polygon style="fill:#EAB961;" points="944.14,987.112 973.686,974.175 907.145,957.539 847.382,953.793 802.559,959.235 
		780.172,972.147 789.672,989.14 826.999,994.558 880.987,992.887 	"/>
	<polygon style="fill:#806A50;" points="379.513,1032.269 371.04,1066.59 379.513,1075.061 375.432,1114.133 366.936,1122.272 
		371.04,1126.686 414.145,1105.636 448.776,1062.484 448.776,1015.274 426.699,968.065 405.649,946.013 405.649,941.907 
		414.145,941.907 448.776,989.14 461.355,1040.765 457.249,1045.181 469.826,1054.011 547.562,1028.21 586.632,1011.217 
		655.895,1002.052 685.418,1006.803 693.916,1015.274 689.859,1049.595 650.811,1109.717 607.685,1140.292 565.225,1140.292 
		491.905,1126.686 483.407,1079.478 457.249,1062.484 435.864,1097.14 371.04,1140.292 358.463,1144.349 349.99,1144.349 
		345.551,1130.745 366.936,1105.636 371.04,1083.535 366.936,1079.478 315.334,1114.133 280.705,1109.717 276.288,1105.636 
		315.334,1101.197 349.99,1079.478 366.936,1054.011 366.936,997.613 336.386,933.434 341.494,929.02 371.04,980.645 
		379.513,1032.269 	"/>
	<polygon style="fill:#806A50;" points="298.365,993.556 293.282,1032.269 255.238,1062.484 233.184,1062.484 202.969,1040.765 
		194.471,1006.803 202.969,980.645 246.073,954.484 276.288,963.674 298.365,993.556 	"/>
	<polygon style="fill:#FFCA05;" points="280.705,989.14 280.705,1023.772 259.32,1045.181 229.102,1045.181 212.134,1028.21 
		212.134,993.556 233.184,972.147 263.734,972.147 280.705,989.14 	"/>
	<polygon style="fill:#231F20;" points="259.32,989.14 267.815,997.613 263.734,1019.714 255.238,1028.21 233.184,1028.21 
		224.688,1019.714 220.629,1011.217 229.102,985.059 237.576,980.645 250.846,985.059 259.32,989.14 	"/>
	<polygon style="fill:#F9A64A;" points="676.945,1040.765 642.316,1097.14 612.768,1122.272 556.06,1122.272 500.376,1114.133 
		487.489,1066.59 586.632,1023.772 633.818,1015.274 676.945,1019.714 676.945,1040.765 	"/>
	<polygon style="fill:#E2D996;" points="146.928,1058.093 151.368,1062.484 99.744,1045.181 134.375,1049.595 146.928,1058.093 	"/>
	<polygon style="fill:#F9A64A;" points="1245.319,1191.557 1236.129,1200.055 1171.974,1161.342 1159.063,1148.406 
		1145.817,1148.406 1141.424,1152.846 1202.192,1204.471 1206.606,1204.471 1219.185,1217.048 1210.687,1230.629 1116.293,1161.342 
		1111.876,1161.342 1107.819,1165.423 1188.945,1239.124 1193.694,1239.124 1202.192,1247.622 1202.192,1251.679 1193.694,1260.177 
		1090.159,1169.815 1081.661,1178.31 1180.472,1273.756 1180.472,1277.837 1184.529,1282.254 1167.56,1277.837 1073.166,1191.557 
		1073.166,1212.942 1171.974,1303.304 1171.974,1311.802 1167.56,1316.215 1132.929,1294.806 1047.03,1191.557 1047.03,1217.048 
		1128.872,1311.802 1141.424,1320.966 1155.006,1333.854 1155.006,1342.373 1145.817,1350.871 1085.719,1299.247 1025.621,1204.471 
		1017.15,1204.471 1017.15,1221.44 1081.661,1320.966 1132.929,1364.093 1124.432,1377.005 1038.557,1286.335 1013.068,1243.181 
		1003.903,1221.44 1003.903,1204.471 1155.006,1135.184 1193.694,1152.846 1245.319,1191.557 	"/>
	<polygon style="fill:#F9A64A;" points="784.229,1217.048 831.772,1303.304 844.994,1316.215 831.772,1337.96 801.892,1277.837 
		801.892,1268.672 793.394,1260.177 789.337,1260.177 789.337,1290.749 818.861,1354.928 818.861,1359.345 810.387,1368.534 
		784.229,1316.215 775.732,1243.181 775.732,1234.71 767.261,1225.521 763.179,1225.521 767.261,1303.304 793.394,1381.086 
		797.811,1385.503 784.229,1398.079 763.179,1333.854 754.681,1243.181 750.624,1239.124 746.208,1239.124 737.021,1264.566 
		754.681,1372.591 771.674,1407.245 775.732,1411.661 771.674,1415.718 754.681,1389.584 737.021,1329.462 737.021,1230.629 
		732.962,1225.521 720.074,1239.124 724.466,1354.928 746.208,1415.718 759.122,1428.63 759.122,1432.711 728.548,1393.998 
		703.081,1290.749 720.074,1221.44 732.962,1212.942 780.172,1217.048 784.229,1217.048 	"/>
	<polygon style="fill:#F9A64A;" points="689.859,1320.966 707.495,1368.534 681.361,1389.584 676.945,1389.584 672.866,1393.998 
		659.976,1337.96 668.45,1247.622 689.859,1247.622 689.859,1320.966 	"/>
	<path style="fill:#FFCA05;" d="M332.997,1167.786l104.251,7.469l156.856-33.627l104.227-33.605l223.755-22.436l230.532-22.387
		l178.932-14.654l126.973-7.112l104.921,12.577l-16.993,33.964l-228.147-8.498l-51.6,4.057l-142.272,47.211l-26.134,13.603
		l-162.655,68.593l-116.781,12.579l-4.081-4.082h-8.473l-4.414-12.887l-47.211-12.579l-43.105,4.081l-8.495,25.467l-202.705-4.082
		l-158.882-25.466l-54.323-17.995C313.305,1170.172,332.997,1165.423,332.997,1167.786z"/>
	<g>
		<path style="fill:#FFCE2A;" d="M321.444,1175.59c2.723-0.667,5.108-1.002,7.831-1.694l3.055,0.692l105.588,7.471l157.88-33.989
			l103.894-33.27l223.064-22.387l230.557-22.436l178.908-14.94l125.971-6.802l95.086,11.55l-10.883,21.075l-224.422-8.161
			l-52.629,4.057l-143.274,47.878l-26.49,13.603l-161.607,67.926l-112.39,12.22l-4.081-3.722h-6.442l-3.725-11.553l-51.959-13.938
			l-48.902,4.773l-8.141,24.775l-197.26-4.057l-158.241-25.491l-32.6-10.861C313.999,1177.308,317.722,1176.617,321.444,1175.59z"/>
		<polygon style="fill:#FFD346;" points="342.496,1182.059 438.25,1188.861 597.493,1154.897 701.053,1121.58 923.422,1099.191 
			1153.979,1076.757 1332.552,1061.815 1457.856,1054.681 1542.729,1065.205 1538.337,1074.035 1317.972,1065.564 
			1263.984,1070.313 1119.348,1118.215 1092.88,1132.129 932.252,1199.72 823.944,1211.273 820.222,1207.858 816.141,1207.858 
			812.751,1197.334 755.708,1182.059 701.385,1187.5 693.247,1211.94 501.403,1207.858 344.549,1182.727 		"/>
		<path style="fill:#FFD75F;" d="M1217.799,1078.476l-101.147,33.605l-26.852,13.938l-159.217,66.9l-104.251,11.553l-3.055-3.414
			h-2.388l-3.055-9.141l-61.435-16.661l-60.098,6.11l-7.828,23.438l-186.401-3.747l-50.576-8.139l147.691-31.576l103.225-33.295
			l221.37-22.077l230.865-22.436L1217.799,1078.476L1217.799,1078.476z M1429.359,1063.201l28.497-1.718l30.907,3.722
			L1429.359,1063.201z"/>
		<polygon style="fill:#FFDC74;" points="1113.907,1105.97 1087.104,1119.574 928.865,1186.473 829.052,1197.334 825.997,1194.279 
			825.997,1194.279 823.277,1186.141 757.069,1168.478 691.528,1174.923 683.725,1198.026 502.764,1194.279 488.515,1191.916 
			600.881,1167.786 703.748,1134.849 924.473,1112.748 1162.142,1089.669 		"/>
		<polygon style="fill:#FFE287;" points="602.577,1174.588 705.134,1141.628 925.14,1119.574 1106.771,1101.913 1084.049,1113.442 
			926.836,1179.672 831.772,1190.198 828.383,1180.698 757.401,1161.677 686.445,1168.478 678.976,1191.224 538.397,1188.169 		"/>
		<polygon style="fill:#FFE899;" points="1069.442,1112.437 925.14,1172.87 836.521,1182.727 833.801,1174.923 758.096,1154.54 
			681.361,1162.344 673.868,1184.42 596.824,1182.727 604.605,1181.033 706.803,1148.071 925.81,1126.353 		"/>
		<path style="fill:#FFECAC;" d="M672.866,1166.09l-3.725,11.218l-29.213-0.692L672.866,1166.09L672.866,1166.09z M764.181,1149.122
			l162.32-15.991l99.119-9.832l-102.198,43.151l-82.485,8.806l-2.053-5.775L764.181,1149.122z"/>
		<polygon style="fill:#FFF2BF;" points="927.169,1139.932 981.516,1134.516 921.751,1159.648 845.686,1168.121 844.327,1163.705 
			801.892,1152.177 		"/>
		<polygon style="fill:#FFFBD4;" points="938.03,1145.71 920.032,1153.179 850.437,1160.674 849.768,1158.287 839.219,1155.567 		
			"/>
	</g>
	<path style="fill:#FFCA05;" d="M485.795,918.135c63.15-18.997,124.944-32.6,190.126-42.77
		c76.732,1.005,148.023,4.392,223.753,16.279v1.024c-9.857,1.696-19.689,4.081-29.88,4.751c-11.193,0.357-22.746-1.672-33.964-1.337
		c-85.205,4.057-170.435,3.055-254.972,16.277C548.613,914.747,518.039,921.19,485.795,918.135z"/>
	<path style="fill:#FFFBD4;" d="M235.904,1007.829c4.727,0,8.833,3.722,8.833,8.138c0,4.749-4.106,8.495-8.833,8.495
		c-5.106,0-8.83-3.747-8.83-8.495C227.074,1011.552,230.798,1007.829,235.904,1007.829z"/>
	<polygon style="fill:#D1AA67;" points="370.348,966.729 367.628,951.789 406.676,950.738 426.365,975.226 445.721,1006.803 
		448.776,1045.848 444.027,1073.702 413.143,1095.779 393.762,1114.466 375.099,1110.719 379.872,1077.449 380.54,1024.463 	"/>
	<g>
		<path style="fill:#D9AB63;" d="M376.101,976.563c-1.002-4.06-1.672-8.498-2.363-12.555c10.859-0.335,22.077-0.692,33.27-0.692
			c5.418,6.802,10.861,13.579,16.636,20.383c5.44,9.187,10.883,18.02,16.658,27.16c0.67,10.883,1.337,22.077,2.363,33.294
			c-1.361,7.471-2.72,15.275-4.081,23.103c-8.83,6.445-17.328,12.887-26.158,19.022c-5.418,5.418-11.169,10.861-16.612,15.967
			c-5.108-1.048-10.524-2.051-15.942-3.055c1.337-9.522,2.696-19.046,4.057-28.543c0.335-15.275,0.667-29.883,0.667-44.823
			C381.876,1009.499,378.821,992.887,376.101,976.563z"/>
		<path style="fill:#E0AA5D;" d="M381.542,986.42c-0.332-3.414-1.002-6.802-1.669-10.191c9.165-0.335,18.306-0.67,27.136-0.67
			c4.751,5.443,9.189,11.218,13.916,16.996c4.438,7.444,9.165,14.581,13.603,22.052c0.667,9.165,1.337,18.33,2.029,27.519
			c-1.026,6.42-2.363,12.555-3.412,19.022c-7.114,5.443-14.249,10.526-21.385,15.61c-4.751,4.414-9.165,8.83-13.581,13.246
			c-4.416-1.002-8.808-1.696-13.246-2.723c1.026-7.804,2.053-15.607,3.39-23.413c0-12.242,0.357-24.462,0.716-36.706
			C386.65,1013.604,384.264,999.999,381.542,986.42z"/>
		<path style="fill:#E8A957;" d="M387.319,996.611c-0.335-2.723-1.004-5.443-1.361-8.163c7.136-0.335,14.248-0.335,21.409-0.67
			c3.722,4.392,7.112,8.833,10.859,13.246c3.39,5.778,7.136,11.553,10.526,17.663c0.667,7.136,1.002,14.248,1.694,21.385
			c-1.026,5.108-1.694,9.857-2.72,14.965c-5.443,4.057-11.193,8.163-16.636,12.22c-3.722,3.722-7.469,7.112-10.883,10.502
			c-3.39-0.645-6.777-1.337-10.167-2.004c0.667-6.134,1.694-12.555,2.385-18.689c0.335-9.165,0.335-19.022,0.67-28.856
			C391.041,1017.662,389.37,1007.135,387.319,996.611z"/>
		<path style="fill:#EFA651;" d="M393.094,1006.444c-0.335-2.004-0.67-4.057-1.002-6.11c5.059,0,10.167,0,15.607-0.335
			c2.363,3.39,5.086,6.445,7.806,9.859c2.363,4.081,5.084,8.471,7.804,12.552c0.335,5.108,0.67,10.526,1.002,15.634
			c-0.667,3.722-1.337,7.493-1.669,10.883c-4.416,3.031-8.498,6.11-12.579,8.808c-2.363,2.72-5.084,5.106-7.804,7.469
			c-2.388-0.335-4.749-0.667-7.471-1.337c0.692-4.438,1.361-8.83,2.029-13.269c0-6.78,0.335-13.916,0.335-21.052
			C395.815,1021.743,394.456,1014.272,393.094,1006.444z"/>
	</g>
	<polygon style="fill:#F9A64A;" points="398.535,1016.325 397.843,1012.578 407.7,1012.219 412.786,1018.329 417.534,1026.492 
		418.226,1036.016 417.2,1043.152 409.396,1048.546 404.645,1052.985 399.872,1051.958 400.923,1044.154 401.257,1030.884 	"/>
	<path style="fill:#58574B;" d="M581.883,952.791l8.473-8.495v2.051v2.029c6.467,0,27.852,4.416,31.909,4.416v2.053v2.029
		c-8.495,2.363-29.88,12.887-29.88-8.498c-2.029,0-8.498,2.363-8.498,4.416C579.83,952.791,577.445,946.346,581.883,952.791z"/>
	<path style="fill:#58574B;" d="M663.031,967.731c6.11,0,14.94,2.029,19,2.029v6.469c-2.031,2.053-4.059,4.416-4.059,6.445h-10.883
		c-2.029-2.029-4.057-6.445-6.442-6.445v-4.416h-2.053v-4.081H663.031z"/>
	<path style="fill:#58574B;" d="M713.605,1004.44c6.469,0,14.943,2.004,19.356,2.004v6.469c-2.385,2.029-4.414,4.081-4.414,6.467
		h-10.526c-2.385-2.385-4.416-6.467-6.445-6.467v-4.416h-2.05v-4.057H713.605z"/>
	<path style="fill:#58574B;" d="M706.803,934.461c6.469,0,14.943,2.029,19.381,2.029v6.469c-2.388,2.029-4.438,4.057-4.438,6.442
		h-10.502c-2.388-2.385-4.441-6.442-6.469-6.442v-4.441h-2.029v-4.057H706.803z"/>
	<path style="fill:#58574B;" d="M729.907,1058.093c6.445,0,14.943,2.004,19.356,2.004v6.494c-2.385,2.385-4.414,4.389-4.414,6.442
		h-10.526c-2.363-2.053-4.416-6.442-6.467-6.442v-4.106h-2.363v-4.392H729.907z"/>
	<path style="fill:#58574B;" d="M765.899,975.559c6.11,0,14.94,2.363,18.997,2.363v6.469c-2.029,2.029-4.057,4.057-4.057,6.11
		h-10.883c-2.004-2.053-4.057-6.11-6.445-6.11v-4.441h-2.029v-4.392H765.899z"/>
	<path style="fill:#58574B;" d="M791.031,1031.6c6.445,0,14.918,2.029,19.022,2.029v6.445c-2.051,2.053-4.103,4.416-4.103,6.467
		h-10.861c-2.029-2.051-4.057-6.467-6.442-6.467v-4.416h-2.029v-4.057H791.031z"/>
	<path style="fill:#58574B;" d="M984.212,803.668c6.469,0,14.94,2.053,19.356,2.053v6.445c-2.388,2.388-4.416,4.438-4.416,6.469
		h-10.524c-2.388-2.031-4.416-6.469-6.445-6.469v-4.057h-2.388v-4.441H984.212z"/>
	<path style="fill:#58574B;" d="M762.509,1004.774c6.445,0,14.943,2.029,19,2.029v6.442c-2.029,2.029-4.057,4.081-4.057,6.469
		h-10.886c-2.029-2.388-4.057-6.469-6.442-6.469v-4.414h-2.029v-4.057H762.509z"/>
	<path style="fill:#58574B;" d="M789.672,936.848c6.442,0,14.94,2.004,19.332,2.004v6.467c-2.363,2.031-4.392,4.416-4.392,6.469
		h-10.551c-2.361-2.053-4.389-6.469-6.442-6.469v-4.414h-2.029v-4.057H789.672z"/>
	<path style="fill:#58574B;" d="M823.277,988.448c6.442,0,14.94,2.053,19.354,2.053v6.442c-2.029,2.053-4.414,4.081-4.414,6.445
		h-10.526c-2.029-2.363-4.414-6.445-6.467-6.445v-4.389h-2.029v-4.106H823.277z"/>
	<path style="fill:#58574B;" d="M844.327,1063.201c6.445,0,14.94,2.004,19.356,2.004v6.469c-2.363,2.029-4.416,4.082-4.416,6.442
		h-10.526c-2.361-2.361-4.414-6.442-6.467-6.442v-4.416h-2.029v-4.057H844.327z"/>
	<path style="fill:#58574B;" d="M867.43,1025.49c6.445,0,14.94,2.029,19.332,2.029v6.469c-2.363,2.029-4.392,4.392-4.392,6.442
		h-10.548c-2.363-2.051-4.392-6.442-6.445-6.442v-4.441h-2.385v-4.057H867.43z"/>
	<path style="fill:#58574B;" d="M873.54,964.008c6.11,0,14.94,2.029,18.997,2.029v6.467c-2.05,2.007-4.057,4.392-4.057,6.445
		h-10.883c-2.029-2.053-4.057-6.445-6.445-6.445v-4.438h-2.051v-4.057H873.54z"/>
	<path style="fill:#58574B;" d="M907.145,1060.097c6.445,0,14.94,2.053,18.997,2.053v6.469c-2.029,2.029-4.057,4.081-4.057,6.442
		h-10.548c-2.363-2.361-4.392-6.442-6.445-6.442v-4.416h-2.363v-4.106H907.145z"/>
	<path style="fill:#58574B;" d="M902.372,1013.939c6.467,0,14.94,2.029,19.379,2.029v6.442c-2.386,2.053-4.439,4.081-4.439,6.469
		H906.81c-2.385-2.388-4.438-6.469-6.467-6.469v-4.414h-2.029v-4.057H902.372z"/>
	<path style="fill:#58574B;" d="M969.963,1058.76c6.445,0,14.94,2.053,18.997,2.053v6.445c-2.029,2.029-4.057,4.082-4.057,6.445
		h-10.549c-2.363-2.363-4.392-6.445-6.445-6.445v-4.416h-2.385v-4.082H969.963z"/>
	<path style="fill:#58574B;" d="M958.745,969.759c6.445,0,14.94,2.053,19.357,2.053v6.469c-2.029,2.363-4.416,4.392-4.416,6.442
		h-10.524c-2.029-2.051-4.416-6.442-6.469-6.442v-4.106h-2.004v-4.416H958.745z"/>
	<path style="fill:#58574B;" d="M1026.672,1050.932c6.445,0,14.918,2.053,19.332,2.053v6.445c-2.386,2.053-4.414,4.438-4.414,6.467
		h-10.526c-2.388-2.028-4.392-6.467-6.445-6.467v-4.057h-2.053v-4.441H1026.672z"/>
	<path style="fill:#58574B;" d="M953.662,1030.241c6.445,0,14.918,2.361,19.356,2.361v6.445c-2.053,2.053-4.438,4.106-4.438,6.134
		h-10.502c-2.053-2.028-4.416-6.134-6.445-6.134v-4.392h-2.053v-4.414H953.662z"/>
	<path style="fill:#58574B;" d="M1147.534,1045.848c6.445,0,14.943,2.053,19,2.053v6.11c-2.028,2.029-4.057,4.082-4.057,6.445
		h-10.886c-2.028-2.363-4.057-6.445-6.442-6.445v-4.416h-2.029v-3.747H1147.534z"/>
	<path style="fill:#58574B;" d="M1064.001,1007.829c6.11,0,14.94,2.029,18.997,2.029v6.467c-2.029,2.004-4.057,4.057-4.057,6.42
		h-10.859c-2.031-2.363-4.081-6.42-6.469-6.42v-4.438h-2.004v-4.057H1064.001z"/>
	<path style="fill:#58574B;" d="M1022.925,952.791c6.445,0,14.916,2.053,19.356,2.053v6.445c-2.387,2.029-4.44,4.057-4.44,6.442
		h-10.5c-2.388-2.385-4.416-6.442-6.445-6.442v-4.416h-2.053v-4.081H1022.925z"/>
	<path style="fill:#58574B;" d="M1201.522,1036.351c6.445,0,14.94,2.028,19.332,2.028v6.442c-2.029,2.053-4.392,3.725-4.392,6.11
		h-10.548c-2.029-2.385-4.392-6.11-6.445-6.11v-4.392h-2.053v-4.079H1201.522z"/>
	<path style="fill:#58574B;" d="M894.59,923.577c6.445,0,14.918,2.053,19.332,2.053v6.445c-2.385,2.051-4.414,4.414-4.414,6.442
		h-10.526c-2.363-2.029-4.392-6.442-6.445-6.442v-4.059h-2.385v-4.438H894.59z"/>
	<path style="fill:#58574B;" d="M1271.12,1032.602c6.442,0,14.94,2.388,19.356,2.388v6.445c-2.029,2.051-4.417,4.103-4.417,6.11
		h-10.548c-2.007-2.007-4.392-6.11-6.445-6.11v-4.416h-2.029v-4.416H1271.12z"/>
	<path style="fill:#58574B;" d="M1076.913,930.714c6.445,0,14.916,2.363,19.022,2.363v6.132c-2.053,2.363-4.106,4.416-4.106,6.469
		h-10.859c-2.028-2.053-4.057-6.469-6.445-6.469v-4.079h-2.028v-4.416H1076.913z"/>
	<path style="fill:#58574B;" d="M1157.369,965.345c6.442,0,14.94,2.053,19.356,2.053v6.467c-2.363,2.029-4.416,4.416-4.416,6.42
		h-10.527c-2.361-2.004-4.414-6.42-6.442-6.42v-4.416h-2.029v-4.103H1157.369z"/>
	<path style="fill:#58574B;" d="M1105.766,985.059c6.445,0,14.943,2.053,19.356,2.053v6.445c-2.385,2.029-4.414,4.057-4.414,6.442
		h-10.526c-2.028-2.385-4.417-6.442-6.467-6.442v-4.416h-2.029v-4.081H1105.766z"/>
	<path style="fill:#58574B;" d="M1226.964,991.838c6.47,0,14.943,2.051,19.381,2.051v6.445c-2.388,2.053-4.438,4.106-4.438,6.469
		h-10.502c-2.388-2.363-4.441-6.469-6.47-6.469v-4.392h-2.363v-4.104H1226.964z"/>
	<path style="fill:#58574B;" d="M1173.311,998.664c6.469,0,14.964,2.004,19.046,2.004v6.467c-2.053,2.029-4.082,4.081-4.082,6.469
		h-10.858c-2.053-2.388-4.106-6.469-6.11-6.469v-4.414h-2.388v-4.057H1173.311z"/>
	<path style="fill:#58574B;" d="M1093.882,1054.322c6.11,0,14.94,2.053,18.999,2.053v6.467c-2.028,2.028-4.059,4.416-4.059,6.445
		h-10.858c-2.029-2.029-4.081-6.445-6.467-6.445v-4.414h-2.029v-4.106H1093.882z"/>
	<path style="fill:#58574B;" d="M995.405,1012.219c6.11,0,14.608,2.388,19.022,2.388v6.445c-2.029,2.053-4.414,4.103-4.414,6.11
		h-10.526c-2.029-2.007-4.081-6.11-6.445-6.11v-4.416h-2.029v-4.416H995.405z"/>
	<path style="fill:#58574B;" d="M1344.44,1029.882c6.466,0,14.94,2.053,19.378,2.053v6.445c-2.385,2.051-4.438,4.438-4.438,6.442
		h-10.502c-2.385-2.004-4.438-6.442-6.467-6.442v-4.392h-2.029v-4.106H1344.44z"/>
	<path style="fill:#58574B;" d="M1295.225,989.81c6.11,0,14.94,2.029,18.997,2.029v6.467c-2.029,2.029-4.057,4.081-4.057,6.469
		h-10.883c-2.029-2.388-4.057-6.469-6.445-6.469v-4.416h-2.028v-4.079H1295.225z"/>
	<path style="fill:#58574B;" d="M1414.06,1022.1c6.445,0,14.94,2.006,19.356,2.006v6.467c-2.388,2.028-4.416,4.416-4.416,6.445
		h-10.524c-2.388-2.028-4.416-6.445-6.445-6.445v-4.082h-2.388v-4.392H1414.06z"/>
	<path style="fill:#58574B;" d="M1358.378,988.448c6.11,0,14.94,2.053,18.997,2.053v6.442c-2.028,2.053-4.057,4.081-4.057,6.445
		h-10.883c-2.029-2.363-4.057-6.445-6.445-6.445v-4.389h-2.029v-4.106H1358.378z"/>
	<path style="fill:#58574B;" d="M950.607,912.025c6.445,0,14.918,2.053,19.356,2.053v6.445c-2.388,2.053-4.438,4.416-4.438,6.445
		h-10.502c-2.388-2.029-4.416-6.445-6.445-6.445v-4.416h-2.388v-4.081H950.607z"/>
	<path style="fill:#58574B;" d="M1493.849,967.731c6.442,0,14.94,2.388,19.332,2.388v6.11c-2.363,2.385-4.392,4.416-4.392,6.445
		h-10.526c-2.363-2.029-4.414-6.445-6.467-6.445v-4.081h-2.029v-4.416H1493.849z"/>
	<path style="fill:#58574B;" d="M1455.136,1002.387c6.442,0,14.94,2.053,19.022,2.053v6.42c-2.029,2.053-4.082,4.414-4.082,6.467
		h-10.859c-2.029-2.053-4.081-6.467-6.11-6.467v-4.057h-2.363v-4.416H1455.136z"/>
	<path style="fill:#58574B;" d="M497.68,1015.609c6.445,0,14.94,2.053,19.332,2.053v6.445c-2.388,2.053-4.392,4.414-4.392,6.467
		h-10.548c-2.029-2.053-4.392-6.467-6.445-6.467v-4.392h-2.029v-4.106H497.68z"/>
	<path style="fill:#58574B;" d="M497.346,949.736c6.445,0,14.918,2.388,19.332,2.388v6.442c-2.385,2.053-4.414,4.081-4.414,6.11
		h-10.526c-2.388-2.029-4.392-6.11-6.445-6.11v-4.414h-2.385v-4.416H497.346z"/>
	<path style="fill:#58574B;" d="M560.833,986.42c6.442,0,14.94,2.363,19.332,2.363v6.132c-2.363,2.388-4.392,4.416-4.392,6.445
		h-10.548c-2.031-2.029-4.392-6.445-6.445-6.445v-4.081h-2.029v-4.414H560.833z"/>
	<path style="fill:#E2D996;" d="M509.209,1071.984c19.689-11.888,41.074-24.083,63.51-27.83
		c25.442-4.392,62.461-13.271,85.875-6.445v0.67c-12.89,3.747-29.191,2.72-42.103,5.44c-15.275,3.725-26.134,7.496-42.77,9.165
		C552.001,1055.705,530.951,1066.255,509.209,1071.984z"/>
	<path style="fill:#E2D996;" d="M518.039,1080.504c40.072-10.191,89.287-23.438,130.052-8.83v0.31
		C604.27,1071.674,561.835,1079.478,518.039,1080.504z"/>
	<polygon style="fill:#E2D996;" points="509.209,1093.059 567.945,1087.975 626.682,1093.059 567.945,1098.142 	"/>
	<path style="fill:#E2D996;" d="M515.676,1105.97c34.966,3.39,69.598,4.749,104.562,8.495v0.335
		C584.247,1118.547,548.946,1124.325,515.676,1105.97z"/>
	<path style="fill:#F9A64A;" d="M1579.411,878.063c9.189-8.138,19.022-15.275,28.521-23.414c4.416-3.747,7.447-9.189,12.22-12.936
		c5.083-4.057,11.553-5.084,16.971-9.165c4.749-3.39,7.804-8.83,12.242-12.89c20.359-18.352,56.686-29.88,81.126-43.818
		c15.297-8.498,24.13-7.828,39.38-12.579c6.134-1.694,11.553-5.751,17.328-8.138c26.134-10.191,50.598-7.136,77.734-5.44v1.026
		c-25.774,1.694-51.265,0.332-75.348,11.193c-6.11,2.72-11.215,6.802-16.993,9.165c-14.605,5.105-23.414,4.438-37.687,13.268
		c-21.717,13.222-45.155,22.411-68.593,33.605c-10.837,5.778-15.945,13.938-25.11,20.383c-5.44,3.39-12.22,4.416-17.325,7.828
		c-5.083,3.725-8.498,9.165-13.246,12.555C1601.13,865.843,1589.245,871.953,1579.411,878.063z"/>
	<path style="fill:#F9A64A;" d="M1600.796,899.472c27.495-17.328,55.349-34.321,83.177-50.957
		c5.443-3.055,11.218-5.083,16.661-8.473c5.775-4.104,10.834-9.881,16.944-13.268c6.804-3.725,14.967-4.727,21.744-8.138
		c4.749-2.363,8.498-6.469,13.246-8.498c5.775-2.029,11.885-2.363,17.303-3.747c23.438-7.112,45.849-12.89,69.62-18.33v1.002
		c-21.385,9.189-45.155,16.326-67.256,24.486c-5.394,1.696-11.172,2.031-16.612,4.392c-4.416,2.053-7.804,6.469-12.22,8.833
		c-6.802,3.387-14.273,5.106-21.05,8.83c-6.11,3.39-10.885,8.83-16.995,12.577c-5.416,3.39-11.885,5.083-17.304,8.138
		C1659.532,871.618,1630.654,887.919,1600.796,899.472z M1600.796,899.472"/>
	<path style="fill:#F9A64A;" d="M1604.877,933.434c7.112-6.134,15.945-15.299,24.44-19.356c5.443-2.72,11.553-2.72,17.328-5.108
		c4.392-2.029,7.447-6.442,11.885-8.83c16.971-8.495,37.997-12.555,56.016-17.995c17.638-4.751,33.94-3.725,51.959-7.136
		c15.25-3.055,23.389-3.747,38.688-1.694v1.359c-13.914,1.696-23.77,2.363-38.021,6.469c-33.27,9.497-73.366,12.22-105.253,26.134
		c-4.773,2.029-8.498,6.469-13.271,8.163c-5.394,2.029-11.526,1.361-16.944,3.39
		C1623.207,922.241,1613.707,929.353,1604.877,933.434z"/>
	<path style="fill:#F9A64A;" d="M1617.767,950.738c38.71-5.418,75.705-8.83,114.418-12.22c13.938-2.029,29.883-7.804,43.462-5.44
		v1.048c-8.473,1.337-12.912,3.725-20.693,6.445C1710.465,955.178,1663.948,950.738,1617.767,950.738z"/>
	<path style="fill:#F9A64A;" d="M1621.87,984.724c16.277-9.165,31.887-9.857,50.552-12.912c5.775-1.026,10.883-4.081,16.993-4.749
		c18.665-2.72,52.627,1.337,69.263,8.83l-0.335,0.67c-22.077-3.055-44.823-0.335-67.234,0.332
		C1668.03,980.286,1644.927,981.336,1621.87,984.724z"/>
	<path style="fill:#F9A64A;" d="M1617.767,1014.607c27.852-2.029,62.148-8.163,89.643-4.749c6.11,0.692,11.553,3.747,17.663,4.749
		c5.418,1.002,11.193,0,16.612,0.667c4.438,1.051,8.52,4.106,13.268,5.108c7.782,1.718,18.665-2.385,16.971,7.136h-1.361
		l-0.692-4.414c-5.418,1.002-10.859,3.055-16.302,2.72c-4.392-0.335-8.114-3.079-12.555-3.414c-5.775-0.31-11.55,1.361-17.66,0.694
		c-5.418-0.694-10.837-3.39-16.277-3.725L1617.767,1014.607z"/>
	<path style="fill:#F9A64A;" d="M1617.767,1048.546c17.325,2.053,34.988,7.493,51.625,8.879c8.471,0.667,16.969-1.386,25.466-1.051
		c4.724,0.335,8.83,3.412,13.554,4.081c22.771,3.412,48.572-1.696,71.651,2.385c7.136,1.361,12.577,5.083,21.05,6.445v1.026
		c-9.832,1.361-12.555-1.694-21.385-2.388c-23.77-1.334-50.598,6.11-73.677,2.388c-4.082-0.692-7.471-4.057-11.888-4.416
		c-8.471-1.026-17.303,0.359-25.799-1.026C1652.42,1062.841,1632.707,1054.322,1617.767,1048.546z"/>
	<path style="fill:#F9A64A;" d="M1609.269,1074.035c27.854-4.057,43.486,5.443,69.287,13.246
		c49.572,10.861,98.117,25.466,148.023,33.295v0.67c-14.916,2.385-24.081,1.718-39.045-1.672
		c-50.576-10.883-97.452-17.66-145.305-38.713C1631.013,1076.088,1620.822,1075.396,1609.269,1074.035z"/>
	<path style="fill:#F9A64A;" d="M1600.796,1095.42c4.416,2.388,8.473,5.108,13.246,6.826c4.416,1.672,9.5,1.672,13.581,4.059
		c3.39,2.051,5.418,6.132,8.495,8.161c5.418,3.39,11.528,5.108,17.304,7.806c15.969,8.473,31.22,16.969,47.546,24.464
		c8.138,5.44,16.969,12.577,25.799,16.969c4.081,1.718,8.833,1.718,12.195,3.747c3.771,2.363,5.467,7.136,9.189,9.165
		c4.751,2.72,10.861,1.694,16.302,4.081c4.416,2.029,7.782,6.802,12.22,8.83c5.443,2.388,11.553,3.055,17.328,4.751
		c22.746,6.132,43.105,13.579,66.875,14.605c4.416,0.335-2.385,6.11-4.057,6.802l-0.357-2.051l3.722-0.694l-0.31-0.643
		c-23.103,2.028-46.206-6.135-68.593-11.242c-5.778-1.002-11.553-1.337-16.993-3.722c-4.727-2.053-8.473-6.445-13.224-8.163
		c-5.775-2.363-12.22-1.672-17.995-4.416c-3.39-1.669-4.749-6.11-8.163-8.139c-4.057-2.029-8.83-2.363-13.222-4.392
		c-4.773-2.41-8.854-6.135-13.271-9.189c-23.413-16.634-51.935-27.517-75.014-44.178c-3.412-2.361-5.108-6.777-8.52-9.141
		c-3.365-2.385-8.117-2.385-11.863-4.416C1608.267,1102.916,1604.542,1098.834,1600.796,1095.42z"/>
	<path style="fill:#ECC89F;" d="M1049.393,1298.22c5.443-1.026,10.548-2.053,15.275-3.079l-47.519-73.701v-16.969h8.471
		l55.349,87.28c12.245-2.361,20.718-4.389,20.718-4.389l3.055-3.414l-57.712-66.9v-25.491l67.569,81.532l10.859-12.245
		l-52.292-47.902v-21.385l63.151,57.734l8.163-8.806l0.67-1.026l-63.488-61.149l8.139-8.495l66.232,57.4l8.806-10.167
		l-57.019-51.625l4.057-4.082h4.059l59.093,43.129l7.806-16.636l-41.411-34.988l4.392-4.441h13.246l12.911,12.936l18.33,10.883
		l7.472-16.323l-4.082-3.055l-38.688-17.663l-151.103,69.287v16.969l9.165,21.742l25.488,43.154L1049.393,1298.22z"/>
	<path style="fill:#ECC89F;" d="M972.327,644.38l7.469,1.026l-31.909,29.213l-81.507,98.833l-4.392,4.416v5.108h-8.495
		l21.385-43.129L972.327,644.38L972.327,644.38z M996.097,648.462l-0.692,0.692L892.537,765.289l-4.414,21.769l4.414-4.081
		l21.053-34.631l91.315-98.19L996.097,648.462L996.097,648.462z M1019.511,658.318l-41.074,38.378l-68.928,90.362l0,0l17.66-21.769
		l0,0l99.146-91.696L1019.511,658.318L1019.511,658.318z M1030.396,682.758l-0.335,0.335L931.25,791.448h8.498l4.392,4.081
		l29.88-43.127l62.818-55.706L1030.396,682.758L1030.396,682.758z M1038.557,711.636l-60.12,57.759l-13.581,30.215l9.165-8.163
		l16.993-26.158l48.547-39.38L1038.557,711.636L1038.557,711.636z M1040.92,744.239l0.334,8.163l-7.136,4.416l-43.104,47.208
		l4.392-16.969L1040.92,744.239z"/>
	<polygon style="fill:#ECC89F;" points="712.581,1328.46 723.129,1326.407 720.074,1239.124 732.962,1225.521 737.021,1230.629 
		737.021,1323.687 746.543,1321.658 737.021,1264.566 746.208,1239.124 750.624,1239.124 754.681,1243.181 761.818,1318.579 
		769.622,1317.217 771.342,1314.856 767.261,1303.304 763.179,1225.521 767.261,1225.521 775.732,1234.71 775.732,1243.181 
		782.536,1300.249 789.672,1291.419 789.337,1290.749 789.337,1260.177 793.394,1260.177 800.171,1266.954 801.892,1248.959 
		784.229,1217.048 784.229,1217.048 780.172,1217.048 732.962,1212.942 720.074,1221.44 703.081,1290.749 	"/>
	<path style="fill:#A68A6B;" d="M1593.994,886.917c17.328-17.328,38.378-32.603,59.763-43.821
		c19.022-10.883,35.993-25.823,55.349-35.658c43.462-18.711,87.615-31.598,135.136-36.015v0.67
		c-22.079,6.802-42.794,12.912-65.516,18.02c-44.823,10.859-81.148,39.045-121.222,59.428
		C1634.76,859.733,1615.379,874.673,1593.994,886.917z"/>
	<path style="fill:#A68A6B;" d="M1592.657,915.439c55.992-24.13,112.392-54.68,172.798-64.204
		c19.381-4.081,48.569-13.579,68.261-10.859v1.002c-54.655,7.496-110.696,31.936-162.966,48.235
		C1643.925,897.084,1621.154,911.023,1592.657,915.439z"/>
	<path style="fill:#A68A6B;" d="M1617.432,935.797c58.069-15.275,115.112-26.158,175.543-26.828v0.335
		c-1.361,0.692-3.079,1.718-5.084,2.053C1731.518,919.52,1674.475,936.132,1617.432,935.797z"/>
	<path style="fill:#A68A6B;" d="M1605.547,968.757c47.875-7.804,108.308-22.411,156.521-10.859v0.335
		c-2.028,0.667-4.081,1.002-6.11,1.337c-35.993,2.72-71.651,7.158-107.309,8.83C1632.372,970.118,1622.205,972.147,1605.547,968.757
		z"/>
	<path style="fill:#A68A6B;" d="M1611.989,1000.668c32.268-8.114,61.459-11.885,94.754-10.502
		c15.275,0.667,62.483,5.083,46.827,6.445C1706.408,997.303,1659.2,1002.052,1611.989,1000.668z"/>
	<path style="fill:#A68A6B;" d="M1607.597,1028.52c43.105,1.361,85.875,6.469,129.004,8.163c8.495,1.026,32.625,0.692,39.405,5.443
		v0.335c-12.912-0.335-26.493,1.024-39.405,1.359C1691.803,1045.538,1650.702,1040.765,1607.597,1028.52z"/>
	<path style="fill:#A68A6B;" d="M1601.487,1060.097c38.356,0.359,71.291,6.159,108.311,16.326
		c33.94,6.445,69.93,10.216,102.533,21.05l0,0C1740.013,1094.085,1671.42,1077.449,1601.487,1060.097z"/>
	<path style="fill:#A68A6B;" d="M1596.047,1081.531c14.273,0.335,23.77,0.667,37.352,6.11
		c35.299,14.273,70.624,22.746,104.229,41.768c35.656,21.05,81.148,32.268,121.555,43.462v0.357
		c-11.885,0-23.414-3.747-34.631-6.132C1742.376,1156.234,1675.501,1101.197,1596.047,1081.531z"/>
</g>
</svg>
