<?xml version="1.0" encoding="utf-8"?>
<!-- Generator: Adobe Illustrator 27.5.0, SVG Export Plug-In . SVG Version: 6.00 Build 0)  -->
<svg version="1.1" id="Layer_1" xmlns="http://www.w3.org/2000/svg" xmlns:xlink="http://www.w3.org/1999/xlink" x="0px" y="0px"
	 viewBox="0 0 2000 2000" style="enable-background:new 0 0 2000 2000;" xml:space="preserve">
<path style="fill:none;" d="M1010.16,809.048c-0.006,0-0.013-0.001-0.019-0.001c0.095,0.009,0.193,0.02,0.288,0.029
	C1010.341,809.067,1010.249,809.057,1010.16,809.048z"/>
<path style="fill:#8A8E91;" d="M1596.981,925.25c-0.024,0.854,0.03,1.652,0.141,2.412c3.854-1.068,8.004-3.385,12.258-7.638
	c17.936-17.828,23.286,29.418,32.025,0c8.767-29.418,44.019-37.781,76.207-58.136c15.774-9.963,15.163-18.382,13.739-26.622
	c-9.951,6.052-19.897,11.993-29.846,18.001c-8.097,5.225-16.686,9.813-23.97,16.201c-3.619,3.206-6.854,6.834-10.234,10.27
	c-3.35,3.468-6.907,6.694-10.452,9.962c-3.535,3.315-7.065,6.606-10.834,9.697l-0.3-0.264c5.361-8.145,11.942-15.495,19.329-21.853
	c5.723-4.544,11.823-8.58,17.323-13.395c14.332-12.838,30.519-24.064,48.585-30.884c-1.367-7.797-2.18-15.545,10.86-24.409
	c11.367-7.711,7.052-10.435-1.122-11.253c-32.274,15.626-81.147,53.346-118.651,82.293c-17.04,13.152-31.756,24.511-42.653,32.136
	c-1.483,1.038-2.943,2.049-4.389,3.041c10.739-1.993,23.1-1.806,21.816,10.051c-0.011,0.127-0.006,0.241-0.02,0.371
	C1596.888,925.24,1596.981,925.25,1596.981,925.25z"/>
<path style="fill:#CCCAC4;" d="M270.952,966.947c23.96-10.057,18.797,9.761,51.764,13.122c32.941,3.334,35.252,48.913,57.142,33.478
	c21.889-15.462,9.788,33.72,28.96,16.457c19.2-17.237,67.844,43.508,78.411,27.562c9.91-15.016,2.779-49.138-8.813-74.978
	c-7.471-12.034-18.196-22.378-33.244-30.918c0,0,0.174-0.36,0.174-0.36c0.919,0.364,1.833,0.749,2.743,1.146
	c-25.44-16.333-54.391-28.947-30.128-28.263c36.061,1.049,122.889,58.701,171.64,7.906c48.752-50.795,32.269,40.496,92.69,8.228
	c60.423-32.268,126.331-11.67,301.412,11.159c175.055,22.83,114.632-29.014,40.281-52.732
	c-74.352-23.744-180.353-39.421-87.662-34.634c92.69,4.813,63.164-27.455,8.229-43.696c-32.613-9.66-117.593-11.829-181.194-12.013
	c-81.97,9.28-188.727,26.44-248.604,47.299c-64.904,22.63-137.065,51.834-184.815,71.159c-18.922,7.658-33.867,13.706-43.08,17.21
	c-6.667,2.543-14.386,4.903-22.558,7.401c-11.437,3.496-23.727,7.254-32.92,11.646C230.189,970.581,252.725,974.592,270.952,966.947
	z"/>
<path style="fill:#8A8E91;" d="M1382.588,1127.427c-6.749,14.117-15.703,1.506-26.11,11.106c-1.236,1.156-2.501,2.582-3.765,4.437
	c-12.02,17.398-34.661,27.024,2.393,22.211c4.616-0.6,8.618-0.761,12.102-0.589c20.457-7.631,31.837-24.994,42.921-45.483
	C1400.949,1117.334,1387.331,1117.466,1382.588,1127.427z"/>
<path style="fill:#8A8E91;" d="M1081.016,1227.135c-14.626-8.697-44.465-16.654-41.364-9.421c10.144,2.643,19.888,5.734,30.12,8.983
	c4.33,1.375,8.763,2.782,13.366,4.201c16.564,5.089,30.815,5.934,39.733,4.836
	C1114.727,1228.656,1097.873,1237.192,1081.016,1227.135z"/>
<path style="fill:#8A8E91;" d="M1385.68,884.717c5.409-1.322,2.174-6.164-3.521-11.261c-4.083,1.247-9.041,4.61-14.514,8.322
	c-1.962,1.331-4,2.712-6.113,4.079C1367.328,887.156,1377.813,886.632,1385.68,884.717z"/>
<path style="fill:#8A8E91;" d="M938.042,793.937c13.391,1.022,17.746,0.753,41.705,0c23.934-0.78,30.629-4.652,19.228-8.766
	c-11.375-4.114,15.784-4.894,42.029-8.228c16.52-2.118,8.512-8.281,0.282-12.578c-13.079,1.694-34.047,7.133-57.757,13.284
	c-13.347,3.463-27.784,7.206-42.326,10.659C935.683,791.196,932.99,793.532,938.042,793.937z"/>
<path style="fill:#8A8E91;" d="M535.201,1133.531c21.969,8.847,29.176,28.907,63.164,34.903c23.653,4.192,30.57-2.516,23.927-9.068
	c-7.071-0.42-14.122-1.247-21.082-2.485c-3.898-0.729-7.781-1.521-11.63-2.488l0.053-0.396c5.308-0.09,10.545,0.213,15.785,0.406
	c3.21,0.089,6.42,0.214,9.63,0.359c-2.525-1.123-5.51-2.142-8.965-2.973c-11.241-2.702-16.719-6.676-18.097-9.968
	c-11.837-2.156-23.58-4.801-35.11-8.302c11.699,1.332,23.545,2.958,35.435,4.652c1.549-2.057,5.652-2.982,11.239-1.494
	c12.273,3.287,30.008-1.495,22.426-9.32c-2.034-0.242-4.067-0.495-6.098-0.767c-14.356-2.135-28.771-4.665-42.405-9.812
	c13.284,1.943,26.932,3.665,40.572,5.513c-0.02-0.009-0.037-0.018-0.057-0.027c-6.372-2.938-12.83-5.639-18.854-8.012
	c-18.837-2.236-36.718-2.918-54.7-0.802C526.489,1118.087,518.81,1126.931,535.201,1133.531z"/>
<path style="fill:#636363;" d="M291.614,987.669c-0.641-0.558-1.28-0.825-1.992-0.825c-0.103,0-0.205,0.005-0.311,0.016
	c-1.897,0.196-4.314,2.114-6.803,5.4h-0.001c-1.022,1.35-2.562,3.777-1.379,4.866c2.363,2.178,11.017,1.076,14.242-1.814
	c1.115-1,1.715-1.892,1.686-2.512c-0.048-1.041-1.889-2.408-3.368-3.507C292.988,988.773,292.264,988.234,291.614,987.669z"/>
<path style="fill:#C7C5BF;" d="M248.956,992.036c1.397-13.257,19.038,1.022,29.714-9.654c7.399-7.38,11.099-6.095,17.439-0.727
	c1.234,0.777,2.358,1.766,3.343,2.934c2.089,1.865,4.469,3.993,7.292,6.29c14.413,11.724,3.872,16.726,16.725,22.776
	c12.881,6.05,16.484,7.475,12.37,16.994c-4.114,9.546,16.35,25.895,36.947,19.711c20.597-6.185,34.876,27.401,38.479,15.058
	c3.604-12.369,15.462,12.343,23.046,3.469c7.61-8.874,18.797,0.135,31.542,13.391c12.615,13.122,24.225-9.685,27.068-23.137
	c0.451-5.215,0.681-10.44,0.561-15.654c-0.459-23.494-4.504-43.887-15.065-60.899c11.593,25.84,18.724,59.962,8.813,74.978
	c-10.567,15.946-59.211-44.799-78.411-27.562c-19.172,17.263-7.071-31.919-28.96-16.457c-21.89,15.435-24.201-30.144-57.142-33.478
	c-32.967-3.361-27.804-23.179-51.764-13.122c-18.227,7.645-40.763,3.634-39.574-3.823c-7.197,3.438-12.497,7.265-13.999,11.659
	c-0.978,2.859-0.273,5.917,2.152,9.348c1.333,1.923,3.22,3.942,5.617,6.015c3.385,2.949,6.605,5.889,9.65,8.789
	C240.364,1000.21,248.058,1000.393,248.956,992.036z"/>
<path style="fill:#C7C5BF;" d="M936.32,864.12c-92.69-4.786,13.311,10.89,87.662,34.634c74.351,23.717,134.773,75.561-40.281,52.732
	c-175.081-22.83-240.989-43.427-301.412-11.159c-60.421,32.268-43.938-59.024-92.69-8.228
	c-48.751,50.795-135.579-6.857-171.64-7.906c-24.263-0.684,4.688,11.93,30.128,28.263c11.178,4.868,21.584,12.191,29.323,21.739
	c5.211,1.595,17.116,7.823,33.509,32.147c22.399,33.209,27.024,20.84,44.529-2.582c17.506-23.421,21.108,41.949,50.983,25.492
	c29.848-16.484,128.723,24.201,232.224-13.391c103.499-37.592,177.125,30.386,181.238,2.044c4.142-28.315,34.5,26.272,44.289,0
	c9.787-26.245,62.814-13.364,165.803-17.909c102.99-4.518-71.581-76.825-12.342-72.2c59.212,4.652,40.147-37.055-27.806-51.494
	c-67.978-14.413-88.064-37.566-123.074-44.53c-24.723-4.918-54.583-17.346-69.993-24.202c-5.541-0.774-11.059-1.737-16.539-2.884
	c-19.86-4.289-40.19-5.589-60.453-6.152c-10.133-0.234-20.304-0.257-30.396,0.049v-0.003c-10.342,1.463-20.031,2.333-28.598,2.333
	c-19.202,0-54.998,2.694-97.432,7.499c63.602,0.184,148.581,2.353,181.194,12.013C999.484,836.665,1029.011,868.933,936.32,864.12z"
	/>
<path style="fill:#C7C5BF;" d="M236.38,1005.378l-0.338,0.339C236.042,1005.718,236.309,1005.45,236.38,1005.378L236.38,1005.378z"
	/>
<path style="fill:#C7C5BF;" d="M228.358,1020.243c7.206,12.854,33.344,27.401,31.892,18.42c-0.845-5.34-11.666-18.965-20.341-29.177
	c-1.273-1.271-2.561-2.529-3.867-3.768c-4.108-4.094-8.655-8.317-13.515-12.551c-2.146-1.855-3.942-3.699-5.352-5.495
	c-2.034,0.823-3.647,1.934-4.886,3.333c0.584,2.262,1.063,4.389,1.387,6.194C216.634,1014.193,221.151,1007.363,228.358,1020.243z"
	/>
<path style="fill:#C1BFB9;" d="M1501.012,958.181c47.381-3.765,54.588-9.277,103.15-13.741c1.598-0.147,3.063-0.327,4.436-0.533
	c-0.674-0.441-1.339-0.879-1.981-1.321c-4.343-2.895-9.141-6.616-10.11-12.093c-0.327-1.785-0.245-3.578,0.078-5.285
	c0,0,0.106,0.011,0.211,0.022c0.014-0.13,0.009-0.244,0.02-0.371c-0.014,0.126-0.015,0.241-0.031,0.37
	c0.201-3.208-0.753-6.821-3.809-8.306c-7.737-3.569-20.354,1.344-27.904,4.491c-21.095,13.516-39.336,21.332-62.906,21.333
	c-14.026,0.001-29.936-2.764-49.467-8.737c-7.771-2.378-14.311-4.459-19.848-6.363
	C1452.778,941.504,1461.755,961.325,1501.012,958.181z"/>
<path style="fill:#C1BFB9;" d="M1189.839,876.301c67.953,14.44,87.018,56.147,27.806,51.494
	c-59.239-4.625,115.332,67.682,12.342,72.2c-102.988,4.544-156.016-8.336-165.803,17.909c-9.789,26.272-40.147-28.315-44.289,0
	c-4.113,28.342-77.739-39.636-181.238-2.044c-103.501,37.592-202.376-3.092-232.224,13.391
	c-29.875,16.457-33.478-48.913-50.983-25.492c-17.505,23.421-22.131,35.791-44.529,2.582
	c-16.393-24.323-28.298-30.552-33.509-32.147c0.013,0.016,0.026,0.031,0.039,0.047c11.531,13.8,16.621,31.858,17.825,49.503
	c0.512,8.5,0.152,17.005-0.411,25.488c0.699,4.333,2.167,13.463,4.465,27.911c3.335,21.109,6.427-22.937,8.229,2.313
	c1.802,25.223,1.559,32.698,77.766,6.427c76.206-26.272,162.201,25.223,204.418,1.022c42.218-24.201,17.506,23.69,74.647,3.092
	c57.169-20.598,69.537,11.859,172.499,13.902c102.99,2.071,107.453-24.551,142.814-44.1c35.36-19.576,22.99,12.02,60.072-23.69
	c37.081-35.71,68.3-13.741,124.607-22.668c56.309-8.901,7.557-41.868-37.753-54.937c-45.31-13.042,12.342-30.52,25.465-29.848
	c13.095,0.699,7.824-21.969-17.075-28.477c-2.922-0.767-6.537-1.877-10.629-3.233c-1.119-0.166-2.249-0.383-3.392-0.658
	c-22.932-5.525-82.129-23.345-134.357-39.067c-32.327-9.732-60.246-18.136-74.403-22.071c-1.465-0.407-2.865-0.898-4.219-1.45
	c-17.684-2.899-35.178-6.681-52.229-12.198c-3.96-1.364-8.07-2.801-11.889-4.506c-2.792-1.204-5.83-2.714-8.688-3.704
	c-7.854-2.905-16.339-3.223-24.594-4.197c-0.064-0.006-0.126-0.012-0.19-0.018c-0.095-0.009-0.193-0.019-0.288-0.029
	c-4.468-0.358-8.927-0.858-13.37-1.478c15.41,6.856,45.271,19.284,69.993,24.202
	C1101.774,838.735,1121.861,861.888,1189.839,876.301z"/>
<path style="fill:#C1BFB9;" d="M235.708,1058.918c7.94,4.147,16.432,8.262,22.633,14.083c13.122,12.343,9.788-12.853,15.703,0
	c5.917,12.854,25.762,30.897,27.482,18.796c1.748-12.1,12.424-9.519,30.978,5.674c18.526,15.193,37.968,13.633,52.382,4.249
	c14.413-9.412,30.896,10.944,49.692,21.378c14.82,8.205,37.623-7.027,48.64-20.205c2.104-4.559,3.858-9.283,5.126-14.216
	c0.488-1.706,1.022-4.446,1.357-6.237c1.356-7.688,2.543-15.481,3.219-23.299c-2.843,13.452-14.453,36.259-27.068,23.137
	c-12.745-13.257-23.932-22.265-31.542-13.391c-7.584,8.874-19.441-15.838-23.046-3.469c-3.603,12.343-17.882-21.243-38.479-15.058
	c-20.598,6.185-41.062-10.165-36.947-19.711c4.114-9.519,0.511-10.944-12.37-16.994c-12.853-6.05-2.311-11.052-16.725-22.776
	c-2.823-2.297-5.203-4.425-7.292-6.29c1.917,2.275,3.31,5.216,3.939,8.585c0.763,4.083-1.485,7.79-6.166,10.171
	c-3.016,1.533-6.892,2.409-10.631,2.409c-4.254,0-8.332-1.132-10.77-3.716c-1.746-1.851-4.044-6.037,0.188-13.281
	c3.845-6.583,9.657-9.899,15.543-8.88c1.629,0.283,3.158,0.899,4.554,1.778c-6.34-5.369-10.039-6.654-17.439,0.727
	c-10.676,10.675-28.316-3.603-29.714,9.654c-0.898,8.358-8.592,8.175-14.157,6.899c1.392,1.326,2.759,2.646,4.067,3.95l-2.486,2.494
	l0,0c0.524-0.526,2.486-2.494,2.486-2.494c19.602,19.892,33.597,44.492,44.187,70.117c-6.069-12.422-12.497-24.705-20.266-36.074
	c-6.707-9.888-14.435-19.016-22.878-27.442c8.675,10.212,19.496,23.837,20.341,29.177c1.452,8.981-24.686-5.566-31.892-18.42
	c-7.207-12.88-11.725-6.05-14.682-23.045c-0.324-1.805-0.803-3.931-1.387-6.194c-0.91,1.027-1.624,2.205-2.125,3.56
	c-3.367,9.107,2.15,25.446,16.4,48.561C229.834,1048.419,232.84,1053.697,235.708,1058.918z"/>
<path style="fill:#BBB9B3;" d="M1352.095,928.656c-13.123-0.672-70.774,16.806-25.465,29.848
	c45.31,13.069,94.062,46.036,37.753,54.937c-56.308,8.927-87.526-13.042-124.607,22.668c-37.082,35.71-24.712,4.114-60.072,23.69
	c-35.361,19.549-39.824,46.17-142.814,44.1c-102.962-2.043-115.33-34.5-172.499-13.902c-57.142,20.598-32.43-27.293-74.647-3.092
	c-42.217,24.201-128.212-27.293-204.418-1.022c-76.207,26.271-75.964,18.796-77.766-6.427c-1.803-25.25-4.895,18.796-8.229-2.313
	c-2.298-14.448-3.766-23.577-4.465-27.911c-0.309,4.648-0.677,9.291-1.001,13.922l-0.895,13.084
	c-0.292,3.837-0.536,9.443-1.38,13.184c-1.781,8.755-5.687,16.982-10.578,24.388c-4.92,7.367-10.77,14.035-17.331,19.847
	l-0.29-0.276c7.613-9.504,14.76-19.506,19.828-30.488c-11.017,13.178-33.819,28.41-48.64,20.205
	c-18.796-10.433-35.279-30.789-49.692-21.378c-14.414,9.385-33.855,10.944-52.382-4.249c-18.554-15.193-29.229-17.774-30.978-5.674
	c-1.721,12.1-21.565-5.943-27.482-18.796c-5.915-12.853-2.581,12.343-15.703,0c-6.201-5.822-14.692-9.936-22.633-14.083
	c2.287,4.165,4.489,8.294,6.653,12.359c3.954,7.429,7.783,14.614,11.838,21.44c0.009,0.007,0.019,0.015,0.026,0.022
	c21.27,17.855,35.604,42.002,70.722,42.567c35.092,0.592,38.775,6.185,69.001,16.833c29.649,10.456,65.575-15.158,66.866-16.09
	c0.909-0.841,1.828-1.672,2.72-2.53c-0.946,1.05-1.902,2.095-2.864,3.135c-0.335,1.789,1.015,5.672,28.361-10.276
	c18.668-10.881,26.095-13.062,29.03-12.912c0.458-0.117,0.914-0.235,1.394-0.35c39.992-9.579,79.018-3.446,123.298,4.774
	c3.174,0.083,6.347,0.168,9.5,0.259c62.655,1.721,75.347,20.598,127.54,15.381c52.167-5.244,75.508,33.021,122.887,16.322
	c47.381-16.672,25.386,20.463,64.188,8.013c38.803-12.45,86.505,13.499,134.907,3.872c48.402-9.6,115.01-26.433,138.699-58.351
	c23.664-31.919,15.086,16.134,43.239-16.134c28.154-32.268,141.766-45.659,178.175-46.009c36.382-0.323,43.938-9.25,18.177-21.62
	c-25.733-12.343,69.35-14.413,97.826-10.944c28.503,3.469,26.111-1.076,29.524-28.181c1.247-9.819,6.378-17.68,12.427-23.694
	c-0.045-0.389-0.106-0.778-0.189-1.167c-1.232-5.476-6.364-8.664-11.055-11.731c-1.372,0.206-2.838,0.386-4.436,0.533
	c-48.563,4.464-55.77,9.976-103.15,13.741c-39.257,3.144-48.233-16.677-68.162-30.534c-12.654-4.353-20.038-7.78-24.724-11.695
	c-6.475-2.146-13.008-4.316-19.263-7.032c-6.398-2.526-13.042-4.532-19.71-6.419c0.048,0.009,0.097,0.018,0.145,0.027
	c-0.053-0.012-0.103-0.024-0.155-0.036c-0.031-0.007-0.067-0.015-0.099-0.022c0.035,0.01,0.074,0.021,0.109,0.031
	c-4.978-0.837-12.223-1.966-17.282-2.786c0,0-16.016-2.564-16.841-2.696c-3.422,0.447-6.967,0.473-10.64-0.072
	c4.092,1.355,7.707,2.466,10.629,3.233C1359.919,906.687,1365.189,929.355,1352.095,928.656z"/>
<path style="fill:#B6B4AE;" d="M1604.016,1067.689c3.346-3.635,5.98-8.072,5.869-13.114c0.014-1.729-0.335-3.432-0.212-5.182
	c0.121-3.737,1.877-7.344,4.023-10.263c2.037-2.901,4.328-5.349,5.526-8.114c4.129-10.162-6.322-18.112-9.525-26.969
	c-3.11-6.907-1.473-14.142,1.632-20.634c2.838-6.205,5.786-12.193,7.554-18.746c0.751-2.621,1.262-5.246,0.959-7.863
	c-6.049,6.015-11.18,13.875-12.427,23.694c-3.413,27.105-1.021,31.65-29.524,28.181c-28.477-3.469-123.56-1.398-97.826,10.944
	c25.761,12.369,18.205,21.297-18.177,21.62c-36.409,0.35-150.021,13.741-178.175,46.009c-28.153,32.268-19.575-15.784-43.239,16.134
	c-23.689,31.918-90.297,48.752-138.699,58.351c-48.402,9.627-96.104-16.322-134.907-3.872c-38.802,12.45-16.807-24.685-64.188-8.013
	c-47.379,16.699-70.72-21.566-122.887-16.322c-52.193,5.217-64.885-13.66-127.54-15.381c-3.153-0.091-6.326-0.176-9.5-0.259
	c3.302,0.613,6.631,1.237,9.994,1.867c9.398,1.763,19.117,3.585,29.202,5.348c41.823,7.313,60.266,21.438,59.99,32.193
	c-0.182,7.087-7.695,12.06-20.614,13.642c-13.713,1.679-23.367,3.861-31.885,5.787c-12.704,2.872-23.676,5.352-43.516,5.556
	l-0.907,0.009c-4.313,0.045-8.831,0.092-13.482,0.092c-31.639,0-69.469-2.167-91.327-21.9c-5.857-5.288-12.224-10.141-17.841-14.423
	c-12.283-9.365-21.159-16.132-19.749-22.807c0.897-4.249,5.688-7.291,15.443-9.79c-2.936-0.15-10.362,2.031-29.03,12.912
	c-27.347,15.948-28.696,12.064-28.361,10.276c-2.008,2.17-4.055,4.31-6.185,6.365c-8.402,8.195-17.385,15.7-27.024,22.406
	c23.713,6.476,123.957,32.531,217.848,37.233c95.714,4.792,282.517,6.855,328.767,6.855c5.271,0,10.275,0.129,15.059,0.372
	c11.553-2.698,23.033-5.376,34.837-6.841c2.96-0.312,5.869-0.661,8.762-1.235c5.927-1.137,19.885-5.025,25.911-6.544
	c-0.08,0.025-0.175,0.055-0.257,0.081c0.087-0.025,0.169-0.049,0.257-0.075c0.035-0.011,0.075-0.022,0.111-0.032
	c-0.037,0.009-0.074,0.017-0.111,0.026c3.478-1.189,6.979-2.325,10.503-3.396c10.58-3.123,21.225-5.726,32.186-7.26l0.019-0.004
	c0.619-0.135,62.445-13.536,106.031-16.284c11.706-0.731,24.565-0.778,37.778-0.535c11.986-5.529,23.896-11.53,35.091-18.562
	c3.733-2.417,7.553-5.048,11.554-7.076c15.758-8.114,32.661-14.104,46.417-25.522c0.194-0.168,0.397-0.322,0.591-0.492
	c0.083-0.073,0.163-0.148,0.246-0.221c3.493-3.137,6.442-6.793,9.706-10.176c10.706-11.532,24.12-20.723,39.282-25.245
	c3.683-0.689,7.331-0.098,10.961-0.424c4.711-0.259,9.368-1.047,14.026-2.082c0,0,27.508-6.072,27.91-6.161
	c9.983-4.856,26.813-4.566,65.339-3.899l10.198,0.174c20.479,0.338,38.469,5.154,54.674,12.568c2.966,0.252,6.031,0.359,9.041,0.304
	c4.705-0.199,9.75-0.361,13.886-2.71c1.494-0.798,2.038-2.202,2.816-3.586c0.928-1.465,2.154-2.637,3.408-3.717
	c1.26-1.08,2.572-2.071,3.845-3.12c-0.038,0.039-0.078,0.077-0.116,0.116c0.041-0.037,0.082-0.072,0.122-0.109L1604.016,1067.689z"
	/>
<path style="fill:#B6B4AE;" d="M393.948,1152.139c-30.226-10.648-33.909-16.242-69.001-16.833
	c-35.118-0.565-49.451-24.712-70.722-42.567c-0.008-0.007-0.018-0.015-0.026-0.022c13.007,21.898,28.361,40.07,57.836,50.491
	c47.476,16.778,103.933,20.583,110.253,20.963c13.833-7.819,26.844-17.303,38.526-28.122
	C459.523,1136.981,423.598,1162.595,393.948,1152.139z"/>
<path style="fill:#84888B;" d="M1741.813,808.591c-13.04,8.864-12.228,16.612-10.86,24.409c2.474-0.934,4.981-1.79,7.526-2.551
	c0,0,0.165,0.364,0.165,0.364c-2.432,1.495-4.862,2.974-7.293,4.452c1.424,8.24,2.035,16.659-13.739,26.622
	c-32.188,20.356-67.44,28.719-76.207,58.136c-8.739,29.418-14.09-17.828-32.025,0c-4.254,4.253-8.403,6.57-12.258,7.638
	c1.403,9.64,13.082,12.159,20.141,17.668c6.917,4.98,8.408,12.799,5.608,20.549c-0.239,0.755-0.497,1.504-0.764,2.25
	c5.106,19.084,12.38,27.432,27.5-5.484c16.106-35.011,41.571,9.627,47.058-14.063c5.512-23.69,7.555,17.156,13.068-13.042
	c3.095-17.083,11.912-34.716,18.98-46.809c4.835-12.301,10.688-24.775,16.266-36.657c4.404-9.385,8.564-18.25,11.981-26.475
	c5.354-12.893,11.989-22.523,16.379-28.896c2.282-3.313,4.854-7.045,5.018-8.354c-2.254-0.983-14.49,1.339-19.177,2.228
	c-5.175,0.982-11.438,3.347-18.489,6.761C1748.865,798.156,1753.181,800.881,1741.813,808.591z M1690.862,931.648
	c-7.18,2.959-13.989,6.331-21.142,9.531c10.743-11.236,27.211-18.16,42.762-17.922
	C1705.188,926.122,1698.009,928.611,1690.862,931.648z"/>
<path style="fill:#84888B;" d="M524.793,1142.882c5.679,4.329,12.115,9.236,18.095,14.635
	c20.434,18.447,56.399,20.787,87.017,20.864c9.308-3.027,9.218-10.363,22.349-12.931c9.054-1.771,4.854-4.477,0.52-6.635
	c-5.352,0.469-10.706,0.881-16.075,0.835c-4.798,0.104-9.607,0.002-14.406-0.283c6.643,6.552-0.273,13.259-23.927,9.068
	c-33.988-5.996-41.195-26.057-63.164-34.903c-16.391-6.6-8.712-15.445,5.232-20.081c-6.65,0.783-13.315,1.944-20.047,3.556
	c-10.761,2.578-13.474,5.271-13.855,7.076C505.645,1128.284,514.945,1135.375,524.793,1142.882z"/>
<path style="fill:#84888B;" d="M614.045,1122.291c15.263,2.068,30.517,4.295,45.247,7.188c-12.476,0.234-24.934-0.65-37.316-2.122
	c7.582,7.825-10.152,12.606-22.426,9.32c-5.587-1.488-9.69-0.563-11.239,1.494c22.347,3.184,44.853,6.615,66.862,8.815
	c-17.253,1.464-34.611-0.268-51.7-2.598c-5.175-0.775-10.339-1.63-15.486-2.567c1.378,3.292,6.855,7.266,18.097,9.968
	c3.455,0.83,6.44,1.85,8.965,2.973c9.855,0.443,19.711,1.073,29.56,1.467c1.163,0.062,2.328,0.126,3.493,0.188
	c-1.146-0.827-0.303-1.229,5.31-0.89c19.172,1.156,27.804-11.213,6.964-18.931c-20.866-7.717,23.798-1.936,8.605-7.126
	c-3.811-1.304-8.807-3.179-14.142-5.251c-0.94-0.176-1.894-0.354-2.828-0.53c-20.41-3.827-39.07-7.324-56.876-9.437
	c6.024,2.372,12.482,5.073,18.854,8.012C614.008,1122.273,614.025,1122.282,614.045,1122.291z"/>
<path style="fill:#7F8386;" d="M1022.907,802.81c13.122,0.887,14.492-2.098,6.776-7.26c-7.718-5.136,25.761-0.591,32.966-10.38
	c2.899-3.935,1.063-10.016-2.152-15.941c-3.502-3.382-7.52-5.406-12.475-5.406c-0.145,0-0.29,0.002-0.438,0.005
	c-1.819,0.043-3.932,0.228-6.299,0.535c8.229,4.297,16.237,10.46-0.282,12.578c-26.245,3.334-53.404,4.114-42.029,8.228
	c11.401,4.114,4.706,7.986-19.228,8.766c-23.959,0.753-28.314,1.022-41.705,0c-5.052-0.404-2.359-2.741,3.161-5.63
	c-10.414,2.473-20.878,4.792-31.038,6.754c13.437,0.536,26.839,1.54,40.205,3.174c6.583,0.679,13.071,1.85,19.528,3.186
	c3.422-0.564,6.738-0.896,9.849-0.896C1002.578,800.524,1009.783,801.896,1022.907,802.81z"/>
<path style="fill:#7F8386;" d="M1359.759,892.542c14.79-2.071,21.995,5.405,30.493,1.022c3.544-1.828,4.713-4.773,4.875-7.587
	c-0.42-1.274-0.873-2.599-1.378-3.995c-1.821-5.036-3.98-7.898-6.599-8.748c-1.461-0.473-3.136-0.344-4.991,0.223
	c5.694,5.097,8.93,9.939,3.521,11.261c-7.866,1.915-18.352,2.438-24.147,1.14c-3.598,2.327-7.416,4.605-11.453,6.516
	C1352.312,892.989,1355.481,893.135,1359.759,892.542z"/>
<path style="fill:#84888B;" d="M1125.976,1226.329c-7.985-6.83-16.591-0.511-27.535-9.788c-10.943-9.277-2.34,6.83-12.639-3.334
	c-10.298-10.191-30.116-4.007-47.999-6.05c-9.438-1.087-9.759,3.499-7.936,8.192c3.32,0.738,6.572,1.53,9.784,2.367
	c-3.101-7.233,26.738,0.724,41.364,9.421c16.857,10.056,33.711,1.52,41.855,8.599c3.063-0.377,5.49-0.983,7.171-1.726
	C1131.768,1232.302,1131.066,1230.677,1125.976,1226.329z"/>
<path style="fill:#84888B;" d="M1385.331,1107.502c-3.093-10.971-27.132,2.931-28.666,18.715c-0.456,4.733-2.312,6.131-4.731,6.131
	c-5.594,0-14.199-7.529-15.516,1.936c-1.909,13.552-21.969,14.063-41.385,28.665c-3.504,2.637-4.796,4.666-4.571,6.214
	c21.564,0.659,42.887,0.948,60.327-0.836c6.082-0.617,11.506-1.902,16.418-3.735c-3.483-0.172-7.485-0.012-12.102,0.589
	c-37.054,4.813-14.412-4.813-2.393-22.211c1.264-1.855,2.528-3.281,3.765-4.437c10.407-9.6,19.361,3.012,26.11-11.106
	c4.743-9.962,18.361-10.093,27.54-8.318c1.735-3.208,3.464-6.488,5.219-9.823c1.623-3.085,3.264-6.196,4.94-9.309
	C1410.516,1098.724,1387.532,1115.283,1385.331,1107.502z"/>
<path style="fill:#7E8184;" d="M660.374,1136.597c20.84,7.718,12.208,20.087-6.964,18.931c-5.612-0.339-6.456,0.063-5.31,0.89
	c6.693,0.359,13.416,0.65,20.091-0.053c4.508-0.375,11.047-1.68,15.54-2.463c5.156-0.867,10.343-1.434,15.516-2.159l15.598-2.073
	l0.116,0.383c-4.878,2.167-10.012,3.558-15.167,4.742c-5.043,1.113-10.534,2.088-15.669,2.421
	c-4.528,0.33-11.229,0.277-15.846,0.437c-5.171,0.203-10.337,0.71-15.506,1.163c4.334,2.157,8.533,4.864-0.52,6.635
	c-13.131,2.569-13.041,9.904-22.349,12.931c5.212,0.013,10.273-0.037,15.072-0.087l0.907-0.009
	c19.414-0.2,30.193-2.637,42.675-5.458c8.609-1.946,18.368-4.152,32.28-5.855c10.585-1.296,16.978-4.95,17.102-9.774
	c0.187-7.299-14.754-20.819-56.682-28.15c-9.105-1.592-17.888-3.228-26.422-4.827c5.335,2.072,10.331,3.948,14.142,5.251
	C684.172,1134.661,639.508,1128.879,660.374,1136.597z"/>
<path style="fill:#7E8184;" d="M1058.386,1195.345c-6.211,1.943-19.412,6.445-25.327,7.927c-2.906,0.749-5.886,1.277-8.818,1.753
	c-5.793,0.995-11.554,2.454-17.283,3.953c-2.122,0.561-4.238,1.152-6.355,1.742c10.646,1.014,20.215,2.617,29.266,4.627
	c-1.823-4.693-1.503-9.279,7.936-8.192c17.883,2.044,37.701-4.141,47.999,6.05c10.299,10.164,1.695-5.943,12.639,3.334
	c10.944,9.277,19.55,2.958,27.535,9.788c5.091,4.349,5.792,5.973,4.066,7.68c1.334-0.59,2.206-1.263,2.529-1.978
	c0.518-1.144-1.165-3.088-4.391-5.075c-4.561-2.807-6.446-5-6.305-7.333c0.166-2.749,2.987-4.045,5.715-5.298
	c1.774-0.815,4.205-1.932,4.353-2.975c0.048-0.337-0.051-1.659-3.321-4.482c-13.188-11.404-24.887-17.183-27.223-18.282
	c-14.348,0.751-28.678,3.259-42.646,6.651c-0.036,0.011-0.076,0.022-0.111,0.032
	C1058.555,1195.296,1058.473,1195.32,1058.386,1195.345z"/>
<path style="fill:#7E8184;" d="M1338.221,1116.626c0.195-0.162,0.397-0.315,0.592-0.48c-3.344,3.001-6.922,5.741-10.65,8.262
	c-12.979,8.887-27.98,14.375-41.028,23.016c-10.636,7.751-22.009,14.418-33.663,20.547c7.37,0.192,14.798,0.447,22.146,0.7
	c4.932,0.17,9.895,0.34,14.845,0.491c-0.225-1.548,1.067-3.577,4.571-6.214c19.416-14.601,39.476-15.112,41.385-28.665
	c1.316-9.465,9.922-1.936,15.516-1.936c2.42,0,4.275-1.398,4.731-6.131c1.534-15.785,25.573-29.687,28.666-18.715
	c2.201,7.781,25.185-8.778,34.956-7.525c0.114-0.211,0.225-0.422,0.339-0.633c1.216-2.241,2.314-4.322,3.336-6.254
	c3.713-7.026,6.527-12.176,9.93-15.93c-11.289,2.168-26.871,5.365-34.791,5.406c-3.813,0.253-7.712-0.67-11.38,0.19
	c-14.713,4.104-27.859,12.524-38.603,23.333c-3.44,3.327-6.591,6.998-10.306,10.058c0.085-0.075,0.161-0.158,0.245-0.234
	c-0.083,0.073-0.163,0.149-0.246,0.221C1338.618,1116.303,1338.415,1116.458,1338.221,1116.626z"/>
<path style="fill:#7E8184;" d="M1696.665,948.581c-5.486,23.69-30.951-20.947-47.058,14.063c-15.12,32.917-22.394,24.568-27.5,5.484
	c-2.076,5.81-4.939,11.378-7.896,16.7c-6.304,10.53-5.531,17.746,1.613,27.575c7.061,9.165,9.578,15.171,4.759,23.337
	c0.132,15.093,0.15,24.822,25.474,15.157c1.249-0.477,2.451-0.847,3.617-1.141c-0.066-0.105-0.141-0.204-0.206-0.31l0.295-0.271
	c0.182,0.138,0.356,0.283,0.537,0.421c27.609-6.286,31.893,36.959,37.275,15.686c5.673-22.319,32.106,37.081,37.969,10.998
	c5.503-24.46-0.866-44.75-11.61-73.926c-4.413-6.147-5.537-11.015-5-15.3c-0.937-4.944,0.13-6.661,2.094-6.609
	c0.814-1.685,1.775-3.332,2.748-4.998c4.122-7.06,8.795-15.062,5.331-29.854c-3.759-16.051,1.489-36.213,9.607-56.864
	c-7.068,12.093-15.886,29.725-18.98,46.809C1704.22,965.737,1702.177,924.891,1696.665,948.581z M1646.063,982.992
	c7.184-3.077,14.666-4.981,22.259-6.583c7.611-1.509,15.242-2.689,23.058-2.665c-7.182,3.085-14.664,4.988-22.259,6.583
	C1661.508,981.829,1653.877,983.008,1646.063,982.992z M1683.42,1011.129c-10.083-0.501-20.131-1.865-29.677-5.333
	c10.109-0.986,20.181,0.192,30.071,2.213c3.243,0.842,6.961,1.255,9.58,3.56C1690.066,1010.804,1686.776,1011.369,1683.42,1011.129z
	"/>
<path style="fill:#75797B;" d="M1041.507,814.565l2.92,1.159c3.831,1.532,7.958,2.795,11.92,3.986
	c9.079,2.567,18.329,4.61,27.612,6.308c4.976,0.9,9.979,1.713,14.984,2.442c-11.135-8.56-17.803-22.462-23.866-35.114
	c-4.673-9.752-8.96-18.689-14.58-24.117c3.216,5.924,5.052,12.006,2.152,15.941c-7.205,9.788-40.684,5.244-32.966,10.38
	c7.716,5.163,6.346,8.148-6.776,7.26c-13.124-0.914-20.329-2.286-43.16-2.286c-3.11,0-6.427,0.332-9.849,0.896
	c13.467,2.787,26.794,6.305,40.536,7.652c4.202,0.34,8.412,0.497,12.621,0.884C1029.384,810.459,1035.672,812.021,1041.507,814.565z
	"/>
<path style="fill:#75797B;" d="M1010.62,809.094c-0.062-0.007-0.124-0.014-0.186-0.021c-0.092-0.007-0.183-0.017-0.274-0.024
	c0.089,0.009,0.181,0.018,0.269,0.027C1010.494,809.082,1010.556,809.087,1010.62,809.094z"/>
<path style="fill:#75797B;" d="M1369.298,902.528c6.772,1.232,13.537,2.582,20.21,4.498c4.646,1.504,9.339,2.698,14.066,3.811
	c-2.34-3.644-3.625-7.97-5.178-13.71c-0.887-3.279-1.869-6.901-3.27-11.15c-0.162,2.813-1.331,5.759-4.875,7.587
	c-8.498,4.383-15.703-3.092-30.493-1.022c-4.277,0.593-7.447,0.446-9.68-0.169c-2.267,1.073-4.603,2.026-7.009,2.806
	c8.652,2.42,18.664,5.206,25.974,7.29c0.031,0.007,0.067,0.015,0.099,0.022C1369.195,902.504,1369.245,902.516,1369.298,902.528z"/>
<path style="fill:#787C7E;" d="M1708.934,987.056c0.294-2.338,1.077-4.504,2.094-6.609
	C1709.063,980.395,1707.997,982.112,1708.934,987.056z"/>
<path style="fill:#787C7E;" d="M1725.544,1076.282c-5.862,26.083-32.296-33.317-37.969-10.998
	c-5.383,21.273-9.666-21.972-37.275-15.686c6.034,4.609,11.735,9.581,17.179,14.857c4.058,4.202,8.04,8.561,12.951,11.807
	c14.927,9.261,30.373,17.256,45.196,26.824c0,0-0.159,0.367-0.159,0.367c-11.484-2.912-22.31-8.288-31.99-15.051
	c-4.935-3.28-9.298-7.312-13.862-11.054c-4.482-3.865-9.578-6.887-14.34-10.389c-3.11-2.431-5.897-5.233-8.583-8.116
	c-2.544-2.871-4.962-5.838-7.018-9.087c-1.166,0.293-2.368,0.664-3.617,1.141c-25.323,9.665-25.342-0.065-25.474-15.157
	c-1.012,1.713-2.338,3.518-4.021,5.471c-2.549,3.287-4.066,6.757-3.896,10.779c0.185,4.536-1.291,9.244-4.43,12.556
	c-1.201,1.313-2.556,2.422-3.951,3.438l-0.129-0.141c-0.04,0.037-0.081,0.072-0.122,0.109c-2.215,2.259-4.823,4.391-6.267,7.215
	c-0.404,0.756-0.543,1.528-0.998,2.301c-1.396,2.321-4.057,3.514-6.451,4.38c-3.927,1.287-7.923,1.969-11.97,2.344
	c23.867,12.409,43.851,30.173,62.417,46.69c16.73,14.885,32.534,28.944,48.102,35.55c36.02,15.284,89.949,21.498,100.832,16.438
	c0.938-0.437,1.075-0.764,1.076-0.767c0.001-0.005-0.007-0.85-2.308-2.658l-0.197-0.155c-19.269-15.118-25.084-19.681-42.358-80.493
	c-5.697-20.033-9.179-34.743-11.976-46.563c-5.538-23.397-8.065-34.076-19.291-48.909c-0.248-0.328-0.481-0.65-0.712-0.971
	C1724.678,1031.532,1731.047,1051.823,1725.544,1076.282z M1743.421,1161.78c0,0-0.215,0.337-0.215,0.337
	c-12.353-5.641-23.741-12.981-34.312-21.423c-7.167-5.453-13.39-12.036-20.604-17.424c-3.578-2.721-7.433-5.105-11.05-7.781
	c-3.595-2.712-6.904-5.767-10.137-8.897c-3.199-3.167-6.312-6.428-9.097-10.025l0.271-0.294
	c7.463,5.004,14.487,10.613,21.112,16.666c4.811,4.691,9.466,9.6,14.985,13.486
	C1711.131,1137.677,1728.052,1148.566,1743.421,1161.78z"/>
<path d="M239.909,1009.486c8.443,8.426,16.171,17.554,22.878,27.442c7.769,11.368,14.196,23.651,20.266,36.074
	c-10.59-25.625-24.585-50.225-44.187-70.117c0,0-1.962,1.968-2.486,2.494c-0.071,0.072-0.338,0.339-0.338,0.339
	C237.348,1006.957,238.636,1008.215,239.909,1009.486z"/>
<path d="M238.83,1073.157c16.323,30.667,31.741,59.634,71.872,73.823c49.1,17.351,107.608,20.972,111.741,21.208
	c13.114,3.683,121.534,33.4,222.665,38.465c95.783,4.796,282.691,6.86,328.966,6.86c40.95,0,65.76,7.876,94.486,16.997
	c4.341,1.378,8.784,2.789,13.401,4.211c11.977,3.68,23.998,5.497,33.712,5.497c10.685,0,18.577-2.199,20.541-6.538
	c1.045-2.309,0.864-5.941-5.938-10.13c-3.694-2.274-4.298-3.402-4.393-3.663c0.363-0.543,2.239-1.405,3.376-1.927
	c2.901-1.333,6.189-2.844,6.643-6.048c0.349-2.458-1.135-5.022-4.666-8.07c-9.563-8.269-18.243-13.614-23.488-16.496
	c16.15-3.332,64.217-12.785,99.883-15.033c20.43-1.274,44.535-0.445,67.849,0.356c26.548,0.914,54,1.857,75.714-0.362
	c37.514-3.809,52.172-31.666,67.692-61.158c1.726-3.281,3.468-6.591,5.257-9.9c1.222-2.253,2.328-4.346,3.354-6.29
	c6.605-12.5,9.62-18.206,18.882-20.978c9.768-2.923,26.5-2.633,59.833-2.057l10.201,0.174c53.245,0.879,89.609,33.23,121.692,61.773
	c16.984,15.11,33.025,29.381,49.198,36.244c17.604,7.47,42.091,13.727,65.5,16.738c11.125,1.432,37.429,4.033,41.402-2.689
	c0.975-1.649,1.199-4.353-3.269-7.864l-0.198-0.156c-18.964-14.879-24.062-18.877-40.98-78.439
	c-5.673-19.947-9.143-34.609-11.931-46.391c-5.671-23.961-8.26-34.897-19.995-50.402c-8.072-10.654-5.102-15.743-0.604-23.446
	c4.276-7.324,9.599-16.439,5.771-32.783c-5.681-24.259,10.938-59.669,25.599-90.91c4.425-9.427,8.604-18.332,12.055-26.64
	c5.194-12.505,11.428-21.554,15.979-28.161c4.621-6.707,6.94-10.074,5.153-12.817c-1.835-2.817-6.418-2.721-23.353,0.492
	c-29.797,5.654-90.258,52.32-138.838,89.817c-17,13.122-31.683,24.454-42.503,32.026c-40.143,28.089-65.38,39.387-123.227,21.695
	c-46.21-14.14-46.93-16.799-51.609-34.103c-1.114-4.122-2.502-9.253-4.747-15.46c-2.27-6.275-5.255-9.936-9.125-11.192
	c-6.532-2.12-14.157,3.051-22.985,9.038c-11.828,8.022-26.557,18.003-43.465,13.932c-22.822-5.499-81.962-23.302-134.141-39.009
	c-32.35-9.738-60.287-18.149-74.486-22.095c-18.008-5.001-26.455-22.63-34.624-39.678c-7.926-16.539-15.403-32.167-31.194-31.788
	c-12.333,0.292-36.724,6.619-64.965,13.946c-39.732,10.307-89.18,23.135-121.739,23.135c-56.496,0-256.107,23.234-347.352,55.021
	c-64.998,22.663-137.213,51.889-184.999,71.228c-18.899,7.649-33.827,13.69-43.003,17.18c-6.543,2.496-14.198,4.836-22.304,7.314
	c-22.346,6.831-45.452,13.895-49.534,25.836c-1.179,3.448-0.732,7.075,1.318,10.802c-4.158,1.881-7.012,4.862-8.499,8.886
	c-3.869,10.465,1.609,27.49,16.747,52.049C228.972,1054.634,233.983,1064.05,238.83,1073.157z M210.165,994.565
	c0.501-1.355,1.215-2.533,2.125-3.56c1.238-1.399,2.852-2.51,4.886-3.333c1.409,1.796,3.205,3.64,5.352,5.495
	c4.859,4.234,9.406,8.456,13.515,12.551l0.338-0.339l2.486-2.494c-1.309-1.304-2.676-2.624-4.067-3.95
	c-3.045-2.9-6.266-5.84-9.65-8.789c-2.397-2.073-4.284-4.091-5.617-6.015c-2.426-3.431-3.13-6.489-2.152-9.348
	c1.502-4.394,6.802-8.221,13.999-11.659c9.193-4.392,21.483-8.15,32.92-11.646c8.172-2.498,15.891-4.858,22.558-7.401
	c9.213-3.503,24.158-9.552,43.08-17.21c47.75-19.325,119.91-48.529,184.815-71.159c59.878-20.859,166.635-38.019,248.604-47.299
	c42.434-4.804,78.229-7.499,97.432-7.499c8.566,0,18.256-0.871,28.598-2.333v0.003c10.092-0.306,20.263-0.283,30.396-0.049
	c20.263,0.563,40.593,1.864,60.453,6.152c5.48,1.147,10.998,2.11,16.539,2.884c4.443,0.621,8.902,1.12,13.37,1.478
	c0.006,0,0.013,0.001,0.019,0.001c0.092,0.007,0.183,0.017,0.274,0.024c-13.742-1.347-27.069-4.865-40.536-7.652
	c-6.457-1.336-12.945-2.507-19.528-3.186c-13.366-1.634-26.768-2.638-40.205-3.174c10.16-1.961,20.624-4.281,31.038-6.754
	c14.542-3.453,28.979-7.196,42.326-10.659c23.71-6.151,44.678-11.59,57.757-13.284c2.367-0.307,4.479-0.492,6.299-0.535
	c0.147-0.004,0.293-0.005,0.438-0.005c4.955,0,8.973,2.023,12.475,5.406c5.62,5.428,9.907,14.365,14.58,24.117
	c6.063,12.652,12.731,26.554,23.866,35.114c-5.005-0.729-10.009-1.542-14.984-2.442c-9.283-1.699-18.533-3.742-27.612-6.308
	c-3.962-1.191-8.089-2.454-11.92-3.986l-2.92-1.159c-5.835-2.545-12.123-4.106-18.451-4.609c-4.209-0.387-8.419-0.544-12.621-0.884
	c0.062,0.007,0.124,0.014,0.186,0.021c8.255,0.975,16.74,1.292,24.594,4.197c2.858,0.99,5.896,2.5,8.688,3.704
	c3.818,1.705,7.929,3.142,11.889,4.506c17.051,5.518,34.545,9.299,52.229,12.198c1.354,0.552,2.754,1.043,4.219,1.45
	c14.157,3.935,42.076,12.34,74.403,22.071c52.229,15.723,111.426,33.543,134.357,39.067c1.143,0.275,2.272,0.492,3.392,0.658
	c3.673,0.545,7.218,0.519,10.64,0.072c0.825,0.132,16.841,2.696,16.841,2.696c5.06,0.82,12.305,1.949,17.282,2.786
	c-0.035-0.01-0.074-0.021-0.109-0.031c-7.31-2.084-17.321-4.871-25.974-7.29c2.406-0.78,4.742-1.734,7.009-2.806
	c4.037-1.91,7.855-4.189,11.453-6.516c2.113-1.367,4.151-2.748,6.113-4.079c5.473-3.712,10.431-7.075,14.514-8.322
	c1.855-0.567,3.53-0.696,4.991-0.223c2.618,0.85,4.777,3.712,6.599,8.748c0.505,1.396,0.958,2.721,1.378,3.995
	c1.4,4.249,2.383,7.871,3.27,11.15c1.553,5.74,2.838,10.066,5.178,13.71c-4.728-1.113-9.421-2.307-14.066-3.811
	c-6.673-1.916-13.438-3.267-20.21-4.498c-0.048-0.009-0.097-0.018-0.145-0.027c6.668,1.887,13.312,3.893,19.71,6.419
	c6.255,2.716,12.788,4.886,19.263,7.032c4.686,3.915,12.069,7.343,24.724,11.695c5.537,1.905,12.076,3.985,19.848,6.363
	c19.531,5.973,35.44,8.738,49.467,8.737c23.57-0.001,41.812-7.817,62.906-21.333c7.551-3.147,20.167-8.06,27.904-4.491
	c3.056,1.485,4.01,5.098,3.809,8.306c0.017-0.129,0.018-0.244,0.031-0.37c1.283-11.857-11.077-12.044-21.816-10.051
	c1.445-0.993,2.905-2.003,4.389-3.041c10.897-7.625,25.613-18.984,42.653-32.136c37.504-28.947,86.377-66.667,118.651-82.293
	c7.051-3.414,13.314-5.779,18.489-6.761c4.687-0.889,16.923-3.211,19.177-2.228c-0.164,1.309-2.735,5.042-5.018,8.354
	c-4.39,6.373-11.024,16.003-16.379,28.896c-3.417,8.225-7.577,17.09-11.981,26.475c-5.577,11.882-11.431,24.356-16.266,36.657
	c-8.118,20.651-13.366,40.813-9.607,56.864c3.464,14.792-1.209,22.794-5.331,29.854c-0.973,1.666-1.934,3.313-2.748,4.998
	c-1.017,2.105-1.8,4.271-2.094,6.609c-0.537,4.285,0.587,9.153,5,15.3c0.23,0.321,0.464,0.643,0.712,0.971
	c11.226,14.832,13.753,25.511,19.291,48.909c2.797,11.82,6.278,26.53,11.976,46.563c17.274,60.812,23.09,65.375,42.358,80.493
	l0.197,0.155c2.301,1.809,2.309,2.653,2.308,2.658c-0.001,0.003-0.138,0.331-1.076,0.767c-10.883,5.06-64.813-1.154-100.832-16.438
	c-15.567-6.606-31.371-20.665-48.102-35.55c-18.566-16.518-38.55-34.282-62.417-46.69c4.047-0.375,8.043-1.056,11.97-2.344
	c2.395-0.865,5.056-2.059,6.451-4.38c0.455-0.773,0.594-1.545,0.998-2.301c1.443-2.824,4.052-4.956,6.267-7.215
	c0.038-0.039,0.078-0.077,0.116-0.116c-1.272,1.049-2.585,2.04-3.845,3.12c-1.254,1.08-2.48,2.252-3.408,3.717
	c-0.778,1.384-1.322,2.788-2.816,3.586c-4.136,2.349-9.181,2.511-13.886,2.71c-3.01,0.055-6.075-0.052-9.041-0.304
	c-16.205-7.414-34.194-12.23-54.674-12.568l-10.198-0.174c-38.525-0.667-55.355-0.956-65.339,3.899
	c-0.402,0.089-27.91,6.161-27.91,6.161c-4.658,1.036-9.315,1.823-14.026,2.082c-3.63,0.326-7.278-0.265-10.961,0.424
	c-15.162,4.522-28.576,13.713-39.282,25.245c-3.264,3.383-6.213,7.039-9.706,10.176c-0.084,0.076-0.16,0.159-0.245,0.234
	c3.715-3.06,6.865-6.731,10.306-10.058c10.743-10.809,23.89-19.228,38.603-23.333c3.668-0.86,7.567,0.062,11.38-0.19
	c7.92-0.041,23.502-3.239,34.791-5.406c-3.402,3.754-6.217,8.904-9.93,15.93c-1.021,1.933-2.12,4.013-3.336,6.254
	c-0.114,0.211-0.225,0.422-0.339,0.633c-1.677,3.113-3.317,6.224-4.94,9.309c-1.755,3.335-3.483,6.615-5.219,9.823
	c-11.084,20.489-22.464,37.852-42.921,45.483c-4.912,1.833-10.336,3.117-16.418,3.735c-17.44,1.783-38.763,1.495-60.327,0.836
	c-4.95-0.151-9.913-0.322-14.845-0.491c-7.349-0.253-14.776-0.508-22.146-0.7c11.654-6.129,23.027-12.796,33.663-20.547
	c13.048-8.642,28.049-14.129,41.028-23.016c3.729-2.521,7.307-5.261,10.65-8.262c-0.194,0.165-0.396,0.317-0.592,0.48
	c-13.756,11.417-30.659,17.408-46.417,25.522c-4.001,2.029-7.82,4.659-11.554,7.076c-11.194,7.032-23.104,13.032-35.091,18.562
	c-13.213-0.243-26.072-0.196-37.778,0.535c-43.586,2.748-105.412,16.148-106.031,16.284l-0.019,0.004
	c-10.961,1.533-21.605,4.137-32.186,7.26c-3.524,1.071-7.025,2.207-10.503,3.396c0.037-0.009,0.074-0.017,0.111-0.026
	c13.968-3.393,28.298-5.9,42.646-6.651c2.336,1.099,14.035,6.878,27.223,18.282c3.271,2.823,3.369,4.145,3.321,4.482
	c-0.147,1.043-2.578,2.159-4.353,2.975c-2.728,1.253-5.549,2.549-5.715,5.298c-0.142,2.333,1.744,4.527,6.305,7.333
	c3.226,1.987,4.908,3.931,4.391,5.075c-0.323,0.715-1.195,1.388-2.529,1.978c-1.681,0.743-4.108,1.349-7.171,1.726
	c-8.918,1.097-23.169,0.253-39.733-4.836c-4.604-1.419-9.036-2.826-13.366-4.201c-10.232-3.249-19.977-6.339-30.12-8.983
	c-3.212-0.837-6.464-1.629-9.784-2.367c-9.051-2.01-18.619-3.613-29.266-4.627c2.117-0.59,4.233-1.181,6.355-1.742
	c5.73-1.499,11.49-2.958,17.283-3.953c2.933-0.476,5.912-1.004,8.818-1.753c5.915-1.482,19.116-5.984,25.327-7.927
	c0.082-0.026,0.177-0.056,0.257-0.081c-6.026,1.519-19.984,5.407-25.911,6.544c-2.893,0.574-5.802,0.923-8.762,1.235
	c-11.804,1.465-23.284,4.143-34.837,6.841c-4.783-0.242-9.787-0.372-15.059-0.372c-46.25,0-233.053-2.063-328.767-6.855
	c-93.891-4.702-194.135-30.758-217.848-37.233c9.64-6.706,18.622-14.211,27.024-22.406c2.131-2.055,4.178-4.195,6.185-6.365
	c0.962-1.04,1.918-2.084,2.864-3.135c-0.892,0.857-1.811,1.688-2.72,2.53c-11.683,10.819-24.693,20.302-38.526,28.122
	c-6.32-0.38-62.777-4.186-110.253-20.963c-29.475-10.421-44.829-28.593-57.836-50.491c-4.055-6.826-7.884-14.01-11.838-21.44
	c-2.164-4.065-4.366-8.195-6.653-12.359c-2.868-5.221-5.874-10.499-9.143-15.792C212.315,1020.01,206.798,1003.672,210.165,994.565z
	"/>
<path d="M296.108,981.655c-1.396-0.879-2.925-1.495-4.554-1.778c-5.886-1.02-11.698,2.296-15.543,8.88
	c-4.231,7.244-1.934,11.43-0.188,13.281c2.438,2.584,6.516,3.716,10.77,3.716c3.739,0,7.615-0.875,10.631-2.409
	c4.681-2.38,6.929-6.087,6.166-10.171c-0.629-3.369-2.022-6.31-3.939-8.585C298.467,983.421,297.343,982.432,296.108,981.655z
	 M297.058,992.801c0.028,0.62-0.571,1.512-1.686,2.512c-3.226,2.889-11.879,3.991-14.242,1.814
	c-1.183-1.089,0.357-3.516,1.379-4.866h0.001c2.489-3.287,4.905-5.205,6.803-5.4c0.105-0.011,0.208-0.016,0.311-0.016
	c0.712,0,1.352,0.267,1.992,0.825c0.649,0.566,1.374,1.104,2.075,1.625C295.169,990.393,297.01,991.761,297.058,992.801z"/>
<path d="M463.68,1133.657c6.562-5.812,12.411-12.48,17.331-19.847c4.892-7.406,8.797-15.632,10.578-24.388
	c0.844-3.742,1.088-9.348,1.38-13.184l0.895-13.084c0.324-4.631,0.692-9.273,1.001-13.922c0.563-8.483,0.923-16.988,0.411-25.488
	c-1.204-17.645-6.294-35.703-17.825-49.503c-0.013-0.016-0.026-0.031-0.039-0.047c-7.739-9.549-18.146-16.871-29.323-21.739
	c-0.91-0.396-1.824-0.782-2.743-1.146c0,0-0.174,0.36-0.174,0.36c15.048,8.541,25.773,18.885,33.244,30.918
	c10.562,17.012,14.607,37.405,15.065,60.899c0.12,5.214-0.109,10.439-0.561,15.654c-0.676,7.818-1.862,15.611-3.219,23.299
	c-0.335,1.79-0.869,4.531-1.357,6.237c-1.268,4.933-3.022,9.657-5.126,14.216c-5.068,10.982-12.215,20.985-19.828,30.488
	L463.68,1133.657z"/>
<path d="M502.618,1123.256c-1.41,6.675,7.466,13.442,19.749,22.807c5.617,4.282,11.983,9.135,17.841,14.423
	c21.858,19.733,59.688,21.9,91.327,21.9c4.651,0,9.169-0.047,13.482-0.092l0.907-0.009c19.84-0.205,30.812-2.685,43.516-5.556
	c8.518-1.926,18.172-4.108,31.885-5.787c12.919-1.582,20.433-6.555,20.614-13.642c0.275-10.755-18.167-24.88-59.99-32.193
	c-10.085-1.763-19.804-3.585-29.202-5.348c-3.363-0.631-6.692-1.254-9.994-1.867c-44.28-8.22-83.306-14.354-123.298-4.774
	c-0.479,0.115-0.936,0.232-1.394,0.35C508.306,1115.965,503.516,1119.007,502.618,1123.256z M506.531,1124.082
	c0.382-1.805,3.095-4.498,13.855-7.076c6.732-1.612,13.396-2.773,20.047-3.556c17.982-2.116,35.863-1.433,54.7,0.802
	c17.806,2.113,36.466,5.61,56.876,9.437c0.934,0.175,1.888,0.353,2.828,0.53c8.534,1.599,17.317,3.235,26.422,4.827
	c41.928,7.332,56.868,20.852,56.682,28.15c-0.124,4.824-6.518,8.478-17.102,9.774c-13.912,1.704-23.671,3.909-32.28,5.855
	c-12.482,2.821-23.261,5.258-42.675,5.458l-0.907,0.009c-4.799,0.05-9.86,0.1-15.072,0.087
	c-30.617-0.077-66.583-2.417-87.017-20.864c-5.979-5.399-12.416-10.306-18.095-14.635
	C514.945,1135.375,505.645,1128.284,506.531,1124.082z"/>
<path d="M684.125,1157.215c5.135-0.333,10.626-1.307,15.669-2.421c5.155-1.184,10.289-2.575,15.167-4.742l-0.116-0.383
	l-15.598,2.073c-5.173,0.725-10.359,1.292-15.516,2.159c-4.493,0.782-11.032,2.088-15.54,2.463
	c-6.675,0.703-13.398,0.413-20.091,0.053c-1.165-0.063-2.33-0.126-3.493-0.188c-9.849-0.394-19.704-1.025-29.56-1.467
	c-3.21-0.144-6.42-0.27-9.63-0.359c-5.24-0.193-10.478-0.497-15.785-0.406l-0.053,0.396c3.849,0.967,7.731,1.759,11.63,2.488
	c6.96,1.238,14.011,2.065,21.082,2.485c4.799,0.285,9.608,0.388,14.406,0.283c5.369,0.046,10.724-0.366,16.075-0.835
	c5.169-0.453,10.335-0.961,15.506-1.163C672.896,1157.492,679.597,1157.545,684.125,1157.215z"/>
<path d="M655.173,1146.986c-22.01-2.2-44.516-5.631-66.862-8.815c-11.89-1.694-23.735-3.32-35.435-4.652
	c11.53,3.501,23.273,6.147,35.11,8.302c5.147,0.937,10.312,1.792,15.486,2.567C620.562,1146.718,637.92,1148.45,655.173,1146.986z"
	/>
<path d="M659.292,1129.479c-14.73-2.893-29.984-5.12-45.247-7.188c-13.641-1.848-27.288-3.57-40.572-5.513
	c13.635,5.148,28.049,7.677,42.405,9.812c2.03,0.272,4.063,0.525,6.098,0.767C634.358,1128.829,646.816,1129.713,659.292,1129.479z"
	/>
<path d="M1618.883,964.668c-1.768,6.553-4.716,12.541-7.554,18.746c-3.104,6.491-4.742,13.727-1.632,20.634
	c3.203,8.858,13.654,16.807,9.525,26.969c-1.198,2.764-3.489,5.213-5.526,8.114c-2.146,2.919-3.902,6.525-4.023,10.263
	c-0.123,1.75,0.226,3.453,0.212,5.182c0.111,5.042-2.523,9.479-5.869,13.114l0.141,0.155l0.129,0.141
	c1.396-1.017,2.75-2.126,3.951-3.438c3.139-3.312,4.614-8.02,4.43-12.556c-0.17-4.022,1.348-7.492,3.896-10.779
	c1.683-1.952,3.009-3.758,4.021-5.471c4.819-8.165,2.302-14.171-4.759-23.337c-7.145-9.829-7.917-17.045-1.613-27.575
	c2.957-5.322,5.82-10.89,7.896-16.7c0.267-0.747,0.524-1.496,0.764-2.25c2.8-7.75,1.309-15.569-5.608-20.549
	c-7.059-5.509-18.737-8.028-20.141-17.668c-0.11-0.76-0.165-1.559-0.141-2.412c0,0-0.094-0.01-0.187-0.02
	c-0.104-0.011-0.211-0.022-0.211-0.022c-0.323,1.707-0.405,3.5-0.078,5.285c0.97,5.477,5.768,9.198,10.11,12.093
	c0.643,0.442,1.308,0.88,1.981,1.321c4.69,3.067,9.822,6.255,11.055,11.731c0.083,0.389,0.145,0.778,0.189,1.167
	C1620.145,959.423,1619.634,962.047,1618.883,964.668z"/>
<path d="M1738.479,830.449c-2.545,0.761-5.053,1.617-7.526,2.551c-18.066,6.82-34.253,18.046-48.585,30.884
	c-5.5,4.815-11.601,8.852-17.323,13.395c-7.387,6.358-13.968,13.707-19.329,21.853l0.3,0.264c3.769-3.091,7.299-6.382,10.834-9.697
	c3.545-3.268,7.103-6.495,10.452-9.962c3.381-3.436,6.615-7.065,10.234-10.27c7.284-6.388,15.873-10.975,23.97-16.201
	c9.948-6.008,19.895-11.948,29.846-18.001c2.431-1.478,4.861-2.957,7.293-4.452C1738.645,830.814,1738.479,830.449,1738.479,830.449
	z"/>
<path d="M1690.862,931.648c7.146-3.036,14.325-5.526,21.62-8.39c-15.551-0.239-32.019,6.686-42.762,17.922
	C1676.873,937.978,1683.683,934.607,1690.862,931.648z"/>
<path d="M1691.379,973.745c-7.815-0.025-15.446,1.156-23.058,2.665c-7.593,1.602-15.075,3.506-22.259,6.583
	c7.814,0.016,15.445-1.163,23.058-2.665C1676.715,978.733,1684.197,976.83,1691.379,973.745z"/>
<path d="M1653.743,1005.796c9.546,3.469,19.594,4.832,29.677,5.333c3.356,0.24,6.646-0.325,9.975,0.439
	c-2.619-2.305-6.337-2.718-9.58-3.56C1673.924,1005.988,1663.853,1004.81,1653.743,1005.796z"/>
<path d="M1665.274,1066.96c4.762,3.502,9.857,6.524,14.34,10.389c4.564,3.741,8.928,7.774,13.862,11.054
	c9.681,6.763,20.506,12.139,31.99,15.051c0,0,0.159-0.367,0.159-0.367c-14.823-9.568-30.27-17.563-45.196-26.824
	c-4.911-3.246-8.894-7.604-12.951-11.807c-5.443-5.276-11.145-10.248-17.179-14.857c-0.181-0.138-0.355-0.284-0.537-0.421
	l-0.295,0.271c0.065,0.105,0.14,0.205,0.206,0.31c2.056,3.249,4.474,6.216,7.018,9.087
	C1659.377,1061.728,1662.164,1064.529,1665.274,1066.96z"/>
<path d="M1679.391,1112.938c-6.625-6.052-13.649-11.662-21.112-16.666l-0.271,0.294c2.785,3.597,5.897,6.859,9.097,10.025
	c3.232,3.131,6.542,6.185,10.137,8.897c3.617,2.677,7.472,5.06,11.05,7.781c7.215,5.388,13.438,11.971,20.604,17.424
	c10.57,8.442,21.959,15.782,34.312,21.423c0,0,0.215-0.338,0.215-0.337c-15.369-13.214-32.29-24.103-49.045-35.356
	C1688.856,1122.537,1684.201,1117.628,1679.391,1112.938z"/>
</svg>
