<?xml version="1.0" encoding="utf-8"?>
<!-- Generator: Adobe Illustrator 27.5.0, SVG Export Plug-In . SVG Version: 6.00 Build 0)  -->
<svg version="1.1" id="Ñëîé_1" xmlns="http://www.w3.org/2000/svg" xmlns:xlink="http://www.w3.org/1999/xlink" x="0px" y="0px"
	 viewBox="0 0 2000 1500" style="enable-background:new 0 0 2000 1500;" xml:space="preserve">
<g>
	<path style="fill:#870606;" d="M958.836,612.286c-10.621-16.859-24.628-26.343-44.281-29.717
		c-12.862-2.209-39.989-6.192-43.841,11.532c-21.907-10.598-47.564-17.362-71.444-9.385c-1.513,0.505-6.862,3.521-8.326,3.438
		c-1.899-0.109-5.892-3.789-7.68-4.805c-5.026-2.856-10.266-5.326-15.558-7.643c-10.239-4.484-20.725-8.694-31.419-11.95
		c-25.393-7.732-52.382-10.314-78.759-7.215c-21.211,2.492-51.555,7.586-63.466,27.826c31.968,2.013,64.159,3.089,96.042,6.164
		c14.778,1.425,28.661,5.013,40.425,14.454c4.82,3.869,9.084,8.413,12.786,13.356c1.835,2.45,3.525,5.01,5.089,7.641
		c2.71,4.56,3.412,5.106-0.176,9.029c-18.14,19.825-45.244,27.715-69.874,36.111c-30.364,10.351-61.272,20.216-93.379,23.168
		c2.347,13.062,29.252,18.036,39.503,21.097c15.381,4.593,31.156,7.868,47.065,9.977c32.558,4.317,65.636,3.838,98.227,0.117
		c33.14-3.784,66.738-10.19,98.458-20.65c14.628-4.824,30.452-10.826,42.419-20.827c2.653-2.218,4.562-5.424,7.158-7.547
		c2.913-2.382,0.308-1.583,3.952-0.979c5.074,0.841,9.124,2.112,14.448,1.536c12.975-1.404,27.583-8.206,32.084-21.335
		C973.243,641.226,966.532,624.502,958.836,612.286z"/>
	<path style="fill:#EF3C18;" d="M913.602,611.7c-101.086-47.861-214.124-63.098-322.365-30.348
		c-99.634,30.146-183.061,99.937-234.855,189.751c-29.088,50.44-48.16,105.929-54.141,163.924c-0.145,1.41-2.353,1.448-2.237,0
		c8.364-104.357,55.764-202.579,132.285-274.07c81.421-76.069,192.449-114.619,303.484-108.78
		c63.341,3.331,127.149,19.835,181.113,53.905C920.472,608.345,917.354,613.477,913.602,611.7z"/>
	<path style="fill:#EF3C18;" d="M926.739,551.952c-110.286-18.599-223.213-2.555-318.486,58.369
		c-87.697,56.079-149.028,145.91-174.474,246.417c-14.291,56.445-17.571,115.029-7.572,172.467c0.243,1.396-1.871,2.033-2.153,0.608
		c-20.301-102.705-1.367-210.11,52.855-299.7c57.694-95.327,154.073-162.591,262.518-187.136
		c61.864-14.002,127.756-15.453,188.945,2.675C932.439,546.857,930.833,552.642,926.739,551.952z"/>
	<path style="fill:#870606;" d="M1256.603,668.428c1.936,0.14,3.975,0.442,5.48,1.667c2.836,2.308,2.542,6.612,2.409,10.266
		c-0.543,14.932,6.404,29.951,18.135,39.206c11.731,9.255,27.953,12.517,42.35,8.515c4.416-1.228,9.366-3.04,13.325-0.73
		c2.688,1.568,4.062,4.61,5.737,7.232c10.36,16.211,33.959,17.464,52.332,11.757c4.958-1.54,10.286-3.456,15.187-1.742
		c2.718,0.951,4.934,2.917,7.263,4.61c23.489,17.076,60.433,3.244,72.62-23.115c12.187-26.359,3.087-58.967-16.155-80.717
		c-19.242-21.75-46.826-34.305-74.584-42.836c-34.466-10.593-70.926-15.932-106.75-11.835c-19.148,2.19-38.706,7.428-53.336,19.975
		c-11.009,9.442-21.995,28.048-18.719,43.329C1225.657,671.552,1241.722,667.35,1256.603,668.428z"/>
	<path style="fill:#A51700;" d="M1600.371,561.759c15.256-2.397,32.645,2.36,41.005,15.344c4.11,6.384,5.916,14.404,11.587,19.452
		c3.722,3.313,8.625,4.882,13.13,7.009c24.94,11.773,37.484,44.551,26.776,69.967c-1.981,4.701-4.644,9.177-5.697,14.169
		c-3.972,18.829,15.318,40.35,3.842,55.797c-4.162,5.602-11.599,8.522-14.536,14.852c-5.152,11.105,6.413,22.04,13.256,32.189
		c6.217,9.221,8.862,20.423,9.873,31.497c1.507,16.512-1.033,34.712-12.81,46.383c-16.793,16.642-46.435,12.817-64.574-2.346
		c-18.14-15.163-27.272-38.349-34.399-60.891c-9.588-30.329-16.881-61.658-17.618-93.458c-0.413-17.828,0.398-35.207-8.514-51.277
		c-7.109-12.82-16.375-21.214-14.56-36.791C1550.429,595.378,1571.173,566.346,1600.371,561.759z"/>
	<path style="opacity:0.2;" d="M1689.735,790.54c-6.844-10.15-18.408-21.085-13.256-32.19c2.937-6.331,10.374-9.25,14.536-14.852
		c11.476-15.447-7.814-36.968-3.842-55.797c1.053-4.992,3.717-9.468,5.697-14.169c10.708-25.416-1.836-58.194-26.776-69.967
		c-4.506-2.127-9.409-3.696-13.13-7.009c-5.671-5.048-7.477-13.068-11.587-19.452c-8.36-12.984-25.749-17.742-41.005-15.344
		c-29.198,4.587-49.943,33.62-53.238,61.899c-0.142,1.216-0.194,2.375-0.207,3.509c0.953,0.858,1.942,1.673,2.966,2.444
		c-0.967-0.01-1.935-0.014-2.902,0.031c0.827,11.952,8.562,19.732,14.703,30.806c8.912,16.07,8.101,33.449,8.514,51.277
		c0.737,31.8,8.03,63.129,17.618,93.458c7.126,22.542,16.259,45.728,34.399,60.891c18.14,15.162,47.782,18.988,64.574,2.346
		c11.777-11.671,14.316-29.871,12.81-46.383C1698.597,810.962,1695.951,799.76,1689.735,790.54z M1670,729.265
		c-6.712,7.526-19.2,5.687-27.854,0.51c-8.654-5.177-15.761-12.986-25.155-16.651c17.239,25.086,31.712,52.072,43.047,80.32
		c4.059,10.117,7.774,20.768,7.038,31.645c-0.736,10.877-6.995,22.07-17.363,25.441c-16.503,5.365-32.046-10.486-40.291-25.756
		c-16.663-30.861-23.414-65.761-26.461-100.386c-1.369-15.556-4.142-33.2-0.981-48.593c2.976-14.495,9.99-24.035-3.665-35.959
		c-5.007-4.372-10.978-7.299-17.33-8.876c6.985-20.231,20.941-38.011,38.999-49.517c6.481-4.13,14.674-7.52,21.651-4.297
		c11.486,5.306,9.132,23.191,0.589,32.524c-8.543,9.333-20.988,14.874-28.011,25.398c15.274-9.212,32-18.769,49.734-16.856
		c17.734,1.913,34.123,21.583,25.775,37.346c-4.452,8.406-14.355,12.769-23.858,13.184c-9.503,0.415-18.808-2.455-27.886-5.294
		c24.381,9.47,52.454,23.392,55.93,49.316C1674.681,718.545,1673.883,724.911,1670,729.265z"/>
	<path style="fill:#BF2202;" d="M1319.779,515.617c12.018,3.286,23.845,7.228,35.665,11.167
		c25.143,8.38,50.388,16.803,74.066,28.708c31.765,15.971,60.611,38.15,94.346,49.375c15.633,5.202,32.369,8.085,46.235,16.983
		c17.607,11.3,28.611,32.194,27.968,53.105c-0.203,6.603-1.774,13.687-6.756,18.025c-5.032,4.381-12.562,5.097-17.374,9.72
		c-6.745,6.481-5.401,17.368-7.621,26.455c-2.338,9.571-9.883,18.169-19.57,19.968c-9.687,1.799-20.692-4.686-22.267-14.412
		c-1.8,9.692-8.005,18.888-17.155,22.559c-9.15,3.67-21.019,0.594-25.904-7.969c-3.607-6.323-3.467-14.896-9.016-19.608
		c-2.889,15.229-18.002,27.136-33.484,26.383s-29.367-14.072-30.764-29.509c-3.122-1.255-6,2.065-8.077,4.713
		c-7.13,9.096-19.344,14.717-30.545,11.873c-11.201-2.845-19.604-15.516-15.899-26.463c-12.735-0.984-24.79,6.615-37.563,6.595
		c-15.799-0.024-29.69-12.14-36.009-26.62c-6.319-14.48-6.384-30.886-5.006-46.625c-4.941-5.483-13.717-0.852-21.044,0.042
		c-9.298,1.134-18.165-4.749-24.074-12.017c-12.667-15.578-15.242-36.786-17.323-56.756c-2.404-23.066-5.661-60.824,19.909-73.258
		C1256.462,496.407,1296.218,509.175,1319.779,515.617z"/>
	<g style="opacity:0.2;">
		<g>
			<path d="M1448.083,565.573c-6.118-3.514-12.288-6.921-18.573-10.082c-0.158-0.08-0.321-0.151-0.479-0.231
				c0.757,2.311,1.444,4.651,1.961,7.056c2.581,12.004,3.238,24.366,2.131,36.589c-2.455,27.101-13.902,50.937-31.875,71.09
				c-2.617,2.935-3.29,8.042,0,10.893c21.867,18.949,5.662,38.755-7.285,56.4c2.283-1.745,4.353-3.769,6.11-6.01
				c2.076-2.648,4.955-5.968,8.077-4.713c0.314,3.468,1.287,6.817,2.738,9.953c14.144-16.242,17.236-41.947,5.698-60.522
				c17.765-19.959,28.464-45.425,31.679-71.925C1449.637,592.75,1449.875,579.021,1448.083,565.573z"/>
			<path d="M1477.307,611.292c0.089,24.351-7.026,47.328-19.766,67.946c-1.238,2.003-1.198,4.732,0,6.739
				c9.704,16.256,12.628,37.275,8.975,56.666c2.902-3.81,4.983-8.219,5.881-12.951c2.371,2.013,3.685,4.744,4.714,7.69
				c1.354-5.752,2.083-11.822,1.922-18.518c-0.237-9.876-2.683-18.614-5.234-28.064c-3.028-11.219,1.792-14.855,6.464-26.059
				c8.008-19.202,13.62-48.563,10.482-74.515c-6.37-3.398-12.652-6.996-18.904-10.671
				C1474.663,589.765,1477.266,600.062,1477.307,611.292z"/>
			<path d="M1519.924,603.469c3.02,7.006,5.549,14.255,6.089,22.768c1.245,19.61-4.344,38.914-16.435,54.445
				c-3.224,4.142-2.678,8.622,1.52,11.798c15.549,11.764,18.1,29.016,14.56,46.072c1.188,2.602,3.067,4.862,5.382,6.63
				c7.495-20,7.704-41.274-6.777-59.767c11.356-17.561,16.957-38.134,15.505-59.179c-0.367-5.316-1.175-11.305-2.533-17.34
				c-4.488-1.283-8.978-2.566-13.38-4.03C1522.533,604.427,1521.232,603.942,1519.924,603.469z"/>
			<path d="M1335.285,597.738c12.737-20.131,15.866-44.982,11.344-68.1c-0.388-1.987-0.863-4.08-1.417-6.24
				c-6.033-1.98-12.085-3.901-18.173-5.697c1.355,3.499,2.57,7.051,3.472,10.678c4.923,19.792,3.243,41.516-7.253,59.282
				c-5.349,9.053-12.318,14.917-20.786,20.785c-5.255,3.641-6.114,3.205-8.005,8.806c-4.263,12.626-6.119,21.958-18.522,29.352
				c-1.051,0.626-2.131,1.18-3.227,1.693c0.842,0.41,1.628,0.967,2.33,1.746c-0.337,3.847-0.582,7.734-0.677,11.623
				c9.882-3.344,18.91-10.66,24.839-18.903c4.766-6.626,6.132-15.641,10.969-21.129
				C1317.914,612.858,1328.508,608.448,1335.285,597.738z"/>
			<path d="M1290.33,578.213c6.967-23.442,6.302-47.814-0.543-70.508c-5.318-1.206-10.763-2.257-16.201-3.035
				c5.678,14.111,8.25,29.429,7.491,45.048c-1.099,22.593-16.639,82.394-50.787,65.235c-1.783-0.896-4.448,1.091-3.028,3.028
				C1251.833,651.512,1283.796,600.196,1290.33,578.213z"/>
			<path d="M1395.654,540.828c-6.143-2.334-12.332-4.56-18.547-6.715c4.493,11.453,7.057,23.695,7.591,35.956
				c1.258,28.825-9.697,56.367-28.765,77.656c-2.144,2.394-2.965,6.095-1.157,8.966c10.132,16.09,7.507,36.564-3.969,51.295
				c-3.158,4.053-6.823,7.34-10.767,10.244c4.484-1.119,8.991-1.897,13.587-1.542c-0.709,2.094-0.968,4.252-0.856,6.392
				c4.141-3.714,7.765-8.081,10.707-12.773c10.936-17.439,10.365-36.489,5.768-55.584c18.755-23.264,30.339-51.374,30.291-81.632
				C1399.523,563.852,1398.351,552.314,1395.654,540.828z"/>
		</g>
	</g>
	<path style="opacity:0.4;" d="M1591.303,692.98c3.021-2.63,4.774-6.275,5.742-10.205c-14.102,12.495-34.204,18.572-52.385,13.18
		c-14.456-4.287-28.044-14.594-42.945-12.294c-4.908,0.758-9.518,2.876-14.407,3.746c-9.275,1.651-19.28-1.58-25.836-8.344
		c-16.363,10.294-40.391,5.578-51.649-10.136c-9.708,1.154-19.865,1.863-28.971-1.692c-9.106-3.555-16.791-12.573-15.698-22.288
		c-23.378,6.635-50.657-9.428-56.194-33.09c-15.992,11.143-39.783,9.218-53.776-4.35c-14.176,1.853-28.281-6.883-35.874-18.997
		c-4.13-6.589-6.552-13.305-7.85-20.101c0.312,4.589,0.738,8.969,1.148,12.902c2.081,19.97,4.656,41.178,17.323,56.756
		c5.909,7.268,14.776,13.151,24.075,12.017c7.326-0.894,16.103-5.525,21.043-0.041c-1.378,15.738-1.313,32.144,5.006,46.624
		c6.32,14.48,20.211,26.595,36.009,26.62c12.773,0.019,24.828-7.579,37.564-6.595c-3.705,10.947,4.698,23.618,15.899,26.463
		c11.201,2.844,23.415-2.777,30.545-11.873c2.076-2.648,4.955-5.968,8.077-4.713c1.397,15.437,15.282,28.756,30.764,29.509
		s30.595-11.154,33.484-26.383c5.549,4.712,5.409,13.285,9.016,19.608c4.885,8.563,16.754,11.64,25.904,7.969
		c9.149-3.671,15.354-12.866,17.155-22.559c1.575,9.726,12.58,16.211,22.267,14.412c9.687-1.799,17.232-10.397,19.57-19.968
		c2.22-9.087,0.876-19.975,7.621-26.455C1578.74,698.077,1586.27,697.361,1591.303,692.98z"/>
	<path style="fill:#A51700;" d="M771.198,532.094c-17.759,4.062-36.301,8.824-49.649,21.222c30.63,1.225,61.051,7.52,89.651,18.552
		c-15.111,1.573-29.885,6.313-43.091,13.825c36.071,6.12,65.508,31.783,99.65,44.931c10.855,4.18,22.455,7.111,34.046,6.137
		c11.591-0.974,23.209-6.307,29.77-15.912c7.293-10.677,7.354-24.816,4.462-37.418c-6.2-27.024-30.47-60.317-58.658-67.929
		C846.388,507.134,801.33,525.202,771.198,532.094z"/>
	<path style="fill:#DA2F06;" d="M724.668,544.745c61.138-31.237,129.526-44.764,196.904-57.949
		c37.068-7.253,78.853-13.602,109.794,8.061c64.258-37.215,150.044-33.333,210.679,9.532c-8.643,32.006-9.47,61.531,1.042,92.972
		c7.117,21.286,18.652,42.718,14.817,64.833c-5.598,32.274-40.532,49.855-72.055,58.756c-27.833,7.859-56.451,12.941-85.288,15.146
		c-28.845,2.205-61.491,0.016-80.914-21.424c-5.221-5.764-9.215-12.692-15.245-17.603c-19.031-15.497-47.029-4.621-71.563-5.297
		c-34.092-0.94-65.342-29.27-69.61-63.107c-2.899-22.984,3.827-50.656-13.358-66.193c-9.749-8.814-24.002-10.035-37.139-10.382
		C782.767,551.302,754.419,541.077,724.668,544.745z"/>
	<path style="opacity:0.4;" d="M1019.648,714.673c19.423,21.44,52.069,23.629,80.914,21.424
		c28.838-2.205,57.455-7.287,85.288-15.146c31.523-8.901,66.457-26.482,72.055-58.756c3.836-22.115-7.699-43.547-14.817-64.833
		c-10.512-31.441-9.685-60.967-1.042-92.972c-60.635-42.866-146.421-46.747-210.679-9.532
		c-13.792-9.656-29.741-13.738-46.464-14.664c20.289,10.953,34.83,34.186,57.79,36.108c17.922,1.5,33.592-10.807,49.808-18.584
		c34.567-16.577,78.264-12.078,108.728,11.195c7.552,5.769,14.524,12.906,17.589,21.901c2.695,7.91,2.135,16.544,0.898,24.808
		c-4.587,30.632-18.622,60.312-41.714,80.954c-23.091,20.643-55.562,31.386-85.967,25.484c-4.756-0.923-9.61-2.322-13.273-5.493
		c-4.657-4.032-6.664-10.248-8.465-16.139c-5.231-17.111-10.462-34.222-15.693-51.333c-3.067-10.03-11.011-22.577-20.659-18.461
		c-7.477,3.189-7.618,13.443-7.918,21.566c-0.883,23.919-20.352,49.778-43.915,45.568c-15.135-2.704-25.712-16.501-32.365-30.362
		c-6.654-13.861-11.176-29.142-21.358-40.663c-17.158-19.416-45.845-23.289-71.743-22.463c-25.898,0.826-52.602,4.943-77.176-3.276
		c-5.297-1.771-11.396-5.888-10.156-11.334c0.665-2.922,3.28-4.874,5.845-6.499c-17.24,6.155-34.131,13.215-50.491,21.575
		c29.751-3.668,58.099,6.556,88.065,7.346c13.138,0.346,27.391,1.568,37.139,10.381c17.184,15.537,10.458,43.208,13.358,66.193
		c4.268,33.836,35.518,62.167,69.61,63.106c24.533,0.676,52.532-10.2,71.563,5.297
		C1010.433,701.981,1014.426,708.909,1019.648,714.673z"/>
	<path style="opacity:0.4;" d="M1019.648,714.673c19.423,21.44,52.069,23.629,80.914,21.424
		c28.838-2.205,57.455-7.287,85.288-15.146c31.523-8.901,66.457-26.482,72.055-58.756c3.836-22.115-7.699-43.547-14.817-64.833
		c-10.512-31.441-9.685-60.967-1.042-92.972c-2.677-1.893-5.42-3.682-8.191-5.422c-0.997,3.211-1.87,6.457-2.61,9.721
		c-5.742,25.338-4.363,51.789-0.557,77.489c3.931,26.546,9.564,56.656-6.971,77.793c-13.097,16.742-35.844,21.822-56.724,25.807
		c-22.206,4.238-45.105,8.477-67.244,3.905c-22.14-4.572-43.584-20.212-47.863-42.41c-3.01-15.612,0.458-36.303-13.769-43.401
		c-3.27,18.91-7.612,39.656-22.893,51.266c-12.803,9.728-30.141,10.474-46.209,9.882c-20.315-0.748-42.098-3.645-57.11-17.352
		c-13.32-12.162-18.719-30.441-26.877-46.528c-7.868-15.516-15.112-22.669-24.968-24.787c3.693,14.716,1.189,32.607,3.17,48.313
		c4.268,33.836,35.518,62.167,69.61,63.106c24.533,0.676,52.532-10.2,71.563,5.297
		C1010.433,701.981,1014.426,708.909,1019.648,714.673z"/>
	<path style="fill:#B21900;" d="M994.674,748.273c3.939,0.532,7.93,0.903,11.884,0.498c5.804-0.595,11.362-2.864,16.248-6.053
		c18.65-12.175,26.092-38.674,16.97-58.992c-9.122-20.318-33.422-32.348-55.223-27.791c-20.391,4.263-44.113,28.325-44.822,50.321
		C938.86,733.285,973.107,745.358,994.674,748.273z"/>
	<path style="fill:#BF2202;" d="M579.5,790.652c-12.467,12.193-24.152,27.148-24.872,44.571
		c32.53-14.829,65.06-29.659,97.591-44.488c14.099-6.427,28.499-12.94,43.901-14.637c28.241-3.111,56.249,10.698,76.696,30.426
		c12.901-11.595,39.471-61.104,23.323-76.653c-13.685-13.176-57.949-7.171-74.906-5.297
		C668.514,730.399,617.516,753.471,579.5,790.652z"/>
	<path style="opacity:0.2;" d="M772.816,806.524c6.013-5.404,14.993-19.046,21.235-33.646c0.738-14.972,0.197-30.164-0.889-45.293
		c-3.351-2.092-7.717-3.512-12.657-4.451c-3.379,7.009-6.981,13.911-10.831,20.672c-2.208,3.879-4.712,7.923-8.725,9.877
		c-4.239,2.064-9.234,1.357-13.91,0.753c-48.362-6.248-98.384,4.801-140.47,29.159c-19.233,11.131-34.301,25.116-49.839,40.116
		c-1.181,3.709-1.937,7.543-2.101,11.511c32.53-14.829,65.06-29.659,97.591-44.488c14.099-6.427,28.499-12.94,43.901-14.637
		C724.36,772.987,752.369,786.797,772.816,806.524z"/>
	<path style="fill:#DA2F06;" d="M1085.546,721.169c5.478-24.687,34.662-22.348,39.272,2.878c1.561,8.546,0.013,17.336-1.92,25.805
		c-4.68,20.513-12.17,41.364-27.526,55.748c-5.509,5.161-12.005,9.47-16.116,15.801c-3.012,4.638-4.538,10.066-5.824,15.444
		c-13.937,58.283-3.388,122.017,28.584,172.702c-17.336-1.911-36.03-6.546-46.533-20.47c-8.145-10.797-9.701-25.029-10.972-38.494
		c-2.164-22.932-4.327-45.864-6.491-68.796c-1.508-15.979-2.928-32.64,2.874-47.604c4.432-11.431,12.714-20.869,19.267-31.231
		C1076.25,777.513,1079.218,749.688,1085.546,721.169z M1131.554,914.225c0.03,20.218,0.483,40.752,6.419,60.078
		c5.936,19.327,18.11,37.592,36.248,46.523c-16.264-38.75-20.934-82.282-13.26-123.601c2.54-13.673,6.401-27.15,7.469-41.015
		c0.852-11.059-0.089-22.17-0.092-33.263c-0.006-20.803,3.284-41.451,6.564-61.994c2.204-13.802,4.286-28.573-1.61-41.245
		c-5.616-12.071-25.995-23.693-33.606-8.964c-7.421,14.361-2.849,47.795-3.744,64.164
		C1133.403,821.303,1131.485,867.751,1131.554,914.225z M1193.201,737.944c18.995,37.671,43.346,72.436,62.488,110.033
		c19.142,37.596,33.157,79.408,29.143,121.406c16.735-21.631,20.177-51.242,15.393-78.169
		c-4.784-26.927-16.911-51.907-28.903-76.486c-14.501-29.719-29.001-59.437-43.502-89.155c-4.95-10.145-10.221-20.687-19.272-27.433
		c-6.667-4.97-24.653-10.37-29.172-0.124C1175.36,707.123,1189.216,730.04,1193.201,737.944z M1274.928,712.883
		c-11.578-5.753-22.61-11.928-32.066-20.854c-3.449-3.256-9.441-13.592-15.255-12.341c-7.037,1.514-6.887,14.068-5.631,19.374
		c4.4,18.591,22.976,29.912,40.558,37.383c17.583,7.471,37.018,14.056,48.162,29.573c5.082,7.076,7.973,15.471,10.347,23.853
		c8.987,31.738,11.473,65.301,7.261,98.017c12.973-8.877,19.001-25.235,19.959-40.925c0.958-15.69-2.34-31.282-4.13-46.899
		c-1.729-15.083-2.201-30.845-9.235-44.298C1322.914,732.847,1296.687,723.694,1274.928,712.883z"/>
	<path style="opacity:0.2;" d="M920.507,547.314c-18.505-17.135-42.808-27.008-67.558-31.851
		c-13.088-2.561-26.362-3.786-39.691-4.361c-30.531,8.585-60.339,19.21-88.589,33.644c22.792-2.81,44.763,2.524,67.266,5.532
		c37.534,0.157,75.054,3.8,111.895,10.99c4.546,0.887,9.362,1.81,13.711,0.216c4.349-1.594,7.731-6.771,5.678-10.922
		C922.589,549.29,921.548,548.278,920.507,547.314z"/>
	<path style="opacity:0.2;fill:#FFFFFF;" d="M968.362,480.208c-15.676,0.809-31.627,3.621-46.79,6.588
		c-9.744,1.907-19.508,3.828-29.269,5.802c0.286,0.284,0.57,0.59,0.856,0.851c19.275,17.615,40.5,29.38,57.195,50.669
		c9.454,12.055,17.812,25.288,29.827,34.792c5.331,4.216,12.07,7.748,18.688,6.205c7.442-1.736,12.11-9.398,13.548-16.904
		c3.37-17.593-6.278-34.805-15.791-49.983C988.341,505.008,979.488,491.384,968.362,480.208z"/>
	<path style="opacity:0.2;fill:#FFFFFF;" d="M1114.31,579.98c0.511,4.787,0.613,9.676,2.073,14.264
		c1.46,4.588,4.596,8.972,9.186,10.425c3.347,1.059,6.971,0.44,10.407-0.277c9.683-2.022,19.679-5.029,26.639-12.059
		c10.066-10.168,11.236-26.713,6.379-40.171c-4.856-13.457-14.691-24.458-24.693-34.688c-13.324-13.627-43.57-26.649-50.747,1.666
		C1088.912,537.453,1112.22,560.41,1114.31,579.98z"/>
	<path style="fill:#BC1200;" d="M977.12,649.471c-7.491-4.27-15.291-8.18-23.668-10.221c-21.227-5.172-43.475,2.183-63.138,11.707
		c-10.308,4.993-21.514,12.312-22.728,23.701c-1.108,10.392,7.125,19.845,16.662,24.117c9.537,4.272,20.265,4.704,30.623,6.089
		c10.358,1.385,21.22,4.136,28.409,11.721c7.493,7.907,10.736,20.674,21.007,24.301c19.42,6.857,45.281-18.925,48.912-36.624
		C1018.107,680.339,995.509,659.951,977.12,649.471z"/>
	<path style="opacity:0.2;" d="M982.364,722.344c-5.677-8.174-4.591-19.128-7.361-28.687c-5.46-18.845-25.807-30.153-45.379-31.539
		c-6.888-0.487-13.911-0.021-20.604-1.717c-10.524-2.666-12.492-7.271-12.412-12.36c-2.122,0.942-4.224,1.912-6.293,2.914
		c-10.308,4.993-21.515,12.312-22.729,23.701c-1.107,10.392,7.125,19.845,16.662,24.117c9.537,4.272,20.265,4.704,30.623,6.089
		c10.358,1.385,21.22,4.136,28.409,11.721c7.493,7.907,10.736,20.674,21.007,24.301c10.061,3.552,21.845-1.664,31.376-9.97
		C990.338,729.655,985.479,726.829,982.364,722.344z"/>
	<path style="fill:#DA2F06;" d="M820.324,690.061c-22.004,7.84-42.089,23.303-51.372,44.738
		c-9.219,21.286-7.034,45.781-13.466,68.068c-7.83,27.135-27.679,48.883-46.91,69.567c-30.476,32.779-61.341,65.891-98.722,90.504
		c4.754,6.021,13.728,6.068,21.361,5.313c102.955-10.176,196.016-67.163,273.126-136.137c19.387-17.341,38.18-35.706,52.573-57.373
		c6.512-9.804,12.21-20.652,12.987-32.397c1.279-19.35-11.619-37.732-28.591-47.113
		C909.219,677.496,854.101,678.026,820.324,690.061z"/>
	
		<ellipse transform="matrix(0.7071 -0.7071 0.7071 0.7071 -149.4495 759.5682)" style="fill:#1E0B08;" cx="842.155" cy="560.186" rx="17.904" ry="17.904"/>
	<path style="opacity:0.4;" d="M904.341,832.116c19.387-17.341,38.18-35.706,52.573-57.373c6.512-9.804,12.21-20.652,12.986-32.397
		c0.458-6.923-0.924-13.713-3.633-20.02c-12.578,33.086-35.211,63.465-60.243,89.023c-53.896,55.03-121.423,96.61-194.825,119.963
		c-6.68,2.125-15.092,3.677-19.766-1.547c47.462-25.672,88.027-63.959,116.395-109.862c10.642-17.22,19.169-40.788,6.238-56.363
		c-7.632-9.192-22.031-14.521-22.701-26.449c-0.27-4.797,1.985-9.356,4.488-13.457c15.537-25.453,36.881-28.7,58.608-40.992
		c-12.462,1.38-24.228,3.887-34.137,7.417c-22.004,7.84-42.089,23.303-51.372,44.738c-9.219,21.286-7.034,45.781-13.466,68.068
		c-7.83,27.135-27.679,48.883-46.91,69.567c-30.476,32.779-61.341,65.891-98.722,90.505c4.754,6.02,13.728,6.068,21.361,5.313
		C734.17,958.076,827.231,901.089,904.341,832.116z"/>
	<path style="opacity:0.5;" d="M1240.437,751.429c9.328,19.118,18.657,38.237,27.986,57.355
		c-3.942,9.84-12.303,17.874-22.079,21.766c-13.065-23.472-27.508-46.193-40.73-69.578
		C1214.399,751.923,1228.318,747.67,1240.437,751.429z M1168.338,822.947c-0.002-8.481,0.56-16.934,1.429-25.366
		c-8.998-2.684-18.675-7.635-27.778-6.32c-2.522,0.364-4.864,1.203-7.032,2.394c-1.417,28.033-2.538,56.084-3.067,84.146
		c10.086,6.285,20.669,11.63,30.933,10.266c2.27-10.567,4.778-21.096,5.607-31.858
		C1169.282,845.15,1168.341,834.039,1168.338,822.947z M1225.057,720.03c-4.239-8.305-9.103-16.37-16.508-21.89
		c-6.666-4.97-24.653-10.37-29.172-0.124c-4.017,9.108,9.838,32.024,13.824,39.929c0.009,0.018,0.019,0.035,0.028,0.053
		c9.091-3.948,17.82-9.087,26.202-14.339C1221.313,722.479,1223.196,721.272,1225.057,720.03z M1327.326,818.656
		c3.578,22.879,3.936,46.264,0.979,69.233c12.973-8.877,19.001-25.234,19.959-40.925c0.897-14.685-1.922-29.284-3.756-43.899
		C1337.445,805.641,1331.946,811.621,1327.326,818.656z M1137.973,974.303c5.936,19.327,18.11,37.591,36.248,46.523
		c-9.07-21.609-14.524-44.707-16.253-68.077c-7.794,2.366-15.65,4.542-23.546,6.541
		C1135.307,964.355,1136.457,969.369,1137.973,974.303z M1044.695,952.439c1.25,12.909,3.015,26.335,10.788,36.639
		c10.503,13.924,29.197,18.559,46.533,20.47c-8.526-13.516-15.477-27.978-20.898-42.999
		C1068.129,964.876,1055.968,959.517,1044.695,952.439z M1139.686,710.744c-3.569,6.907-4.355,18.229-4.318,29.938
		c9.107,2.708,18.318,4.709,27.788,4.529c4.709-0.09,9.325-0.733,13.86-1.773c0.433-8.218-0.281-16.332-3.724-23.73
		C1167.676,707.637,1147.297,696.015,1139.686,710.744z M1066.429,882.157c0.356,0.147,0.724,0.263,1.085,0.397
		c0.376-14.481,2.162-28.911,5.355-43.05c-4.213-8.692-3.097-21.127-6.718-30.852c-1.082-2.906-2.712-5.526-4.719-7.828
		c-0.426,0.709-0.826,1.423-1.272,2.129c-6.553,10.362-14.834,19.8-19.267,31.232c-0.864,2.229-1.551,4.498-2.118,6.794
		c0.502,3.458,1.081,6.899,1.983,10.255C1044.364,864.638,1053.592,876.88,1066.429,882.157z M1085.546,721.169
		c-0.476,2.146-0.93,4.287-1.375,6.425c9.045,0.353,18.263,2.466,26.895,5.157c4.685,1.46,9.361,3.078,14.049,4.652
		c0.477-4.465,0.509-8.943-0.297-13.355C1120.208,698.82,1091.024,696.482,1085.546,721.169z M1300.225,891.214
		c-1.294-7.285-3.139-14.424-5.361-21.455c-6.385,7.583-13.333,14.708-20.737,21.36c8.582,25.34,13.238,51.764,10.705,78.264
		C1301.568,947.752,1305.01,918.141,1300.225,891.214z M1227.607,679.688c-7.037,1.514-6.887,14.068-5.631,19.374
		c1.515,6.399,4.734,11.919,8.989,16.734c4.413-3.415,8.438-7.242,11.518-11.876c1.747-2.628,3.121-5.58,4.019-8.652
		c-1.236-1.04-2.451-2.118-3.64-3.24C1239.413,688.773,1233.422,678.437,1227.607,679.688z M1289.842,719.996
		c-4.382,7.419-6.645,15.956-8.648,24.377c11.48,5.239,22.25,11.547,29.504,21.646c3.44,4.79,5.865,10.189,7.816,15.775
		c4.811-0.207,9.56-1.198,13.971-3.165c2.995-1.335,5.783-3.146,8.274-5.3c-1.217-6.102-2.969-12.032-5.86-17.562
		C1325.568,737.924,1307.607,728.429,1289.842,719.996z"/>
	<g>
		<path style="opacity:0.2;fill:#FFFFFF;" d="M1447.8,597.525c-0.435,4.633-0.899,9.655,1.553,13.609
			c4.605,7.426,16.954,5.671,22.257-1.273c5.303-6.944,5.378-16.476,4.551-25.174c-0.088-0.931-0.214-1.857-0.318-2.786
			c-8.968-5.211-17.857-10.615-26.853-15.801C1449.168,576.586,1448.78,587.083,1447.8,597.525z"/>
		<path style="opacity:0.2;fill:#FFFFFF;" d="M1588.633,640.846c-4.719-7.582-11.021-14.169-18.542-18.997
			c-6.565-4.213-13.781-7.06-21.211-9.46c1.406,6.504,1.689,13.27,3.217,19.768c1.864,7.92,6.381,16.056,14.113,18.589
			C1574.858,653.578,1582.938,648.456,1588.633,640.846z"/>
		<path style="opacity:0.2;fill:#FFFFFF;" d="M1517.126,622.157c2.793-5.965,2.455-12.628,1.251-19.238
			c-7.157-2.665-14.106-5.797-20.927-9.22c-0.052,4.42-0.566,8.809-1.763,13.125c-1.807,6.512-5.017,13.757-1.595,19.583
			C1498.954,634.681,1513.056,630.848,1517.126,622.157z"/>
		<path style="opacity:0.2;fill:#FFFFFF;" d="M1407.375,601.22c5.8,3.173,13.475-0.336,16.968-5.948s3.803-12.594,3.605-19.202
			c-0.225-7.522-1.028-15.02-2.301-22.437c-8.22-3.978-16.605-7.588-25.108-10.924c0.756,13.808-0.859,27.713-0.362,41.561
			C1400.407,590.7,1401.73,598.131,1407.375,601.22z"/>
		<path style="opacity:0.2;fill:#FFFFFF;" d="M1240.47,505.24c0.461,25.214,6.075,49.939,21.194,47.392
			c9.72-1.638,13.565-13.592,13.756-23.447c0.161-8.318-0.887-16.65-3.041-24.685C1261.112,502.976,1250.018,502.784,1240.47,505.24
			z"/>
		<path style="opacity:0.2;fill:#FFFFFF;" d="M1349.388,524.773c1.376,8.789,1.667,17.748,0.749,26.596
			c-0.897,8.65-2.866,17.563-0.341,25.884c2.525,8.321,11.827,15.424,19.753,11.847c6.029-2.721,8.358-10.005,9.311-16.55
			c1.883-12.923,0.891-26.231-2.726-38.777c-6.883-2.378-13.789-4.689-20.691-6.99
			C1353.426,526.111,1351.407,525.443,1349.388,524.773z"/>
		<path style="opacity:0.2;fill:#FFFFFF;" d="M1323.122,541.859c0.94-8.514,0.573-17.157-1.012-25.573
			c-0.778-0.219-1.551-0.456-2.331-0.669c-6.335-1.732-13.858-3.916-21.912-5.965c1.74,9.721,2.342,19.646,1.677,29.5
			c-0.519,7.7-0.513,17.635,6.667,20.463C1315.049,563.095,1322.079,551.3,1323.122,541.859z"/>
	</g>
</g>
</svg>
