<?xml version="1.0" encoding="utf-8"?>
<!-- Generator: Adobe Illustrator 27.5.0, SVG Export Plug-In . SVG Version: 6.00 Build 0)  -->
<svg version="1.1" id="Ñëîé_1" xmlns="http://www.w3.org/2000/svg" xmlns:xlink="http://www.w3.org/1999/xlink" x="0px" y="0px"
	 viewBox="0 0 3000 3000" style="enable-background:new 0 0 3000 3000;" xml:space="preserve">
<rect y="0" style="fill:none;stroke:#000000;stroke-miterlimit:10;" width="3000" height="3000"/>
<g>
	<path style="fill:#FF6F64;" d="M1956.637,2428.345c8.977,1.901,14.728-9.365,7.832-15.418
		c-20.055-17.604-43.332-49.714-40.536-102.835c4.823-91.616,88.611-290.351-71.04-381.963
		c-159.651-91.612-210.118-90.266-210.118-90.266l127.668,225.991c0,0,114.566,0.589,89.967,175.991
		C1845.719,2333.94,1883.809,2412.921,1956.637,2428.345z"/>
	<path style="opacity:0.4;" d="M1815.216,1970.34c-28.344-42.058-53.581-74.674-74.156-100.328
		c-72.609-32.823-98.285-32.148-98.285-32.148l127.668,225.991c0,0,64.938,0.349,86.532,75.381
		C1860.23,2081.055,1850.282,2022.371,1815.216,1970.34z"/>
	<path style="fill:#FF6F64;" d="M1666.841,2611.869c2.843,10.322-10.666,16.952-17.089,8.387
		c-35.926-47.913-85.944-142.047-58.495-271.98c40.93-193.748-87.259-403.762-84.016-422.797
		c3.243-19.035-9.234-43.12,27.373-69.812c36.606-26.692,253.823,243.386,260.778,263.279
		c6.955,19.892-46.373,199.863-44.508,207.004C1752.624,2332.614,1612.13,2413.234,1666.841,2611.869z"/>
	<path style="opacity:0.4;" d="M1679.787,2413.433c28.974-57.134,72.064-83.774,71.096-87.484
		c-1.865-7.141,51.464-187.112,44.508-207.004c-6.955-19.893-224.171-289.97-260.778-263.278
		c-36.606,26.692-24.13,50.776-27.373,69.812c-3.243,19.035,124.946,229.049,84.016,422.797
		c-8.789,41.604-9.627,79.531-5.537,113.452c2.711-2.982,5.48-6.012,8.377-9.154l0.595-0.645l0.521-0.706
		c3.418-4.621,7.482-9.831,12.188-15.864c24.984-32.026,62.74-80.422,81.336-141.016c22.702-73.979,10.297-146.187-36.788-214.496
		c-37.366-55.303-52.785-111.355-59.134-146.919c38.423,34.697,102.833,106.839,121.35,213.049
		c13.034,70.659-4.289,139.649-19.573,200.518C1688.596,2370.371,1682.959,2392.823,1679.787,2413.433z"/>
	<path style="fill:#FF6F64;" d="M1046.418,2455.473c-8.789,5.127-18.201-5.683-11.86-13.641
		c29.606-37.161,67.832-98.656,63.978-164.95c-6.215-106.921-3.171-298.391,290.107-421.348
		c-33.906,115.052,29.911,149.688,19.881,151.72c-10.03,2.033-202.967,63.01-215.867,199.531
		C1182.78,2311.313,1150.372,2394.829,1046.418,2455.473z M1260.579,2423.614c71.792-86.81,151.673-196.561,151.673-196.561
		s110.747-252.172-36.33-188.532s-91.602,219.89-166.3,331.514c-48.205,72.034-44.459,154.935-35.739,204.679
		c1.666,9.501,15.222,9.654,17.138,0.201C1199.074,2535.199,1217.704,2475.458,1260.579,2423.614z"/>
	<path style="opacity:0.4;" d="M1328.375,1883.806c18.589-9.755,38.633-19.201,60.268-28.272
		c-33.906,115.052,29.911,149.688,19.881,151.72c-4.398,0.891-43.971,13.121-88.109,38.082
		C1304.367,1981.208,1313.301,1927.514,1328.375,1883.806z M1375.922,2038.521c-19.582,8.473-35.544,18.601-48.73,30.034
		c0.076,0.226,0.145,0.45,0.221,0.677c46.863,139.398,45.492,186.84,5.252,263.729c44.533-57.747,79.587-105.908,79.587-105.908
		S1522.999,1974.88,1375.922,2038.521z"/>
	<path style="fill:#FF6F64;" d="M1449.451,1430.118c-3.915,7.476-3.26,43.682-79.302,132.189
		c-76.042,88.506,17.74,155.543,21.956,203.141c4.217,47.597-101.917,142.202-49.331,298.62
		c52.585,156.418,45.242,204.687-7.346,297.629s-56.085,232.323,55.859,337.448c40.9,12.887-60.767-122.597-12.43-213.843
		s156.52-200.467,127.893-343.78c-11.508-73.269-17.103-94.69-17.103-94.69s112.615,116.684,75.971,259.442
		c-33.223,129.426-130.12,208.929-91.101,289.569c4.056,8.382,16.622,5.909,17.431-3.368c4.053-46.474,23.759-78.793,90.234-150.886
		c40.323-54.535,168.751-189.58,56.338-352.668c-65.035-96.254-66.328-193.313-66.328-193.313s129.635,85.25,157.909,247.43
		c25.401,137.701-59.037,269.115-31.033,333.291c21.308,48.832,60.874,75.648,87.371,88.845c6.6,3.287,13.155-4.61,8.707-10.491
		c-21.256-28.11-51.857-80.076-37.193-132.009c21.641-76.646,145.365-292.604,43.822-443.276
		c-101.543-150.672-159.489-174.849-132.086-227.184c27.403-52.334,109.543-110.751,39.736-189.329
		c-69.807-78.579-48.115-229.166-48.115-229.166L1449.451,1430.118z"/>
	<path style="opacity:0.4;" d="M1449.451,1430.118c-3.287,6.277-3.361,32.815-48.307,93.55
		c32.832,16.019,64.954,36.516,82.849,71.663c11.203,22,33.042,35.803,56.995,36.021l0.761,0.004l0.758-0.004
		c23.955-0.218,45.795-14.021,56.998-36.022c18.129-35.607,50.861-56.183,84.14-72.296
		c-37.946-80.858-22.333-189.319-22.333-189.319L1449.451,1430.118z"/>
	<path style="opacity:0.4;" d="M1444.881,1853.016c-4.417-0.735-8.586,2.261-9.314,6.676
		c-8.965,54.332-3.901,136.097,62.771,231.083c-5.831-32.988-8.69-43.943-8.69-43.943s0.03,0.031,0.071,0.074
		c-42.734-75.635-45.521-139.973-38.162-184.576C1452.286,1857.915,1449.297,1853.744,1444.881,1853.016z"/>
	<path style="opacity:0.4;" d="M1424.844,1619.464c-6.856-40.253-28.16-59.197-45.488-68.072c3.631-4.383,7.074-8.633,10.319-12.741
		c1.266,0.704,2.542,1.449,3.826,2.244c17.541,10.854,39.99,32.823,47.319,75.846c4.933,28.964-4.464,54.278-27.932,75.24
		c-12.866,11.492-27.97,19.925-41.202,26.279c-2.663-4.574-5.402-9.269-8.102-14.083
		C1393.771,1689.878,1432.678,1665.454,1424.844,1619.464z M1680.146,1565.89c7.549-4.463,15.892-7.42,24.205-9.078
		c-3.622-4.553-6.978-9.304-10.073-14.227c-7.88,2.165-15.5,5.287-22.379,9.355c-16.498,9.754-43.328,33.58-37.661,83.56
		c4.256,37.523,24.265,66.213,57.872,83.041c3.237-4.355,6.543-8.765,9.823-13.238c-0.762-0.358-1.526-0.724-2.29-1.104
		c-29.045-14.44-45.632-38.168-49.302-70.526C1645.934,1594.819,1664.117,1575.367,1680.146,1565.89z"/>
	<path style="fill:#2E2B47;" d="M1344.741,1661.719c-6.35-22.168-6.646-46.347,6.979-72.598
		c15.542,0.842,33.622,14.511,29.323,38.791C1377.551,1647.634,1358.618,1657.254,1344.741,1661.719z M1696.151,1627.911
		c3.22,18.186,19.567,27.777,32.975,32.663c9.309-21.966,11.764-45.596-1.412-71.486
		C1711.738,1588.66,1691.644,1602.454,1696.151,1627.911z"/>
	<path style="fill:#FF6F64;" d="M1340.693,1085.589c-5.091-12.752-48.108-116.809-115.874-197.682
		c-67.766-80.872-96.067-81.402-25.124-170.337c70.943-88.935,244.129-177.289,303.883-309.067
		C1475.802,753.713,1340.693,1085.589,1340.693,1085.589z"/>
	<path style="opacity:0.4;" d="M1340.693,1085.589c0,0,135.109-331.876,162.885-677.085c-18.899,41.679-49.152,79.01-83.921,113.394
		c-48.21,120.938-105.542,286.085-125.002,469.061C1321.431,1038.634,1337.685,1078.054,1340.693,1085.589z"/>
	<path style="fill:#FF6F64;" d="M1742.806,1085.589c5.091-12.752,48.108-116.809,115.874-197.682
		c67.766-80.872,96.067-81.402,25.124-170.337c-70.943-88.935-244.129-177.289-303.883-309.067
		C1607.697,753.713,1742.806,1085.589,1742.806,1085.589z"/>
	<path style="opacity:0.4;" d="M1742.806,1085.589c0,0-135.109-331.876-162.885-677.085c18.899,41.679,49.152,79.01,83.921,113.394
		c48.21,120.938,105.542,286.085,125.002,469.061C1762.068,1038.634,1745.814,1078.054,1742.806,1085.589z"/>
	<path style="fill:#FF6F64;" d="M1776.928,1191.011c25.247-359.524-144.539-693.416-189.752-813.475
		c-11.273-29.936-20.861-51.659-28.901-67.406c-6.897-13.507-26.155-13.507-33.051,0c-8.041,15.747-17.627,37.47-28.901,67.406
		c-45.212,120.059-214.999,453.951-189.751,813.475c13.38,192.766-23.616,229.711,11.287,269
		c33.158,37.325,139.281,46.857,180.578,127.966c8.255,16.214,24.509,27.004,42.703,27.169c0.407,0.004,0.815,0.004,1.222,0
		c18.193-0.166,34.447-10.956,42.703-27.169c41.297-81.109,147.419-90.641,180.578-127.966
		C1800.544,1420.722,1763.548,1383.777,1776.928,1191.011z"/>
	<g>
		<path style="opacity:0.4;fill:#FFFFFF;" d="M1527.389,955.409c-7.05,97.841-11.015,195.883-11.89,293.973
			c-0.093,10.431,16.113,10.441,16.206,0c0.875-98.09,4.84-196.133,11.89-293.973
			C1544.345,945.003,1528.135,945.05,1527.389,955.409z"/>
		<g>
			<path style="opacity:0.4;fill:#FFFFFF;" d="M1538.03,878.975c-4.781,0-7.621,3.734-8.103,8.103
				c-0.707,6.404-1.414,12.808-2.121,19.212c-0.481,4.357,4.069,8.103,8.103,8.103c4.781,0,7.621-3.734,8.103-8.103
				c0.707-6.404,1.414-12.808,2.122-19.212C1546.614,882.721,1542.064,878.975,1538.03,878.975z"/>
			<g>
				<path style="opacity:0.4;" d="M1572.691,628.963c0.603,4.339,6.143,6.711,9.968,5.66c4.672-1.284,6.265-5.615,5.66-9.968
					c-0.758-5.448-1.516-10.896-2.274-16.344c-0.604-4.339-6.143-6.711-9.968-5.659c-4.672,1.284-6.265,5.615-5.659,9.967
					C1571.175,618.067,1571.933,623.515,1572.691,628.963z"/>
				<g>
					<path style="opacity:0.4;" d="M1598.746,580.76c-1.935-3.924-7.5-5.004-11.087-2.907c-4.001,2.34-4.849,7.148-2.907,11.086
						c1.107,2.244,1.717,5.678,1.42,7.763c-0.616,4.328,1.062,8.705,5.66,9.968c3.8,1.044,9.347-1.299,9.968-5.659
						C1602.825,593.807,1601.984,587.325,1598.746,580.76z"/>
					<path style="opacity:0.4;" d="M1548.348,578.26c-0.707-3.846-4.06-6.639-7.97-6.639c-3.911,0-7.264,2.793-7.97,6.639
						c-5.504,29.967-27.65,224.488-39.547,430.372c-15.209,263.182-6.764,417.789,25.103,459.528
						c6.201,8.121,13.51,12.594,21.727,13.294c0.229,0.02,0.458,0.029,0.688,0.029c0.229,0,0.459-0.01,0.688-0.029
						c8.217-0.7,15.527-5.173,21.727-13.294c31.867-41.739,40.313-196.346,25.103-459.528
						C1575.998,802.743,1553.852,608.225,1548.348,578.26z M1549.912,1458.325c-3.138,4.11-6.264,6.374-9.534,6.896
						c-3.27-0.523-6.396-2.786-9.534-6.896c-28.619-37.484-36.363-196.856-21.805-448.758
						c8.36-144.665,22.215-287.241,31.339-366.999c9.124,79.757,22.978,222.33,31.339,366.999
						C1586.275,1261.468,1578.531,1420.84,1549.912,1458.325z"/>
				</g>
			</g>
		</g>
	</g>
	<g>
		<path style="opacity:0.4;fill:#FFFFFF;" d="M1331.991,640.77c3.325-2.66,2.981-8.723,0-11.46c-3.529-3.24-7.912-2.838-11.46,0
			c-2.917,2.334-5.834,4.667-8.751,7.001c-3.325,2.66-2.981,8.723,0,11.46c3.53,3.24,7.912,2.837,11.46,0
			C1326.157,645.437,1329.074,643.104,1331.991,640.77z"/>
		<path style="opacity:0.4;fill:#FFFFFF;" d="M1432.492,580.488c-52.863,133.094-88.078,272.826-104.912,415.034
			c-4.749,40.116-7.965,80.398-9.749,120.753c-0.461,10.427,15.746,10.405,16.206,0c6.26-141.588,30.992-282.125,73.487-417.337
			c12.112-38.537,25.684-76.6,40.595-114.142C1451.97,575.102,1436.302,570.894,1432.492,580.488z"/>
	</g>
	<path style="opacity:0.4;fill:#FFFFFF;" d="M1459.015,512.285c-3.488,11.158-7.646,22.016-12.612,32.602
		c-4.404,9.387,9.563,17.625,13.994,8.18c5.556-11.842,10.343-23.987,14.246-36.473
		C1477.762,506.616,1462.122,502.348,1459.015,512.285z"/>
	<path style="opacity:0.4;fill:#FFFFFF;" d="M1273.288,664.34c-20.95,18.291-40.582,38.033-58.604,59.221
		c-8.521,10.017-16.684,20.342-24.508,30.912c-7.531,10.174-17.266,21.242-19.124,34.18c-1.465,10.201,14.148,14.607,15.627,4.308
		c1.749-12.175,12.057-23.06,19.207-32.616c7.626-10.191,15.657-20.08,24.006-29.687c16.988-19.547,35.349-37.83,54.855-54.859
		C1292.619,668.927,1281.117,657.505,1273.288,664.34z"/>
	<path style="opacity:0.4;fill:#FFFFFF;" d="M1373.638,2056.115c-16.777-46.208-16.921-96.431-0.387-142.727
		c3.514-9.84-12.139-14.076-15.627-4.308c-17.396,48.71-17.265,102.725,0.387,151.344
		C1361.542,2070.151,1377.209,2065.952,1373.638,2056.115z"/>
	<path style="opacity:0.4;fill:#FFFFFF;" d="M1384.551,1855.965c-4.516-1.241-8.458,1.535-9.968,5.66
		c-1.713,4.681-3.426,9.362-5.138,14.043c-1.504,4.11,1.686,8.876,5.659,9.968c4.516,1.241,8.458-1.534,9.968-5.66
		c1.713-4.681,3.426-9.362,5.138-14.043C1391.714,1861.822,1388.524,1857.056,1384.551,1855.965z"/>
	<path style="opacity:0.4;fill:#FFFFFF;" d="M1224.392,1975.407c-44.753,41.49-77.217,95.083-93.409,153.912
		c-2.771,10.07,12.859,14.367,15.628,4.308c15.488-56.275,46.446-107.086,89.241-146.761
		C1243.516,1979.76,1232.035,1968.32,1224.392,1975.407z"/>
	<path style="opacity:0.4;fill:#FFFFFF;" d="M1270.341,1947.311c-2.337-3.626-7.22-5.277-11.087-2.907
		c-5.116,3.136-9.475,7.664-11.995,13.145c-1.767,3.843-1.219,8.907,2.907,11.087c3.567,1.885,9.195,1.205,11.087-2.907
		c0.441-0.959,0.921-1.893,1.481-2.789c0.257-0.41,0.541-0.801,0.813-1.2c0.063-0.063,0.103-0.101,0.191-0.192
		c0.658-0.686,1.301-1.374,2.018-2.003c0.098-0.086,0.184-0.158,0.264-0.223c0.468-0.314,0.932-0.629,1.414-0.923
		C1271.046,1956.183,1272.747,1951.043,1270.341,1947.311z"/>
	<path style="opacity:0.4;" d="M1762.646,1222.209c-2.204-4.066-1.859-8.095-0.121-12.26c1.687-4.04-1.82-8.913-5.66-9.968
		c-4.669-1.283-8.274,1.604-9.968,5.659c-3.364,8.055-2.349,17.178,1.754,24.748
		C1753.625,1239.561,1767.622,1231.389,1762.646,1222.209z"/>
	<path style="opacity:0.4;" d="M1752.745,1253.535c-4.395,0-8.103,3.708-8.103,8.103v14.002c0,4.379,3.724,8.103,8.103,8.103
		c4.395,0,8.103-3.709,8.103-8.103v-14.002C1760.848,1257.259,1757.124,1253.535,1752.745,1253.535z"/>
	<path style="opacity:0.4;" d="M1723.179,1227.397c-6.716,7.085-9.42,17.618-5.859,26.893c1.567,4.083,5.453,6.9,9.968,5.66
		c3.906-1.073,7.236-5.86,5.659-9.968c-1.513-3.942-1.383-7.881,1.692-11.125
		C1741.812,1231.289,1730.372,1219.809,1723.179,1227.397z"/>
	<path style="opacity:0.4;" d="M1849.994,711.153c-3.47-2.672-9.075-0.531-11.087,2.908c-2.445,4.181-0.572,8.408,2.907,11.086
		c1.744,1.343,2.256,4.595,1.529,7.054c-2.965,10.022,12.67,14.303,15.628,4.308
		C1861.875,726.692,1857.845,717.199,1849.994,711.153z"/>
	<path style="opacity:0.4;" d="M1450.596,1170.624v23.337c0,10.428,16.206,10.445,16.206,0v-23.337
		C1466.802,1160.196,1450.596,1160.179,1450.596,1170.624z"/>
	<path style="opacity:0.4;" d="M1339.218,1385.385c-3.524-2.061-9.209-1.067-11.087,2.907c-2.679,5.671-4.144,11.733-3.536,18.032
		c0.42,4.356,3.423,8.103,8.103,8.103c4.057,0,8.526-3.721,8.103-8.103c-0.355-3.687-0.099-6.839,1.324-9.853
		C1343.993,1392.517,1343.226,1387.73,1339.218,1385.385z"/>
	<g>
		<path style="opacity:0.4;" d="M1902.802,2066.299c-3.01,3.279-3.15,8.203,0,11.46c0.041,0.044,0.055,0.058,0.091,0.096
			c0.038,0.064,0.072,0.131,0.109,0.196c0.027,0.102,0.067,0.237,0.13,0.434c0.006,0.029,0.008,0.04,0.013,0.067
			c-0.046,0.147-0.073,0.244-0.099,0.335c-0.105,0.183-0.197,0.374-0.316,0.549c-2.261,3.593-0.875,9.088,2.907,11.086
			c3.991,2.108,8.673,0.928,11.087-2.907c4.249-6.75,3.002-15.669-2.461-21.318
			C1911.309,2063.247,1905.729,2063.111,1902.802,2066.299z"/>
		<path style="opacity:0.4;" d="M1930.045,2041.713c-2.506-3.581-7.09-5.245-11.087-2.907c-3.543,2.073-5.429,7.483-2.907,11.087
			c3.188,4.556,4.22,9.006,3.552,14.528c-0.526,4.352,4.1,8.103,8.103,8.103c4.817,0,7.576-3.739,8.103-8.103
			C1936.766,2056.504,1934.61,2048.237,1930.045,2041.713z"/>
	</g>
	<path style="opacity:0.4;" d="M1783.86,2280.442c-4.808,0-7.586,3.738-8.103,8.103c-0.808,6.822-3.324,13.208-6.871,19.042
		c-5.433,8.935,8.577,17.089,13.993,8.179c5.119-8.418,7.93-17.479,9.084-27.221
		C1792.479,2284.193,1787.87,2280.442,1783.86,2280.442z"/>
	<path style="opacity:0.4;" d="M1636.214,1908.569c-3.257-6.139-8.529-11.336-14.786-14.384c-3.805-1.854-8.938-1.161-11.087,2.907
		c-1.923,3.64-1.161,9.104,2.907,11.087c1.097,0.535,2.165,1.115,3.184,1.789c0.202,0.134,1.831,1.536,0.703,0.481
		c0.445,0.416,0.918,0.801,1.356,1.225c0.438,0.423,0.863,0.86,1.271,1.314c0.081,0.089,0.574,0.717,0.795,0.982
		c0.214,0.326,0.528,0.794,0.578,0.874c0.389,0.62,0.741,1.26,1.084,1.906c1.989,3.75,7.513,5.211,11.086,2.907
		C1637.12,1917.197,1638.342,1912.58,1636.214,1908.569z"/>
	<g>
		<path style="opacity:0.4;" d="M1660.502,2201.017c-2.773-3.225-8.651-3.059-11.46,0c-3.128,3.408-2.954,7.944-0.062,11.375
			c0.001,0.003,0.002,0.007,0.003,0.01c0.009,0.013,0.018,0.025,0.027,0.038c-0.009-0.011-0.015-0.018-0.024-0.029
			c0.084,0.255,0.161,0.512,0.226,0.773c0.003,0.058,0.004,0.09,0.009,0.161c0.001,0.104-0.012,0.208-0.014,0.312
			c-0.019,0.077-0.04,0.17-0.065,0.279c-1.052,4.1,1.341,8.984,5.659,9.968c4.221,0.961,8.841-1.267,9.968-5.659
			C1666.381,2211.958,1664.678,2205.873,1660.502,2201.017z"/>
		<path style="opacity:0.4;" d="M1648.986,2212.41c-0.001-0.003-0.001-0.006-0.003-0.009
			C1648.535,2211.774,1647.941,2211.19,1648.986,2212.41z"/>
	</g>
	<path style="opacity:0.4;" d="M1652.958,2169.784c-1.635-3.856-3.27-7.712-4.905-11.568c-1.661-3.918-7.733-5.069-11.087-2.907
		c-4.075,2.627-4.684,6.894-2.907,11.087c1.635,3.856,3.27,7.712,4.905,11.568c1.661,3.918,7.733,5.069,11.087,2.907
		C1654.125,2178.244,1654.735,2173.976,1652.958,2169.784z"/>
	<g>
		<path style="opacity:0.4;" d="M1620.981,2203.075c-0.001-0.003-0.001-0.006-0.002-0.009
			C1620.531,2202.439,1619.936,2201.856,1620.981,2203.075z"/>
		<path style="opacity:0.4;" d="M1632.498,2191.682c-2.773-3.225-8.651-3.059-11.459,0c-3.128,3.407-2.954,7.943-0.062,11.375
			c0.001,0.003,0.002,0.006,0.003,0.01c0.009,0.012,0.018,0.024,0.027,0.037c-0.009-0.01-0.016-0.018-0.024-0.028
			c0.084,0.255,0.162,0.512,0.226,0.773c0.003,0.058,0.005,0.09,0.009,0.162c0.001,0.104-0.012,0.208-0.015,0.312
			c-0.019,0.077-0.04,0.169-0.065,0.278c-1.052,4.101,1.342,8.984,5.66,9.968c4.22,0.961,8.84-1.267,9.968-5.659
			C1638.377,2202.623,1636.673,2196.539,1632.498,2191.682z"/>
	</g>
	<g>
		<path style="opacity:0.4;" d="M1429.598,2316.466c2.275-5.469,4.55-10.939,6.825-16.409c1.681-4.043-1.816-8.912-5.66-9.968
			c-4.664-1.282-8.28,1.602-9.968,5.659c-2.275,5.469-4.55,10.94-6.825,16.409c-1.681,4.043,1.816,8.912,5.66,9.968
			C1424.294,2323.407,1427.91,2320.524,1429.598,2316.466z"/>
		<path style="opacity:0.4;" d="M1446.87,2320.021c-4.794,0-7.604,3.735-8.103,8.103c-0.539,4.717-3.561,9.166-7.452,11.754
			c-3.64,2.421-5.207,7.154-2.907,11.087c2.114,3.615,7.426,5.342,11.086,2.907c9.077-6.038,14.249-14.989,15.479-25.748
			C1455.47,2323.769,1450.892,2320.021,1446.87,2320.021z"/>
	</g>
	<path style="opacity:0.4;" d="M1208.497,2430.89c-4.151-2.428-8.442-0.598-11.087,2.907c-3.911,5.182-5.808,11.579-5.967,18.027
		c-0.108,4.378,3.801,8.103,8.103,8.103c4.481,0,7.995-3.71,8.103-8.103c0.036-1.473-0.017-1.513,0.22-2.506
		c0.218-0.916,0.447-1.824,0.763-2.712c0.464-1.304,1.584-3.055,2.771-4.629C1214.043,2438.48,1211.961,2432.915,1208.497,2430.89z"
		/>
	<path style="opacity:0.4;" d="M1253.164,2064.618c-2.412-4.124-7.069-4.687-11.087-2.907c-7.995,3.542-14.621,9.805-18.971,17.358
		c-5.215,9.054,8.784,17.225,13.993,8.18c3.096-5.375,7.415-9.001,13.157-11.544
		C1254.259,2073.932,1255.197,2068.094,1253.164,2064.618z"/>
	<path style="opacity:0.4;" d="M1463.504,1631.928c-3.798-1.044-9.349,1.299-9.968,5.66c-0.99,6.97-1.98,13.942-2.969,20.913
		c-0.615,4.327,1.061,8.704,5.659,9.968c3.799,1.043,9.349-1.299,9.968-5.66c0.99-6.971,1.979-13.942,2.969-20.913
		C1469.778,1637.569,1468.103,1633.192,1463.504,1631.928z"/>
</g>
</svg>
