<?xml version="1.0" encoding="utf-8"?>
<!-- Generator: Adobe Illustrator 27.5.0, SVG Export Plug-In . SVG Version: 6.00 Build 0)  -->
<svg version="1.1" id="Layer_1" xmlns="http://www.w3.org/2000/svg" xmlns:xlink="http://www.w3.org/1999/xlink" x="0px" y="0px"
	 viewBox="0 0 2000 2000" style="enable-background:new 0 0 2000 2000;" xml:space="preserve">
<g>
	<polygon style="fill:#58574B;" points="1050.32,775.348 1058.755,833.061 1070.605,882.349 1076.136,887.88 1217.594,882.349 
		1465.225,896.306 1571.922,913.962 1664.12,951.38 1730.494,1003.286 1759.213,1052.044 1753.426,1075.25 1658.057,1123.988 
		1554.531,1155.619 1471.022,1184.614 1424.932,1198.826 1318.226,1224.652 1249.205,1233.351 1217.594,1235.99 1188.63,1316.909 
		1159.901,1360.371 1136.723,1360.371 1133.829,1357.733 1116.438,1380.388 1108.005,1385.939 1087.464,1371.709 1058.755,1334.545 
		1052.948,1305.551 1055.853,1300.04 1055.853,1293.701 1096.685,1259.195 1108.005,1242.327 1108.005,1235.99 1033.195,1227.564 
		969.705,1305.551 935.2,1328.758 897.792,1334.545 880.401,1331.651 791.095,1253.644 702.055,1187.508 676.241,1175.638 
		647.267,1152.982 632.779,1146.663 629.886,1144.027 641.204,1123.988 669.922,1098.182 632.779,1089.462 543.473,1098.182 
		453.913,1135.326 316.127,1204.377 269.77,1224.652 255.54,1222.013 269.77,1181.701 347.738,1063.912 353.279,1043.363 
		344.846,1014.624 249.477,896.306 240.787,876.012 240.787,864.695 301.383,873.374 451.264,919.493 557.961,959.826 
		730.508,951.38 923.872,908.175 909.12,835.956 944.157,752.161 949.954,717.637 989.99,614.061 1016.07,668.899 1050.32,775.348 	
		"/>
	<polygon style="fill:#D5CB70;" points="1055.853,856.249 1062.17,873.374 1062.17,884.988 1004.743,688.898 989.99,654.393 
		987.096,651.499 987.096,671.774 995.787,694.449 1021.337,804.343 1038.992,879.437 1038.992,887.88 1018.699,827.531 
		992.893,726.336 981.565,691.811 978.663,688.898 975.768,688.898 975.768,706.299 995.787,778.263 1013.178,867.587 
		1016.07,893.669 1013.178,893.669 984.193,783.774 969.705,740.823 966.803,737.93 966.803,764.01 989.99,867.587 992.893,899.2 
		984.193,887.88 958.377,775.348 952.581,766.925 949.954,766.925 949.954,781.135 966.803,884.988 969.705,899.2 969.705,902.112 
		963.908,902.112 940.731,815.661 938.094,812.768 932.297,818.831 944.157,905.007 938.094,905.007 920.97,870.481 920.97,824.636 
		952.581,749.268 955.485,726.336 989.99,628.311 1038.992,752.161 1055.853,856.249 	"/>
	<polygon style="fill:#D5CB70;" points="434.139,919.493 503.17,945.593 529.252,954.019 537.676,959.826 278.195,882.349 
		275.303,879.437 266.867,879.437 263.973,882.349 298.48,902.112 526.348,971.676 529.252,971.676 531.881,974.568 
		399.112,942.701 301.383,913.962 298.48,913.962 292.947,919.493 304.277,928.193 347.738,936.638 494.737,985.906 514.49,991.437 
		410.962,971.676 330.091,951.38 324.56,956.911 341.951,968.781 448.372,991.437 497.373,1008.837 508.967,1008.837 
		511.596,1011.732 402.539,994.351 359.066,985.906 353.279,985.906 350.376,988.544 350.376,991.437 361.97,997.5 506.065,1023.05 
		396.476,1029.389 387.784,1029.389 382.253,1034.92 382.253,1037.812 465.762,1043.363 482.877,1043.363 430.725,1066.551 
		387.784,1077.868 353.279,1089.462 347.738,1095.269 347.738,1098.182 353.279,1103.694 456.805,1077.868 459.699,1077.868 
		332.996,1132.689 330.091,1132.689 327.455,1135.326 327.455,1141.112 335.888,1144.027 434.139,1103.694 497.373,1086.314 
		503.17,1080.507 511.596,1080.507 491.843,1092.377 442.575,1112.138 306.914,1175.638 306.914,1181.701 313.233,1187.508 
		364.607,1158.513 514.49,1098.182 330.091,1190.126 269.77,1216.226 263.973,1216.226 309.808,1132.689 353.279,1069.445 
		361.97,1040.727 353.279,1011.732 255.54,890.775 249.477,873.374 298.48,879.437 434.139,919.493 	"/>
	<polygon style="fill:#7E9CC3;" points="1462.332,905.007 1548.99,916.875 1652.27,954.019 1721.281,1008.837 1744.458,1040.727 
		1704.422,1052.044 1669.917,1075.25 1667.022,1077.868 1667.022,1083.419 1689.68,1083.419 1707.317,1075.25 1738.927,1072.338 
		1744.458,1072.338 1660.961,1115.032 1565.869,1144.027 1534.235,1135.326 1531.353,1138.22 1522.908,1138.22 1531.353,1112.138 
		1531.353,1106.587 1548.99,1115.032 1591.939,1106.587 1629.348,1092.377 1646.729,1092.377 1649.632,1089.462 1649.632,1083.419 
		1620.657,1083.419 1557.423,1103.694 1539.776,1098.182 1525.812,1075.25 1517.121,1058.107 1493.943,1025.962 1499.73,997.5 
		1514.484,977.206 1514.484,968.781 1511.058,965.357 1485.51,1006.201 1485.51,1034.92 1514.484,1077.868 1520.025,1092.377 
		1493.943,1112.138 1462.332,1109.501 1450.462,1095.269 1447.834,1069.445 1485.51,1072.338 1493.943,1072.338 1496.838,1069.445 
		1496.838,1063.912 1453.897,1058.107 1444.942,1054.937 1436.506,1046.257 1447.834,1017.539 1465.225,991.437 1465.225,980.099 
		1462.332,977.206 1427.807,1032.005 1424.932,1049.15 1439.135,1066.551 1442.047,1103.694 1465.225,1123.988 1502.635,1121.351 
		1520.025,1109.501 1508.165,1138.22 1462.332,1138.22 1433.614,1123.988 1415.957,1100.8 1410.436,1077.868 1422.294,1029.389 
		1471.022,942.701 1471.022,936.638 1468.129,933.725 1456.799,945.593 1436.506,985.906 1407.542,1037.812 1402.001,1083.419 
		1407.542,1109.501 1427.807,1135.326 1465.225,1150.088 1546.095,1150.088 1548.99,1152.982 1381.452,1204.377 1268.968,1227.564 
		1199.947,1227.564 1197.309,1230.457 1194.416,1213.332 1174.131,1201.738 1128.288,1201.738 1108.005,1224.652 1007.381,1219.119 
		909.12,1193.039 848.788,1161.408 736.571,1100.8 704.96,1092.377 635.407,1083.419 555.058,1083.419 540.57,1066.551 
		534.773,1029.389 540.57,1003.286 540.57,1000.394 546.101,994.351 546.101,980.099 552.43,971.676 595.371,965.357 
		707.862,959.826 837.205,933.725 932.297,916.875 995.787,908.175 1027.142,899.2 1122.501,890.775 1341.413,893.669 
		1462.332,905.007 	"/>
	<path style="fill:#D6DCE1;" d="M537.146,1044.937l82.721,5.533l98.527,5.787l144.627,34.27l121.439,17.381l121.183,17.399
		l121.439-5.787l144.637-5.807l42.665,4.213l13.424,17.401l37.418,14.762h80.871l2.894,2.894l-167.538,51.394l-112.484,23.188
		h-69.021l-2.638,2.892l-2.892-17.125l-20.285-11.594h-45.843l-20.283,22.914l-100.624-5.533l-98.261-26.08l-60.331-31.631
		L736.571,1100.8l-31.611-8.423l-69.553-8.957h-80.349l-14.488-16.869L537.146,1044.937L537.146,1044.937z M1430.443,1119.775
		l3.171,4.213l28.719,14.232l-27.667-13.7L1430.443,1119.775L1430.443,1119.775z M1507.899,1139.794l10.276-25.55l-10.01,23.976
		L1507.899,1139.794L1507.899,1139.794z M1563.23,1101.332l-23.454-3.15l17.647,5.513l63.234-20.275h28.974v6.043l-2.902,2.915
		h-17.381l-37.41,14.21l-42.949,8.445l-17.637-8.445v5.551l-8.445,26.082h8.445l2.882-2.894l31.633,8.701l95.093-28.995
		l83.497-42.695h-5.531l-31.611,2.913l-17.637,8.169h-22.658v-5.551l2.894-2.618l20.549-13.974l-12.116,0.786l-28.452,19.763
		c-21.878-0.786-27.144,11.87-45.321,2.912C1583.249,1092.377,1585.089,1101.844,1563.23,1101.332z"/>
	<polygon style="fill:#7E9CC3;" points="1371.718,1096.331 1400.683,1015.689 1209.701,1009.882 1013.434,998.288 845.63,992.481 
		729.988,1004.095 660.435,1021.475 689.419,1044.681 810.858,1062.062 1030.303,1096.331 1192.31,1107.907 	"/>
	<g>
		<path style="fill:#7E9EC6;" d="M1320.598,1089.462c8.169-22.656,16.339-45.587,24.516-68.499
			c-54.021-1.594-108.279-3.425-162.281-5.019c-55.853-3.15-111.439-6.595-167.028-9.743c-47.417-1.594-94.835-3.427-142.51-5.021
			c-32.675,3.427-65.596,6.595-98.261,9.764c-19.761,5.001-39.248,10.02-59.011,14.762c8.169,6.575,16.328,13.17,24.496,19.743
			c34.515,5.021,69.021,9.764,103.272,14.762c62.436,9.764,124.597,19.507,186.513,29.251c46.099,3.169,91.932,6.595,137.766,9.764
			C1218.912,1096.057,1269.766,1092.631,1320.598,1089.462z"/>
		<path style="fill:#7F9EC8;" d="M1269.234,1082.613c6.849-18.701,13.434-37.676,20.283-56.651
			c-44.515-1.318-89.038-2.636-133.563-3.957c-45.835-2.636-91.934-5.275-137.511-8.167c-38.994-1.32-78.242-2.638-117.226-3.957
			c-27.134,2.636-54.002,5.531-81.137,8.169c-16.073,3.955-32.399,7.911-48.472,12.124c6.585,5.275,13.434,10.806,20.285,16.083
			c28.186,4.213,56.639,8.167,84.827,12.124c51.364,8.169,102.728,16.318,153.582,24.232c37.93,2.636,75.596,5.275,113.536,7.913
			C1185.725,1087.888,1227.348,1085.25,1269.234,1082.613z"/>
		<path style="fill:#7DA0CC;" d="M1218.124,1075.762c5.277-14.762,10.542-29.505,15.807-44.525
			c-35.037-1.062-69.809-2.125-104.844-3.169c-36.092-2.106-72.181-4.213-108.271-6.319c-30.559-1.062-61.12-2.104-91.934-3.169
			c-21.345,2.106-42.419,4.213-63.754,6.339c-12.648,3.148-25.294,6.317-37.932,9.488c5.265,4.213,10.532,8.679,15.807,12.892
			c22.125,3.171,44.515,6.339,66.904,9.508c40.048,6.319,80.351,12.638,120.397,18.955c29.761,2.106,59.533,3.957,89.304,6.063
			C1152.264,1079.719,1185.193,1077.868,1218.124,1075.762z"/>
		<path style="fill:#7DA0CE;" d="M1167.026,1068.913c3.681-10.806,7.637-21.613,11.584-32.419
			c-25.55-0.768-51.11-1.574-76.392-2.362c-26.348-1.574-52.428-2.894-78.766-4.469c-22.134-0.806-44.523-1.594-66.915-2.38
			c-15.284,1.574-30.825,3.148-46.099,4.467c-9.221,2.382-18.709,4.745-27.93,7.127c3.955,3.169,7.911,6.061,11.594,9.232
			c16.337,2.362,32.409,4.467,48.736,6.829c29.241,4.765,58.481,9.232,87.466,13.976c21.603,1.594,43.195,3.169,64.798,4.743
			C1119.077,1072.082,1143.05,1070.507,1167.026,1068.913z"/>
	</g>
	<polygon style="fill:#7DA3D2;" points="1115.652,1062.062 1123.023,1041.789 1075.348,1040.194 1026.08,1037.3 984.46,1035.982 
		955.485,1038.876 938.094,1043.087 945.475,1048.874 975.768,1053.362 1030.303,1062.062 1070.871,1064.956 	"/>
	<polygon style="fill:#747E8F;" points="550.58,992.481 666.232,992.481 799.265,963.506 903.323,940.575 1047.683,905.793 
		1215.488,917.387 1307.952,917.387 1394.896,923.194 1458.12,944.275 1468.129,933.725 1471.022,936.638 1471.022,942.701 
		1468.129,947.7 1481.563,951.912 1545.317,975.1 1608.789,1009.882 1678.35,1044.681 1711.007,1050.194 1744.458,1040.727 
		1721.281,1008.837 1652.27,954.019 1548.99,916.875 1462.332,905.007 1462.332,905.007 1341.413,893.669 1122.501,890.775 
		1027.142,899.2 995.787,908.175 932.297,916.875 837.205,933.725 707.862,959.826 595.371,965.357 552.43,971.676 547.165,978.781 
			"/>
	<g>
		<path style="fill:#6C7887;" d="M1015.018,908.175l16.859-3.957l-3.947,0.256L1015.018,908.175L1015.018,908.175z
			 M1061.914,901.306l153.84,10.806h92.465l87.72,5.807l60.587,20.293l11.328-11.87l8.433,8.169v9.764l-0.256,0.256l7.383,2.638
			l64.002,23.186l63.764,34.802l68.737,34.505l30.835,5.019l25.008-7.125l-18.159-25.038l-67.703-53.757l-102.218-36.886
			l-85.88-11.594l-120.651-11.338l-218.382-2.894L1061.914,901.306L1061.914,901.306z M989.202,914.494l-56.109,7.381L838.249,939
			l-129.864,26.08l-112.484,5.531l-40.568,5.807l-2.38,3.425l1.85,7.383H665.71l132.501-28.719l104.058-23.188L989.202,914.494z"/>
		<path style="fill:#657280;" d="M1454.951,932.149l12.902-13.444l13.71,13.444v8.701l67.967,24.762l64.278,35.056l67.703,33.739
			l28.974,4.999l16.593-4.743l-13.424-18.445l-66.392-52.712l-100.9-36.376l-85.083-11.574l-120.395-11.338l-200.991-2.638
			l75.862,5.277h92.729l88.254,5.787L1454.951,932.149L1454.951,932.149z M596.423,975.888l-37.674,5.549v0.512h106.429
			l131.981-28.719l31.611-6.849l-119.597,23.974L596.423,975.888z"/>
		<path style="fill:#5E6C78;" d="M1458.898,920.555l-30.551-2.892l25.284,8.425L1458.898,920.555L1458.898,920.555z
			 M1479.977,923.194l6.861,6.849v7.107l64.788,23.462l64.544,35.314l66.915,33.463l27.144,4.487l8.159-2.382l-8.435-11.594
			l-65.33-51.904l-99.58-35.846L1479.977,923.194z"/>
		<polygon style="fill:#56636F;" points="1641.984,972.718 1543.723,937.426 1492.103,930.299 1492.103,933.469 1554.019,955.869 
			1618.543,991.181 1684.935,1024.368 1709.431,1028.345 1705.996,1023.6 		"/>
		<polygon style="fill:#4C5963;" points="1686.509,1019.369 1693.36,1020.431 1639.348,977.462 1542.681,942.425 1526.334,940.319 
			1556.115,951.124 1620.913,986.418 		"/>
		<polygon style="fill:#43525A;" points="1623.552,981.949 1658.589,999.35 1636.709,982.225 1598.78,968.249 		"/>
	</g>
	<polygon style="fill:#58574B;" points="1643.835,994.351 1640.942,1020.431 1629.348,1034.92 1612.224,1046.257 1586.134,1043.363 
		1568.761,1023.05 1568.761,991.437 1594.833,968.781 1623.552,971.676 1643.835,994.351 	"/>
	<polygon style="fill:#F4E78A;" points="1635.401,997.5 1632.517,1017.539 1609.329,1037.812 1591.939,1034.92 1574.804,1011.732 
		1577.718,991.437 1603.798,974.568 1620.657,980.099 1635.401,997.5 	"/>
	<polygon style="fill:#231F20;" points="1623.552,1003.286 1623.552,1017.539 1606.437,1029.389 1589.036,1025.962 
		1583.505,1011.732 1586.134,1000.394 1594.833,988.544 1612.224,988.544 1623.552,1003.286 	"/>
	<polygon style="fill:#7E9CC3;" points="1750.255,1061 1709.953,1066.551 1701.528,1066.551 1738.927,1052.044 1750.255,1058.107 
		1750.255,1061 	"/>
	<polygon style="fill:#58574B;" points="1378.823,1121.351 1384.364,1126.9 1390.151,1121.351 1393.301,1121.351 1396.214,1123.988 
		1364.601,1161.408 1361.166,1175.638 1361.166,1181.701 1358.274,1184.614 1355.646,1184.614 1352.733,1175.638 1289.517,1187.508 
		1246.313,1193.039 1228.922,1190.126 1183.089,1164.3 1142.52,1141.112 1130.937,1129.795 1130.937,1123.988 1165.442,1106.587 
		1231.824,1092.377 1300.845,1098.182 1378.823,1121.351 	"/>
	<polygon style="fill:#D5CB70;" points="655.956,1135.326 661.487,1141.112 702.055,1115.032 724.711,1109.501 681.772,1144.027 
		678.878,1146.663 687.579,1155.619 693.1,1146.663 730.508,1126.9 759.226,1123.988 713.383,1152.982 702.055,1164.3 
		702.055,1172.745 710.757,1172.745 745.262,1150.088 779.768,1141.112 791.095,1144.027 759.226,1161.408 736.571,1184.614 
		736.571,1190.126 739.465,1193.039 750.793,1187.508 771.076,1169.851 802.955,1161.408 825.877,1164.3 791.095,1184.614 
		768.44,1213.332 768.44,1219.119 771.076,1222.013 802.955,1193.039 828.769,1181.701 857.744,1178.807 825.877,1201.738 
		802.955,1227.564 802.955,1235.99 805.592,1239.414 848.788,1201.738 889.357,1193.039 892.259,1195.931 863.277,1216.226 
		831.664,1253.644 831.664,1256.539 837.205,1262.09 880.401,1222.013 923.872,1207.801 869.073,1264.982 863.277,1273.94 
		860.382,1276.832 860.382,1285.277 863.277,1288.17 915.437,1235.99 949.954,1219.119 903.589,1273.94 897.792,1291.064 
		897.792,1302.658 900.684,1305.551 906.225,1305.551 926.767,1268.153 963.908,1233.351 981.565,1224.652 932.297,1296.595 
		932.297,1302.658 938.094,1308.465 1004.743,1227.564 1018.699,1230.457 989.99,1271.045 944.157,1314.252 918.075,1325.59 
		889.357,1325.59 736.571,1198.826 702.055,1178.807 681.772,1169.851 655.956,1146.663 641.204,1141.112 653.064,1123.988 
		681.772,1100.8 687.579,1100.8 655.956,1135.326 	"/>
	<polygon style="fill:#D5CB70;" points="1367.495,1129.795 1370.124,1129.795 1373.036,1132.689 1295.048,1112.138 
		1205.744,1115.032 1159.901,1126.9 1157.007,1129.795 1157.007,1132.689 1272.393,1121.351 1338.511,1129.795 1228.922,1129.795 
		1177.026,1141.112 1171.229,1146.663 1177.026,1152.982 1220.496,1141.112 1361.166,1141.112 1364.601,1144.027 1237.355,1146.663 
		1199.947,1155.619 1197.309,1158.513 1197.309,1161.408 1220.496,1161.408 1318.226,1152.982 1358.274,1152.982 1255.002,1164.3 
		1231.824,1172.745 1231.824,1175.638 1237.355,1181.701 1275.297,1169.851 1346.946,1164.3 1352.733,1164.3 1355.646,1167.213 
		1252.109,1184.614 1226.027,1178.807 1188.63,1158.513 1168.334,1152.982 1142.52,1129.795 1165.442,1115.032 1226.027,1106.587 
		1318.226,1112.138 1367.495,1129.795 	"/>
	<polygon style="fill:#D5CB70;" points="1185.991,1224.652 1162.803,1293.701 1108.005,1377.514 1150.954,1302.658 
		1162.803,1271.045 1159.901,1268.153 1122.501,1331.651 1105.11,1348.777 1154.114,1271.045 1171.229,1222.013 1171.229,1219.119 
		1168.334,1216.226 1157.007,1235.99 1136.723,1285.277 1105.11,1331.651 1079.038,1351.414 1116.438,1302.658 1150.954,1235.99 
		1154.114,1222.013 1154.114,1219.119 1150.954,1216.226 1148.051,1216.226 1116.438,1279.726 1070.605,1328.758 1067.711,1328.758 
		1122.501,1264.982 1136.723,1230.457 1136.723,1222.013 1133.829,1219.119 1102.218,1273.94 1064.808,1305.551 1070.605,1293.701 
		1116.438,1245.221 1125.396,1219.119 1142.52,1210.696 1179.672,1216.226 1185.991,1224.652 	"/>
	<polygon style="fill:#231F20;" points="1162.803,1268.153 1177.026,1224.652 1165.442,1264.982 1162.803,1268.153 	"/>
	<polygon style="fill:#D5CB70;" points="1179.672,1319.803 1159.901,1345.883 1150.954,1354.308 1139.616,1351.414 
		1150.954,1325.59 1177.026,1285.277 1191.522,1239.414 1205.744,1239.414 1179.672,1319.803 	"/>
	<polygon style="fill:#7E9CC3;" points="1394.896,1009.882 1423.614,946.126 1238.675,946.126 1076.668,934.788 891.729,969.313 
		938.094,1004.095 1123.023,1021.475 1325.343,1027.282 	"/>
	<g>
		<path style="fill:#7D98BE;" d="M1365.123,999.862c8.159-18.187,16.329-36.1,24.506-54.268c-52.436,0-104.854,0-157.273,0
			c-45.843-3.169-91.942-6.593-137.786-9.762c-52.418,9.762-104.58,19.761-157.009,29.525c13.178,9.743,26.082,19.763,39.26,29.525
			c52.16,4.981,104.578,9.725,157.007,14.744c57.427,1.574,114.856,3.169,172.283,4.999
			C1325.609,1009.626,1345.36,1004.607,1365.123,999.862z"/>
		<path style="fill:#7D96BA;" d="M1335.352,989.586c6.593-14.742,13.434-29.761,20.017-44.523c-43.195,0-86.401,0-129.342,0
			c-37.93-2.638-75.604-5.277-113.546-8.169c-43.195,8.169-86.401,16.337-129.342,24.506c10.808,7.913,21.603,16.062,32.401,24.25
			c42.939,3.937,86.146,8.149,129.35,12.126c47.153,1.318,94.571,2.618,141.724,3.937
			C1302.951,997.776,1319.014,993.799,1335.352,989.586z"/>
		<path style="fill:#7C93B4;" d="M1305.324,979.587c5.531-11.868,10.798-23.462,16.063-35.056c-33.975,0-67.959,0-101.942,0
			c-29.507-2.106-59.269-4.213-89.04-6.319c-33.983,6.319-67.703,12.638-101.686,18.975c8.423,6.319,16.859,12.912,25.284,19.231
			c33.993,3.169,67.967,6.339,101.952,9.487c37.142,1.064,74.286,2.106,111.429,3.15
			C1280.03,985.906,1292.678,982.757,1305.324,979.587z"/>
		<path style="fill:#7B90AF;" d="M1275.553,969.313c3.955-8.445,7.901-16.869,11.594-25.314c-24.498,0-49.27,0-74.032,0
			c-21.593-1.574-43.197-3.148-64.798-4.743c-24.508,4.743-49.27,9.232-74.031,13.974c6.329,4.469,12.392,9.232,18.709,13.976
			c24.498,2.106,49.26,4.469,74.032,6.831c26.868,0.806,54.002,1.594,80.871,2.38
			C1257.118,974.038,1266.33,971.676,1275.553,969.313z"/>
	</g>
	<polygon style="fill:#7B8EAB;" points="1245.79,959.294 1253.162,943.487 1206.796,943.487 1166.228,940.575 1120.129,949.018 
		1131.723,957.699 1177.822,962.188 1228.4,963.506 	"/>
	<path style="fill:#FFFBD4;" d="M1618.021,1001.988c4.487,0,8.159,3.425,8.159,7.637c0,4.213-3.672,7.637-8.159,7.637
		c-4.213,0-7.913-3.425-7.913-7.637C1610.107,1005.413,1613.808,1001.988,1618.021,1001.988z"/>
	<path style="fill:#7E9CC3;" d="M1529.247,999.094l-12.392-21.632l-7.911,16.613c0,0-7.893,16.593-7.893,20.825
		c0,4.469,2.902,20.275,5.797,23.976c2.892,3.681,12.114,14.486,16.593,19.505c4.213,5.001,19.497,32.145,19.497,32.145
		s10.806,9.487,15.274,10.274c4.223,0.788,19.507-1.574,32.409-3.701c12.902-2.086,36.08-12.892,36.08-12.892l12.402-21.614
		c0,0-11.604-4.213-20.303-5.787c-8.691-1.338-41.08,0-49.782-4.233c-8.699-4.211-22.379-27.398-26.868-33.993
		C1537.936,1011.988,1530.565,1003.286,1529.247,999.094z"/>
	<g>
		<path style="fill:#97AFCB;" d="M1533.193,1011.988c-3.425-6.319-6.859-12.382-10.286-18.445
			c-2.362,4.745-4.467,9.487-6.829,13.976c0,0-6.861,14.23-6.861,17.913c0,3.681,2.638,17.125,5.011,20.293
			c2.37,3.148,10.53,12.382,14.22,16.593c3.691,4.233,16.595,27.4,16.595,27.4s9.222,7.913,12.922,8.701
			c3.67,0.53,16.593-1.32,27.646-3.15c11.072-1.83,30.559-11.062,30.559-11.062c3.701-5.807,7.115-12.126,10.53-18.189
			c0,0-9.733-3.701-17.115-5.019c-7.381-1.042-35.027,0-42.409-3.681c-7.371-3.68-19.221-23.188-22.932-28.719
			C1540.575,1023.05,1534.512,1015.689,1533.193,1011.988z"/>
		<path style="fill:#AFC2D3;" d="M1537.406,1024.92c-2.894-5.275-5.807-10.296-8.681-15.294c-1.85,3.957-3.701,7.637-5.541,11.594
			c0,0-5.541,11.594-5.541,14.762c0,2.894,2.106,14.212,3.947,16.593c2.116,2.638,8.699,10.276,11.87,13.7
			c2.892,3.701,13.424,22.676,13.424,22.676s7.647,6.575,10.806,6.831c2.905,0.55,13.7-0.768,22.656-2.342
			c9.224-1.594,25.294-9.231,25.294-9.231c2.905-5.019,5.787-9.764,8.692-14.762c0,0-8.169-3.171-14.232-4.213
			c-6.053-1.064-28.708,0-34.751-2.915c-6.063-3.148-15.817-19.231-18.709-23.974
			C1543.469,1033.875,1538.458,1027.813,1537.406,1024.92z"/>
		<path style="fill:#C8D6D6;" d="M1541.619,1037.556c-2.362-3.957-4.745-7.893-6.851-11.85c-1.574,3.15-2.892,6.043-4.479,9.213
			c0,0-4.211,9.211-4.211,11.594c0,2.36,1.574,11.062,3.169,12.912c1.574,2.126,6.583,8.169,8.955,10.806
			c2.628,2.894,10.788,17.657,10.788,17.657s6.063,5.275,8.433,5.551c2.382,0.512,10.798-0.808,17.913-1.85
			c7.125-1.318,19.763-7.125,19.763-7.125c2.362-4.213,4.477-7.893,6.849-11.85c0,0-6.327-2.382-11.072-3.169
			c-4.743-0.788-22.656,0-27.39-2.382c-4.999-2.362-12.38-15.018-14.752-18.699
			C1546.361,1044.937,1542.415,1039.938,1541.619,1037.556z"/>
		<path style="fill:#E2E7D5;" d="M1545.565,1050.47c-1.566-2.894-3.151-5.789-4.991-8.681c-1.052,2.342-2.116,4.469-3.169,6.831
			c0,0-3.171,6.593-3.171,8.187c0,1.83,1.32,8.149,2.382,9.744c1.044,1.318,5.001,5.787,6.585,7.637
			c1.84,2.106,7.903,12.912,7.903,12.912s4.221,3.701,6.061,3.937c1.84,0.276,7.903-0.51,12.904-1.318
			c5.265-1.042,14.496-5.255,14.496-5.255c1.84-2.894,3.414-5.531,5.001-8.425c0,0-4.755-1.85-8.169-2.382
			c-3.425-0.53-16.328,0-20.019-1.574c-3.415-1.85-8.955-11.082-10.53-13.7C1548.99,1055.745,1546.095,1052.318,1545.565,1050.47z"
			/>
	</g>
	<path style="fill:#FFFBD4;" d="M1549.786,1063.382l-3.148-5.275l-2.116,3.955c0,0-1.84,4.213-1.84,5.277
		c0,1.042,0.788,4.999,1.318,6.061c0.788,0.788,3.16,3.682,4.203,4.745c1.062,1.044,5.019,7.913,5.019,7.913
		s2.628,2.362,3.672,2.618c1.072,0.274,5.019-0.532,8.177-1.044c3.15-0.532,8.957-3.168,8.957-3.168l3.158-5.275
		c0,0-2.902-1.044-5.019-1.32c-2.096-0.256-10.255,0-12.638-1.042c-2.106-1.064-5.511-6.851-6.583-8.445
		C1551.902,1066.551,1550.052,1064.444,1549.786,1063.382z"/>
	<polygon style="fill:#BBC4CE;" points="1522.132,1160.62 1429.923,1174.85 1373.282,1185.402 1284.775,1196.187 1171.229,1189.082 
		1043.737,1189.082 958.91,1171.169 891.473,1150.088 820.612,1121.625 771.076,1100.27 714.181,1082.613 654.904,1085.782 
		704.96,1092.377 736.571,1100.8 848.788,1161.408 909.12,1193.039 1007.381,1219.119 1108.005,1224.652 1128.288,1201.738 
		1174.131,1201.738 1194.416,1213.332 1197.309,1230.457 1199.947,1227.564 1268.968,1227.564 1381.452,1204.377 1522.388,1161.152 
			"/>
	<path style="fill:#D6DCE1;" d="M1086.145,916.069c45.577-4.745,86.934-9.211,132.511-5.257c31.613,3.427,62.694,6.063,94.571,7.107
		c26.336,4.469,52.684,8.423,79.03,13.956c16.328,5.805,31.603,11.612,48.472,16.081v0.532c-3.691,0.786-7.115,2.636-10.806,2.106
		c-51.1-9.743-100.104-15.274-152.264-13.7c-30.295-3.169-59.535-7.913-89.562-12.656
		C1153.582,922.662,1120.395,920.025,1086.145,916.069z"/>
	<path style="fill:#C7C6B2;" d="M920.97,868.375l16.337-12.914l6.851,49.546h-6.063l-17.125-34.526V868.375L920.97,868.375z
		 M948.9,845.974l10.01-7.893l0.256-0.274l7.637,47.182l2.902,14.212v2.913h-5.797L948.9,845.974L948.9,845.974z M970.237,827.531
		l8.955-8.443l10.798,48.5l2.902,31.613l-8.699-11.32L970.237,827.531L970.237,827.531z M990.776,808.3l22.402,85.369h2.892
		l-2.892-26.082L1000,799.856L990.776,808.3L990.776,808.3z M1009.487,790.899l2.636-2.362l5.531-1.338l3.683,17.145l17.655,75.094
		v8.443l-20.293-60.35L1009.487,790.899L1009.487,790.899z M1032.409,784.05l29.761,100.938v-11.614l-6.317-17.125l0,0
		l-12.116-74.562L1032.409,784.05z"/>
	<path style="fill:#C7C6B2;" d="M435.99,920.299l-2.892,8.149l104.578,31.377l-8.423-5.807l-26.082-8.425L435.99,920.299
		L435.99,920.299z M428.353,941.637l97.995,30.039h2.904l2.628,2.892l-105.901-25.55L428.353,941.637L428.353,941.637z
		 M421.504,961.4l-1.584,4.489l-1.576,7.105l96.147,18.443l-19.753-5.531L421.504,961.4L421.504,961.4z M415.441,984.332
		l32.931,7.105l49.002,17.401h11.594l2.628,2.894l-99.049-15.807L415.441,984.332L415.441,984.332z M409.91,1006.201l-5.521,22.656
		l101.676-5.807L409.91,1006.201L409.91,1006.201z M402.539,1039.15l3.158,33.975l25.028-6.575l52.152-23.188h-17.115
		L402.539,1039.15L402.539,1039.15z M407.281,1090.271l1.054,9.743l51.364-22.146h-2.894L407.281,1090.271L407.281,1090.271z
		 M410.962,1113.202l23.178-9.508l63.234-17.381l5.797-5.807h8.425l-19.753,11.87l-49.268,19.761l-24.762,11.594L410.962,1113.202
		L410.962,1113.202z M424.672,1134.263l89.818-36.082l-85.615,42.675L424.672,1134.263z"/>
	<path style="fill:#C7C6B2;" d="M661.487,1117.413l8.968,2.106l17.125-18.719h-5.807L661.487,1117.413L661.487,1117.413z
		 M688.365,1123.988l13.956,3.425l22.39-17.911l-22.656,5.531L688.365,1123.988L688.365,1123.988z M720.764,1132.157l9.743-5.257
		l28.719-2.913l-21.335,13.72l-2.372-1.85L720.764,1132.157L720.764,1132.157z M751.589,1148.494l12.904,10.02l26.602-14.486
		l-11.328-2.915L751.589,1148.494L751.589,1148.494z M776.873,1168.533l17.657,13.956l31.347-18.189l-22.922-2.892L776.873,1168.533
		L776.873,1168.533z M805.328,1191.977l23.442-10.276l28.974-2.894l-31.867,22.932l-6.063,6.851L805.328,1191.977L805.328,1191.977z
		 M829.035,1218.863l16.339,18.701l17.903-21.337l28.983-20.295l-2.902-2.892l-40.568,8.699L829.035,1218.863L829.035,1218.863z
		 M853.797,1246.795l18.711,14.486l51.364-53.48l-43.471,14.212L853.797,1246.795L853.797,1246.795z M882.252,1269.195
		l33.185-33.205l34.517-16.871l-46.365,54.821l-3.16,9.488L882.252,1269.195L882.252,1269.195z M916.491,1286.852l10.276-18.699
		l37.142-34.802l17.657-8.699l-44.525,65.092L916.491,1286.852L916.491,1286.852z M951.794,1291.85L951.794,1291.85l25.028-8.423
		l13.168-12.382l28.708-40.589l-13.956-2.892L951.794,1291.85z"/>
	<polygon style="fill:#C7C6B2;" points="1087.72,1275.514 1092.208,1282.363 1102.218,1273.94 1133.829,1219.119 1136.723,1222.013 
		1136.723,1230.457 1122.501,1264.982 1098.791,1292.659 1100.368,1295.277 1101.43,1295.551 1116.438,1279.726 1148.051,1216.226 
		1150.954,1216.226 1154.114,1219.119 1154.114,1222.013 1150.954,1235.99 1118.544,1298.446 1126.714,1299.764 1136.723,1285.277 
		1157.007,1235.99 1168.334,1216.226 1171.229,1219.119 1171.229,1222.013 1154.114,1271.045 1135.139,1301.064 1139.892,1301.87 
		1159.901,1268.153 1162.803,1271.045 1152.528,1298.446 1162.281,1294.489 1162.803,1293.701 1185.991,1224.652 1185.991,1224.652 
		1179.672,1216.226 1142.52,1210.696 1125.396,1219.119 1116.438,1245.221 	"/>
</g>
</svg>
