<?xml version="1.0" encoding="utf-8"?>
<!-- Generator: Adobe Illustrator 27.5.0, SVG Export Plug-In . SVG Version: 6.00 Build 0)  -->
<svg version="1.1" id="Layer_1" xmlns="http://www.w3.org/2000/svg" xmlns:xlink="http://www.w3.org/1999/xlink" x="0px" y="0px"
	 viewBox="0 0 500 500" style="enable-background:new 0 0 500 500;" xml:space="preserve">
<g>
	<path style="fill:#4B4B4D;" d="M173.49,136c9.102-7.12,15.265-21.589-9.919-34.984c-25.185-13.396-24.917-34.83-18.487-42.867
		c6.431-8.038,21.434-5.626,21.434-5.626s-8.574-17.683,28.132-25.185c36.705-7.502,52.512,4.555,48.761,15.004
		c-3.751,10.449-7.502,1.072,27.06,10.985c34.562,9.913,13.933,17.643-2.678,27.174c-16.611,9.532,6.374,57.385,18.963,74.005
		C299.346,171.124,173.49,136,173.49,136z"/>
	<g style="opacity:0.2;">
		<path style="fill:#C9C9CF;" d="M189.122,35.375c36.706-7.502,52.514,4.555,48.763,15.004c-3.752,10.448-7.503,1.071,27.06,10.985
			c12.465,3.575,17.679,6.865,18.564,10.059c8.474-5.85,10.003-11.489-13.037-18.097c-34.562-9.913-30.811-0.536-27.06-10.985
			c3.751-10.449-12.056-22.505-48.761-15.004c-20.729,4.237-27.011,11.717-28.559,17.429
			C170.331,41.203,177.403,37.769,189.122,35.375z"/>
		<path style="fill:#C9C9CF;" d="M173.49,136c0,0,0.363,0.1,0.895,0.247c0.241-0.508,0.453-1.027,0.641-1.556
			C174.525,135.147,174.014,135.589,173.49,136z"/>
		<path style="fill:#C9C9CF;" d="M160.989,60.56c0,0-1.731-3.662-0.22-8.349c-4.937,0.08-11.832,1.12-15.686,5.937
			c-1.147,1.434-2.085,3.308-2.73,5.472C149.535,58.721,160.989,60.56,160.989,60.56z"/>
		<path style="fill:#C9C9CF;" d="M262.597,88.351c-0.11,0.063-0.223,0.123-0.333,0.187c-15.53,8.911,3.549,51.31,16.387,70.373
			c7.202,0.288,10.764-0.895,8.104-4.406C276.294,140.694,258.733,105.385,262.597,88.351z"/>
	</g>
	<path style="fill:#4B4B4D;" d="M241.445,108.25c-26.256,1.071-144.142-2.68-166.647,130.21s27.328,203.085,22.505,217.553
		c-4.822,14.467,9.646,12.86,26.793,6.429c17.147-6.429,75.554,15.003,135.568,12.325c60.015-2.68,69.66-11.253,98.595-11.789
		c28.936-0.535,35.902,3.751,54.657,2.143c18.754-1.606,2.679-29.47,16.076-76.625c13.396-47.154-40.724-206.299-83.593-240.594
		C302.531,113.607,260.227,107.519,241.445,108.25z"/>
	<path style="fill:#4B4B4D;" d="M241.445,108.25c-26.256,1.071-144.142-2.68-166.647,130.21s27.328,203.085,22.505,217.553
		c-4.822,14.467,9.646,12.86,26.793,6.429c17.147-6.429,75.554,15.003,135.568,12.325c60.015-2.68,69.66-11.253,98.595-11.789
		c28.936-0.535,35.902,3.751,54.657,2.143c18.754-1.606,2.679-29.47,16.076-76.625c13.396-47.154-40.724-206.299-83.593-240.594
		C302.531,113.607,260.227,107.519,241.445,108.25z"/>
	<path style="opacity:0.1;" d="M259.664,474.767c60.015-2.68,69.66-11.253,98.596-11.789c28.935-0.535,35.901,3.751,54.655,2.143
		c18.754-1.606,2.679-29.471,16.076-76.625c5.66-19.925-0.76-59.858-13.267-101.907c-0.167,10.152-0.678,17.633-1.738,19.924
		c-4.609,9.973-28.935-32.687-41.795-45.547c-12.86-12.86,1.608,10.717-3.751,55.765c-5.359,45.048-10.18,16.039-13.933,4.278
		c-3.751-11.761-32.685-34.322-40.187-48.254c-7.502-13.931-13.397,41.796-14.468,45.547c-1.072,3.751,0,0-27.864-40.189
		c-27.864-40.189-27.864-2.679-39.653,38.618c-11.788,41.297-26.256,17.646-53.048-32.724
		c-26.793-50.369-15.003-20.362-28.936-1.071c-13.931,19.29-12.325-3.751-22.505-48.761c-7.881-34.847-30.842-36.793-50.515-8.361
		c-0.939,4.078-1.795,8.28-2.534,12.648c-22.505,132.889,27.328,203.085,22.505,217.552c-4.822,14.468,9.645,12.86,26.793,6.431
		C141.243,456.011,199.65,477.446,259.664,474.767z"/>
	<g style="opacity:0.1;">
		<path d="M412.916,465.121c18.754-1.606,2.679-29.471,16.076-76.625c1.286-4.528,1.938-10.106,2.049-16.491
			c-5.037,13.09-22.078-2.452-24.554-21.554c-3.752-28.935-24.113-35.366-29.473,6.966c-5.357,42.332-20.898,40.189-26.256,24.648
			c-5.357-15.539-42.867-31.078-46.618-19.29s-14.468,38.046-27.864,43.951c-13.396,5.905-5.894-18.766-13.396-52.524
			c-7.502-33.759-6.966-15.54-25.185,24.113c-18.219,39.652-35.366,19.29-41.795,8.037c-6.431-11.253-24.113-36.438-27.328-16.611
			c-3.215,19.827-1.072,35.901-11.253,36.973c-10.182,1.071-19.291-71.803-31.079-102.883c-11.788-31.079-8.037,1.072-26.791,35.366
			c-9.595,17.545-22.539,22.674-29.036-0.608c6.257,68.824,30.313,107.16,26.892,117.422c-4.822,14.468,9.645,12.86,26.793,6.431
			c17.147-6.431,75.554,15.003,135.568,12.325c60.015-2.68,69.66-11.253,98.596-11.789
			C387.195,462.442,394.161,466.728,412.916,465.121z"/>
		<path d="M425.573,325.285c-0.581-2.816-1.202-5.665-1.866-8.555C424.121,319.4,424.688,322.207,425.573,325.285z"/>
	</g>
	<path style="opacity:0.2;" d="M423.707,400.017c-5.82-11.253-7.041,4.822-16.686,30.611c-9.645,25.788-17.683,15.203-42.6,6.362
		c-24.917-8.842-21.701-8.842-37.777,2.412c-16.074,11.253-24.917,9.645-35.366-0.804c-10.449-10.45-29.738-12.86-48.226,0
		c-18.486,12.86-44.206,21.701-50.637,17.496c-6.429-4.203-20.897-21.516-36.973-13.479c-16.074,8.039-25.721,1.608-40.187-22.505
		c-11.537-19.225-18.483-22.027-28.562-3.254c6.724,20.865,12.391,33.816,10.61,39.155c-4.822,14.468,9.645,12.86,26.793,6.431
		c17.147-6.431,75.554,15.003,135.568,12.325c60.015-2.68,69.66-11.253,98.596-11.789c28.935-0.535,35.901,3.751,54.655,2.143
		c16.757-1.436,5.764-23.883,12.777-62.275C424.785,401.721,424.094,400.765,423.707,400.017z"/>
	<g style="opacity:0.2;">
		<path d="M200.5,218.366c3.214,20.094,10.887,36.169,10.667,0c-0.218-36.169-11.471-41.796-10.667-77.162
			c0.244-10.773,1.829-21.084,4.386-30.485c-4.198,0.573-8.583,1.299-13.113,2.217c-7.648,32.07,2.556,60.001,3.878,68.457
			C197.284,191.842,197.284,198.271,200.5,218.366z"/>
		<path d="M110.732,230.422c7.737-20.899,44.711-36.169,46.318-82.789c0.31-8.965,1.615-17.442,3.601-25.348
			c-8.166,3.355-16.346,7.517-24.269,12.753c-1.481,9.729-1.94,18.469-4.249,26.259c-6.43,21.701-36.973,34.562-40.189,63.498
			c-3.214,28.936,6.431,52.245,6.431,52.245S102.993,251.32,110.732,230.422z"/>
		<path d="M314.311,211.131c1.081,20.095-3.741,21.701,1.081,20.095c4.823-1.608,8.842-39.385,0-56.264
			c-8.665-16.543-49.112-41.025-53.542-65.287c-1.365-0.211-2.694-0.401-3.987-0.563c0.376,8.425,4.372,13.257,22.38,36.913
			C306.551,180.589,313.23,191.038,314.311,211.131z"/>
	</g>
	<path style="opacity:0.2;" d="M153.032,159.49c1.395-20.228,0.523-25.782,1.185-34.382c-3.175,1.484-6.342,3.088-9.485,4.855
		c1.098,15.872,4.942,18.75-10.188,38.368c-18.286,23.71-27.954,29.517-35.567,51.039s0,34.16,0,34.16s-1.406-26.726,17.081-46.618
		C134.545,187.018,151.424,182.799,153.032,159.49z"/>
	<path style="opacity:0.2;" d="M208.491,219.17c0,0,1.451-11.088,1.302-19.888c-2.479-16.98-7.564-26.412-8.96-44.751
		c-0.458-3.138-0.877-6.352-1.184-9.711c-1.192-12.992,0.374-25.382,2.055-33.679c-2.053,0.304-4.152,0.657-6.285,1.039
		c-6.07,13.667-6.192,28.132-3.004,36.859c3.818,10.45,7.033,20.879,10.249,40.28C205.878,208.72,208.491,219.17,208.491,219.17z"/>
	<path style="opacity:0.2;" d="M289.243,150.045c17.843,17.95,26.953,24.648,26.149,37.777c-0.804,13.129,4.58,28.256,4.482,29.056
		c-0.097,0.801-9.237-16.209-10.108-33.417C308.894,166.254,289.243,150.045,289.243,150.045z"/>
	<path style="fill:#252526;" d="M265.358,96.996c-24.067-4.456-83.19,6.431-92.835,9.646c-9.646,3.214-7.93,13.507,0.908,10.981
		c8.838-2.526,21.597-4.194,52.743-7.286c31.145-3.093,41.645,0.336,43.767,0.804C272.065,111.61,276.208,99.006,265.358,96.996z"/>
	<g style="opacity:0.2;">
		<path style="fill:#252526;" d="M253.914,49.371c-11.321-2.032-13.476-0.661-12.703-2.328c0,0-0.001,0.001-0.001,0.001
			c-22.538,23.428,1.843,40.575,4.523,40.575c2.679,0-11.253-6.698-2.411-23.577C245.693,59.515,249.672,54.556,253.914,49.371z"/>
		<path style="fill:#252526;" d="M166.518,52.522c0,0-14.464-2.277-21.063,5.284C160.14,80.137,186.659,87.62,191.88,87.62
			C199.115,87.62,172.77,73.687,166.518,52.522z"/>
		<path style="fill:#252526;" d="M166.518,52.522c-0.04-0.134-0.11-0.25-0.154-0.381C166.451,52.364,166.518,52.522,166.518,52.522z
			"/>
	</g>
	<path style="opacity:0.1;fill:#C9C9CF;" d="M172.006,40.934c-11.54,15.673,20.209,37.576,29.854,41.595
		c9.645,4.018,18.687-0.403,23.71-16.277c5.024-15.874,17.572-20.898,5.17-29.136c-12.403-8.239-20.241-9.042-34.507-5.425
		C181.967,35.308,172.006,40.934,172.006,40.934z"/>
	<path style="opacity:0.1;fill:#C9C9CF;" d="M256.449,55.603c-17.892,0.72-15.004,15.473-10.18,23.711
		c4.823,8.239,3.617,10.449,12.86,1.809c9.244-8.641,22.104-13.791,22.104-13.791S266.428,55.201,256.449,55.603z"/>
	<path style="opacity:0.1;fill:#C9C9CF;" d="M148.189,61.431c-3.391,17.908-1.989,27.425,15.292,34.51
		c17.281,7.083,17.079-2.383,8.238-9.305C162.877,79.715,149.978,51.986,148.189,61.431z"/>
	<path style="opacity:0.2;fill:#C9C9CF;" d="M295.759,126.295c-20.429-7.803-15.429,6.068,8.8,18.392
		c24.23,12.325,36.553,41.261,38.697,76.626c2.143,35.365,9.646,14.468,10.717,0c1.072-14.468,24.648,23.041,36.973,46.083
		c12.325,23.041,2.143-28.936-12.86-60.551C363.082,175.23,328.58,138.832,295.759,126.295z"/>
	<path style="opacity:0.1;fill:#C9C9CF;" d="M219.264,123.651c-33.011,19.965-20.937,20.501-3.932,55.331
		c17.004,34.83,28.483,56.397,46.59,74.549c18.105,18.152,28.286,51.91,32.037,42.8c3.751-9.109,9.109-39.892,4.286-79.425
		c-4.823-39.532,2.411-41.675-17.012-66.86c-19.425-25.184-44.609-33.279-56.399-32.447
		C213.046,118.43,252.274,103.687,219.264,123.651z"/>
	<path style="opacity:0.1;fill:#C9C9CF;" d="M173.49,128.075c-15.44,7.779,2.106,27.864-11.32,57.335s-28.429,64.302-24.143,78.77
		c4.288,14.468,35.367-40.189,42.332-71.268c6.966-31.078,7.502-27.864,4.823-48.761c-2.68-20.897-15.667-16.076-15.667-16.076
		S188.929,120.298,173.49,128.075z"/>
	<path style="opacity:0.2;fill:#C9C9CF;" d="M86.693,280.256c-15.646,78.233-2.573,97.195,6.429,122.543
		c9.004,25.348,21.864,28.028,18.649,43.031c-3.215,15.004,0.651,9.645,25.511,12.325c24.858,2.679,63.439,12.324,109.522,11.788
		c46.083-0.536,17.147-3.216-15.539-6.43c-32.687-3.215-105.028-9.646-105.295-23.042c-0.266-13.396-8.304-29.799-19.557-44.102
		c-11.253-14.304-18.541-38.954-19.719-66.817C85.515,301.689,86.693,280.256,86.693,280.256z"/>
	<path style="opacity:0.2;fill:#C9C9CF;" d="M373.546,241.201c21.767,77.707,35.026,120.577,30.204,155.169
		c-4.823,34.592-37.376,59.509-42.198,60.714c-4.823,1.207,13.664,2.009,27.73,0c14.065-2.009,26.525-10.047,24.917-14.869
		c-1.608-4.823-0.804-26.123,4.019-64.302c4.822-38.178,11.248-41.922,0.803-74.75C408.576,270.334,349.773,156.332,373.546,241.201
		z"/>
</g>
</svg>
