<?xml version="1.0" encoding="utf-8"?>
<!-- Generator: Adobe Illustrator 27.5.0, SVG Export Plug-In . SVG Version: 6.00 Build 0)  -->
<svg version="1.1" id="Layer_1" xmlns="http://www.w3.org/2000/svg" xmlns:xlink="http://www.w3.org/1999/xlink" x="0px" y="0px"
	 viewBox="0 0 2320.014 2168.272" style="enable-background:new 0 0 2320.014 2168.272;" xml:space="preserve">
<g>
	<g>
		<path style="fill:#5299FF;" d="M707.111,350.741c1.598,16.943-83.699,70.668-199.447,81.583
			c-115.747,10.914-218.114-25.113-219.711-42.057c-1.599-16.943,90.939-39.527,206.687-50.443
			C610.387,328.91,705.514,333.797,707.111,350.741z"/>
		<path style="fill:#B8E7FF;" d="M576.239,1765.604c5.866,15.613,6.153,32.686,6.368,49.363c0.361,27.841,0.721,55.682,1.08,83.522
			c0.114,8.856,0.278,17.962,3.665,26.146c3.481,8.409,10.053,15.091,16.468,21.545c24.863,25.012,50.376,50.496,82.124,65.856
			c32.519,15.732,69.294,19.738,105.267,23.026c131.74,12.039,264.077,17.545,396.361,16.492
			c-129.145-31.455-259.29-70.648-368.144-146.931c-43.411-30.421-82.7-66.253-123.225-100.426
			c-27.72-23.374-56.063-46.007-84.991-67.866c-11.609-8.773-23.466-17.51-36.917-23.059c-9.141-3.77-60.806-16.011-49.317,6.716
			c2.468,4.881,24.193,11.338,29.712,15.901C564.223,1743.774,571.876,1753.991,576.239,1765.604z"/>
		<path style="fill:#D4F1FF;" d="M2181.468,1062.669c-90.886-50.859-187.103-92.188-286.562-123.09
			c-56.557-17.57-115.962-31.892-174.59-23.523c-61.912,8.841-117.692,42.344-166.562,81.367
			c-84.784,67.705-154.37,154.335-202.196,251.725c-6.132,12.486-12.755,26.04-25.18,32.289
			c-12.428,6.25-31.751-0.758-31.456-14.666c0.138-6.525,4.379-12.151,8.429-17.271c58.395-73.807,116.791-147.615,175.187-221.423
			c-44.189-30.59-103.797-1.291-148.772,28.134c-44.973,29.424-103.764,59.594-148.784,30.24
			c-14.117-9.207-24.381-23.214-33.199-37.578c-37.345-60.843-53.679-131.859-79.704-198.334
			c-7.65-19.539-16.543-39.069-26.927-57.656c-9.984-36.256-119.731-136.392-140.295-167.875
			c-33.696-51.592-86.067-87.366-132.563-127.804c-33.181-28.858-61.899-60.911-80.387-99.919l-19.309-204.767l-372.387,35.115
			l19.309,204.769c-10.871,41.776-33.09,78.632-60.291,113.184c-38.118,48.417-82.877,93.351-106.336,150.331
			c-14.317,34.773-19.967,72.492-22.996,109.975c-0.611,7.557-1.081,15.124-1.489,22.695c-1.056,3.005-2.029,6.069-2.888,9.211
			c-23.583,86.225-3.258,185.333,20.211,269.176c27.498,98.229,66.359,193.909,80.018,294.996
			c9.963,73.734,6.556,150.339,31.971,220.268c22.519,61.964,67.712,115.401,125.076,147.897
			c17.984,10.187,38.38,18.564,58.827,15.544c37.362-5.518,65.996-47.407,103.247-41.188c28.468,4.753,44.498,36.063,48.383,64.661
			s0.372,58.594,10.451,85.639c18.297,49.089,73.687,71.84,123.701,87.435c200.098,62.388,408.58,97.834,618.054,105.081
			c36.534,1.265,73.626,1.615,109.004-7.592c43.942-11.438,82.697-36.911,124.103-55.548
			c52.181-23.487,109.193-36.173,166.409-37.025c38.677-0.575,78.591,4.014,115.09-8.793
			c63.304-22.21,97.689-88.831,125.947-149.678c18.65-40.158,36.369-90.695,8.982-125.487c-6.768-8.597-16.068-15.686-19.614-26.036
			c-7.424-21.669,14.783-42.788,36.875-48.84s46.426-4.243,66.878-14.559c17.015-8.58,29.007-24.405,40.377-39.696
			c32.44-43.623,66.415-99.483,43.177-148.629c-15.503-32.787-52.521-50.91-69.404-83.009
			c-27.696-52.658,12.305-119.353,65.38-146.241c33.223-16.83,78.168-32.545,79.4-69.769
			C2235.026,1097.371,2206.819,1076.857,2181.468,1062.669z"/>
		<path style="fill:#B8E7FF;" d="M2181.468,1062.669c-90.886-50.859-187.103-92.188-286.562-123.09
			c-56.557-17.57-115.962-31.892-174.59-23.523c-61.912,8.841-117.692,42.344-166.562,81.367
			c-84.784,67.705-154.37,154.335-202.196,251.725c-6.132,12.486-12.755,26.04-25.18,32.289
			c-12.428,6.25-31.751-0.758-31.456-14.666c0.138-6.525,4.379-12.151,8.429-17.271c58.395-73.807,116.791-147.615,175.187-221.423
			c-44.189-30.59-103.797-1.291-148.772,28.134c-44.973,29.424-103.764,59.594-148.784,30.24
			c-14.117-9.207-24.381-23.214-33.199-37.578c-37.345-60.843-53.679-131.859-79.704-198.334
			c-7.65-19.539-16.543-39.069-26.927-57.656c-9.984-36.256-119.731-136.392-140.295-167.875
			c-33.696-51.592-86.067-87.366-132.563-127.804c-33.181-28.858-61.899-60.911-80.387-99.919L677.07,282.373
			c-22.534,10.046-45.065,20.1-67.582,30.184c-28.407,12.724-67.596,26.75-77.307,60.301
			c-10.127,34.991,19.437,65.074,37.367,91.683c12.254,18.184,25.749,36.464,35.724,56.039c3.298,6.471,11.772,46.78,14.245,48.371
			c-0.964,64.027-82.347,89.855-123.628,138.809c-7.027,8.332-13.255,19.246-10.021,29.655c1.917,6.171,6.837,10.888,11.774,15.057
			c46.274,39.073,107.857,53.905,160.922,83.095c53.064,29.188,101.652,85.554,87.405,144.419
			c-5.325,22.001-18.793,40.996-31.774,59.541c-122.804,175.434-226.925,363.936-310.039,561.293
			c-20.748,49.27-40.242,99.354-53.305,151.121c8.937,6.617,18.262,12.711,27.942,18.195c17.984,10.187,38.38,18.564,58.827,15.544
			c16.794-2.48,31.823-12.306,46.664-21.81c134.34-103.729,217.142-271.754,273.456-435.932
			c20.656-60.226,46.839-129.46,107.415-149.063c-15.3,61.451-33.812,122.102-55.432,181.624
			c25.733-17.408,51.468-34.815,77.201-52.221c-47.637,195.793-130.292,383.013-242.875,550.134
			c20.321,26.252,63.056,23.692,89.817,4.044c26.76-19.647,41.799-50.977,57.087-80.444
			c77.725-149.808,188.014-282.613,320.996-386.532c40.905-31.965,107.094-58.371,137.919-16.598
			c22.288,30.205,11.444,83.362,45.417,99.323c26.044,12.237,54.763-10.127,73.135-32.272
			c56.723-68.364,93.794-150.66,143.899-224.012c50.107-73.352,119.616-141.047,207.232-155.692
			c77.452-12.947,160.15,20.651,209.138,82.027c11.077,13.877,20.782,29.645,23.154,47.242c4.643,34.461-20.449,67.064-50.874,83.9
			c-30.425,16.834-65.699,21.894-99.515,29.993c-133.247,31.918-252.976,117.002-326.942,232.337
			c65.889,43.793,161.13-21.227,231.678,14.577c63.078,32.013,64.315,127.352,24.32,185.697
			c-39.995,58.343-105.973,92.039-162.907,134.014c-75.23,55.466-137.199,128.678-179.984,211.753
			c21.227-0.597,42.322-2.712,62.84-8.052c43.942-11.438,82.697-36.911,124.103-55.548c52.181-23.487,109.193-36.173,166.409-37.025
			c38.677-0.575,78.591,4.014,115.09-8.793c63.304-22.21,97.689-88.831,125.947-149.678c18.65-40.158,36.369-90.695,8.982-125.487
			c-6.768-8.597-16.068-15.686-19.614-26.036c-7.424-21.669,14.783-42.788,36.875-48.84s46.426-4.243,66.878-14.559
			c17.015-8.58,29.007-24.405,40.377-39.696c32.44-43.623,66.415-99.483,43.177-148.629c-15.503-32.787-52.521-50.91-69.404-83.009
			c-27.696-52.658,12.305-119.353,65.38-146.241c33.223-16.83,78.168-32.545,79.4-69.769
			C2235.026,1097.371,2206.819,1076.857,2181.468,1062.669z"/>
		<path style="opacity:0.26;fill:#FFFFFF;" d="M180.6,802.754c0.377,36.027,3.697,72.728,17.706,105.922
			c11.049,26.184,28.333,49.208,41.721,74.278c11.339,21.232,19.834,43.841,28.297,66.373c3.281,8.736,6.607,17.724,6.487,27.054
			c-0.138,10.495-4.61,20.365-8.442,30.136c-34.346,87.572-18.75,192.851,39.514,266.703
			c45.182-101.339,91.23-204.092,162.114-289.45c21.453-25.833,45.47-50.211,74.692-66.75c31.783-17.988,69.62-26.74,95.56-52.446
			c2.607-2.583,5.232-5.774,4.943-9.431c-0.24-3.003-2.397-5.459-4.484-7.631c-60.744-63.165-153.173-87.009-216.318-147.774
			c-14.564-14.016-28.146-32.123-26.528-52.27c1.749-21.784,20.316-37.861,37.463-51.408
			c33.466-26.439,66.933-52.877,100.398-79.314c-6.751,5.332-63.339-13.912-72.878-16.006
			c-26.238-5.762-52.475-11.522-78.711-17.285c-47.467-10.424-79.509-17.906-120.577,13.535
			C201.942,642.631,179.855,731.841,180.6,802.754z"/>
		<path style="opacity:0.26;fill:#FFFFFF;" d="M346.867,1658.463c20.212-34.749,20.781-76.967,27.862-116.54
			c14.035-78.428,54.905-149.44,100.568-214.731c45.664-65.292,96.942-126.939,136.082-196.337
			c-16.376-11.517-31.334-25.05-44.428-40.196c-19.876,34.993-39.751,69.987-59.627,104.982
			c-17.072,30.057-34.989,61.073-63.057,81.249c-21.408,15.389-47.74,23.67-67.005,41.669
			c-13.087,12.228-22.021,28.141-30.745,43.784C293.246,1457.848,226.447,1581.023,346.867,1658.463z"/>
		<path style="opacity:0.26;fill:#FFFFFF;" d="M935.904,1665.747c-27.208,16.881-57.536,34.881-67.572,65.286
			c-9.539,28.896,2.328,60.779-2.972,90.743c-6.657,37.645-38.422,64.964-68.161,88.983c117.2,66.328,256.71,76.927,391.067,86.038
			c7.038,0.478,14.42,0.895,20.822-2.067c8-3.702,12.804-11.855,17.217-19.485c22.358-38.653,47.293-75.815,74.586-111.158
			c14.044-18.185,29.247-36.341,49.478-47.234c16.51-8.892,35.309-12.366,53.759-15.72c38.226-6.949,76.452-13.899,114.679-20.849
			c46.935-8.533,98.622-19.952,126.411-58.727c2.728-3.806,5.274-8.413,4.122-12.951c-0.879-3.467-3.732-6.045-6.586-8.2
			c-26.563-20.061-62.413-21.131-95.7-21.375c-84.107-0.615-171.512-0.54-247.56,35.393c-16.609,7.848-32.604,17.385-50.312,22.272
			c-17.709,4.889-38.071,4.448-52.817-6.509c-11.374-8.449-17.829-21.803-23.86-34.625c-6.532-13.892-13.219-28.545-12.22-43.864
			c2.553-39.158,52.192-61.765,56.767-100.739c3.203-27.288-21.441-61.528-49.54-65.723c-24.767-3.696-37.925,17.866-53.132,34.064
			C1061.527,1575.594,1001.531,1625.027,935.904,1665.747z"/>
		<path style="opacity:0.26;fill:#FFFFFF;" d="M1573.499,1235.991c9.702-13.427,19.785-27.021,33.394-36.463
			c20.992-14.563,48.307-17.548,73.545-13.589c25.24,3.959,48.99,14.228,72.425,24.404c5.164,2.241,11.242,5.932,10.7,11.536
			c-0.249,2.572-1.933,4.754-3.633,6.701c-20.086,23.008-52.683,34.353-82.711,28.785c-20.693-3.835-43.076-14.759-61.354-4.328
			c-7.287,4.158-12.449,11.136-17.391,17.913c-45.789,62.786-91.577,125.573-137.367,188.359
			c-10.247,14.054-21.17,28.674-36.937,36.016c11.573-45.017,41.226-87.676,57.84-124.549
			C1503.309,1323.511,1543.198,1277.922,1573.499,1235.991z"/>
		<g>
			<path style="fill:#A4D4FF;" d="M1893.808,939.867c-4.246-1.32-8.511-2.617-12.788-3.892
				c12.448,8.609,24.419,17.999,35.911,27.481c39.29,32.419,76.639,67.19,111.779,104.064c12.104,12.702,24.772,27.952,23.07,45.413
				c-1.749,17.964-17.787,30.459-30.54,43.231c-42.526,42.594-56.622,111.137-34.354,167.056
				c8.438,21.191,21.54,40.518,27.648,62.495c6.109,21.976,3.191,48.941-15.154,62.496c-11.425,8.443-26.373,10.01-40.534,11.136
				c-95.762,7.607-192.075,8.25-287.931,1.919c-4.267,27.715,23.612,50.33,50.731,57.462c27.12,7.131,56.627,5.637,81.973,17.635
				c47.794,22.623,62.563,82.271,71.811,134.332c7.581,42.686,14.883,88.212-2.015,128.137
				c-16.872,39.863-54.419,66.182-86.667,95.059c-31.319,28.045-58.79,60.314-81.723,95.546c11.583-1.145,23.212-1.834,34.849-2.008
				c38.677-0.575,78.591,4.014,115.092-8.792c63.304-22.21,97.689-88.831,125.947-149.678c18.65-40.159,36.369-90.695,8.98-125.488
				c-6.766-8.596-16.067-15.685-19.613-26.035c-7.424-21.669,14.782-42.786,36.874-48.839c22.091-6.054,46.425-4.246,66.878-14.559
				c17.015-8.581,29.006-24.407,40.378-39.698c32.438-43.623,66.414-99.481,43.177-148.628
				c-15.503-32.787-52.523-50.911-69.405-83.007c-27.696-52.659,12.304-119.355,65.381-146.243
				c33.224-16.83,78.168-32.545,79.4-69.769c0.96-29.035-27.245-49.55-52.598-63.737
				C2089.482,1012.097,1993.267,970.769,1893.808,939.867z"/>
			<path style="fill:#A4D4FF;" d="M635.66,1455.564c34.988-114.752,92.263-222.662,167.693-315.949
				c11.914-14.732,25.615-29.943,44.116-34.031c39.925-8.823,69.246,36.607,81.817,75.515
				c12.571,38.907,29.809,86.478,70.325,91.987c23.383,3.18,45.546-9.957,65.489-22.573c48.773-30.849,97.544-61.699,146.316-92.549
				c12.835-8.119,30.231-16.097,41.979-6.472c12.307,10.08,6.675,30.015-1.793,43.483c-36.459,57.99-102.273,89.024-162.231,122.151
				c-59.958,33.128-121.872,77.465-137.853,144.077c51.435-39.054,102.869-78.107,154.304-117.162
				c24.212-18.384,49.651-37.323,79.574-42.695c29.923-5.372,65.505,7.591,75.44,36.323c3.435,9.931,3.645,20.987,8.697,30.199
				c11.835,21.586,45.003,21.709,64.737,6.993c19.734-14.715,29.703-38.719,40.106-61.029
				c53.483-114.716,139.116-210.831,223.535-305.135c28.734-32.1,60.757-65.731,97.219-87.623
				c-52.363,13.02-100.027,42.74-142.472,76.636c-84.786,67.704-154.371,154.334-202.198,251.724
				c-6.131,12.486-12.754,26.041-25.18,32.289c-12.428,6.25-31.749-0.757-31.454-14.665c0.136-6.526,4.379-12.152,8.429-17.271
				c58.395-73.807,116.79-147.615,175.186-221.424c-44.189-30.59-103.797-1.291-148.772,28.134
				c-44.972,29.424-103.764,59.594-148.783,30.241c-14.119-9.208-24.384-23.213-33.199-37.578
				c-37.346-60.841-53.68-131.859-79.706-198.335c-7.65-19.539-16.543-39.069-26.927-57.656
				c-9.983-36.255-119.729-136.392-140.295-167.875c-33.696-51.592-86.065-87.365-132.563-127.804
				c-33.18-28.857-61.898-60.91-80.387-99.919l-10.835-114.911c-20.917,9.325-41.831,18.66-62.734,28.019
				c-5.665,54.092,38.534,126.757,58.743,166.537c35.163,69.206,79.647,133.699,132.018,191.005
				c89.221,97.629,207.209,186.079,227.255,316.806c0.915,5.96,1.379,12.752-2.573,17.301c-3.493,4.024-9.336,4.938-14.662,5.026
				c-55.843,0.924-92.966-55.765-141.393-83.587c-9.655-5.548-20.565-10.096-31.628-8.812
				c-22.274,2.583-34.847,26.218-43.574,46.873c-63.572,150.489-124.705,302.007-183.368,454.476
				c-23.254,60.44-46.47,123.035-44.207,187.753C607.04,1563.997,619.718,1507.853,635.66,1455.564z"/>
		</g>
		<path style="fill:#A4D4FF;" d="M897.721,1464.779c-13.288,10.641-17.911,28.452-22.653,44.802
			c-34.322,118.311-112.396,218.014-174.093,324.64c-2.123,3.671-4.168,8.53-1.499,11.824c4.036,4.982,11.778-0.39,15.563-5.563
			c42.677-58.324,76.076-122.611,113.2-184.441c38.522-64.158,82.674-115.768,134.747-168.607
			C949.583,1471.052,918.82,1447.886,897.721,1464.779z"/>
		<path style="fill:#A4D4FF;" d="M593.585,682.941c-14.82,2.802-29.843,7.973-40.405,18.738
			c-10.562,10.765-15.381,28.239-8.043,41.415c7.998,14.363,26.22,18.698,42.318,22.042
			c119.781,24.882,234.639,73.246,336.141,141.543c-65.579-57.355-134.172-116.383-218.075-139.851
			c-38.257-10.7-79.663-14.022-113.22-35.281c-3.389-2.147-6.865-4.714-8.175-8.504c-2.088-6.045,2.498-12.759,8.367-15.294
			c5.87-2.536,12.555-1.986,18.915-1.334c76.544,7.849,157.497,26.453,210.161,82.55c-30.023-31.98-71.16-57.136-106.671-82.309
			C681.043,682.66,633.804,675.337,593.585,682.941z"/>
		<path style="fill:#B8E7FF;" d="M1313.818,1891.65c6.723-10.385,13.82-20.966,24.046-27.93c8.797-5.988,19.304-8.87,29.685-11.211
			c43.054-9.701,87.573-11.74,130.544-21.809c48.764-11.427,94.671-33.02,137.601-58.818c-3.796,7.271-10.542,12.463-17.08,17.414
			c-34.318,25.984-69.022,52.198-108.346,69.704c-29.404,13.088-61.067,21.083-93.159,23.524c-10.058,0.763-20.988,1.3-28.669,7.839
			c-4.678,3.983-7.474,9.685-10.144,15.218c-14.107,29.239-28.213,58.477-42.318,87.718c-3.513,7.28-7.238,14.83-13.627,19.783
			c-4.752,3.684-10.59,5.618-16.305,7.487c-48.473,15.855-98.7,31.916-149.44,26.777c9.985,0.916,32.118-13.827,42.181-17.561
			c14.975-5.557,30.26-10.022,45.436-14.909c-1.186-0.767-2.39-1.332-3.543-2.069
			C1258.243,1970.808,1289.062,1929.889,1313.818,1891.65z"/>
		<g>
			<path style="fill:#8DC4FF;" d="M2002.275,1623.406c21.495-5.89,45.1-4.37,65.199-13.782c-7.774-0.525-15.505-1.829-22.926-3.804
				c-29.953-7.97-56.463-25.116-83.474-40.321c-47.846-26.936-98.768-48.402-151.46-63.849
				c43.887,17.547,93.918,42.268,102.266,88.788c3.547,19.767-1.512,40.128,0.303,60.128c4.241,46.727,44.728,84.138,49.071,130.855
				c2.268,24.398-5.678,48.613-6.089,73.111c-0.058,3.521,0.126,7.117,0.543,10.714c7.259-13.735,13.951-27.752,20.325-41.479
				c18.65-40.159,36.369-90.695,8.982-125.487c-6.768-8.597-16.068-15.686-19.614-26.036
				C1957.976,1650.576,1980.183,1629.458,2002.275,1623.406z"/>
			<path style="fill:#8DC4FF;" d="M2147.567,1191.868c-41.867,8.409-83.734,16.816-125.602,25.224
				c13.896,63.236,44.776,122.655,88.537,170.369c16.055,17.505,34.377,34.375,41.88,56.911c3.651,10.968,4.478,22.637,5.21,34.18
				c4.503-19.619,3.968-39.311-4.884-58.031c-15.503-32.787-52.522-50.91-69.405-83.007
				C2055.804,1285.229,2095.053,1219.122,2147.567,1191.868z"/>
		</g>
		<g>
			<path style="fill:#8DC4FF;" d="M854.321,975.362c36.899,67.682,86.836,128.223,146.263,177.323
				c7.908,6.533,16.281,13.022,26.183,15.697c11.132,3.011,22.929,0.882,34.262-1.26c77.008-14.554,158.57-31.537,220.098-77.649
				c-33.9,15.287-69.778,21.983-99.61,2.53c-14.118-9.205-24.382-23.212-33.2-37.578c-37.346-60.841-53.68-131.857-79.705-198.334
				c-7.65-19.539-16.543-39.069-26.928-57.655c-9.984-36.256-119.731-136.392-140.295-167.875
				c-33.696-51.592-86.066-87.366-132.563-127.804c-33.181-28.858-61.897-60.912-80.387-99.919l-8.331-88.345
				c-2.264,11.06-4.507,21.88-7.135,31.897c-3.587,13.671-7.204,27.709-5.735,41.765c1.776,16.972,10.772,32.243,20.02,46.584
				C804.089,615.93,994.957,747.578,1079,946.114c12.1,28.588,21.917,59.676,16.842,90.301
				c-5.074,30.628-29.199,60.01-60.203,61.591c-25.792,1.315-48.47-15.754-68.591-31.944
				C929.472,1035.829,891.898,1005.595,854.321,975.362z"/>
			<path style="fill:#8DC4FF;" d="M1186.219,1301.153c4.713-0.844,9.569-1.235,14.442-1.181c18.193-6.084,36.504-6.62,50.908,5.318
				c21.081,17.47,21.784,54.63,46.906,65.523c43.611-93.575,93.785-184.088,150.009-270.674
				c-38.214,45.576-70.984,95.719-97.202,149.105c-6.131,12.487-12.753,26.04-25.181,32.29c-12.428,6.25-31.749-0.757-31.454-14.665
				c0.136-6.526,4.379-12.152,8.429-17.271c58.395-73.806,116.79-147.615,175.186-221.423c-1.099-0.76-2.213-1.456-3.331-2.142
				c-7.934,28.974-46.472,43.632-74.15,61.168c-45.924,29.097-70.504,81.668-107.133,121.844
				c-78.24,85.811-209.939,113.604-279.251,204.846c30.75-23.347,61.498-46.695,92.249-70.043
				C1130.858,1325.464,1156.297,1306.525,1186.219,1301.153z"/>
		</g>
		<path style="fill:#5AB8FF;" d="M266.099,148.397l19.041,201.912c2.295,24.35,97.988,35.24,213.736,24.325
			c115.749-10.914,207.72-39.501,205.422-63.851l-19.04-201.913L266.099,148.397z"/>
		<path style="fill:#5AB8FF;" d="M501.559,413.207c-115.748,10.915-211.441,0.023-213.737-24.326l3.013,31.947
			c2.297,24.351,97.99,35.241,213.737,24.326c115.748-10.915,207.718-39.502,205.422-63.851l-3.012-31.949
			C709.277,373.705,617.307,402.292,501.559,413.207z"/>
		<path style="fill:#50ACFF;" d="M461.846,361.989c-33.755,8.551-68.676,10.751-103.301,14.806
			c37.556,3.349,86.362,2.928,139.384-2.073c115.749-10.914,207.72-39.501,205.422-63.851l-19.04-201.913l-146.115,13.779
			c-11.659,6.433-23.32,12.865-34.979,19.298l4.381,11.031c17.974,12.431,42.262,16.356,55.601,33.665
			c3.516,4.564,6.035,9.824,8.092,15.206c10.73,28.069,8.914,60.673-4.865,87.376C546.359,328.204,504.268,351.241,461.846,361.989z
			"/>
		<path style="fill:#4D96FF;" d="M664.963,110.785l19.04,201.913c2.227,23.633-84.355,51.259-195.288,62.843
			c3.368-0.284,6.756-0.585,10.161-0.907c115.749-10.914,207.72-39.501,205.422-63.851l-19.04-201.913L664.963,110.785z"/>
		<path style="fill:#64CBFF;" d="M685.258,108.87c2.297,24.349-89.674,52.938-205.421,63.852
			c-115.749,10.914-211.442,0.024-213.738-24.325c-2.297-24.351,89.674-52.937,205.423-63.852
			C587.269,73.63,682.963,84.52,685.258,108.87z"/>
		<path style="opacity:0.28;fill:#FFFFFF;" d="M323.947,144.523c-1.827-19.377,79.148-42.861,180.86-52.452
			c23.799-2.245,46.623-3.529,67.652-3.932c-30.236-1.16-66.784-0.07-105.98,3.626c-101.713,9.593-182.687,33.075-180.86,52.452
			c1.401,14.844,50.981,22.971,119.826,21.651C357.22,164.016,325.07,156.433,323.947,144.523z"/>
		<g>
			<path style="fill:#50ACFF;" d="M279.755,176.38c-4.994,12.299-0.389,29.991,0.695,43.034c1.154,13.874,2.596,27.742,4.057,41.585
				c1.567,14.841,3.284,29.666,4.76,44.515c1.297,13.053-0.186,31.224,6.592,42.634c1.586,2.669,5.425,2.43,6.508-0.546
				c4.297-11.829-0.08-27.567-1.184-39.881c-1.43-15.93-2.621-31.877-3.939-47.816c-1.146-13.873-2.331-27.762-3.76-41.61
				c-1.333-12.91-0.219-31.385-7.354-42.451C284.457,173.248,280.936,173.468,279.755,176.38L279.755,176.38z"/>
		</g>
		<g>
			<path style="fill:#50ACFF;" d="M313.304,189.623c-4.392,10.687-1.582,24.158-0.586,35.409
				c1.331,15.037,2.783,30.062,4.175,45.093c1.32,14.238,2.638,28.477,3.956,42.718c1.335,14.409,0.724,31.122,5.159,44.878
				c1.991,6.176,10.457,5.649,11.282-0.968c1.598-12.789-1.554-26.799-2.785-39.614c-1.442-15.018-2.884-30.039-4.325-45.059
				c-1.366-14.227-2.732-28.457-4.098-42.687c-1.216-12.674-0.596-29.269-7.705-40.196
				C317.035,187.133,314.256,187.306,313.304,189.623L313.304,189.623z"/>
		</g>
		<g>
			<path style="fill:#50ACFF;" d="M349.432,191.773c-5.104,12.078-1.43,27.879-0.41,40.629c1.117,13.978,2.331,27.933,3.679,41.891
				c1.367,14.137,2.638,28.287,4.129,42.412c1.592,15.068,1.348,32.456,6.066,46.803c1.906,5.79,9.774,5.303,10.587-0.909
				c1.867-14.263-1.446-30.346-2.606-44.728c-1.128-13.975-2.496-27.932-3.78-41.892c-1.301-14.145-2.674-28.272-4.209-42.394
				c-1.457-13.396-0.613-30.759-8.252-42.247C353.233,189.224,350.437,189.398,349.432,191.773L349.432,191.773z"/>
		</g>
		<g>
			<path style="fill:#50ACFF;" d="M387.09,195.249c-1.717,6.05-3.409,10.268-3.266,16.691c0.159,7.167,0.992,14.328,1.604,21.472
				c1.136,13.26,2.217,26.524,3.513,39.769c2.793,28.551,4.116,57.42,11.724,85.178c0.736,2.687,4.646,2.433,4.874-0.419
				c2.205-27.649-1.63-55.067-4.112-82.597c-1.22-13.532-2.617-27.042-4.009-40.556c-0.734-7.122-1.195-14.357-2.242-21.445
				c-1.129-7.644-3.444-11.536-6.785-18.202C388.119,194.6,387.257,194.653,387.09,195.249L387.09,195.249z"/>
		</g>
		<g>
			<path style="fill:#50ACFF;" d="M422.167,191.795c-4.296,11.865-1.878,25.161-0.793,37.486
				c1.312,14.899,2.573,29.801,3.934,44.694c2.716,29.721,5.263,59.519,9.168,89.107c0.93,7.057,12.947,6.142,12.534-1.076
				c-1.64-28.837-4.647-57.596-7.363-86.35c-1.331-14.085-2.804-28.158-4.22-42.235c-1.392-13.835-1.074-29.818-8.316-42.04
				C425.91,189.351,422.985,189.534,422.167,191.795L422.167,191.795z"/>
		</g>
		<g>
			<path style="fill:#50ACFF;" d="M455.835,194.179c-4.243,11.944-1.983,26.191-0.978,38.611
				c1.143,14.137,2.315,28.262,3.681,42.378c1.382,14.281,2.765,28.56,4.149,42.839c1.413,14.59,1.242,30.945,5.912,44.884
				c2.067,6.166,10.378,5.654,11.283-0.97c1.759-12.887-0.903-26.974-2.089-39.906c-1.386-15.088-2.77-30.177-4.155-45.267
				c-1.311-14.284-2.756-28.546-4.292-42.805c-1.405-13.041-1.694-28.656-8.436-40.191
				C459.692,191.668,456.659,191.856,455.835,194.179L455.835,194.179z"/>
		</g>
		<g>
			<path style="fill:#50ACFF;" d="M490.168,194.427c-7.31,5.802-3.808,17.388-3.187,25.695c1.124,15.084,2.639,30.148,3.957,45.217
				c2.562,29.256,4.339,58.812,8.386,87.905c0.981,7.049,12.896,6.148,12.535-1.077c-1.413-28.302-5.008-56.627-7.858-84.816
				c-1.438-14.238-2.877-28.475-4.317-42.714c-0.923-9.13,0.723-25.42-8.495-30.291C490.839,194.161,490.48,194.178,490.168,194.427
				L490.168,194.427z"/>
		</g>
		<g>
			<path style="fill:#50ACFF;" d="M520.456,189.892c-6.8,24.057,0.3,53.531,2.555,77.997c2.607,28.306,3.497,57.03,12.861,83.934
				c0.953,2.735,4.578,2.515,5.016-0.43c4.046-27.256-0.126-54.598-2.767-81.967c-1.29-13.372-2.58-26.743-3.87-40.115
				c-1.302-13.485-2.325-27.592-8.461-39.867C524.685,187.229,521.146,187.45,520.456,189.892L520.456,189.892z"/>
		</g>
		<g>
			<path style="fill:#50ACFF;" d="M549.959,197.819c-4.541,7.276-2.406,15.504-1.708,23.743c0.885,10.479,1.813,20.948,2.824,31.416
				c1.92,19.925,0.728,43.98,8.956,62.397c0.825,1.848,3.947,1.652,4.425-0.371c4.433-18.793-0.791-40.633-2.545-59.66
				c-0.994-10.79-2.025-21.576-3.147-32.355c-0.912-8.778-0.098-18.608-6.344-25.366C551.744,196.893,550.5,196.951,549.959,197.819
				L549.959,197.819z"/>
		</g>
		<path style="fill:#B8E7FF;" d="M89.89,941.923c-4.397,32.009-6.675,65.027,1.539,96.273c6.712,25.525,20.103,48.683,32.495,71.986
			c26.912,50.608,49.707,103.403,68.091,157.694c-25.062-73.427-32.311-151.508-46.458-227.793
			c-7.345-39.594-16.599-78.979-19.575-119.139c-3.581-48.348,2.006-96.854,7.586-145.011c2.633-22.732,5.981-45.358,8.854-68.044
			C121.685,784.559,100.71,863.149,89.89,941.923z"/>
		<path style="opacity:0.63;fill:#FFFFFF;" d="M202.452,796.399c-0.151,7.431-0.094,14.933,1.472,22.2
			c1.916,8.885,6.024,17.123,10.093,25.252c40.588,81.085,81.176,162.171,121.764,243.256c13.935-18.217,27.87-36.433,41.805-54.65
			c-42.195-68.811-74.357-143.762-95.152-221.754c-0.911-3.414-1.641-7.521,0.786-10.087c1.882-1.991,4.928-2.2,7.666-2.257
			c24.614-0.509,49.265,0.801,73.686,3.915c0.792-14.456,1.206-30.247-7.463-41.842c-12.71-17.003-39.152-17.487-53.685-32.962
			c-1.627-1.732-3.14-3.796-3.26-6.169c-0.137-2.715,1.561-5.144,3.224-7.295c25.917-33.536,62.594-58.623,103.244-70.622
			c-8.036,2.373-31.223-8.996-40.482-10.911c-14.671-3.034-29.536-5.137-44.475-6.296c-20.928-1.622-46.651-6.26-63.29,8.657
			C216.307,672.559,203.542,743.014,202.452,796.399z"/>
		<path style="opacity:0.63;fill:#FFFFFF;" d="M345.638,1601.989c2.146-63.522,8.139-128.536,35.36-185.968
			c22.253-46.95,57.495-86.295,92.248-124.918c38.543-42.835,77.088-85.67,115.631-128.505
			c-38.527,42.364-77.054,84.728-115.579,127.093c-10.76,11.831-21.827,23.904-35.988,31.337
			c-11.373,5.969-24.21,8.647-35.748,14.291c-15.468,7.566-14.734,18.524-24.217,29.296c-5.793,6.58-13.64,7.527-19.684,15.14
			c-15.313,19.282-24.303,47.156-29.718,70.749C316.351,1501.009,321.785,1555.747,345.638,1601.989z"/>
		<path style="opacity:0.63;fill:#FFFFFF;" d="M912.104,1856.903c-3.002,12.224-12.959,27.316-24.359,21.98
			c24.681,36.164,70.66,50.803,113.942,57.408c63.279,9.656,128.373,7.273,190.778-6.982c-9.77-12.476-16.966-26.961-21.001-42.285
			c-1.779-6.749-2.265-15.403,3.589-19.206c3.522-2.29,8.062-1.856,12.25-2.164c18.217-1.341,31.313-17.176,44.491-29.827
			c29.09-27.927,68.579-44.763,108.87-46.42c-14.48-9.832-33.323-9.501-50.812-8.806c-48.778,1.942-97.555,3.882-146.331,5.823
			c-4.377,0.174-9.048,0.447-12.569,3.055c-3.958,2.93-5.475,8.062-6.623,12.849c-3.518,14.689-6.17,30.385-15.87,41.963
			c-11.92,14.227-32.322,18.947-50.727,16.557c-18.407-2.391-35.404-10.809-52.008-19.104c-9.509-4.751-19.85-10.409-23.406-20.427
			c-2.17-6.112-1.372-12.89,0.298-19.157c10.048-37.723,47.108-60.279,76.678-85.765c47.621-41.046,80.986-98.326,93.195-159.997
			c-36.202,35.42-72.405,70.838-108.608,106.257c-16.011,15.664-32.515,31.666-53.064,40.576
			c-29.239,12.679-58.424,14.821-70.148,48.707C910.048,1782.625,920.237,1823.792,912.104,1856.903z"/>
		<path style="opacity:0.63;fill:#FFFFFF;" d="M766.219,1347.057c-8.319,37.447-4.642,76.685-12.033,114.327
			c-4.747,24.182-13.967,47.216-22.733,70.25c-36.649,96.299-66.126,195.149-95.567,293.891
			c28.484-84.229,68.375-164.069,108.136-243.599c28.857-57.719,57.714-115.44,86.572-173.16
			c-13.289,3.435-25.951,9.278-37.187,17.16c-14.661-18.705-11.425-45.394-6.364-68.616c10.361-47.533,25.319-94.063,44.596-138.73
			c-4.161,9.805-16.058,17.472-21.699,26.721c-5.316,8.719-9.325,19.512-14.257,28.702
			C783.245,1297.184,771.953,1321.249,766.219,1347.057z"/>
		<path style="fill:#B8E7FF;" d="M1266.443,1398.68c2.433,9.018,1.832,18.548,0.992,27.85c-1.827,20.229-4.699,40.364-8.601,60.297
			c-5.723,29.225-13.384,60.903-0.219,87.617c8.684,17.624,25.633,30.809,31.295,49.623c4.743,15.761,2.793,36.68,17.348,44.366
			c5.205,2.75,11.352,2.868,17.237,2.859c55.844-0.082,111.679-5.894,166.341-17.318c-40.35,1.679-80.991-3.8-119.458-16.107
			c-4.557-1.459-9.325-3.173-12.386-6.849c-2.495-2.999-3.525-6.918-4.484-10.701c-6.325-24.896-12.294-52.788,0.539-75.041
			c7.712-13.375,21.508-23.028,26.732-37.557c3.044-8.464,2.823-17.688,3.248-26.671c2.238-47.529,23.276-92.058,46.75-133.445
			c23.474-41.387,50.002-81.621,65.039-126.765c-52.025,50.581-79.587,121.894-130.214,173.874
			c-14.191,14.568-31.371,28.04-51.601,30.126c-9.43,0.972-20.208-1.352-25.346-9.32c-4.374-6.786-3.469-15.639-6-23.305
			c-4.233-12.826-17.339-20.494-30.11-24.889c-11.376-3.915-25.041-5.83-34.522-13.324
			C1238.463,1360.491,1260.886,1378.074,1266.443,1398.68z"/>
		<path style="fill:#B8E7FF;" d="M693.309,911.01c-0.605,19.025-8.849,36.934-18.049,53.598
			c-6.128,11.104-13.01,22.223-23.198,29.779c-10.837,8.037-24.446,11.329-36.122,18.093c-16.84,9.757-28.718,26.125-43.978,38.208
			c-19.275,15.263-43.418,23.288-63.044,38.099c-46.847,35.356-58.077,99.768-86.345,151.204
			c36.909-67.167,79.042-134.588,142.428-177.665c14.434-9.808,31.485-18.531,48.628-15.271c5.922,1.126,11.577,3.659,17.592,4.073
			c26.156,1.802,43.626-35.279,69.59-31.657c1.426,17.814-4.63,35.281-10.599,52.127c-12.385,34.953-24.77,69.909-37.155,104.863
			c56.5-69.272,80.171-160.718,136.367-230.236c8.266-10.227,17.75-23.489,11.822-35.228c-2.098-4.155-5.845-7.193-9.514-10.054
			c-58.52-45.635-125.761-80.049-197.003-100.824C635.311,826.214,695.152,853.128,693.309,911.01z"/>
		<path style="fill:#A4D4FF;" d="M727.505,969.746c16.24-16.202,28.156-38.15,27.206-61.07
			c-0.998-24.091-16.085-45.839-35.146-60.605c-19.062-14.767-41.905-23.661-64.395-32.358
			c37.914,11.663,73.792,29.92,105.537,53.71c8.318,6.234,16.457,12.95,22.5,21.406c6.043,8.459,9.858,18.912,8.606,29.232
			c-1.016,8.367-5.208,15.967-9.316,23.326c-6.059,10.847-12.233,21.852-21.057,30.6c-10.547,10.458-24.24,17.061-37.857,22.992
			c-27.049,11.782-55.001,21.692-83.835,27.941c14.065-3.585,28.567-14.3,40.959-21.86
			C697.18,993.011,713.724,983.494,727.505,969.746z"/>
		<path style="fill:#A4D4FF;" d="M1723.485,987.764c17.295-0.607,34.018,5.831,49.772,12.992
			c42.597,19.361,82.226,44.709,120.234,71.998c32.609,23.41,65.497,48.955,104.665,57.746
			c-70.842-47.159-124.795-115.525-191.243-168.695c-18.942-15.156-40.94-29.702-65.17-28.503
			c-16.792,0.833-32.247,9.216-46.21,18.581c-49.149,32.97-87.293,79.864-120.734,128.692c15.22-22.223,46.42-43.76,68.747-59.245
			C1665.835,1005.87,1695.901,988.732,1723.485,987.764z"/>
	</g>
	<path style="fill:#8DC4FF;" d="M1411.875,1034.74c4.926,9.645,2.8,21.469-1.573,31.377c-5.938,13.458-15.577,24.88-24.957,36.213
		c-21.92,26.486-43.113,53.573-63.545,81.223c-13.55,18.336-26.832,37.03-36.799,57.536c-7.266,14.95-12.821,32.024-6.498,48.039
		c3.224,8.164,9.828,14.755,18.256,17.209c12.829,3.733,21.758-3.797,29.285-11.554c25.058-25.817,42.236-58.034,61.031-88.711
		c36.567-59.682,80.174-114.742,125.442-168.126c23.584-27.812,58.192-51.787,87.432-74.285
		c-31.482,13.607-66.245,31.714-98.648,39.689c-20.352,5.01-41.563,4.825-62.44,6.678c-20.51,1.819-42.953,8.805-59.417,18.413
		c5.817-2.249,11.123-4.903,15.901-4.571C1402.121,1024.338,1408.782,1028.687,1411.875,1034.74z"/>
</g>
</svg>
