<?xml version="1.0" encoding="utf-8"?>
<!-- Generator: Adobe Illustrator 27.5.0, SVG Export Plug-In . SVG Version: 6.00 Build 0)  -->
<svg version="1.1" id="Layer_1" xmlns="http://www.w3.org/2000/svg" xmlns:xlink="http://www.w3.org/1999/xlink" x="0px" y="0px"
	 viewBox="0 0 500 500" style="enable-background:new 0 0 500 500;" xml:space="preserve">
<g>
	<path style="fill:#FCB55B;" d="M296.553,25.623l-71.701,45.924c-29.652,19.029-43.241,54.62-33.814,88.56l86.835,312.659
		c0.685,2.464,6.623,2.966,13.265,1.122c6.64-1.845,11.47-5.337,10.786-7.801c-0.01-0.036-0.046-0.062-0.059-0.098l-86.807-312.552
		c-6.482-23.342,2.866-47.82,23.253-60.907l70.85-45.463L296.553,25.623z"/>
	<g style="opacity:0.3;">
		<path style="fill:#FCD7A9;" d="M301.838,465.892c-1.883,1.711-5.178,3.407-9.154,4.51c-6.64,1.845-12.579,1.342-13.263-1.121
			l-86.836-312.659c-5.005-18.023-3.465-36.487,3.468-52.713c-8.267,17.031-10.382,36.876-5.015,56.197l86.835,312.659
			c0.685,2.464,6.623,2.966,13.265,1.122c6.64-1.845,11.47-5.337,10.786-7.801c-0.01-0.036-0.046-0.062-0.059-0.098L301.838,465.892
			z"/>
		<path style="fill:#FCD7A9;" d="M239.859,89.046c-10.378,6.661-17.852,16.289-21.877,27.201
			c4.258-9.446,11.087-17.785,20.328-23.717l70.85-45.463l-1.063-1.809L239.859,89.046z"/>
	</g>
	<g style="opacity:0.4;">
		<path style="fill:#FFD9A8;" d="M225.902,75.329l71.7-45.925l10.707,18.209l0.852-0.547l-12.608-21.444l-71.701,45.924
			c-29.652,19.029-43.241,54.62-33.814,88.56l1.05,3.781C182.661,129.949,196.25,94.358,225.902,75.329z"/>
		<path style="fill:#FFD9A8;" d="M301.924,466.201c-0.008-0.037,0.01-0.077,0-0.114c-0.01-0.036-0.046-0.062-0.059-0.098
			L301.924,466.201z"/>
	</g>
	<path style="opacity:0.3;fill:#FCB55B;" d="M303.907,38.131c-22.185,11.959-70.687,44.245-83.301,60.445
		c-16.423,21.092-19.805,25.086-10.317,67.012c7.662,33.858,63.719,231.84,85.019,306.817c4.356-1.899,7.145-4.412,6.616-6.318
		c-0.01-0.036-0.046-0.062-0.059-0.098l-86.807-312.552c-6.482-23.342,2.866-47.82,23.253-60.907l70.85-45.463L303.907,38.131z"/>
	<path style="fill:#FFC680;" d="M309.447,32.486c3.474,5.93,3.263,12.511-0.472,14.699c-3.735,2.188-9.579-0.845-13.053-6.775
		c-3.474-5.929-3.264-12.511,0.472-14.699C300.129,23.523,305.973,26.556,309.447,32.486z"/>
	<path style="fill:#C97A48;" d="M308.178,32.601c2.828,4.827,2.829,10.083,0.002,11.74c-2.828,1.657-7.413-0.914-10.242-5.741
		c-2.828-4.828-2.829-10.084-0.002-11.741C300.764,25.203,305.349,27.773,308.178,32.601z"/>
	<path style="opacity:0.3;fill:#C97A48;" d="M298.732,33.132c2.828-1.657,7.413,0.914,10.241,5.741
		c0.459,0.783,0.721,1.572,1.032,2.36c0.504-2.384-0.02-5.548-1.827-8.633c-2.828-4.827-7.413-7.398-10.24-5.742
		c-2.37,1.389-2.631,5.309-1.03,9.38C297.191,34.893,297.712,33.729,298.732,33.132z"/>
</g>
</svg>
