<?xml version="1.0" encoding="utf-8"?>
<!-- Generator: Adobe Illustrator 27.5.0, SVG Export Plug-In . SVG Version: 6.00 Build 0)  -->
<svg version="1.1" xmlns="http://www.w3.org/2000/svg" xmlns:xlink="http://www.w3.org/1999/xlink" x="0px" y="0px"
	 viewBox="0 0 6254.142 6410.207" style="enable-background:new 0 0 6254.142 6410.207;" xml:space="preserve">
<g id="bsillustr_x5F_s_x5F_08092020_x5F_2129">
	<g>
		<g>
			<g>
				
					<linearGradient id="SVGID_1_" gradientUnits="userSpaceOnUse" x1="6455.3525" y1="5336.9023" x2="6377.9312" y2="4834.4238" gradientTransform="matrix(0.8298 -0.558 0.558 0.8298 -2473.5674 2714.7715)">
					<stop  offset="0" style="stop-color:#FFD89C"/>
					<stop  offset="0.1682" style="stop-color:#EBB879"/>
					<stop  offset="0.4446" style="stop-color:#CF8845"/>
					<stop  offset="0.6854" style="stop-color:#BA6620"/>
					<stop  offset="0.8786" style="stop-color:#AD5108"/>
					<stop  offset="1" style="stop-color:#A84900"/>
				</linearGradient>
				<path style="fill:url(#SVGID_1_);" d="M5698.513,3413.188c0,0,35.524-9.543,69.428,4.696
					c33.905,14.239,45.22,86.018,49.247,85.838c4.025-0.178-7.901-75.758-36.726-97.433c-28.826-21.677-51.841-25.518-57.542-21.874
					C5717.22,3388.058,5691.405,3409.95,5698.513,3413.188z"/>
				
					<linearGradient id="SVGID_00000131359815340585825810000003363761098477347486_" gradientUnits="userSpaceOnUse" x1="450.2374" y1="3354.4319" x2="1450.8845" y2="3198.0808" gradientTransform="matrix(0.9988 -0.0488 0.0488 0.9988 -196.3264 182.9222)">
					<stop  offset="0" style="stop-color:#821E1B"/>
					<stop  offset="1" style="stop-color:#C76800"/>
				</linearGradient>
				<path style="fill:url(#SVGID_00000131359815340585825810000003363761098477347486_);" d="M1170.423,3395.027
					c0,0-569.75-297.784-703.695-339.305c-133.946-41.521-62.882,282.748-63.821,427.347
					c-0.938,144.599,53.182,179.88,64.544,278.818c11.361,98.936,56.879,170.426,100.916,172.358
					c44.037,1.933,569.545-316.896,600.038-334.227C1198.897,3582.686,1170.423,3395.027,1170.423,3395.027z"/>
				
					<linearGradient id="SVGID_00000082351998662166586120000010015204582468175248_" gradientUnits="userSpaceOnUse" x1="4046.5356" y1="2302.4036" x2="4211.3608" y2="2839.6113" gradientTransform="matrix(0.9988 -0.0488 0.0488 0.9988 -196.3264 182.9222)">
					<stop  offset="0" style="stop-color:#821E1B"/>
					<stop  offset="1" style="stop-color:#C76800"/>
				</linearGradient>
				<path style="fill:url(#SVGID_00000082351998662166586120000010015204582468175248_);" d="M3757.966,2806.923
					c0,0-74.962-23.727-80.501-70.268c-27.617-232.055,281.096-514.951,424.053-481.309
					c28.705,6.755,430.341,373.886,456.847,462.174C4584.87,2805.806,3757.966,2806.923,3757.966,2806.923z"/>
				
					<linearGradient id="SVGID_00000145758303342004795010000008786046250589348274_" gradientUnits="userSpaceOnUse" x1="3023.3779" y1="2479.8613" x2="3188.8994" y2="3019.3376" gradientTransform="matrix(1.0839 -0.1353 0.1239 0.9923 -830.7983 448.1006)">
					<stop  offset="0" style="stop-color:#821E1B"/>
					<stop  offset="1" style="stop-color:#C76800"/>
				</linearGradient>
				<path style="fill:url(#SVGID_00000145758303342004795010000008786046250589348274_);" d="M2573.767,3037.207
					c0,0-83.374-17.491-92.873-63.469c-47.358-229.248,267.64-536.958,425.774-515.184c31.753,4.373,496.349,337.54,531.783,423.44
					C3473.886,2967.894,2573.767,3037.207,2573.767,3037.207z"/>
				
					<linearGradient id="SVGID_00000082363969599049135550000012159226582131531711_" gradientUnits="userSpaceOnUse" x1="2109.833" y1="1034.3157" x2="2276.8442" y2="1578.6469" gradientTransform="matrix(0.9153 -0.2101 0.1329 0.5792 -473.6564 2881.3228)">
					<stop  offset="0" style="stop-color:#821E1B"/>
					<stop  offset="1" style="stop-color:#C76800"/>
				</linearGradient>
				<path style="fill:url(#SVGID_00000082363969599049135550000012159226582131531711_);" d="M1458.443,3378.792
					c0,0-71.22-1.027-80.632-27.472c-46.929-131.85,211.108-351.692,345.851-356.565c27.057-0.978,430.877,145.828,463.461,193.23
					C2219.708,3235.386,1458.443,3378.792,1458.443,3378.792z"/>
				
					<linearGradient id="SVGID_00000107558137256741953840000006134734964222530469_" gradientUnits="userSpaceOnUse" x1="2862.6057" y1="7717.6729" x2="3012.5962" y2="8206.5303" gradientTransform="matrix(0.7228 0.0677 -0.0146 -0.8124 895.5032 10248.3428)">
					<stop  offset="0" style="stop-color:#821E1B"/>
					<stop  offset="1" style="stop-color:#C76800"/>
				</linearGradient>
				<path style="fill:url(#SVGID_00000107558137256741953840000006134734964222530469_);" d="M2603.292,3815.17
					c0,0-55.958,17.336-54.373,55.107c4.76,113.506,194.812,290.235,299.103,287.288c66.689-1.885,444.203-185.815,458.688-257.04
					C3321.192,3829.299,2603.292,3815.17,2603.292,3815.17z"/>
				
					<linearGradient id="SVGID_00000034791556837923198280000013894461238233245887_" gradientUnits="userSpaceOnUse" x1="1567.3898" y1="10494.3311" x2="1731.8818" y2="11030.4521" gradientTransform="matrix(0.589 0.0292 -0.0871 -0.4174 1632.2926 8156.1357)">
					<stop  offset="0" style="stop-color:#821E1B"/>
					<stop  offset="1" style="stop-color:#C76800"/>
				</linearGradient>
				<path style="fill:url(#SVGID_00000034791556837923198280000013894461238233245887_);" d="M1463.751,3602.322
					c0,0-40.896,9.299-38.465,28.72c12.12,96.837,226.88,217.749,306.285,204.871c15.944-2.586,205.84-152.802,210.573-189.511
					S1463.751,3602.322,1463.751,3602.322z"/>
				
					<linearGradient id="SVGID_00000036946787398840466610000006886338552329168780_" gradientUnits="userSpaceOnUse" x1="3420.377" y1="3971.5527" x2="3357.7759" y2="2817.8962" gradientTransform="matrix(0.9988 -0.0488 0.0488 0.9988 -196.3264 182.9222)">
					<stop  offset="0" style="stop-color:#FFD89C"/>
					<stop  offset="0.1682" style="stop-color:#EBB879"/>
					<stop  offset="0.4446" style="stop-color:#CF8845"/>
					<stop  offset="0.6854" style="stop-color:#BA6620"/>
					<stop  offset="0.8786" style="stop-color:#AD5108"/>
					<stop  offset="1" style="stop-color:#A84900"/>
				</linearGradient>
				<path style="fill:url(#SVGID_00000036946787398840466610000006886338552329168780_);" d="M823.995,3493.677
					c-4.879-53.467,222.283-132.668,302.35-131.912c80.068,0.757,274.413-3.797,472.878-50.315
					c198.465-46.52,798.205-284.75,1512.193-437.277c713.988-152.528,1299.313-182.704,1656.777-127.697
					c357.462,55.007,547.388,147.638,772.058,244.622c224.67,96.984,345.174,121.225,327.235,199.64
					c-17.939,78.416-264.74,161.497-244.883,181.461c19.855,19.966,183.193-38.35,190.984-8.873
					c7.792,29.479-531.549,221.635-624.629,303.542c-93.08,81.907-180.674,26.297-428.699,85.563
					c-248.023,59.265-763.082,235.375-1617.216,164.649c-854.135-70.724-1114.244-246.628-1492.4-276.803
					c-378.155-30.174-487.788-26.075-574.842-10.096C988.749,3646.161,828.784,3546.17,823.995,3493.677z"/>
				
					<linearGradient id="SVGID_00000121959017342787485820000002765674049125804721_" gradientUnits="userSpaceOnUse" x1="2780.0349" y1="3510.0618" x2="3278.8459" y2="3510.0618" gradientTransform="matrix(0.8483 0.5296 -0.5296 0.8483 3490.8958 -655.5445)">
					<stop  offset="0" style="stop-color:#821E1B"/>
					<stop  offset="1" style="stop-color:#C76800"/>
				</linearGradient>
				<path style="fill:url(#SVGID_00000121959017342787485820000002765674049125804721_);" d="M4519.94,3730.863
					c0,0-287.511,136.766-400.482,139.977c-56.979,13.61-165.221,167.196-287.645,201.687
					c-122.424,34.491,327.952,1.431,513.966-113.017c186.014-114.448,238.482-174.654,238.482-174.654
					S4568.125,3741.898,4519.94,3730.863z"/>
				
					<linearGradient id="SVGID_00000077290672276108155480000012004642660200448395_" gradientUnits="userSpaceOnUse" x1="3405.7534" y1="3532.6453" x2="3366.4697" y2="2808.6953" gradientTransform="matrix(0.9988 -0.0488 0.0488 0.9988 -196.3264 182.9222)">
					<stop  offset="0" style="stop-color:#963D13"/>
					<stop  offset="0.0218" style="stop-color:#943C12"/>
					<stop  offset="0.4447" style="stop-color:#6E2908"/>
					<stop  offset="0.7857" style="stop-color:#571D02"/>
					<stop  offset="1" style="stop-color:#4F1900"/>
				</linearGradient>
				<path style="fill:url(#SVGID_00000077290672276108155480000012004642660200448395_);" d="M5867.486,3190.737
					c17.939-78.415-102.565-102.656-327.235-199.64c-224.67-96.984-414.596-189.615-772.058-244.622
					c-357.463-55.007-942.789-24.831-1656.777,127.697c-713.988,152.527-1313.729,390.757-1512.193,437.277
					c-198.465,46.519-392.81,51.072-472.878,50.315c-66.583-0.628-234.868,54.036-286.862,103.213
					c210.852-5.482,732.351-22.685,1018.545-64.098c364.479-52.74,2500.065-390.137,2896.993-361.101
					s259.106,217.458,434.213,266.019c175.103,48.558,512.99,0.115,664.61-89.02
					C5860.732,3208.101,5865.505,3199.391,5867.486,3190.737z"/>
				<g style="opacity:0.1;">
					<path d="M1449.453,3467.643c2.657-6.374,4.259-13.09,2.048-19.99c-1.329-4.142-3.326-7.739-7.034-11.338
						c-1.27-1.236-10.056-6.062-13.151-8.075c2.835,0.173,9.883-6.09,9.738-5.963c5.316-4.647,8.824-11.037,11.299-16.762
						c3.148-7.285,5.089-15.771,1.286-23.729c-7.618-15.935-32.284-23.454-52.781-17.52c-13.121,3.8-18.728,11.369-26.056,19.128
						c-8.584,9.085-16.786,9.195-30.023,12.575c-22.776,5.819-24.064,21.589-17.739,36.351c-4.147,5.992-4.697,13.299-0.34,21.315
						c9.955,18.317,39.324,27.347,64.586,31.348C1420.191,3489.556,1441.071,3487.728,1449.453,3467.643z"/>
					<path d="M1272.486,3396.25c-17.202-7.801-39.718-4.887-54.889,4.972c-7.148,4.646-11.997,10.099-15.794,15.939
						c-34.113,10.978-70.002,31.627-56.041,59.579c17.151,34.343,82.285,28.497,102.452-1.107
						C1263.036,3453.877,1321.156,3418.315,1272.486,3396.25z"/>
					<path d="M1604.941,3403.187c-0.928,6.545,0.587,12.154,6.506,15.777c10.698,6.546,28.61,1.324,48.345-9.504
						c22.58-12.388,57.08-29.951,72.614-46.723c15.477-16.711,13.582-30.87,3.74-38.834c-4.179-3.379-9.994-7.024-17.506-7.705
						c-9.191-0.834-19.268,4.009-29.472,5.488c-23.979,3.476-26.688-6.702-56.762,8.515c-20.092,10.168-45.507,28.139-51.006,42.34
						c-5.459,14.096,6.689,26.672,20.291,30.269C1602.706,3403.078,1603.808,3403.172,1604.941,3403.187z"/>
					<path d="M1648.721,3513.336c-1.622-6.813-11.027-13.229-10.952-19.968c0.076-6.202,7.639-12.688,7.744-19.563
						c0.213-13.668-13.777-24.94-32.315-24.22c-18.253,0.708-45.868,8.964-59.267,18.476c-17.064,12.115-9.484,26.326-3.013,40.346
						c-2.839,2.86-5.098,5.901-6.227,9.236c-5.191,15.331,13.362,26.864,29.028,32.991c15.899,6.222,35.51,10.138,51.846,1.861
						C1641.045,3544.648,1651.968,3526.98,1648.721,3513.336z"/>
					<path d="M1467.858,3512.261c-20.052-5.088-36.851,5.702-55.186,9.739c-10.428,2.296-20.385-0.899-30.986-0.273
						c-10.28,0.607-17.747,4.016-25.504,8.888c-4.454,2.799-6.254,5.984-6.272,9.072c-17.246,7.246-19.962,23.17-9.629,35.123
						c20.984,24.267,80.547,31.769,112.609,14.804C1477.687,3576.494,1509.893,3522.926,1467.858,3512.261z"/>
					<path d="M2037.502,3252.264c14.647,1.173,21.203,4.933,29.951,8.173c11.383,4.217,19.235,8.373,34.866,11.405
						c39.028,7.569,74.567,1.132,90.823-6.679c15.743-7.567,14.552-17.804-11.108-27.495c-13.235-4.996-28.812-8.458-45.454-11.13
						c-39.534-14.113-100.172-25.718-142.289-21.208c-45.108,4.83-57.55,41.298,20.26,47.187
						C2022.536,3253.12,2031.114,3251.753,2037.502,3252.264z"/>
					<path d="M1908.396,3461.446c10.374-0.32,20.825-1.51,29.999-5.471c5.509-2.379,9.948-5.044,13.703-8.925
						c1.288-1.33,4.776-9.243,6.459-12.138c0.897,2.073,12.889,4.908,12.644,4.849c8.933,2.165,19.679,2.443,29.037,2.216
						c11.905-0.289,25.075-1.851,35.148-7.309c20.171-10.933,21.16-31.056,4.206-43.556c-10.857-8.002-24.172-9.36-38.461-11.876
						c-16.732-2.948-20.209-8.736-30.504-16.965c-17.711-14.16-41.244-9.611-60.225-0.004c-10.424-0.868-21.309,1.272-31.244,7.145
						c-22.701,13.417-23.993,37.404-19.606,56.731C1864.573,3448.258,1875.693,3462.453,1908.396,3461.446z"/>
					<path d="M1935.289,3296.073c0.583-11.992-13.456-20.506-31.821-21.92c-8.652-0.666-17.118,0.142-25.52,1.634
						c-28.671-9.306-69.097-14.116-93.955,7.452c-30.541,26.499,7.155,52.541,50.173,45.391
						C1865.784,3323.373,1933.645,3330,1935.289,3296.073z"/>
					<path d="M2163.367,3372.564c15.771-0.82,19.717-14.522,13.182-22.892c-9.473-12.14-8.408-26.491-25.521-35.163
						c-7.047-3.572-14.837-4.946-23.399-4.493c-3.448,0.181-9.581,2.049-15.156,3.366c-8.236-5.555-18.697-8.907-30.969-7.751
						c-19.383,1.826-35.398,14.531-36.166,29.113c-0.85,16.087,13.591,27.445,33.281,31.44
						C2105.78,3371.698,2135.118,3374.033,2163.367,3372.564z"/>
					<path d="M2179.472,3465.296c-24.913-4.285-50.94-6.545-77.748-4.985c-48.454,2.821-63.351,16.739-58.983,34.953
						c4.988,20.839,7.023,51.906,44.219,70.929c37.064,18.953,98.851,25.836,151.373,24.344c22.291-0.635,48.983-2.12,66.978-6.325
						c22.024-5.144,22.608-14.055,37.21-21.133c34.323-16.634,81.468-12.508,80.073-39.536
						c-0.935-18.057-23.033-43.801-70.027-55.229c-46.639-11.343-122.714-11.062-164.972-4.79
						C2184.439,3463.991,2181.821,3464.612,2179.472,3465.296z"/>
					<path d="M1901.093,3618.291c8.089-3.543,13.292-12.454,21.809-14.767c7.84-2.126,18.335,0.95,27.033-1.39
						c17.292-4.651,27.209-18.513,20.612-31.383c-6.492-12.671-25.372-29.319-41.471-35.461
						c-20.506-7.823-36.093,2.534-51.778,12.04c-4.477-1.005-9.003-1.535-13.553-1.162c-20.915,1.711-29.761,18.894-32.678,32.136
						c-2.964,13.44-1.885,28.697,13.562,37.352C1859.27,3623.855,1884.891,3625.382,1901.093,3618.291z"/>
					<path d="M1846.955,3489.888c0.261-15.982-18.493-24.082-29.206-35.643c-6.094-6.575-5.121-14.746-9.163-22.03
						c-3.919-7.064-10.507-11.152-19.028-14.932c-4.895-2.169-9.462-2.323-13.359-1.252c-14.425-9.662-35.329-5.991-47.226,5.522
						c-24.15,23.379-15.33,68.176,15.89,84.913C1769.009,3519.408,1846.41,3523.389,1846.955,3489.888z"/>
					<path d="M2497.965,3080.037c-11.465-1.2-37.039,3.481-45.226,1.053c-7.524-2.238-1.354-10.102-9.653-12.599
						c-16.496-4.968-56.672,1.387-90.559,15.321c-33.365,13.716-74.963,37-88.34,50.234c-17.033,16.854,14.75,16.263,44.22,16.422
						c-1.792,3.103-2.267,5.839-0.262,7.845c9.211,9.227,58.27-0.403,95.231-9.806c37.515-9.542,79.145-22.634,99.557-37.602
						C2522.269,3096.722,2520.923,3082.444,2497.965,3080.037z"/>
					<path d="M2832.329,2999.13c-12.212-2.528-25.039-2.971-38.374,0.427c-24.099,6.142-31.917,20.967-30.323,38.724
						c1.821,20.317,1.858,50.975,19.696,67.267c17.775,16.231,48.179,18.79,74.254,13.683c11.067-2.167,24.341-5.483,33.39-10.895
						c11.076-6.621,11.644-15.495,19.101-23.52c17.53-18.86,40.764-18.025,40.917-44.725c0.102-17.839-10.044-41.836-32.975-49.921
						c-22.759-8.026-60.468-2.494-81.605,6.642C2834.831,2997.495,2833.515,2998.291,2832.329,2999.13z"/>
					<path d="M2682.891,3162.692c7.833-3.859,12.392-12.957,20.741-15.609c7.685-2.436,18.4,0.206,26.928-2.479
						c16.955-5.339,25.869-19.564,18.348-32.132c-7.405-12.374-27.48-28.212-44.019-33.687
						c-21.066-6.972-35.904,3.987-50.902,14.103c-4.548-0.822-9.112-1.167-13.633-0.611c-20.788,2.552-28.395,20.047-30.357,33.371
						c-1.996,13.522,0.183,28.695,16.25,36.702C2641.478,3169.934,2667.204,3170.419,2682.891,3162.692z"/>
					<path d="M2538.715,3053.64c5.543,3.239,36.721-6.611,57.106-10.902c11.596-2.441,13.17-0.274,21.946-1.33
						c8.509-1.023,19.922-4.244,34.125-8.699c8.159-2.561,15.074-5.309,20.528-7.887c25.256-6.915,55.289-20.34,68.88-29.796
						c27.588-19.198-2.301-22.464-55.408-6.694C2644.819,3000.528,2527.089,3046.852,2538.715,3053.64z"/>
					<path d="M2363.521,3285.065c4.441-8.566,14.841-9.74,24.098-12.769c12.048-3.939,23.603-5.631,32.97-13.31
						c23.389-19.171,10.018-47.589-8.757-64.589c-18.186-16.464-44.927-24.108-72.567-15.379
						c-14.251,4.504-24.732,11.794-33.262,20.426c-40.455,14.121-76.393,44.035-68.657,75.149
						c8.283,33.321,101.952,71.399,124.651,25.613C2364.327,3295.507,2361.586,3288.802,2363.521,3285.065z"/>
					<path d="M2615.876,3390.741c3.24-7.441,5.412-15.204,3.642-22.914c-1.064-4.629-2.864-8.589-6.437-12.438
						c-1.223-1.319-9.971-6.216-13.029-8.295c2.928,0.001,10.714-7.617,10.553-7.462c5.866-5.66,9.992-13.181,12.994-19.875
						c3.817-8.515,6.476-18.317,3.135-27.123c-6.695-17.633-31.712-24.506-53.424-16.34c-13.9,5.23-20.29,14.238-28.48,23.582
						c-9.594,10.939-18.11,11.625-32.098,16.386c-24.069,8.192-26.602,26.247-21.16,42.631c-4.757,7.113-5.882,15.474-1.971,24.308
						c8.938,20.186,38.718,28.459,64.621,31.285C2583.859,3417.717,2605.658,3414.201,2615.876,3390.741z"/>
					<path d="M2434.771,3326.948c-17.201-7.801-39.719-4.887-54.889,4.972c-7.147,4.646-11.997,10.099-15.794,15.94
						c-34.114,10.977-70.002,31.626-56.041,59.578c17.151,34.343,82.286,28.498,102.452-1.107
						C2425.321,3384.575,2483.44,3349.014,2434.771,3326.948z"/>
					<path d="M2593.411,3182.99c4.508-11.417-11.377-18.412-24.224-16.354c-18.632,2.98-36.346-2.177-53.289,7.276
						c-6.978,3.893-11.446,8.985-13.882,15.185c-0.984,2.496-0.784,7.411-1.082,11.762c-9.895,4.125-17.795,10.501-20.648,19.545
						c-4.507,14.28,5.88,29.514,23.992,34.532c19.977,5.537,39.366-1.2,51.319-13.913
						C2572.091,3223.487,2585.34,3203.436,2593.411,3182.99z"/>
					<path d="M2668.998,3281.882c-8.024,7.565-13.72,16.301-14.875,26.765c-2.087,18.912,13.084,29.637,35.652,34.883
						c25.82,6.007,63.695,16.95,90.972,10.407c27.178-6.519,42.54-26.69,46.698-46.6c1.764-8.45,2.997-18.842-0.053-27.054
						c-3.732-10.05-14.463-13.618-21.381-21.661c-16.255-18.904-5.899-34.719-38.809-44.377
						c-21.987-6.453-55.694-8.002-74.881,5.009c-19.045,12.911-27.347,41.042-24.549,58.97
						C2667.982,3279.561,2668.435,3280.759,2668.998,3281.882z"/>
					<path d="M2811.007,3444.034c-1.624-6.812-11.029-13.229-10.952-19.968c0.074-6.202,7.637-12.686,7.744-19.562
						c0.212-13.668-13.777-24.94-32.316-24.22c-18.252,0.708-45.868,8.965-59.266,18.476c-17.063,12.115-9.485,26.327-3.012,40.346
						c-2.84,2.86-5.099,5.902-6.227,9.236c-5.191,15.33,13.36,26.864,29.027,32.991c15.899,6.222,35.51,10.14,51.847,1.861
						C2803.329,3475.346,2814.253,3457.678,2811.007,3444.034z"/>
					<path d="M2630.144,3442.96c-20.052-5.089-36.851,5.7-55.186,9.738c-10.429,2.297-20.387-0.899-30.987-0.272
						c-10.28,0.605-17.746,4.014-25.504,8.887c-4.454,2.8-6.253,5.984-6.271,9.072c-17.247,7.246-19.963,23.17-9.63,35.123
						c20.985,24.268,80.548,31.769,112.61,14.804C2639.971,3507.192,2672.178,3453.624,2630.144,3442.96z"/>
					<path d="M3176.77,3130.44c10.524-5.122,21.882,5.579,33.387,12.719c14.972,9.296,27.864,20.719,42.752,22.401
						c37.175,4.2,43.627-45.518,36.574-87.811c-6.831-40.961-28.535-81.286-62.667-102.985
						c-17.601-11.182-33.343-14.629-48.055-14.19c-50.904-30.143-108.345-36.047-122.402,10.347
						c-15.056,49.688,53.011,204.521,108.213,175.936C3170.239,3143.925,3172.181,3132.677,3176.77,3130.44z"/>
					<path d="M3070.682,3392.144c10.374-0.321,20.824-1.51,29.999-5.471c5.508-2.379,9.948-5.044,13.702-8.925
						c1.288-1.329,4.776-9.242,6.459-12.137c0.896,2.073,12.887,4.908,12.643,4.849c8.935,2.164,19.679,2.442,29.037,2.215
						c11.905-0.289,25.076-1.849,35.149-7.308c20.171-10.933,21.16-31.057,4.206-43.556c-10.857-8.003-24.173-9.361-38.463-11.878
						c-16.731-2.948-20.209-8.735-30.502-16.965c-17.711-14.16-41.244-9.611-60.227-0.002c-10.423-0.869-21.307,1.272-31.244,7.143
						c-22.7,13.417-23.992,37.404-19.606,56.732C3026.857,3378.956,3037.977,3393.151,3070.682,3392.144z"/>
					<path d="M3095.525,3241.538c4.553-14.917-6.027-29.832-23.109-37.106c-8.049-3.428-16.411-4.945-24.938-5.581
						c-24.303-20.291-61.34-38.441-92.289-18.74c-38.025,24.205-10.674,68.258,32.828,72.133
						C3019.99,3255.091,3082.645,3283.741,3095.525,3241.538z"/>
					<path d="M3325.653,3303.263c15.771-0.821,19.716-14.521,13.182-22.892c-9.474-12.141-8.408-26.493-25.521-35.165
						c-7.049-3.572-14.838-4.946-23.401-4.493c-3.448,0.181-9.581,2.049-15.156,3.366c-8.236-5.555-18.696-8.907-30.969-7.75
						c-19.383,1.824-35.398,14.53-36.165,29.113c-0.85,16.086,13.591,27.444,33.281,31.439
						C3268.065,3302.397,3297.404,3304.732,3325.653,3303.263z"/>
					<path d="M3285.051,3369.454c-30.171,4.271-60.464,10.741-89.517,20.927c-52.508,18.41-61.427,35.886-46.472,50.95
						c17.1,17.24,36.565,44.706,88.6,49.761c51.849,5.035,124.606-8.95,182.388-27.487c24.524-7.869,53.486-17.947,71.24-27.644
						c21.73-11.865,17.449-20.125,29.826-31.313c29.094-26.293,83.985-37.984,67.469-62.003
						c-11.038-16.046-49.945-32.128-108.709-27.099c-58.323,4.99-143.057,30.138-186.741,49.645
						C3289.872,3366.648,3287.294,3368.066,3285.051,3369.454z"/>
					<path d="M3063.377,3548.989c8.09-3.542,13.292-12.454,21.809-14.766c7.84-2.125,18.335,0.949,27.033-1.391
						c17.293-4.65,27.209-18.512,20.614-31.383c-6.493-12.671-25.372-29.319-41.47-35.462c-20.507-7.823-36.094,2.534-51.779,12.041
						c-4.477-1.006-9.003-1.536-13.552-1.164c-20.916,1.711-29.762,18.894-32.679,32.136c-2.963,13.44-1.884,28.698,13.563,37.353
						C3021.554,3554.555,3047.175,3556.08,3063.377,3548.989z"/>
					<path d="M3009.24,3420.586c0.262-15.981-18.492-24.082-29.206-35.642c-6.094-6.575-5.121-14.746-9.163-22.03
						c-3.917-7.064-10.506-11.152-19.028-14.931c-4.895-2.17-9.462-2.325-13.358-1.252c-14.426-9.663-35.33-5.991-47.227,5.522
						c-24.149,23.378-15.33,68.175,15.891,84.911C2931.294,3450.107,3008.696,3454.087,3009.24,3420.586z"/>
					<path d="M3474.153,2853.609c-1.592-2.24-5.003-4.236-14.086-5.112c-5.456-0.525-11.414-0.724-19.848-0.403
						c-2.89,0.11-19.719,1.703-25.91,2.193c4.247-0.825,9.1-4.379,8.999-4.305c3.723-2.663,3.35-5.166,2.044-7.206
						c-1.661-2.593-6.091-5.091-18.379-5.719c-24.614-1.257-66.708,4.568-91.294,12.144c-15.739,4.849-17.391,8.257-21.374,12.231
						c-4.666,4.654-16.437,7.176-32.7,11.968c-27.982,8.244-16.396,12.177,5.347,13.565c-0.887,2.609,4.549,4.417,17.688,4.888
						c30.025,1.081,80.209-5.838,120.165-12.635C3450.52,2867.442,3479.162,2860.672,3474.153,2853.609z"/>
					<path d="M3168.188,2893.229c-3.334-7.999-24.946-10.565-49.884-7.536c-11.749,1.427-22.746,3.783-33.419,6.573
						c-41.365,0.067-96.843,5.622-122.549,25.14c-31.585,23.981,27.534,32.957,82.364,18.991
						C3084.996,2926.134,3177.627,2915.861,3168.188,2893.229z"/>
					<path d="M3377.706,2907.143c-20.415-4.263-36.433,7.177-54.474,11.945c-10.261,2.712-20.447-0.072-31,0.981
						c-10.235,1.021-17.454,4.723-24.858,9.896c-4.252,2.973-5.821,6.221-5.617,9.301c-16.721,7.925-18.289,23.915-7.096,35.418
						c22.729,23.352,82.821,28.422,113.654,10.206C3392.16,2970.802,3420.502,2916.078,3377.706,2907.143z"/>
					<path d="M3610.748,2929.543c25.017-8.984,49.373-18.696,67.897-29.44c11.122-6.453,19.353-12.222,24.724-18.34
						c1.841-2.097,2.613-11.058,3.889-14.68c4.219,0.823,36.276-7.123,35.62-6.962c23.935-5.88,50.447-14.723,73.075-22.78
						c28.788-10.251,59.42-22.537,78.675-35.179c38.553-25.317,21.267-41.467-32.371-36.696
						c-34.345,3.058-68.188,13.242-105.545,23.367c-43.743,11.854-57.901,10.38-91.093,12.789
						c-57.108,4.146-110.12,27.438-147.068,50.745c-26.305,8.121-50.786,18.922-69.3,31.763c-42.297,29.339-21.97,48.685,7.662,59.7
						C3490.825,2956.432,3531.873,2957.867,3610.748,2929.543z"/>
					<path d="M4159.348,2795.917c23.395-0.116,26.857-10.398,15.623-16.968c-16.288-9.528-17.24-20.396-44.314-27.534
						c-11.152-2.941-23.021-4.234-35.72-4.166c-5.114,0.027-13.936,1.25-22.025,2.072c-13.275-4.485-29.481-7.368-47.594-6.883
						c-28.606,0.764-50.259,9.902-48.823,20.956c1.579,12.193,25.144,21.286,55.238,24.954
						C4073.246,2793.41,4117.448,2796.126,4159.348,2795.917z"/>
					<path d="M3967.936,2831.788c-12.211-2.528-25.038-2.971-38.373,0.427c-24.101,6.142-31.918,20.968-30.324,38.724
						c1.821,20.317,1.858,50.975,19.696,67.267c17.775,16.231,48.179,18.79,74.254,13.683c11.067-2.167,24.341-5.483,33.39-10.894
						c11.076-6.622,11.644-15.496,19.101-23.521c17.53-18.86,40.765-18.025,40.917-44.725c0.102-17.838-10.044-41.836-32.975-49.92
						c-22.759-8.026-60.468-2.494-81.605,6.642C3970.439,2830.153,3969.122,2830.949,3967.936,2831.788z"/>
					<path d="M3818.5,2995.35c7.833-3.86,12.392-12.957,20.74-15.608c7.686-2.437,18.4,0.204,26.928-2.481
						c16.955-5.337,25.87-19.563,18.348-32.132c-7.405-12.374-27.48-28.212-44.019-33.687c-21.066-6.972-35.904,3.989-50.901,14.103
						c-4.549-0.822-9.113-1.167-13.634-0.611c-20.788,2.553-28.395,20.047-30.357,33.371c-1.995,13.523,0.183,28.695,16.25,36.703
						C3777.086,3002.592,3802.811,3003.078,3818.5,2995.35z"/>
					<path d="M3499.129,3117.725c4.44-8.567,14.841-9.741,24.097-12.771c12.048-3.939,23.603-5.631,32.97-13.308
						c23.39-19.172,10.019-47.59-8.757-64.59c-18.185-16.464-44.926-24.108-72.567-15.379c-14.25,4.505-24.731,11.794-33.261,20.426
						c-40.456,14.121-76.394,44.035-68.659,75.149c8.284,33.323,101.953,71.401,124.651,25.613
						C3499.934,3128.166,3497.193,3121.461,3499.129,3117.725z"/>
					<path d="M3751.484,3223.401c3.24-7.442,5.412-15.205,3.642-22.915c-1.064-4.628-2.864-8.588-6.436-12.437
						c-1.224-1.32-9.973-6.216-13.031-8.296c2.929,0.001,10.714-7.617,10.553-7.462c5.867-5.659,9.993-13.181,12.994-19.875
						c3.818-8.515,6.476-18.317,3.135-27.122c-6.694-17.634-31.712-24.507-53.424-16.341c-13.9,5.23-20.29,14.238-28.48,23.582
						c-9.593,10.939-18.11,11.625-32.099,16.386c-24.069,8.192-26.601,26.247-21.16,42.631c-4.756,7.113-5.882,15.474-1.97,24.309
						c8.937,20.186,38.717,28.459,64.621,31.284C3719.467,3250.376,3741.265,3246.859,3751.484,3223.401z"/>
					<path d="M3570.379,3159.607c-17.202-7.799-39.718-4.887-54.89,4.973c-7.147,4.646-11.996,10.099-15.794,15.939
						c-34.112,10.978-70.001,31.626-56.04,59.577c17.151,34.343,82.285,28.498,102.452-1.107
						C3560.928,3217.233,3619.049,3181.672,3570.379,3159.607z"/>
					<path d="M3729.019,3015.648c4.507-11.415-11.377-18.412-24.224-16.354c-18.632,2.981-36.346-2.177-53.288,7.276
						c-6.979,3.894-11.447,8.985-13.883,15.185c-0.984,2.496-0.783,7.411-1.081,11.763c-9.896,4.124-17.796,10.5-20.649,19.543
						c-4.507,14.28,5.882,29.515,23.992,34.532c19.977,5.537,39.366-1.2,51.319-13.913
						C3707.698,3056.145,3720.947,3036.094,3729.019,3015.648z"/>
					<path d="M3804.605,3114.54c-8.023,7.565-13.72,16.302-14.874,26.766c-2.088,18.911,13.084,29.636,35.651,34.883
						c25.82,6.006,63.696,16.949,90.972,10.407c27.178-6.52,42.54-26.69,46.698-46.601c1.764-8.45,2.998-18.841-0.053-27.053
						c-3.731-10.05-14.463-13.619-21.381-21.662c-16.254-18.904-5.898-34.719-38.809-44.377
						c-21.987-6.453-55.693-8.002-74.881,5.009c-19.045,12.911-27.346,41.043-24.549,58.97
						C3803.589,3112.22,3804.043,3113.418,3804.605,3114.54z"/>
					<path d="M3946.614,3276.694c-1.624-6.813-11.027-13.23-10.952-19.969c0.076-6.201,7.639-12.687,7.744-19.561
						c0.213-13.668-13.777-24.94-32.316-24.22c-18.252,0.708-45.867,8.964-59.267,18.475c-17.063,12.115-9.484,26.327-3.011,40.346
						c-2.84,2.86-5.098,5.903-6.227,9.236c-5.191,15.33,13.362,26.864,29.027,32.992c15.899,6.221,35.51,10.138,51.847,1.86
						C3938.938,3308.005,3949.861,3290.338,3946.614,3276.694z"/>
					<path d="M3765.751,3275.619c-20.052-5.089-36.851,5.702-55.186,9.739c-10.429,2.296-20.386-0.9-30.986-0.273
						c-10.281,0.605-17.747,4.016-25.504,8.887c-4.455,2.8-6.254,5.985-6.272,9.072c-17.247,7.247-19.962,23.17-9.629,35.123
						c20.984,24.268,80.547,31.77,112.609,14.805C3775.58,3339.85,3807.786,3286.283,3765.751,3275.619z"/>
					<path d="M4237.783,3006.079c18.788,0.781,26.774,8.056,37.666,13.958c14.169,7.684,23.78,15.653,43.599,20.298
						c49.482,11.595,96.282-6.377,118.324-25.016c21.348-18.052,21.145-39.826-10.774-57.542
						c-16.463-9.132-36.154-14.704-57.329-18.46c-49.283-25.541-126.185-43.227-181.24-28.602
						c-58.962,15.662-79.813,95.186,20.042,98.609C4218.316,3009.676,4229.588,3005.739,4237.783,3006.079z"/>
					<path d="M4206.29,3224.803c10.374-0.322,20.824-1.51,29.999-5.471c5.509-2.379,9.948-5.044,13.704-8.926
						c1.286-1.329,4.774-9.242,6.458-12.137c0.896,2.073,12.887,4.908,12.643,4.849c8.935,2.164,19.679,2.443,29.039,2.216
						c11.903-0.29,25.075-1.851,35.148-7.309c20.171-10.933,21.16-31.056,4.206-43.556c-10.857-8.003-24.171-9.361-38.461-11.878
						c-16.731-2.948-20.21-8.735-30.503-16.965c-17.711-14.16-41.244-9.61-60.226-0.002c-10.424-0.869-21.309,1.272-31.244,7.144
						c-22.702,13.417-23.993,37.403-19.607,56.731C4162.466,3211.615,4173.584,3225.811,4206.29,3224.803z"/>
					<path d="M4231.133,3074.196c4.554-14.915-6.026-29.831-23.108-37.106c-8.049-3.428-16.41-4.945-24.937-5.581
						c-24.304-20.291-61.342-38.441-92.29-18.74c-38.025,24.205-10.674,68.257,32.83,72.132
						C4155.598,3087.751,4218.253,3116.399,4231.133,3074.196z"/>
					<path d="M4461.26,3135.921c15.771-0.819,19.716-14.521,13.182-22.892c-9.474-12.141-8.408-26.491-25.521-35.165
						c-7.049-3.572-14.837-4.946-23.399-4.492c-3.448,0.181-9.582,2.048-15.158,3.366c-8.235-5.556-18.695-8.907-30.969-7.751
						c-19.382,1.826-35.397,14.53-36.165,29.113c-0.85,16.086,13.591,27.443,33.281,31.44
						C4403.672,3135.056,4433.011,3137.39,4461.26,3135.921z"/>
					<path d="M4477.365,3228.653c-24.914-4.285-50.939-6.546-77.749-4.985c-48.453,2.821-63.35,16.738-58.981,34.952
						c4.987,20.839,7.022,51.906,44.219,70.929c37.063,18.954,98.85,25.838,151.373,24.344c22.292-0.634,48.983-2.119,66.979-6.324
						c22.024-5.145,22.608-14.056,37.21-21.134c34.323-16.632,81.468-12.507,80.071-39.535
						c-0.935-18.058-23.032-43.802-70.025-55.23c-46.639-11.344-122.714-11.062-164.972-4.79
						C4482.331,3227.349,4479.713,3227.969,4477.365,3228.653z"/>
					<path d="M4198.986,3381.647c8.089-3.542,13.292-12.454,21.809-14.766c7.84-2.125,18.334,0.951,27.032-1.391
						c17.293-4.651,27.209-18.512,20.613-31.382c-6.493-12.672-25.372-29.32-41.471-35.463
						c-20.506-7.822-36.093,2.534-51.779,12.041c-4.475-1.005-9.003-1.535-13.552-1.164c-20.915,1.711-29.761,18.894-32.678,32.136
						c-2.964,13.44-1.885,28.698,13.562,37.354C4157.163,3387.213,4182.783,3388.738,4198.986,3381.647z"/>
					<path d="M4144.849,3253.246c0.261-15.982-18.494-24.083-29.207-35.644c-6.094-6.576-5.122-14.746-9.164-22.03
						c-3.917-7.064-10.506-11.152-19.027-14.931c-4.896-2.17-9.462-2.325-13.359-1.252c-14.426-9.663-35.329-5.991-47.226,5.522
						c-24.15,23.378-15.33,68.176,15.89,84.911C4066.902,3282.765,4144.304,3286.745,4144.849,3253.246z"/>
					<path d="M4550.117,2785.526c-0.199-4.173-1.515-8.403-6.425-12.202c-2.949-2.281-6.289-4.142-11.206-5.764
						c-1.685-0.557-11.799-2.192-15.49-2.955c2.687-0.298,6.583-5.025,6.501-4.928c2.969-3.52,3.549-7.824,3.449-11.586
						c-0.127-4.787-1.867-10.118-8.685-14.323c-13.657-8.421-39.539-9.418-55.976-2.988c-10.522,4.118-12.546,9.42-16.078,15.08
						c-4.139,6.626-11.659,7.849-22.462,11.734c-18.589,6.685-13.217,16.263-1.24,24.167c-1.333,4.157,1.199,8.589,8.553,12.751
						c16.804,9.509,47.65,10.744,72.617,9.56C4532.243,2802.718,4550.743,2798.68,4550.117,2785.526z"/>
					<path d="M4336.296,2730.053c-17.761-7.083-40.063-3.266-54.521,7.181c-6.811,4.921-11.266,10.557-14.642,16.535
						c-33.315,12.327-67.709,34.373-51.737,61.682c19.623,33.555,84.324,25.09,102.354-5.25
						C4331,2787.906,4386.546,2750.088,4336.296,2730.053z"/>
					<path d="M4720.897,2831.593c-2.113-6.728-11.979-12.747-12.389-19.47c-0.371-6.188,6.722-12.961,6.333-19.821
						c-0.773-13.64-15.572-24.315-34.056-22.846c-18.198,1.444-45.213,10.796-57.923,20.823
						c-16.188,12.773-7.586,26.638-0.105,40.358c-2.632,2.967-4.671,6.092-5.559,9.463c-4.085,15.498,15.293,26.249,31.398,31.726
						c16.344,5.562,36.234,8.675,51.97-0.242C4715.479,2863.131,4725.127,2845.07,4720.897,2831.593z"/>
					<path d="M4539.991,2837.841c-20.414-4.263-36.432,7.177-54.473,11.945c-10.261,2.712-20.447-0.071-31,0.982
						c-10.235,1.019-17.454,4.723-24.859,9.895c-4.252,2.973-5.82,6.222-5.616,9.301c-16.722,7.925-18.29,23.915-7.097,35.418
						c22.729,23.352,82.822,28.422,113.656,10.207C4554.446,2901.5,4582.787,2846.776,4539.991,2837.841z"/>
					<path d="M5140.564,2881.363c-12.271-1.893-25.072-2.607-38.228-1.128c-23.777,2.675-30.981,10.933-28.689,21.215
						c2.618,11.764,3.868,29.42,22.292,39.439c18.357,9.983,48.762,12.545,74.548,10.537c10.944-0.853,24.042-2.286,32.847-5.079
						c10.777-3.416,10.991-8.506,18.107-12.861c16.723-10.233,39.914-8.92,39.01-24.291c-0.605-10.268-11.666-24.449-34.84-29.927
						c-23-5.436-60.364-3.599-81.07,0.906C5142.995,2880.511,5141.713,2880.922,5140.564,2881.363z"/>
					<path d="M4980.785,2926.049c7.833-3.861,12.392-12.958,20.741-15.61c7.685-2.437,18.4,0.206,26.928-2.481
						c16.954-5.338,25.87-19.563,18.347-32.131c-7.404-12.374-27.479-28.213-44.018-33.688c-21.066-6.97-35.905,3.988-50.902,14.103
						c-4.548-0.821-9.112-1.166-13.634-0.611c-20.789,2.553-28.394,20.047-30.356,33.371c-1.995,13.524,0.184,28.696,16.251,36.703
						C4939.371,2933.292,4965.097,2933.776,4980.785,2926.049z"/>
					<path d="M4894.44,2843.884c-0.601-19.054-19.831-27.487-31.19-40.563c-6.462-7.438-5.929-17.234-10.371-25.648
						c-4.308-8.161-11.13-12.603-19.874-16.552c-5.023-2.267-9.607-2.154-13.454-0.624c-14.978-10.574-35.728-4.844-47.027,9.643
						c-22.939,29.416-11.684,82.207,20.504,100.117C4817.924,2884.107,4895.702,2883.826,4894.44,2843.884z"/>
					<path d="M4661.414,3048.423c4.441-8.566,14.841-9.74,24.098-12.769c12.048-3.94,23.603-5.631,32.97-13.309
						c23.389-19.171,10.018-47.589-8.758-64.59c-18.185-16.464-44.926-24.106-72.567-15.378
						c-14.25,4.504-24.731,11.793-33.261,20.425c-40.456,14.122-76.393,44.037-68.658,75.149
						c8.283,33.323,101.952,71.401,124.651,25.613C4662.219,3058.865,4659.479,3052.159,4661.414,3048.423z"/>
					<path d="M4913.77,3154.099c3.239-7.441,5.411-15.204,3.641-22.913c-1.063-4.629-2.863-8.589-6.436-12.438
						c-1.224-1.32-9.973-6.216-13.029-8.296c2.928,0.001,10.714-7.616,10.553-7.461c5.866-5.66,9.992-13.181,12.993-19.875
						c3.818-8.516,6.477-18.318,3.136-27.123c-6.695-17.633-31.712-24.507-53.424-16.341c-13.899,5.231-20.29,14.239-28.481,23.582
						c-9.593,10.94-18.109,11.626-32.099,16.387c-24.069,8.192-26.602,26.245-21.159,42.631c-4.757,7.111-5.883,15.472-1.971,24.307
						c8.938,20.186,38.718,28.459,64.621,31.284C4881.751,3181.074,4903.551,3177.559,4913.77,3154.099z"/>
					<path d="M4732.664,3090.305c-17.201-7.799-39.718-4.886-54.889,4.974c-7.146,4.646-11.997,10.099-15.794,15.939
						c-34.113,10.978-70.002,31.627-56.041,59.577c17.151,34.343,82.285,28.498,102.452-1.107
						C4723.214,3147.932,4781.333,3112.37,4732.664,3090.305z"/>
					<path d="M4891.303,2946.346c4.507-11.415-11.377-18.412-24.224-16.354c-18.631,2.981-36.345-2.176-53.288,7.277
						c-6.978,3.893-11.446,8.985-13.883,15.185c-0.982,2.496-0.783,7.41-1.081,11.762c-9.895,4.126-17.794,10.501-20.648,19.543
						c-4.509,14.281,5.88,29.515,23.991,34.532c19.978,5.538,39.367-1.2,51.319-13.911
						C4869.983,2986.844,4883.233,2966.792,4891.303,2946.346z"/>
					<path d="M4966.89,3045.24c-8.023,7.564-13.719,16.301-14.874,26.765c-2.087,18.911,13.084,29.637,35.652,34.883
						c25.819,6.006,63.695,16.949,90.973,10.407c27.177-6.52,42.54-26.69,46.698-46.6c1.764-8.451,2.998-18.842-0.055-27.054
						c-3.73-10.05-14.462-13.618-21.379-21.662c-16.255-18.904-5.899-34.718-38.809-44.377c-21.988-6.452-55.694-8.001-74.882,5.009
						c-19.044,12.912-27.347,41.043-24.548,58.97C4965.874,3042.918,4966.328,3044.116,4966.89,3045.24z"/>
					<path d="M5108.899,3207.392c-1.623-6.813-11.028-13.23-10.951-19.968c0.074-6.202,7.637-12.688,7.743-19.562
						c0.213-13.668-13.777-24.94-32.315-24.22c-18.252,0.708-45.868,8.964-59.267,18.476c-17.064,12.115-9.484,26.326-3.013,40.346
						c-2.839,2.859-5.097,5.902-6.225,9.236c-5.191,15.33,13.36,26.864,29.026,32.991c15.899,6.222,35.51,10.138,51.845,1.86
						C5101.222,3238.704,5112.146,3221.036,5108.899,3207.392z"/>
					<path d="M4928.036,3206.317c-20.051-5.088-36.85,5.702-55.185,9.739c-10.429,2.296-20.387-0.899-30.987-0.273
						c-10.28,0.605-17.746,4.016-25.504,8.888c-4.455,2.799-6.253,5.984-6.271,9.072c-17.247,7.246-19.963,23.17-9.63,35.123
						c20.983,24.267,80.547,31.769,112.609,14.804C4937.864,3270.55,4970.071,3216.981,4928.036,3206.317z"/>
					<path d="M5359.626,2950.256c10.979,4.752,15.3,8.582,21.393,12.757c7.927,5.435,13.167,9.839,24.556,15.847
						c28.44,15.003,56.781,21.645,70.637,22.119c13.418,0.46,14.384-5.268-3.45-17.615c-9.2-6.366-20.469-12.586-32.699-18.691
						c-27.628-18.592-71.844-41.819-104.859-51.332c-35.36-10.189-51.55,5.503,6.837,30.569
						C5348.032,2946.482,5354.839,2948.183,5359.626,2950.256z"/>
					<path d="M5368.575,3155.501c10.373-0.32,20.824-1.51,29.999-5.471c5.508-2.379,9.947-5.044,13.702-8.925
						c1.288-1.33,4.776-9.243,6.458-12.138c0.897,2.073,12.889,4.908,12.644,4.849c8.934,2.164,19.679,2.443,29.037,2.216
						c11.905-0.288,25.075-1.85,35.148-7.309c20.171-10.933,21.161-31.056,4.206-43.557c-10.857-8.001-24.172-9.36-38.461-11.876
						c-16.732-2.948-20.209-8.736-30.504-16.966c-17.709-14.159-41.243-9.61-60.225-0.002c-10.424-0.868-21.308,1.272-31.244,7.144
						c-22.701,13.417-23.992,37.404-19.606,56.731C5324.75,3142.313,5335.87,3156.509,5368.575,3155.501z"/>
					<path d="M5332.877,3006.179c-1.061-15.498-16.351-26.097-35.018-27.406c-8.795-0.616-17.201,0.665-25.446,2.827
						c-30.118-11.209-71.443-16.282-93.484,12.263c-27.083,35.07,14.413,67.632,56.703,57.19
						C5266.711,3043.381,5335.883,3050.028,5332.877,3006.179z"/>
					<path d="M5620.712,3085.748c15.713-0.435,19.38-12.292,12.7-19.694c-9.686-10.736-8.905-23.208-26.141-31.059
						c-7.099-3.234-14.895-4.568-23.425-4.324c-3.435,0.096-9.516,1.614-15.051,2.662c-8.322-4.98-18.82-8.083-31.038-7.293
						c-19.295,1.246-35.019,12.022-35.499,24.701c-0.535,13.987,14.091,24.129,33.807,27.955
						C5563.261,3083.976,5592.568,3086.527,5620.712,3085.748z"/>
					<path d="M5522.086,3154.863c-11.997-3.021-24.757-3.985-38.3-1.127c-24.477,5.166-33.34,19.672-33.031,37.49
						c0.352,20.386-1.821,51.04,14.795,68.051c16.557,16.948,46.693,20.737,73.065,16.685c11.193-1.719,24.669-4.497,34.084-9.541
						c11.522-6.171,12.728-15.021,20.744-22.743c18.841-18.147,41.952-16.372,44.03-43.061c1.386-17.83-7.002-42.233-29.29-51.245
						c-22.117-8.946-60.121-4.94-81.86,3.338C5524.699,3153.329,5523.329,3154.071,5522.086,3154.863z"/>
					<path d="M5361.27,3312.346c8.089-3.542,13.292-12.453,21.809-14.767c7.839-2.125,18.335,0.951,27.033-1.389
						c17.293-4.652,27.209-18.514,20.613-31.383c-6.493-12.671-25.373-29.319-41.472-35.463
						c-20.506-7.822-36.093,2.535-51.778,12.041c-4.477-1.005-9.003-1.535-13.552-1.162c-20.916,1.71-29.762,18.894-32.679,32.135
						c-2.964,13.441-1.885,28.698,13.562,37.354C5319.447,3317.911,5345.068,3319.438,5361.27,3312.346z"/>
					<path d="M5307.133,3183.944c0.262-15.982-18.492-24.083-29.207-35.642c-6.094-6.575-5.121-14.746-9.163-22.03
						c-3.917-7.065-10.506-11.152-19.028-14.932c-4.896-2.17-9.462-2.323-13.358-1.252c-14.426-9.663-35.33-5.991-47.227,5.522
						c-24.15,23.378-15.331,68.176,15.89,84.912C5229.188,3213.463,5306.588,3217.445,5307.133,3183.944z"/>
				</g>
				
					<linearGradient id="SVGID_00000116936628394940144890000007766388136759416962_" gradientUnits="userSpaceOnUse" x1="2978.1565" y1="3099.3787" x2="3715.3174" y2="3099.3787" gradientTransform="matrix(0.9677 0.2522 -0.2522 0.9677 1545.5208 -495.6879)">
					<stop  offset="0" style="stop-color:#821E1B"/>
					<stop  offset="1" style="stop-color:#C76800"/>
				</linearGradient>
				<path style="fill:url(#SVGID_00000116936628394940144890000007766388136759416962_);" d="M4395.396,3301.586
					c0,0-160.639-75.753-494.872-79.548s-274.018,83.787-219.688,127.844c54.33,44.055,182.052,139.442,353.376,152.58
					c171.324,13.137,295.308-49.192,295.308-49.192S4283.691,3307.3,4395.396,3301.586z"/>
				
					<linearGradient id="SVGID_00000034069080339518068520000001341419494932849341_" gradientUnits="userSpaceOnUse" x1="1389.2815" y1="3160.1174" x2="4787.8682" y2="3160.1174" gradientTransform="matrix(0.9972 -0.0752 0.0752 0.9972 -335.533 262.0466)">
					<stop  offset="0" style="stop-color:#DE9076"/>
					<stop  offset="0.3207" style="stop-color:#C87345"/>
					<stop  offset="0.6152" style="stop-color:#B65C20"/>
					<stop  offset="0.8515" style="stop-color:#AC4E08"/>
					<stop  offset="1" style="stop-color:#A84900"/>
				</linearGradient>
				<path style="fill:url(#SVGID_00000034069080339518068520000001341419494932849341_);" d="M1306.292,3422.591
					c20.362,0.168,1553.783-232.013,1874.821-288.768c386.292-68.29,1468.707-165.503,1468.707-165.503l18.652-22.44
					c0,0-607.37,10.569-1489.364,162.667c-812.894,140.181-1083.599,184.857-1465.982,239.644
					C1330.742,3402.976,1266.186,3422.262,1306.292,3422.591z"/>
				
					<linearGradient id="SVGID_00000145053140379385506310000008577687806036439945_" gradientUnits="userSpaceOnUse" x1="4853.1572" y1="2863.7573" x2="4894.9692" y2="3747.7869" gradientTransform="matrix(0.9988 -0.0488 0.0488 0.9988 -196.3264 182.9222)">
					<stop  offset="0" style="stop-color:#631714"/>
					<stop  offset="1" style="stop-color:#F0A04B"/>
				</linearGradient>
				<path style="fill:url(#SVGID_00000145053140379385506310000008577687806036439945_);" d="M4613.171,3007.305
					c0,0-25.8,38.513-45.432,100.419c-9.229,29.104,3.729,50.58-19.256,86.141c-27.623,42.739,5.64,109.971,25.419,168.907
					c14.473,43.127-12.595,80.613,64.918,143.653c50.342,40.941,62.504,96.561,125.354,118.501
					c51.018,17.81,68.634,73.543,158.736,76.185c89.828,2.633,206.119,1.091,236.821-12.768
					c52.136-23.535-123.492-78.039-209.134-148.659c-85.642-70.619-264.396-251.237-184.542-488.719
					C4845.912,2813.484,4674.989,2887.06,4613.171,3007.305z"/>
				
					<linearGradient id="SVGID_00000002360799586619831880000004541573035419360685_" gradientUnits="userSpaceOnUse" x1="5690.1973" y1="3715.9907" x2="5613.9946" y2="3221.4238" gradientTransform="matrix(0.9988 -0.0488 0.0488 0.9988 -196.3264 182.9222)">
					<stop  offset="0" style="stop-color:#FFD89C"/>
					<stop  offset="0.1682" style="stop-color:#EBB879"/>
					<stop  offset="0.4446" style="stop-color:#CF8845"/>
					<stop  offset="0.6854" style="stop-color:#BA6620"/>
					<stop  offset="0.8786" style="stop-color:#AD5108"/>
					<stop  offset="1" style="stop-color:#A84900"/>
				</linearGradient>
				<path style="fill:url(#SVGID_00000002360799586619831880000004541573035419360685_);" d="M5588.161,3427.51
					c0,0,43.059,8.94,68.55,37.596c25.492,28.655-10.801,95.987-6.523,97.779c4.275,1.791,42.477-69.113,27.202-101.723
					c-15.276-32.611-36.472-47.043-44.793-46.657C5624.274,3414.89,5582.987,3421.285,5588.161,3427.51z"/>
			</g>
			
				<linearGradient id="SVGID_00000012454443093805605100000007555585285977206689_" gradientUnits="userSpaceOnUse" x1="4523.4326" y1="7533.5918" x2="4697.355" y2="7434.6963" gradientTransform="matrix(0.4323 -0.9017 0.9017 0.4323 -3586.2007 4115.0894)">
				<stop  offset="0" style="stop-color:#FF6534"/>
				<stop  offset="0.3306" style="stop-color:#CC4C1E"/>
				<stop  offset="0.6205" style="stop-color:#A6390E"/>
				<stop  offset="0.8534" style="stop-color:#8F2E04"/>
				<stop  offset="1" style="stop-color:#872A00"/>
			</linearGradient>
			<path style="fill:url(#SVGID_00000012454443093805605100000007555585285977206689_);" d="M5200.787,3103.127
				c52.375,23.871,74.479,83.592,49.372,133.389c-25.108,49.797-87.919,70.814-140.293,46.942
				c-52.375-23.871-74.48-83.593-49.372-133.389C5085.601,3100.271,5148.413,3079.255,5200.787,3103.127z"/>
			<ellipse style="fill:#070052;" cx="5155.326" cy="3193.293" rx="51.8" ry="49.252"/>
		</g>
		<path style="fill:#FFFFFF;" d="M4361.098,2757.896c-263.83,9.542-527.031,34.658-787.896,75.257
			c-261.491,40.697-520.57,96.918-775.404,168.284c-143.737,40.254-286.084,85.382-426.806,135.157
			c-3.492,1.234-1.988,6.836,1.541,5.587c248.642-87.947,502.416-161.241,759.706-219.227
			c258.807-58.326,521.072-101.293,784.975-128.479c147.57-15.203,295.631-25.423,443.884-30.785
			C4364.815,2763.558,4364.834,2757.761,4361.098,2757.896z"/>
		<path style="fill:#FFFFFF;" d="M5001.221,2835.164c-123.433-34.19-250.839-52.097-378.912-53.268c-3.73-0.034-3.734,5.761,0,5.794
			c127.578,1.166,254.417,19.005,377.371,53.063C5003.28,2841.749,5004.815,2836.161,5001.221,2835.164z"/>
		
			<linearGradient id="SVGID_00000028327440154026952630000017517335685191470266_" gradientUnits="userSpaceOnUse" x1="4181.6445" y1="2600.0603" x2="4166.7075" y2="2324.7861">
			<stop  offset="0" style="stop-color:#963D13"/>
			<stop  offset="0.0218" style="stop-color:#943C12"/>
			<stop  offset="0.4447" style="stop-color:#6E2908"/>
			<stop  offset="0.7857" style="stop-color:#571D02"/>
			<stop  offset="1" style="stop-color:#4F1900"/>
		</linearGradient>
		<path style="fill:url(#SVGID_00000028327440154026952630000017517335685191470266_);" d="M4294.622,2588.983
			c-75.119-89.177-154.078-175.031-236.671-257.336c-2.645-2.636-6.745,1.46-4.098,4.097
			c82.593,82.305,161.552,168.159,236.671,257.338C4292.93,2595.936,4297.011,2591.82,4294.622,2588.983z"/>
		
			<linearGradient id="SVGID_00000060744070427051738680000015177373636795128705_" gradientUnits="userSpaceOnUse" x1="4111.1841" y1="2624.9465" x2="4096.1392" y2="2347.6868">
			<stop  offset="0" style="stop-color:#963D13"/>
			<stop  offset="0.0218" style="stop-color:#943C12"/>
			<stop  offset="0.4447" style="stop-color:#6E2908"/>
			<stop  offset="0.7857" style="stop-color:#571D02"/>
			<stop  offset="1" style="stop-color:#4F1900"/>
		</linearGradient>
		<path style="fill:url(#SVGID_00000060744070427051738680000015177373636795128705_);" d="M4215.345,2615.225
			c-65.495-93.069-138.708-180.436-218.926-261.162c-2.633-2.649-6.732,1.448-4.097,4.098
			c79.874,80.379,152.802,167.315,218.019,259.987C4212.47,2621.175,4217.498,2618.284,4215.345,2615.225z"/>
		
			<linearGradient id="SVGID_00000091010754026958298390000016813551973042053546_" gradientUnits="userSpaceOnUse" x1="4034.4939" y1="2682.4353" x2="4019.6658" y2="2409.1755">
			<stop  offset="0" style="stop-color:#963D13"/>
			<stop  offset="0.0218" style="stop-color:#943C12"/>
			<stop  offset="0.4447" style="stop-color:#6E2908"/>
			<stop  offset="0.7857" style="stop-color:#571D02"/>
			<stop  offset="1" style="stop-color:#4F1900"/>
		</linearGradient>
		<path style="fill:url(#SVGID_00000091010754026958298390000016813551973042053546_);" d="M4123.061,2673.485
			c-56.62-90.367-119.291-176.762-187.584-258.664c-2.391-2.866-6.47,1.252-4.098,4.098
			c67.98,81.526,130.321,167.541,186.678,257.49C4120.033,2679.563,4125.049,2676.657,4123.061,2673.485z"/>
		
			<linearGradient id="SVGID_00000114047755135211085370000012134783528602196373_" gradientUnits="userSpaceOnUse" x1="3951.408" y1="2680.6658" x2="3942.3062" y2="2512.9292">
			<stop  offset="0" style="stop-color:#963D13"/>
			<stop  offset="0.0218" style="stop-color:#943C12"/>
			<stop  offset="0.4447" style="stop-color:#6E2908"/>
			<stop  offset="0.7857" style="stop-color:#571D02"/>
			<stop  offset="1" style="stop-color:#4F1900"/>
		</linearGradient>
		<path style="fill:url(#SVGID_00000114047755135211085370000012134783528602196373_);" d="M4010.504,2672.53
			c-43.297-49.782-84.173-101.563-122.532-155.247c-2.149-3.007-7.177-0.117-5.004,2.924
			c38.646,54.083,79.819,106.265,123.439,156.422C4008.858,2679.447,4012.943,2675.334,4010.504,2672.53z"/>
		
			<linearGradient id="SVGID_00000068648771315557477570000001864008380325218217_" gradientUnits="userSpaceOnUse" x1="3846.5415" y1="2679.0405" x2="3841.8682" y2="2592.9136">
			<stop  offset="0" style="stop-color:#963D13"/>
			<stop  offset="0.0218" style="stop-color:#943C12"/>
			<stop  offset="0.4447" style="stop-color:#6E2908"/>
			<stop  offset="0.7857" style="stop-color:#571D02"/>
			<stop  offset="1" style="stop-color:#4F1900"/>
		</linearGradient>
		<path style="fill:url(#SVGID_00000068648771315557477570000001864008380325218217_);" d="M3868.323,2673.819
			c-17.693-24.096-32.087-50.064-42.999-77.902c-1.345-3.433-6.95-1.939-5.587,1.541c11.098,28.316,25.577,54.766,43.581,79.286
			C3865.504,2679.719,3870.536,2676.83,3868.323,2673.819z"/>
		
			<linearGradient id="SVGID_00000121981154424493125270000010214509834335501480_" gradientUnits="userSpaceOnUse" x1="4284.6201" y1="3901.4919" x2="4279.4961" y2="3807.0564">
			<stop  offset="0" style="stop-color:#963D13"/>
			<stop  offset="0.0218" style="stop-color:#943C12"/>
			<stop  offset="0.4447" style="stop-color:#6E2908"/>
			<stop  offset="0.7857" style="stop-color:#571D02"/>
			<stop  offset="1" style="stop-color:#4F1900"/>
		</linearGradient>
		<path style="fill:url(#SVGID_00000121981154424493125270000010214509834335501480_);" d="M4447.061,3798.274
			c-102.651,56.359-215.296,92.622-331.57,106.594c-3.657,0.439-3.701,6.239,0,5.794c117.335-14.097,230.897-50.506,334.495-107.384
			C4453.255,3801.483,4450.335,3796.477,4447.061,3798.274z"/>
		
			<linearGradient id="SVGID_00000056395621373743721770000017218967854019650211_" gradientUnits="userSpaceOnUse" x1="4216.0508" y1="3951.7458" x2="4211.3384" y2="3864.9026">
			<stop  offset="0" style="stop-color:#963D13"/>
			<stop  offset="0.0218" style="stop-color:#943C12"/>
			<stop  offset="0.4447" style="stop-color:#6E2908"/>
			<stop  offset="0.7857" style="stop-color:#571D02"/>
			<stop  offset="1" style="stop-color:#4F1900"/>
		</linearGradient>
		<path style="fill:url(#SVGID_00000056395621373743721770000017218967854019650211_);" d="M4354.257,3857.375
			c-90.968,41.783-185.922,74.079-283.473,96.532c-3.633,0.836-2.095,6.424,1.54,5.587c98.049-22.566,193.432-55.123,284.858-97.115
			C4360.566,3860.823,4357.626,3855.827,4354.257,3857.375z"/>
		
			<linearGradient id="SVGID_00000132772156383690290430000003474644545703950725_" gradientUnits="userSpaceOnUse" x1="4186.2876" y1="3993.5186" x2="4181.6709" y2="3908.4465">
			<stop  offset="0" style="stop-color:#963D13"/>
			<stop  offset="0.0218" style="stop-color:#943C12"/>
			<stop  offset="0.4447" style="stop-color:#6E2908"/>
			<stop  offset="0.7857" style="stop-color:#571D02"/>
			<stop  offset="1" style="stop-color:#4F1900"/>
		</linearGradient>
		<path style="fill:url(#SVGID_00000132772156383690290430000003474644545703950725_);" d="M4339.047,3900.174
			c-97.854,49.087-203.235,81.631-311.746,96.166c-3.643,0.488-3.691,6.289,0,5.795c109.588-14.679,215.836-47.379,314.67-96.957
			C4345.306,3903.505,4342.375,3898.504,4339.047,3900.174z"/>
		
			<linearGradient id="SVGID_00000147216585894034066160000003825479419209302665_" gradientUnits="userSpaceOnUse" x1="2529.6492" y1="2954.7971" x2="2526.7175" y2="2900.7715">
			<stop  offset="0" style="stop-color:#963D13"/>
			<stop  offset="0.0218" style="stop-color:#943C12"/>
			<stop  offset="0.4447" style="stop-color:#6E2908"/>
			<stop  offset="0.7857" style="stop-color:#571D02"/>
			<stop  offset="1" style="stop-color:#4F1900"/>
		</linearGradient>
		<path style="fill:url(#SVGID_00000147216585894034066160000003825479419209302665_);" d="M2561.185,2947.626
			c-21.026-14.896-42.052-29.793-63.079-44.688c-3.048-2.16-5.947,2.862-2.924,5.002l63.078,44.691
			C2561.308,2954.791,2564.207,2949.768,2561.185,2947.626z"/>
		
			<linearGradient id="SVGID_00000003073424580465795910000004045882635789338277_" gradientUnits="userSpaceOnUse" x1="2577.793" y1="2949.7312" x2="2572.415" y2="2850.6226">
			<stop  offset="0" style="stop-color:#963D13"/>
			<stop  offset="0.0218" style="stop-color:#943C12"/>
			<stop  offset="0.4447" style="stop-color:#6E2908"/>
			<stop  offset="0.7857" style="stop-color:#571D02"/>
			<stop  offset="1" style="stop-color:#4F1900"/>
		</linearGradient>
		<path style="fill:url(#SVGID_00000003073424580465795910000004045882635789338277_);" d="M2625.494,2941.686
			c-35.832-25.314-68.3-54.63-97.208-87.62c-2.463-2.811-6.547,1.302-4.098,4.097c29.236,33.366,62.153,62.933,98.381,88.527
			C2625.622,2948.844,2628.519,2943.821,2625.494,2941.686z"/>
		
			<linearGradient id="SVGID_00000070801180954811269760000013573964290649688228_" gradientUnits="userSpaceOnUse" x1="2623.3569" y1="2920.519" x2="2616.0413" y2="2785.7039">
			<stop  offset="0" style="stop-color:#963D13"/>
			<stop  offset="0.0218" style="stop-color:#943C12"/>
			<stop  offset="0.4447" style="stop-color:#6E2908"/>
			<stop  offset="0.7857" style="stop-color:#571D02"/>
			<stop  offset="1" style="stop-color:#4F1900"/>
		</linearGradient>
		<path style="fill:url(#SVGID_00000070801180954811269760000013573964290649688228_);" d="M2684.656,2911.69
			c-46.695-35.627-88.97-76.455-126.328-121.771c-2.373-2.879-6.452,1.24-4.097,4.098c37.698,45.729,80.388,86.731,127.5,122.676
			C2684.696,2918.956,2687.584,2913.924,2684.656,2911.69z"/>
		
			<linearGradient id="SVGID_00000102533928055423921010000016682100448087410578_" gradientUnits="userSpaceOnUse" x1="2681.6658" y1="2907.4631" x2="2672.4558" y2="2737.7388">
			<stop  offset="0" style="stop-color:#963D13"/>
			<stop  offset="0.0218" style="stop-color:#943C12"/>
			<stop  offset="0.4447" style="stop-color:#6E2908"/>
			<stop  offset="0.7857" style="stop-color:#571D02"/>
			<stop  offset="1" style="stop-color:#4F1900"/>
		</linearGradient>
		<path style="fill:url(#SVGID_00000102533928055423921010000016682100448087410578_);" d="M2752.497,2898.74
			c-48.925-52.125-97.85-104.25-146.776-156.376c-2.558-2.726-6.649,1.379-4.097,4.097l146.775,156.376
			C2750.958,2905.562,2755.049,2901.458,2752.497,2898.74z"/>
		
			<linearGradient id="SVGID_00000176722099337190854890000013540253526535540631_" gradientUnits="userSpaceOnUse" x1="2752.3889" y1="2848.2979" x2="2740.9878" y2="2638.1899">
			<stop  offset="0" style="stop-color:#963D13"/>
			<stop  offset="0.0218" style="stop-color:#943C12"/>
			<stop  offset="0.4447" style="stop-color:#6E2908"/>
			<stop  offset="0.7857" style="stop-color:#571D02"/>
			<stop  offset="1" style="stop-color:#4F1900"/>
		</linearGradient>
		<path style="fill:url(#SVGID_00000176722099337190854890000013540253526535540631_);" d="M2847.173,2838.328
			c-65.625-64.755-131.248-129.511-196.872-194.266c-2.657-2.621-6.756,1.472-4.097,4.098
			c65.625,64.754,131.248,129.51,196.872,194.265C2845.733,2845.047,2849.833,2840.952,2847.173,2838.328z"/>
		
			<linearGradient id="SVGID_00000155122850732596141790000004408592859354684330_" gradientUnits="userSpaceOnUse" x1="2847.9309" y1="2813.6899" x2="2836.2803" y2="2598.9846">
			<stop  offset="0" style="stop-color:#963D13"/>
			<stop  offset="0.0218" style="stop-color:#943C12"/>
			<stop  offset="0.4447" style="stop-color:#6E2908"/>
			<stop  offset="0.7857" style="stop-color:#571D02"/>
			<stop  offset="1" style="stop-color:#4F1900"/>
		</linearGradient>
		<path style="fill:url(#SVGID_00000155122850732596141790000004408592859354684330_);" d="M2945.137,2803.715
			c-72.634-60.679-140.217-127.069-202.178-198.61c-2.445-2.825-6.531,1.289-4.097,4.097
			c61.961,71.542,129.544,137.931,202.177,198.611C2943.883,2810.188,2948.004,2806.108,2945.137,2803.715z"/>
		
			<linearGradient id="SVGID_00000023959825549967832670000006964514861110904504_" gradientUnits="userSpaceOnUse" x1="2908.6904" y1="2824.593" x2="2893.2141" y2="2539.3821">
			<stop  offset="0" style="stop-color:#963D13"/>
			<stop  offset="0.0218" style="stop-color:#943C12"/>
			<stop  offset="0.4447" style="stop-color:#6E2908"/>
			<stop  offset="0.7857" style="stop-color:#571D02"/>
			<stop  offset="1" style="stop-color:#4F1900"/>
		</linearGradient>
		<path style="fill:url(#SVGID_00000023959825549967832670000006964514861110904504_);" d="M3029.031,2813.151
			c-81.433-91.222-165.459-180.092-251.979-266.505c-2.642-2.638-6.741,1.457-4.098,4.097
			c86.521,86.414,170.545,175.283,251.978,266.505C3027.421,2820.037,3031.508,2815.927,3029.031,2813.151z"/>
		
			<linearGradient id="SVGID_00000011031173195726295810000010313008902760609436_" gradientUnits="userSpaceOnUse" x1="2988.7217" y1="2822.8501" x2="2973.2339" y2="2537.4277">
			<stop  offset="0" style="stop-color:#963D13"/>
			<stop  offset="0.0218" style="stop-color:#943C12"/>
			<stop  offset="0.4447" style="stop-color:#6E2908"/>
			<stop  offset="0.7857" style="stop-color:#571D02"/>
			<stop  offset="1" style="stop-color:#4F1900"/>
		</linearGradient>
		<path style="fill:url(#SVGID_00000011031173195726295810000010313008902760609436_);" d="M3108.688,2811.493
			c-85.68-87.12-169.491-176.054-251.384-266.744c-2.504-2.775-6.591,1.334-4.097,4.098
			c81.891,90.689,165.704,179.624,251.384,266.743C3107.211,2818.253,3111.307,2814.156,3108.688,2811.493z"/>
		
			<linearGradient id="SVGID_00000103255346905346147260000001164195320915223697_" gradientUnits="userSpaceOnUse" x1="3057.4143" y1="2792.4871" x2="3041.7571" y2="2503.9419">
			<stop  offset="0" style="stop-color:#963D13"/>
			<stop  offset="0.0218" style="stop-color:#943C12"/>
			<stop  offset="0.4447" style="stop-color:#6E2908"/>
			<stop  offset="0.7857" style="stop-color:#571D02"/>
			<stop  offset="1" style="stop-color:#4F1900"/>
		</linearGradient>
		<path style="fill:url(#SVGID_00000103255346905346147260000001164195320915223697_);" d="M3193.613,2779.652
			c-108.373-74.909-170.805-200.194-285.034-267.975c-3.215-1.907-6.133,3.099-2.927,5.004
			c114.145,67.73,176.659,193.063,285.036,267.975C3193.764,2786.781,3196.665,2781.761,3193.613,2779.652z"/>
		
			<linearGradient id="SVGID_00000155857505496481721760000011876174836217177986_" gradientUnits="userSpaceOnUse" x1="3201.3538" y1="2774.3193" x2="3195.1357" y2="2659.7253">
			<stop  offset="0" style="stop-color:#963D13"/>
			<stop  offset="0.0218" style="stop-color:#943C12"/>
			<stop  offset="0.4447" style="stop-color:#6E2908"/>
			<stop  offset="0.7857" style="stop-color:#571D02"/>
			<stop  offset="1" style="stop-color:#4F1900"/>
		</linearGradient>
		<path style="fill:url(#SVGID_00000155857505496481721760000011876174836217177986_);" d="M3245.989,2766.976
			c-30.463-34.669-60.927-69.336-91.391-104.004c-2.467-2.807-6.551,1.304-4.097,4.097c30.462,34.668,60.927,69.336,91.391,104.004
			C3244.357,2773.879,3248.442,2769.769,3245.989,2766.976z"/>
		
			<linearGradient id="SVGID_00000147920355081850396050000000172685020731500208_" gradientUnits="userSpaceOnUse" x1="1452.2332" y1="3308.2166" x2="1449.1372" y2="3251.1611">
			<stop  offset="0" style="stop-color:#963D13"/>
			<stop  offset="0.0218" style="stop-color:#943C12"/>
			<stop  offset="0.4447" style="stop-color:#6E2908"/>
			<stop  offset="0.7857" style="stop-color:#571D02"/>
			<stop  offset="1" style="stop-color:#4F1900"/>
		</linearGradient>
		<path style="fill:url(#SVGID_00000147920355081850396050000000172685020731500208_);" d="M1481.9,3301.131
			c-20.398-14.869-39.941-30.766-58.674-47.677c-2.763-2.495-6.873,1.592-4.099,4.097c19.101,17.242,39.055,33.427,59.848,48.584
			C1481.992,3308.333,1484.886,3303.308,1481.9,3301.131z"/>
		
			<linearGradient id="SVGID_00000101091718681133622490000010629953723315812275_" gradientUnits="userSpaceOnUse" x1="1491.9447" y1="3292.1221" x2="1488.0986" y2="3221.2449">
			<stop  offset="0" style="stop-color:#963D13"/>
			<stop  offset="0.0218" style="stop-color:#943C12"/>
			<stop  offset="0.4447" style="stop-color:#6E2908"/>
			<stop  offset="0.7857" style="stop-color:#571D02"/>
			<stop  offset="1" style="stop-color:#4F1900"/>
		</linearGradient>
		<path style="fill:url(#SVGID_00000101091718681133622490000010629953723315812275_);" d="M1524.562,3285.708
			c-23.77-18.477-45.519-39.096-65.233-61.848c-2.447-2.823-6.531,1.29-4.097,4.098c19.714,22.751,41.464,43.37,65.233,61.847
			C1523.374,3292.068,1527.503,3287.995,1524.562,3285.708z"/>
		
			<linearGradient id="SVGID_00000088101619382352979690000003142401553112465808_" gradientUnits="userSpaceOnUse" x1="1529.514" y1="3282.7815" x2="1525.2827" y2="3204.8018">
			<stop  offset="0" style="stop-color:#963D13"/>
			<stop  offset="0.0218" style="stop-color:#943C12"/>
			<stop  offset="0.4447" style="stop-color:#6E2908"/>
			<stop  offset="0.7857" style="stop-color:#571D02"/>
			<stop  offset="1" style="stop-color:#4F1900"/>
		</linearGradient>
		<path style="fill:url(#SVGID_00000088101619382352979690000003142401553112465808_);" d="M1563.547,3276.093
			c-22.732-22.899-45.467-45.801-68.2-68.7c-2.632-2.651-6.73,1.446-4.098,4.097c22.734,22.899,45.467,45.801,68.201,68.701
			C1562.082,3282.841,1566.179,3278.744,1563.547,3276.093z"/>
		
			<linearGradient id="SVGID_00000050642071543999570290000008606667542225992338_" gradientUnits="userSpaceOnUse" x1="1580.5702" y1="3231.4287" x2="1574.5151" y2="3119.8416">
			<stop  offset="0" style="stop-color:#963D13"/>
			<stop  offset="0.0218" style="stop-color:#943C12"/>
			<stop  offset="0.4447" style="stop-color:#6E2908"/>
			<stop  offset="0.7857" style="stop-color:#571D02"/>
			<stop  offset="1" style="stop-color:#4F1900"/>
		</linearGradient>
		<path style="fill:url(#SVGID_00000050642071543999570290000008606667542225992338_);" d="M1635.076,3222.964
			c-39.522-30.384-76.671-63.585-111.36-99.383c-2.6-2.683-6.694,1.417-4.097,4.098c35.044,36.164,72.61,69.598,112.532,100.288
			C1635.105,3230.24,1637.994,3225.209,1635.076,3222.964z"/>
		
			<linearGradient id="SVGID_00000036945325414065227100000017080515624725886905_" gradientUnits="userSpaceOnUse" x1="1638.2349" y1="3221.4216" x2="1631.2939" y2="3093.5081">
			<stop  offset="0" style="stop-color:#963D13"/>
			<stop  offset="0.0218" style="stop-color:#943C12"/>
			<stop  offset="0.4447" style="stop-color:#6E2908"/>
			<stop  offset="0.7857" style="stop-color:#571D02"/>
			<stop  offset="1" style="stop-color:#4F1900"/>
		</linearGradient>
		<path style="fill:url(#SVGID_00000036945325414065227100000017080515624725886905_);" d="M1693.921,3212.922
			c-43.954-32.198-82.3-70.943-114.053-115.219c-2.156-3.006-7.183-0.115-5.004,2.924c32.349,45.108,71.351,84.494,116.131,117.297
			C1694.008,3220.131,1696.902,3215.105,1693.921,3212.922z"/>
		
			<linearGradient id="SVGID_00000062167716832256616320000015517102097307011466_" gradientUnits="userSpaceOnUse" x1="1677.5371" y1="3202.6824" x2="1670.5114" y2="3073.2073">
			<stop  offset="0" style="stop-color:#963D13"/>
			<stop  offset="0.0218" style="stop-color:#943C12"/>
			<stop  offset="0.4447" style="stop-color:#6E2908"/>
			<stop  offset="0.7857" style="stop-color:#571D02"/>
			<stop  offset="1" style="stop-color:#4F1900"/>
		</linearGradient>
		<path style="fill:url(#SVGID_00000062167716832256616320000015517102097307011466_);" d="M1732.75,3194.943
			c-41.019-36.183-78.937-75.531-113.577-117.861c-2.363-2.889-6.44,1.232-4.097,4.097c34.64,42.332,72.558,81.68,113.577,117.861
			C1731.44,3201.5,1735.555,3197.417,1732.75,3194.943z"/>
		
			<linearGradient id="SVGID_00000146495586134293666780000010923111448245208729_" gradientUnits="userSpaceOnUse" x1="1729.8896" y1="3195.8872" x2="1722.3619" y2="3057.1611">
			<stop  offset="0" style="stop-color:#963D13"/>
			<stop  offset="0.0218" style="stop-color:#943C12"/>
			<stop  offset="0.4447" style="stop-color:#6E2908"/>
			<stop  offset="0.7857" style="stop-color:#571D02"/>
			<stop  offset="1" style="stop-color:#4F1900"/>
		</linearGradient>
		<path style="fill:url(#SVGID_00000146495586134293666780000010923111448245208729_);" d="M1788.626,3187.91
			c-42.656-40.003-83.038-82.276-121.053-126.713c-2.428-2.838-6.512,1.277-4.097,4.098
			c38.014,44.436,78.397,86.709,121.052,126.712C1787.246,3194.559,1791.352,3190.469,1788.626,3187.91z"/>
		
			<linearGradient id="SVGID_00000094600096009889997270000007908021621234461851_" gradientUnits="userSpaceOnUse" x1="1791.2784" y1="3184.6565" x2="1783.2921" y2="3037.4788">
			<stop  offset="0" style="stop-color:#963D13"/>
			<stop  offset="0.0218" style="stop-color:#943C12"/>
			<stop  offset="0.4447" style="stop-color:#6E2908"/>
			<stop  offset="0.7857" style="stop-color:#571D02"/>
			<stop  offset="1" style="stop-color:#4F1900"/>
		</linearGradient>
		<path style="fill:url(#SVGID_00000094600096009889997270000007908021621234461851_);" d="M1852.273,3176.588
			c-45.86-41.296-87.995-86.367-126.116-134.899c-2.302-2.93-6.377,1.195-4.097,4.098c38.118,48.531,80.256,93.602,126.116,134.898
			C1850.94,3183.175,1855.052,3179.089,1852.273,3176.588z"/>
		
			<linearGradient id="SVGID_00000089551891752395889110000001941220738501393291_" gradientUnits="userSpaceOnUse" x1="1854.5172" y1="3167.3323" x2="1848.183" y2="3050.6013">
			<stop  offset="0" style="stop-color:#963D13"/>
			<stop  offset="0.0218" style="stop-color:#943C12"/>
			<stop  offset="0.4447" style="stop-color:#6E2908"/>
			<stop  offset="0.7857" style="stop-color:#571D02"/>
			<stop  offset="1" style="stop-color:#4F1900"/>
		</linearGradient>
		<path style="fill:url(#SVGID_00000089551891752395889110000001941220738501393291_);" d="M1908.264,3159.711
			c-38.924-32.705-75.593-67.867-109.901-105.384c-2.522-2.759-6.611,1.348-4.097,4.097c34.309,37.518,70.977,72.68,109.901,105.384
			C1907.005,3166.192,1911.124,3162.115,1908.264,3159.711z"/>
		
			<linearGradient id="SVGID_00000073682921130110538680000005693336685021812881_" gradientUnits="userSpaceOnUse" x1="1902.0175" y1="3138.1653" x2="1899.6639" y2="3094.7935">
			<stop  offset="0" style="stop-color:#963D13"/>
			<stop  offset="0.0218" style="stop-color:#943C12"/>
			<stop  offset="0.4447" style="stop-color:#6E2908"/>
			<stop  offset="0.7857" style="stop-color:#571D02"/>
			<stop  offset="1" style="stop-color:#4F1900"/>
		</linearGradient>
		<path style="fill:url(#SVGID_00000073682921130110538680000005693336685021812881_);" d="M1919.215,3132.333
			c-10.883-11.937-21.766-23.871-32.651-35.805c-2.517-2.762-6.606,1.344-4.097,4.097c10.883,11.934,21.766,23.871,32.651,35.806
			C1917.635,3139.193,1921.724,3135.085,1919.215,3132.333z"/>
		
			<linearGradient id="SVGID_00000108991670837239198040000018178025130242612924_" gradientUnits="userSpaceOnUse" x1="2665.4553" y1="3917.6196" x2="2663.9265" y2="3889.4441">
			<stop  offset="0" style="stop-color:#963D13"/>
			<stop  offset="0.0218" style="stop-color:#943C12"/>
			<stop  offset="0.4447" style="stop-color:#6E2908"/>
			<stop  offset="0.7857" style="stop-color:#571D02"/>
			<stop  offset="1" style="stop-color:#4F1900"/>
		</linearGradient>
		<path style="fill:url(#SVGID_00000108991670837239198040000018178025130242612924_);" d="M2691.032,3888.203l-55.609,25.654
			c-3.382,1.561-0.441,6.557,2.925,5.004l55.609-25.654C2697.341,3891.647,2694.399,3886.65,2691.032,3888.203z"/>
		
			<linearGradient id="SVGID_00000049207672317794286740000010575194228993617336_" gradientUnits="userSpaceOnUse" x1="2713.9509" y1="3953.3418" x2="2710.9382" y2="3897.8198">
			<stop  offset="0" style="stop-color:#963D13"/>
			<stop  offset="0.0218" style="stop-color:#943C12"/>
			<stop  offset="0.4447" style="stop-color:#6E2908"/>
			<stop  offset="0.7857" style="stop-color:#571D02"/>
			<stop  offset="1" style="stop-color:#4F1900"/>
		</linearGradient>
		<path style="fill:url(#SVGID_00000049207672317794286740000010575194228993617336_);" d="M2750.591,3896.095
			c-26.406,17.99-52.812,35.978-79.217,53.967c-3.065,2.087-0.169,7.111,2.924,5.004c26.405-17.99,52.81-35.977,79.217-53.968
			C2756.579,3899.011,2753.684,3893.988,2750.591,3896.095z"/>
		
			<linearGradient id="SVGID_00000134957177577491553070000013453496400740168378_" gradientUnits="userSpaceOnUse" x1="2754.7432" y1="3982.7156" x2="2750.5972" y2="3906.3118">
			<stop  offset="0" style="stop-color:#963D13"/>
			<stop  offset="0.0218" style="stop-color:#943C12"/>
			<stop  offset="0.4447" style="stop-color:#6E2908"/>
			<stop  offset="0.7857" style="stop-color:#571D02"/>
			<stop  offset="1" style="stop-color:#4F1900"/>
		</linearGradient>
		<path style="fill:url(#SVGID_00000134957177577491553070000013453496400740168378_);" d="M2822.059,3902.658
			c-49.309,22.452-96.671,48.668-141.878,78.531c-3.099,2.047-0.198,7.067,2.926,5.004c45.206-29.865,92.569-56.08,141.879-78.531
			C2828.375,3906.118,2825.433,3901.123,2822.059,3902.658z"/>
		
			<linearGradient id="SVGID_00000139286899414536878750000005357606794344961208_" gradientUnits="userSpaceOnUse" x1="2803.8381" y1="4011.4717" x2="2798.2263" y2="3908.0522">
			<stop  offset="0" style="stop-color:#963D13"/>
			<stop  offset="0.0218" style="stop-color:#943C12"/>
			<stop  offset="0.4447" style="stop-color:#6E2908"/>
			<stop  offset="0.7857" style="stop-color:#571D02"/>
			<stop  offset="1" style="stop-color:#4F1900"/>
		</linearGradient>
		<path style="fill:url(#SVGID_00000139286899414536878750000005357606794344961208_);" d="M2886.08,3903.617
			c-58.925,33.74-116.65,69.489-173.112,107.206c-3.085,2.062-0.188,7.084,2.924,5.004
			c56.462-37.718,114.188-73.468,173.112-107.206C2892.241,3906.769,2889.325,3901.76,2886.08,3903.617z"/>
		
			<linearGradient id="SVGID_00000077296406994376940630000013420656515245659306_" gradientUnits="userSpaceOnUse" x1="2845.2656" y1="4037.4924" x2="2838.8289" y2="3918.8718">
			<stop  offset="0" style="stop-color:#963D13"/>
			<stop  offset="0.0218" style="stop-color:#943C12"/>
			<stop  offset="0.4447" style="stop-color:#6E2908"/>
			<stop  offset="0.7857" style="stop-color:#571D02"/>
			<stop  offset="1" style="stop-color:#4F1900"/>
		</linearGradient>
		<path style="fill:url(#SVGID_00000077296406994376940630000013420656515245659306_);" d="M2935.303,3914.038
			c-63.145,41.095-126.291,82.189-189.437,123.284c-3.115,2.027-0.213,7.046,2.926,5.004
			c63.146-41.095,126.291-82.189,189.437-123.284C2941.343,3917.015,2938.441,3911.997,2935.303,3914.038z"/>
		
			<linearGradient id="SVGID_00000039122224543247067380000008413368476021935503_" gradientUnits="userSpaceOnUse" x1="2900.2051" y1="4054.8997" x2="2893.2874" y2="3927.417">
			<stop  offset="0" style="stop-color:#963D13"/>
			<stop  offset="0.0218" style="stop-color:#943C12"/>
			<stop  offset="0.4447" style="stop-color:#6E2908"/>
			<stop  offset="0.7857" style="stop-color:#571D02"/>
			<stop  offset="1" style="stop-color:#4F1900"/>
		</linearGradient>
		<path style="fill:url(#SVGID_00000039122224543247067380000008413368476021935503_);" d="M3010.842,3921.433
			c-74.987,48.241-152.052,93.125-231.009,134.549c-3.304,1.731-0.377,6.735,2.924,5.003
			c78.959-41.423,156.022-86.307,231.009-134.548C3016.893,3924.426,3013.991,3919.408,3010.842,3921.433z"/>
		
			<linearGradient id="SVGID_00000014620683278790532530000003393230228976035712_" gradientUnits="userSpaceOnUse" x1="2950.2012" y1="4085.3738" x2="2943.0286" y2="3953.1897">
			<stop  offset="0" style="stop-color:#963D13"/>
			<stop  offset="0.0218" style="stop-color:#943C12"/>
			<stop  offset="0.4447" style="stop-color:#6E2908"/>
			<stop  offset="0.7857" style="stop-color:#571D02"/>
			<stop  offset="1" style="stop-color:#4F1900"/>
		</linearGradient>
		<path style="fill:url(#SVGID_00000014620683278790532530000003393230228976035712_);" d="M3065.855,3946.864
			c-80.47,46.611-160.935,93.221-241.405,139.832c-3.226,1.869-0.311,6.879,2.927,5.004
			c80.468-46.611,160.935-93.223,241.403-139.833C3072.005,3949.998,3069.091,3944.987,3065.855,3946.864z"/>
		
			<linearGradient id="SVGID_00000055693994317352444720000010004747551303739021_" gradientUnits="userSpaceOnUse" x1="3026.0872" y1="4105.0791" x2="3017.916" y2="3954.4949">
			<stop  offset="0" style="stop-color:#963D13"/>
			<stop  offset="0.0218" style="stop-color:#943C12"/>
			<stop  offset="0.4447" style="stop-color:#6E2908"/>
			<stop  offset="0.7857" style="stop-color:#571D02"/>
			<stop  offset="1" style="stop-color:#4F1900"/>
		</linearGradient>
		<path style="fill:url(#SVGID_00000055693994317352444720000010004747551303739021_);" d="M3163.672,3946.907
			c-95.422,53.586-190.843,107.17-286.266,160.756c-3.252,1.826-0.334,6.833,2.926,5.003
			c95.422-53.585,190.843-107.168,286.266-160.754C3169.849,3950.085,3166.932,3945.078,3163.672,3946.907z"/>
		
			<linearGradient id="SVGID_00000182505713022077709340000016067924548615067033_" gradientUnits="userSpaceOnUse" x1="1577.4497" y1="3692.3809" x2="1575.3484" y2="3653.6545">
			<stop  offset="0" style="stop-color:#963D13"/>
			<stop  offset="0.0218" style="stop-color:#943C12"/>
			<stop  offset="0.4447" style="stop-color:#6E2908"/>
			<stop  offset="0.7857" style="stop-color:#571D02"/>
			<stop  offset="1" style="stop-color:#4F1900"/>
		</linearGradient>
		<path style="fill:url(#SVGID_00000182505713022077709340000016067924548615067033_);" d="M1616.011,3651.675
			c-27.383,12.561-54.766,25.121-82.148,37.681c-3.386,1.554-0.445,6.551,2.924,5.004c27.383-12.56,54.765-25.12,82.148-37.681
			C1622.321,3655.128,1619.38,3650.131,1616.011,3651.675z"/>
		
			<linearGradient id="SVGID_00000008850543975129465450000000959633367116687290_" gradientUnits="userSpaceOnUse" x1="1620.0891" y1="3709.1489" x2="1617.5522" y2="3662.397">
			<stop  offset="0" style="stop-color:#963D13"/>
			<stop  offset="0.0218" style="stop-color:#943C12"/>
			<stop  offset="0.4447" style="stop-color:#6E2908"/>
			<stop  offset="0.7857" style="stop-color:#571D02"/>
			<stop  offset="1" style="stop-color:#4F1900"/>
		</linearGradient>
		<path style="fill:url(#SVGID_00000008850543975129465450000000959633367116687290_);" d="M1654.237,3661.008
			c-22.502,18.357-47.217,33.219-73.995,44.452c-3.389,1.421-1.9,7.031,1.538,5.588c27.748-11.64,53.238-26.921,76.554-45.943
			C1661.225,3662.747,1657.104,3658.668,1654.237,3661.008z"/>
		
			<linearGradient id="SVGID_00000088128125790179700970000014150862273378564541_" gradientUnits="userSpaceOnUse" x1="1672.5663" y1="3737.3159" x2="1669.0933" y2="3673.312">
			<stop  offset="0" style="stop-color:#963D13"/>
			<stop  offset="0.0218" style="stop-color:#943C12"/>
			<stop  offset="0.4447" style="stop-color:#6E2908"/>
			<stop  offset="0.7857" style="stop-color:#571D02"/>
			<stop  offset="1" style="stop-color:#4F1900"/>
		</linearGradient>
		<path style="fill:url(#SVGID_00000088128125790179700970000014150862273378564541_);" d="M1729.637,3670.237
			c-41.931,18.45-82.216,40.135-120.706,64.973c-3.124,2.015-0.222,7.033,2.924,5.004c38.491-24.841,78.776-46.523,120.706-64.973
			C1735.968,3673.743,1733.021,3668.747,1729.637,3670.237z"/>
		
			<linearGradient id="SVGID_00000158022724327462683890000002526880268411465349_" gradientUnits="userSpaceOnUse" x1="1721.0701" y1="3759.3206" x2="1717.0304" y2="3684.874">
			<stop  offset="0" style="stop-color:#963D13"/>
			<stop  offset="0.0218" style="stop-color:#943C12"/>
			<stop  offset="0.4447" style="stop-color:#6E2908"/>
			<stop  offset="0.7857" style="stop-color:#571D02"/>
			<stop  offset="1" style="stop-color:#4F1900"/>
		</linearGradient>
		<path style="fill:url(#SVGID_00000158022724327462683890000002526880268411465349_);" d="M1784.1,3681.566
			c-44.342,25.353-88.682,50.706-133.024,76.058c-3.238,1.852-0.322,6.86,2.925,5.004c44.34-25.353,88.682-50.706,133.023-76.059
			C1790.261,3684.719,1787.345,3679.711,1784.1,3681.566z"/>
		
			<linearGradient id="SVGID_00000147210666647632112570000014534454999397547910_" gradientUnits="userSpaceOnUse" x1="1770.6625" y1="3777.3457" x2="1766.7568" y2="3705.3696">
			<stop  offset="0" style="stop-color:#963D13"/>
			<stop  offset="0.0218" style="stop-color:#943C12"/>
			<stop  offset="0.4447" style="stop-color:#6E2908"/>
			<stop  offset="0.7857" style="stop-color:#571D02"/>
			<stop  offset="1" style="stop-color:#4F1900"/>
		</linearGradient>
		<path style="fill:url(#SVGID_00000147210666647632112570000014534454999397547910_);" d="M1830.379,3702.256
			c-42.087,24.4-84.175,48.8-126.262,73.199c-3.226,1.871-0.312,6.88,2.924,5.004c42.088-24.4,84.176-48.799,126.264-73.199
			C1836.529,3705.39,1833.614,3700.38,1830.379,3702.256z"/>
		
			<linearGradient id="SVGID_00000003094770277727137900000015519222884248433320_" gradientUnits="userSpaceOnUse" x1="694.1068" y1="3322.9575" x2="681.9695" y2="3099.2834">
			<stop  offset="0" style="stop-color:#963D13"/>
			<stop  offset="0.0218" style="stop-color:#943C12"/>
			<stop  offset="0.4447" style="stop-color:#6E2908"/>
			<stop  offset="0.7857" style="stop-color:#571D02"/>
			<stop  offset="1" style="stop-color:#4F1900"/>
		</linearGradient>
		<path style="fill:url(#SVGID_00000003094770277727137900000015519222884248433320_);" d="M913.391,3305.32
			c-153.828-53.917-303.652-118.702-448.306-193.835c-3.305-1.717-6.24,3.282-2.924,5.004
			c145.093,75.362,295.396,140.338,449.689,194.42C915.378,3312.143,916.894,3306.548,913.391,3305.32z"/>
		
			<linearGradient id="SVGID_00000013182058002198051140000015050651285836871600_" gradientUnits="userSpaceOnUse" x1="650.622" y1="3342.6326" x2="640.2531" y2="3151.5454">
			<stop  offset="0" style="stop-color:#963D13"/>
			<stop  offset="0.0218" style="stop-color:#943C12"/>
			<stop  offset="0.4447" style="stop-color:#6E2908"/>
			<stop  offset="0.7857" style="stop-color:#571D02"/>
			<stop  offset="1" style="stop-color:#4F1900"/>
		</linearGradient>
		<path style="fill:url(#SVGID_00000013182058002198051140000015050651285836871600_);" d="M828.858,3327.16
			c-62.821-26.371-125.642-52.744-188.463-79.115c-59.891-25.141-123.658-47.033-176.119-86.304
			c-2.987-2.236-5.879,2.793-2.925,5.003c51.365,38.449,113.612,60.068,172.27,84.693c64.565,27.104,129.131,54.207,193.696,81.311
			C830.751,3334.19,832.252,3328.585,828.858,3327.16z"/>
		
			<linearGradient id="SVGID_00000027572652136997279950000008700386277773659038_" gradientUnits="userSpaceOnUse" x1="649.3511" y1="3381.5042" x2="641.0632" y2="3228.7686">
			<stop  offset="0" style="stop-color:#963D13"/>
			<stop  offset="0.0218" style="stop-color:#943C12"/>
			<stop  offset="0.4447" style="stop-color:#6E2908"/>
			<stop  offset="0.7857" style="stop-color:#571D02"/>
			<stop  offset="1" style="stop-color:#4F1900"/>
		</linearGradient>
		<path style="fill:url(#SVGID_00000027572652136997279950000008700386277773659038_);" d="M835.708,3365.669
			c-126.488-42.217-252.973-84.435-379.46-126.653c-3.546-1.184-5.067,4.41-1.541,5.588
			c126.487,42.217,252.974,84.435,379.46,126.653C837.712,3372.439,839.233,3366.845,835.708,3365.669z"/>
		
			<linearGradient id="SVGID_00000013875860410567566830000001529772628036627868_" gradientUnits="userSpaceOnUse" x1="638.3984" y1="3422.47" x2="632.5223" y2="3314.1807">
			<stop  offset="0" style="stop-color:#963D13"/>
			<stop  offset="0.0218" style="stop-color:#943C12"/>
			<stop  offset="0.4447" style="stop-color:#6E2908"/>
			<stop  offset="0.7857" style="stop-color:#571D02"/>
			<stop  offset="1" style="stop-color:#4F1900"/>
		</linearGradient>
		<path style="fill:url(#SVGID_00000013875860410567566830000001529772628036627868_);" d="M799.726,3408.069
			c-55.031-13.583-110.061-27.167-165.093-40.749c-54.078-13.349-110.012-23.922-162.028-44.192
			c-3.475-1.355-4.983,4.246-1.538,5.587c52.018,20.272,107.945,30.843,162.026,44.193c55.031,13.584,110.062,27.167,165.094,40.749
			C801.807,3414.551,803.351,3408.965,799.726,3408.069z"/>
		
			<linearGradient id="SVGID_00000174578403904062811360000003065244489967740600_" gradientUnits="userSpaceOnUse" x1="607.8948" y1="3451.2019" x2="604.8425" y2="3394.9512">
			<stop  offset="0" style="stop-color:#963D13"/>
			<stop  offset="0.0218" style="stop-color:#943C12"/>
			<stop  offset="0.4447" style="stop-color:#6E2908"/>
			<stop  offset="0.7857" style="stop-color:#571D02"/>
			<stop  offset="1" style="stop-color:#4F1900"/>
		</linearGradient>
		<path style="fill:url(#SVGID_00000174578403904062811360000003065244489967740600_);" d="M753.145,3437.513
			c-98.435-2.807-196.335-14.375-292.709-34.614c-3.637-0.764-5.193,4.822-1.538,5.588c96.872,20.342,195.302,31.999,294.248,34.821
			C756.876,3443.416,756.872,3437.621,753.145,3437.513z"/>
		
			<linearGradient id="SVGID_00000119114799620260704710000000790021674093201314_" gradientUnits="userSpaceOnUse" x1="609.7167" y1="3520.0913" x2="606.6787" y2="3464.1055">
			<stop  offset="0" style="stop-color:#963D13"/>
			<stop  offset="0.0218" style="stop-color:#943C12"/>
			<stop  offset="0.4447" style="stop-color:#6E2908"/>
			<stop  offset="0.7857" style="stop-color:#571D02"/>
			<stop  offset="1" style="stop-color:#4F1900"/>
		</linearGradient>
		<path style="fill:url(#SVGID_00000119114799620260704710000000790021674093201314_);" d="M773.662,3505.603
			c-109.097-19.307-219.476-30.231-330.244-32.628c-3.731-0.08-3.729,5.715,0,5.795c110.251,2.385,220.111,13.203,328.703,32.421
			C775.768,3511.837,777.333,3506.253,773.662,3505.603z"/>
		
			<linearGradient id="SVGID_00000004533412890563293950000001106743128106721959_" gradientUnits="userSpaceOnUse" x1="641.389" y1="3566.6709" x2="640.4734" y2="3549.7976">
			<stop  offset="0" style="stop-color:#963D13"/>
			<stop  offset="0.0218" style="stop-color:#943C12"/>
			<stop  offset="0.4447" style="stop-color:#6E2908"/>
			<stop  offset="0.7857" style="stop-color:#571D02"/>
			<stop  offset="1" style="stop-color:#4F1900"/>
		</linearGradient>
		<path style="fill:url(#SVGID_00000004533412890563293950000001106743128106721959_);" d="M782.392,3542.104
			c-47.253,5.607-94.567,10.676-141.943,15.13c-22.738,2.139-45.49,4.186-68.255,6.01c-24.493,1.964-48.791,3.276-72.492-4.5
			c-3.551-1.163-5.073,4.431-1.541,5.589c42.829,14.052,92.791,3.307,136.603-0.773c49.275-4.587,98.485-9.83,147.628-15.662
			C786.05,3547.465,786.094,3541.666,782.392,3542.104z"/>
		
			<linearGradient id="SVGID_00000058558135779265015820000008499328733399381128_" gradientUnits="userSpaceOnUse" x1="673.3738" y1="3640.5833" x2="669.8279" y2="3575.2385">
			<stop  offset="0" style="stop-color:#963D13"/>
			<stop  offset="0.0218" style="stop-color:#943C12"/>
			<stop  offset="0.4447" style="stop-color:#6E2908"/>
			<stop  offset="0.7857" style="stop-color:#571D02"/>
			<stop  offset="1" style="stop-color:#4F1900"/>
		</linearGradient>
		<path style="fill:url(#SVGID_00000058558135779265015820000008499328733399381128_);" d="M807.473,3567.917
			c-88.508,33.474-179.921,58.409-273.166,74.518c-3.668,0.633-2.113,6.219,1.541,5.587
			c93.245-16.107,184.658-41.044,273.165-74.516C812.467,3572.2,810.97,3566.597,807.473,3567.917z"/>
		
			<linearGradient id="SVGID_00000101808343223754410870000008929233710271246774_" gradientUnits="userSpaceOnUse" x1="698.701" y1="3710.9314" x2="693.8859" y2="3622.197">
			<stop  offset="0" style="stop-color:#963D13"/>
			<stop  offset="0.0218" style="stop-color:#943C12"/>
			<stop  offset="0.4447" style="stop-color:#6E2908"/>
			<stop  offset="0.7857" style="stop-color:#571D02"/>
			<stop  offset="1" style="stop-color:#4F1900"/>
		</linearGradient>
		<path style="fill:url(#SVGID_00000101808343223754410870000008929233710271246774_);" d="M833.269,3614.87
			c-88.731,41.568-181.223,74.348-276.302,98.021c-3.616,0.9-2.083,6.489,1.541,5.587c95.566-23.794,188.505-56.826,277.685-98.604
			C839.569,3618.292,836.628,3613.295,833.269,3614.87z"/>
		
			<linearGradient id="SVGID_00000157986811908321264970000011370852032780953747_" gradientUnits="userSpaceOnUse" x1="735.5928" y1="3784.8762" x2="728.3601" y2="3651.5867">
			<stop  offset="0" style="stop-color:#963D13"/>
			<stop  offset="0.0218" style="stop-color:#943C12"/>
			<stop  offset="0.4447" style="stop-color:#6E2908"/>
			<stop  offset="0.7857" style="stop-color:#571D02"/>
			<stop  offset="1" style="stop-color:#4F1900"/>
		</linearGradient>
		<path style="fill:url(#SVGID_00000157986811908321264970000011370852032780953747_);" d="M891.343,3643.019
			c-104.611,53.587-211.779,101.987-321.164,145.001c-3.43,1.35-1.937,6.956,1.541,5.588
			c109.847-43.197,217.494-91.771,322.547-145.585C897.588,3646.323,894.66,3641.32,891.343,3643.019z"/>
		
			<linearGradient id="SVGID_00000060022874113185924020000003521787722127606440_" gradientUnits="userSpaceOnUse" x1="785.4799" y1="3841.533" x2="776.2201" y2="3670.8855">
			<stop  offset="0" style="stop-color:#963D13"/>
			<stop  offset="0.0218" style="stop-color:#943C12"/>
			<stop  offset="0.4447" style="stop-color:#6E2908"/>
			<stop  offset="0.7857" style="stop-color:#571D02"/>
			<stop  offset="1" style="stop-color:#4F1900"/>
		</linearGradient>
		<path style="fill:url(#SVGID_00000060022874113185924020000003521787722127606440_);" d="M968.454,3660.801
			c-121.033,71.183-247.248,133.208-377.581,185.455c-3.419,1.37-1.927,6.978,1.541,5.588
			c130.802-52.434,257.495-114.598,378.966-186.041C974.591,3663.914,971.68,3658.903,968.454,3660.801z"/>
		
			<linearGradient id="SVGID_00000149361665601663811230000017628163447401889940_" gradientUnits="userSpaceOnUse" x1="4078.8022" y1="3472.7676" x2="4077.4351" y2="3447.5735">
			<stop  offset="0" style="stop-color:#963D13"/>
			<stop  offset="0.0218" style="stop-color:#943C12"/>
			<stop  offset="0.4447" style="stop-color:#6E2908"/>
			<stop  offset="0.7857" style="stop-color:#571D02"/>
			<stop  offset="1" style="stop-color:#4F1900"/>
		</linearGradient>
		<path style="fill:url(#SVGID_00000149361665601663811230000017628163447401889940_);" d="M4224.691,3458.596
			c-97.662,7.603-195.724,6.578-293.206-3.064c-3.708-0.366-3.682,5.431,0,5.794c97.482,9.642,195.544,10.668,293.206,3.065
			C4228.386,3464.104,4228.417,3458.307,4224.691,3458.596z"/>
		
			<linearGradient id="SVGID_00000065759449943336658020000017341355457265075094_" gradientUnits="userSpaceOnUse" x1="4007.2007" y1="3432.0615" x2="4004.9827" y2="3391.1875">
			<stop  offset="0" style="stop-color:#963D13"/>
			<stop  offset="0.0218" style="stop-color:#943C12"/>
			<stop  offset="0.4447" style="stop-color:#6E2908"/>
			<stop  offset="0.7857" style="stop-color:#571D02"/>
			<stop  offset="1" style="stop-color:#4F1900"/>
		</linearGradient>
		<path style="fill:url(#SVGID_00000065759449943336658020000017341355457265075094_);" d="M4205.075,3415.529
			c-132.825,6.417-265.941,1.886-398.02-13.553c-3.699-0.432-3.668,5.366,0,5.795c132.079,15.439,265.195,19.97,398.02,13.553
			C4208.788,3421.144,4208.81,3415.348,4205.075,3415.529z"/>
		
			<linearGradient id="SVGID_00000021830561550711683650000014621030821135659403_" gradientUnits="userSpaceOnUse" x1="3970.3362" y1="3386.6194" x2="3966.9226" y2="3323.7087">
			<stop  offset="0" style="stop-color:#963D13"/>
			<stop  offset="0.0218" style="stop-color:#943C12"/>
			<stop  offset="0.4447" style="stop-color:#6E2908"/>
			<stop  offset="0.7857" style="stop-color:#571D02"/>
			<stop  offset="1" style="stop-color:#4F1900"/>
		</linearGradient>
		<path style="fill:url(#SVGID_00000021830561550711683650000014621030821135659403_);" d="M4208.362,3367.9
			c-160.232-2.985-320.246-13.406-479.51-31.227c-3.701-0.415-3.671,5.385,0,5.795c159.265,17.822,319.279,28.243,479.51,31.226
			C4212.091,3373.764,4212.093,3367.969,4208.362,3367.9z"/>
		
			<linearGradient id="SVGID_00000123403576897496400020000004951855069566104765_" gradientUnits="userSpaceOnUse" x1="4011.3425" y1="3337.9661" x2="4007.2485" y2="3262.5166">
			<stop  offset="0" style="stop-color:#963D13"/>
			<stop  offset="0.0218" style="stop-color:#943C12"/>
			<stop  offset="0.4447" style="stop-color:#6E2908"/>
			<stop  offset="0.7857" style="stop-color:#571D02"/>
			<stop  offset="1" style="stop-color:#4F1900"/>
		</linearGradient>
		<path style="fill:url(#SVGID_00000123403576897496400020000004951855069566104765_);" d="M4276.52,3317.753
			c-178.149-13.605-356.299-27.212-534.448-40.818c-3.72-0.284-3.701,5.512,0,5.794c178.149,13.607,356.299,27.214,534.448,40.819
			C4280.24,3323.833,4280.221,3318.036,4276.52,3317.753z"/>
		
			<linearGradient id="SVGID_00000080921440431708141110000009998577819883803307_" gradientUnits="userSpaceOnUse" x1="4131.1943" y1="3285.5991" x2="4128.8496" y2="3242.3838">
			<stop  offset="0" style="stop-color:#963D13"/>
			<stop  offset="0.0218" style="stop-color:#943C12"/>
			<stop  offset="0.4447" style="stop-color:#6E2908"/>
			<stop  offset="0.7857" style="stop-color:#571D02"/>
			<stop  offset="1" style="stop-color:#4F1900"/>
		</linearGradient>
		<path style="fill:url(#SVGID_00000080921440431708141110000009998577819883803307_);" d="M4250.616,3273.299
			c-80.357-5.433-160.498-13.56-240.303-24.422c-3.646-0.497-5.224,5.087-1.541,5.588c80.322,10.931,160.966,19.16,241.844,24.629
			C4254.336,3279.343,4254.322,3273.547,4250.616,3273.299z"/>
	</g>
</g>
<g>
</g>
</svg>
