<?xml version="1.0" encoding="utf-8"?>
<!-- Generator: Adobe Illustrator 27.5.0, SVG Export Plug-In . SVG Version: 6.00 Build 0)  -->
<svg version="1.1" id="Layer_1" xmlns="http://www.w3.org/2000/svg" xmlns:xlink="http://www.w3.org/1999/xlink" x="0px" y="0px"
	 viewBox="0 0 2499 2499" style="enable-background:new 0 0 2499 2499;" xml:space="preserve">
<g>
	<path style="fill:#585E68;" d="M1675.273,1349.522c3.54-2.652,7.027-4.549,11.385-5.4c6.213,5.661,11.069,11.771,16.406,18.208
		l6.06,7.076c6.848,8.741,14.024,17.365,20.416,26.442c-3.756,3.823-7.487,7.645-11.464,11.248
		c-5.109-6.939-59.039-28.704-72.594-37.69c4.088-6.52,11.783-10.426,18.291-14.053
		C1667.453,1353.174,1671.425,1351.402,1675.273,1349.522z"/>
	<path style="fill:#3B3D40;" d="M1675.273,1349.522c3.54-2.652,7.027-4.549,11.385-5.4c6.213,5.661,11.069,11.771,16.406,18.208
		l6.06,7.076c-5.005,13.086-39.296-8.745-45.351-14.053C1667.453,1353.174,1671.425,1351.402,1675.273,1349.522z"/>
	<path style="fill:#585E68;" d="M1675.273,1349.522c3.54-2.652,7.027-4.549,11.385-5.4c6.213,5.661,11.069,11.771,16.406,18.208
		C1694.364,1362.077,1682.905,1353.626,1675.273,1349.522z"/>
	<path style="fill:#585E68;" d="M1645.481,1369.406c13.555,8.986,67.485,30.75,72.594,37.69l-8.952,9.629
		c-7.159,4.001-12.929,8.255-19.162,13.592c-8.77-11.658-56.943-26.475-73.889-42.516c5.109-4.885,10.384-8.62,16.502-12.123
		L1645.481,1369.406z"/>
	<path style="fill:#3B3D40;" d="M1645.481,1369.406c13.555,8.986,67.485,30.75,72.594,37.69l-8.952,9.629
		c-24.276-15.498-52.888-24.504-76.55-41.047L1645.481,1369.406z"/>
	<path style="fill:#585E68;" d="M1616.071,1387.801c16.946,16.041,65.12,30.858,73.889,42.516l-3.304,4.532
		c-9.301,5.86-17.187,12.879-26.015,19.295c-4.893-9.293-62.642-32.967-76.288-47.049c4.873-4.088,10.268-7.599,15.473-11.248
		C1605.023,1392.603,1610.468,1390.237,1616.071,1387.801z"/>
	<path style="fill:#3B3D40;" d="M1616.071,1387.801c16.946,16.041,65.12,30.858,73.889,42.516l-3.304,4.532
		c-31.867-6.836-57.823-25.317-86.83-39.001C1605.023,1392.603,1610.468,1390.237,1616.071,1387.801z"/>
	<path style="fill:#585E68;" d="M1584.354,1407.096c13.646,14.082,71.395,37.756,76.288,47.049l-6.981,4.877
		c-6.109,4.798-12.63,9.438-18.353,14.672c-3.544,2.275-7.076,4.827-10.783,6.815c-25.695-14.805-58.691-31.639-85.216-45.659
		l11.683-8.57c5.939-4.263,11.907-6.952,18.668-9.554C1574.468,1413.317,1579.191,1409.947,1584.354,1407.096z"/>
	<path style="fill:#3B3D40;" d="M1584.354,1407.096c13.646,14.082,71.395,37.756,76.288,47.049l-6.981,4.877
		c-29.816-9.455-54.391-33.054-84-42.297C1574.468,1413.317,1579.191,1409.947,1584.354,1407.096z"/>
	<path style="fill:#3B3D40;" d="M1550.993,1426.279c20.395,14.572,73.918,38.034,84.315,47.414
		c-3.544,2.275-7.076,4.827-10.783,6.815c-25.695-14.805-58.691-31.639-85.216-45.659L1550.993,1426.279z"/>
	<path style="fill:#3B3D40;" d="M893.385,1575.992c8.359-3.997,28.941,2.553,37.968,4.856c9.052,0.286,19.955,2.947,28.737,2.054
		c7.267,0.328,14.153,2.424,21.196,4.08c9.044,19.275,75.043,64.962,74.773,78.509l-0.743,1.486
		C987.287,1662.453,944.958,1613.304,893.385,1575.992z"/>
	<path style="fill:#585E68;" d="M931.353,1580.848c9.052,0.286,19.955,2.947,28.737,2.054
		c10.521,20.561,48.589,51.299,66.377,68.714C991.214,1634.201,958.309,1609.477,931.353,1580.848z"/>
	<path style="fill:#585E68;" d="M1521.007,1443.528c5.69-3.644,11.7-7.031,18.303-8.679c26.525,14.02,59.521,30.854,85.216,45.659
		c-6.138,4.545-15.095,9.99-18.926,16.639l-11.351,4.914c-7.176,4.204-14.418,8.33-21.42,12.821
		c-8.334-12.464-64.177-31.298-84.224-52.415c6.126-5.288,12.534-8.645,19.909-11.733
		C1512.523,1447.965,1516.694,1445.773,1521.007,1443.528z"/>
	<path style="fill:#3B3D40;" d="M1521.007,1443.528c22.337,22.744,69.776,36.503,84.593,53.619l-11.351,4.914
		c-8.292-9.841-66.954-35.083-85.734-51.328C1512.523,1447.965,1516.694,1445.773,1521.007,1443.528z"/>
	<path style="fill:#585E68;" d="M1488.605,1462.466c6.126-5.288,12.534-8.645,19.909-11.733
		c18.781,16.245,77.442,41.487,85.734,51.328c-7.176,4.204-14.418,8.33-21.42,12.821
		C1564.495,1502.418,1508.651,1483.583,1488.605,1462.466z"/>
	<path style="fill:#585E68;" d="M1488.605,1462.466c20.046,21.117,75.89,39.952,84.224,52.415c-4.022,2.204-8.023,4.441-12.09,6.553
		c-6.91,5.234-14.078,9.857-21.428,14.448l-6.35,4.64c-8.529,3.557-16.407,7.724-24.446,12.252
		c-15.709-16.128-64.489-33.141-89.723-55.628c5.412-4.155,12.953-7.454,19.308-9.953c4.731-2.523,9.816-4.524,14.721-6.686
		c7.525-4.869,14.867-8.811,23.238-12.045L1488.605,1462.466z"/>
	<path style="fill:#3B3D40;" d="M1452.82,1480.508c12.538,6.383,82.759,49.319,86.49,55.375l-6.35,4.64
		c-19.768-11.476-77.185-47.269-94.861-53.328C1442.83,1484.671,1447.914,1482.67,1452.82,1480.508z"/>
	<path style="fill:#585E68;" d="M1488.605,1462.466c20.046,21.117,75.89,39.952,84.224,52.415c-4.022,2.204-8.023,4.441-12.09,6.553
		c-6.91,5.234-14.078,9.857-21.428,14.448c-3.731-6.056-73.952-48.991-86.49-55.375c7.525-4.869,14.867-8.811,23.238-12.045
		L1488.605,1462.466z"/>
	<path style="fill:#3B3D40;" d="M1488.605,1462.466c20.046,21.117,75.89,39.952,84.224,52.415c-4.022,2.204-8.023,4.441-12.09,6.553
		c-20.598-17.693-59.433-34.257-84.68-52.971L1488.605,1462.466z"/>
	<path style="fill:#585E68;" d="M1238.046,1563.611c8.429-2.357,16.751-4.403,25.375-5.943
		c22.773,24.354,71.951,46.617,86.585,63.638c-11.102,2.088-21.242,6.753-31.323,11.679h-5.719
		c-9.857,2.391-21.964,4.316-30.924,9.002h-4.404c-13.215,2.992-26.592,5.806-39.591,9.629
		c-0.83-11.264-67.535-59.454-81.078-70.768c9.189-2.146,17.851-3.98,27.276-4.856c4.308-1.54,8.703-2.822,13.082-4.154
		c9.5-1.818,18.988-3.578,28.546-5.08C1229.944,1565.782,1233.991,1564.678,1238.046,1563.611z"/>
	<path style="fill:#3B3D40;" d="M1238.046,1563.611c17.033,17.257,78.334,53.403,80.638,69.374h-5.719
		c-22.429-13.9-70.569-46.563-87.092-66.228C1229.944,1565.782,1233.991,1564.678,1238.046,1563.611z"/>
	<path style="fill:#585E68;" d="M1238.046,1563.611c8.429-2.357,16.751-4.403,25.375-5.943
		c22.773,24.354,71.951,46.617,86.585,63.638c-11.102,2.088-21.242,6.753-31.323,11.679
		C1316.38,1617.014,1255.079,1580.868,1238.046,1563.611z"/>
	<path style="fill:#585E68;" d="M1197.326,1571.837c11.675,9.583,82.452,63.376,84.714,70.15h-4.404
		c-13.215,2.992-26.592,5.806-39.591,9.629c-0.83-11.264-67.535-59.454-81.078-70.768c9.189-2.146,17.851-3.98,27.276-4.856
		C1188.552,1574.452,1192.948,1573.169,1197.326,1571.837z"/>
	<path style="fill:#3B3D40;" d="M1197.326,1571.837c11.675,9.583,82.452,63.376,84.714,70.15h-4.404
		c-35.585-21.603-61.459-32.929-93.392-65.995C1188.552,1574.452,1192.948,1573.169,1197.326,1571.837z"/>
	<path style="fill:#585E68;" d="M1142.072,1580.848c4.96-0.116,9.936-0.021,14.896,0c13.543,11.314,80.248,59.504,81.078,70.768
		h-6.881c-10.982,3.515-23.039,3.623-33.838,7.587h-7.135c-12.131,1.963-24.375,3.403-36.561,4.989h-3.013
		c-14.742,1.299-29.671,2.76-44.48,2.785h-11.418c-12.953,1.096-26.409,0.232-39.404,0l0.743-1.486
		c0.27-13.547-65.73-59.234-74.773-78.509c8.446-1.129,16.581-0.884,25.039,0c6.695-0.22,13.472-0.726,20.142,0h24.18h19.586
		c9.737-0.776,19.411-0.975,29.14,0c4.744-0.112,9.496-0.021,14.244,0C1122.652,1583.682,1132.605,1582.317,1142.072,1580.848z"/>
	<path style="fill:#3B3D40;" d="M1050.647,1586.982h19.586c16.037,21.204,79.795,64.447,83.398,77.21h-3.013
		C1129.679,1661.647,1067.315,1604.102,1050.647,1586.982z"/>
	<path style="fill:#585E68;" d="M981.286,1586.982c8.446-1.129,16.581-0.884,25.039,0c6.695-0.22,13.472-0.726,20.142,0
		c15.103,22.109,76.72,68.876,79.671,79.995h-11.418c-12.953,1.096-26.409,0.232-39.404,0l0.743-1.486
		C1056.329,1651.944,990.33,1606.256,981.286,1586.982z"/>
	<path style="fill:#3B3D40;" d="M1006.325,1586.982c6.695-0.22,13.472-0.726,20.142,0c15.103,22.109,76.72,68.876,79.671,79.995
		h-11.418C1086.86,1653.832,1013.182,1604.198,1006.325,1586.982z"/>
	<path style="fill:#585E68;" d="M1142.072,1580.848c4.96-0.116,9.936-0.021,14.896,0c13.543,11.314,80.248,59.504,81.078,70.768
		h-6.881c-10.982,3.515-23.039,3.623-33.838,7.587h-7.135c-12.131,1.963-24.375,3.403-36.561,4.989
		c-3.603-12.762-67.361-56.005-83.398-77.21c9.737-0.776,19.411-0.975,29.14,0c4.744-0.112,9.496-0.021,14.244,0
		C1122.652,1583.682,1132.605,1582.317,1142.072,1580.848z"/>
	<path style="fill:#3B3D40;" d="M1099.373,1586.982c4.744-0.112,9.496-0.021,14.244,0c11.571,8.135,84.336,64.866,83.709,72.221
		h-7.135C1158.45,1643.253,1125.798,1611.461,1099.373,1586.982z"/>
	<path style="fill:#585E68;" d="M1142.072,1580.848c4.96-0.116,9.936-0.021,14.896,0c13.543,11.314,80.248,59.504,81.078,70.768
		h-6.881c-10.982,3.515-23.039,3.623-33.838,7.587c0.627-7.355-72.138-64.086-83.709-72.221
		C1122.652,1583.682,1132.605,1582.317,1142.072,1580.848z"/>
	<path style="fill:#3B3D40;" d="M1142.072,1580.848c4.96-0.116,9.936-0.021,14.896,0c13.543,11.314,80.248,59.504,81.078,70.768
		h-6.881C1218.194,1647.109,1146.675,1592.058,1142.072,1580.848z"/>
	<path style="fill:#585E68;" d="M1418.791,1497.147c25.234,22.487,74.014,39.499,89.723,55.628l-8.566,4.893
		c-29.132,16.485-78.168,32.414-101.668,49.049h-7.209c-11.239,4.109-21.711,7.99-31.8,14.589c-3.08-0.137-6.197-0.436-9.264,0
		c-14.634-17.021-63.812-39.283-86.585-63.638l14.215-4.893c6.686-2.64,13.597-4.744,20.428-6.977l14.9-5.275
		c7.873-3.486,16.091-5.732,24.35-8.085l12.692-5.055c6.852-3.889,14.418-6.724,21.665-9.803l11.804-2.698
		c7.824-5.317,16.253-9.027,24.886-12.821C1411.69,1500.172,1415.301,1498.72,1418.791,1497.147z"/>
	<path style="fill:#3B3D40;" d="M1383.475,1514.881c11.173,6.441,81.07,49.016,83.456,54.279l-0.411,1.88
		c-20.266,3.163-80.671-39.329-94.849-53.461L1383.475,1514.881z"/>
	<path style="fill:#3B3D40;" d="M1350.007,1527.382c17.548,22.62,72.976,43.247,82.373,57.611l-0.319,1.44
		c-20.993,5.47-77.409-37.955-91.167-50.718l-3.578-3.279L1350.007,1527.382z"/>
	<path style="fill:#3B3D40;" d="M1418.791,1497.147c25.234,22.487,74.014,39.499,89.723,55.628l-8.566,4.893
		c-26.272-20.254-62.604-24.4-91.587-55.607C1411.69,1500.172,1415.301,1498.72,1418.791,1497.147z"/>
	<path style="fill:#585E68;" d="M1312.964,1540.523c15.863,15.601,83.128,52.751,85.315,66.194h-7.209
		c-11.239,4.109-21.711,7.99-31.8,14.589c-3.08-0.137-6.197-0.436-9.264,0c-14.634-17.021-63.812-39.283-86.585-63.638l14.215-4.893
		c6.686-2.64,13.597-4.744,20.428-6.977L1312.964,1540.523z"/>
	<path style="fill:#3B3D40;" d="M1312.964,1540.523c15.863,15.601,83.128,52.751,85.315,66.194h-7.209
		c-31.954-16.755-64.107-39.059-93.006-60.919L1312.964,1540.523z"/>
	<path style="fill:#3B3D40;" d="M1277.636,1552.774c16.572,21.52,78.534,49.016,81.634,68.531c-3.08-0.137-6.197-0.436-9.264,0
		c-14.634-17.021-63.812-39.283-86.585-63.638L1277.636,1552.774z"/>
	<path style="fill:#3B3D40;" d="M1867.029,1173.446c27.957-19.889,185.647-141.806,218.945-88.528
		c26.704,42.724-114.941,130.409-59.857,270.398c10.455,26.558,55.051,94.048,21.038,113.148
		c-53.125,7.01-147.824-84.203-185.373-118.942c4.188-9.571,12.04-17.614,16.801-27.027c18.087-35.747,14.327-55.121,16.149-92.5
		C1884.286,1209.741,1879.812,1194.413,1867.029,1173.446z"/>
	<path style="fill:#585E68;" d="M2035.887,1084.362c45.887-8.014-7.757,78.193-15.302,95.687
		c-28.638,66.406-20.569,134.431,2.669,201.485c2.939,8.479,28.347,58.774,7.77,57.745c-27.957-1.403-112.239-70.802-131.223-92.794
		c14.086,7.454,92.458,60.762,102.324,58.421c5.62-1.336-0.901-9.633-3.005-11.43c-16.925-14.435-85.398-44.052-91.487-60.753
		c4.823-22.383,67.772,47.231,84.822,32.552l-0.025-2.154c-10.961-17.349-79.53-35.594-76.741-53.482
		c11.343-9.21,68.079,37.744,70.245,17.502c-10.563-19.552-72.204-22.445-65.149-39.126c5.433-3.15,34.61,3.383,43.172,3.781
		c4.258,1.49,19.162,8.732,15.979-1.536c-4.52-14.568-46.995-10.127-59.151-17.228l-0.573-3.138
		c8.122-21.727,62.202,10.625,58.081-22.4c-16.39,0.594-32.958,6.114-49.327,5.678c-36.926-0.979,52.627-21.536,53.291-34.863
		c-14.365-14.29-58.475,29.169-64.796,12.02c2.652-13.103,62.916-26.654,69.087-38.536c1.067-22.346-64.551,19.619-73.354,25.33
		l-4.511-10.816c20.395-12.584,78.567-40.765,89.59-51.564c2.27-18.627-61.762,20.818-71.611,26.953
		c-5.47,3.408-17.598,17.992-23.927,12.31c1.897-16.788,104.382-53.561,99.954-69.457l-1.096-0.61
		c-19.714-1.32-88.407,46.663-106.86,58.944c-2.814-3.594-5.379-7.288-7.898-11.094c23.657-25.554,90.35-67.988,122.403-82.929
		C2017.601,1084.955,2026.798,1084.98,2035.887,1084.362z"/>
	<path style="fill:#3B3D40;" d="M765.561,971.388c71.349-97.725,117.448-111.99,228.495-129.289
		c218.248-33.992,440.618,13.443,620.047,144.936c37.507,27.488,104.569,79.862,126.18,120.893
		c-23.392,12.293-51.22,24.271-76.512,37.233c-6.495-5.271-11.148-12.476-18.291-17.764c-3.557-2.216-6.865-5.213-10.173-7.811
		c-6.205-4.213-12.758-7.886-19.237-11.658l-10.471-6.653c-4.852-4.42-9.579-8.811-13.987-13.68l-12.343-6.773
		c-5.96-4.242-12.123-7.79-18.531-11.31c-3.366-3.121-6.549-6.396-9.745-9.691c-7.604-3.69-14.601-7.757-21.644-12.422
		c-2.88-1.685-5.611-3.843-8.342-5.777c-6.661-1.722-14.867-7.562-21.059-10.953c-3.794-1.212-7.566-2.511-11.343-3.773
		c-6.757-5.595-13.041-10.637-20.515-15.278c-3.806-1.689-7.471-3.827-11.144-5.79c-7.18-3.188-14.423-7.417-21.246-11.331
		l-12.7-5.375c-7.458-2.565-14.746-6.251-21.968-9.442l-12.659-3.706c-7.483-3.723-15.029-7.089-22.748-10.289l-11.775-2.121
		c-7.039-4.561-16.004-7.433-24.047-9.583l-11.119-4.204c-8.542-1.722-16.838-4.258-25.181-6.732l-11.463-2.777
		c-10.21-2.337-20.183-4.852-30.173-8.031h-5.005c-9.035-1.818-18.229-2.615-27.384-3.586c-4.599-1.212-9.297-2.175-13.933-3.254
		c-8.45-1.756-17.199-2.171-25.79-2.88l-12.783-3.138c-12.725-0.411-25.936-0.614-38.379-3.466h-3.432
		c-10.222,0.801-20.217,0.743-30.439,0h-12.941h-26.463c-4.914,0.149-9.77,0.295-14.684,0c-10.546,0.963-19.934,1.224-30.46,0
		c-2.959,1.884-5.462,2.66-8.865,3.466c-10.72,1.436-21.632,2.386-32.423,3.138c-4.927,0.984-9.853,1.984-14.796,2.88
		c-9.508,1.938-19.042,3.03-28.741,3.254l-13.256,3.586c-10.123,1.415-20.229,2.843-30.306,4.578
		c-4.532,1.191-9.06,2.507-13.646,3.453c-9.425,2.457-18.839,4.956-28.343,7.097C827.095,953.188,776.805,970.106,765.561,971.388z"
		/>
	<path style="fill:#585E68;" d="M912.091,877.763c-7.425,9.733-46.015,51.652-43.953,62.505c-9.425,2.457-18.839,4.956-28.343,7.097
		C854.16,908.601,874.617,888.318,912.091,877.763z"/>
	<path style="fill:#585E68;" d="M881.785,936.815c5.366-12.883,39.923-57.479,48.862-62.439c6.819-3.785,15.825-4.54,23.441-5.848
		c-11.625,22.757-32.477,39.86-41.998,63.709C901.968,933.653,891.862,935.08,881.785,936.815z"/>
	<path style="fill:#585E68;" d="M972.869,868.529c9.625-2.656,18.465-4.424,28.439-5.354c-9.882,10.471-44.579,50.929-47.219,62.223
		c-9.508,1.938-19.042,3.03-28.741,3.254C930.535,917.217,961.256,874.825,972.869,868.529z"/>
	<path style="fill:#585E68;" d="M1019.345,859.85c8.562-0.535,16.905-0.398,25.471,0c-10.413,12.414-39.927,44.384-44.675,57.06
		l1.166,2.47c-10.72,1.436-21.632,2.386-32.423,3.138C978.493,907.04,1005.441,870.239,1019.345,859.85z"/>
	<path style="fill:#585E68;" d="M1109.736,856.572c9.193-0.021,18.474-0.315,27.654,0c-8.492,12.235-54.561,52.967-55.611,59.342
		h-26.463C1064.854,901.832,1096.688,864.769,1109.736,856.572z"/>
	<path style="fill:#585E68;" d="M1063.094,856.572c10.538-0.349,21.084-0.125,31.626,0c-8.508,6.757-51.266,51.747-54.088,59.342
		c-10.546,0.963-19.934,1.224-30.46,0C1029.373,898.474,1046.235,876.344,1063.094,856.572z"/>
	<path style="fill:#585E68;" d="M1153.631,856.572c8.641,1.361,17.436,0.486,26.123,0c-15.361,21.308-35.494,41.309-54.594,59.342
		c-10.222,0.801-20.217,0.743-30.439,0C1109.263,897.515,1136.274,874.925,1153.631,856.572z"/>
	<path style="fill:#585E68;" d="M1591.613,1087.595c14.896-16.792,51.784-34.793,72.159-45.974
		c5.267,4.594,10.583,9.147,15.797,13.804c-24.479,14.8-51.316,28.414-73.968,45.849
		C1600.748,1096.854,1596.021,1092.463,1591.613,1087.595z"/>
	<path style="fill:#585E68;" d="M1197.326,859.85c9.509-1.033,19.017-0.361,28.546,0c-16.817,18.548-46.003,41.326-58.902,59.529
		c-12.725-0.411-25.936-0.614-38.379-3.466C1152.473,917.304,1173.827,877.116,1197.326,859.85z"/>
	<path style="fill:#585E68;" d="M1529.349,1047.398c17.95-11.571,57.919-39.043,76.251-44.235
		c7.006,3.906,13.053,7.869,18.926,13.406c-24.309,7.591-54.656,27.222-73.532,43.251
		C1543.39,1056.131,1536.392,1052.063,1529.349,1047.398z"/>
	<path style="fill:#585E68;" d="M1238.046,863.175c10.567,0.631,19.357,2.374,29.455,5.354
		c-22.723,16.008-40.404,37.665-61.513,55.458l-0.444,1.411c-8.45-1.756-17.199-2.171-25.79-2.88
		C1194.45,904.268,1220.324,878.913,1238.046,863.175z"/>
	<path style="fill:#585E68;" d="M1282.04,868.529c8.637,1.382,17.216,2.847,25.778,4.636
		c-12.771,11.131-53.025,45.405-59.143,55.852l-0.598,1.013c-0.423,0.722-0.822,1.465-1.216,2.208
		c-9.035-1.818-18.229-2.615-27.384-3.586C1236.738,908.709,1260.479,883.45,1282.04,868.529z"/>
	<path style="fill:#585E68;" d="M1321.369,877.763c10.671,1.473,18.888,4.478,28.638,8.927
		c-20.312,6.533-55.565,37.893-67.967,53.577c-10.21-2.337-20.183-4.852-30.173-8.031
		C1264.372,932.254,1307.743,887.471,1321.369,877.763z"/>
	<path style="fill:#585E68;" d="M1632.573,1021.255c7.047,4.669,14.46,9.131,21.088,14.373
		c-21.097,9.409-57.574,29.43-74.392,45.194c-5.96-4.242-12.123-7.79-18.531-11.31
		C1570.957,1055.919,1616.623,1029.145,1632.573,1021.255z"/>
	<path style="fill:#585E68;" d="M1539.31,963.565l21.428,12.41c-16.913,9.774-56.42,33.822-68.627,47.153l-3.507,3.769
		c-6.757-5.595-13.041-10.637-20.515-15.278C1490.261,994.294,1515.346,978.336,1539.31,963.565z"/>
	<path style="fill:#585E68;" d="M1508.514,947.365c7.06,3.084,14.24,5.997,20.835,10.007
		c-24.931,14.423-48.925,31.771-72.404,48.456c-7.18-3.188-14.423-7.417-21.246-11.331
		C1448.155,983.573,1493.892,953.155,1508.514,947.365z"/>
	<path style="fill:#585E68;" d="M1689.961,1064.261c6.504,4.026,15.514,9.612,19.162,16.56
		c-23.421,6.487-51.432,26.932-73.815,38.765c-6.205-4.213-12.758-7.886-19.237-11.658
		C1629.689,1095.119,1671.55,1072.45,1689.961,1064.261z"/>
	<path style="fill:#585E68;" d="M1435.7,912.922l25.475,9.596c-25.749,15.431-49.502,34.635-72.802,53.457
		c-7.483-3.723-15.029-7.089-22.748-10.289c8.645-8.421,19.245-15.294,28.982-22.4L1435.7,912.922z"/>
	<path style="fill:#585E68;" d="M1572.828,983.113c6.201,3.914,12.36,7.848,18.785,11.385
		c-21.927,17.56-47.987,30.132-70.606,47.124c-6.661-1.722-14.867-7.562-21.059-10.953
		C1512.532,1016.428,1554.492,991.227,1572.828,983.113z"/>
	<path style="fill:#585E68;" d="M1359.27,886.691c9.695,2.162,19.507,4.101,29.103,6.649c-21.1,16.369-52.548,36.889-69.689,56.437
		c-8.542-1.722-16.838-4.258-25.181-6.732C1301.937,933.134,1346.811,895.453,1359.27,886.691z"/>
	<path style="fill:#585E68;" d="M1401.032,979.68c17.39-14.074,53.108-42.197,72.582-50.045l1.523-0.627
		c0.303-0.125,0.614-0.237,0.921-0.357c6.595,3.026,12.231,7.367,18.067,11.617c-22.234,18.042-49.967,30.012-71.125,48.854
		C1415.541,986.558,1408.253,982.872,1401.032,979.68z"/>
	<path style="fill:#585E68;" d="M1398.28,897.449c8.168,3.42,16.369,6.558,24.72,9.496c-23.197,18.735-48.198,35.266-69.15,56.62
		c-7.039-4.561-16.004-7.433-24.047-9.583C1342.851,939.339,1381.649,909.659,1398.28,897.449z"/>
	<path style="fill:#968E7C;" d="M1094.72,915.914c10.222,0.743,20.216,0.801,30.439,0h3.432c12.443,2.851,25.654,3.055,38.379,3.466
		l12.783,3.138c8.591,0.71,17.34,1.125,25.79,2.88c4.636,1.079,9.334,2.042,13.933,3.254c9.156,0.971,18.349,1.768,27.384,3.586
		h5.005c9.99,3.179,19.963,5.694,30.173,8.031l11.463,2.777c8.342,2.474,16.639,5.01,25.181,6.732l11.119,4.204
		c8.043,2.15,17.008,5.022,24.047,9.583l11.775,2.121c7.72,3.2,15.265,6.566,22.748,10.289l12.659,3.706
		c7.222,3.192,14.51,6.877,21.968,9.442l12.7,5.375c6.823,3.914,14.066,8.143,21.246,11.331c3.673,1.963,7.338,4.101,11.144,5.79
		c7.475,4.64,13.759,9.683,20.515,15.278c3.777,1.262,7.549,2.561,11.343,3.773c6.192,3.391,14.398,9.23,21.059,10.953
		c2.731,1.934,5.462,4.092,8.342,5.777c7.043,4.665,14.041,8.732,21.644,12.422c3.196,3.295,6.379,6.57,9.745,9.691
		c6.408,3.52,12.572,7.068,18.531,11.31l12.343,6.773c4.408,4.868,9.135,9.26,13.987,13.68l10.471,6.653
		c6.479,3.773,13.032,7.446,19.237,11.658c3.308,2.598,6.616,5.595,10.173,7.811c7.143,5.288,11.795,12.493,18.291,17.764
		c4.545,5.171,12.576,9.392,18.253,13.456c55.873,39.968,124.943,57.462,185.004,14.829c12.783,20.968,17.257,36.295,27.704,56.549
		c-1.822,37.379,1.938,56.752-16.149,92.5c-4.76,9.413-12.613,17.457-16.801,27.027c-51.73-43.152-121.665-50.983-175.126-5.4
		c-4.358,0.851-7.844,2.748-11.385,5.4c-3.847,1.88-7.819,3.652-11.501,5.831c-6.508,3.627-14.203,7.533-18.291,14.053
		l-12.908,6.271c-6.118,3.503-11.393,7.238-16.502,12.123c-5.603,2.436-11.048,4.802-16.245,8.047
		c-5.205,3.648-10.6,7.159-15.473,11.248c-5.163,2.851-9.886,6.222-14.692,9.629c-6.761,2.602-12.729,5.292-18.668,9.554
		l-11.683,8.57c-6.603,1.648-12.613,5.035-18.303,8.679c-4.312,2.245-8.484,4.437-12.493,7.205
		c-7.375,3.088-13.783,6.446-19.909,11.733l-12.547,5.997c-8.371,3.233-15.713,7.176-23.238,12.045
		c-4.906,2.162-9.99,4.163-14.721,6.686c-6.354,2.499-13.896,5.798-19.308,9.953c-3.49,1.573-7.101,3.026-10.43,4.914
		c-8.633,3.794-17.062,7.504-24.886,12.821l-11.804,2.698c-7.247,3.079-14.813,5.914-21.665,9.803l-12.692,5.055
		c-8.259,2.353-16.477,4.599-24.35,8.085l-14.9,5.275c-6.831,2.233-13.742,4.337-20.428,6.977l-14.215,4.893
		c-8.624,1.54-16.946,3.586-25.375,5.943c-4.055,1.067-8.102,2.171-12.173,3.146c-9.558,1.503-19.046,3.262-28.546,5.08
		c-4.379,1.332-8.774,2.615-13.082,4.154c-9.425,0.876-18.087,2.71-27.276,4.856c-4.96-0.021-9.936-0.116-14.896,0
		c-9.467,1.469-19.42,2.835-28.455,6.134c-4.748-0.021-9.5-0.112-14.244,0c-9.729-0.975-19.403-0.776-29.14,0h-19.586h-24.18
		c-6.67-0.726-13.447-0.22-20.142,0c-8.458-0.884-16.593-1.129-25.039,0c-7.043-1.656-13.929-3.752-21.196-4.08
		c-8.782,0.892-19.685-1.768-28.737-2.054c-9.027-2.303-29.609-8.853-37.968-4.856c-14.215-7.691-32.24-10.376-47.688-15.07
		c-78.828-23.935-139.997-53.735-209.014-96.393c-47.07-29.094-115.954-70.183-146.778-118.045
		c-25.355-14.385-59.277-34.635-78.786-54.69c-13.256-26.363,66.495-12.148,78.786-10.903
		c-23.493-26.372-86.289-38.15-73.413-58.384c84.423-91.308,193.396-181.675,308.453-232.285
		c13.663-6.01,28.011-10.658,40.616-18.834c11.243-1.282,61.534-18.2,74.234-24.023c9.504-2.141,18.918-4.64,28.343-7.097
		c4.586-0.946,9.114-2.262,13.646-3.453c10.077-1.735,20.183-3.163,30.306-4.578l13.256-3.586
		c9.699-0.224,19.233-1.316,28.741-3.254c4.943-0.897,9.87-1.897,14.796-2.88c10.791-0.751,21.702-1.702,32.423-3.138
		c3.403-0.805,5.906-1.581,8.865-3.466c10.525,1.224,19.914,0.963,30.46,0c4.914,0.295,9.77,0.149,14.684,0h26.463H1094.72z"/>
	<path style="fill:#7B6F5D;" d="M1611.535,1171.785c14.896,3.524,11.198,21.055,0,26.542
		C1593.008,1190.728,1596.498,1179.75,1611.535,1171.785z"/>
	<path style="fill:#7B6F5D;" d="M1516.545,1114.078c22.885-0.921,29.675,14.132,12.804,31.082
		C1506.348,1150.415,1498.491,1125.749,1516.545,1114.078z"/>
	<path style="fill:#7B6F5D;" d="M1435.7,1069.511c27.305-1.432,32.336,33.332,5.985,38.416
		C1416.546,1111.634,1410.025,1074.944,1435.7,1069.511z"/>
	<path style="fill:#7B6F5D;" d="M1337.315,1035.628c25.633-2.175,39.823,27.671,12.692,36.86
		C1321.751,1074.666,1312.234,1047.851,1337.315,1035.628z"/>
	<path style="fill:#7B6F5D;" d="M731.304,1064.261c28.214-0.315,38.009,27.828,10.862,37.013
		c-14.9,2.125-22.026-2.777-27.583-16.913C717.388,1073.815,720.936,1069.055,731.304,1064.261z"/>
	<path style="fill:#7B6F5D;" d="M1246.861,1003.163c28.924-1.224,34.469,29.186,8.492,38.458
		C1228.728,1043.804,1216.692,1011.431,1246.861,1003.163z"/>
	<path style="fill:#7B6F5D;" d="M935.557,994.497c27.073-2.918,42.18,19.54,18.531,36.171
		C922.031,1034.694,909.518,1007.056,935.557,994.497z"/>
	<path style="fill:#7B6F5D;" d="M830.71,1021.255c32.24-8.475,36.341,25.562,14.045,34.17
		C814.635,1060.576,802.421,1027.854,830.71,1021.255z"/>
	<path style="fill:#7B6F5D;" d="M1044.816,975.974c29.186,0.469,37.507,30.194,10.501,40.595
		C1027.787,1022.263,1016.921,989.936,1044.816,975.974z"/>
	<path style="fill:#7B6F5D;" d="M1150.618,989.123c27.845-2.98,31.091,31.833,3.013,37.773
		C1121.432,1026.895,1117.012,990.725,1150.618,989.123z"/>
	<path style="fill:#453119;" d="M416.492,1222.507c25.085,2.627,71.887,33.137,87.927,52.868
		c25.202,30.995-69.388,15.992-93.3,16.419c-13.256-26.363,66.495-12.148,78.786-10.903
		C466.413,1254.519,403.616,1242.74,416.492,1222.507z"/>
	<path style="fill:#FEFEFE;" d="M570.383,1147.543c43.901-3.362,52.189,57.91,10.13,67.041
		C534.429,1216.257,528.589,1157.276,570.383,1147.543z"/>
	<path style="fill:#3B3D40;" d="M570.383,1165.016c24.713-3.017,31.753,23.474,10.13,33.311
		C555.622,1201.149,550.592,1176.027,570.383,1165.016z"/>
	<path style="fill:#DBC28E;" d="M665.823,1387.801c46.439-34.872,48.78-120.751,48.759-173.217
		c27.513,80.572,10.621,103.071-10.339,171.469l-0.523,1.747l-1.507,0.901c-9.534,5.79-16.797,13.896-25.608,20.557
		c-27.604,20.86-75.525,24.828-106.513,7.716l-0.368-0.614C604.875,1418.762,638.916,1411.918,665.823,1387.801z"/>
	<path style="fill:#DBC28E;" d="M703.721,1238.756c-5.217,58.803-13.622,99.576-60.716,138.93l-0.768,0.643
		c-55.16,34.909-105.971,1.718-152.331-31.846l-3.236-3.864l0.713-0.921C602.899,1396.276,660.391,1354.635,703.721,1238.756z"/>
	<path style="fill:#3B3D40;" d="M972.869,1259.666c76.579-14.418,84.34,43.318,43.853,102.789
		c-39.25,57.649-89.756,69.672-148.584,29.534c-17.589-6.089-104.453-53.661-99.132-74.587
		C788.413,1295.392,944.406,1261.998,972.869,1259.666z"/>
	<path style="fill:#585E68;" d="M844.755,1362.33c19.2-0.249,37.324,5.823,56.2,8.537c28.239,4.059,56.657,5.097,85.154,4.81
		c-4.192,4.499-8.089,8.703-13.24,12.123C931.718,1418.244,883.76,1374.851,844.755,1362.33z"/>
	<path style="fill:#585E68;" d="M981.286,1272.125c74.956-9.33,29.613,70.154,8.031,99.568
		c-31.178,0.241-85.664-10.94-116.634-20.245l-36.557-11.032c-4.487-1.328-9.783-2.955-14.086-4.839
		c10.7-0.954,29.7,3.329,41.039,4.591c28.048,3.117,111.417,6.79,137.274-5.823c-2.482-0.921-52.353-0.241-60.426-0.27
		c-32.257-2.046-63.621-4.935-95.173-12.298c59.122,0.432,108.425-10.675,165.418-23.653c-51.266-2.469-113.355,10.745-170.378,8.89
		C887.545,1295.982,931.793,1277.496,981.286,1272.125z"/>
	<path style="fill:#7B6F5D;" d="M1894.733,1229.995c-1.822,37.379,1.938,56.752-16.149,92.5
		c-4.76,9.413-12.613,17.457-16.801,27.027c-51.73-43.152-121.665-50.983-175.126-5.4c-4.358,0.851-7.844,2.748-11.385,5.4
		c-3.847,1.88-7.819,3.652-11.501,5.831c-6.508,3.627-14.203,7.533-18.291,14.053l-12.908,6.271
		c-6.118,3.503-11.393,7.238-16.502,12.123c-5.603,2.436-11.048,4.802-16.245,8.047c-5.205,3.648-10.6,7.159-15.473,11.248
		c-5.163,2.851-9.886,6.222-14.692,9.629c-6.761,2.602-12.729,5.292-18.668,9.554l-11.683,8.57
		c-6.603,1.648-12.613,5.035-18.303,8.679c-4.312,2.245-8.484,4.437-12.493,7.205c-7.375,3.088-13.783,6.446-19.909,11.733
		l-12.547,5.997c-8.371,3.233-15.713,7.176-23.238,12.045c-4.906,2.162-9.99,4.163-14.721,6.686
		c-6.354,2.499-13.896,5.798-19.308,9.953c-3.49,1.573-7.101,3.026-10.43,4.914c-8.633,3.794-17.062,7.504-24.886,12.821
		l-11.804,2.698c-7.247,3.079-14.813,5.914-21.665,9.803l-12.692,5.055c-8.259,2.353-16.477,4.599-24.35,8.085l-14.9,5.275
		c-6.831,2.233-13.742,4.337-20.428,6.977l-14.215,4.893c-8.624,1.54-16.946,3.586-25.375,5.943
		c-4.055,1.067-8.102,2.171-12.173,3.146c-9.558,1.503-19.046,3.262-28.546,5.08c-4.379,1.332-8.774,2.615-13.082,4.154
		c-9.425,0.876-18.087,2.71-27.276,4.856c-4.96-0.021-9.936-0.116-14.896,0c-9.467,1.469-19.42,2.835-28.455,6.134
		c-4.748-0.021-9.5-0.112-14.244,0c-9.729-0.975-19.403-0.776-29.14,0h-19.586h-24.18c-6.67-0.726-13.447-0.22-20.142,0
		c-8.458-0.884-16.593-1.129-25.039,0c-7.043-1.656-13.929-3.752-21.196-4.08c-8.782,0.892-19.685-1.768-28.737-2.054
		c-9.027-2.303-29.609-8.853-37.968-4.856c-14.215-7.691-32.24-10.376-47.688-15.07c-78.828-23.935-139.997-53.735-209.014-96.393
		c-47.07-29.094-115.954-70.183-146.778-118.045l0,0c46.36,33.564,97.171,66.755,152.331,31.846
		c6.167,5.686,15.639,7.5,23.587,9.471c-26.907,24.118-60.948,30.962-96.098,28.559l0.368,0.614
		c30.988,17.112,78.908,13.144,106.513-7.716c8.811-6.661,16.074-14.767,25.608-20.557l1.507-0.901
		c22.358,0.901,50,11.575,73.105,15.942c190.167,35.926,423.228,29.123,604.018-38.262c31.697-11.816,62.052-26.558,93.309-39.379
		c95.754-39.271,173.466-55.64,275.715-67.664C1799.602,1252.589,1847.593,1248.173,1894.733,1229.995z"/>
</g>
</svg>
