<?xml version="1.0" encoding="utf-8"?>
<!-- Generator: Adobe Illustrator 27.5.0, SVG Export Plug-In . SVG Version: 6.00 Build 0)  -->
<svg version="1.1" id="Layer_2" xmlns="http://www.w3.org/2000/svg" xmlns:xlink="http://www.w3.org/1999/xlink" x="0px" y="0px"
	 viewBox="0 0 841.89 595.28" style="enable-background:new 0 0 841.89 595.28;" xml:space="preserve">
<g>
	<linearGradient id="SVGID_1_" gradientUnits="userSpaceOnUse" x1="359.3335" y1="340.6312" x2="412.8929" y2="340.6312">
		<stop  offset="0" style="stop-color:#287781"/>
		<stop  offset="1" style="stop-color:#879DAB"/>
	</linearGradient>
	<path style="fill:url(#SVGID_1_);stroke:#000000;stroke-linecap:round;stroke-linejoin:round;stroke-miterlimit:10;" d="
		M359.333,325.114c0,0,9.666,4.332,13.833,10.666c4.167,6.334,31.667,27.668,37.167,21.834c5.5-5.834,0.5-15.166,0-19.5
		c-0.5-4.334-4.667-6.334-7.333-7.334s-8.167-4.833-9-7.333S359.333,325.114,359.333,325.114z"/>
	
		<linearGradient id="SVGID_00000091701218413476591270000017194711253049968056_" gradientUnits="userSpaceOnUse" x1="359.3335" y1="339.8663" x2="407.3335" y2="339.8663">
		<stop  offset="0" style="stop-color:#287781"/>
		<stop  offset="1" style="stop-color:#879DAB"/>
	</linearGradient>
	<path style="fill:url(#SVGID_00000091701218413476591270000017194711253049968056_);" d="M371.333,331.447c0,0,0.333-1.834,5,2.833
		c4.667,4.667,13,13.666,23.5,18.5c0,0-13.167-9.167-21.833-20.5c-8.667-11.333,15.5,15.001,25.667,16.667
		c0,0-14.833-9.834-21.833-18.167c-7-8.333,13.333,9.999,25.5,12.833c0,0-17.44-9.166-21.22-13.666c-3.78-4.5,7.887,2.834,13.72,4
		c0,0-8.838-3.694-10.5-5.631c-1.554-1.811,8.547,1.92,12.178,3.911c-2.647-1.573-12.168-7.402-5.258-5.863
		c-1.103-1.017-1.964-2.048-2.254-2.917c-0.833-2.5-34.667,1.667-34.667,1.667s9.666,4.332,13.833,10.666
		c3.009,4.573,18.18,16.963,28.453,21.304C393.58,352.035,377.478,341.156,371.333,331.447z"/>
	
		<linearGradient id="SVGID_00000009566371117528583010000017204224197415753397_" gradientUnits="userSpaceOnUse" x1="157.4483" y1="230.898" x2="172.098" y2="294.8784">
		<stop  offset="0" style="stop-color:#287781"/>
		<stop  offset="0.1902" style="stop-color:#4FB3D1"/>
		<stop  offset="0.4233" style="stop-color:#D8D99D"/>
		<stop  offset="0.638" style="stop-color:#F9D7DA"/>
		<stop  offset="0.9141" style="stop-color:#EF929C"/>
	</linearGradient>
	
		<path style="fill:url(#SVGID_00000009566371117528583010000017204224197415753397_);stroke:#1A1818;stroke-linecap:round;stroke-linejoin:round;stroke-miterlimit:10;" d="
		M151.667,274.447c3.5-0.833,1.5,3.167,3.5,2.5s2.708-0.542,4.083,1.333s0.25,0.75,2.875,0.75s0.75,0.875,3.625,1.5
		s8.125,3.125,21.625,3.5c0,0-2.552-3.713-6.295-8.18c-1.354,0.786-3.018,1.591-4.83,1.305c-2.375-0.375-1,0.875-3.375,0.856
		c-2.375-0.018-1.375-0.731-4.25-0.106s-1.5-1.75-4-0.875s-1.625-2.125-4.125-0.875s-1.5-2.375-3.875-1.75s-1.875-0.125-3-0.875
		c-0.738-0.492-2.762,0.037-4.07,0.46C149.654,274.466,149.866,274.876,151.667,274.447z"/>
	<path style="fill:#AA8588;stroke:#1A1818;stroke-linecap:round;stroke-linejoin:round;stroke-miterlimit:10;" d="M151.667,274.447
		c3.5-0.833,1.5,3.167,3.5,2.5s2.708-0.542,4.083,1.333s0.25,0.75,2.875,0.75s0.75,0.875,3.625,1.5s8.125,3.125,21.625,3.5
		c0,0-2.552-3.713-6.295-8.18c-1.354,0.786-3.018,1.591-4.83,1.305c-2.375-0.375-1,0.875-3.375,0.856
		c-2.375-0.018-1.375-0.731-4.25-0.106s-1.5-1.75-4-0.875s-1.625-2.125-4.125-0.875s-1.5-2.375-3.875-1.75s-1.875-0.125-3-0.875
		c-0.738-0.492-2.762,0.037-4.07,0.46C149.654,274.466,149.866,274.876,151.667,274.447z"/>
	
		<linearGradient id="SVGID_00000167389995014855840970000014941369978412269963_" gradientUnits="userSpaceOnUse" x1="373.4811" y1="180.1065" x2="385.3969" y2="328.9649">
		<stop  offset="0" style="stop-color:#287781"/>
		<stop  offset="0.1902" style="stop-color:#4FB3D1"/>
		<stop  offset="0.4233" style="stop-color:#D8D99D"/>
		<stop  offset="0.638" style="stop-color:#F9D7DA"/>
		<stop  offset="0.9141" style="stop-color:#EF929C"/>
	</linearGradient>
	
		<path style="fill:url(#SVGID_00000167389995014855840970000014941369978412269963_);stroke:#1A1818;stroke-linecap:round;stroke-linejoin:round;stroke-miterlimit:10;" d="
		M620.333,252.614c0.167-12.334-8.833-24.834-8.833-24.834s-11.5,4-43,2s-60.5-16-87-25.5s-89-16.5-138.5-17.5s-95,18-108.5,24
		s-25.5,12-40,15s-45,15.5-53,20s0,9.5,0,9.5c0-1.375,1-1.5,1.625-0.375c0.625,1.125,0,1.75,1.5,0.75c1.5-1,1.375-0.125,2.5,0.875
		c1.125,1,1.625-2.375,2.625-0.5c1,1.875,0.875-1,2,0.875c1.125,1.875,1.5-1.5,2.25-0.375c0.75,1.125,0,0,1.875,0.75
		s5.5,0.875,14.25,7.625s17.25,19.125,17.25,19.125c-13.5-0.375-18.75-2.875-21.625-3.5s-1-1.5-3.625-1.5s-1.5,1.125-2.875-0.75
		s-2.083-2-4.083-1.333s0-3.333-3.5-2.5s-1-1.5-3.334-1.333c-2.333,0.167-2-0.333-2.833-2.333s-2.5,0.5-2.5,0.5
		c-5.667,0.667-1.333,12.333,16,22.667c17.333,10.333,40.5,12.833,40.5,12.833c23.5,13,32,6,32,6c59,23.5,135.5,13.5,173,13
		s101.5-23.5,128.5-36c23.856-11.044,60.977-12.72,72.404-10.546C610.309,277.687,620.166,264.947,620.333,252.614z"/>
	
		<linearGradient id="SVGID_00000081639941454951156880000011824325347988731289_" gradientUnits="userSpaceOnUse" x1="707.5972" y1="252.6867" x2="596.2646" y2="258.6866">
		<stop  offset="0" style="stop-color:#287781"/>
		<stop  offset="1" style="stop-color:#879DAB"/>
	</linearGradient>
	
		<path style="fill:url(#SVGID_00000081639941454951156880000011824325347988731289_);stroke:#000000;stroke-linecap:round;stroke-linejoin:round;stroke-miterlimit:10;" d="
		M668,181.28c-25,12.5-56.5,46.5-56.5,46.5s9,12.5,8.833,24.834c-0.167,12.333-10.024,25.073-14.929,26.62
		c1.506,0.287,2.571,0.639,3.096,1.046c4.5,3.5,52.5,50.5,72,56s13.5-1.5,11.5-18s-16-61-18-72.5c-2-11.5,25-60,27-71
		S693,168.78,668,181.28z"/>
	
		<linearGradient id="SVGID_00000124162789708664184430000008305834209496627601_" gradientUnits="userSpaceOnUse" x1="335.9849" y1="158.7055" x2="463.1534" y2="158.7055">
		<stop  offset="0" style="stop-color:#287781"/>
		<stop  offset="1" style="stop-color:#879DAB"/>
	</linearGradient>
	
		<path style="fill:url(#SVGID_00000124162789708664184430000008305834209496627601_);stroke:#000000;stroke-linecap:round;stroke-linejoin:round;stroke-miterlimit:10;" d="
		M343,186.78c32.149,0.649,69.773,3.832,99.466,8.585c15.532-16.295,23.353-3.027,19.868-11.585c-3.666-9-20.834-20.666-44.001-38.5
		c-23.167-17.833-6.333-26.666-17.049-22c-10.715,4.667-36.285,32-46.451,48c-5.769,9.079-13.359,13.432-18.849,15.503
		C338.313,186.744,340.65,186.733,343,186.78z"/>
	
		<linearGradient id="SVGID_00000111171715755636678210000002919077634818103936_" gradientUnits="userSpaceOnUse" x1="449.8389" y1="321.5226" x2="558.5155" y2="321.5226">
		<stop  offset="0" style="stop-color:#287781"/>
		<stop  offset="1" style="stop-color:#879DAB"/>
	</linearGradient>
	
		<path style="fill:url(#SVGID_00000111171715755636678210000002919077634818103936_);stroke:#000000;stroke-linecap:round;stroke-linejoin:round;stroke-miterlimit:10;" d="
		M449.839,318.665c13.701,1.838,20.799,13.533,26.161,18.448c6,5.5,18.333,17.5,31,16.5s27.833-30.833,33.667-40.666
		s21.666-20.333,17-18.5c-4.666,1.833-14.5-1.5-18-3c-1.614-0.692-3.828-1.453-5.748-2.074c-0.306,0.137-0.618,0.268-0.919,0.407
		C515.254,297.996,481.523,310.747,449.839,318.665z"/>
	<path d="M198.254,307.124c-0.221,0-0.423-0.147-0.482-0.371c-0.071-0.267,0.087-0.541,0.354-0.612
		c0.631-0.168,1.394-0.201,2.361-0.243c4.001-0.175,11.448-0.501,24.186-11.496c5.438-4.693,8.303-10.03,8.517-15.862
		c0.281-7.652-4.158-14.187-6.543-16.573c-3.979-3.979-13.317-16.361-13.712-16.886c-0.166-0.221-0.122-0.534,0.099-0.7
		c0.221-0.165,0.535-0.121,0.7,0.099c0.096,0.128,9.691,12.851,13.621,16.781c2.493,2.493,7.129,9.319,6.836,17.316
		c-0.225,6.121-3.207,11.7-8.863,16.582c-13.001,11.222-20.674,11.557-24.796,11.738c-0.906,0.039-1.621,0.07-2.146,0.211
		C198.34,307.118,198.297,307.124,198.254,307.124z"/>
	<path d="M228.632,314.556c-0.209,0-0.404-0.132-0.474-0.341c-0.088-0.262,0.053-0.545,0.315-0.633
		c5.578-1.875,10.852-11.216,12.335-14.034c0.717-1.364,1.958-2.754,3.395-4.365c3.825-4.288,9.063-10.159,10.971-21.931
		c2.592-15.986-13.502-29.953-13.664-30.092c-0.21-0.179-0.235-0.495-0.055-0.705c0.179-0.21,0.495-0.234,0.705-0.055
		c0.168,0.143,16.682,14.477,14.002,31.012c-1.955,12.06-7.525,18.304-11.211,22.437c-1.393,1.561-2.596,2.91-3.256,4.164
		c-1.527,2.902-6.971,12.523-12.901,14.517C228.738,314.548,228.685,314.556,228.632,314.556z"/>
	<path d="M248.149,316.897c-0.987,0-1.451-0.261-1.545-0.321c-0.232-0.149-0.299-0.459-0.15-0.691
		c0.149-0.232,0.458-0.299,0.691-0.15c0.003,0.002,1.679,0.882,6.377-1.524c2.23-1.142,3.515-2.939,3.525-4.931
		c0.01-2.001-1.309-3.891-3.529-5.057c-5.179-2.719-5.863-9.001-5.89-9.268c-0.027-0.274,0.173-0.52,0.447-0.547
		c0.283-0.032,0.52,0.173,0.548,0.447c0.006,0.06,0.665,6.018,5.36,8.483c2.557,1.342,4.077,3.565,4.065,5.946
		c-0.012,2.378-1.495,4.498-4.069,5.816C251.163,316.542,249.3,316.897,248.149,316.897z"/>
	<path d="M194.83,290.706c-0.129,0-0.259-0.006-0.39-0.02c-3.228-0.328-6.231-4.592-8.025-7.14
		c-0.273-0.388-0.511-0.726-0.707-0.986c-0.166-0.221-0.122-0.534,0.099-0.7c0.223-0.166,0.535-0.121,0.7,0.099
		c0.201,0.268,0.445,0.614,0.726,1.012c1.585,2.251,4.535,6.439,7.308,6.72c0.856,0.083,1.631-0.208,2.367-0.9
		c1.189-1.12,1.767-2.389,1.717-3.772c-0.115-3.146-3.3-6.19-5.189-7.725c-3.958-3.216-13.784-11.548-13.883-11.632
		c-0.211-0.179-0.237-0.494-0.058-0.704c0.179-0.211,0.495-0.236,0.704-0.058c0.099,0.083,9.917,8.409,13.867,11.618
		c2.02,1.642,5.429,4.924,5.558,8.465c0.061,1.685-0.622,3.211-2.031,4.538C196.755,290.308,195.827,290.706,194.83,290.706z"/>
	<path d="M204.25,284.53c-0.039,0-0.077-0.004-0.116-0.014c-0.2-0.047-4.919-1.193-7.295-3.774c-0.187-0.203-0.174-0.52,0.029-0.706
		c0.203-0.186,0.52-0.173,0.706,0.029c2.172,2.359,6.746,3.468,6.792,3.479c0.269,0.064,0.435,0.333,0.371,0.602
		C204.682,284.375,204.477,284.53,204.25,284.53z"/>
	
		<linearGradient id="SVGID_00000175298897431985925290000012999237352245253295_" gradientUnits="userSpaceOnUse" x1="152.3918" y1="248.2444" x2="158.125" y2="248.2444">
		<stop  offset="0" style="stop-color:#287781"/>
		<stop  offset="1" style="stop-color:#879DAB"/>
	</linearGradient>
	<path style="fill:url(#SVGID_00000175298897431985925290000012999237352245253295_);" d="M156.5,247.53
		c-4.883-0.416-4.75,1.125-3,0.875s4.625,0.625,4.625,0.625S157.147,247.585,156.5,247.53z"/>
	
		<linearGradient id="SVGID_00000005986046822541056050000001755167145407758225_" gradientUnits="userSpaceOnUse" x1="500.4053" y1="212.0397" x2="536.7596" y2="212.0397">
		<stop  offset="0" style="stop-color:#287781"/>
		<stop  offset="1" style="stop-color:#879DAB"/>
	</linearGradient>
	
		<path style="fill:url(#SVGID_00000005986046822541056050000001755167145407758225_);stroke:#000000;stroke-linecap:round;stroke-linejoin:round;stroke-miterlimit:10;" d="
		M536.25,209.828c-3.25-5.953-15-6.297-23.25-1.797c-3.995,2.179-8.75,3.067-12.595,3.405c6.72,2.599,13.587,5.236,20.603,7.676
		C529.608,214.547,539.077,215.006,536.25,209.828z"/>
	
		<linearGradient id="SVGID_00000153689391364105496040000014810385175964156851_" gradientUnits="userSpaceOnUse" x1="335.9849" y1="158.7059" x2="463.1534" y2="158.7059">
		<stop  offset="0" style="stop-color:#287781"/>
		<stop  offset="1" style="stop-color:#879DAB"/>
	</linearGradient>
	<path style="fill:url(#SVGID_00000153689391364105496040000014810385175964156851_);" d="M462.334,183.78
		c-0.801-1.966-2.246-4.06-4.258-6.316c4.152,7.424,1.733,6.983-0.576,6.983c-2.833,0-4.5,1.667-12.333,4.355
		c-7.833,2.688-7.667-0.355-3.334-3.188c4.333-2.834,11.5-7.667,11.5-7.667s-25.333,14.667-27.5,9.903
		c-2.167-4.763,20.834-18.07,20.834-18.07c-8.333,3-22.334,13.334-30,16.962s-8.167-2.295-0.5-8.462
		c7.667-6.167,23-14.333,23-14.333c-8.833,1.667-37,22.333-39.598,21.333c-2.597-1,1.097-8.666,9.097-14.666
		S430.5,157.28,430.5,157.28c-8.5,1.667-31.667,18-37.333,22.334c-5.667,4.333-9.667,2.666,0.333-6.667
		c10-9.333,28.167-23.333,28.167-23.333c-6.666,3.166-24.333,16.833-35.333,27c-11,10.166-14,6.833-1.492-7.909
		c12.508-14.743,29.825-24.757,29.825-24.757c-1.616,0.308-15.5,5.667-31.667,21.833c-16.167,16.167-27.5,23.5-11.167,2.924
		c13.757-17.33,31.058-30.358,36.175-34.039c-0.093-0.146-0.186-0.292-0.273-0.436c-18.85,7.525-49.005,48.307-52.235,45.884
		c-3.333-2.5,11.167-20.167,25.333-36.5c10.429-12.023,20.037-17.449,24.385-19.478c0.214-2.4,0.519-2.795-3.934-0.856
		c-10.715,4.667-36.285,32-46.451,48c-5.769,9.079-13.359,13.432-18.849,15.503c2.329-0.039,4.665-0.05,7.015-0.003
		c32.149,0.649,69.773,3.832,99.466,8.585C457.998,179.07,465.819,192.338,462.334,183.78z"/>
	
		<linearGradient id="SVGID_00000067937718466407612430000013180863665037544373_" gradientUnits="userSpaceOnUse" x1="449.8389" y1="321.5226" x2="558.515" y2="321.5226">
		<stop  offset="0" style="stop-color:#287781"/>
		<stop  offset="1" style="stop-color:#879DAB"/>
	</linearGradient>
	<path style="fill:url(#SVGID_00000067937718466407612430000013180863665037544373_);" d="M464.167,319.447
		c3.333,1.333,6.832,4.333,10.166,8c3.334,3.667,21.334,18.499,34.167,20.833c0,0-20.667-8.852-32-22.176
		c-11.333-13.324-7.167-11.415,0.333-6.786c7.5,4.629,32.168,20.163,42.334,21.313c0,0-29-13.018-38.5-21.851
		c-9.5-8.833,2.334-7.026,13-2.93c10.666,4.097,28.334,13.264,33.5,14.264c0,0-28.334-15.001-33.167-18.334
		c-4.833-3.333,0.167-7.667,11.667-3.5c11.5,4.167,26.333,11.334,26.333,11.334s-21.334-11.258-25.167-13.046
		c-3.833-1.788-0.666-5.62,8.334-3.954c9,1.666,23.833,6,23.833,6s-17.833-6.334-21-7.667s0.166-5.5,8.833-4.5
		S545,301.614,545,301.614s-8.666-4.333-14.333-6.167s1.999-4.334,10.166-2.167c7.551,2.003,10.149,3.147,16.148,2.651
		c1.603-1.43,2.139-2.056,0.686-1.485c-4.666,1.833-14.5-1.5-18-3c-1.614-0.692-3.828-1.453-5.748-2.074
		c-0.306,0.137-0.618,0.268-0.919,0.407c-17.746,8.216-51.477,20.967-83.161,28.885c13.701,1.838,20.799,13.533,26.161,18.448
		c6,5.5,18.333,17.5,31,16.5c0.52-0.041,1.046-0.147,1.574-0.282c-5.926-0.811-16.876-3.542-27.074-12.7
		C466.56,327.216,460.834,318.114,464.167,319.447z"/>
	
		<linearGradient id="SVGID_00000016057187770933054360000011259103286226642572_" gradientUnits="userSpaceOnUse" x1="605.4043" y1="253.4184" x2="699.8672" y2="253.4184">
		<stop  offset="0" style="stop-color:#287781"/>
		<stop  offset="1" style="stop-color:#879DAB"/>
	</linearGradient>
	<path style="fill:url(#SVGID_00000016057187770933054360000011259103286226642572_);" d="M668,181.28c-25,12.5-56.5,46.5-56.5,46.5
		s9,12.5,8.833,24.834c-0.167,12.333-10.024,25.073-14.929,26.62c1.506,0.287,2.571,0.639,3.096,1.046c4.5,3.5,52.5,50.5,72,56
		c9.321,2.629,12.809,2.396,13.699-0.36c-1.425,1.191-3.429,1.062-4.532,0.86c-25.491-4.645-63.5-42.5-67.334-45.833
		s-10.666-11-9.666-11.333s4,2.833,4,2.833c13.835,14.411,43.058,31.771,59.762,41.105c-16.546-10.294-42.258-28.812-48.262-33.439
		c-8-6.167-20.834-21.667-6.5-10.833c14.334,10.833,65.166,40.5,65.166,40.5S645,292.28,639.5,288.28s-18-11-18.333-15
		s7.666,2.5,14.666,5.333S682,297.64,682,297.64s-41-19.36-52.167-24.526s-9.666-10.833,1-5.333
		c6.798,3.505,24.149,8.565,35.847,11.776c-11.09-3.557-25.9-9.207-33.68-12.109c-11.167-4.167-11.667-10.333-3-6
		s43.166,8.667,43.166,8.667S639.5,263.78,630.5,259.756c-9-4.024-3.834-4.976,1.166-3.643c5,1.333,40.167,3.643,40.167,3.643
		s-27.667-3.143-36.833-4.81c-9.166-1.667-8.334-2.833-3-2.5c5.334,0.333,38.833,1.667,38.833,1.667s-20-2.5-34.833-3.834
		c-14.833-1.333-6.334-4.166,1.166-4.5c7.5-0.333,34-3,34-3s-21.666,0.334-30.833,0c-9.167-0.333-15-1.166-6.667-2.166
		S674,230.78,674,230.78s-30,6.667-41.667,8.334c-11.667,1.667-7.833-1.667-5.333-2.834c2.5-1.166,9.5-4,16.833-7.833
		c7.333-3.834,38.334-16.407,38.334-16.407c-20.833,4.426-48.167,18.574-55.834,20.907c-7.667,2.333-3.333-0.833-3.333-0.833
		c8.167-4.5,47.333-22.834,47.333-22.834s-34.5,15-42,19s-12.979,6.026,7-6.166c19.978-12.192,49.167-23.167,49.167-23.167
		c-22.333,3.5-54.667,25.333-60.667,27.607c-6,2.274-2-0.94-2-0.94c36.166-31.167,73.334-47.667,73.334-47.667
		c-32.5,9.166-80,51-78.334,48.5s34-33,55.334-45.667c13.413-7.964,22.672-10.685,27.7-11.61
		C696.376,167.096,686.14,172.211,668,181.28z"/>
	
		<linearGradient id="SVGID_00000066498815191831791830000014437006738961456770_" gradientUnits="userSpaceOnUse" x1="500.4053" y1="212.0482" x2="536.7545" y2="212.0482">
		<stop  offset="0" style="stop-color:#287781"/>
		<stop  offset="1" style="stop-color:#879DAB"/>
	</linearGradient>
	<path style="fill:url(#SVGID_00000066498815191831791830000014437006738961456770_);" d="M528.125,214.78
		c-6.375,2.5-7.875,2.375-6.719,1.25c1.156-1.125,11.219-5.75,11.219-5.75s0,0-8.25,2.82c-8.25,2.82-8.875,1.555-6.625,0
		c2.25-1.555,11.5-5.008,11.5-5.008c-5.445,0.201-14.625,5.687-17.875,4.937s0.875-3.375,4-4.875
		c1.616-0.776,5.638-2.085,9.146-3.17c-3.857,0.099-8.005,1.128-11.521,3.045c-3.995,2.179-8.75,3.067-12.595,3.405
		c6.72,2.599,13.587,5.236,20.603,7.676c8.109-4.304,16.985-4.144,15.603-8.452C535.692,212.648,532.461,213.08,528.125,214.78z"/>
	<path d="M229.014,300.913c-5.538,0-7.763-2.773-7.912-2.969c-0.168-0.219-0.126-0.533,0.093-0.701
		c0.22-0.167,0.532-0.125,0.699,0.091l0,0c0.057,0.073,5.915,7.21,22.97-2.86c0.24-0.139,0.545-0.061,0.685,0.176
		c0.14,0.238,0.062,0.544-0.176,0.685C238.116,299.621,232.793,300.913,229.014,300.913z"/>
	<path d="M226.17,304.149c-6.195,0-9.286-2.781-9.491-2.974c-0.202-0.189-0.212-0.503-0.024-0.705
		c0.188-0.201,0.503-0.214,0.706-0.026c0.078,0.073,7.998,7.115,24.249-2.084c0.24-0.136,0.545-0.052,0.681,0.189
		c0.136,0.24,0.052,0.545-0.189,0.682C235.459,302.991,230.168,304.149,226.17,304.149z"/>
	<path d="M225.359,307.968c-7.728,0-12.438-4.526-12.51-4.597c-0.196-0.194-0.198-0.51-0.004-0.706
		c0.194-0.197,0.511-0.199,0.707-0.005c0.425,0.418,10.594,10.13,26.019-0.802c0.225-0.158,0.537-0.106,0.697,0.119
		c0.16,0.226,0.107,0.537-0.119,0.697C234.519,306.665,229.505,307.968,225.359,307.968z"/>
	<path d="M223.373,311.776c-9.611,0-15.821-6.099-15.907-6.186c-0.194-0.196-0.193-0.513,0.002-0.707
		c0.195-0.194,0.512-0.194,0.707,0.002c0.475,0.477,11.828,11.587,27.931,2.183c0.239-0.14,0.544-0.058,0.684,0.18
		c0.139,0.238,0.059,0.545-0.18,0.684C231.757,310.767,227.283,311.776,223.373,311.776z"/>
	<g style="opacity:0.77;">
		<path style="fill:#327B74;" d="M285.186,206.342c0.747,1.257,0.666,2.685-0.181,3.188c-0.847,0.503-2.139-0.109-2.886-1.366
			c-0.747-1.257-0.666-2.685,0.181-3.188C283.146,204.473,284.439,205.085,285.186,206.342z"/>
		<path style="fill:#327B74;" d="M326,199.811c0.316,1.637-0.367,3.146-1.525,3.369c-1.158,0.224-2.354-0.922-2.67-2.559
			c-0.316-1.637,0.366-3.145,1.526-3.369C324.488,197.028,325.684,198.174,326,199.811z"/>
		<path style="fill:#327B74;" d="M409.348,204.395c0.316,1.637-0.367,3.146-1.525,3.369c-1.158,0.224-2.354-0.922-2.67-2.559
			c-0.316-1.637,0.366-3.145,1.526-3.369C407.835,201.612,409.031,202.758,409.348,204.395z"/>
		<path style="fill:#327B74;" d="M360.103,199.852c0.419,2.172-0.854,4.246-2.844,4.629c-1.989,0.384-3.944-1.066-4.363-3.238
			c-0.42-2.172,0.853-4.245,2.845-4.629C357.729,196.229,359.684,197.679,360.103,199.852z"/>
		<path style="fill:#327B74;" d="M516.567,232.075c0.268,1.385-0.545,2.708-1.813,2.953c-1.268,0.245-2.516-0.68-2.783-2.065
			c-0.268-1.386,0.544-2.708,1.815-2.953C515.054,229.765,516.3,230.69,516.567,232.075z"/>
		<path style="fill:#327B74;" d="M294.646,196.865c0.24,1.244-0.4,2.414-1.429,2.613c-1.029,0.199-2.059-0.649-2.299-1.893
			c-0.24-1.244,0.399-2.414,1.43-2.613C293.376,194.773,294.406,195.621,294.646,196.865z"/>
		<path style="fill:#327B74;" d="M305.236,213.541c0.21,1.086-0.338,2.105-1.224,2.276c-0.885,0.171-1.773-0.571-1.983-1.657
			c-0.21-1.086,0.337-2.106,1.224-2.277C304.138,211.712,305.026,212.455,305.236,213.541z"/>
		<path style="fill:#327B74;" d="M282.096,224.84c0.157,0.813-0.205,1.567-0.809,1.684c-0.603,0.117-1.22-0.449-1.377-1.262
			c-0.157-0.814,0.205-1.568,0.809-1.684C281.321,223.462,281.939,224.027,282.096,224.84z"/>
		<path style="fill:#327B74;" d="M246.76,213.64c0.157,0.813-0.205,1.567-0.809,1.684s-1.22-0.449-1.377-1.262
			c-0.157-0.814,0.205-1.568,0.809-1.684C245.985,212.261,246.602,212.827,246.76,213.64z"/>
		<path style="fill:#327B74;" d="M337.078,206.808c0.157,0.814-0.205,1.567-0.809,1.684c-0.604,0.117-1.22-0.449-1.377-1.262
			c-0.157-0.814,0.205-1.568,0.809-1.685C336.303,205.429,336.92,205.995,337.078,206.808z"/>
		<path style="fill:#327B74;" d="M381.92,199.295c0.157,0.814-0.205,1.567-0.809,1.684c-0.604,0.117-1.22-0.449-1.377-1.262
			c-0.157-0.814,0.205-1.568,0.809-1.685C381.145,197.917,381.763,198.482,381.92,199.295z"/>
		<path style="fill:#327B74;" d="M398.76,215.631c0.157,0.813-0.205,1.567-0.809,1.684c-0.604,0.117-1.22-0.449-1.378-1.262
			c-0.157-0.814,0.205-1.568,0.809-1.685C397.986,214.253,398.603,214.818,398.76,215.631z"/>
		<path style="fill:#327B74;" d="M431.594,209.494c0.156,0.813-0.205,1.567-0.809,1.684c-0.604,0.117-1.221-0.449-1.378-1.262
			c-0.157-0.814,0.204-1.568,0.809-1.684C430.818,208.116,431.435,208.681,431.594,209.494z"/>
		<path style="fill:#327B74;" d="M436.876,226.496c0.167,0.873-0.46,1.728-1.402,1.911c-0.943,0.182-1.845-0.379-2.014-1.251
			c-0.169-0.874,0.458-1.729,1.402-1.911C435.804,225.063,436.706,225.624,436.876,226.496z"/>
		<path style="fill:#327B74;" d="M487.042,228.111c0.167,0.873-0.46,1.728-1.402,1.911c-0.943,0.182-1.845-0.378-2.014-1.251
			c-0.169-0.873,0.458-1.729,1.402-1.911C485.97,226.678,486.872,227.239,487.042,228.111z"/>
		<path style="fill:#327B74;" d="M589.542,234.737c0.167,0.873-0.46,1.728-1.402,1.911c-0.943,0.182-1.845-0.378-2.014-1.251
			c-0.169-0.874,0.458-1.729,1.402-1.911C588.47,233.304,589.372,233.865,589.542,234.737z"/>
		<path style="fill:#327B74;" d="M495.956,218.337c0.121,0.628-0.229,1.223-0.782,1.33c-0.554,0.107-1.101-0.316-1.223-0.943
			c-0.121-0.628,0.228-1.224,0.783-1.331C495.287,217.288,495.835,217.71,495.956,218.337z"/>
		<path style="fill:#327B74;" d="M485.628,211c0.121,0.628-0.23,1.223-0.782,1.33c-0.554,0.106-1.101-0.316-1.223-0.943
			c-0.121-0.628,0.229-1.224,0.783-1.331C484.959,209.95,485.507,210.373,485.628,211z"/>
		<path style="fill:#327B74;" d="M596.17,242.17c0.121,0.628-0.229,1.223-0.782,1.33c-0.554,0.106-1.101-0.316-1.223-0.943
			c-0.121-0.628,0.229-1.224,0.783-1.331C595.501,241.121,596.049,241.543,596.17,242.17z"/>
		<path style="fill:#327B74;" d="M606.407,236.489c0.121,0.627-0.229,1.223-0.782,1.33c-0.554,0.106-1.101-0.316-1.223-0.943
			c-0.121-0.628,0.229-1.224,0.783-1.331C605.738,235.439,606.286,235.861,606.407,236.489z"/>
		<path style="fill:#327B74;" d="M437.207,200.896c0.22,1.141-0.204,2.182-0.949,2.326c-0.744,0.144-1.527-0.665-1.748-1.805
			c-0.22-1.142,0.204-2.183,0.95-2.327C436.203,198.947,436.985,199.756,437.207,200.896z"/>
		<path style="fill:#327B74;" d="M382.253,228.834c0.215,1.112-0.25,2.138-1.037,2.29c-0.787,0.152-1.6-0.627-1.815-1.739
			c-0.215-1.113,0.249-2.138,1.037-2.29C381.225,226.942,382.038,227.721,382.253,228.834z"/>
		<path style="fill:#327B74;" d="M326.807,228.834c0.215,1.112-0.25,2.138-1.037,2.29c-0.787,0.152-1.6-0.627-1.815-1.739
			c-0.215-1.113,0.249-2.138,1.037-2.29C325.779,226.942,326.592,227.721,326.807,228.834z"/>
		<path style="fill:#327B74;" d="M267.176,215.844c0.215,1.112-0.249,2.138-1.037,2.29c-0.787,0.152-1.6-0.627-1.815-1.739
			c-0.215-1.113,0.249-2.138,1.037-2.29C266.148,213.953,266.961,214.732,267.176,215.844z"/>
		<path style="fill:#327B74;" d="M373.176,211.773c0.215,1.112-0.249,2.138-1.037,2.29c-0.787,0.152-1.6-0.627-1.815-1.739
			c-0.215-1.113,0.249-2.138,1.037-2.29C372.148,209.881,372.961,210.66,373.176,211.773z"/>
		<path style="fill:#327B74;" d="M451.265,215.844c0.215,1.112-0.249,2.138-1.036,2.29c-0.787,0.152-1.601-0.627-1.815-1.739
			c-0.215-1.113,0.249-2.138,1.037-2.29C450.236,213.953,451.05,214.732,451.265,215.844z"/>
		<path style="fill:#327B74;" d="M460.426,204.71c0.215,1.112-0.249,2.138-1.036,2.29c-0.787,0.152-1.6-0.627-1.815-1.739
			c-0.215-1.113,0.249-2.138,1.037-2.29C459.397,202.818,460.211,203.597,460.426,204.71z"/>
		<path style="fill:#327B74;" d="M477.098,218.706c0.316,1.637-0.367,3.146-1.525,3.369c-1.158,0.224-2.354-0.922-2.67-2.559
			c-0.316-1.637,0.366-3.145,1.525-3.369C475.586,215.923,476.781,217.069,477.098,218.706z"/>
		<path style="fill:#327B74;" d="M519.019,223.43c0.878,0.875,1.088,2.09,0.468,2.711c-0.619,0.622-1.834,0.416-2.712-0.459
			c-0.879-0.876-1.089-2.089-0.469-2.711C516.925,222.349,518.14,222.555,519.019,223.43z"/>
		<path style="fill:#327B74;" d="M538.479,232.922c1.202,0.302,2.005,1.238,1.791,2.088c-0.214,0.851-1.362,1.297-2.564,0.995
			c-1.204-0.301-2.006-1.236-1.792-2.088C536.127,233.066,537.276,232.621,538.479,232.922z"/>
		<path style="fill:#327B74;" d="M574.236,242.458c1.202,0.302,2.005,1.238,1.791,2.088c-0.214,0.851-1.362,1.297-2.564,0.995
			c-1.204-0.301-2.006-1.236-1.792-2.088C571.884,242.603,573.033,242.157,574.236,242.458z"/>
		<path style="fill:#327B74;" d="M558.69,232.151c0.991,0.25,1.585,1.293,1.324,2.33c-0.26,1.038-1.275,1.677-2.267,1.428
			c-0.993-0.248-1.586-1.29-1.325-2.33C556.682,232.542,557.697,231.902,558.69,232.151z"/>
	</g>
	<g style="opacity:0.77;">
		<path style="fill:#327B74;" d="M653.659,210.688c0.96,1.037,1.275,2.432,0.705,3.112c-0.571,0.682-1.813,0.393-2.774-0.643
			c-0.959-1.038-1.276-2.431-0.705-3.112C651.455,209.363,652.697,209.651,653.659,210.688z"/>
		<path style="fill:#327B74;" d="M659.621,195.394c0.702,1.503,0.539,3.116-0.367,3.601c-0.905,0.485-2.211-0.34-2.914-1.844
			c-0.704-1.503-0.54-3.114,0.367-3.6C657.61,193.066,658.916,193.891,659.621,195.394z"/>
		<path style="opacity:0.37;fill:#327B74;" d="M660.846,239.776c0.703,1.503,0.539,3.116-0.367,3.601
			c-0.904,0.484-2.21-0.341-2.914-1.844c-0.704-1.502-0.539-3.115,0.367-3.6C658.836,237.448,660.142,238.274,660.846,239.776z"/>
		<path style="fill:#327B74;" d="M688.072,187.495c0.934,1.994,0.43,4.288-1.128,5.121c-1.554,0.833-3.575-0.109-4.509-2.103
			c-0.933-1.995-0.429-4.288,1.129-5.122C685.119,184.558,687.137,185.501,688.072,187.495z"/>
		<path style="fill:#327B74;" d="M634.041,213.342c0.535,1.142,0.316,2.418-0.489,2.849c-0.804,0.431-1.892-0.146-2.427-1.288
			c-0.535-1.142-0.316-2.418,0.49-2.85C632.42,211.623,633.506,212.2,634.041,213.342z"/>
		<path style="fill:#327B74;" d="M645.994,213.452c0.467,0.997,0.285,2.106-0.407,2.477c-0.691,0.37-1.633-0.138-2.1-1.135
			c-0.467-0.998-0.285-2.107,0.409-2.478C644.588,211.946,645.528,212.455,645.994,213.452z"/>
		<path style="fill:#327B74;" d="M629.733,229.722c0.351,0.747,0.25,1.557-0.222,1.81c-0.472,0.253-1.138-0.149-1.486-0.895
			c-0.351-0.748-0.252-1.558,0.222-1.811C628.719,228.574,629.385,228.975,629.733,229.722z"/>
		<path style="fill:#327B74;" d="M623.574,226.662c0.35,0.747,0.25,1.558-0.222,1.811c-0.472,0.253-1.139-0.148-1.487-0.895
			c-0.35-0.747-0.251-1.558,0.222-1.811C622.559,225.514,623.225,225.915,623.574,226.662z"/>
		<path style="fill:#327B74;" d="M670.739,199.554c0.35,0.747,0.25,1.558-0.222,1.811c-0.472,0.253-1.138-0.149-1.487-0.895
			c-0.351-0.747-0.251-1.558,0.222-1.811C669.723,198.407,670.391,198.808,670.739,199.554z"/>
		<path style="opacity:0.37;fill:#327B74;" d="M636.602,241.249c0.349,0.747,0.25,1.557-0.222,1.81
			c-0.473,0.253-1.139-0.148-1.488-0.895c-0.35-0.748-0.25-1.558,0.222-1.811C635.585,240.102,636.252,240.503,636.602,241.249z"/>
		<path style="opacity:0.37;fill:#327B74;" d="M655.037,253.064c0.351,0.747,0.25,1.558-0.222,1.811
			c-0.472,0.253-1.138-0.148-1.488-0.895c-0.349-0.747-0.251-1.558,0.221-1.811C654.021,251.916,654.688,252.317,655.037,253.064z"
			/>
		<path style="opacity:0.37;fill:#327B74;" d="M668.282,193.866c0.349,0.748,0.25,1.558-0.222,1.811
			c-0.472,0.253-1.14-0.148-1.488-0.895c-0.351-0.748-0.252-1.558,0.222-1.811C667.265,192.719,667.931,193.12,668.282,193.866z"/>
		<path style="opacity:0.37;fill:#327B74;" d="M677.259,209.012c0.373,0.802,0.08,1.772-0.656,2.167
			c-0.738,0.395-1.641,0.065-2.016-0.736c-0.377-0.802-0.084-1.771,0.655-2.167C675.978,207.881,676.882,208.212,677.259,209.012z"
			/>
		<path style="opacity:0.37;fill:#327B74;" d="M670.651,184.278c0.49,1.048,0.417,2.149-0.166,2.461
			c-0.582,0.312-1.452-0.285-1.943-1.332c-0.489-1.049-0.416-2.15,0.168-2.462C669.29,182.634,670.161,183.231,670.651,184.278z"/>
		<path style="opacity:0.37;fill:#327B74;" d="M644.82,269.623c0.478,1.021,0.366,2.118-0.249,2.447
			c-0.616,0.329-1.503-0.232-1.982-1.253c-0.477-1.022-0.368-2.117,0.25-2.447C643.454,268.04,644.342,268.601,644.82,269.623z"/>
		<path style="fill:#327B74;" d="M668.096,223.161c0.477,1.021,0.367,2.117-0.249,2.447c-0.615,0.33-1.503-0.231-1.98-1.253
			c-0.48-1.021-0.368-2.117,0.249-2.447C666.729,221.578,667.617,222.139,668.096,223.161z"/>
		<path style="fill:#327B74;" d="M641.193,224.033c0.478,1.021,0.366,2.117-0.249,2.447c-0.616,0.33-1.503-0.231-1.981-1.253
			s-0.366-2.117,0.249-2.447C639.827,222.45,640.715,223.011,641.193,224.033z"/>
		<path style="opacity:0.37;fill:#327B74;" d="M632.663,255.303c0.477,1.021,0.366,2.117-0.249,2.447
			c-0.615,0.33-1.503-0.231-1.982-1.253c-0.478-1.022-0.366-2.117,0.249-2.447C631.298,253.72,632.184,254.281,632.663,255.303z"/>
		<path style="opacity:0.37;fill:#327B74;" d="M686.394,195.403c0.479,1.022,0.366,2.118-0.249,2.447
			c-0.615,0.33-1.503-0.231-1.981-1.253c-0.479-1.022-0.368-2.117,0.248-2.447C685.028,193.821,685.916,194.381,686.394,195.403z"/>
		<path style="opacity:0.37;fill:#327B74;" d="M691.04,182.546c0.479,1.021,0.368,2.117-0.247,2.446
			c-0.616,0.33-1.505-0.231-1.983-1.252c-0.478-1.022-0.366-2.118,0.25-2.447C689.675,180.963,690.561,181.524,691.04,182.546z"/>
	</g>
	<g style="opacity:0.77;">
		<path style="fill:#327B74;" d="M419.509,166.54c0.483-1.328,1.58-2.246,2.446-2.049c0.867,0.197,1.178,1.433,0.695,2.762
			c-0.484,1.327-1.578,2.246-2.446,2.049C419.337,169.106,419.026,167.87,419.509,166.54z"/>
		<path style="fill:#327B74;" d="M403.18,168.226c1.017-1.312,2.525-1.903,3.371-1.319c0.845,0.583,0.708,2.122-0.309,3.435
			c-1.015,1.313-2.523,1.903-3.369,1.318C402.029,171.078,402.166,169.54,403.18,168.226z"/>
		<path style="opacity:0.37;fill:#327B74;" d="M384.692,159.467c1.016-1.313,2.523-1.903,3.369-1.319
			c0.844,0.583,0.707,2.122-0.309,3.434c-1.014,1.313-2.523,1.903-3.369,1.318C383.54,162.318,383.676,160.779,384.692,159.467z"/>
		<path style="fill:#327B74;" d="M383.153,146.529c1.347-1.742,3.618-2.342,5.07-1.337c1.451,1.001,1.537,3.23,0.19,4.971
			c-1.348,1.742-3.618,2.341-5.072,1.336C381.891,150.497,381.807,148.272,383.153,146.529z"/>
		<path style="fill:#327B74;" d="M430.835,182.777c0.771-0.998,2.006-1.387,2.758-0.867c0.75,0.518,0.735,1.749-0.037,2.747
			c-0.772,0.998-2.006,1.386-2.759,0.866C430.046,185.005,430.063,183.775,430.835,182.777z"/>
		<path style="fill:#327B74;" d="M425.47,172.095c0.674-0.871,1.743-1.216,2.39-0.77c0.646,0.446,0.624,1.515-0.05,2.386
			c-0.674,0.871-1.743,1.216-2.392,0.768C424.773,174.034,424.796,172.965,425.47,172.095z"/>
		<path style="fill:#327B74;" d="M447.373,179.124c0.504-0.653,1.27-0.934,1.711-0.63c0.441,0.304,0.389,1.08-0.117,1.73
			c-0.504,0.654-1.27,0.937-1.711,0.63C446.814,180.551,446.867,179.775,447.373,179.124z"/>
		<path style="fill:#327B74;" d="M447.465,186.001c0.506-0.652,1.272-0.935,1.713-0.63c0.439,0.304,0.387,1.081-0.117,1.732
			c-0.504,0.652-1.271,0.935-1.711,0.63C446.908,187.429,446.961,186.653,447.465,186.001z"/>
		<path style="fill:#327B74;" d="M401.801,156.436c0.504-0.652,1.271-0.935,1.711-0.63c0.44,0.304,0.388,1.08-0.116,1.731
			c-0.505,0.654-1.271,0.936-1.712,0.63C401.245,157.864,401.296,157.087,401.801,156.436z"/>
		<path style="opacity:0.37;fill:#327B74;" d="M407.152,175.732c0.504-0.651,1.27-0.934,1.711-0.63
			c0.441,0.305,0.389,1.08-0.115,1.732c-0.506,0.652-1.271,0.935-1.713,0.63C406.596,177.161,406.648,176.384,407.152,175.732z"/>
		<path style="opacity:0.37;fill:#327B74;" d="M399.165,158.562c0.504-0.653,1.271-0.934,1.711-0.63
			c0.441,0.304,0.389,1.08-0.115,1.732c-0.506,0.652-1.271,0.935-1.711,0.631C398.608,159.989,398.661,159.214,399.165,158.562z"/>
		<path style="opacity:0.37;fill:#327B74;" d="M397.863,161.22c0.506-0.652,1.272-0.934,1.712-0.63
			c0.44,0.304,0.389,1.081-0.115,1.733c-0.505,0.653-1.271,0.935-1.712,0.63C397.308,162.649,397.361,161.874,397.863,161.22z"/>
		<path style="opacity:0.37;fill:#327B74;" d="M407.234,146.314c0.543-0.699,1.539-0.881,2.227-0.407
			c0.689,0.476,0.808,1.43,0.266,2.129c-0.541,0.702-1.537,0.884-2.227,0.407C406.813,147.97,406.694,147.016,407.234,146.314z"/>
		<path style="opacity:0.37;fill:#327B74;" d="M388.252,163.494c0.708-0.915,1.722-1.353,2.266-0.977
			c0.543,0.375,0.41,1.422-0.296,2.337c-0.71,0.915-1.723,1.353-2.267,0.976C387.413,165.456,387.545,164.409,388.252,163.494z"/>
		<path style="opacity:0.37;fill:#327B74;" d="M418.563,160.082c0.689-0.893,1.717-1.294,2.291-0.896
			c0.574,0.397,0.48,1.442-0.209,2.335c-0.691,0.892-1.717,1.295-2.291,0.895C417.78,162.021,417.872,160.975,418.563,160.082z"/>
		<path style="fill:#327B74;" d="M366.598,160.611c0.691-0.892,1.716-1.294,2.291-0.897c0.574,0.397,0.48,1.443-0.21,2.335
			c-0.69,0.893-1.715,1.295-2.29,0.896C365.815,162.549,365.909,161.503,366.598,160.611z"/>
		<path style="fill:#327B74;" d="M437.076,171.53c0.689-0.892,1.715-1.293,2.289-0.897c0.576,0.398,0.482,1.442-0.209,2.335
			c-0.689,0.893-1.715,1.293-2.289,0.897C436.292,173.469,436.385,172.423,437.076,171.53z"/>
		<path style="opacity:0.37;fill:#327B74;" d="M421.451,172.814c0.691-0.892,1.717-1.293,2.291-0.896s0.48,1.443-0.209,2.335
			c-0.689,0.893-1.715,1.293-2.291,0.896C420.668,174.752,420.762,173.707,421.451,172.814z"/>
		<path style="opacity:0.37;fill:#327B74;" d="M390.955,144.407c0.69-0.893,1.716-1.294,2.29-0.897
			c0.574,0.396,0.481,1.442-0.21,2.334c-0.69,0.894-1.715,1.295-2.29,0.898C390.171,146.345,390.264,145.3,390.955,144.407z"/>
		<path style="opacity:0.37;fill:#327B74;" d="M377.395,146.15c0.69-0.892,1.715-1.295,2.289-0.898
			c0.575,0.397,0.482,1.444-0.208,2.336c-0.691,0.892-1.716,1.293-2.291,0.896C376.611,148.088,376.705,147.043,377.395,146.15z"/>
	</g>
	<g style="opacity:0.22;">
		<path style="fill:#327B74;" d="M267.181,212.329c0.747,1.257,0.665,2.685-0.181,3.188c-0.847,0.503-2.139-0.109-2.886-1.366
			c-0.747-1.257-0.666-2.685,0.181-3.188C265.142,210.46,266.434,211.071,267.181,212.329z"/>
		<path style="fill:#327B74;" d="M307.996,205.798c0.316,1.637-0.367,3.146-1.525,3.369c-1.158,0.224-2.354-0.922-2.67-2.559
			c-0.316-1.637,0.366-3.145,1.526-3.369C306.483,203.015,307.679,204.161,307.996,205.798z"/>
		<path style="fill:#327B74;" d="M391.343,210.381c0.316,1.637-0.367,3.146-1.525,3.369c-1.158,0.224-2.354-0.922-2.67-2.559
			c-0.316-1.637,0.366-3.145,1.526-3.369C389.831,207.599,391.026,208.745,391.343,210.381z"/>
		<path style="fill:#327B74;" d="M342.099,205.838c0.419,2.172-0.855,4.246-2.844,4.629c-1.989,0.384-3.944-1.066-4.363-3.238
			c-0.42-2.172,0.852-4.245,2.845-4.629C339.725,202.216,341.679,203.666,342.099,205.838z"/>
		<path style="fill:#327B74;" d="M498.563,238.062c0.268,1.385-0.545,2.708-1.814,2.953c-1.268,0.245-2.516-0.68-2.783-2.065
			c-0.268-1.386,0.544-2.708,1.814-2.953C497.049,235.751,498.295,236.677,498.563,238.062z"/>
		<path style="fill:#327B74;" d="M276.642,202.852c0.24,1.244-0.4,2.414-1.429,2.613c-1.029,0.199-2.059-0.649-2.299-1.893
			c-0.24-1.244,0.399-2.414,1.43-2.613C275.372,200.759,276.401,201.607,276.642,202.852z"/>
		<path style="fill:#327B74;" d="M287.231,219.528c0.21,1.086-0.338,2.105-1.224,2.276c-0.885,0.171-1.773-0.571-1.983-1.657
			c-0.21-1.086,0.337-2.106,1.224-2.277C286.133,217.699,287.021,218.442,287.231,219.528z"/>
		<path style="fill:#327B74;" d="M264.091,230.827c0.157,0.814-0.205,1.567-0.809,1.684c-0.604,0.117-1.22-0.449-1.377-1.262
			c-0.157-0.814,0.205-1.568,0.809-1.684C263.316,229.449,263.934,230.014,264.091,230.827z"/>
		<path style="fill:#327B74;" d="M228.755,219.626c0.157,0.814-0.205,1.567-0.809,1.684c-0.604,0.117-1.22-0.449-1.377-1.262
			c-0.157-0.814,0.205-1.568,0.809-1.685C227.98,218.248,228.598,218.814,228.755,219.626z"/>
		<path style="fill:#327B74;" d="M319.073,212.794c0.157,0.813-0.205,1.567-0.809,1.684c-0.604,0.117-1.22-0.449-1.378-1.262
			c-0.157-0.814,0.205-1.568,0.809-1.685C318.298,211.416,318.915,211.982,319.073,212.794z"/>
		<path style="fill:#327B74;" d="M363.915,205.282c0.157,0.813-0.205,1.567-0.809,1.684c-0.603,0.117-1.22-0.449-1.377-1.262
			c-0.157-0.814,0.205-1.568,0.809-1.685C363.141,203.904,363.758,204.469,363.915,205.282z"/>
		<path style="fill:#327B74;" d="M380.755,221.618c0.157,0.813-0.205,1.567-0.809,1.684c-0.603,0.117-1.22-0.449-1.377-1.262
			c-0.157-0.814,0.205-1.568,0.809-1.685C379.981,220.239,380.598,220.805,380.755,221.618z"/>
		<path style="fill:#327B74;" d="M413.589,215.481c0.156,0.813-0.205,1.567-0.809,1.684c-0.604,0.117-1.221-0.449-1.378-1.262
			c-0.157-0.814,0.204-1.568,0.809-1.684C412.813,214.103,413.431,214.668,413.589,215.481z"/>
		<path style="fill:#327B74;" d="M418.871,232.483c0.167,0.873-0.46,1.728-1.402,1.911c-0.943,0.182-1.845-0.378-2.014-1.251
			c-0.169-0.874,0.458-1.729,1.402-1.911C417.799,231.05,418.701,231.61,418.871,232.483z"/>
		<path style="fill:#327B74;" d="M469.037,234.098c0.167,0.873-0.46,1.728-1.402,1.911c-0.943,0.182-1.845-0.378-2.014-1.251
			c-0.169-0.874,0.458-1.729,1.402-1.911C467.965,232.665,468.867,233.226,469.037,234.098z"/>
		<path style="fill:#327B74;" d="M571.537,240.724c0.167,0.873-0.46,1.728-1.402,1.911c-0.943,0.182-1.845-0.378-2.014-1.251
			c-0.169-0.874,0.458-1.729,1.402-1.911C570.465,239.291,571.367,239.852,571.537,240.724z"/>
		<path style="fill:#327B74;" d="M477.951,224.324c0.121,0.628-0.23,1.223-0.782,1.33c-0.554,0.107-1.1-0.316-1.223-0.943
			c-0.121-0.628,0.228-1.224,0.783-1.331C477.282,223.274,477.83,223.697,477.951,224.324z"/>
		<path style="fill:#327B74;" d="M467.623,216.987c0.121,0.627-0.229,1.223-0.782,1.33c-0.554,0.107-1.101-0.316-1.223-0.943
			c-0.121-0.628,0.228-1.224,0.783-1.331C466.954,215.937,467.502,216.359,467.623,216.987z"/>
		<path style="fill:#327B74;" d="M578.165,248.157c0.121,0.627-0.229,1.223-0.782,1.33c-0.554,0.107-1.101-0.316-1.223-0.943
			c-0.121-0.628,0.229-1.224,0.783-1.331C577.496,247.107,578.044,247.53,578.165,248.157z"/>
		<path style="fill:#327B74;" d="M588.402,242.476c0.121,0.628-0.229,1.223-0.782,1.33c-0.554,0.106-1.101-0.316-1.223-0.943
			c-0.121-0.628,0.229-1.224,0.783-1.331C587.733,241.426,588.281,241.848,588.402,242.476z"/>
		<path style="fill:#327B74;" d="M419.202,206.883c0.22,1.141-0.204,2.182-0.949,2.326c-0.744,0.144-1.527-0.665-1.748-1.805
			c-0.22-1.142,0.204-2.183,0.95-2.327C418.198,204.934,418.98,205.743,419.202,206.883z"/>
		<path style="fill:#327B74;" d="M364.248,234.821c0.215,1.112-0.249,2.138-1.037,2.29c-0.787,0.152-1.6-0.627-1.815-1.739
			c-0.215-1.113,0.249-2.138,1.037-2.29C363.22,232.929,364.033,233.708,364.248,234.821z"/>
		<path style="fill:#327B74;" d="M308.802,234.821c0.215,1.112-0.249,2.138-1.037,2.29c-0.787,0.152-1.6-0.627-1.815-1.739
			c-0.215-1.113,0.249-2.138,1.037-2.29C307.774,232.929,308.587,233.708,308.802,234.821z"/>
		<path style="fill:#327B74;" d="M249.171,221.831c0.215,1.112-0.25,2.138-1.037,2.29c-0.787,0.152-1.6-0.627-1.815-1.739
			c-0.215-1.113,0.249-2.138,1.037-2.29C248.143,219.939,248.956,220.718,249.171,221.831z"/>
		<path style="fill:#327B74;" d="M355.171,217.759c0.215,1.112-0.25,2.138-1.037,2.29c-0.787,0.152-1.6-0.627-1.815-1.739
			c-0.215-1.113,0.249-2.138,1.037-2.29C354.143,215.868,354.956,216.646,355.171,217.759z"/>
		<path style="fill:#327B74;" d="M433.26,221.831c0.215,1.112-0.249,2.138-1.036,2.29c-0.787,0.152-1.601-0.627-1.815-1.739
			c-0.215-1.113,0.249-2.138,1.037-2.29C432.231,219.939,433.045,220.718,433.26,221.831z"/>
		<path style="fill:#327B74;" d="M442.421,210.696c0.215,1.112-0.249,2.138-1.036,2.29c-0.787,0.152-1.601-0.627-1.816-1.739
			c-0.215-1.113,0.249-2.138,1.037-2.29C441.393,208.805,442.206,209.583,442.421,210.696z"/>
		<path style="fill:#327B74;" d="M459.093,224.693c0.316,1.637-0.367,3.146-1.525,3.369c-1.158,0.224-2.353-0.922-2.67-2.559
			c-0.316-1.637,0.366-3.145,1.525-3.369C457.581,221.91,458.776,223.056,459.093,224.693z"/>
		<path style="fill:#327B74;" d="M501.014,229.417c0.878,0.875,1.088,2.09,0.468,2.711c-0.619,0.621-1.834,0.415-2.712-0.46
			c-0.879-0.876-1.089-2.089-0.469-2.711C498.92,228.335,500.135,228.542,501.014,229.417z"/>
		<path style="fill:#327B74;" d="M520.475,238.909c1.202,0.302,2.005,1.238,1.791,2.088c-0.214,0.851-1.362,1.297-2.564,0.995
			c-1.204-0.301-2.006-1.236-1.792-2.088C518.122,239.053,519.271,238.607,520.475,238.909z"/>
		<path style="fill:#327B74;" d="M556.231,248.445c1.202,0.302,2.005,1.238,1.791,2.088c-0.214,0.851-1.362,1.297-2.564,0.995
			c-1.204-0.301-2.006-1.236-1.792-2.088C553.879,248.589,555.028,248.144,556.231,248.445z"/>
		<path style="fill:#327B74;" d="M540.685,238.138c0.991,0.25,1.585,1.293,1.324,2.33c-0.26,1.038-1.275,1.677-2.267,1.428
			c-0.993-0.248-1.586-1.29-1.325-2.33C538.677,238.529,539.692,237.889,540.685,238.138z"/>
	</g>
	<path style="fill:none;" d="M619.831,246.997c0.337,1.846,0.527,3.733,0.502,5.617c-0.068,5.08-1.783,10.227-4.116,14.634
		c1.583-2.25,2.992-4.927,4.22-7.899C621.013,254.372,620.725,250.31,619.831,246.997z"/>
	
		<linearGradient id="SVGID_00000151528859403109151790000015308340486161127592_" gradientUnits="userSpaceOnUse" x1="373.3985" y1="180.1121" x2="385.3142" y2="328.9705">
		<stop  offset="0" style="stop-color:#287781"/>
		<stop  offset="0.1902" style="stop-color:#4FB3D1"/>
		<stop  offset="0.4233" style="stop-color:#D8D99D"/>
		<stop  offset="0.638" style="stop-color:#F9D7DA"/>
		<stop  offset="0.9141" style="stop-color:#EF929C"/>
	</linearGradient>
	<path style="fill:url(#SVGID_00000151528859403109151790000015308340486161127592_);" d="M162.667,257.529
		c-12-5.915-22.83-5.061-23.334-7.343c-0.503-2.281,3.167-3.906,11.667-7.406s14.75-5.205,24.5-8.352
		c9.75-3.148,16.644-2.085,22.813,0.64c3.495,1.544,24.639,16.646,14.889,5.383c-9.75-11.262,14.293-2.138,20.501,2.33
		c6.208,4.468,15.408,2.618,6.158-6.823c-9.25-9.44,6.055-15.891,22.008-21.604c15.953-5.713,48.255-17.209,108.403-14.847
		c60.148,2.362,111.12,12.973,138.229,24.634c27.108,11.661,45.329,16.025,79.64,12.508c3.866-0.396,27.483-5.251,31.691,10.349
		c-1.872-10.243-8.331-19.217-8.331-19.217s-11.5,4-43,2s-60.5-16-87-25.5s-89-16.5-138.5-17.5s-95,18-108.5,24s-25.5,12-40,15
		s-45,15.5-53,20s0,9.5,0,9.5c0-1.375,1-1.5,1.625-0.375c0.625,1.125,0,1.75,1.5,0.75c1.5-1,1.375-0.125,2.5,0.875
		c1.125,1,1.625-2.375,2.625-0.5c1,1.875,0.875-1,2,0.875c1.125,1.875,1.5-1.5,2.25-0.375c0.75,1.125,0,0,1.875,0.75
		s5.5,0.875,14.25,7.625c5.756,4.44,11.402,11.314,14.594,15.498l0,0C184.719,280.403,174.667,263.445,162.667,257.529z"/>
	
		<linearGradient id="SVGID_00000059288459932805824000000000415400036000688063_" gradientUnits="userSpaceOnUse" x1="378.6423" y1="372.2823" x2="378.6423" y2="108.7559">
		<stop  offset="0" style="stop-color:#287781"/>
		<stop  offset="0.1902" style="stop-color:#4FB3D1"/>
		<stop  offset="0.4233" style="stop-color:#D8D99D"/>
		<stop  offset="0.638" style="stop-color:#F9D7DA"/>
		<stop  offset="0.9141" style="stop-color:#EF929C"/>
	</linearGradient>
	<path style="opacity:0.58;fill:url(#SVGID_00000059288459932805824000000000415400036000688063_);" d="M604.378,274.53
		c-9.122-0.25-44.128,2.5-57.878,5.873c-13.75,3.373-26,10.127-80.906,25.377c-54.906,15.25-116.594,13-141.69,12.75
		s-12.153-13.5-10.153-18.144c2-4.643,3.5-5.356-16-5.998c-19.5-0.642-39.5,11.142-40.35,16.007
		c-0.85,4.865-13.15,4.385-15.545,0.907c-2.395-3.478,2.645-11.772,5.02-10.096c2.375,1.677,6.875,2.573,6.875,2.573
		c-9.231-8.395,1-11.75,3.797-28.078c2.797-16.328-11.182-28.244-11.182-28.244c7.115,9.928,11.385,20.072,4.385,34.758
		s-26.193,17.412-23.088,13.814c3.105-3.599,7.838-10.5,8.696-17.612s-3.358-15.138-6.92-17.638s-12.851-11.75-12.851-11.75
		c5.92,14.417,17.747,17.584,12.851,31.373c-4.896,13.79-24.771,22.877-51.771,17.237c-17.138-3.58-29.701-14.17-36.599-21.433
		c1.506,4.494,7.245,11.369,17.932,17.74c17.333,10.333,40.5,12.833,40.5,12.833c23.5,13,32,6,32,6c59,23.5,135.5,13.5,173,13
		s101.5-23.5,128.5-36c23.856-11.044,60.977-12.72,72.404-10.546c2.885-0.91,7.48-5.693,10.813-11.986
		C612.982,271.844,609.021,274.658,604.378,274.53z"/>
	<path style="opacity:0.3;fill:#E4E7EE;" d="M378.527,211.898c-42.779-2.357-100.229,5.685-121.809,15.228
		c-21.58,9.544,22.052-0.673,44.067,1.195c22.015,1.869,126.94,6.533,174.414,8.287c47.474,1.754,55.925,10.361,90.873,10.126
		c34.948-0.235-5.785-0.977-35.465-10.903C500.929,225.905,423.818,214.393,378.527,211.898z"/>
	<path style="opacity:0.52;fill:#E4E7EE;" d="M397.876,216.827c-20.092-1.827-108.15-0.007-57.391,6.663
		C391.244,230.159,530.445,228.884,397.876,216.827z"/>
	<path style="opacity:0.3;fill:#E4E7EE;" d="M178.25,236.043c-17.253,6.891-20.25,8.237-11.5,5.862s21.504-5.375,32.377,0
		C210,247.28,199.5,227.556,178.25,236.043z"/>
	<path style="opacity:0.3;fill:#E4E7EE;" d="M245.666,252.53c-6.239-5.824-21.666-15.373-25.916-12.25
		c-4.25,3.123,11.75,6.5,19,12.25C246,258.28,254.245,260.538,245.666,252.53z"/>
	
		<linearGradient id="SVGID_00000100379917759394515340000002348728990811763111_" gradientUnits="userSpaceOnUse" x1="204.5133" y1="236.2325" x2="150.4227" y2="292.06">
		<stop  offset="0" style="stop-color:#287781"/>
		<stop  offset="0.1902" style="stop-color:#4FB3D1"/>
		<stop  offset="0.4233" style="stop-color:#D8D99D"/>
		<stop  offset="0.638" style="stop-color:#F9D7DA"/>
		<stop  offset="0.9141" style="stop-color:#EF929C"/>
	</linearGradient>
	<path style="opacity:0.5;fill:url(#SVGID_00000100379917759394515340000002348728990811763111_);" d="M179.487,257.529
		c0,0-1.862-7.343,1.513-12.749c4.053-6.492,11.957-6.75,19.729,0c0,0,3.271,3.165,4.771,1.958c0,0-2.899,13.042-13.2,14.042
		C182,261.78,179.487,257.529,179.487,257.529z"/>
	<g>
		
			<circle style="fill:#D3D1C9;stroke:#000000;stroke-linecap:round;stroke-linejoin:round;stroke-miterlimit:10;" cx="190.625" cy="250.78" r="8.875"/>
		<ellipse style="fill:#FFFFFF;" cx="191.156" cy="250.187" rx="7.156" ry="7.406"/>
		<circle cx="191.5" cy="250.78" r="4.75"/>
		<path style="fill:#FFFFFF;" d="M191.791,249.473c-0.747,1.079-2.043,1.475-2.894,0.885c-0.851-0.589-0.936-1.941-0.189-3.02
			c0.747-1.078,2.043-1.475,2.894-0.885C192.453,247.042,192.538,248.395,191.791,249.473z"/>
	</g>
	<path style="fill:none;" d="M187.171,283.739c0.063,0.097,0.126,0.194,0.188,0.291c0.005,0,0.01,0.001,0.016,0.001
		C187.375,284.03,187.304,283.927,187.171,283.739z"/>
	
		<linearGradient id="SVGID_00000031174390914158763990000002754112987562288298_" gradientUnits="userSpaceOnUse" x1="716.4319" y1="245.7722" x2="94.6503" y2="279.2813">
		<stop  offset="0" style="stop-color:#287781"/>
		<stop  offset="1" style="stop-color:#879DAB"/>
	</linearGradient>
	
		<path style="fill:url(#SVGID_00000031174390914158763990000002754112987562288298_);stroke:#000000;stroke-linecap:round;stroke-linejoin:round;stroke-miterlimit:10;" d="
		M190.625,274.326c0,0,1.065,0.988,2.751,2.333c-0.663-0.652-1.386-1.318-2.22-2.006
		C183.024,267.944,190.625,274.326,190.625,274.326z"/>
	
		<linearGradient id="SVGID_00000061456901283142357470000012368829625597493404_" gradientUnits="userSpaceOnUse" x1="420.9536" y1="213.28" x2="420.9536" y2="362.78">
		<stop  offset="0" style="stop-color:#287781"/>
		<stop  offset="0.1902" style="stop-color:#4FB3D1"/>
		<stop  offset="0.4233" style="stop-color:#D8D99D"/>
		<stop  offset="0.638" style="stop-color:#F9D7DA"/>
		<stop  offset="0.9141" style="stop-color:#EF929C"/>
	</linearGradient>
	<path style="fill:url(#SVGID_00000061456901283142357470000012368829625597493404_);" d="M698.077,168.711
		c0.819,1.429,0.361,4.575-1.077,10.569c-3,12.5-28.75,60.25-25.5,64.542c3.25,4.291,12.5,60.958,16.75,77.701
		c4.25,16.742-16,6.258-29.25-3.992s-39.077-31.897-36.75-53.25S614,232.098,614,232.098c7.75,15.067,4,25.683,2.217,27.659
		c-11.539,12.787-46.967,1.524-74.146,10.101c-27.18,8.577-109.32,25.923-155.001,29.673s-70.82-14.25-94.288-11.643
		c-23.468,2.607-30.949-6.607-32.449-21.107c-1.5-14.5-22.333-27.112-22.333-27.112c10.5,9.888,15.055,20.261,14.211,31.446
		c-0.844,11.185-14.877,18.5-12.35,8.5c2.527-10-5.027-19.167-10.423-22.085c-5.396-2.917-18.271-14.749-18.271-14.749
		s8.531,12.251,15.366,25.834c6.835,13.583-12.032,13.99-19.532,12.407c-4.896-1.034-26.833-15.712-30-18.24
		c20.206,19.436,17.166,21.104,17.166,21.104c-4.41,2.31-18.282-15.442-18.282-15.442c1.187,1.664,10.223,13.642,11.287,15.296
		c0.132,0.188,0.204,0.292,0.204,0.292c-0.006,0-0.011-0.001-0.016-0.001c2.802,4.441,3.826,8.18-3.359,8.001
		c-10-0.25-30.5-9-38.25-14.287c-2.627-1.792-4.008-3.656-4.69-5.339c-1.997,3.258,3.39,12.869,17.94,21.543
		c17.333,10.333,40.5,12.833,40.5,12.833c23.5,13,32,6,32,6c59,23.5,135.5,13.5,173,13s101.5-23.5,128.5-36
		c23.856-11.044,60.977-12.72,72.404-10.546c1.506,0.287,2.571,0.639,3.096,1.046c4.5,3.5,52.5,50.5,72,56s13.5-1.5,11.5-18
		s-16-61-18-72.5c-2-11.5,25-60,27-71C701.745,170.68,700.821,168.806,698.077,168.711z"/>
	
		<linearGradient id="SVGID_00000139264358845242518510000012268082273148907400_" gradientUnits="userSpaceOnUse" x1="254.6743" y1="309.3062" x2="311.625" y2="309.3062">
		<stop  offset="0" style="stop-color:#287781"/>
		<stop  offset="1" style="stop-color:#879DAB"/>
	</linearGradient>
	
		<path style="fill:url(#SVGID_00000139264358845242518510000012268082273148907400_);stroke:#000000;stroke-linecap:round;stroke-linejoin:round;stroke-miterlimit:10;" d="
		M264,300.78c-3.985,2.064-7.249,3.072-9.326,3.56c3.652,2.513,3.845,6.847,0.382,9.482c8.428,4.341,21.679,11.689,30.569,10.208
		c9.75-1.625,14.125-11,18.125-14.75s7.875-12.75,7.875-12.75C294.625,291.155,271,297.155,264,300.78z"/>
	
		<linearGradient id="SVGID_00000181798726405464796480000005728579331478702470_" gradientUnits="userSpaceOnUse" x1="254.6743" y1="308.3884" x2="311.625" y2="308.3884">
		<stop  offset="0" style="stop-color:#287781"/>
		<stop  offset="1" style="stop-color:#879DAB"/>
	</linearGradient>
	<path style="fill:url(#SVGID_00000181798726405464796480000005728579331478702470_);" d="M287.484,321.522
		c0,0-4.484,0.425-15.984-2.742c-11.5-3.167-13.667-6.166-10-4.725s25.167,3.059,25.167,3.059c-16.167-1.666-26.667-5.834-25-5.667
		c1.667,0.167,36.5,0,36.5,0c-11-2.333-41.213,0.165-35.5-2.141c5.713-2.306,41.667-6.192,41.667-6.192
		c-11.167-1.166-39,3.833-42.333,4.5s-0.5-0.99-0.5-0.99c17.167-7.49,44.333-8.984,44.333-8.984
		c-12.667-2.474-41.333,6.474-44.833,8.01s0.833-1.87,0.833-1.87c21.694-11.553,41.695-8.953,49.747-7.147
		c0.03-0.067,0.045-0.103,0.045-0.103c-17-5.375-40.625,0.625-47.625,4.25c-3.985,2.064-7.249,3.072-9.326,3.56
		c3.652,2.513,3.845,6.847,0.382,9.482c2.337,1.204,5.052,2.638,7.934,4.052C286.311,325.048,287.484,321.522,287.484,321.522z"/>
	<path style="opacity:0.52;fill:#E4E7EE;" d="M361.692,171.28c0,0,13.78-24.999,37.877-38.666L361.692,171.28z"/>
	<path style="opacity:0.52;fill:#E4E7EE;" d="M370.271,173.947c0,0,19.546-28.333,34.804-31.333L370.271,173.947z"/>
	<path style="opacity:0.52;fill:#E4E7EE;" d="M382.305,173.947c0,0,18.758-19.666,29.06-22L382.305,173.947z"/>
	<path style="opacity:0.52;fill:#E4E7EE;" d="M398.797,171.28l19.057-12.574C417.853,158.706,408.378,160.794,398.797,171.28z"/>
	<path style="opacity:0.52;fill:#E4E7EE;" d="M475,321.522c0,0,16.173,17.759,36.92,22.425L475,321.522z"/>
	<path style="opacity:0.52;fill:#E4E7EE;" d="M483.599,316.28c0,0,16.575,12.91,36.488,16.455L483.599,316.28z"/>
	<path style="opacity:0.52;fill:#E4E7EE;" d="M527,322.648c0,0-19.752-11.531-27.108-13.035C499.892,309.613,512,318.35,527,322.648
		z"/>
	<path style="opacity:0.52;fill:#E4E7EE;" d="M533,312.613c0,0-11.296-7.287-18.731-6.666
		C514.269,305.947,525.333,312.279,533,312.613z"/>
	<path style="opacity:0.3;fill:#E4E7EE;" d="M632.583,219.111c0,0,18.417-17.081,47.417-27.581S632.583,219.111,632.583,219.111z"/>
	<path style="opacity:0.3;fill:#E4E7EE;" d="M638.152,224.556c0,0,26.598-11.62,35.098-13.073
		C681.75,210.03,638.152,224.556,638.152,224.556z"/>
	<path style="opacity:0.3;fill:#E4E7EE;" d="M634.75,235.963c0,0,13.402-7.743,24.826-9.463C671,224.78,673,225.146,634.75,235.963z
		"/>
	<path style="opacity:0.3;fill:#E4E7EE;" d="M638.152,246.997c0,0,17.098-2.552,25.098-0.259
		C671.25,249.03,650.555,249.964,638.152,246.997z"/>
	<path style="opacity:0.3;fill:#E4E7EE;" d="M634.75,257.122c0,0,24.904,3.658,32.077,5.658
		C674,264.78,652.25,264.464,634.75,257.122z"/>
	<path style="opacity:0.3;fill:#E4E7EE;" d="M634.75,263.835c0,0,34.5,7.696,37.25,9.446S645.75,272.389,634.75,263.835z"/>
	<path style="opacity:0.3;fill:#E4E7EE;" d="M634.75,272.28c0,0,28,16.935,35,17.093C676.75,289.53,638.429,273.764,634.75,272.28z"
		/>
	<path style="opacity:0.3;fill:#E4E7EE;" d="M634.75,280.403c0,0,29.447,24.377,39.599,27.127
		C684.5,310.28,634.75,280.403,634.75,280.403z"/>
	<path style="opacity:0.3;fill:#E4E7EE;" d="M634.75,291.28c0,0,27.365,22.5,37.433,26.5C682.25,321.78,634.75,291.28,634.75,291.28
		z"/>
	<path style="opacity:0.52;fill:#E4E7EE;" d="M267.692,304.883c0,0,26.987-8.598,34.293-6.087
		C309.291,301.307,267.692,304.883,267.692,304.883z"/>
	<path style="opacity:0.52;fill:#E4E7EE;" d="M270.453,300.387c0,0,18.58-6.092,25.38-4.606
		C302.634,297.266,270.453,300.387,270.453,300.387z"/>
	<path style="opacity:0.52;fill:#E4E7EE;" d="M273.667,309.307c0,0,21.667-3.673,25.5-2.683
		C303,307.614,279.07,310.665,273.667,309.307z"/>
	<path style="opacity:0.52;fill:#E4E7EE;" d="M272.863,312.78c0,0,15.538-0.116,18.004,1.275S272.863,312.78,272.863,312.78z"/>
</g>
</svg>
