<?xml version="1.0" encoding="UTF-8"?>
<svg xmlns="http://www.w3.org/2000/svg" version="1.1" xmlns:xlink="http://www.w3.org/1999/xlink" viewBox="0 0 1024 1024">
  <defs>
    <linearGradient id="linear-gradient" x1="435.596" y1="831.665" x2="518.157" y2="645.119" gradientTransform="translate(0 1026) scale(1 -1)" gradientUnits="userSpaceOnUse">
      <stop offset="0" stop-color="#ffdc93"/>
      <stop offset="1" stop-color="#fec58e"/>
    </linearGradient>
    <linearGradient id="linear-gradient-2" x1="550.876" y1="842.644" x2="476.442" y2="582.066" gradientTransform="translate(0 1026) scale(1 -1)" gradientUnits="userSpaceOnUse">
      <stop offset="0" stop-color="#feeeb9"/>
      <stop offset="1" stop-color="#ffcea4"/>
    </linearGradient>
    <linearGradient id="linear-gradient-3" x1="592.973" y1="837.867" x2="549.929" y2="657.945" gradientTransform="translate(0 1026) scale(1 -1)" gradientUnits="userSpaceOnUse">
      <stop offset="0" stop-color="#fec679"/>
      <stop offset="1" stop-color="#fba864"/>
    </linearGradient>
    <linearGradient id="linear-gradient-4" x1="622.999" y1="722.061" x2="677.863" y2="554.831" gradientTransform="translate(0 1026) scale(1 -1)" gradientUnits="userSpaceOnUse">
      <stop offset="0" stop-color="#ffe7ae"/>
      <stop offset="1" stop-color="#febc74"/>
    </linearGradient>
  </defs>
  <!-- Generator: Adobe Illustrator 28.7.7, SVG Export Plug-In . SVG Version: 1.2.0 Build 194)  -->
  <g>
    <g id="Layer_1">
      <path d="M729,227c-3.138,1.461,3.802,7.686,4,9.5.579,5.301-3.105,5.701-4,7.5-1.754-4.664-5.922-8.632-9.5-12-.066-.062-1.049,1.407-1.5,1-12.054-10.887-44.197-35.997-59.5-37-4.383-.287-4.679.58-6.5,3-.159.211.154.764,0,1-8.177-2.174-17.976,3.072-25,3,2.362-10.577-17.824-21.156-26.5-24-1.166-.382-6.1-2.331-5.5,1-7.666-4.558-15.468-8.33-24-11-13.25-4.147-31.233-7.895-45-7-3.678-1.763-22.501-3.354-25.5-2-.278.126-3.406,4.71-3.5,5-1.754,1.332-3.056.906-5,1l6-2.5c.287-3.064-.878-3.259-3.5-3.5-8.058-.741-37.764,6.929-46.5,10-6.326,2.223-9.287,3.955-15,7-6.394-2.601-31.09,18.173-32.5,17-5.856-4.872,12.371-15.582,13.5-20,48.517-34.002,144.652-32.547,194.5-2,5.752,3.525,19.643,18.597,21,19,1.272.378,10.159-4.593,13-5,33.016-4.726,65.198,18.915,86.5,41Z" style="fill: #fdad47;"/>
      <path d="M492,166c-11.739.569-22.933,3.399-34.5,5-2.822,1.954-.442,2.791-.5,5-3.533-3.517-4.83-3.351-10-2-.149-1.456,1.812-.686,2-1.5.03-.131-1.553-1.035-1-2.5,8.736-3.071,38.442-10.741,46.5-10,2.622.241,3.787.436,3.5,3.5l-6,2.5Z" style="fill: #fdb862;"/>
      <path d="M526,162c.193.092.473,3.406,1.5,4,5.67,3.279,30.051,1.381,37.5,7l-23,298c-.198-1.56-1.488-4.831-1.5-7-4.225-1.285-8.126-1.632-12.5-2,4.949-74.345,18.713-218.385,1-286.5-4.217-16.217-14.561-8.938-28.5-10.5-1.783,1.247-1.907,3.168-2.5,5-1.493-.197-1.237-4.271-1-5,.094-.29,3.222-4.874,3.5-5,2.999-1.354,21.822.237,25.5,2Z" style="fill: #ffd89e;"/>
      <path d="M571,169c-3.505,2.095-1.429,4.959-6,4-7.449-5.619-31.83-3.721-37.5-7-1.027-.594-1.307-3.908-1.5-4,13.767-.895,31.75,2.853,45,7Z" style="fill: #fdbd67;"/>
      <path d="M498,170c-5.411,16.725-8.395,64.508-9,83.5-2.196,68.918,7.741,140.401,8,209.5-5.305.552-10.639,1.824-16,2-3.251-40.765-4.678-81.775-8-122.5-4.149-50.87-17.285-117.51-16-166.5.058-2.209-2.322-3.046.5-5,11.567-1.601,22.761-4.431,34.5-5,1.944-.094,3.246.332,5-1-.237.729-.493,4.803,1,5Z" style="fill: url(#linear-gradient);"/>
      <path d="M528,462c-9.57-.805-21.39-.001-31,1-.259-69.099-10.196-140.582-8-209.5.605-18.992,3.589-66.775,9-83.5.593-1.832.717-3.753,2.5-5,13.939,1.562,24.283-5.717,28.5,10.5,17.713,68.115,3.949,212.155-1,286.5Z" style="fill: url(#linear-gradient-2);"/>
      <path d="M595,180c2.741,1.63,5.368,3.182,8,5-1.134.099-2.792,2.778-3,3.5-7.939,27.555-14.675,77.012-19,102-.528,3.051.454,9.302,0,12-.112.664-3.885,10.28-4,11-.644,4.024-.254,9.932-1,14.5-7.619,46.673-15.528,93.107-22,140-1.653,11.978-3.423,24.002-5,36-2.507-.468-6.205.204-9,0,.504-8.81,2.974-25.342,2-33l23-298c4.571.959,2.495-1.905,6-4,8.532,2.67,16.334,6.442,24,11Z" style="fill: url(#linear-gradient-3);"/>
      <path d="M448,170c-.553,1.465,1.03,2.369,1,2.5-.188.814-2.149.044-2,1.5-.893.233-11.724,5.733-12,6.5-1.068,2.965,1.521,43.326,2,50,1.545,21.516,5.209,43.136,8,64.5-2.439.83-1.792-3.416-4-1.5-2.814,2.441,8.649,64.365,10,73.5,6.51,44.029,17.034,95.301,20,139,.283,4.17-.795,8.472,1,12.5-7.088.378-2.569-7.519-3-10-.085-.486-1.928-1.527-2-2-2.269-14.939-1.322-32.397-6-46l-2,6.5c-8.974-59.901-21.383-127.365-36-186-1.548-27.468-11.063-54.195-17-81,.434-7.886,19.921-19.227,27-23,5.713-3.045,8.674-4.777,15-7Z" style="fill: #fba35a;"/>
      <path d="M457,176c-1.285,48.99,11.851,115.63,16,166.5,3.322,40.725,4.749,81.735,8,122.5,1.142,14.317,2.888,28.666,4,43,.262,3.381.741,6.652,1,10-4.195-.491-.959-9.046-2-10.5-.808-1.128-5.414-.216-7-.5-.32-.057-.672.036-1,0-5.199-47.198-13.053-94.072-20-141-3.516-23.748-7.879-47.104-11-71-2.791-21.364-6.455-42.984-8-64.5-.479-6.674-3.068-47.035-2-50,.276-.767,11.107-6.267,12-6.5,5.17-1.351,6.467-1.517,10,2Z" style="fill: #fba664;"/>
      <path d="M433,177c-7.079,3.773-26.566,15.114-27,23-2.153-.58-4.887,2.953-6,3-6.603.276-20.53-7.348-29-3-.665-1.028-.954-.946-1-1-.285-.336.472-2.792-2.5-3-4.088,2.367-10.945,2.406-15,4-4.231,1.663-9.507,7.233-12.5,9-6.258,3.694-11.164,6.489-17,11-4.484,3.466-9.938,7.116-14,11-13.206-5.512,4.572-17.898,9-24,16.376-12.613,42.314-23.766,63.5-21,3.349.437,11.834,5.424,14,5,1.233-.241,13.939-13.804,18.5-17-1.129,4.418-19.356,15.128-13.5,20,1.41,1.173,26.106-19.601,32.5-17Z" style="fill: #f78632;"/>
      <path d="M627,203c-.329-.003-.677.037-1,0-.463-.053-5.729-1.837-6-2-2.524-1.517-12.371-12.804-17-16-2.632-1.818-5.259-3.37-8-5-.6-3.331,4.334-1.382,5.5-1,8.676,2.844,28.862,13.423,26.5,24Z" style="fill: #fca04a;"/>
      <path d="M620,201c-9.813,34.812-17.088,70.205-25,105.5-.462,2.062-4.514,10.752-5,13-.235,1.089.33,8.404,0,10-.043.208-2.959,2.792-3,3-.66,3.391-.432,12.201-1,16-.955,6.382-5.429,15.597-2,21.5-.658,3.315-1.356,6.683-2,10l-9-2c2.052-15.902,5.959-34.624,3-50,.746-4.568.356-10.476,1-14.5.115-.72,3.888-10.336,4-11,.454-2.698-.528-8.949,0-12,4.325-24.988,11.061-74.445,19-102,.208-.722,1.866-3.401,3-3.5,4.629,3.196,14.476,14.483,17,16Z" style="fill: #fdb567;"/>
      <path d="M370,199l-18,6.5c-.275,1.7,13.361,26.929,15,31,34.112,84.741,62.89,180.925,86,269.5-4.136,3.078-8.619-9.393-10-12.5-21.957-49.408-37.827-101.879-62-150.5l-41-134c2.993-1.767,8.269-7.337,12.5-9,4.055-1.594,10.912-1.633,15-4,2.972.208,2.215,2.664,2.5,3Z" style="fill: #fecf90;"/>
      <path d="M718,233c-24.764,43.029-45.978,88.55-66,134-16.581,37.64-29.263,71.313-43,110-4.736,13.337-9.48,26.567-14,40-.428-6.839-16.284-5.871-23-8,.71-2.7,1.15-5.816,2-9,26.523-99.293,60.046-197.173,98-292.5.238-7.511-14.703-6.017-20-8.5,1.821-2.42,2.117-3.287,6.5-3,15.303,1.003,47.446,26.113,59.5,37Z" style="fill: url(#linear-gradient-4);"/>
      <path d="M371,200c8.797,13.607,21.217,49.036,27,65.5,30.389,86.512,48.581,185.162,66,275.5,1.413,7.328,3.649,14.743,5,22-1.697,1.646-2.61-.231-3-1.5-5.174-16.83-8.437-38.012-13-55.5-23.11-88.575-51.888-184.759-86-269.5-1.639-4.071-15.275-29.3-15-31l18-6.5c.046.054.335-.028,1,1Z" style="fill: #fef1c4;"/>
      <path d="M400,203c7.036,26.041,16.48,51.847,23,78,14.617,58.635,27.026,126.099,36,186,3.038,20.276,6.916,43.699,8,64,.265,4.957,3.822,8.617-3,10-17.419-90.338-35.611-188.988-66-275.5-5.783-16.464-18.203-51.893-27-65.5,8.47-4.348,22.397,3.276,29,3Z" style="fill: #fec27a;"/>
      <path d="M574,500c-4.714.925-.339,8.785-7,6,7.731-37.633,16.054-75.635,25-113,10.946-45.718,36.221-156.647,60-193,.154-.236-.159-.789,0-1,5.297,2.483,20.238.989,20,8.5-37.954,95.327-71.477,193.207-98,292.5Z" style="fill: #fef8cd;"/>
      <path d="M406,200c5.937,26.805,15.452,53.532,17,81-6.52-26.153-15.964-51.959-23-78,1.113-.047,3.847-3.58,6-3Z" style="fill: #f88a43;"/>
      <path d="M652,200c-23.779,36.353-49.054,147.282-60,193l-12-3c.626-3.302,1.356-6.683,2-10s1.342-6.685,2-10c11.204-56.439,25.598-111.883,42-167,.323.037.671-.003,1,0,7.024.072,16.823-5.174,25-3Z" style="fill: #fed487;"/>
      <path d="M626,203c-16.402,55.117-30.796,110.561-42,167-3.429-5.903,1.045-15.118,2-21.5.568-3.799.34-12.609,1-16,.041-.208,2.957-2.792,3-3,.33-1.596-.235-8.911,0-10,.486-2.248,4.538-10.938,5-13,7.912-35.295,15.187-70.688,25-105.5.271.163,5.537,1.947,6,2Z" style="fill: #fca756;"/>
      <path d="M318,207c-4.428,6.102-22.206,18.488-9,24-.12.115-.865,1.865-1,2-5.157,5.163-5.392,5.932-9,11-.83,1.166-4.096,2.882-5,5-.321-.718-.7-1.272-1-2-1.372-3.33-.655-7.565-4-11,4.223-2.047,20.727-22.628,29-29Z" style="fill: #ef682e;"/>
      <path d="M381,343c-10.696-21.513-25.155-41.425-35-63.5-8.64-19.373-13.312-41.091-23-59.5,5.836-4.511,10.742-7.306,17-11l41,134Z" style="fill: #fecc75;"/>
      <path d="M381,343c24.173,48.621,40.043,101.092,62,150.5,1.381,3.107,5.864,15.578,10,12.5,4.563,17.488,7.826,38.67,13,55.5.39,1.269,1.303,3.146,3,1.5,10.514,56.48,15.311,111.999,24,168.5.187,1.215.566,5.021-1,5.5-.828-.901-1.188-2.89-2-4-9.355-64.455-32.119-126.169-52-188-14.681-45.659-27.65-92.151-46-136.5-24.861-60.086-61.218-114.544-84-175.5.135-.135.88-1.885,1-2,4.062-3.884,9.516-7.534,14-11,9.688,18.409,14.36,40.127,23,59.5,9.845,22.075,24.304,41.987,35,63.5Z" style="fill: #fcb45e;"/>
      <path d="M729,227c7.61,7.89,2.907,7.331,14,11-3.411,1.639-4.68,7.106-6,9-26.914,38.617-47.767,80.486-68,123l-5-2c20.234-42.715,44.27-82.336,65-124,.895-1.799,4.579-2.199,4-7.5-.198-1.814-7.138-8.039-4-9.5Z" style="fill: #faa354;"/>
      <path d="M729,244c-20.73,41.664-44.766,81.285-65,124-.526,1.111-1.792,2.557-2,3l-10-4c20.022-45.45,41.236-90.971,66-134,.451.407,1.434-1.062,1.5-1,3.578,3.368,7.746,7.336,9.5,12Z" style="fill: #fdba6b;"/>
      <path d="M438,545c-2.421-3.365-1.665-1.162-4,1-13.777-42.518-30.229-84.038-48-125-26.189-60.367-56.216-118.905-87-177,3.608-5.068,3.843-5.837,9-11,22.782,60.956,59.139,115.414,84,175.5,18.35,44.349,31.319,90.841,46,136.5Z" style="fill: #f5894d;"/>
      <path d="M293,247c-8.464-.942-15.558,3.103-23,6-.29.113-.717-.119-1,0l-8-8c9.329-4.17,20.929-5.572,28-9,3.345,3.435,2.628,7.67,4,11Z" style="fill: #f77a36;"/>
      <path d="M793,266c-3.651,1.37-4.334,5.569-6,8l-12-9.5c-.279-2.742,5.795-5.02,6-6,.443-2.116-21.102-19.549-23-4.5-.266-.134-.73.131-1,0-6.53-3.161-12.572-6.334-20-7,1.32-1.894,2.589-7.361,6-9,25,8.267,30.476,9.115,50,28Z" style="fill: #febb6b;"/>
      <path d="M386,421c-2.779-.884-3.563-.959-5,2-26.07-59.797-61.151-116.162-87-174,.904-2.118,4.17-3.834,5-5,30.784,58.095,60.811,116.633,87,177Z" style="fill: #f27038;"/>
      <path d="M261,245l8,8c-5.741,2.409-11.253,4.866-16,9h-1c-2.597-3.006-7.616-4.192-6-8,5.822-4.132,8.279-5.996,15-9Z" style="fill: #fe9f4e;"/>
      <path d="M293,247c.3.728.679,1.282,1,2,25.849,57.838,60.93,114.203,87,174,8.592,19.707,16.111,39.996,24,60-3.233-2.192-7.889.224-11,2-13.116-31.328-27.436-62.323-42-93-23.74-50.003-47.752-95.072-82-139,7.442-2.897,14.536-6.942,23-6Z" style="fill: #fdb86e;"/>
      <path d="M757,254c-24.667,31.904-49.348,64.591-68,100.5-5.779,11.125-9.718,23.21-15,34.5-.06.128-1.94,1.872-2,2l-9-6c2.242-4.803,3.724-10.217,6-15,20.233-42.514,41.086-84.383,68-123,7.428.666,13.47,3.839,20,7Z" style="fill: #fed692;"/>
      <path d="M787,274c-.155.227.156.774,0,1-30.246,43.747-56.214,83.52-84,129-6.332-.547-15.242-11.151-20-5.5-8.884,10.552-35.195,72.654-43,89.5-4.947,10.676-10.23,21.223-15,32-23.586,53.285-48.95,112.621-67,167,2.861-5.202,3.188-11.575,5-17,11.348-33.968,22.735-68.355,35-102,9.887-27.123,20.899-53.399,32-80,13.246-31.741,27.533-65.92,42-97,.06-.128,1.94-1.872,2-2-.224,2.712,9.9,6.139,10.5,6,2.398-.555,15.884-30.79,18.5-35.5,19.094-34.375,39.436-69.564,70-95,.346-2.197-12.692-9.341-15-10.5,1.898-15.049,23.443,2.384,23,4.5-.205.98-6.279,3.258-6,6l12,9.5Z" style="fill: #fee3af;"/>
      <path d="M269,253c.283-.119.71.113,1,0,34.248,43.928,58.26,88.997,82,139-3.588-2.137-9.231,1.034-12,4-.666-1.273-.967-.937-1-1-24.588-46.955-46.45-96.188-86-133,4.747-4.134,10.259-6.591,16-9Z" style="fill: #feeabb;"/>
      <path d="M246,254c-1.616,3.808,3.403,4.994,6,8-3.719,2.938-7.376,5.941-11,9-5.002,4.222-14.331,12.931-18,18l-7-4c8.195-12.701,17.636-22.226,30-31Z" style="fill: #f67838;"/>
      <path d="M758,254c2.308,1.159,15.346,8.303,15,10.5-30.564,25.436-50.906,60.625-70,95-2.616,4.71-16.102,34.945-18.5,35.5-.6.139-10.724-3.288-10.5-6,5.282-11.29,9.221-23.375,15-34.5,18.652-35.909,43.333-68.596,68-100.5.27.131.734-.134,1,0Z" style="fill: #fef6cc;"/>
      <path d="M339,395c-5.485,2.681-10.798,5.824-16,9-.243.148-.758-.149-1,0l-81-133c3.624-3.059,7.281-6.062,11-9h1c39.55,36.812,61.412,86.045,86,133Z" style="fill: #fecd93;"/>
      <path d="M807,282l-4,10.5,8,11.5c-.115.575-.066,1.393,0,2l-86,110.5-11-5.5c.15-.24-.15-.76,0-1,26.046-41.606,54.147-81.762,88-117.5.555-3.266-11.905-15.178-15-17.5.156-.226-.155-.773,0-1,1.666-2.431,2.349-6.63,6-8,5.695,5.509,9.585,9.2,14,16Z" style="fill: #fdb467;"/>
      <path d="M322,404c-3.769,2.324-7.286,5.551-11,8-.098-.151-2.902-1.849-3-2-26.619-40.822-54.739-80.6-86-118,.101-.15.223-1.927,1-3,3.669-5.069,12.998-13.778,18-18l81,133Z" style="fill: #febd73;"/>
      <path d="M714,410l-11-5c.148-.243-.148-.757,0-1,27.786-45.48,53.754-85.253,84-129,3.095,2.322,15.555,14.234,15,17.5-33.853,35.738-61.954,75.894-88,117.5Z" style="fill: #fed993;"/>
      <path d="M807,282c1.466,2.258,2.498,2.774,4,6,6.508,13.979,1.418,8.932,0,16l-8-11.5,4-10.5Z" style="fill: #fda24b;"/>
      <path d="M223,289c-.777,1.073-.899,2.85-1,3-2.49,3.685-3.099,5.194-5,9-2.79,5.586-9.585,15.905-8,22.5.273,1.135,13.771,14.201,16,17,25.471,31.985,51.146,64.053,76,96.5l-6,4c-1.605-1.756-2.999-3.619-5-5-25.077-36.7-54.511-70.211-85.5-102-6.421,1.483-11.13,5.909-16.5,9-5.241,3.017-9.158,5.316-14,9-3.595,2.736-7.777,5.892-11,9-7.571,7.3-14.953,14.519-18,25-1.224,4.21-1.845,7.585-2,12-11.036.427-5.526-9.95-3-16.5,4.926-12.772,14.889-21.855,23-32.5,5.051-4.813,9.864-9.817,15.5-14,3.738-2.774,23.888-13.215,24.5-14.5.904-1.897.821-11.744,2-15,2.988-8.251,6.366-13.319,11-20.5l7,4Z" style="fill: #e95429;"/>
      <path d="M831,326l-9,8c-.637.08-1.529-.156-2,0-3.984-3.205-3.305-6.048-4-10-.527-2.993-.384-7.029-1-10.5-.354-1.992-3.954-7.077-4-7.5-.066-.607-.115-1.425,0-2,1.418-7.068,6.508-2.021,0-16,9.404,5.129,8.707,29.939,11,33.5.445.691,6.737,3.077,9,4.5Z" style="fill: #f68139;"/>
      <path d="M308,410c1.438,2.156-4.125,5.987-4.5,6-7.203.245-72.438-104.43-86.5-115,1.901-3.806,2.51-5.315,5-9,31.261,37.4,59.381,77.178,86,118Z" style="fill: #f58a50;"/>
      <path d="M445,295c3.121,23.896,7.484,47.252,11,71l-5,1c-1.351-9.135-12.814-71.059-10-73.5,2.208-1.916,1.561,2.33,4,1.5Z" style="fill: #f98d4e;"/>
      <path d="M308,410c.098.151,2.902,1.849,3,2,22.797,35.19,48.598,78.874,68,116,24.238,46.379,48.639,100.645,69,149,18.036,42.835,35.614,87.118,48,132l-1.5,4-1.5-2c-10.306-42.515-38.641-105.422-57-146.5-38.593-86.353-77.682-152.671-135-227.5-24.854-32.447-50.529-64.515-76-96.5-2.229-2.799-15.727-15.865-16-17-1.585-6.595,5.21-16.914,8-22.5,14.062,10.57,79.297,115.245,86.5,115,.375-.013,5.938-3.844,4.5-6Z" style="fill: #f07441;"/>
      <path d="M811,306c.046.423,3.646,5.508,4,7.5.616,3.471.473,7.507,1,10.5-29.813,32.101-58.006,66.396-85,101-21.579,27.663-45.461,57.332-64,87l-10-3c17.633-33.45,37-65.962,57-98l11,5.5,86-110.5Z" style="fill: #f89850;"/>
      <path d="M820,334c-2.765.917-33.583,33.609-38,38.5-15.95,17.661-30.086,36.997-45,55.5-.417-1.535-4.106-3.54-6-3,26.994-34.604,55.187-68.899,85-101,.695,3.952.016,6.795,4,10Z" style="fill: #f88a41;"/>
      <path d="M847,336c9.079,11.332,22.603,19.657,30,32.5,2.515,4.368,7.308,11.489,1,13.5-3.769-8.839-12.252-17.332-19-24-2.905-2.87-4.797-4.478-8-7-4.008-3.155-7.491-6.44-12-9-2.633-1.495-15.031-8.018-17-8l9-8c5.453,3.429,10.73,6.091,16,10Z" style="fill: #f9963e;"/>
      <path d="M573,378c-3.856,29.875-11.053,59.313-15,89-.171,1.288.163,2.709,0,4l-4-3c6.472-46.893,14.381-93.327,22-140,2.959,15.376-.948,34.098-3,50Z" style="fill: #f78549;"/>
      <path d="M290,436c-4.267-2.944-4.109-4.8-8,1-27.47-34.963-59.318-66.247-94-94,5.37-3.091,10.079-7.517,16.5-9,30.989,31.789,60.423,65.3,85.5,102Z" style="fill: #fcb769;"/>
      <path d="M822,334c1.969-.018,14.367,6.505,17,8-33.97,26.254-67.319,55.171-94,89-3.264,2.335-5.588.379-8-2,.038-.263.067-.754,0-1,14.914-18.503,29.05-37.839,45-55.5,4.417-4.891,35.235-37.583,38-38.5.471-.156,1.363.08,2,0Z" style="fill: #fed37e;"/>
      <path d="M891,425c-1.467,4.349-8.13.334-5,7-1.772-.809-1.991-2.357-4.5-2-43.08,27.643-83.958,59.173-121.5,94l-4-7c12.499-11.41,25.149-22.359,38.5-33,21.17-16.872,64.405-42.023,81-59,5.575-5.703,4.858-9.738,5.5-17,1.101-12.451,1.312-12.423-3-24-.179-.481.184-1.569,0-2,6.308-2.011,1.515-9.132-1-13.5-7.397-12.843-20.921-21.168-30-32.5,18.358,13.619,43.122,39.557,45,63.5.668,8.52-3.964,16.978-1,25.5Z" style="fill: #ed602d;"/>
      <path d="M851,351c-25.335,23.857-52.594,46.681-76,72.5-6.909,7.621-12.508,16.784-19,24.5-.072.086-1.928.914-2,1l-11-13c.21-.272,1.799-4.745,2-5,26.681-33.829,60.03-62.746,94-89,4.509,2.56,7.992,5.845,12,9Z" style="fill: #fef2bf;"/>
      <path d="M188,343c34.682,27.753,66.53,59.037,94,94,11.757,14.964,24.167,33.179,35,49,38.203,55.794,75.354,119.213,105,180-30.556-53.652-65.642-103.956-103-153-44.243-58.084-90.152-112.456-145-161,4.842-3.684,8.759-5.983,14-9Z" style="fill: #fdddae;"/>
      <path d="M143,398c-.069,1.956-.117,4.05,0,6,.431,7.176,2.43,14.325,5,21-1.291,3.234-4.685,4.713-3,8-7.387-3.222-9.726,2.505-15,8-5.502,5.733-5.489,5.762-9,13-1.871,3.857-3.86,7.856-5,12-1.985,7.217-2.317,11.846-2,19,.255,5.762,13.625,44.137,16.5,47,2.203,2.193,47.921,22.494,56,27,81.513,45.465,142.094,92.37,202.5,164,12.033,14.268,24.556,29.79,33.5,46-12.913-16.518-26.452-32.452-40.5-48-33.193-36.737-69.465-70.677-109.5-100-45.638-33.427-94.711-57.503-146-81-3.617.027-10.514,16.607-11.5,20-1.354,4.659-2.763,11.214-3,16-.44,8.878.521,20.446,3,29,1.078,3.721,5.671,15.146,9,17,.057.645-.121,1.379,0,2-11.544-6.076-20.535-13.44-22-25.5-1.94-15.966,4.311-32.511,10-47,1.649-4.2,10.756-17.548,11-20,.451-4.529-3.175-7.502-5-11-.576-1.105,1.581-1.902,1-3-.817-1.543-2.678,1.663-4-1-1.65-3.324-2.764-6.97-5-10l-5-17.5c-.928-17.492,4.403-35.864,14-50.5,2.126-3.243,13.713-14.015,14-15,1.616-5.547-1.504-16.767-1-22,2.018-20.936,16.57-38.749,31-52.5-8.111,10.645-18.074,19.728-23,32.5-2.526,6.55-8.036,16.927,3,16.5Z" style="fill: #d53523;"/>
      <path d="M859,358l-93,99-10-9c6.492-7.716,12.091-16.879,19-24.5,23.406-25.819,50.665-48.643,76-72.5,3.203,2.522,5.095,4.13,8,7Z" style="fill: #fedb96;"/>
      <path d="M319,513l-1.5,5c-34.737-22.458-58.312-58.412-86.5-88.5-21.967-23.448-46.241-44.835-68-68.5,3.223-3.108,7.405-6.264,11-9,54.848,48.544,100.757,102.916,145,161Z" style="fill: #febb7f;"/>
      <path d="M878,382c.184.431-.179,1.519,0,2l-100,87c-.198-.825-11.546-10.434-12-12-.147-.509.074-1.358,0-2l93-99c6.748,6.668,15.231,15.161,19,24Z" style="fill: #fed279;"/>
      <path d="M319,513c37.358,49.044,72.444,99.348,103,153,23.014,47.189,44.644,99.255,63,148.5.486,1.305,2.309,6.384,1,7.5-2.233-4.684-4.768-9.325-7-14-62.59-131.1-130.414-231.939-234-334-31.64-31.174-63.715-62.05-100-88,3.047-10.481,10.429-17.7,18-25,21.759,23.665,46.033,45.052,68,68.5,28.188,30.088,51.763,66.042,86.5,88.5l1.5-5Z" style="fill: #fcac58;"/>
      <path d="M456,366c6.947,46.928,14.801,93.802,20,141-1.12-.123-2.945-1.8-5-1-2.966-43.699-13.49-94.971-20-139l5-1Z" style="fill: #f06d40;"/>
      <path d="M662,371c-16.88,35.87-32.51,73.079-47,110l-6-4c13.737-38.687,26.419-72.36,43-110l10,4Z" style="fill: #f89754;"/>
      <path d="M669,370c-2.276,4.783-3.758,10.197-6,15-14.707,31.503-28.89,62.758-42,95-5.325,13.096-11.177,25.613-16,39h-5c4.555-12.804,10.038-25.358,15-38,14.49-36.921,30.12-74.13,47-110,.208-.443,1.474-1.889,2-3l5,2Z" style="fill: #f37c3d;"/>
      <path d="M582,380c-.644,3.317-1.374,6.698-2,10-6.705,35.343-12.788,71.4-18,107h-3c1.232-8.357,1.286-17.053,1-25.5-.062-1.829,1.009-4.935-2-4.5,3.947-29.687,11.144-59.125,15-89l9,2Z" style="fill: #f89658;"/>
      <path d="M881,408l-91.5,75-11.5-11c-.056-.323.075-.688,0-1l100-87c4.312,11.577,4.101,11.549,3,24Z" style="fill: #faa559;"/>
      <path d="M672,391c-14.467,31.08-28.754,65.259-42,97,.604-7.382-6.775-2.231-9-8,13.11-32.242,27.293-63.497,42-95l9,6Z" style="fill: #fcbd64;"/>
      <path d="M245,474c-3.52.302-9.085,9.252-11.5,9-5.974-.623-74.459-75.237-90.5-79-.117-1.95-.069-4.044,0-6,.155-4.415.776-7.79,2-12,36.285,25.95,68.36,56.826,100,88Z" style="fill: #f27d4b;"/>
      <path d="M592,393c-8.946,37.365-17.269,75.367-25,113-4.912,23.914-9.651,47.976-14,72,1.604-27.051,5.075-54.191,9-81,5.212-35.6,11.295-71.657,18-107l12,3Z" style="fill: #fcb46a;"/>
      <path d="M352,392c14.564,30.677,28.884,61.672,42,93,4.585,10.951,9.589,22.044,14,33,10.692,26.557,21.547,54.003,31,81,5.871,16.769,10.503,34.115,16,51-17.782-40.382-31.997-82.695-50-123-6.106-13.67-13.641-26.55-20-40-14.468-30.599-29.32-61.008-45-91,2.769-2.966,8.412-6.137,12-4Z" style="fill: #fddaab;"/>
      <path d="M340,396c15.68,29.992,30.532,60.401,45,91l-14,3.5-48-86.5c5.202-3.176,10.515-6.319,16-9,.033.063.334-.273,1,1Z" style="fill: #fdb678;"/>
      <path d="M703,404c-.148.243.148.757,0,1-6.224,10.191-49.367,83.68-54.5,85-1,.257-6.6-2.52-8.5-2,7.805-16.846,34.116-78.948,43-89.5,4.758-5.651,13.668,4.953,20,5.5Z" style="fill: #fdca81;"/>
      <path d="M245,474c103.586,102.061,171.41,202.9,234,334-2,1.663-2.279-.238-3-1.5-46.219-80.937-89.08-156.433-150-228-51.982-61.067-113.729-106.248-178-153.5-2.57-6.675-4.569-13.824-5-21,16.041,3.763,84.526,78.377,90.5,79,2.415.252,7.98-8.698,11.5-9Z" style="fill: #eb673f;"/>
      <path d="M385,487c6.359,13.45,13.894,26.33,20,40-6.88-12.924-14.637-.009-26,1-19.402-37.126-45.203-80.81-68-116,3.714-2.449,7.231-5.676,11-8,.242-.149.757.148,1,0l48,86.5,14-3.5Z" style="fill: #fba853;"/>
      <path d="M714,410c-.15.24.15.76,0,1-20,32.038-39.367,64.55-57,98-3.188,6.048-6.906,11.947-10,18-2.292-5.745-16.209-3.352-22-7,4.77-10.777,10.053-21.324,15-32,1.9-.52,7.5,2.257,8.5,2,5.133-1.32,48.276-74.809,54.5-85l11,5Z" style="fill: #fcba5b;"/>
      <path d="M881,408c-.642,7.262.075,11.297-5.5,17-16.595,16.977-59.83,42.128-81,59-13.351,10.641-26.001,21.59-38.5,33-5.207,4.753-10.975,9.045-16,14-2.89-3.17-9.257-4.982-9-10,15.037-16.894,30.372-33.633,47-49l11.5,11,91.5-75Z" style="fill: #f58646;"/>
      <path d="M386,421c17.771,40.962,34.223,82.482,48,125,11.884,36.677,22.676,74.341,33,111.5,6.81,24.511,8.059,55.09,23,75.5.812,1.11,1.172,3.099,2,4,.368.4.649.652,1,1,2.675,25.953,7.47,51.681,11,77.5,1.758,12.858,1.173,38.574,6,50,4.163,9.854,2.981-3.349,3-4.5l3-1c-.054,1.47-1.79,17.413,1,16-.202.111-2.115,2.742-3.5,3-.419-4.554-3.547-6.077-5.5-10-2.678-5.38-3.198-11.456-5-16.5-.141-.395-3.476,1.457-5-5-2.14-9.068-2.587-26.547-5-36.5l1.5,2,1.5-4c.42,1.523,5.377,25.74,7,22.5-9.326-36.005-13.677-74.152-24-110-2.585-8.976-7.323-17.496-10-26.5,1.684-1.591.433-7.485,0-9.5-6.069-28.219-15.803-59.605-24-87.5-8.295-28.227-16.926-55.357-27-83-3.939-10.807-8.792-21.331-13-32-7.889-20.004-15.408-40.293-24-60,1.437-2.959,2.221-2.884,5-2Z" style="fill: #e5502f;"/>
      <path d="M479,808c2.232,4.675,4.767,9.316,7,14,3.063,6.424,5.727,13.148,9,19.5,1.466,1.087,1.075-2.331,1-3-.915-8.11-13.386-40.05-17-50-39.128-107.743-85.558-214.488-154-306.5-9.38-12.61-19.629-29.652-30-41l6-4c57.318,74.829,96.407,141.147,135,227.5,18.359,41.078,46.694,103.985,57,146.5,2.413,9.953,2.86,27.432,5,36.5,1.524,6.457,4.859,4.605,5,5,1.802,5.044,2.322,11.12,5,16.5l-2,1c-8.672-20.78-28.561-47.316-40-68-62.176-112.421-105.606-185.634-201-275-26.686-25-88.317-80.181-120-94-1.685-3.287,1.709-4.766,3-8,64.271,47.252,126.018,92.433,178,153.5,60.92,71.567,103.781,147.063,150,228,.721,1.262,1,3.163,3,1.5Z" style="fill: #df3c25;"/>
      <path d="M737,428c.067.246.038.737,0,1-.534,3.671-39.197,50.687-45,59-7.806,11.183-14.69,22.526-22,34-21.921,34.408-42.774,69.945-60,107l-2-2c18.284-38.895,36.157-78.445,59-115,18.539-29.668,42.421-59.337,64-87,1.894-.54,5.583,1.465,6,3Z" style="fill: #ea5c2c;"/>
      <path d="M913,457c.844,6.17.184,14.124,0,20.5-.053,1.824,1.002,4.937-2,4.5-.058-6.6-.479-9.689-2-16-1.019-4.23-2.557-6.443-4-10-2.619-6.457-3.158-9.367-8-15-2.315-2.693-7.884-7.578-11-9-3.13-6.666,3.533-2.651,5-7,10.82,5.682,20.405,20.335,22,32Z" style="fill: #f0722f;"/>
      <path d="M745,431c-.201.255-1.79,4.728-2,5-14.516,18.768-28.858,38.261-42,58l-9-6c5.803-8.313,44.466-55.329,45-59,2.412,2.379,4.736,4.335,8,2Z" style="fill: #faa95c;"/>
      <path d="M886,432c3.116,1.422,8.685,6.307,11,9-53.596,28.761-103.185,69.899-147,112l-6-13c5.322-5.195,10.567-10.959,16-16,37.542-34.827,78.42-66.357,121.5-94,2.509-.357,2.728,1.191,4.5,2Z" style="fill: #f99f55;"/>
      <path d="M145,433c31.683,13.819,93.314,69,120,94l-9,9c-38.786-35.633-81.175-67.409-126-95,5.274-5.495,7.613-11.222,15-8Z" style="fill: #f48250;"/>
      <path d="M290,436c2.001,1.381,3.395,3.244,5,5,10.371,11.348,20.62,28.39,30,41-2.177-1.636-5.599,2.293-8,4-10.833-15.821-23.243-34.036-35-49,3.891-5.8,3.733-3.944,8-1Z" style="fill: #f8935c;"/>
      <path d="M754,449c-17.787,21.254-34.492,43.734-51,66-34.838,46.99-67.86,95.217-97,146,23.172-46.202,46.469-90.171,74-134,6.872-10.941,13.85-22.261,21-33,13.142-19.739,27.484-39.232,42-58l11,13Z" style="fill: #fde1b0;"/>
      <path d="M256,536c7.346,6.749,13.846,15.01,21,22-4.214.656-6.806,6.156-7,10-30.478-27.169-77.493-65.898-113-85-1.346-.724-2.661-1.323-4-2l-32-27c3.511-7.238,3.498-7.267,9-13,44.825,27.591,87.214,59.367,126,95Z" style="fill: #fed6a7;"/>
      <path d="M897,441c4.842,5.633,5.381,8.543,8,15-13.62,5.758-24.621,18.619-36,27-1.103.812-1.821,1.869-2,2-37.681,27.479-73.752,47.425-110,79l-8-9c.122-.118.88-1.885,1-2,43.815-42.101,93.404-83.239,147-112Z" style="fill: #fee5ae;"/>
      <path d="M766,457c.074.642-.147,1.491,0,2l-56,59c-1.185-.756-5.348-2.141-7-3,16.508-22.266,33.213-44.746,51-66,.072-.086,1.928-.914,2-1l10,9Z" style="fill: #fec57d;"/>
      <path d="M153,481c-11.838-5.988-25.012-9.333-37-15,1.14-4.144,3.129-8.143,5-12l32,27Z" style="fill: #fdbd82;"/>
      <path d="M905,456c1.443,3.557,2.981,5.77,4,10l-40,17c11.379-8.381,22.38-21.242,36-27Z" style="fill: #ffd087;"/>
      <path d="M922,577c-2.667,6.184.577,25.091-1,29.5-.688,1.923-3.522,1.177-4,2-2.802,4.821-6.282,12.914-13,12.5,2.345-4.59,7.1-17.068,8-22,1.062-5.82,1.44-17.055,1-23-.333-4.499-1.73-9.627-3-14-1.122-3.864-7.988-20.893-12.5-21-2.462-.059-39.392,17.381-45,20-85.131,39.76-142.994,88.389-207.5,155-16.989,17.543-33.665,35.846-52,52,13.463-15.586,27.949-30.916,42-46,75.819-81.393,153.124-147.675,257.5-191,2.896-4.163,4.196-9.607,6.5-14,5.274-10.056,11.067-20.396,12-32,.146-1.816.012-1.698,0-3,3.002.437,1.947-2.676,2-4.5.184-6.376.844-14.33,0-20.5,8.628,13.562,7.475,36.371,2,51.5-2.576,7.119-13.091,18.334-12,25,.211,1.289,10.287,15.921,12,20,3.088,7.354,5.6,15.61,7,23.5Z" style="fill: #df4b28;"/>
      <path d="M778,471c.075.312-.056.677,0,1-16.628,15.367-31.963,32.106-47,49-1.678,1.886-4.34,4.107-6,6-5.729-.727-10.654-6.228-15-9l56-59c.454,1.566,11.802,11.175,12,12Z" style="fill: #fdbc60;"/>
      <path d="M471,506c2.055-.8,3.88.877,5,1,.328.036.68-.057,1,0l15,171c-5.453-47.862-14.472-95.466-19-143.5l-6-3.5c-1.084-20.301-4.962-43.724-8-64l2-6.5c4.678,13.603,3.731,31.061,6,46,.072.473,1.915,1.514,2,2,.431,2.481-4.088,10.378,3,10-1.795-4.028-.717-8.33-1-12.5Z" style="fill: #e14827;"/>
      <path d="M528,462c-.774,11.623.776,25.863-3,35.5-.493,1.258.748,4.594-.5,5.5-1.083.787-6.862-1.804-6.5,2-7.158.832-12.801,3.937-19,4-.752.008-9.422-4.532-14-1-1.112-14.334-2.858-28.683-4-43,5.361-.176,10.695-1.448,16-2,9.61-1.001,21.43-1.805,31-1Z" style="fill: #fdb581;"/>
      <path d="M542,471c.974,7.658-1.496,24.19-2,33-9.933-.724-12.483-.106-22,1-.362-3.804,5.417-1.213,6.5-2,1.248-.906.007-4.242.5-5.5,3.776-9.637,2.226-23.877,3-35.5,4.374.368,8.275.715,12.5,2,.012,2.169,1.302,5.44,1.5,7Z" style="fill: #fdad70;"/>
      <path d="M153,481c1.339.677,2.654,1.276,4,2l-19,16c-7.771-4.918-16.301-8.93-24-14-.317-7.154.015-11.783,2-19,11.988,5.667,25.162,9.012,37,15Z" style="fill: #fa9e4e;"/>
      <path d="M909,466c1.521,6.311,1.942,9.4,2,16,.012,1.302.146,1.184,0,3-8.448,4.421-16.789,9.163-25,14-2.283-6.185-13.194-11.119-19-14,.179-.131.897-1.188,2-2l40-17Z" style="fill: #fcb256;"/>
      <path d="M559,497c-.114.775-1.7,15.548-5,6.5-.561-1.538,3.454-28.183,4-32.5.163-1.291-.171-2.712,0-4,3.009-.435,1.938,2.671,2,4.5.286,8.447.232,17.143-1,25.5Z" style="fill: #faa860;"/>
      <path d="M558,471c-.546,4.317-4.561,30.962-4,32.5,3.3,9.048,4.886-5.725,5-6.5h3c-3.925,26.809-7.396,53.949-9,81-1.836,10.142-5.381,20.988-7,31-6.316,39.055-10.381,81.908-15,121.5-.155,1.331-1.566,9.41,1,9.5-1.491,6.914-1.545,14.593-4.5,21l1.5-19.5c-.43-.808-3.007,1.164-4,1.5-1.018-10.917.624-22.124,1-33,2.88,1.983,1.944-.672,2-2.5.48-15.586,1.998-35.082,4-50.5,4.297-33.096,13.263-64.978,17-98.5,1.995-17.891,3.23-36.063,4-54-.602-1.012-2.902-.295-4-.5,1.577-11.998,3.347-24.022,5-36l4,3Z" style="fill: #ed6d42;"/>
      <path d="M615,481c-4.962,12.642-10.445,25.196-15,38-23.551,66.21-35.791,132.755-56,198.5-1.831,5.958-4.595,16.3-11,18.5,16.822-75.53,37.381-145.833,62-219,4.52-13.433,9.264-26.663,14-40l6,4Z" style="fill: #ed7046;"/>
      <path d="M630,488c-11.101,26.601-22.113,52.877-32,80l-8-4c4.722-15.167,9.617-30.058,15-45,4.823-13.387,10.675-25.904,16-39,2.225,5.769,9.604.618,9,8Z" style="fill: #f7a14a;"/>
      <path d="M325,482c68.442,92.012,114.872,198.757,154,306.5,3.614,9.95,16.085,41.89,17,50,.075.669.466,4.087-1,3-3.273-6.352-5.937-13.076-9-19.5,1.309-1.116-.514-6.195-1-7.5-18.356-49.245-39.986-101.311-63-148.5-29.646-60.787-66.797-124.206-105-180,2.401-1.707,5.823-5.636,8-4Z" style="fill: #f27e50;"/>
      <path d="M405,483c4.208,10.669,9.061,21.193,13,32l-10,3c-4.411-10.956-9.415-22.049-14-33,3.111-1.776,7.767-4.192,11-2Z" style="fill: #f8a045;"/>
      <path d="M270,568c35.289,31.458,66.066,68.447,103,98,13.817,18.341,26.236,36.944,39,56l-8,3c-.824-1.025-4.158-2.967-5-4-70.413-86.338-166.9-162.44-261-222l19-16c35.507,19.102,82.522,57.831,113,85Z" style="fill: #fcaa72;"/>
      <path d="M138,499c94.1,59.56,190.587,135.662,261,222l-10,2c-60.406-71.63-120.987-118.535-202.5-164-8.079-4.506-53.797-24.807-56-27-2.875-2.863-16.245-41.238-16.5-47,7.699,5.07,16.229,9.082,24,14Z" style="fill: #eb633e;"/>
      <path d="M867,485c5.806,2.881,16.717,7.815,19,14-25.463,14.999-49.204,31.637-73,49-16.064,11.722-32.461,23.615-48,36l-10-17c.395-.347,1.609-2.659,2-3,36.248-31.575,72.319-51.521,110-79Z" style="fill: #febc79;"/>
      <path d="M899,517l-80.5,40-5.5-9c23.796-17.363,47.537-34.001,73-49,8.211-4.837,16.552-9.579,25-14-.933,11.604-6.726,21.944-12,32Z" style="fill: #f38447;"/>
      <path d="M124,624c1.783,9.148,34.036,36.696,43,40,3.115,5.727.923,6.36,2,11,.331,1.427-.345,3.605,0,5,6.101,24.682,28.193,29.142,49,38-.281,6.352,3.002,3.73,3.5,4,28.192,15.3,59.942,23.892,88,36,6.079,2.623,39.026,15.489,42,18,5.93,5.007,3.807,8.809,7.5,14-.664,1.76-3.451,12.471,0,11-2.039,5.875.19,7.266,0,11-3.557,69.959,44.653,60.398,100,59,3.316-.084,6.688.132,10,0,4.732-.189,9.998-1.663,15-2,.103-.007-.3,2.048.5,2,3.452-.207,8.922-1.525,10.5-5,4.225,3.276,8.25,6.752,12.5,10,.468-.172-1.324-5.578-1.5-6l2-1c1.953,3.923,5.081,5.446,5.5,10,1.385-.258,3.298-2.889,3.5-3,1.862-1.024,3.254-1.768,5-3,.241,2.672,10.092,3.127,11.5,3,.352-.032.987-2.955,2-3,1.726-.077,9.365-.123,11,0,.744.056,6.528,8.205,9.5-4,1.428.148,3.399.877,5,1,2.923.225,6.152-.135,9,0,27.608,1.313,57.999,4.095,84-6-9.818,7.944-22.932,9.967-35,13.5,4.817,2.858,11.342-.311,13.5-.5,20.71-1.813,35.176-7.1,40.5-30.5.258-1.132,1.363-21.604-1-22.5.391-3.428.906-9.613,1-13,.109-3.929,1.654-15.308-3-14,3.493-2.133,1.38-9.408,2-11,1.721-4.42,4.309-5.611,5-7-6.439,24.848,6.416,65.851-11,87.5-20.237,25.156-106.857,10.003-138.5,10.5-3.89.061-15.187,4.138-16,4-.441-.075-4.164-3.936-8-4-37.433-.622-79.959,9.035-116,1-31.254-6.968-34.782-26.507-34.5-55.5.105-10.747,7.391-37.399-2.5-44.5-31.63-19.051-173.261-59.982-187.5-86.5-5.03-9.367-1.991-17.259-4-23-.497-1.421-21.222-14.661-24.5-17.5-31.056-26.898-42.546-47.976-28.5-89.5,1.991-5.887,15.215-29.276,15-32-.186-2.355-11.302-17.829-13-23-1.661-5.06-2.715-12.128-3-17.5l5,17.5c2.236,3.03,3.35,6.676,5,10,1.322,2.663,3.183-.543,4,1,.581,1.098-1.576,1.895-1,3,1.825,3.498,5.451,6.471,5,11-.244,2.452-9.351,15.8-11,20-5.689,14.489-11.94,31.034-10,47,1.465,12.06,10.456,19.424,22,25.5Z" style="fill: #b32e24;"/>
      <path d="M701,494c-7.15,10.739-14.128,22.059-21,33l-10-5c7.31-11.474,14.194-22.817,22-34l9,6Z" style="fill: #f79751;"/>
      <path d="M574,500c-.85,3.184-1.29,6.3-2,9-8.242,31.356-13.876,66.194-23,96.5-.363,1.207-1.185,4.105-3,3.5,1.619-10.012,5.164-20.858,7-31,4.349-24.024,9.088-48.086,14-72,6.661,2.785,2.286-5.075,7-6Z" style="fill: #fcd49f;"/>
      <path d="M540,504c-3.479,60.828-12.712,121.593-15,182.5-.035.922,3.01,1.711,3,2-.249,6.979-1.747,14.178-2,21.5-.376,10.876-2.018,22.083-1,33-1.921.649-1.629,1.358-5,2-2.244.428-3.238.861-6,1-2.975.15-6.02-.106-9,0-.016-.333.015-.667,0-1-1.675-36.477.006-73.025-1-109.5-1.162-42.153-5.523-84.317-5-126.5,6.199-.063,11.842-3.168,19-4,9.517-1.106,12.067-1.724,22-1Z" style="fill: #fba54e;"/>
      <path d="M549,504c-5.394,41.033-8.678,82.452-14,123.5-1.249,9.633-6.223,19.677-3,29.5-2.002,15.418-3.52,34.914-4,50.5-.056,1.828.88,4.483-2,2.5.253-7.322,1.751-14.521,2-21.5.01-.289-3.035-1.078-3-2,2.288-60.907,11.521-121.672,15-182.5,2.795.204,6.493-.468,9,0Z" style="fill: #e96638;"/>
      <path d="M532,657c-3.223-9.823,1.751-19.867,3-29.5,5.322-41.048,8.606-82.467,14-123.5,1.098.205,3.398-.512,4,.5-.77,17.937-2.005,36.109-4,54-3.737,33.522-12.703,65.404-17,98.5Z" style="fill: #e24625;"/>
      <path d="M486,518c5.826,75.329,12.055,150.728,16,226-3.261-1.451-3.455-1.913-6-4,.037-21.332-1.513-40.174-4-62l-15-171c1.586.284,6.192-.628,7,.5,1.041,1.454-2.195,10.009,2,10.5Z" style="fill: #e76137;"/>
      <path d="M499,509c-.523,42.183,3.838,84.347,5,126.5,1.006,36.475-.675,73.023,1,109.5-1.89.863-2.803-.912-3-1-3.945-75.272-10.174-150.671-16-226-.259-3.348-.738-6.619-1-10,4.578-3.532,13.248,1.008,14,1Z" style="fill: #f68f4c;"/>
      <path d="M595,517c-24.619,73.167-45.178,143.47-62,219-.307,1.376-.703,2.621-1,4-2.566-.09-1.155-8.169-1-9.5,4.619-39.592,8.684-82.445,15-121.5,1.815.605,2.637-2.293,3-3.5,9.124-30.306,14.758-65.144,23-96.5,6.716,2.129,22.572,1.161,23,8Z" style="fill: #fcb158;"/>
      <path d="M667,512c-22.843,36.555-40.716,76.105-59,115-4.009,8.529-9.107,16.911-13,25.5-19.306,42.603-35.298,87.403-55,129.5,24.461-83.836,67.058-176.857,107-255,3.094-6.053,6.812-11.952,10-18l10,3Z" style="fill: #ed7345;"/>
      <path d="M418,515c10.074,27.643,18.705,54.773,27,83l-6,1c-9.453-26.997-20.308-54.443-31-81l10-3Z" style="fill: #f8975d;"/>
      <path d="M710,518c4.346,2.772,9.271,8.273,15,9-72.577,82.785-147.657,197.23-190,299-.118.284.118.715,0,1l-2,1c9.796-27.555,19.32-53.115,31-80,12.842-29.558,27.565-58.219,42-87,29.14-50.783,62.162-99.01,97-146,1.652.859,5.815,2.244,7,3Z" style="fill: #fcac54;"/>
      <path d="M760,524c-5.433,5.041-10.678,10.805-16,16-85.103,83.07-150.446,179.414-201,287-2.746,4.545-4.623,9.997-7,14-6.79,11.434-14.011,22.579-19,35-2.79,1.413-1.054-14.53-1-16,1.418-38.304,5.624-76.602,4-115,3.371-.642,3.079-1.351,5-2,.993-.336,3.57-2.308,4-1.5l-1.5,19.5c2.955-6.407,3.009-14.086,4.5-21,.297-1.379.693-2.624,1-4,6.405-2.2,9.169-12.542,11-18.5,20.209-65.745,32.449-132.29,56-198.5h5c-5.383,14.942-10.278,29.833-15,45-10.012,32.155-20.299,67.779-28,100.5-.13.552-1.473,6.234,1,5.5-1.812,5.425-2.139,11.798-5,17-18.621,56.099-28.616,115.391-38,173.5,2.054.941,1.894-2.38,2-2.5,5.81-6.528,9.499-22.53,13-31,.118-.285-.118-.716,0-1,1.606.28,3.238-1.348,4-2.5,12.54-18.962,23.143-45.607,35-66,44.068-75.794,103.677-165.051,166-226.5,5.025-4.955,10.793-9.247,16-14l4,7Z" style="fill: #e14428;"/>
      <path d="M899,517c-2.304,4.393-3.604,9.837-6.5,14-104.376,43.325-181.681,109.607-257.5,191l-14,1c17.68-21.063,35.886-41.702,55.5-61,13.934-13.71,60.025-49.192,67.5-61,7.948-4.298,14.08-11.485,21-17,15.539-12.385,31.936-24.278,48-36l5.5,9,80.5-40Z" style="fill: #ed6c41;"/>
      <path d="M405,527c18.003,40.305,32.218,82.618,50,123,2.06,6.328,4.013,12.648,6,19l-13,8c-20.361-48.355-44.762-102.621-69-149,11.363-1.009,19.12-13.924,26-1Z" style="fill: #fda968;"/>
      <path d="M647,527c-39.942,78.143-82.539,171.164-107,255-6.62,22.691-13.315,42.562-17,67-.452,2.997-1.39,5.895-1,9-.106.12.054,3.441-2,2.5,9.384-58.109,19.379-117.401,38-173.5,18.05-54.379,43.414-113.715,67-167,5.791,3.648,19.708,1.255,22,7Z" style="fill: #fcae66;"/>
      <path d="M740,531c-62.323,61.449-121.932,150.706-166,226.5-11.857,20.393-22.46,47.038-35,66-.762,1.152-2.394,2.78-4,2.5,42.343-101.77,117.423-216.215,190-299,1.66-1.893,4.322-4.114,6-6-.257,5.018,6.11,6.83,9,10Z" style="fill: #eb6c41;"/>
      <path d="M680,527c-27.531,43.829-50.828,87.798-74,134-14.435,28.781-29.158,57.442-42,87l-4.5,7-1.5-2.5c19.411-40.193,33.211-83.083,52-123.5,17.226-37.055,38.079-72.592,60-107l10,5Z" style="fill: #f27f50;"/>
      <path d="M466,802h-3c-15.982-27.307-33.399-53.723-51-80-12.764-19.056-25.183-37.659-39-56-30.616-40.64-59.68-72.512-96-108-7.154-6.99-13.654-15.251-21-22l9-9c95.394,89.366,138.824,162.579,201,275Z" style="fill: #ec6945;"/>
      <path d="M492,678c2.487,21.826,4.037,40.668,4,62-.694-.569-2.44-1.445-3-2-.351-.348-.632-.6-1-1,1.566-.479,1.187-4.285,1-5.5-8.689-56.501-13.486-112.02-24-168.5-1.351-7.257-3.587-14.672-5-22,6.822-1.383,3.265-5.043,3-10l6,3.5c4.528,48.034,13.547,95.638,19,143.5Z" style="fill: #eb6a40;"/>
      <path d="M382,721l-25-12c-2.355-1.985-4.537-4.155-7-6-67.018-63.116-145.427-117.486-235-143,.986-3.393,7.883-19.973,11.5-20,51.289,23.497,100.362,47.573,146,81,40.035,29.323,76.307,63.263,109.5,100Z" style="fill: #f1774b;"/>
      <path d="M750,553c-.12.115-.878,1.882-1,2-33.348,32.238-65.128,66.019-92,104-38.572,40.193-84.317,118.871-114,168,50.554-107.586,115.897-203.93,201-287l6,13Z" style="fill: #ec6d44;"/>
      <path d="M910,562c-47.369,14.725-92.586,35.543-135,61-37.947,22.776-66.014,45.796-98,76-3.218,3.039-6.828,5.919-10,9-7.761-1.951-14.721,9.639-22,8,64.506-66.611,122.369-115.24,207.5-155,5.608-2.619,42.538-20.059,45-20,4.512.107,11.378,17.136,12.5,21Z" style="fill: #f17e4b;"/>
      <path d="M438,545c19.881,61.831,42.645,123.545,52,188-14.941-20.41-16.19-50.989-23-75.5-10.324-37.159-21.116-74.823-33-111.5,2.335-2.162,1.579-4.365,4-1Z" style="fill: #ed7048;"/>
      <path d="M757,564c-.391.341-1.605,2.653-2,3-6.808,5.983-13.333,11.864-20,18-24.997,23.007-54.743,49.766-78,74,26.872-37.981,58.652-71.762,92-104l8,9Z" style="fill: #fdd5a6;"/>
      <path d="M277,558c36.32,35.488,65.384,67.36,96,108-36.934-29.553-67.711-66.542-103-98,.194-3.844,2.786-9.344,7-10Z" style="fill: #fdcc9f;"/>
      <path d="M350,703c-5.547-4.156-17.512-10.483-24-14-60.079-55.145-138.671-84.768-214-113,.237-4.786,1.646-11.341,3-16,89.573,25.514,167.982,79.884,235,143Z" style="fill: #fdd1a1;"/>
      <path d="M910,562c1.27,4.373,2.667,9.501,3,14-45.835,14.421-92.296,30.902-134,55l-4-8c42.414-25.457,87.631-46.275,135-61Z" style="fill: #fedfab;"/>
      <path d="M598,568c-12.265,33.645-23.652,68.032-35,102-2.473.734-1.13-4.948-1-5.5,7.701-32.721,17.988-68.345,28-100.5l8,4Z" style="fill: #f07c50;"/>
      <path d="M765,584c-6.92,5.515-13.052,12.702-21,17,.755-1.193,3.006-3.27,3-3.5-.024-.979-10.733-10.601-12-12.5,6.667-6.136,13.192-12.017,20-18l10,17Z" style="fill: #fcab5a;"/>
      <path d="M326,689c-55.84-30.27-116.684-53.522-175.5-77l-35.5-7c-2.479-8.554-3.44-20.122-3-29,75.329,28.232,153.921,57.855,214,113Z" style="fill: #fda972;"/>
      <path d="M913,576c.44,5.945.062,17.18-1,23-53.811,14.479-105.365,36.886-155.5,61-15.9,7.648-31.213,17.452-47,25-.341.163-6.896,2.056-7.5,1,25.98-17.975,49.352-39.023,77-55,41.704-24.098,88.165-40.579,134-55Z" style="fill: #fdbb83;"/>
      <path d="M678,778c.322-.582,1.811-7.437,2-9,24.526-12.057,58.242-23.912,84.5-35,25.304-10.685,88.928-25.983,94.5-57,.248-1.379-.002-3.444,0-5,.003-1.783.316-4.488,0-6,16.276-12.754,32.675-24.721,43-43,.863-1.528,1.936-1.874,2-2,6.718.414,10.198-7.679,13-12.5.478-.823,3.312-.077,4-2,1.577-4.409-1.667-23.316,1-29.5,5.368,30.257-2.884,48.61-24.5,69-4.226,3.986-28.896,20.746-29.5,22.5-1.002,2.911.422,10.751-1,16-4.056,14.975-27.555,24.983-39.5,32.5l-149.5,61Z" style="fill: #c13a24;"/>
      <path d="M744,601c-7.475,11.808-53.566,47.29-67.5,61-19.614,19.298-37.82,39.937-55.5,61-23.084,27.5-40.862,51.614-60,82-6.513,10.341-12.414,21.295-19,31.5-.219.339-4.801,7.124-6,4.5,2.377-4.003,4.254-9.455,7-14,29.683-49.129,75.428-127.807,114-168,23.257-24.234,53.003-50.993,78-74,1.267,1.899,11.976,11.521,12,12.5.006.23-2.245,2.307-3,3.5Z" style="fill: #fcb076;"/>
      <path d="M445,598c8.197,27.895,17.931,59.281,24,87.5.433,2.015,1.684,7.909,0,9.5-2.557-8.598-5.315-17.419-8-26-1.987-6.352-3.94-12.672-6-19-5.497-16.885-10.129-34.231-16-51l6-1Z" style="fill: #ef744e;"/>
      <path d="M912,599c-.9,4.932-5.655,17.41-8,22-.064.126-1.137.472-2,2-88.573,13.658-171.123,55.804-241.5,110-27.202,20.948-63.096,51.245-86.5,76,29.558-34.772,60.24-69.178,93-101,3.172-3.081,6.782-5.961,10-9,8.292-2.365,17.644-7.91,25-13,.604,1.056,7.159-.837,7.5-1,15.787-7.548,31.1-17.352,47-25,50.135-24.114,101.689-46.521,155.5-61Z" style="fill: #fba752;"/>
      <path d="M326,689c6.488,3.517,18.453,9.844,24,14,2.463,1.845,4.645,4.015,7,6,28.353,23.901,55.082,60.583,80.5,88-78.078-74.416-164.781-133.412-269-165-8.765-2.656-40.251-7.633-44.5-10-3.329-1.854-7.922-13.279-9-17l35.5,7c58.816,23.478,119.66,46.73,175.5,77Z" style="fill: #fa9f4e;"/>
      <path d="M357,709l25,12c14.048,15.548,27.587,31.482,40.5,48-8.944-16.21-21.467-31.732-33.5-46l10-2c.842,1.033,4.176,2.975,5,4,25.2,31.367,50.892,68.733,72,103,2.358,3.828,4.026,8.757,6,12l-31.5-30,26.5,32.5c.603,2.454-3.342-.371-3.5-.5-25.41-20.781-49.757-50.462-76.5-73-72.518-61.116-152.08-97.7-245-117.5-.286.933,13.11,9.026,15,12.5-8.964-3.304-41.217-30.852-43-40-.121-.621.057-1.355,0-2,4.249,2.367,35.735,7.344,44.5,10,104.219,31.588,190.922,90.584,269,165-25.418-27.417-52.147-64.099-80.5-88Z" style="fill: #e55834;"/>
      <path d="M902,623c-10.325,18.279-26.724,30.246-43,43-.023-.109-1.545.06-1-2,5.989-2.546,12.955-11.224,19-14.5-96.984,21.27-190.983,62.748-264,131.5-19.601,14.283-46.256,43.85-64,62-3.574,3.656-6.973,9.114-12,11,11.99-14.291,24.524-31.804,37-45,23.404-24.755,59.298-55.052,86.5-76,70.377-54.196,152.927-96.342,241.5-110Z" style="fill: #e76139;"/>
      <path d="M779,631c-27.648,15.977-51.02,37.025-77,55-7.356,5.09-16.708,10.635-25,13,31.986-30.204,60.053-53.224,98-76l4,8Z" style="fill: #fdca9a;"/>
      <path d="M610,629c-18.789,40.417-32.589,83.307-52,123.5l1.5,2.5,4.5-7c-11.68,26.885-21.204,52.445-31,80-2.25,6.328-4.979,17.587-10,21,3.685-24.438,10.38-44.309,17-67,19.702-42.097,35.694-86.897,55-129.5,3.893-8.589,8.991-16.971,13-25.5l2,2Z" style="fill: #dc3824;"/>
      <path d="M858,664c-10.765,4.577-30.955,6.083-43.5,10-69.35,21.651-143.092,64.439-201.5,107,73.017-68.752,167.016-110.23,264-131.5-6.045,3.276-13.011,11.954-19,14.5Z" style="fill: #da3622;"/>
      <path d="M397,769c-.783,2.162-1.939,2.457-4,1.5-6.391-2.966-23.356-16.512-31-21.5-46.876-30.586-94.715-57.034-148.5-74-14.154-4.465-34.064-6.417-46.5-11-1.89-3.474-15.286-11.567-15-12.5,92.92,19.8,172.482,56.384,245,117.5Z" style="fill: #d83120;"/>
      <path d="M362,749l-5,8c-53.239-43.725-122.937-62.821-188-82-1.077-4.64,1.115-5.273-2-11,12.436,4.583,32.346,6.535,46.5,11,53.785,16.966,101.624,43.414,148.5,74Z" style="fill: #e45732;"/>
      <path d="M859,666c.316,1.512.003,4.217,0,6-22.337,4.376-43.667,12.303-65,20-56.142,20.257-81.385,35.624-129,70-38.169,27.557-75.082,57.467-116,81,17.744-18.15,44.399-47.717,64-62,58.408-42.561,132.15-85.349,201.5-107,12.545-3.917,32.735-5.423,43.5-10-.545,2.06.977,1.891,1,2Z" style="fill: #e3532f;"/>
      <path d="M469,695c2.677,9.004,7.415,17.524,10,26.5,10.323,35.848,14.674,73.995,24,110-1.623,3.24-6.58-20.977-7-22.5-12.386-44.882-29.964-89.165-48-132l13-8c2.685,8.581,5.443,17.402,8,26Z" style="fill: #fdb151;"/>
      <path d="M859,672c-.002,1.556.248,3.621,0,5-13.682,6.471-27.857,11.646-42,17-7.235-2.888-16.253,3.138-23-2,21.333-7.697,42.663-15.624,65-20Z" style="fill: #fccb93;"/>
      <path d="M357,757c.086.071.898,1.566,1,2-26.045-15.54-67.978-33.946-96.5-46-30.034-12.693-61.334-23.588-92.5-33-.345-1.395.331-3.573,0-5,65.063,19.179,134.761,38.275,188,82Z" style="fill: #f8a15b;"/>
      <path d="M859,677c-5.572,31.017-69.196,46.315-94.5,57-26.258,11.088-59.974,22.943-84.5,35-48.723,23.953-109.04,67.973-154,100,1.575-5.697,7.283-10.569,11-15,5.027-1.886,8.426-7.344,12-11,40.918-23.533,77.831-53.443,116-81,50.079-26.516,98.987-47.931,152-68,14.143-5.354,28.318-10.529,42-17Z" style="fill: #f07e42;"/>
      <path d="M358,759c2.229,1.33,3.892,2.647,6,4,20.5,13.157,44.02,32.976,64,48,20.543,15.447,42.216,30.021,60.5,48l-9-14,19,22c2.579.042-1.17-5-1.5-5.5-4.861-7.369-10.305-13.783-15-21.5-1.974-3.243-3.642-8.172-6-12-2.511-8.956-8.301-17.971-13-26h3c11.439,20.684,31.328,47.22,40,68,.176.422,1.968,5.828,1.5,6-4.25-3.248-8.275-6.724-12.5-10-37.047-28.726-100.547-73.965-141.5-95-40.927-21.022-92.543-34.713-135.5-53-20.807-8.858-42.899-13.318-49-38,31.166,9.412,62.466,20.307,92.5,33,28.522,12.054,70.455,30.46,96.5,46Z" style="fill: #ec713d;"/>
      <path d="M794,692c6.747,5.138,15.765-.888,23,2-53.013,20.069-101.921,41.484-152,68,47.615-34.376,72.858-49.743,129-70Z" style="fill: #fbae76;"/>
      <path d="M667,708c-32.76,31.822-63.442,66.228-93,101-12.476,13.196-25.01,30.709-37,45-3.717,4.431-9.425,9.303-11,15-.747.532-2.463,2.914-4,4-1.746,1.232-3.138,1.976-5,3,4.989-12.421,12.21-23.566,19-35,1.199,2.624,5.781-4.161,6-4.5,6.586-10.205,12.487-21.159,19-31.5,2.832.515,4.451-1.725,6-3.5,8.834-10.126,16.592-22.608,26-33.5,18.335-16.154,35.011-34.457,52-52,7.279,1.639,14.239-9.951,22-8Z" style="fill: #e3532f;"/>
      <path d="M495,866c-1.578,3.475-7.048,4.793-10.5,5-.8.048-.397-2.007-.5-2-37.424-32.139-82.336-54.886-123.5-82-1.645.855-1.153,2.081-1.5,3-3.693-5.191-1.57-8.993-7.5-14-2.974-2.511-35.921-15.377-42-18-28.058-12.108-59.808-20.7-88-36-.498-.27-3.781,2.352-3.5-4,42.957,18.287,94.573,31.978,135.5,53,40.953,21.035,104.453,66.274,141.5,95Z" style="fill: #962a28;"/>
      <path d="M635,722c-14.051,15.084-28.537,30.414-42,46-9.408,10.892-17.166,23.374-26,33.5-1.549,1.775-3.168,4.015-6,3.5,19.138-30.386,36.916-54.5,60-82l14-1Z" style="fill: #e55d36;"/>
      <path d="M412,722c17.601,26.277,35.018,52.693,51,80,4.699,8.029,10.489,17.044,13,26-21.108-34.267-46.8-71.633-72-103l8-3Z" style="fill: #fbab55;"/>
      <path d="M496,740c2.545,2.087,2.739,2.549,6,4,.197.088,1.11,1.863,3,1,.015.333-.016.667,0,1,1.19,24.899,5.12,47.865,7,72,1.105,14.178,1.24,28.767,1,43-.019,1.151,1.163,14.354-3,4.5-4.827-11.426-4.242-37.142-6-50-3.53-25.819-8.325-51.547-11-77.5.56.555,2.306,1.431,3,2Z" style="fill: #de4229;"/>
      <path d="M516,860l-3,1c.24-14.233.105-28.822-1-43l2-72c2.762-.139,3.756-.572,6-1,1.624,38.398-2.582,76.696-4,115Z" style="fill: #f1874c;"/>
      <path d="M514,746l-2,72c-1.88-24.135-5.81-47.101-7-72,2.98-.106,6.025.15,9,0Z" style="fill: #ec7644;"/>
      <path d="M397,769c26.743,22.538,51.09,52.219,76.5,73,.158.129,4.103,2.954,3.5.5l-26.5-32.5,31.5,30c4.695,7.717,10.139,14.131,15,21.5.33.5,4.079,5.542,1.5,5.5l-19-22,9,14c-18.284-17.979-39.957-32.553-60.5-48-.294-2.193,1.014-2.456,0-4.5-2.825-5.695-52.229-38.467-61-44-1.049-.662-3.485-2.547-3,.5-2.108-1.353-3.771-2.67-6-4-.102-.434-.914-1.929-1-2l5-8c7.644,4.988,24.609,18.534,31,21.5,2.061.957,3.217.662,4-1.5Z" style="fill: #de4127;"/>
      <path d="M428,811c-19.98-15.024-43.5-34.843-64-48-.485-3.047,1.951-1.162,3-.5,8.771,5.533,58.175,38.305,61,44,1.014,2.044-.294,2.307,0,4.5Z" style="fill: #da301f;"/>
      <path d="M678,778c-.684,1.236-.969.937-1,1-.691,1.389-3.279,2.58-5,7-44.798,24.729-88.272,51.931-130,81.5,3.729,1.729,9.872,1.071,14,1.5-2.972,12.205-8.756,4.056-9.5,4-1.635-.123-9.274-.077-11,0-1.013.045-1.648,2.968-2,3-1.408.127-11.259-.328-11.5-3,1.537-1.086,3.253-3.468,4-4,44.96-32.027,105.277-76.047,154-100-.189,1.563-1.678,8.418-2,9Z" style="fill: #942a27;"/>
      <path d="M670,797c-32.415,20.651-75.452,38.357-104,64-3.835,3.444-8.937,4.34-5,9-1.601-.123-3.572-.852-5-1-4.128-.429-10.271.229-14-1.5,41.728-29.569,85.202-56.771,130-81.5-.62,1.592,1.493,8.867-2,11Z" style="fill: #c63823;"/>
      <path d="M484,869c-5.002.337-10.268,1.811-15,2-33.451-28.278-73.689-47.824-109.5-73-1.003.361-.228,2.217-.5,3-3.451,1.471-.664-9.24,0-11,.347-.919-.145-2.145,1.5-3,41.164,27.114,86.076,49.861,123.5,82Z" style="fill: #c62e1d;"/>
      <path d="M673,811c-9.367,2.532-19.889,8.367-28.5,13-18.64,10.029-37.508,20.866-55.5,32-3.048,1.886-5.999,4.034-9,6-2.044,1.339-5.107,2.6-7,4l-7-5c28.548-25.643,71.585-43.349,104-64,4.654-1.308,3.109,10.071,3,14Z" style="fill: #d65b32;"/>
      <path d="M469,871c-3.312.132-6.684-.084-10,0-3.684-4.478-9.222-6.991-14-10-23.052-14.516-47.272-26.708-71-40-5.044-2.825-9.949-6.162-15-9,.19-3.734-2.039-5.125,0-11,.272-.783-.503-2.639.5-3,35.811,25.176,76.049,44.722,109.5,73Z" style="fill: #d94424;"/>
      <path d="M673,811c-.094,3.387-.609,9.572-1,13-1.788,15.673-5.276,29.705-18,40-26.001,10.095-56.392,7.313-84,6-.608-.548,2.799-3.851,3-4,1.893-1.4,4.956-2.661,7-4,35.768,12.411,68.88,5.085,75-36.5l-2.5-1.5-63.5,32c17.992-11.134,36.86-21.971,55.5-32,8.611-4.633,19.133-10.468,28.5-13Z" style="fill: #fdb757;"/>
      <path d="M374,821c4.124,38.38,36.82,50.78,71,40,4.778,3.009,10.316,5.522,14,10-55.347,1.398-103.557,10.959-100-59,5.051,2.838,9.956,6.175,15,9Z" style="fill: #fa8734;"/>
      <path d="M445,861c-34.18,10.78-66.876-1.62-71-40,23.728,13.292,47.948,25.484,71,40Z" style="fill: #fda042;"/>
      <path d="M580,862c3.001-1.966,5.952-4.114,9-6l63.5-32,2.5,1.5c-6.12,41.585-39.232,48.911-75,36.5Z" style="fill: #fec473;"/>
      <path d="M654,864c12.724-10.295,16.212-24.327,18-40,2.363.896,1.258,21.368,1,22.5-5.324,23.4-19.79,28.687-40.5,30.5-2.158.189-8.683,3.358-13.5.5,12.068-3.533,25.182-5.556,35-13.5Z" style="fill: #c63e27;"/>
      <path d="M522,858c-.39-3.105.548-6.003,1-9,5.021-3.413,7.75-14.672,10-21l2-1c-3.501,8.47-7.19,24.472-13,31Z" style="fill: #e9663d;"/>
      <path d="M573,866c-.201.149-3.608,3.452-3,4-2.848-.135-6.077.225-9,0-3.937-4.66,1.165-5.556,5-9l7,5Z" style="fill: #d24226;"/>
    </g>
  </g>
</svg>