<?xml version="1.0" encoding="utf-8"?>
<!-- Generator: Adobe Illustrator 27.5.0, SVG Export Plug-In . SVG Version: 6.00 Build 0)  -->
<svg version="1.1" id="Layer_1" xmlns="http://www.w3.org/2000/svg" xmlns:xlink="http://www.w3.org/1999/xlink" x="0px" y="0px"
	 viewBox="0 0 2000 2000" style="enable-background:new 0 0 2000 2000;" xml:space="preserve">
<path style="fill:none;" d="M759.565,746.336c-5.78-1.085-11.33-2.236-16.481-3.427c0.403,7.41,0.198,15.392-1.197,23.086
	c16.06-1.471,26.664,2.616,29.05,3.658c1.656,0.332,6.979,1.558,13.595,4.606c-5.387-3.61-9.506-6.91-12.152-9.181
	C762.84,756.889,758.534,750.586,759.565,746.336z"/>
<path style="fill:none;" d="M547.073,890.859c2.618,4.986,4.977,9.808,7.081,14.46c0.283-2.728,2.129-6.703,5.077-10.967
	C555.14,893.836,551.096,892.634,547.073,890.859z"/>
<path style="fill:none;" d="M1047.012,953.156c6.43-15.513,11.589-30.297,13.946-42.195c0.249-2.895,5.455-65.832-4.164-121.399
	c-11.334-11.893-28.517-30.817-44.543-52.023c-33.322-5.845-55.892-10.377-61.41-11.502c-2.585,3.725-5.486,7.345-8.638,10.774
	c-1.34,1.439-2.717,2.918-4.199,4.298c-2.028,1.958-7.502,3.994-32.529,4.073c-9.884,0.051-21.213-0.169-30.309-0.345l-5.807-0.12
	c5.006,5.674,9.428,12.833,12.323,21.88c0.323,1.008,0.197,2.106-0.345,3.015c-0.059,0.098-0.137,0.179-0.204,0.271
	c2.848,5.766,11.209,19.483,30.354,30.51c3.963,2.282,8.706,4.925,13.729,7.724c27.881,15.533,70.015,39.007,86.327,60.635
	C1026.11,888.064,1040.654,932.274,1047.012,953.156z"/>
<path style="fill:none;" d="M1617.202,407.088c-55.399-80.816-191.178-158.155-286.11-179.946
	c-37.689-6.519-75.386-14.197-113.478-17.659c-32.027-2.895-64.299-2.663-96.252,0.933c-64.04,7.144-126.13,26.526-185.801,50.327
	c-59.944,24.046-119.025,50.311-178.706,75.108c-44.831,18.62-90.281,36.287-137.487,47.985c-0.93,0.228-1.866,0.439-2.797,0.662
	c13.596,1.879,27.219,3.457,40.896,4.71c29.165,2.699,58.473,3.926,87.757,4.696c144.144,2.545,296.728-5.348,440.334,7.809
	c133.861,12.162,286.199,37.459,399.188,114.046c17.033,11.514,33.089,24.421,48.21,38.349c4.122-10.975,7.5-22.25,10.388-33.526
	C1653.815,481.058,1640.172,439.627,1617.202,407.088z"/>
<path style="fill:none;" d="M1587.623,623.295c13.445,2.635,24.677,4.616,31.738,5.815c2.359,0.428,4.629,1.12,6.769,2.06
	c0.03,0.013,0.063,0.029,0.093,0.044c1.007,0.503,2.047,1.024,3.072,1.718c1.085,0.637,2.017,1.414,2.863,2.16
	c0.032,0.028,0.063,0.057,0.093,0.088c0.098,0.098,0.195,0.185,0.293,0.273c0.148,0.133,0.296,0.267,0.443,0.415l0.643,0.643
	c2.145,2.362,2.784,4.516,1.966,6.467c-2.332,5.558-15.527,7.01-53.995,8.548c-3.194,0.126-6.51,0.184-9.899,0.184
	c-40.592,0.001-93.11-8.408-108.979-11.117c0.748,0.855,1.668,1.804,2.776,2.781c0.351,0.312,0.729,0.619,1.139,0.953l0.284,0.231
	c0.695,0.566,1.472,1.118,2.369,1.685c0.167,0.11,0.307,0.196,0.445,0.281c0.182,0.112,0.364,0.224,0.532,0.336
	c0.596,0.383,1.23,0.746,1.86,1.061c3.283,1.696,6.574,2.88,10.083,3.632c5.718,1.281,13.655,2.336,22.847,3.559
	c18.56,2.468,41.657,5.539,57.648,12.224c17.8,7.404,54.649,12.652,74.446,15.471c6.305,0.898,10.86,1.546,13.175,2.014
	c7.098,1.391,7.02,5.998,6.95,10.063c-0.052,3.075-0.11,6.561,2.176,10.366c1.791,2.995,1.28,5.346,0.537,6.791
	c-2.753,5.351-13.544,7.185-17.933,7.718c-1.062,11.977-12.657,18.752-15.887,20.416c-4.267,12.257-26.498,18.814-66.113,19.493
	c-27.666,0.474-54.809-2.154-58.477-2.525c-33.887,10.931-81.529,16.493-141.713,16.559
	c48.379,30.205,106.203,43.909,162.893,44.875c38.779,0.546,79.113-4.103,111.963-26.32c48.871-31.56,75.877-95.483,59.774-152.054
	c-4.03-13.884-10.724-27.03-20.129-38.027c-3.15-3.666-6.436-7.332-9.709-10.937c-10.049-11.337-20.671-22.138-31.806-32.366
	c-7.188,17.802-16.459,34.69-29.03,49.328C1599,613.764,1593.554,618.861,1587.623,623.295z"/>
<path style="fill:#F47851;" d="M1099.042,937.415l18.512-3.813c-7.32-76.825-23.541-127.252-28.64-141.663
	c-1.11,1.936-2.92,4.197-5.843,6.246c2.012,15.475,3.902,35.135,4.803,58.423c7.438,37.848,9.501,72.462,9.92,81.064
	L1099.042,937.415z"/>
<path style="fill:#F47851;" d="M1017.227,738.409c13.63,17.739,27.874,33.694,38.421,44.933c-0.786-4.014-1.655-7.975-2.615-11.857
	c-1.62-2.025-11.008-13.877-22.793-30.845C1025.754,739.881,1021.415,739.136,1017.227,738.409z"/>
<path style="fill:#F47851;" d="M1082.545,794.238c2.865-2.454,4.01-4.99,4.441-6.37c-2.017-1.247-4.004-2.574-5.967-3.96
	C1081.521,787.076,1082.034,790.522,1082.545,794.238z"/>
<path style="fill:#F47851;" d="M1051.672,1089.765l13.497,7.42c26.201-42.741,48.321-142.694,52.017-159.99l-19.405,3.997
	C1093.923,987.544,1056.885,1077.316,1051.672,1089.765z"/>
<path style="fill:#F47851;" d="M1050.42,1093.007c-9.876,25.306-54.65,65.608-61.298,71.497l1.926,9.35
	c30.017-19.55,65.272-64.804,72.146-73.825L1050.42,1093.007z"/>
<path style="fill:#F47851;" d="M987.896,1175.624l-1.842-8.94c-8.613,4.578-33.561,11.335-46.688,14.72
	C963.841,1184.656,982.993,1177.659,987.896,1175.624z"/>
<path style="fill:#F47851;" d="M1116.157,753.931c-3.874-0.541-7.708-1.085-11.505-1.631c10.206,12.918,21.362,28.124,32.894,45.686
	c0.005,0.008,0.006,0.018,0.011,0.026c0.072,0.114,0.133,0.236,0.172,0.369c0.048,0.164,0.872,2.989,2.195,7.783
	c1.914,2.241,3.381,3.998,4.333,5.15l13.391-15.09C1142.955,780.032,1128.962,765.971,1116.157,753.931z"/>
<path style="fill:#F47851;" d="M1159.503,799.321l-13.15,14.82c24.663,39.437,48.745,133.515,52.022,146.608l15.253-2.138
	C1209.024,908.693,1166.898,815.387,1159.503,799.321z"/>
<path style="fill:#F47851;" d="M1199.314,964.094c7.24,26.182-4.493,85.27-6.29,93.967l7.14,6.336
	c12.335-33.623,13.48-90.984,13.585-102.326L1199.314,964.094z"/>
<path style="fill:#F47851;" d="M1191.872,1061.642c-4.158,8.823-20.093,29.17-28.581,39.742
	c21.516-12.036,32.69-29.117,35.407-33.684L1191.872,1061.642z"/>
<path style="fill:#F47851;" d="M1073.762,763.627c-2.467,3.281-7.407,7.37-17.008,8.587c13.171,54.872,8.746,124.43,7.788,137.125
	l10.246-0.812l9.864-0.782C1086.896,830.569,1077.04,778.552,1073.762,763.627z"/>
<path style="fill:#F47851;" d="M1057.441,745.121c-7.797-1.249-15.289-2.48-22.448-3.68c10.169,14.479,18.225,24.743,20.391,27.468
	c11.986-1.22,15.875-7.157,16.969-9.56C1067.094,755.115,1062.126,750.31,1057.441,745.121z"/>
<path style="fill:#F47851;" d="M1012.428,1063.588c31.286-39.167,65.607-135.618,71.415-152.324l-19.75,1.565
	c-2.708,12.887-8.486,28.899-15.53,45.498c1.009,3.415,1.619,5.592,1.749,6.057c0.254,0.912-0.224,1.868-1.104,2.213
	c-0.22,0.086-0.447,0.127-0.671,0.127c-0.674,0-1.318-0.371-1.643-1.003c-0.027-0.053-0.313-0.604-0.844-1.568
	c-17.671,40.346-41.505,82.397-46.097,90.404L1012.428,1063.588z"/>
<path style="fill:#F47851;" d="M998.31,1057.618c-12.932,23.889-62.346,58.34-69.672,63.363l0.753,9.516
	c32.205-15.685,72.789-56.229,80.726-64.331L998.31,1057.618z"/>
<path style="fill:#F47851;" d="M926.044,1131.862l-0.72-9.098c-9.114,3.477-34.703,7.095-48.149,8.829
	C901.023,1137.834,920.92,1133.27,926.044,1131.862z"/>
<path style="fill:#F47851;" d="M1134.344,798.503c-11.964-18.143-23.498-33.726-33.954-46.82
	c-7.735-1.124-15.294-2.255-22.646-3.381c22.426,26.954,39.275,54.584,43.241,61.251L1134.344,798.503z"/>
<path style="fill:#F47851;" d="M1135.511,801.378l-13.119,10.852c15.746,36.74,23.799,119.804,24.856,131.353l13.234,0.195
	C1163.151,900.782,1139.674,815.996,1135.511,801.378z"/>
<path style="fill:#F47851;" d="M1129.881,1025.514l5.229,6.321c14.908-26.932,23.438-75.487,25.021-85.104l-12.525-0.184
	C1150.304,969.736,1132.553,1018.366,1129.881,1025.514z"/>
<path style="fill:#F47851;" d="M1133.429,1034.447l-4.999-6.043c-4.693,6.944-20.905,22.124-29.507,29.982
	C1118.779,1051,1130.52,1037.968,1133.429,1034.447z"/>
<path style="fill:#F47851;" d="M1198.342,764.07c20.636,25.829,37.665,49.988,41.675,55.735l13.493-7.428
	c-6.671-13.604-17.96-29.692-30.81-45.862C1214.7,765.76,1206.58,764.945,1198.342,764.07z"/>
<path style="fill:#F47851;" d="M1242.085,822.598c16.087,21.89,26.156,81.284,27.573,90.05l8.928,3.379
	c-0.441-35.811-19.791-89.823-23.73-100.459L1242.085,822.598z"/>
<path style="fill:#F47851;" d="M1278.394,919.637l-8.537-3.231c-0.745,9.726-8.394,34.416-12.563,47.315
	C1273.146,944.788,1277.486,924.868,1278.394,919.637z"/>
<path style="fill:#F47851;" d="M1166.749,760.506c-3.813-0.457-7.603-0.921-11.374-1.391c14.42,16.335,26.629,33.208,29.496,37.23
	l9.5-0.928c-5.649-11.081-14.317-23.117-23.569-34.436C1169.447,760.821,1168.109,760.669,1166.749,760.506z"/>
<path style="fill:#F47851;" d="M1186.714,799.625c3.642,9.048,7.728,34.567,9.708,47.979c5.803-23.96,0.877-43.768-0.625-48.866
	L1186.714,799.625z"/>
<path style="fill:#300D02;" d="M619.368,383.837c47.206-11.698,92.656-29.365,137.487-47.985
	c59.681-24.797,118.762-51.063,178.706-75.108c59.671-23.801,121.761-43.183,185.801-50.327c31.953-3.596,64.225-3.829,96.252-0.933
	c38.092,3.462,75.788,11.14,113.478,17.659c94.933,21.791,230.711,99.13,286.11,179.946c22.97,32.539,36.613,73.97,26.143,113.495
	c-2.888,11.276-6.266,22.55-10.388,33.526c0.439,0.405,0.875,0.813,1.313,1.219c4.326-11.209,7.866-22.742,10.9-34.28
	c10.915-40.031-2.673-82.315-25.763-115.469c-49.674-70.895-134.54-122.504-212.541-157.357
	c-26.087-11.118-52.879-21.517-80.91-26.582c-35.804-6.331-71.606-13.746-107.876-17.161c-48.526-4.838-97.693-1.857-145.496,7.616
	c-111.589,22.29-213.581,75.272-317.826,118.761c-48.065,20.357-96.839,40.001-147.577,52.301c3.129,0.465,6.259,0.91,9.391,1.343
	C617.502,384.276,618.438,384.066,619.368,383.837z"/>
<path style="fill:#300D02;" d="M1603.825,608.203c12.571-14.638,21.842-31.526,29.03-49.328c-0.429-0.393-0.857-0.784-1.287-1.175
	c-7.049,17.918-16.196,34.934-28.69,49.678c-5.007,5.868-10.632,11.124-16.721,15.629c0.49,0.097,0.98,0.194,1.466,0.289
	C1593.554,618.861,1599,613.764,1603.825,608.203z"/>
<path style="fill:#300D02;" d="M571.241,390.499c-31.807,5.436-64.131,7.471-96.397,7.118c-0.169-0.001-0.311,0.131-0.318,0.302
	c43.223,2.703,87.728-1.505,130.503-10.784c-3.066-0.451-6.133-0.905-9.199-1.361C587.688,387.556,579.493,389.143,571.241,390.499z
	"/>
<path style="fill:#E56533;" d="M1500.531,753.372c-1.879-3.99-6.938-14.288-14.633-26.669c-40.906-1.383-81.676-7.01-121.293-17.142
	c-42.979-11.726-84.525-28.54-127.643-39.573c-20.393-4.691-40.313-7.374-51.309,14.399c-6.226,11.415-7.285,23.477,0.174,34.645
	c10.316,14.485,27.31,22.495,43.786,28.1c0.107,0.028,0.169,0.143,0.135,0.248c-0.032,0.098-0.136,0.154-0.234,0.129
	c-4.961-1.257-9.802-2.926-14.54-4.869c-23.688-9.562-46.256-28.473-33.985-56.263c8.228-19.175,21.265-25.494,41.632-23.083
	c15.387,1.81,30.095,6.667,44.771,11.325c31.481,10.309,62.493,21.961,94.273,31.216c39.747,11.328,81.581,17.32,123.219,19.262
	c-3.363-5.311-7.191-10.967-11.463-16.664c-6.644-0.691-13.284-1.408-19.919-2.191c-0.107-0.013-0.185-0.11-0.172-0.217
	c0.013-0.103,0.104-0.177,0.206-0.172c5.668,0.302,12.069,0.655,18.705,1.017c-13.018-17.037-29.857-34.012-49.436-42.212
	c-0.002-0.001-0.005-0.002-0.007-0.003c-5.572,5.091-13.112,9.161-21.859,11.309c-21.063,5.172-41.109-2.742-44.775-17.674
	c-2.848-11.596,5.023-24.011,18.544-31.404c-0.001-0.001-0.002-0.003-0.003-0.004c0,0,0,0-0.02,0
	c-7.215-11.517-16.308-22.975-42.469-31.09c-56.705-17.598-76.258-27.374-91.9-39.106c-15.643-11.732-105.588,82.124-211.175,5.866
	c-37.315-26.949-84.405-38.266-132.719-39.224c-1.9,8.544-3.987,17.595-6.148,26.964c-9.984,43.289-21.3,92.353-18.15,113.394
	c4.167,27.84,3.93,60.06-4.407,77.095h0.34l7.188,0.148c9.072,0.176,20.366,0.396,30.215,0.344
	c23.347-0.073,28.727-1.911,29.856-3.001c1.405-1.309,2.733-2.736,4.018-4.116c3.264-3.553,6.256-7.326,8.885-11.208
	c0.12-0.224,0.282-0.424,0.48-0.585c0.358-0.292,0.807-0.46,1.262-0.46c0.123,0,0.247,0.012,0.37,0.038
	c0.986,0.205,100.042,20.68,216.913,34.685C1321.549,775.118,1436.785,773.99,1500.531,753.372z"/>
<path style="fill:#D8522A;" d="M1240.316,556.686c15.643,11.732,35.195,21.508,91.9,39.106c26.161,8.115,35.254,19.573,42.469,31.09
	c0.02,0,0.02,0,0.02,0c0.001,0.002,0.002,0.003,0.003,0.004c3.892-2.128,8.247-3.842,12.954-4.998
	c21.062-5.172,41.108,2.742,44.774,17.674c2.145,8.731-1.794,17.925-9.638,25.093c0.002,0.001,0.005,0.002,0.007,0.003
	c19.578,8.201,36.418,25.176,49.436,42.212c13.538,0.74,28.069,1.522,39.456,2.011c9.686,0.423,19.389,0.483,29.06,1.155
	c9.676,0.595,19.302,1.373,29.019,1.893c0.11,0.002,0.199,0.096,0.192,0.207c-0.005,0.093-0.074,0.168-0.162,0.183
	c-7.236,1.258-14.58,1.534-21.898,1.64c-12.11,0.236-24.39-0.912-36.408-1.956c-12.706-1.07-25.399-2.251-38.078-3.57
	c4.271,5.697,8.1,11.353,11.463,16.664c27.306,1.274,54.527,0.81,81.02-1.047c-26.538,2.653-53.301,3.555-80.005,2.651
	c7.694,12.381,12.754,22.68,14.633,26.669c0.078-0.025,0.158-0.049,0.236-0.074c0.264-0.085,0.539-0.113,0.812-0.085
	c31.625,3.364,115.021,7.236,121.091-14.937c0.153-0.561,0.548-1.024,1.077-1.264c0.143-0.065,14.479-6.764,14.479-19.022
	c0-1.017,0.78-1.865,1.795-1.949c5.458-0.451,14.763-2.421,16.493-5.788c0.273-0.531,0.527-1.419-0.413-2.991
	c-2.862-4.762-2.787-9.201-2.732-12.443c0.069-4.038,0.092-5.398-3.804-6.161c-2.215-0.448-6.958-1.123-12.963-1.978
	c-19.968-2.844-57.138-8.137-75.399-15.733c-15.516-6.486-38.328-9.52-56.659-11.957c-9.283-1.234-17.301-2.3-23.169-3.615
	c-3.834-0.822-7.444-2.12-11.018-3.966c-0.733-0.367-1.491-0.8-2.23-1.276c-0.156-0.104-0.297-0.189-0.437-0.275
	c-0.181-0.111-0.36-0.222-0.527-0.333c-0.991-0.626-1.891-1.267-2.711-1.934l-0.282-0.23c-0.457-0.372-0.877-0.715-1.263-1.058
	c-4.415-3.896-6.235-7.429-6.311-7.577c-0.336-0.663-0.268-1.459,0.178-2.055c0.199-0.266,0.462-0.46,0.752-0.594
	c-3.79-7.788-21.222-39.066-58.828-44.194c-43.018-5.866-23.464-35.196-82.123-41.062c-58.66-5.866-46.928-37.151-105.588-29.33
	c-58.659,7.821-122.481-1.955-163.895-16.62c-38.19-13.516-57.805-51.172-143.461-56.912c0.732,5,1.356,10.687,1.778,17.128
	c0.75,11.445-3.273,32.556-8.986,58.242c48.313,0.958,95.404,12.275,132.719,39.224
	C1134.729,638.809,1224.674,544.954,1240.316,556.686z M1462.297,678.696c19.068,4.142,38.238,7.863,57.494,10.977
	c9.617,1.535,19.3,2.604,28.912,4.145c7.148,1.098,14.502,2.241,21.661,3.291c2.416,0.35,4.838,0.694,7.263,1.136
	c0.213,0.031,0.208,0.386-0.023,0.389c-19.639,1.198-39.223-1.818-58.367-5.882c-19.176-3.878-38.218-8.353-57.037-13.677
	c-0.104-0.03-0.164-0.138-0.135-0.242C1462.094,678.733,1462.196,678.674,1462.297,678.696z"/>
<path style="fill:#CC4627;" d="M1210.986,521.49c58.66-7.821,46.928,23.464,105.588,29.33c58.659,5.866,39.105,35.196,82.123,41.062
	c37.606,5.128,55.038,36.407,58.828,44.194c0.359-0.166,0.762-0.233,1.168-0.159c0.741,0.136,74.629,13.595,122.752,11.701
	c19.425-0.777,48.781-1.951,50.544-6.153c0.131-0.313-0.114-1.071-1.193-2.262l-0.573-0.57c-0.1-0.1-0.197-0.187-0.295-0.274
	c-0.133-0.12-0.266-0.241-0.398-0.372c-0.7-0.616-1.457-1.245-2.257-1.708c-0.042-0.024-0.083-0.05-0.124-0.078
	c-0.826-0.565-1.725-1.015-2.676-1.49c-1.775-0.777-3.752-1.379-5.788-1.749c-28.424-4.823-124.13-22.285-161.341-44.309
	c-0.661-0.391-1.031-1.135-0.947-1.899c0.018-0.158,1.529-15.857-6.271-17.385c-2.742-0.554-7.137-0.434-11.79-0.306
	c-11.767,0.321-26.411,0.722-32.446-8.368c-7.313-10.945-13.022-18.695-19.913-18.695c-5.813,0-35.333-1.615-42.15-6.199
	c-2.668-1.77-4.195-4.968-5.674-8.061c-2.428-5.08-4.135-8.148-8.475-7.271c-10.098,2.039-43.911,2.134-52.386-4.249
	c-3.104-2.323-5.077-5.212-6.818-7.76c-2.983-4.367-5.14-7.522-11.573-7.522c-2.083,0-4.56,0.062-7.428,0.133
	c-13.506,0.338-32.011,0.799-40.506-4.306c-3.783-2.262-5.724-4.828-7.435-7.092c-2.882-3.811-5.37-7.103-17.186-8.264
	c-5.913-0.596-13.406-1.018-21.339-1.466c-18.117-1.022-40.665-2.294-57.172-6.421c-5.341-1.335-13.839-4.802-24.598-9.192
	c-36.327-14.82-103.949-42.406-164.22-31.84c-0.303,0.053-0.611,0.034-0.905-0.055c-0.134-0.04-7.019-2.089-18.723-4.205
	c1.435,4.745,2.995,11.233,4.24,19.728c85.656,5.74,105.271,43.396,143.461,56.912
	C1088.505,519.535,1152.327,529.311,1210.986,521.49z"/>
<path style="fill:#4F1600;" d="M1565.903,724.052c-26.492,1.856-53.714,2.32-81.02,1.047c-41.638-1.942-83.472-7.934-123.219-19.262
	c-31.78-9.254-62.792-20.907-94.273-31.216c-14.676-4.657-29.384-9.515-44.771-11.325c-20.367-2.411-33.404,3.908-41.632,23.083
	c-12.271,27.791,10.298,46.702,33.985,56.263c4.738,1.943,9.579,3.612,14.54,4.869c0.099,0.025,0.202-0.031,0.234-0.129
	c0.034-0.105-0.027-0.22-0.135-0.248c-16.477-5.605-33.47-13.615-43.786-28.1c-7.459-11.168-6.399-23.23-0.174-34.645
	c10.996-21.773,30.916-19.089,51.309-14.399c43.117,11.033,84.663,27.846,127.643,39.573
	c39.617,10.132,80.387,15.759,121.293,17.142C1512.603,727.606,1539.365,726.705,1565.903,724.052z"/>
<path style="fill:#4F1600;" d="M1462.199,679.074c18.819,5.324,37.861,9.799,57.037,13.677c19.145,4.065,38.729,7.08,58.367,5.882
	c0.231-0.003,0.236-0.359,0.023-0.389c-2.425-0.441-4.847-0.786-7.263-1.136c-7.159-1.05-14.513-2.193-21.661-3.291
	c-9.612-1.542-19.295-2.61-28.912-4.145c-19.256-3.113-38.426-6.834-57.494-10.977c-0.101-0.022-0.203,0.037-0.232,0.137
	C1462.035,678.936,1462.096,679.045,1462.199,679.074z"/>
<path style="fill:#4F1600;" d="M1547.907,713.96c7.318-0.106,14.662-0.382,21.898-1.64c0.088-0.015,0.157-0.09,0.162-0.183
	c0.007-0.111-0.082-0.205-0.192-0.207c-9.717-0.521-19.343-1.299-29.019-1.893c-9.671-0.672-19.374-0.732-29.06-1.155
	c-11.387-0.489-25.918-1.271-39.456-2.011c-6.636-0.363-13.037-0.715-18.705-1.017c-0.103-0.005-0.193,0.069-0.206,0.172
	c-0.013,0.107,0.064,0.205,0.172,0.217c6.635,0.783,13.275,1.5,19.919,2.191c12.679,1.318,25.372,2.5,38.078,3.57
	C1523.518,713.049,1535.797,714.196,1547.907,713.96z"/>
<path style="fill:#0F0B0A;" d="M1432.437,639.563c-3.666-14.933-23.713-22.846-44.774-17.674c-4.707,1.156-9.063,2.87-12.954,4.998
	c-13.521,7.393-21.392,19.808-18.544,31.404c3.666,14.933,23.713,22.846,44.775,17.674c8.747-2.148,16.287-6.218,21.859-11.309
	C1430.643,657.488,1434.581,648.294,1432.437,639.563z M1374.401,640.657c-1.604-6.534,4.565-13.665,13.782-15.928
	c9.216-2.263,17.987,1.2,19.592,7.734c1.604,6.534-4.566,13.665-13.782,15.928C1384.776,650.653,1376.005,647.191,1374.401,640.657z
	"/>
<path style="fill:#5B5B5B;" d="M1393.993,648.391c9.216-2.263,15.386-9.394,13.782-15.928c-1.604-6.534-10.376-9.996-19.592-7.734
	c-9.217,2.263-15.387,9.394-13.782,15.928C1376.005,647.191,1384.776,650.653,1393.993,648.391z"/>
<path style="fill:#F47851;" d="M622.668,971.326c-2.238,1.958-8.527,8.054-9.658,15.551c6.724,1.561,13.281,3.861,19.605,6.731
	c6.03,2.713,14.484,5.333,25.442,5.804c24.319,1.035,74.563,0.586,97.907,11.719c5.263,2.51,11.397,6.665,17.732,11.59
	c13.475,3.945,25.441,9.748,33.899,14.465c-13.535-13.526-37.271-35.951-52.851-43.383c-19.377-9.243-58.417-10.366-84.251-11.109
	c-4.717-0.136-9.171-0.264-12.935-0.426C639.19,981.476,627.62,974.873,622.668,971.326z"/>
<path style="fill:#E55D39;" d="M658.058,999.412c-10.958-0.472-19.412-3.092-25.442-5.804c-6.324-2.871-12.882-5.171-19.605-6.731
	c-0.431,2.849-0.121,5.898,1.448,9.001c0.455,0.9,0.521,1.947,0.185,2.898c-0.02,0.054-0.051,0.1-0.072,0.153
	c3.049,3.46,10.107,9.859,22.584,12.918c17.918,4.394,61.044,10.077,100.477,6.625c2.267-0.198,4.543-0.292,6.81-0.292
	c10.032,0,20,1.833,29.256,4.542c-6.335-4.925-12.469-9.08-17.732-11.59C732.62,999.997,682.377,1000.447,658.058,999.412z"/>
<path style="fill:#E56533;" d="M565.31,997.097c-0.604,1.619-1.271,3.155-1.965,4.654c3.394,0.162,6.933,0.172,10.545-0.023
	c15.311-0.83,27.06-4.354,32.479-6.282c-3.315-11.132,3.296-21.654,9.303-27.697c-18.365-15.351-40.362-8.739-41.339-8.435
	c-0.32,0.1-0.66,0.158-0.996,0.168c-0.063,0.003-1.412,0.069-3.658,0.548C570.994,975.819,568.697,988.022,565.31,997.097z"/>
<path style="fill:#F47851;" d="M653.407,896.458c-2.454,1.527-9.308,6.291-11.829,13.179c6.506,2.65,12.716,6.018,18.592,9.932
	c5.494,3.66,13.438,7.601,24.163,9.829c23.833,4.952,73.516,12.606,94.751,27.366c5.143,3.568,10.993,9.209,16.898,15.674
	c11.884,5.914,22.086,13.124,29.306,18.853c-11.176-15.533-30.983-41.495-45.159-51.342c-17.632-12.248-55.981-19.655-81.356-24.556
	c-4.632-0.895-9.008-1.74-12.696-2.507C668.076,909.141,657.722,900.758,653.407,896.458z"/>
<path style="fill:#E55D39;" d="M779.084,956.764c-21.235-14.759-70.918-22.414-94.751-27.366
	c-10.725-2.228-18.669-6.168-24.163-9.829c-5.876-3.914-12.086-7.282-18.592-9.932c-1.061,2.896-1.359,6.163-0.233,9.726
	c0.304,0.962,0.2,2.006-0.286,2.89c-0.027,0.05-0.066,0.09-0.096,0.139c2.45,3.907,8.383,11.36,20.204,16.392
	c16.975,7.227,58.617,19.793,98.092,22.748c13.014,0.974,25.604,5.373,36.724,10.906
	C790.077,965.973,784.227,960.332,779.084,956.764z"/>
<path style="fill:#E56533;" d="M569.828,894.125c-0.43,0.074-0.859,0.135-1.288,0.193c-4.057,4.819-6.54,9.358-6.986,11.226
	c2.707,3.154,19.219,10.926,38.811,13.048c15.184,1.646,27.388,0.061,33.067-0.964c-1.475-11.518,6.745-20.832,13.646-25.827
	c-8.549-9.864-19.329-13.447-27.458-14.658C603.001,886.903,583.607,891.755,569.828,894.125z"/>
<path style="fill:#F47851;" d="M727.065,851.954c-2.021,0.804-6.817,2.973-10.648,6.696c5.431,3.572,10.508,7.684,15.212,12.202
	c4.763,4.565,11.921,9.865,22.092,13.959c22.565,9.068,70.105,25.41,88.379,43.654c6.891,6.903,14.578,18.953,21.464,31.281
	c6.371,5.611,11.757,11.237,15.902,15.942c-8.252-17.265-23.156-46.319-35.368-58.519c-15.189-15.173-51.622-29.246-75.732-38.557
	c-4.4-1.7-8.557-3.305-12.052-4.713C739.26,867.031,730.552,856.95,727.065,851.954z"/>
<path style="fill:#E55D39;" d="M753.721,884.811c-10.171-4.094-17.329-9.395-22.092-13.959c-4.704-4.518-9.781-8.63-15.212-12.202
	c-3.4,3.304-6.035,7.828-5.275,13.715c0.129,1.001-0.157,2.01-0.792,2.794c-0.036,0.044-0.081,0.077-0.119,0.12
	c1.721,4.279,6.242,12.663,16.986,19.706c15.431,10.115,54.194,29.848,92.524,39.737c16.952,4.374,32.069,14.673,43.822,25.023
	c-6.886-12.327-14.573-24.378-21.464-31.281C823.826,910.221,776.285,893.88,753.721,884.811z"/>
<path style="fill:#E56533;" d="M652.599,828.927c-0.637,8.707-3.101,16.699-7.37,23.942c6.482,4.033,15.51,8.492,25.716,11.49
	c14.594,4.287,26.846,4.899,32.646,4.899c0.025,0,0.048,0,0.071,0c0.585-11.599,10.325-19.313,18.001-23.008
	c-12.197-20.594-35.141-21.692-36.162-21.73c-0.335-0.013-0.676-0.071-0.995-0.173c-0.133-0.041-4.973-1.475-12.701-0.893
	c-4.222,1.062-8.229,1.839-11.882,2.309C657.354,826.587,654.9,827.673,652.599,828.927z"/>
<path style="fill:#F47851;" d="M814.677,817.041c-3.139,0.744-12.613,3.454-18.558,10.087c5.582,4.913,10.683,10.368,15.229,16.297
	c4.956,6.503,12.813,14.386,24.805,21.304c25.771,14.843,80.495,42.666,99.505,67.871c5.204,6.897,10.448,17.181,15.337,28.451
	c12.499,12.443,22.176,25.9,28.338,35.468c-6.763-21.733-20.528-62.376-33.881-80.079c-15.844-21.007-57.569-44.253-85.181-59.636
	c-5.033-2.804-9.787-5.452-13.772-7.748C826.44,837.504,817.747,823.335,814.677,817.041z"/>
<path style="fill:#E55D39;" d="M836.153,864.729c-11.992-6.918-19.849-14.801-24.805-21.304
	c-4.547-5.929-9.647-11.385-15.229-16.297c-2.901,3.236-4.964,7.4-5.024,12.734c-0.012,1.009-0.436,1.969-1.174,2.656
	c-0.052,0.048-0.113,0.084-0.167,0.129c1.192,5.265,5.093,16.76,17.486,27.629c16.965,14.878,60.548,45.376,105.279,63.879
	c14.656,6.062,27.628,16.098,38.476,26.896c-4.889-11.27-10.133-21.554-15.337-28.451
	C916.648,907.395,861.924,879.572,836.153,864.729z"/>
<path style="fill:#E56533;" d="M769.182,776.827c-0.337-0.059-0.664-0.164-0.973-0.313c-0.195-0.093-11.005-5.085-28.142-2.903
	c-1.126,3.678-2.597,7.21-4.485,10.489c-4.544,7.89-12.265,14.984-21.398,21.007c7.197,6.135,17.659,13.338,30.126,18.986
	c17.74,8.038,33.07,10.784,39.75,11.663c2.341-14.452,16.145-22.196,26.111-25.168C798.868,782.313,769.49,776.881,769.182,776.827z
	"/>
<path style="fill:#E56533;" d="M383.45,1614.913c0.74-21.292,2.8-51.162,8.404-72.544c7.699-29.38,0.903-61.561-7.195-81.354
	c-0.238,0.045-0.475,0.097-0.717,0.13c-0.623,0.085-1.249,0.127-1.872,0.127c-5.515,0-10.895-3.285-14.089-8.747
	c-1.032-1.766-1.994-3.848-3.014-6.051c-2.87-6.209-6.124-13.248-11.622-14.975c-3.397-1.066-7.769-0.058-12.996,2.999
	c-4.563,2.668-8.582,4.839-12.049,6.515c1.743,9.744,7.44,43.327,9.709,77.95c2.406,36.715,21.858,145.575,41.872,193.071
	c1.347-16.694,4.166-44.292,8.894-58.551C384.78,1641.139,382.987,1628.203,383.45,1614.913z"/>
<path style="fill:#F27036;" d="M478.078,1572.785c-14.923-56.641-53.023-131.73-61.569-148.213
	c-9.32,3.404-16.04,11.142-18.944,22.224c-1.243,4.743-3.424,8.482-6.291,10.976c8.627,20.982,15.906,55.223,7.718,86.467
	c-5.433,20.727-7.44,50.013-8.168,70.931c-0.527,15.134,2.063,29.77,7.7,43.501c11.89,28.963,25.27,52.696,38.686,71.677
	C451.591,1669.393,488.761,1613.349,478.078,1572.785z"/>
<path style="fill:#E05B27;" d="M521.214,1626.557c-17.195-76.521-68.308-185.367-75.207-199.869
	c-1.526-0.382-3.018-0.883-4.495-1.383c-4.242-1.437-9.047-3.066-15.971-2.612c-3.227,0.211-6.241,0.859-9.032,1.879
	c8.546,16.484,46.647,91.572,61.569,148.213c10.683,40.564-26.487,96.608-40.869,157.563c30.047,42.51,60.275,61.16,74.355,61.162
	c0.331,0,0.652-0.01,0.965-0.031c2.579-0.169,5.043-1.802,7.325-4.853C533.658,1768.169,538.104,1701.722,521.214,1626.557z"/>
<path style="fill:#E56533;" d="M444.719,1324.336c-12.25-35.567-41.204-48.547-80.025-46.615
	c-30.379,1.487-49.525-26.412-56.427-38.639c-7.068,47.921-9.044,115.336,9.043,198.427c2.481-0.67,8.029-2.779,19.317-9.379
	c5.029-2.941,9.693-4.418,13.929-4.418c1.741,0,3.409,0.25,5,0.75c8.614,2.705,12.77,11.694,16.108,18.917
	c0.942,2.039,1.833,3.964,2.686,5.424c2.042,3.494,5.417,5.471,8.589,5.034c3.397-0.466,6.127-3.714,7.488-8.91
	c3.775-14.405,13.293-24.458,26.164-28.137C419.638,1392.59,452.248,1346.135,444.719,1324.336z"/>
<path style="fill:#D8522A;" d="M469.306,1220.229c-16.217-20.428-48.895-39.778-91.369-32.035
	c-32.448,5.922-45.965-15.384-50.56-25.779c-4.64,12.587-9.653,28.656-13.896,48.027c-1.879,8.579-3.666,18.15-5.214,28.639
	c6.901,12.227,26.048,40.126,56.427,38.639c38.821-1.932,67.775,11.048,80.025,46.615c7.529,21.799-25.081,68.254-28.127,92.453
	c2.685-0.767,5.512-1.264,8.467-1.457c8.384-0.549,14.171,1.411,18.819,2.986c5.152,1.744,7.6,2.44,11.062,0.456
	c4.096-3.511,22.972-41.133,41.861-92.762c7.033-19.223,16.537-47.328,23.1-74.965
	C494.955,1249.239,479.452,1232.986,469.306,1220.229z"/>
<path style="fill:#CC4627;" d="M377.936,1188.194c42.475-7.743,75.152,11.606,91.369,32.035
	c10.146,12.757,25.649,29.01,50.595,30.817c4.854-20.447,8.088-40.623,7.518-56.767c-4.589,1.264-9.264,1.82-13.799,1.821
	c-6.762,0-13.212-1.215-18.6-3.079c-29.24-10.116-63.884-58.853-72.488-71.495c-13.81,8.049-28.066,15.999-42.893,18.974
	c-14.599,2.93-27.591,0.478-39.424-7.438c-2.581,4.854-7.455,14.752-12.838,29.355
	C331.972,1172.81,345.488,1194.117,377.936,1188.194z"/>
<path style="fill:#4F1600;" d="M311.152,1443.024c1.24,2.122,3.867,2.687,7.817,1.675c0.724-0.185,1.517-0.432,2.363-0.726
	c1.991,11.335,7.185,42.947,9.315,75.472c2.752,41.993,25.924,169.342,48.765,208.408c0.672,1.149,1.896,1.827,3.184,1.827
	c0.287,0,0.577-0.034,0.865-0.103c1.582-0.381,2.728-1.754,2.818-3.379c0.026-0.463,2.189-38.104,7.008-60.921
	c21.713,51.519,46.651,83.246,63.938,100.897c20.194,20.622,40.318,32.715,54.285,32.714c0.508,0,1.01-0.016,1.501-0.048
	c4.828-0.316,9.118-2.939,12.75-7.795c17.237-23.046,18.4-96.008,2.649-166.105c-16.374-72.87-63.021-174.389-74.133-198.016
	c1.44-0.348,2.928-0.93,4.482-1.838c7.093-4.146,29.086-53.373,44.389-94.958c12.903-35.064,33.843-98.949,31.526-138.525
	c4.577-2.149,8.937-5.145,12.819-9.207c16.502-17.261,28.133-57.934-9.247-153.653c6.854-3.309,14.925-9.823,21.221-19.83
	c2.743,0.211,5.691,0.344,8.816,0.344c1.94,0,3.946-0.05,6.005-0.162c19.698-1.067,33.74-6.279,37.435-7.785
	c3.377,3.891,10.988,10.794,24.551,14.12c18.868,4.625,61.511,10.232,101.678,6.716c38.493-3.372,79.925,25.683,80.338,25.977
	c0.323,0.229,0.696,0.341,1.067,0.341c0.516,0,1.026-0.216,1.39-0.63c0.623-0.712,0.606-1.781-0.041-2.473
	c-1.663-1.781-41.001-43.739-64.374-54.887c-20.08-9.579-59.589-10.715-85.732-11.467c-4.703-0.135-9.144-0.263-12.883-0.424
	c-17.357-0.747-28.389-7.082-32.918-10.294c0.014-0.101,0.044-0.198,0.05-0.3c0.061-1.057-0.333-2.089-1.085-2.835
	c-20.811-20.65-47.195-14.153-51.18-13.015c-0.685,0.05-1.989,0.189-3.748,0.531c-1.745-11.975-5.513-25.8-12.185-41.628
	c2.051,1.97,5.788,4.429,12.643,7.261c5.322,2.199,16.333,6.114,30.274,7.624c5.087,0.551,9.842,0.766,14.165,0.766
	c12.373,0,21.176-1.754,24.036-2.41c2.705,4.385,9.104,12.426,21.951,17.896c17.875,7.61,59.06,20.023,99.262,23.033
	c38.548,2.886,74.734,38.241,75.095,38.598c0.357,0.354,0.827,0.533,1.297,0.533c0.416,0,0.832-0.14,1.174-0.422
	c0.73-0.603,0.886-1.66,0.359-2.447c-1.354-2.026-33.408-49.781-54.676-64.554c-18.272-12.692-57.08-20.188-82.761-25.149
	c-4.619-0.892-8.982-1.735-12.644-2.497c-17.008-3.538-26.874-11.569-30.827-15.47c0.03-0.097,0.075-0.189,0.098-0.289
	c0.232-1.033,0.008-2.115-0.613-2.972c-8.043-11.096-18.243-16.532-27.248-19.129c5.049-3.808,9.322-7.956,12.818-12.431
	c5.064,3.183,14.908,8.664,27.809,12.454c15.382,4.518,28.155,5.211,34.541,5.211c1.48,0,2.602-0.037,3.349-0.073
	c1.887,4.794,6.762,13.84,18.441,21.495c16.247,10.651,54.589,30.152,93.624,40.224c37.431,9.657,66.792,50.855,67.085,51.27
	c0.356,0.507,0.927,0.783,1.509,0.783c0.308,0,0.618-0.077,0.903-0.237c0.825-0.464,1.165-1.478,0.786-2.345
	c-0.975-2.233-24.078-54.904-42.397-73.205c-15.74-15.724-52.611-29.965-77.01-39.389c-4.388-1.695-8.532-3.296-12.002-4.693
	c-16.115-6.49-24.405-16.14-27.607-20.679c0.048-0.09,0.107-0.172,0.147-0.266c0.411-0.975,0.383-2.08-0.077-3.033
	c-10.682-22.143-31.411-27.592-40.269-28.925c6.018-2.39,12.037-5.228,17.719-8.456c0.524,0.469,1.063,0.942,1.625,1.424
	c5.305,4.553,16.521,13.241,32.032,20.269c22.115,10.02,40.323,12.199,44.857,12.606c1.274,5.817,5.416,17.993,18.687,29.631
	c17.822,15.63,60.839,45.709,106.301,64.514c43.778,18.109,72.355,73.07,72.638,73.624c0.324,0.632,0.969,1.003,1.643,1.003
	c0.224,0,0.451-0.041,0.671-0.127c0.881-0.345,1.358-1.301,1.104-2.213c-0.798-2.864-19.766-70.437-38.767-95.631
	c-16.314-21.629-58.449-45.103-86.331-60.637c-5.021-2.797-9.764-5.44-13.726-7.722c-19.146-11.027-27.506-24.744-30.354-30.509
	c0.067-0.091,0.145-0.173,0.204-0.271c0.542-0.909,0.668-2.007,0.345-3.014c-4.576-14.299-12.95-23.906-21.445-30.319
	c2.322,1.226,4.757,2.435,7.321,3.597c22.116,10.02,40.325,12.199,44.858,12.606c1.275,5.817,5.417,17.994,18.686,29.631
	c17.822,15.63,60.84,45.709,106.301,64.514c35.704,14.768,61.292,54.044,69.672,68.332c-19.437,44.923-47.336,93.07-47.73,93.747
	c-0.015,0.025-0.022,0.052-0.036,0.078c-0.01,0.019-0.024,0.035-0.033,0.054c-11.492,24.404-69.666,63.992-70.253,64.389
	c-0.007,0.005-0.012,0.012-0.02,0.017c-0.007,0.005-0.015,0.007-0.021,0.012c-4.529,3.266-36.612,8.033-57.071,10.441
	c-0.796,0.093-1.422,0.723-1.51,1.519c-0.089,0.796,0.383,1.548,1.138,1.815c12.579,4.438,24.321,5.807,34.031,5.807
	c15.127,0,25.313-3.326,25.996-3.556c0.019-0.006,0.032-0.02,0.05-0.027c0.039-0.014,0.079-0.021,0.117-0.039
	c36.555-16.669,84.913-67.05,85.398-67.557c0.016-0.016,0.025-0.036,0.04-0.052c0.014-0.015,0.031-0.026,0.044-0.042
	c34.802-42.256,73.504-155.998,73.891-157.142c0.007-0.019,0.006-0.039,0.012-0.059c0.028-0.094,0.048-0.19,0.06-0.289
	c0.004-0.035,0.011-0.069,0.013-0.105c0.001-0.016,0.005-0.03,0.006-0.046c0.32-10.311,0.424-20.18,0.355-29.584
	c4.896,32.312,5.965,58.079,6.035,59.916c-3.484,48.62-46.109,149.116-46.54,150.126c-0.012,0.026-0.016,0.054-0.025,0.081
	c-0.008,0.021-0.021,0.039-0.027,0.06c-8.384,25.639-61.213,72.121-61.746,72.587c-0.007,0.006-0.012,0.015-0.018,0.021
	c-0.006,0.005-0.013,0.008-0.019,0.013c-4.09,3.801-35.336,12.501-55.34,17.422c-0.778,0.191-1.321,0.894-1.311,1.694
	c0.011,0.801,0.571,1.489,1.354,1.66c7.74,1.691,15.053,2.345,21.736,2.345c22.096,0,37.288-7.145,38.107-7.539
	c0.024-0.011,0.04-0.032,0.063-0.045c0.03-0.016,0.063-0.023,0.093-0.041c34.211-21.064,75.966-77.042,76.384-77.604
	c0.015-0.02,0.023-0.043,0.037-0.064c0.011-0.015,0.024-0.025,0.034-0.041c29.306-46.238,53.636-163.895,53.878-165.078
	c0.004-0.019,0.001-0.038,0.005-0.057c0.017-0.099,0.024-0.2,0.023-0.303c0-0.032,0.002-0.063,0-0.095
	c-0.001-0.017,0.002-0.033,0-0.05c-8.661-92.812-30.366-147.865-30.584-148.411c-0.009-0.023-0.024-0.041-0.034-0.063
	c-0.022-0.049-0.05-0.093-0.076-0.139c-0.049-0.087-0.104-0.169-0.166-0.245c-0.034-0.042-0.069-0.081-0.107-0.12
	c-0.077-0.077-0.161-0.144-0.251-0.206c-0.027-0.019-0.047-0.045-0.075-0.062c-3.272-1.972-6.476-4.148-9.605-6.49
	c-2.258-13.32-4.112-20.544-4.165-20.743c-0.006-0.023-0.019-0.043-0.025-0.065c-0.017-0.052-0.039-0.101-0.06-0.152
	c-0.038-0.091-0.081-0.178-0.133-0.26c-0.029-0.046-0.06-0.09-0.093-0.134c-0.066-0.086-0.142-0.162-0.223-0.234
	c-0.024-0.022-0.041-0.051-0.067-0.071c-4.372-3.438-8.546-7.282-12.521-11.426c3.404,0.539,6.862,1.08,10.368,1.623
	c25.937,30.616,44.931,63.081,45.957,64.847c16.94,38.312,25.072,131.762,25.152,132.702c0.001,0.014,0.01,0.026,0.012,0.041
	c0.003,0.029,0,0.057,0.005,0.086c3.966,22.84-17.409,79.406-17.625,79.974c-0.003,0.007-0.003,0.015-0.005,0.022
	c-0.003,0.007-0.008,0.012-0.01,0.019c-1.574,4.533-21.786,23.726-34.988,35.52c-0.513,0.458-0.643,1.21-0.312,1.814
	c0.265,0.483,0.768,0.769,1.298,0.769c0.132,0,0.267-0.018,0.398-0.055c28.235-7.9,42.729-27.233,43.333-28.052
	c0.012-0.015,0.015-0.034,0.024-0.049c0.02-0.027,0.044-0.05,0.061-0.079c17.481-29.771,26.624-89.084,26.714-89.68
	c0.004-0.024,0.001-0.049,0.003-0.073c0.002-0.012,0.009-0.022,0.01-0.035c2.746-35.612-13.27-101.31-21.27-131.319
	c0.374,0.455,0.627,0.766,0.734,0.899c26.317,41.032,52.344,147.038,52.604,148.105c0.005,0.018,0.017,0.032,0.021,0.049
	c0.009,0.031,0.01,0.063,0.021,0.094c8.636,25.555-5.85,94.415-5.997,95.107c-0.002,0.009,0,0.017-0.002,0.026
	c-0.002,0.008-0.006,0.016-0.008,0.024c-1.001,5.493-20.817,31.169-33.894,47.088c-0.509,0.619-0.523,1.506-0.035,2.142
	c0.334,0.435,0.844,0.673,1.366,0.673c0.239,0,0.482-0.05,0.712-0.155c31.058-14.123,44.275-38.94,44.822-39.99
	c0.011-0.021,0.011-0.043,0.021-0.064c0.017-0.034,0.04-0.063,0.054-0.099c14.791-37.354,14.72-107.189,14.717-107.89
	c0-0.019-0.006-0.037-0.006-0.056c-0.001-0.024,0.003-0.046,0.001-0.07c-4.211-54.58-55.166-163.385-55.681-164.478
	c-0.068-0.147-0.16-0.277-0.265-0.396c-0.007-0.008-0.009-0.018-0.016-0.026c-13.8-15.268-27.005-28.677-39.214-40.314
	c9.183,1.262,18.561,2.504,28.086,3.71c17.268,19.128,32.279,40.343,32.526,40.694c0.006,0.008,0.014,0.013,0.02,0.021
	c0.004,0.006,0.006,0.013,0.011,0.02c3.348,4.468,8.701,36.458,11.482,56.87c0.108,0.794,0.749,1.408,1.547,1.482
	c0.054,0.005,0.107,0.007,0.16,0.007c0.735,0,1.397-0.47,1.633-1.179c10.761-32.377,1.551-58.943,1.153-60.058
	c-0.008-0.021-0.023-0.036-0.032-0.057c-0.014-0.035-0.02-0.073-0.036-0.108c-5.281-11.041-13.712-23.12-22.896-34.594
	c6.006,0.697,11.964,1.37,17.853,2.008c24.305,30.196,44.188,58.969,44.54,59.478c0.013,0.019,0.031,0.032,0.045,0.05
	c0.017,0.022,0.027,0.048,0.045,0.069c17.167,20.807,28.144,90.313,28.253,91.012c0.001,0.008,0.005,0.014,0.007,0.022
	c0.001,0.009-0.001,0.019,0.001,0.028c1.021,5.49-8.357,36.538-14.911,56.069c-0.255,0.759,0.048,1.594,0.73,2.014
	c0.278,0.172,0.591,0.256,0.901,0.256c0.448,0,0.893-0.175,1.225-0.511c23.996-24.254,27.514-52.151,27.651-53.327
	c0.003-0.022-0.005-0.043-0.003-0.066c0.003-0.038,0.015-0.074,0.015-0.112c0.524-40.172-24.402-105.407-24.653-106.061
	c-0.007-0.018-0.02-0.034-0.027-0.052c-0.009-0.021-0.013-0.043-0.022-0.064c-6.329-13.41-17.284-29.319-29.906-45.404
	c44.599,4.109,85.386,6.36,121.767,6.7c3.136,0.029,6.23,0.044,9.301,0.045c7.159,4.745,14.691,8.87,22.346,12.732
	c43.922,21.842,92.94,32.836,141.906,33.71c19.615,0.182,39.323-0.543,58.655-4.197c38.745-7.384,74.6-30.029,96.295-63.223
	c27.283-40.729,34.136-97.7,7.954-140.615c-5.104-8.49-11.912-15.795-18.472-23.139c-10.431-11.699-21.396-22.965-32.902-33.646
	c-0.438-0.406-0.873-0.815-1.313-1.219c-15.121-13.928-31.177-26.835-48.21-38.349c-112.989-76.586-265.327-101.884-399.188-114.046
	c-143.606-13.157-296.19-5.264-440.334-7.809c-29.284-0.77-58.592-1.997-87.757-4.696c-13.678-1.253-27.301-2.831-40.896-4.71
	c-3.132-0.433-6.262-0.877-9.391-1.343c-2.604-0.387-5.205-0.783-7.807-1.193c-58.044-8.965-116.954-15.234-175.743-11.831
	c-19.508,1.429-39.312,3.231-57.933,9.566c-0.159,0.06-0.242,0.236-0.187,0.397c0.06,0.172,0.255,0.256,0.422,0.185
	c4.573-1.596,9.373-2.652,14.15-3.601c33.668-6.157,68.148-5.867,102.218-4.098c38.11,1.854,75.813,7.591,113.528,13.19
	c3.066,0.455,6.133,0.909,9.199,1.361c36.717,5.403,73.477,10.365,110.663,11.177c39.143,1.878,78.356,2.262,117.531,2.325
	c161.079-0.49,323.353-4.326,482.688,23.003c71.967,12.433,143.688,30.77,209.657,62.635c38.676,18.453,74.396,42.623,106,71.426
	c0.43,0.391,0.858,0.782,1.287,1.175c11.135,10.228,21.757,21.029,31.806,32.366c3.273,3.605,6.559,7.271,9.709,10.937
	c9.405,10.996,16.099,24.143,20.129,38.027c16.103,56.571-10.903,120.494-59.774,152.054c-32.85,22.217-73.184,26.866-111.963,26.32
	c-56.689-0.966-114.514-14.67-162.893-44.875c60.184-0.067,107.826-5.629,141.713-16.559c3.668,0.37,30.811,2.999,58.477,2.525
	c39.615-0.679,61.847-7.236,66.113-19.493c3.229-1.664,14.825-8.439,15.887-20.416c4.389-0.532,15.18-2.367,17.933-7.718
	c0.743-1.445,1.254-3.797-0.537-6.791c-2.286-3.805-2.228-7.291-2.176-10.366c0.069-4.065,0.147-8.673-6.95-10.063
	c-2.314-0.468-6.87-1.117-13.175-2.014c-19.797-2.819-56.646-8.067-74.446-15.471c-15.991-6.685-39.089-9.757-57.648-12.224
	c-9.191-1.222-17.129-2.278-22.847-3.559c-3.509-0.752-6.8-1.936-10.083-3.632c-0.63-0.315-1.265-0.678-1.86-1.061
	c-0.168-0.112-0.351-0.224-0.532-0.336c-0.139-0.085-0.278-0.171-0.445-0.281c-0.897-0.568-1.674-1.12-2.369-1.685l-0.284-0.231
	c-0.409-0.334-0.788-0.641-1.139-0.953c-1.108-0.977-2.028-1.926-2.776-2.781c15.868,2.709,68.387,11.119,108.979,11.117
	c3.39,0,6.705-0.059,9.899-0.184c38.468-1.538,51.663-2.99,53.995-8.548c0.818-1.952,0.179-4.105-1.966-6.467l-0.643-0.643
	c-0.147-0.148-0.295-0.282-0.443-0.415c-0.098-0.088-0.195-0.175-0.293-0.273c-0.029-0.03-0.061-0.06-0.093-0.088
	c-0.847-0.746-1.778-1.523-2.863-2.16c-1.025-0.694-2.065-1.215-3.072-1.718c-0.029-0.015-0.063-0.031-0.093-0.044
	c-2.14-0.94-4.409-1.631-6.769-2.06c-7.062-1.198-18.293-3.18-31.738-5.815c-0.485-0.095-0.976-0.192-1.466-0.289
	c-39.866-7.86-98.159-21.301-125.77-37.107c0.268-4.399,0.333-18.44-9.499-20.367c-3.167-0.639-7.565-0.52-12.659-0.38
	c-10.803,0.295-24.246,0.662-29.085-6.627c-7.995-11.967-14.337-20.438-23.168-20.438c-9.421,0-34.933-2.147-39.979-5.54
	c-1.776-1.18-3.011-3.761-4.316-6.495c-2.331-4.876-5.239-10.94-12.778-9.418c-10.474,2.116-42.522,1.534-49.263-3.543
	c-2.59-1.939-4.292-4.43-5.938-6.839c-3.099-4.536-6.304-9.226-14.802-9.226c-2.132,0-4.751,0.065-7.525,0.134
	c-12.296,0.307-30.875,0.77-38.397-3.751c-3.134-1.873-4.685-3.925-6.326-6.097c-3.147-4.164-6.402-8.469-19.917-9.797
	c-5.994-0.604-13.529-1.029-21.507-1.479c-17.952-1.013-40.295-2.273-56.442-6.31c-5.071-1.268-13.455-4.688-24.069-9.019
	c-36.602-14.932-104.652-42.693-165.924-32.149c-1.86-0.53-9.299-2.559-20.791-4.545c-1.463-4.054-2.573-6.005-2.692-6.208
	c-0.324-0.554-0.787-1.014-1.344-1.335c-1.13-0.65-27.862-15.773-48.578-3.66c-2.888,1.688-6.286,3.773-9.884,5.98
	c-20.629,12.655-51.792,31.777-73.231,30.515c-5.596-0.33-12.402-1.456-19.608-2.649c-24.915-4.122-58.624-9.679-72.272,15.501
	c-8.084-3.816-28.497-11.555-45.068-1.863c-4.539,2.654-15.358,8.734-29.055,16.431c-77.441,43.522-120.14,68.112-124.003,73.419
	c-3.543,4.867-5.005,11.035-4.06,17.007c-6.644,2.488-23.916,10.149-44.968,28.779c-24.208,21.424-58.225,62.145-82.825,134.499
	c-0.433,1.162-4.424,12.481,0.352,21.796c1.082,2.11,2.526,3.924,4.285,5.469c-9.072,3.466-19.072,11.113-21.222,25.765
	c-3.462,23.597-13.637,144.188-12.623,161.749c-0.061,2.456-0.8,36.364,4.371,66.436c1.705,9.915,0.516,22.282-0.744,35.375
	c-2.586,26.868-5.517,57.321,15.718,78.137c1.222,1.198,2.461,2.306,3.708,3.373c-4.606,8.394-18.097,35.411-27.893,79.928
	c-10.787,49.016-18.784,129.315,4.373,233.503C310.819,1442.336,310.96,1442.694,311.152,1443.024z M321.892,883.979
	c1.998-26.212,4.527-55.285,6.576-75.866c1.061-10.67,1.995-19.065,2.657-23.579c2.721-18.541,20.755-21.411,24.179-21.79
	c2.194,0.564,4.782,1.181,7.761,1.889c24.88,5.912,76.65,18.215,107.486,51.974c6.403,7.01,12.637,14.183,18.665,21.121
	c15.976,18.385,30.73,35.354,45.454,45.894c6.209,10.789,11.172,20.786,15.093,30.038c6.972,16.451,10.653,30.549,12.138,42.519
	c2.067,16.676-0.105,29.239-3.502,38.339c-6.674,17.881-19.548,26.473-26.102,28.73c-15.795,5.44-75.994-25.886-93.365-48.573
	c-8.717-11.385-18.983-14.67-29.757-14.67c-7.457,0-15.159,1.575-22.752,3.129c-6.24,1.276-12.693,2.597-18.905,3.004
	c-22.352,1.464-48.028-7.29-48.941-21.2C318.135,938.221,319.691,912.84,321.892,883.979z M347.328,732.998
	c0.018-0.045,0.033-0.091,0.049-0.136c10.215-30.056,22.058-54.485,34.097-74.259c16.224-26.648,32.806-44.825,46.248-56.786
	c4.9-4.361,9.598-8.099,13.99-11.297c13.509-9.835,24.118-14.536,28.814-16.341c1.86,3.598,5.008,7.493,10.321,10.959
	c6.089,3.972,28.008,26.948,51.712,58.102c28.017,36.821,47.355,70.486,54.454,94.795c8.102,27.744,17.976,49.609,29.349,64.987
	c9.219,12.465,19.179,20.157,29.002,22.486c-0.207,9.278-2.731,17.689-7.536,25.182c-4.336,6.76-10.516,12.779-18.548,18.004
	c-3.186,2.073-6.525,3.929-9.938,5.604c-14.058,6.898-29.396,10.603-40.764,12.558c-23.408,4.02-46.754-22.848-73.794-53.966
	c-6.058-6.971-12.322-14.18-18.786-21.258c-32.367-35.435-85.631-48.093-111.227-54.176c-3.222-0.766-6.005-1.427-8.239-2.012
	c-4.52-1.184-7.525-3.328-9.19-6.553C343.904,742.229,347.297,733.08,347.328,732.998z M475.548,566.378
	c-0.754-4.103,0.248-8.547,2.633-11.827c2.053-2.367,16.19-11.034,34.801-21.923c27.354-16.004,64.372-36.808,86.9-49.469
	c5.926-3.33,11.311-6.356,15.891-8.939c6.029-3.4,10.663-6.029,13.273-7.555c4.571-2.673,9.643-3.652,14.622-3.652
	c9.822,0,19.275,3.81,23.793,5.939c-6.309,19.14-0.672,45.001,5.285,72.299c5.3,24.281,10.779,49.389,8.536,71.821
	c-2.673,26.719,0.512,55.27,8.737,78.332c9.711,27.227,25.308,44.36,45.103,49.548c0.135,0.035,0.275,0.07,0.411,0.105
	c0.69,9.396,0.44,19.893-2.18,29.224c-1.009,3.595-2.368,7.019-4.164,10.137c-5.801,10.071-17.684,18.81-30.825,25.414
	c-18.091,9.091-38.571,14.125-48.889,12.941c-15.607-1.793-38.352-24.489-55.38-82.806
	c-17.038-58.345-93.874-146.997-109.217-157.007C479.661,575.555,476.435,571.204,475.548,566.378z M675.46,468.583
	c5.989-14.239,18.953-18.25,34.004-18.25c10.215,0,21.392,1.849,31.994,3.604c7.403,1.225,14.396,2.382,20.38,2.735
	c0.151,0.009,0.307,0.007,0.458,0.014c23.693,1.128,55.785-18.552,77.065-31.606c0.581-0.357,1.147-0.703,1.716-1.052
	c2.921-1.79,5.674-3.468,8.034-4.848c15.097-8.829,35.673,0.826,40.251,3.191c1.563,3.306,6.93,16.384,8.687,43.197
	c0.929,14.169-6.79,47.635-14.962,83.065c-10.627,46.075-21.615,93.718-18.259,116.144c1.906,12.737,2.663,24.537,2.542,34.97
	c-0.281,24.1-5.279,40.857-11.823,44.683c-0.731,0.428-1.719,0.798-2.924,1.117c-16.64,4.404-76.142-1.384-115.629-11.733
	c-36.827-9.651-53.514-68.597-48.371-120.009c2.361-23.596-3.246-49.285-8.668-74.128
	C673.911,511.988,668.202,485.834,675.46,468.583z M1167.243,756.627c-116.871-14.005-215.927-34.48-216.913-34.685
	c-0.123-0.026-0.247-0.038-0.37-0.038c-0.455,0-0.903,0.168-1.262,0.46c-0.198,0.161-0.36,0.361-0.48,0.585
	c-2.629,3.882-5.621,7.655-8.885,11.208c-1.285,1.38-2.613,2.807-4.018,4.116c-1.129,1.089-6.509,2.927-29.856,3.001
	c-9.849,0.052-21.143-0.168-30.215-0.344l-7.188-0.148h-0.34c8.337-17.035,8.574-49.255,4.407-77.095
	c-3.149-21.041,8.166-70.105,18.15-113.394c2.161-9.369,4.248-18.42,6.148-26.964c5.713-25.686,9.736-46.797,8.986-58.242
	c-0.422-6.441-1.046-12.128-1.778-17.128c-1.245-8.495-2.806-14.983-4.24-19.728c11.704,2.116,18.589,4.164,18.723,4.205
	c0.294,0.089,0.603,0.107,0.905,0.055c60.271-10.565,127.893,17.02,164.22,31.84c10.759,4.389,19.257,7.857,24.598,9.192
	c16.507,4.127,39.055,5.399,57.172,6.421c7.933,0.448,15.426,0.87,21.339,1.466c11.815,1.161,14.304,4.452,17.186,8.264
	c1.711,2.264,3.651,4.831,7.435,7.092c8.495,5.105,27,4.644,40.506,4.306c2.868-0.072,5.345-0.133,7.428-0.133
	c6.434,0,8.59,3.155,11.573,7.522c1.741,2.548,3.714,5.437,6.818,7.76c8.475,6.383,42.288,6.288,52.386,4.249
	c4.34-0.877,6.047,2.192,8.475,7.271c1.479,3.092,3.006,6.29,5.674,8.061c6.817,4.584,36.338,6.199,42.15,6.199
	c6.891,0,12.601,7.75,19.913,18.695c6.035,9.09,20.68,8.69,32.446,8.368c4.653-0.128,9.048-0.247,11.79,0.306
	c7.8,1.529,6.288,17.227,6.271,17.385c-0.084,0.764,0.286,1.508,0.947,1.899c37.211,22.024,132.917,39.486,161.341,44.309
	c2.036,0.37,4.013,0.972,5.788,1.749c0.951,0.476,1.85,0.926,2.676,1.49c0.041,0.027,0.082,0.053,0.124,0.078
	c0.8,0.463,1.557,1.092,2.257,1.708c0.133,0.131,0.266,0.251,0.398,0.372c0.098,0.087,0.195,0.174,0.295,0.274l0.573,0.57
	c1.079,1.191,1.324,1.95,1.193,2.262c-1.763,4.202-31.119,5.376-50.544,6.153c-48.123,1.893-122.011-11.565-122.752-11.701
	c-0.406-0.074-0.809-0.007-1.168,0.159c-0.29,0.134-0.553,0.328-0.752,0.594c-0.445,0.596-0.514,1.392-0.178,2.055
	c0.075,0.148,1.896,3.682,6.311,7.577c0.386,0.342,0.806,0.686,1.263,1.058l0.282,0.23c0.82,0.667,1.72,1.308,2.711,1.934
	c0.167,0.111,0.347,0.222,0.527,0.333c0.14,0.086,0.28,0.172,0.437,0.275c0.739,0.476,1.497,0.909,2.23,1.276
	c3.573,1.846,7.184,3.144,11.018,3.966c5.868,1.315,13.886,2.381,23.169,3.615c18.331,2.437,41.144,5.471,56.659,11.957
	c18.262,7.597,55.432,12.89,75.399,15.733c6.005,0.855,10.748,1.531,12.963,1.978c3.896,0.763,3.873,2.124,3.804,6.161
	c-0.055,3.242-0.13,7.681,2.732,12.443c0.94,1.573,0.687,2.46,0.413,2.991c-1.73,3.367-11.035,5.337-16.493,5.788
	c-1.015,0.084-1.795,0.931-1.795,1.949c0,12.258-14.336,18.957-14.479,19.022c-0.529,0.24-0.924,0.704-1.077,1.264
	c-6.069,22.173-89.466,18.301-121.091,14.937c-0.272-0.029-0.548,0-0.812,0.085c-0.078,0.025-0.158,0.049-0.236,0.074
	C1436.785,773.99,1321.549,775.118,1167.243,756.627z M1269.856,916.406l8.537,3.231c-0.907,5.231-5.247,25.152-21.1,44.084
	C1261.463,950.821,1269.111,926.132,1269.856,916.406z M1269.658,912.648c-1.417-8.766-11.486-68.16-27.573-90.05l12.771-7.03
	c3.939,10.636,23.289,64.648,23.73,100.459L1269.658,912.648z M1240.017,819.805c-4.01-5.747-21.039-29.906-41.675-55.735
	c8.238,0.874,16.358,1.69,24.358,2.446c12.85,16.169,24.139,32.258,30.81,45.862L1240.017,819.805z M1196.422,847.604
	c-1.98-13.412-6.066-38.931-9.708-47.979l9.083-0.887C1197.299,803.836,1202.225,823.644,1196.422,847.604z M1184.871,796.345
	c-2.867-4.022-15.076-20.895-29.496-37.23c3.771,0.47,7.562,0.934,11.374,1.391c1.36,0.163,2.698,0.315,4.053,0.475
	c9.252,11.32,17.92,23.356,23.569,34.436L1184.871,796.345z M1163.291,1101.384c8.488-10.571,24.423-30.918,28.581-39.742
	l6.826,6.058C1195.981,1072.267,1184.807,1089.348,1163.291,1101.384z M1200.164,1064.396l-7.14-6.336
	c1.797-8.697,13.53-67.784,6.29-93.967l14.435-2.023C1213.645,973.413,1212.499,1030.773,1200.164,1064.396z M1198.375,960.748
	c-3.277-13.092-27.359-107.171-52.022-146.608l13.15-14.82c7.396,16.067,49.521,109.372,54.125,159.289L1198.375,960.748z
	 M1144.257,811.313c-0.952-1.152-2.419-2.909-4.333-5.15c-1.323-4.794-2.147-7.619-2.195-7.783c-0.039-0.133-0.1-0.255-0.172-0.369
	c-0.005-0.008-0.006-0.018-0.011-0.026c-11.531-17.562-22.688-32.768-32.894-45.686c3.797,0.546,7.631,1.09,11.505,1.631
	c12.805,12.04,26.798,26.101,41.49,42.293L1144.257,811.313z M1098.923,1058.386c8.602-7.858,24.813-23.038,29.507-29.982
	l4.999,6.043C1130.52,1037.968,1118.779,1051,1098.923,1058.386z M1100.39,751.683c10.456,13.094,21.99,28.677,33.954,46.82
	l-13.359,11.05c-3.966-6.666-20.815-34.296-43.241-61.251C1085.096,749.429,1092.654,750.559,1100.39,751.683z M1160.13,946.732
	c-1.583,9.617-10.112,58.172-25.021,85.104l-5.229-6.321c2.672-7.148,20.423-55.778,17.724-78.967L1160.13,946.732z
	 M1160.482,943.777l-13.234-0.195c-1.058-11.549-9.11-94.614-24.856-131.353l13.119-10.852
	C1139.674,815.996,1163.151,900.782,1160.482,943.777z M986.055,1166.684l1.842,8.94c-4.903,2.035-24.056,9.032-48.53,5.779
	C952.494,1178.019,977.441,1171.261,986.055,1166.684z M991.048,1173.854l-1.926-9.35c6.647-5.89,51.422-46.191,61.298-71.497
	l12.774,7.022C1056.32,1109.05,1021.065,1154.305,991.048,1173.854z M1086.986,787.868c-0.432,1.38-1.576,3.915-4.441,6.37
	c-0.511-3.716-1.023-7.162-1.525-10.33C1082.982,785.295,1084.97,786.621,1086.986,787.868z M1083.071,798.185
	c2.923-2.049,4.732-4.31,5.843-6.246c5.099,14.411,21.319,64.838,28.64,141.663l-18.512,3.813l-1.248,0.257
	c-0.419-8.601-2.482-43.216-9.92-81.064C1086.974,833.321,1085.083,813.661,1083.071,798.185z M1065.169,1097.185l-13.497-7.42
	c5.213-12.449,42.251-102.22,46.108-148.573l19.405-3.997C1113.49,954.49,1091.37,1054.443,1065.169,1097.185z M1084.652,907.745
	l-9.864,0.782l-10.246,0.812c0.958-12.696,5.383-82.253-7.788-137.125c9.601-1.217,14.541-5.306,17.008-8.587
	C1077.04,778.552,1086.896,830.569,1084.652,907.745z M925.324,1122.764l0.72,9.098c-5.124,1.408-25.021,5.972-48.869-0.269
	C890.621,1129.858,916.21,1126.24,925.324,1122.764z M929.391,1130.497l-0.753-9.516c7.326-5.024,56.74-39.474,69.672-63.363
	l11.807,8.549C1002.18,1074.268,961.596,1114.812,929.391,1130.497z M1011.447,912.965c-10.279-9.785-22.318-18.708-35.781-24.277
	c-44.731-18.502-88.314-49.001-105.279-63.879c-12.393-10.869-16.294-22.364-17.486-27.629c0.055-0.045,0.115-0.08,0.167-0.129
	c0.738-0.688,1.162-1.648,1.174-2.656c0.082-7.255,3.859-12.354,8.431-15.88c5.676-4.379,12.565-6.328,15.152-6.94
	c3.07,6.294,11.764,20.463,31.822,32.016c3.986,2.296,8.741,4.945,13.775,7.75c27.609,15.382,69.334,38.627,85.177,59.634
	c13.353,17.703,27.118,58.346,33.882,80.079C1035.883,940.807,1025.254,926.107,1011.447,912.965z M945.452,916.441
	c13.353,17.703,27.118,58.345,33.881,80.079c-6.162-9.568-15.839-23.025-28.338-35.468c-10.848-10.799-23.819-20.834-38.476-26.896
	c-44.731-18.503-88.314-49.001-105.279-63.879c-12.393-10.869-16.294-22.364-17.486-27.629c0.054-0.045,0.115-0.08,0.167-0.129
	c0.738-0.688,1.162-1.648,1.174-2.656c0.061-5.334,2.123-9.497,5.024-12.734c5.944-6.633,15.419-9.344,18.558-10.087
	c3.07,6.294,11.764,20.463,31.822,32.016c3.985,2.295,8.739,4.944,13.772,7.748C887.883,872.187,929.608,895.433,945.452,916.441z
	 M810.171,810.587c-9.967,2.973-23.771,10.717-26.111,25.168c-6.68-0.878-22.01-3.625-39.75-11.663
	c-12.467-5.648-22.929-12.851-30.126-18.986c9.134-6.022,16.854-13.117,21.398-21.007c1.889-3.279,3.359-6.811,4.485-10.489
	c17.137-2.181,27.946,2.81,28.142,2.903c0.309,0.149,0.636,0.254,0.973,0.313C769.49,776.881,798.868,782.313,810.171,810.587z
	 M925.217,808.117c-5.023-2.798-9.766-5.441-13.729-7.724c-19.146-11.027-27.507-24.743-30.354-30.51
	c0.067-0.091,0.146-0.173,0.204-0.271c0.542-0.909,0.668-2.007,0.345-3.015c-2.896-9.048-7.317-16.207-12.323-21.88l5.807,0.12
	c9.096,0.177,20.425,0.397,30.309,0.345c25.027-0.079,30.501-2.115,32.529-4.073c1.482-1.38,2.859-2.859,4.199-4.298
	c3.151-3.429,6.053-7.048,8.638-10.774c5.519,1.124,28.088,5.657,61.41,11.502c16.026,21.206,33.209,40.13,44.543,52.023
	c9.619,55.566,4.413,118.504,4.164,121.399c-2.357,11.898-7.517,26.682-13.946,42.195c-6.357-20.882-20.901-65.093-35.468-84.404
	C995.231,847.124,953.098,823.65,925.217,808.117z M1053.033,771.485c0.96,3.882,1.829,7.843,2.615,11.857
	c-10.547-11.239-24.791-27.194-38.421-44.933c4.188,0.727,8.526,1.472,13.013,2.232
	C1042.025,757.608,1051.413,769.459,1053.033,771.485z M766.825,747.868c0.031-0.063,0.076-0.136,0.116-0.206
	c22.975,3.953,48.454,6.731,67.251,6.731c11.669,0,20.763-1.07,25.078-3.593c1.177-0.688,2.269-1.564,3.298-2.576
	c4.189,4.431,7.997,9.972,10.753,16.895c-9.968,2.972-23.776,10.719-26.116,25.173c-6.663-0.87-21.951-3.603-39.749-11.667
	C784.295,768.132,768.036,752.267,766.825,747.868z M1046.894,965.72c0.324,0.632,0.969,1.003,1.643,1.003
	c0.224,0,0.451-0.041,0.671-0.127c0.881-0.345,1.358-1.301,1.104-2.213c-0.13-0.465-0.74-2.642-1.749-6.057
	c7.044-16.599,12.822-32.611,15.53-45.498l19.75-1.565c-5.808,16.706-40.129,113.157-71.415,152.324l-12.475-9.033
	c4.592-8.007,28.426-50.058,46.097-90.404C1046.58,965.116,1046.866,965.667,1046.894,965.72z M1072.353,759.349
	c-1.094,2.403-4.982,8.34-16.969,9.56c-2.166-2.725-10.222-12.99-20.391-27.468c7.159,1.2,14.651,2.431,22.448,3.68
	C1062.126,750.31,1067.094,755.115,1072.353,759.349z M684.505,824.347c0.319,0.102,0.66,0.161,0.995,0.173
	c1.021,0.038,23.965,1.137,36.162,21.73c-7.676,3.695-17.416,11.409-18.001,23.008c-0.023,0-0.047,0-0.071,0
	c-5.8,0-18.052-0.612-32.646-4.899c-10.206-2.998-19.233-7.457-25.716-11.49c4.269-7.243,6.733-15.235,7.37-23.942
	c2.302-1.254,4.755-2.34,7.323-3.165c3.652-0.47,7.66-1.247,11.882-2.309C679.532,822.871,684.372,824.306,684.505,824.347z
	 M844.098,917.17c12.212,12.199,27.116,41.254,35.368,58.519c-4.146-4.705-9.531-10.331-15.902-15.942
	c-11.753-10.35-26.87-20.649-43.822-25.023c-38.33-9.89-77.094-29.622-92.524-39.737c-10.744-7.043-15.266-15.428-16.986-19.706
	c0.038-0.042,0.083-0.076,0.119-0.12c0.635-0.784,0.921-1.793,0.792-2.794c-0.76-5.887,1.875-10.412,5.275-13.715
	c3.831-3.723,8.628-5.892,10.648-6.696c3.486,4.996,12.194,15.077,29.249,21.946c3.495,1.407,7.651,3.013,12.052,4.713
	C792.476,887.924,828.909,901.997,844.098,917.17z M780.129,939.949c14.176,9.848,33.983,35.809,45.159,51.342
	c-7.22-5.729-17.422-12.939-29.306-18.853c-11.119-5.533-23.71-9.931-36.724-10.906c-39.475-2.955-81.117-15.521-98.092-22.748
	c-11.821-5.032-17.754-12.485-20.204-16.392c0.029-0.048,0.068-0.089,0.096-0.139c0.486-0.884,0.59-1.928,0.286-2.89
	c-1.126-3.563-0.827-6.831,0.233-9.726c2.521-6.888,9.375-11.652,11.829-13.179c4.314,4.3,14.669,12.683,32.669,16.427
	c3.688,0.767,8.064,1.612,12.696,2.507C724.148,920.294,762.497,927.701,780.129,939.949z M647.077,891.802
	c-6.9,4.995-15.12,14.308-13.646,25.827c-5.68,1.025-17.884,2.61-33.067,0.964c-19.592-2.123-36.104-9.894-38.811-13.048
	c0.446-1.868,2.93-6.407,6.986-11.226c0.429-0.058,0.858-0.119,1.288-0.193c13.779-2.37,33.173-7.222,49.791-16.981
	C627.748,878.355,638.528,881.938,647.077,891.802z M573.338,959.483c0.336-0.01,0.676-0.068,0.996-0.168
	c0.977-0.305,22.974-6.917,41.339,8.435c-6.007,6.042-12.618,16.564-9.303,27.697c-5.42,1.927-17.169,5.452-32.479,6.282
	c-3.612,0.195-7.151,0.185-10.545,0.023c0.693-1.498,1.36-3.035,1.965-4.654c3.387-9.076,5.684-21.278,4.369-37.066
	C571.926,959.552,573.274,959.485,573.338,959.483z M754.745,993.802c15.58,7.432,39.315,29.857,52.851,43.383
	c-8.458-4.717-20.425-10.52-33.899-14.465c-9.256-2.71-19.224-4.542-29.256-4.542c-2.267,0-4.543,0.094-6.81,0.292
	c-39.433,3.452-82.559-2.231-100.477-6.625c-12.477-3.059-19.535-9.458-22.584-12.918c0.021-0.052,0.053-0.099,0.072-0.153
	c0.337-0.951,0.271-1.998-0.185-2.898c-1.569-3.103-1.879-6.152-1.448-9.001c1.131-7.497,7.42-13.592,9.658-15.551
	c4.952,3.548,16.521,10.15,34.892,10.941c3.764,0.162,8.218,0.29,12.935,0.426C696.328,983.436,735.368,984.56,754.745,993.802z
	 M320.71,1065.194c0.341-5.795,0.903-11.652,1.463-17.465c1.309-13.599,2.545-26.444,0.673-37.332
	c-0.533-3.103-1.001-6.249-1.413-9.397c-1.999-15.261-2.663-30.566-2.853-41.266c10.531,9.863,30.648,14.997,49.42,13.764
	c6.714-0.44,13.418-1.811,19.901-3.138c17.834-3.648,33.231-6.798,45.173,8.799c16.749,21.875,70.215,52.002,95.1,51.998
	c1.063,0,2.063-0.067,3.018-0.181c7.248,18.516,12.908,35.617,16.959,51.215c4.683,18.03,7.236,34.072,7.583,47.948
	c0.084,3.364,0.026,6.576-0.143,9.667c-0.904,16.491-5.397,29.085-13.429,37.488c-12.848,13.437-32.125,13.113-44.731,8.752
	c-30.575-10.578-70.281-70.869-70.679-71.476c-0.705-1.079-1.884-1.67-3.091-1.67c-0.634,0-1.275,0.164-1.859,0.505
	c-17.693,10.344-35.756,20.907-53.606,20.906c-10.953-0.001-21.828-3.979-32.483-14.424
	C321.107,1105.573,319.501,1085.772,320.71,1065.194z M379.638,1140.499c14.826-2.975,29.083-10.925,42.893-18.974
	c8.604,12.642,43.248,61.379,72.488,71.495c5.389,1.864,11.839,3.079,18.6,3.079c4.535,0,9.21-0.557,13.799-1.821
	c0.57,16.144-2.663,36.32-7.518,56.767c-6.563,27.636-16.066,55.742-23.1,74.965c-18.89,51.629-37.766,89.251-41.861,92.762
	c-3.462,1.985-5.909,1.289-11.062-0.456c-4.648-1.575-10.435-3.535-18.819-2.986c-2.955,0.194-5.782,0.69-8.467,1.457
	c-12.871,3.679-22.389,13.732-26.164,28.137c-1.361,5.196-4.091,8.443-7.488,8.91c-3.172,0.437-6.547-1.54-8.589-5.034
	c-0.853-1.46-1.744-3.385-2.686-5.424c-3.339-7.223-7.494-16.211-16.108-18.917c-1.591-0.5-3.259-0.75-5-0.75
	c-4.235,0-8.899,1.477-13.929,4.418c-11.288,6.6-16.836,8.708-19.317,9.379c-18.087-83.091-16.111-150.507-9.043-198.427
	c1.548-10.489,3.335-20.06,5.214-28.639c4.242-19.371,9.256-35.44,13.896-48.027c5.383-14.602,10.257-24.5,12.838-29.355
	C352.047,1140.977,365.039,1143.429,379.638,1140.499z M512.529,1791.479c-0.313,0.021-0.634,0.031-0.965,0.031
	c-14.08-0.001-44.309-18.651-74.355-61.162c-13.416-18.981-26.796-42.714-38.686-71.677c-5.637-13.731-8.228-28.367-7.7-43.501
	c0.728-20.918,2.735-50.205,8.168-70.931c8.188-31.244,0.909-65.485-7.718-86.467c2.867-2.494,5.048-6.233,6.291-10.976
	c2.904-11.082,9.624-18.82,18.944-22.224c2.791-1.019,5.805-1.667,9.032-1.879c6.924-0.454,11.729,1.175,15.971,2.612
	c1.477,0.5,2.969,1.001,4.495,1.383c6.9,14.502,58.012,123.348,75.207,199.869c16.89,75.166,12.444,141.612-1.359,160.069
	C517.572,1789.677,515.108,1791.31,512.529,1791.479z M338.01,1518.963c-2.269-34.623-7.966-68.206-9.709-77.95
	c3.467-1.676,7.486-3.847,12.049-6.515c5.227-3.056,9.599-4.065,12.996-2.999c5.498,1.727,8.752,8.765,11.622,14.975
	c1.02,2.204,1.981,4.285,3.014,6.051c3.194,5.461,8.574,8.747,14.089,8.747c0.623,0,1.249-0.042,1.872-0.127
	c0.242-0.033,0.478-0.085,0.717-0.13c8.099,19.793,14.895,51.974,7.195,81.354c-5.604,21.382-7.664,51.252-8.404,72.544
	c-0.463,13.29,1.33,26.226,5.325,38.57c-4.727,14.258-7.547,41.856-8.894,58.551C359.868,1664.538,340.416,1555.678,338.01,1518.963
	z M547.073,890.859c4.023,1.776,8.066,2.978,12.158,3.493c-2.948,4.264-4.794,8.239-5.077,10.967
	C552.05,900.667,549.691,895.845,547.073,890.859z M770.937,769.652c-2.386-1.042-12.99-5.128-29.05-3.658
	c1.396-7.694,1.601-15.676,1.197-23.086c5.151,1.192,10.701,2.342,16.481,3.427c-1.031,4.251,3.274,10.553,12.813,18.741
	c2.646,2.271,6.766,5.572,12.152,9.181C777.916,771.211,772.593,769.984,770.937,769.652z"/>
<path style="fill:#E56533;" d="M368.195,1134.314c17.851,0.001,35.913-10.562,53.606-20.906c0.584-0.342,1.226-0.505,1.859-0.505
	c1.207,0,2.386,0.591,3.091,1.67c0.397,0.607,40.103,60.898,70.679,71.476c12.606,4.361,31.884,4.685,44.731-8.752
	c8.032-8.403,12.524-20.997,13.429-37.488c-76.727,0.926-114.044-72.496-159.334-85.002c-38.311-10.555-65.841,3.966-75.547,10.387
	c-1.209,20.578,0.397,40.38,15.002,54.696C346.367,1130.335,357.242,1134.313,368.195,1134.314z"/>
<path style="fill:#D8522A;" d="M396.257,1054.807c45.29,12.506,82.607,85.928,159.334,85.002c0.169-3.091,0.227-6.303,0.143-9.667
	c-0.347-13.876-2.9-29.918-7.583-47.948c-30.995,4.205-63.902-11.787-93.252-37.661c-38.159-33.621-50.861-38.244-88.518-31.908
	c-25.128,4.228-38.694-5.009-44.948-11.626c0.412,3.148,0.88,6.295,1.413,9.397c1.872,10.888,0.636,23.732-0.673,37.332
	c-0.56,5.813-1.122,11.67-1.463,17.465C330.416,1058.773,357.945,1044.252,396.257,1054.807z"/>
<path style="fill:#CC4627;" d="M366.381,1012.625c37.656-6.336,50.358-1.713,88.518,31.908
	c29.35,25.873,62.257,41.866,93.252,37.661c-4.051-15.598-9.711-32.699-16.959-51.215c-0.955,0.113-1.955,0.18-3.018,0.181
	c-24.885,0.004-78.351-30.124-95.1-51.998c-11.941-15.597-27.339-12.448-45.173-8.799c-6.483,1.326-13.188,2.698-19.901,3.138
	c-18.771,1.233-38.889-3.902-49.42-13.764c0.19,10.699,0.854,26.005,2.853,41.266
	C327.686,1007.617,341.253,1016.853,366.381,1012.625z"/>
<path style="fill:#E56533;" d="M318.575,944.938c0.913,13.91,26.59,22.664,48.941,21.2c6.212-0.407,12.665-1.727,18.905-3.004
	c7.593-1.554,15.295-3.129,22.752-3.129c10.773,0,21.04,3.285,29.757,14.67c17.371,22.687,77.57,54.013,93.365,48.573
	c6.555-2.257,19.429-10.849,26.102-28.73c3.397-9.1,5.569-21.663,3.502-38.339c-90.525,14.161-113.936-78.705-155.125-98.307
	c-34.491-16.434-72.649,14.756-84.884,26.107C319.691,912.84,318.135,938.221,318.575,944.938z"/>
<path style="fill:#D8522A;" d="M406.775,857.871c41.189,19.602,64.6,112.469,155.125,98.307
	c-1.484-11.97-5.166-26.069-12.138-42.519c-14.9,0.166-31.354-4.092-47.064-16.332c-31.356-24.396-53.698-62.607-97.487-83.493
	c-35.4-16.839-66.22-9.253-76.744-5.722c-2.049,20.581-4.578,49.654-6.576,75.866C334.126,872.627,372.284,841.437,406.775,857.871z
	"/>
<path style="fill:#CC4627;" d="M405.212,813.834c43.789,20.886,66.131,59.098,97.487,83.493
	c15.71,12.24,32.163,16.497,47.064,16.332c-3.921-9.252-8.884-19.249-15.093-30.038c-14.725-10.541-29.479-27.509-45.454-45.894
	c-6.028-6.938-12.262-14.111-18.665-21.121c-30.836-33.759-82.607-46.062-107.486-51.974c-2.979-0.708-5.567-1.325-7.761-1.889
	c-3.424,0.379-21.458,3.249-24.179,21.79c-0.662,4.515-1.596,12.909-2.657,23.579C338.992,804.582,369.811,796.995,405.212,813.834z
	"/>
<path style="fill:#E56533;" d="M356.531,755.442c2.234,0.586,5.017,1.247,8.239,2.012c25.597,6.083,78.86,18.74,111.227,54.176
	c6.464,7.077,12.729,14.286,18.786,21.258c27.04,31.118,50.386,57.986,73.794,53.966c11.367-1.955,26.706-5.66,40.764-12.558
	c-0.736-0.382-1.472-0.762-2.211-1.154c-70.058-37.531-69.753-77.277-102.188-144.881c-28.322-59.107-104.685-68.284-123.47-69.658
	c-12.039,19.774-23.882,44.203-34.097,74.259c-0.016,0.046-0.031,0.091-0.049,0.136c-0.031,0.083-3.424,9.231,0.014,15.892
	C349.006,752.115,352.012,754.258,356.531,755.442z"/>
<path style="fill:#D8522A;" d="M504.943,728.261c32.435,67.604,32.13,107.35,102.188,144.881c0.739,0.392,1.475,0.772,2.211,1.154
	c3.413-1.675,6.752-3.531,9.938-5.604c8.032-5.225,14.212-11.244,18.548-18.004c-26.133-8.353-49.796-46.338-65.235-94.641
	c-18.97-59.411-68.292-111.758-91.418-136.693c-16.841-18.159-32.3-25.943-39.463-28.835c-4.393,3.198-9.09,6.936-13.99,11.297
	c-13.442,11.961-30.024,30.139-46.248,56.786C400.259,659.977,476.621,669.154,504.943,728.261z"/>
<path style="fill:#CC4627;" d="M481.175,619.354c23.126,24.935,72.448,77.282,91.418,136.693
	c15.439,48.303,39.103,86.287,65.235,94.641c4.806-7.493,7.329-15.904,7.536-25.182c-9.823-2.328-19.783-10.021-29.002-22.486
	c-11.373-15.378-21.247-37.243-29.349-64.987c-7.099-24.309-26.438-57.974-54.454-94.795
	c-23.704-31.153-45.623-54.129-51.712-58.102c-5.313-3.466-8.461-7.361-10.321-10.959c-4.696,1.806-15.306,6.506-28.814,16.341
	C448.875,593.412,464.334,601.196,481.175,619.354z"/>
<path style="fill:#E56533;" d="M484.879,578.958c15.343,10.01,92.179,98.662,109.217,157.007
	c17.028,58.317,39.773,81.013,55.38,82.806c10.317,1.184,30.798-3.85,48.889-12.941c-92.492-26.72-86.891-139.571-96.891-203.404
	c-8.497-53.987-68.924-66.987-88.492-69.799c-18.61,10.889-32.748,19.556-34.801,21.923c-2.385,3.279-3.387,7.724-2.633,11.827
	C476.435,571.204,479.661,575.555,484.879,578.958z"/>
<path style="fill:#D8522A;" d="M601.474,602.428c10,63.832,4.398,176.683,96.891,203.404c13.142-6.603,25.024-15.343,30.825-25.414
	c1.796-3.119,3.155-6.542,4.164-10.137c-16.905-2.794-37.75-18.5-55.525-50.126c-24.371-43.435-26.946-59.021-25.136-107.081
	c1.81-48.06-0.592-59.475-14.164-89.995c-10.428-23.473-19.237-41.685-22.756-48.858c-4.58,2.582-9.965,5.608-15.891,8.939
	c-22.528,12.661-59.547,33.465-86.9,49.469C532.55,535.441,592.977,548.441,601.474,602.428z"/>
<path style="fill:#CC4627;" d="M652.692,613.073c-1.811,48.06,0.765,63.646,25.136,107.081
	c17.775,31.626,38.62,47.332,55.525,50.126c2.62-9.331,2.87-19.827,2.18-29.224c-0.136-0.035-0.276-0.07-0.411-0.105
	c-19.795-5.188-35.392-22.321-45.103-49.548c-8.226-23.062-11.41-51.613-8.737-78.332c2.243-22.431-3.236-47.539-8.536-71.821
	c-5.957-27.298-11.595-53.159-5.285-72.299c-4.517-2.129-13.971-5.939-23.793-5.939c-4.98,0-10.051,0.979-14.622,3.652
	c-2.61,1.526-7.244,4.155-13.273,7.555c3.518,7.173,12.328,25.384,22.756,48.858C652.101,553.599,654.502,565.013,652.692,613.073z"
	/>
<path style="fill:#F47851;" d="M923.422,811.339c-5.034-2.805-9.789-5.454-13.775-7.75c-20.059-11.553-28.752-25.722-31.822-32.016
	c-2.587,0.613-9.477,2.561-15.152,6.94c2.978,6.054,11.497,19.937,31.043,31.195c25.77,14.843,80.494,42.666,99.504,67.871
	c6.261,8.307,12.574,21.457,18.229,35.385c13.807,13.142,24.435,27.843,31.033,38.088c-6.764-21.733-20.529-62.376-33.882-80.079
	C992.756,849.967,951.031,826.721,923.422,811.339z"/>
<path style="fill:#E55D39;" d="M893.715,809.709c-19.546-11.258-28.065-25.141-31.043-31.195c-4.571,3.526-8.349,8.625-8.431,15.88
	c-0.012,1.008-0.435,1.969-1.174,2.656c-0.052,0.048-0.112,0.083-0.167,0.129c1.192,5.265,5.093,16.76,17.486,27.629
	c16.965,14.878,60.549,45.377,105.279,63.879c13.463,5.569,25.502,14.492,35.781,24.277c-5.654-13.928-11.968-27.078-18.229-35.385
	C974.209,852.375,919.484,824.552,893.715,809.709z"/>
<path style="fill:#E56533;" d="M847.205,790.292c2.34-14.455,16.148-22.201,26.116-25.173c-2.756-6.923-6.563-12.464-10.753-16.895
	c-1.028,1.012-2.121,1.888-3.298,2.576c-4.315,2.523-13.409,3.593-25.078,3.593c-18.797,0-44.276-2.778-67.251-6.731
	c-0.04,0.069-0.085,0.142-0.116,0.206c1.211,4.4,17.47,20.264,40.631,30.758C825.254,786.689,840.542,789.422,847.205,790.292z"/>
<path style="fill:#E56533;" d="M679.954,539.678c5.422,24.843,11.029,50.532,8.668,74.128
	c-5.143,51.412,11.544,110.357,48.371,120.009c39.487,10.349,98.989,16.136,115.629,11.733
	c-24.643-12.872-47.526-47.208-73.237-91.182c-31.651-54.133-31.947-83.87-22.277-110.889c8.296-23.121,6.021-72.865,5.188-86.791
	c-0.151-0.007-0.307-0.005-0.458-0.014c-5.983-0.353-12.977-1.51-20.38-2.735c-10.602-1.754-21.779-3.604-31.994-3.604
	c-15.051,0-28.015,4.011-34.004,18.25C668.202,485.834,673.911,511.988,679.954,539.678z"/>
<path style="fill:#D8522A;" d="M757.107,543.477c-9.67,27.018-9.374,56.755,22.277,110.889
	c25.711,43.974,48.595,78.31,73.237,91.182c1.205-0.319,2.192-0.689,2.924-1.117c6.544-3.826,11.542-20.583,11.823-44.683
	c-11.813-31.099-52.652-98.308-52.339-152.793c0.281-53.655,19.241-105.887,26.046-122.927c-0.568,0.349-1.135,0.695-1.716,1.052
	c-21.279,13.054-53.371,32.734-77.065,31.606C763.129,470.612,765.403,520.356,757.107,543.477z"/>
<path style="fill:#CC4627;" d="M867.369,699.748c0.121-10.433-0.636-22.233-2.542-34.97c-3.356-22.427,7.632-70.07,18.259-116.144
	c8.172-35.431,15.891-68.897,14.962-83.065c-1.757-26.813-7.123-39.89-8.687-43.197c-4.578-2.365-25.154-12.021-40.251-3.191
	c-2.36,1.38-5.113,3.058-8.034,4.848c-6.805,17.039-25.765,69.272-26.046,122.927C814.717,601.439,855.556,668.649,867.369,699.748z
	"/>
</svg>
