<?xml version="1.0" encoding="utf-8"?>
<!-- Generator: Adobe Illustrator 27.5.0, SVG Export Plug-In . SVG Version: 6.00 Build 0)  -->
<svg version="1.1" id="Ñëîé_1" xmlns="http://www.w3.org/2000/svg" xmlns:xlink="http://www.w3.org/1999/xlink" x="0px" y="0px"
	 viewBox="0 0 6195 3195" style="enable-background:new 0 0 6195 3195;" xml:space="preserve">
<g>
	<defs>
		<rect id="SVGID_1_" width="6195" height="3195"/>
	</defs>
	<clipPath id="SVGID_00000163050884610492372220000009152147796174165144_">
		<use xlink:href="#SVGID_1_"  style="overflow:visible;"/>
	</clipPath>
	<g style="clip-path:url(#SVGID_00000163050884610492372220000009152147796174165144_);">
		<g>
			
				<linearGradient id="SVGID_00000182496641931267410010000006981972914402227634_" gradientUnits="userSpaceOnUse" x1="5114.9897" y1="2017.9222" x2="3950.2915" y2="2017.9222" gradientTransform="matrix(0.9958 -0.0918 0.0918 0.9958 625.3939 275.9948)">
				<stop  offset="0.1491" style="stop-color:#CCBD96"/>
				<stop  offset="0.2125" style="stop-color:#C4B48D"/>
				<stop  offset="0.5702" style="stop-color:#98865D"/>
				<stop  offset="0.8443" style="stop-color:#7C6A40"/>
				<stop  offset="1" style="stop-color:#725F35"/>
			</linearGradient>
			
				<path style="fill:url(#SVGID_00000182496641931267410010000006981972914402227634_);stroke:#5B4221;stroke-width:6;stroke-miterlimit:10;" d="
				M4761.055,1601.315c73.285-58.422,514.875-313.782,886.184-388.885c232.068-46.939,225.112,63.912,187.26,153.651
				c-21.066,49.944-52.853,94.654-92.154,131.985c-106.299,100.97-397.035,423.699-116.009,707.863
				c338.181,341.958-67.568,251.564-67.568,251.564s-630.149-228.981-814.329-533.608L4761.055,1601.315z"/>
			<g>
				<g>
					<g>
						<path style="fill:#5B4221;" d="M5518.56,1787.64l-19.224,1.615l-19.237,1.506l-38.524,2.373l-38.572,1.568l-38.601,0.819
							l-38.614,0.104l-38.613-0.603l-38.597-1.346l-38.569-1.999l-38.522-2.762l-38.469-3.412l-38.394-4.157
							c-12.775-1.577-25.544-3.206-38.308-4.856l-38.207-5.565l-38.086-6.306l-37.938-7.103l-18.905-3.865l-18.878-3.973
							l19.044,3.082l19.017,3.19l38.127,5.764l38.18,5.317l38.238,4.813c12.771,1.394,25.537,2.809,38.296,4.275l38.348,3.726
							l38.391,3.223l38.436,2.622l38.466,2.133l38.496,1.534l38.515,1.022l38.531,0.474l38.54-0.068l38.543-0.577l38.547-1.03
							l19.265-0.826L5518.56,1787.64z"/>
					</g>
					<g>
						<path style="fill:#5B4221;" d="M5845.384,1272.756l-7.738-3.233l-3.868-1.608l-3.964-1.36
							c-2.645-0.898-5.276-1.831-7.927-2.698l-8.072-2.221c-1.349-0.354-2.679-0.777-4.039-1.087l-4.089-0.888
							c-2.729-0.572-5.441-1.226-8.182-1.732c-5.514-0.84-10.988-1.917-16.548-2.401c-11.064-1.39-22.231-1.724-33.367-1.828
							c-5.573,0.107-11.146,0.091-16.71,0.45c-2.783,0.156-5.568,0.233-8.346,0.455l-8.334,0.664
							c-2.78,0.192-5.55,0.518-8.323,0.797c-2.771,0.3-5.547,0.547-8.313,0.891c-5.53,0.721-11.069,1.351-16.581,2.215
							c-11.043,1.563-22.036,3.515-33.017,5.512c-21.936,4.206-43.855,8.501-65.598,13.602c-5.436,1.271-10.895,2.443-16.312,3.795
							l-16.254,4.033l-8.124,2.024l-8.094,2.144l-16.187,4.287l-16.114,4.551c-5.364,1.543-10.754,2.994-16.083,4.657
							c-10.677,3.256-21.391,6.392-31.989,9.899l-15.934,5.139l-15.854,5.381l-7.927,2.69c-2.642,0.898-5.257,1.873-7.886,2.806
							l-15.757,5.657c-2.633,0.925-5.242,1.915-7.849,2.909l-7.828,2.966c-5.211,1.997-10.455,3.909-15.638,5.976l-15.55,6.203
							l-7.771,3.112l-7.719,3.236c-41.23,17.109-81.828,35.785-121.455,56.357c-39.679,20.467-78.537,42.542-116.4,66.229
							c-9.417,5.997-18.919,11.868-28.199,18.08l-13.991,9.212l-13.843,9.433c-9.286,6.209-18.325,12.771-27.469,19.187l-3.419,2.42
							l-3.378,2.477l-6.756,4.954c-4.496,3.314-9.028,6.581-13.494,9.935l-13.366,10.11l-6.683,5.058l-6.592,5.173l-13.188,10.348
							c-4.378,3.472-8.68,7.039-13.024,10.555l-6.502,5.292l-3.25,2.647l-3.203,2.703l-12.816,10.813
							c-4.312,3.56-8.511,7.25-12.73,10.917l-12.66,11.005l12.359-11.343c4.12-3.781,8.221-7.587,12.436-11.262l12.6-11.083
							l3.151-2.77l3.199-2.714l6.399-5.427c4.277-3.606,8.512-7.264,12.824-10.828l12.994-10.626l6.498-5.314l6.589-5.199
							l13.184-10.396c35.425-27.38,72.111-53.144,109.827-77.314c4.674-3.086,9.476-5.968,14.212-8.955
							c4.759-2.951,9.488-5.952,14.272-8.863l14.423-8.615l7.214-4.305l7.284-4.184l14.576-8.358
							c4.864-2.777,9.8-5.423,14.697-8.142l7.36-4.052c2.449-1.359,4.906-2.702,7.391-3.994l14.858-7.847
							c2.482-1.297,4.94-2.641,7.442-3.899l7.503-3.781l15.009-7.557l15.134-7.303c5.049-2.424,10.075-4.899,15.181-7.205
							c10.179-4.68,20.322-9.438,30.611-13.873c5.132-2.245,10.245-4.534,15.393-6.742l15.5-6.494
							c41.387-17.188,83.561-32.467,126.297-45.936c10.658-3.452,21.431-6.532,32.166-9.732c5.357-1.635,10.776-3.057,16.168-4.571
							l16.198-4.465c21.673-5.667,43.41-11.102,65.319-15.771c21.864-4.866,43.879-9.021,65.931-12.904
							c11.048-1.845,22.109-3.644,33.233-5.056c5.549-0.788,11.132-1.342,16.7-1.986c2.787-0.305,5.585-0.514,8.376-0.775
							c2.793-0.244,5.583-0.528,8.386-0.66l8.399-0.5c2.799-0.167,5.607-0.188,8.41-0.29c5.604-0.248,11.219-0.121,16.827-0.116
							c11.21,0.328,22.436,0.891,33.542,2.511C5803.414,1256.726,5825.218,1263.091,5845.384,1272.756z"/>
					</g>
					<g>
						<path style="fill:#5B4221;" d="M5800.529,1390.354c-4.788-1.822-9.548-3.709-14.349-5.474l-7.302-2.366l-3.648-1.182
							c-1.216-0.394-2.426-0.806-3.67-1.11l-7.402-2.007c-2.474-0.642-4.912-1.416-7.424-1.904l-7.488-1.64l-3.742-0.82
							c-1.243-0.293-2.515-0.448-3.77-0.679c-20.101-3.679-40.53-5.348-60.929-5.336c-20.404-0.027-40.793,1.583-60.96,4.597
							c-20.171,3.014-40.13,7.343-59.769,12.859c-39.294,11.036-77.361,26.134-114.493,43.19
							c-37.178,16.995-73.606,35.701-110.188,54.155l-109.823,55.175c-36.659,18.289-73.267,36.68-109.977,54.87
							c-36.675,18.258-73.402,36.413-110.144,54.539l-55.18,27.055l-27.592,13.524l-27.642,13.424l27.234-14.234l27.284-14.134
							l54.572-28.261c36.426-18.752,72.867-37.474,109.36-56.093c36.458-18.688,73.018-37.174,109.527-55.762l109.681-55.456
							c36.619-18.342,73.113-37.063,110.546-53.959c37.425-16.833,75.824-31.935,115.602-42.53
							c39.708-10.687,80.845-16.641,121.991-15.881c20.555,0.436,41.082,2.569,61.201,6.707c1.256,0.26,2.528,0.444,3.772,0.765
							l3.743,0.906l7.483,1.811c2.508,0.545,4.943,1.375,7.411,2.074l7.378,2.184c1.236,0.342,2.439,0.79,3.647,1.221l3.623,1.292
							l7.242,2.584C5791.093,1386.366,5795.801,1388.394,5800.529,1390.354z"/>
					</g>
					<g>
						<path style="fill:#5B4221;" d="M5624.783,1602.35l-23.076-1.195l-23.087-0.386l-23.074,0.482l-23.033,1.301
							c-30.683,2.159-61.185,6.324-91.442,11.757c-30.25,5.508-60.285,12.184-90.116,19.717
							c-29.848,7.473-59.539,15.62-89.175,24.013c-29.666,8.292-59.287,16.812-89.036,24.935
							c-29.768,8.043-59.625,15.864-89.757,22.559c-30.111,6.767-60.475,12.515-91.06,16.704l-22.982,2.771l-23.043,2.138
							l-23.089,1.445l-23.116,0.588l23.061-1.493l22.998-2.123l22.916-2.804l22.824-3.431c30.385-4.869,60.508-11.217,90.435-18.356
							c29.912-7.217,59.663-15.12,89.303-23.475c29.661-8.277,59.259-16.838,88.924-25.231c29.693-8.289,59.451-16.435,89.44-23.741
							c29.999-7.24,60.193-13.825,90.681-18.813c30.467-5.061,61.212-8.614,92.064-10.08l23.149-0.635l23.148,0.189l23.114,1.067
							L5624.783,1602.35z"/>
					</g>
					<g>
						<path style="fill:#5B4221;" d="M5503.573,1987.086l-20.169,0.4l-20.182,0.29l-40.372-0.784l-40.33-2.306l-40.233-3.761
							l-40.087-5.172l-39.89-6.564l-39.635-7.98l-39.35-9.297l-38.989-10.71l-38.609-12.001l-38.151-13.371
							c-12.57-4.856-25.12-9.761-37.657-14.684l-37.109-15.994l-36.496-17.318l-35.801-18.677l-17.571-9.934l-17.505-10.026
							l17.938,9.23l17.873,9.321l36.338,17.435l36.806,16.37l37.269,15.248c12.584,4.668,25.157,9.354,37.709,14.089l38.12,12.912
							l38.482,11.771l38.837,10.53l39.129,9.389l39.413,8.13l39.643,6.95l39.847,5.724l40.016,4.493l40.148,3.286l40.248,2.123
							l20.154,0.391L5503.573,1987.086z"/>
					</g>
					<g>
						<path style="fill:#5B4221;" d="M5737.8,2340.047l-33.467-0.573l-33.445-1.546l-33.402-2.406l-33.339-3.254
							c-44.388-4.997-88.539-12.269-132.205-21.809c-43.684-9.467-86.855-21.294-129.382-35.087
							c-42.51-13.855-84.319-29.855-125.281-47.786c-40.918-18.029-80.979-38.009-119.945-59.933
							c-38.924-21.994-76.843-45.78-113.364-71.551c-36.564-25.707-71.786-53.303-105.494-82.613l-24.948-22.354l-24.366-22.974
							l-23.762-23.587l-23.06-24.262l23.7,23.62l24.215,23.074l24.789,22.445l25.344,21.803
							c34.089,28.714,69.59,55.72,106.257,81.006c36.71,25.222,74.533,48.822,113.465,70.437
							c38.889,21.684,78.798,41.537,119.581,59.4c40.74,17.96,82.363,33.91,124.636,47.894
							c42.256,14.046,85.22,25.945,128.63,35.917c43.427,9.899,87.331,17.776,131.539,23.458l33.202,3.914l33.299,3.071
							l33.375,2.223L5737.8,2340.047z"/>
					</g>
					<g>
						<path style="fill:#5B4221;" d="M5595.366,2147l-25.42,0.775l-25.44,0.077l-25.442-0.512l-25.431-1.093
							c-33.889-1.939-67.704-5.451-101.284-10.575c-33.593-5.05-66.928-11.808-99.925-19.917
							c-32.984-8.173-65.588-17.881-97.72-28.948c-32.097-11.169-63.715-23.719-94.693-37.689
							c-30.942-14.042-61.319-29.344-90.837-46.157c-29.555-16.745-58.298-34.901-86.126-54.338l-20.658-14.873l-20.307-15.337
							l-19.941-15.797l-19.493-16.335l20.055,15.623l20.335,15.238l20.671,14.766l20.997,14.286
							c28.151,18.808,57.121,36.356,86.75,52.679c29.666,16.256,59.945,31.388,90.876,45.059
							c30.896,13.744,62.368,26.187,94.333,37.207c31.93,11.121,64.361,20.798,97.135,29.12
							c32.762,8.385,65.912,15.231,99.278,20.805c33.378,5.5,66.996,9.631,100.75,12.264l25.334,1.76l25.376,1.181l25.404,0.603
							L5595.366,2147z"/>
					</g>
				</g>
			</g>
		</g>
		<g>
			
				<linearGradient id="SVGID_00000157987238065286570950000014598131544609474744_" gradientUnits="userSpaceOnUse" x1="1455.9036" y1="2616.2009" x2="1048.5023" y2="2162.2102" gradientTransform="matrix(0.9958 -0.0918 0.0918 0.9958 625.3939 275.9948)">
				<stop  offset="0.3522" style="stop-color:#CCBD96"/>
				<stop  offset="0.4004" style="stop-color:#C4B48D"/>
				<stop  offset="0.6728" style="stop-color:#98865D"/>
				<stop  offset="0.8814" style="stop-color:#7C6A40"/>
				<stop  offset="1" style="stop-color:#725F35"/>
			</linearGradient>
			
				<path style="fill:url(#SVGID_00000157987238065286570950000014598131544609474744_);stroke:#5B4221;stroke-width:6;stroke-miterlimit:10;" d="
				M1777.907,2496.988c50.029,68.436,104.728,134.689,172.629,185.442c67.901,50.753,150.522,85.301,235.277,83.539
				c21.6-0.449,49.155-9.35,49.495-30.952c0.194-12.34-9.521-23.353-8.774-35.672c1.276-21.026,31.085-31.729,31.902-52.778
				c0.819-21.1-28.35-34.681-26.586-55.722c1.667-19.879,29.38-28.328,33.826-47.775c6.095-26.66-35.192-52.017-21.011-75.401
				c8.41-13.869,34.129-21.034,27.65-35.903c-1.938-4.446-6.487-7.069-10.747-9.387
				c-110.538-60.132-221.075-120.265-331.613-180.397c-46.817-25.468-94.87-51.362-147.589-59.186
				c-58.623-8.7-160.713,10.928-134.484,88.232C1675.593,2352.697,1727.442,2427.956,1777.907,2496.988z"/>
			<g>
				<g>
					<path style="fill:#5B4221;" d="M2256.783,2472.16c-18.057,4.561-37.208,4.828-55.67,1.61c-9.245-1.59-18.35-3.954-27.266-6.864
						c-8.911-2.933-17.6-6.488-26.124-10.366c-17.073-7.741-33.288-17.147-49.139-26.981c-7.926-4.925-15.706-10.063-23.465-15.208
						l-23.222-15.446l-46.279-31.139c-15.363-10.475-30.788-20.855-46.089-31.423c-30.667-21.037-61.215-42.252-91.431-63.962
						c31.605,19.634,62.879,39.763,94.034,60.07c15.611,10.104,31.096,20.396,46.644,30.593l46.454,30.877
						c15.455,10.347,30.793,20.867,46.382,30.85c7.79,5.01,15.663,9.875,23.668,14.5c8.016,4.601,16.14,9.003,24.432,13.051
						c16.585,8.054,33.889,14.783,51.949,18.57C2219.665,2474.844,2238.455,2475.417,2256.783,2472.16z"/>
				</g>
			</g>
			<g>
				<g>
					<path style="fill:#5B4221;" d="M2237.11,2566.838l-10.018-1.425l-9.979-1.714l-9.921-2.046l-9.864-2.324
						c-13.113-3.276-26.056-7.257-38.789-11.839c-25.439-9.255-49.98-20.921-73.555-34.219
						c-23.622-13.24-46.237-28.187-68.23-43.919c-21.961-15.792-43.198-32.536-64.104-49.632
						c-20.834-17.177-41.392-34.644-62.047-51.959c-20.603-17.378-41.416-34.474-62.643-51.028
						c-21.271-16.49-43.033-32.357-65.677-46.91l-17.112-10.712l-17.466-10.14l-17.832-9.503l-18.16-8.898l18.557,8.083
						l18.185,8.916l17.854,9.583l17.531,10.176c23.116,14.02,45.36,29.45,66.961,45.683c21.652,16.176,42.597,33.243,63.438,50.384
						c20.791,17.205,41.369,34.63,62.217,51.69c20.772,17.137,41.903,33.819,63.622,49.678
						c21.681,15.908,44.063,30.846,67.228,44.461c23.196,13.544,47.249,25.683,72.268,35.53c12.489,4.968,25.22,9.352,38.163,13.046
						l9.745,2.64l9.816,2.377l9.875,2.152L2237.11,2566.838z"/>
				</g>
			</g>
			<g>
				<g>
					<polygon style="fill:#5B4221;" points="2237.785,2695.808 2216.704,2686.696 2195.657,2677.479 2154.182,2657.667 
						2113.438,2636.356 2073.452,2613.631 2034.252,2589.555 1995.88,2564.168 1958.401,2537.472 1921.805,2509.574 
						1886.202,2480.419 1851.564,2450.128 1817.996,2418.662 1785.511,2386.089 1754.158,2352.437 1724.008,2317.721 
						1695.15,2281.945 1681.319,2263.597 1667.584,2245.191 1682.035,2263.041 1696.389,2280.949 1726.239,2315.805 
						1757.057,2349.779 1788.858,2382.815 1821.635,2414.867 1855.363,2445.904 1889.982,2475.938 1925.523,2504.87 
						1961.884,2532.764 1999.102,2559.509 2037.095,2585.15 2075.854,2609.633 2115.345,2632.938 2155.523,2655.069 
						2196.337,2676.051 2217.078,2685.877 					"/>
				</g>
			</g>
		</g>
		<g>
			
				<linearGradient id="SVGID_00000075121663535070236130000005873476654333998245_" gradientUnits="userSpaceOnUse" x1="3319.5647" y1="169.9342" x2="1902.5842" y2="1157.8011" gradientTransform="matrix(0.9958 -0.0918 0.0918 0.9958 625.3939 275.9948)">
				<stop  offset="0.2835" style="stop-color:#CCBD96"/>
				<stop  offset="0.3368" style="stop-color:#C4B48D"/>
				<stop  offset="0.6381" style="stop-color:#98865D"/>
				<stop  offset="0.8689" style="stop-color:#7C6A40"/>
				<stop  offset="1" style="stop-color:#725F35"/>
			</linearGradient>
			
				<path style="fill:url(#SVGID_00000075121663535070236130000005873476654333998245_);stroke:#5B4221;stroke-width:6;stroke-miterlimit:10;" d="
				M2038.954,907.978c44.823-39.487,101.6-62.005,155.728-87.274c243.687-113.762,457.74-297.439,719.638-358.552
				c56.741-13.24,115.38-20.427,173.387-14.94c35.74,3.381,70.836,11.52,105.805,19.638
				c116.594,27.067,233.187,54.135,349.781,81.202c28.228,6.553,60.888,16.94,70.106,44.413
				c12.037,35.874-25.449,74.275-14.255,110.421c11.377,36.739,65.524,46.976,75.573,84.1
				c10.718,39.597-37.124,79.457-22.565,117.808c10.1,26.606,47.196,39.936,47.951,68.385c0.896,33.735-50.721,50.306-50.694,84.053
				c0.018,22.637,23.469,37.667,32.372,58.48c11.692,27.333-3.497,58.082-18.286,83.871c-15.398,26.851-32.302,55.167-59.967,69.051
				c-23.018,11.552-49.953,11.248-75.701,10.691c-478.332-10.344-964.672-21.129-1427.843-154.021
				c-42.978-12.331-112.681-19.047-125.926-69.844C1960.544,1003.631,2002.631,939.977,2038.954,907.978z"/>
			<g>
				<g>
					<path style="fill:#5B4221;" d="M3604.957,680.709c-15.127-6.549-30.262-13.079-45.437-19.511
						c-15.163-6.458-30.361-12.834-45.632-19.022c-30.534-12.387-61.371-24.039-92.677-34.232
						c-31.285-10.23-63.036-19.066-95.267-25.558c-32.225-6.453-64.914-10.652-97.723-11.62c-16.4-0.502-32.814-0.176-49.176,0.945
						c-16.359,1.199-32.664,3.128-48.879,5.683c-4.048,0.681-8.11,1.265-12.145,2.024l-12.111,2.239l-12.068,2.478
						c-4.026,0.81-8.022,1.772-12.034,2.651c-16.024,3.644-31.958,7.709-47.825,12.051c-31.717,8.752-63.222,18.404-94.762,27.996
						l-94.538,28.998c-63.019,19.357-125.961,38.97-188.899,58.603l-94.414,29.432l-47.201,14.734
						c-15.735,4.897-31.449,9.823-47.061,15.024c-31.213,10.389-62.068,21.936-91.54,36.438
						c-14.719,7.26-29.102,15.224-42.827,24.212l-5.149,3.367l-2.574,1.686l-2.5,1.792l-10.004,7.171
						c-6.463,5.054-13.013,10.009-19.179,15.435l-4.693,3.987c-1.573,1.319-3.033,2.765-4.556,4.142l-4.524,4.179l-2.262,2.09
						c-0.763,0.688-1.506,1.396-2.22,2.134l-8.698,8.728c-1.478,1.429-2.83,2.977-4.227,4.482l-4.167,4.54
						c-1.38,1.521-2.799,3.01-4.148,4.559l-3.978,4.708l-3.979,4.709l-1.982,2.361l-1.891,2.434l-7.567,9.739l-7.168,10.039
						c-2.454,3.304-4.593,6.821-6.87,10.246l-3.373,5.167c-1.124,1.723-2.124,3.522-3.192,5.28l-3.157,5.303
						c-1.031,1.78-2.156,3.507-3.098,5.337l-5.874,10.86c-7.562,14.624-14.246,29.706-19.985,45.162
						c5.454-15.557,11.866-30.778,19.177-45.575l5.733-10.971c0.92-1.849,2.023-3.595,3.033-5.395l3.094-5.362
						c1.048-1.778,2.028-3.597,3.131-5.341l3.313-5.231c2.238-3.468,4.339-7.03,6.756-10.38l7.062-10.18l7.468-9.888l1.868-2.473
						l1.959-2.4l3.935-4.788l3.936-4.789c1.335-1.576,2.741-3.092,4.108-4.641l4.129-4.624c1.385-1.534,2.725-3.111,4.191-4.568
						l8.635-8.904c0.709-0.753,1.448-1.476,2.206-2.179l2.249-2.135l4.499-4.271c1.515-1.407,2.967-2.884,4.533-4.235l4.673-4.081
						c6.139-5.554,12.706-10.597,19.171-15.763l10.02-7.333l2.506-1.833l2.58-1.727l5.163-3.45
						c13.765-9.209,28.197-17.385,42.963-24.851c29.568-14.917,60.565-26.689,91.799-37.355
						c15.627-5.33,31.337-10.376,47.043-15.388l47.137-14.948l94.292-29.838c62.892-19.799,125.829-39.458,188.833-58.912
						l94.602-28.871c31.557-9.524,63.093-19.216,94.976-27.858c15.948-4.291,31.981-8.308,48.118-11.906
						c4.042-0.867,8.064-1.818,12.122-2.616l12.162-2.443l12.211-2.203c4.068-0.747,8.168-1.32,12.251-1.989
						c16.359-2.498,32.821-4.403,49.351-5.504c16.537-1.016,33.121-1.229,49.667-0.605c33.098,1.234,66.014,5.626,98.358,12.448
						c32.348,6.855,64.146,16.012,95.402,26.617c31.251,10.646,61.97,22.734,92.356,35.544
						c15.196,6.403,30.317,12.975,45.387,19.657C3574.938,667.081,3589.952,673.886,3604.957,680.709z"/>
				</g>
			</g>
			<g>
				<g>
					<path style="fill:#5B4221;" d="M3659.133,886.514c-13.22-7.48-26.275-15.241-39.795-22.159
						c-13.305-7.315-27.033-13.809-40.619-20.564c-27.494-12.865-55.488-24.606-83.917-35.182
						c-28.518-10.338-57.413-19.584-86.645-27.632c-29.307-7.77-58.874-14.505-88.683-19.996
						c-29.856-5.224-59.89-9.341-90.046-12.299c-30.182-2.675-60.453-4.239-90.747-4.557c-30.293-0.055-60.582,0.912-90.789,3.199
						c-30.184,2.529-60.267,6.172-90.151,11.109c-29.845,5.147-59.494,11.405-88.82,18.977
						c-29.261,7.811-58.204,16.785-86.715,27.009c-7.099,2.628-14.155,5.377-21.235,8.06l-5.306,2.024l-2.653,1.012l-2.623,1.087
						l-10.477,4.384c-14.008,5.754-27.862,11.882-41.592,18.32c-13.75,6.392-27.416,12.985-41.085,19.599
						c-13.673,6.602-27.358,13.212-41.11,19.695c-13.755,6.478-27.606,12.778-41.586,18.799c-3.487,1.523-7.024,2.935-10.533,4.407
						c-3.517,1.456-7.021,2.942-10.583,4.292l-10.646,4.141c-3.564,1.342-7.164,2.591-10.744,3.891
						c-28.616,10.461-58.392,17.829-88.295,23.143c-14.932,2.782-29.86,5.484-44.579,9.055
						c-14.692,3.609-29.258,7.953-43.011,14.265c-6.871,3.144-13.606,6.627-19.989,10.688c-6.39,4.043-12.491,8.549-18.173,13.545
						c-11.394,9.946-20.82,22.249-26.941,36.169c5.84-14.036,15.059-26.599,26.335-36.843c5.638-5.129,11.726-9.752,18.105-13.926
						c6.375-4.19,13.111-7.801,19.995-11.076c13.784-6.576,28.406-11.172,43.128-15.02c14.751-3.811,29.689-6.743,44.57-9.745
						c29.826-5.668,59.161-13.241,87.518-23.954c3.544-1.33,7.106-2.608,10.633-3.98l10.548-4.211
						c3.529-1.369,7.006-2.875,10.493-4.35c3.481-1.492,6.987-2.923,10.448-4.466c13.871-6.101,27.623-12.484,41.297-19.053
						c27.351-13.132,54.434-26.898,81.977-39.827c13.742-6.521,27.642-12.748,41.704-18.602l10.518-4.458l2.633-1.106l2.663-1.03
						l5.327-2.06c7.108-2.732,14.193-5.53,21.323-8.206c28.636-10.406,57.756-19.423,87.173-27.342
						c29.489-7.66,59.301-14.012,89.317-19.221c30.067-4.92,60.33-8.538,90.688-11.034c30.38-2.231,60.839-3.231,91.296-3.025
						c30.456,0.46,60.876,2.174,91.195,5.003c30.298,3.078,60.447,7.441,90.391,12.931c29.894,5.767,59.551,12.685,88.88,20.811
						c29.254,8.399,58.156,17.956,86.629,28.667c28.355,11.026,56.235,23.207,83.578,36.496c13.509,6.971,27.158,13.66,40.36,21.196
						C3633.156,870.752,3646.068,878.776,3659.133,886.514z"/>
				</g>
			</g>
			<g>
				<g>
					<path style="fill:#5B4221;" d="M3653.525,1031.015l-29.457-14.561l-29.802-13.811l-30.17-12.965l-30.512-12.112
						c-40.865-15.67-82.566-29.093-124.828-40.344c-42.281-11.178-85.106-20.282-128.308-27
						c-43.188-6.781-86.722-11.362-130.379-13.599c-43.651-2.342-87.425-2.362-131.086-0.134
						c-43.668,2.148-87.21,6.721-130.43,13.404c-43.208,6.758-86.086,15.737-128.368,27.037l-31.614,8.845l-31.363,9.729
						l-31.086,10.61l-30.822,11.39l30.508-12.24l30.892-11.266l31.208-10.389l31.495-9.514c42.2-12.005,85.093-21.64,128.405-28.824
						c43.302-7.261,87.029-11.962,130.874-14.454c43.853-2.411,87.837-2.437,131.702-0.181
						c43.859,2.363,87.599,6.986,130.956,13.992c43.343,7.069,86.335,16.336,128.637,28.093
						c42.32,11.684,83.967,25.761,124.676,42.124l30.325,12.761l29.948,13.601l29.542,14.44L3653.525,1031.015z"/>
				</g>
			</g>
			<g>
				<g>
					<path style="fill:#5B4221;" d="M3669.262,1177.224l-18.728-12.024l-18.931-11.681l-19.182-11.248l-19.425-10.808
						c-26.01-14.2-52.626-27.252-79.709-39.212c-27.114-11.891-54.662-22.782-82.664-32.361
						c-27.979-9.639-56.348-18.144-85.045-25.358c-28.67-7.318-57.663-13.367-86.857-18.208
						c-29.184-4.922-58.594-8.46-88.097-10.924c-29.51-2.387-59.129-3.589-88.763-3.494l-22.228,0.247l-22.224,0.749l-22.209,1.251
						l-22.194,1.648l22.119-2.551l22.189-1.934l22.235-1.426l22.269-0.924c29.711-0.798,59.474-0.228,89.153,1.766
						c29.686,1.918,59.27,5.368,88.665,9.986c29.385,4.698,58.556,10.738,87.417,18.003c28.834,7.369,57.364,15.942,85.435,25.821
						c28.047,9.939,55.699,21.005,82.714,33.458c27.045,12.384,53.486,26.061,79.228,40.916l19.141,11.418l18.871,11.844
						l18.589,12.27L3669.262,1177.224z"/>
				</g>
			</g>
		</g>
		<g>
			
				<linearGradient id="SVGID_00000083770166016086895930000015359270710168191900_" gradientUnits="userSpaceOnUse" x1="3560.1597" y1="2784.2759" x2="2415.9324" y2="2174.7698" gradientTransform="matrix(0.9958 -0.0918 0.0918 0.9958 625.3939 275.9948)">
				<stop  offset="0.3522" style="stop-color:#CCBD96"/>
				<stop  offset="0.4004" style="stop-color:#C4B48D"/>
				<stop  offset="0.6728" style="stop-color:#98865D"/>
				<stop  offset="0.8814" style="stop-color:#7C6A40"/>
				<stop  offset="1" style="stop-color:#725F35"/>
			</linearGradient>
			
				<path style="fill:url(#SVGID_00000083770166016086895930000015359270710168191900_);stroke:#5B4221;stroke-width:6;stroke-miterlimit:10;" d="
				M2834.114,2457.952c44.575,26.176,95.654,38.722,146.095,50.026c93.583,20.972,188.362,38.87,284.226,41.657
				c88.08,2.56,177.527-8.048,259.654-39.532c5.887-2.257,6.907-10.227,1.78-13.896c-12.877-9.213-20.073-28.615-14.602-44.419
				c7.891-22.795,32.575-35.865,56.466-39.196c23.891-3.331,48.13,0.816,72.252,0.953c35.066,0.199,70.65-3.078,101.451-22.577
				c9.359-5.925,7.189-20.241-3.563-22.903c-12.081-2.991-25.701-1.709-20.6-17.75c4.378-13.767,15.605-24.307,29.26-29.026
				c22.867-7.903,46.551-2.682,70.006-2.038c45.799,1.258,93.878-15.316,126.35-46.478c7.934-7.614,6.885-20.991-2.615-26.529
				c-7.186-4.189-16.176-5.396-25.375-5.788c-9.591-0.408-13.629-12.801-5.912-18.51c17.812-13.178,40.916-19.291,62.935-14.959
				c10.616,2.089,21.518,2.985,32.134,0.895c44.742-8.808,35.332-49.277,12.579-64.417c-15.546-10.344-35.133-11.939-53.775-13.023
				c-374.266-21.772-752.969,38.294-1102.372,174.087c-24.634,9.574-100.688,25.748-108.17,56.398
				C2743.695,2396.258,2809.841,2443.698,2834.114,2457.952z"/>
			<g>
				<g>
					<path style="fill:#5B4221;" d="M3920.572,2208.748c-28.364-7.912-56.866-15.072-85.592-21.13
						c-7.202-1.42-14.398-2.849-21.581-4.338l-21.653-3.925l-21.714-3.546l-21.783-3.079l-21.831-2.722l-21.886-2.251l-21.926-1.876
						c-7.322-0.443-14.642-0.938-21.964-1.455c-29.311-1.663-58.693-2.21-88.139-1.999c29.327-2.707,58.851-3.47,88.334-2.679
						c7.368,0.263,14.739,0.549,22.107,0.886l22.081,1.463l22.034,2.083l21.98,2.605l21.896,3.237l21.811,3.756l21.695,4.362
						c7.201,1.6,14.387,3.26,21.569,4.928C3864.674,2190.018,3892.971,2198.472,3920.572,2208.748z"/>
				</g>
			</g>
			<g>
				<g>
					<path style="fill:#5B4221;" d="M3741.46,2318.068c-28.747-17.868-58.993-33.069-90.384-45.265
						c-15.713-6.044-31.651-11.487-47.851-16.024c-16.178-4.598-32.563-8.47-49.108-11.471c-16.526-3.106-33.21-5.364-49.963-6.845
						c-16.75-1.563-33.581-2.173-50.416-2.151c-33.676,0.163-67.357,3.536-100.595,9.932c32.687-8.836,66.546-13.571,100.511-14.613
						c16.988-0.582,34.01-0.074,50.971,1.171c16.958,1.326,33.844,3.564,50.582,6.61c16.718,3.151,33.291,7.088,49.598,11.927
						c16.286,4.9,32.36,10.521,48.016,17.139C3684.167,2281.602,3714.092,2298.131,3741.46,2318.068z"/>
				</g>
			</g>
			<g>
				<g>
					<path style="fill:#5B4221;" d="M3535.05,2423.637l-8.584-6.18l-8.817-5.828l-9.004-5.518l-9.201-5.169
						c-12.395-6.658-25.273-12.371-38.456-17.212c-26.345-9.778-53.853-16.102-81.63-20.078c-27.807-3.899-55.91-5.578-84.015-5.623
						c-28.11-0.102-56.232,1.25-84.292,3.499c-28.091,2.146-56.167,4.884-84.311,7.183c-28.146,2.217-56.364,4.186-84.654,4.598
						c-28.276,0.486-56.636-0.482-84.737-3.883c-14.041-1.749-28.005-4.1-41.805-7.166l-10.316-2.435l-10.242-2.715l-10.143-3.05
						l-10.045-3.338l10.173,2.903l10.246,2.608l10.297,2.372l10.352,2.097c13.837,2.615,27.796,4.507,41.802,5.8
						c28.01,2.685,56.189,3.012,84.306,2.126c28.125-0.966,56.217-3.031,84.288-5.578c28.079-2.466,56.16-5.25,84.324-7.5
						c28.188-2.142,56.479-3.485,84.799-3.186c28.304,0.371,56.663,2.188,84.668,6.675c27.991,4.414,55.658,11.436,81.989,21.962
						c13.141,5.304,25.928,11.471,38.174,18.559l9.079,5.486l8.854,5.831l8.582,6.214L3535.05,2423.637z"/>
				</g>
			</g>
		</g>
		<path style="fill:#D1D3BE;stroke:#5B4221;stroke-width:6;stroke-miterlimit:10;" d="M4900.197,1782.275
			c-0.662,8.569-1.888,16.99-3.479,25.244c-14.168,73.273-83.782,122.178-157.7,111.872
			c-412.58-57.474-1143.858,305.486-1858.732,437.468c-644.26,118.92-1534.574-203.427-1814.893-314.827
			c-40.361-16-70.311-49.374-82.57-89.534c-3.991-12.895-6.141-26.46-6.222-40.366l-3.688-525.056
			c-0.395-61.322,38.824-115.833,97.077-134.863c365.985-119.604,1669.75-499.43,2376.163-97.529
			c682.962,388.546,1162.827,437.018,1309.485,442.122c40.821,1.444,79.287,20.22,104.75,52.156
			C4894.957,1692.272,4903.821,1739.05,4900.197,1782.275z"/>
		<path style="fill:#B1AD87;" d="M4889.933,1812.59c-2.981,15.439-20.55,33.929-27.965,46.874c-0.687-0.937,5.281-6.101,4.544-7.035
			c-25.464-31.936-50.391-40.786-91.212-42.229c-146.658-5.104-626.523-53.576-1309.485-442.122
			c-706.413-401.901-2010.178-22.075-2376.163,97.529c-58.253,19.03-97.472,73.542-97.077,134.863l2.768,393.416
			c-11.011-20.106-17.221-42.955-17.372-66.864l-3.688-525.056c-0.395-61.321,38.824-115.833,97.077-134.863
			c365.985-119.604,1669.75-499.43,2376.163-97.529c682.962,388.546,1162.827,437.018,1309.485,442.122
			c40.821,1.444,79.286,20.22,104.75,52.156C4903.175,1715.738,4899.56,1762.806,4889.933,1812.59z"/>
		<path style="fill:#E0E1CF;" d="M4895.346,1792.631c-14.168,73.273-83.782,122.178-157.701,111.872
			c-412.58-57.474-1143.857,305.486-1858.732,437.468c-644.26,118.92-1534.574-203.427-1814.893-314.827
			c-53.298-21.163-88.41-72.53-88.792-129.899l-2.212-314.593c14.359,16.244,32.522,29.234,53.508,37.56
			c280.319,111.4,1170.633,433.747,1814.893,314.827c714.875-131.982,1478.618-142.599,1891.198-85.125
			c58.354,8.136,133.345-1.662,161.156-50.168"/>
		<g>
			
				<linearGradient id="SVGID_00000121249023538065569390000012919067425706839997_" gradientUnits="userSpaceOnUse" x1="1812.7958" y1="1748.45" x2="898.7668" y2="1747.2805" gradientTransform="matrix(0.9958 -0.0918 0.0918 0.9958 625.3939 275.9948)">
				<stop  offset="0.1491" style="stop-color:#CCBD96"/>
				<stop  offset="0.2125" style="stop-color:#C4B48D"/>
				<stop  offset="0.5702" style="stop-color:#98865D"/>
				<stop  offset="0.8443" style="stop-color:#7C6A40"/>
				<stop  offset="1" style="stop-color:#725F35"/>
			</linearGradient>
			
				<path style="fill:url(#SVGID_00000121249023538065569390000012919067425706839997_);stroke:#5B4221;stroke-width:6;stroke-miterlimit:10;" d="
				M1519.663,2037.896c135.599-17.526,275.492-0.767,403.115,48.291c66.386,25.519,130.301,59.835,200.391,71.905
				c18.545,3.193,37.885,4.741,55.958-0.504c18.072-5.245,34.75-18.415,39.836-36.533c3.447-12.279,1.54-26.078,7.648-37.274
				c11.425-20.94,44.794-22.543,54.473-44.346c8.937-20.132-8.24-45.299,1.802-64.903c6.421-12.536,21.328-17.525,33.184-25.13
				s21.734-24.165,12.769-35.028c-4.285-5.192-11.494-6.986-16.471-11.52c-14.979-13.645,0.442-39.666,19.484-46.591
				c19.043-6.925,41.092-4.908,58.556-15.184c22.131-13.021,29.76-43.625,21.168-67.822c-8.592-24.197-30.25-41.974-54.021-51.683
				c-23.771-9.709-49.739-12.41-75.325-14.572c-176.423-14.906-353.836-8.9-530.887-8.639c-41.56,0.061-87.846-2.08-117.01-31.689
				c41.825,46.501,69.674,101.159,104.23,153.29c11.033,16.644,22.088,35.039,20.92,54.974
				c-1.312,22.409-17.674,40.804-34.12,56.082C1667.096,1985.146,1596.127,2016.035,1519.663,2037.896z"/>
			<g>
				<g>
					<path style="fill:#5B4221;" d="M2328.644,1848.341c-4.22,4.598-9.085,8.617-14.374,11.988
						c-5.305,3.35-11.024,6.041-16.947,8.149c-11.864,4.196-24.501,6.133-37.11,6.148c-12.632-0.031-25.161-1.891-37.43-4.575
						c-12.283-2.685-24.284-6.334-36.226-9.945c-5.971-1.814-11.918-3.649-17.912-5.316l-17.93-5.177
						c-5.99-1.675-12.03-3.172-18.042-4.767l-9.027-2.358c-3.012-0.772-6.052-1.432-9.077-2.154l-18.158-4.286l-18.255-3.852
						l-9.13-1.914l-9.175-1.682c-6.119-1.11-12.229-2.268-18.354-3.339l-18.42-2.955c-3.073-0.473-6.134-1.031-9.217-1.435
						l-9.245-1.241l-9.245-1.242c-3.085-0.391-6.157-0.882-9.254-1.178l-18.548-2.027c-6.175-0.764-12.38-1.2-18.576-1.755
						l-9.297-0.8l-4.649-0.4c-1.55-0.127-3.104-0.196-4.656-0.297l-18.63-1.126l-4.657-0.295l-4.663-0.177l-9.327-0.354
						c-6.219-0.203-12.436-0.566-18.66-0.566l-18.672-0.251c-3.113-0.086-6.225-0.005-9.337,0.015l-9.339,0.094l-9.341,0.094
						c-3.115-0.01-6.223,0.2-9.336,0.269l-18.68,0.579c-6.224,0.276-12.441,0.688-18.665,1.026l-9.336,0.533
						c-3.109,0.218-6.211,0.511-9.319,0.753l-18.656,1.441l18.569-2.343c3.098-0.37,6.195-0.765,9.297-1.099l9.32-0.871
						c6.216-0.563,12.429-1.201,18.652-1.703l18.692-1.256c6.231-0.471,12.474-0.641,18.717-0.868l9.365-0.338
						c3.122-0.102,6.244-0.264,9.368-0.259c12.494-0.11,24.996-0.3,37.492,0.07l9.374,0.18l4.688,0.09l4.683,0.208l18.732,0.907
						c1.561,0.084,3.124,0.136,4.682,0.245l4.676,0.349l9.352,0.698c6.233,0.486,12.478,0.855,18.693,1.552l18.66,1.927
						c3.115,0.286,6.206,0.767,9.309,1.149l9.301,1.214l9.302,1.214c3.102,0.395,6.182,0.944,9.274,1.408l18.535,2.91
						c6.156,1.1,12.297,2.287,18.446,3.427l9.22,1.726l9.174,1.958l18.341,3.942l18.23,4.428c3.033,0.76,6.081,1.458,9.1,2.268
						l9.048,2.472c6.025,1.671,12.077,3.244,18.078,4.996c11.963,3.622,23.979,7.15,35.81,11.088
						c11.854,3.852,23.697,7.614,35.718,10.583c12.008,2.965,24.254,5.071,36.582,5.463c12.315,0.428,24.76-1.02,36.565-4.724
						c5.896-1.859,11.615-4.316,16.983-7.42C2319.185,1856.482,2324.207,1852.731,2328.644,1848.341z"/>
				</g>
			</g>
			<g>
				<g>
					<path style="fill:#5B4221;" d="M2283.723,1968.88c-43.987,11.646-89.944,16.22-135.585,13.89
						c-45.627-2.52-90.968-11.688-133.91-27.576c-10.676-4.112-21.314-8.35-31.658-13.253c-2.598-1.197-5.216-2.354-7.796-3.585
						c-2.558-1.271-5.142-2.499-7.679-3.806c-5.097-2.576-10.169-5.191-15.181-7.906c-10.044-5.395-19.977-10.951-29.913-16.463
						c-9.945-5.496-19.87-10.997-29.893-16.286c-10.021-5.295-20.189-10.277-30.517-14.884
						c-10.328-4.602-20.864-8.747-31.665-12.066c-10.783-3.355-21.815-5.999-33.039-7.458c-2.809-0.325-5.614-0.736-8.441-0.902
						l-4.237-0.329l-4.247-0.145c-2.834-0.167-5.669-0.065-8.509-0.061c-1.422-0.02-2.836,0.103-4.255,0.17l-4.258,0.234l4.24-0.459
						c1.415-0.143,2.828-0.341,4.251-0.397c2.841-0.155,5.686-0.409,8.537-0.393l4.279-0.047l4.277,0.143
						c2.857,0.043,5.698,0.331,8.548,0.534c2.847,0.234,5.679,0.625,8.517,0.971l4.233,0.681c1.413,0.221,2.825,0.448,4.223,0.745
						c2.805,0.553,5.616,1.09,8.392,1.781c1.39,0.333,2.79,0.636,4.174,0.995l4.144,1.111c22.083,6.107,43.105,15.421,63.489,25.611
						c20.425,10.167,40.212,21.433,60.328,31.895c5.028,2.618,10.054,5.228,15.119,7.749c2.522,1.286,5.078,2.487,7.616,3.735
						c2.555,1.206,5.143,2.335,7.712,3.507c10.226,4.801,20.748,8.929,31.294,12.958l15.966,5.667l16.195,4.984
						c10.873,3.051,21.802,5.942,32.869,8.231c22.085,4.799,44.525,7.923,67.083,9.662
						C2193.579,1981.29,2239.174,1978.101,2283.723,1968.88z"/>
				</g>
			</g>
			<g>
				<g>
					<path style="fill:#5B4221;" d="M2224.177,2075.559c-6.066,0.728-12.129,1.682-18.255,1.948
						c-6.113,0.534-12.248,0.397-18.385,0.466c-12.27-0.314-24.513-1.506-36.664-3.382c-12.123-2.041-24.102-4.852-35.952-8.128
						c-11.821-3.38-23.446-7.389-34.951-11.701c-11.467-4.408-22.782-9.19-33.951-14.284c-11.143-5.148-22.163-10.52-33.115-16.007
						c-21.861-11.052-43.434-22.564-65.292-33.402c-10.921-5.429-21.907-10.704-33.012-15.693
						c-11.127-4.933-22.389-9.528-33.776-13.768c-5.733-1.997-11.432-4.113-17.242-5.869c-5.775-1.889-11.597-3.558-17.465-5.083
						c-11.75-2.98-23.664-5.325-35.688-6.904c-6.015-0.752-12.05-1.368-18.103-1.727c-6.053-0.339-12.116-0.525-18.181-0.461
						c-6.062,0.089-12.128,0.331-18.168,0.898c-6.037,0.575-12.062,1.339-18.035,2.42c-5.971,1.08-11.913,2.367-17.767,4.001
						c-5.845,1.656-11.628,3.558-17.291,5.79c-5.647,2.269-11.183,4.822-16.579,7.666c-5.379,2.874-10.608,6.038-15.665,9.481
						c4.879-3.688,9.961-7.118,15.223-10.273c5.309-3.072,10.796-5.84,16.408-8.342c5.63-2.463,11.402-4.601,17.257-6.495
						c5.864-1.872,11.834-3.398,17.852-4.717c24.143-5.043,49.114-5.615,73.607-2.891c6.129,0.679,12.231,1.579,18.309,2.623
						c6.07,1.091,12.1,2.392,18.097,3.83c5.986,1.481,11.941,3.115,17.812,4.96c5.919,1.716,11.714,3.79,17.55,5.749
						c11.579,4.173,22.965,8.832,34.222,13.752c11.223,4.994,22.311,10.255,33.305,15.683
						c21.914,10.997,43.491,22.532,65.193,33.723c10.85,5.593,21.755,11.064,32.754,16.3c11.04,5.151,22.168,10.1,33.442,14.696
						c11.306,4.508,22.761,8.625,34.364,12.292c11.632,3.558,23.416,6.623,35.354,9.001c11.949,2.294,24.034,3.921,36.205,4.679
						c6.087,0.158,12.189,0.505,18.286,0.215C2211.997,2076.643,2218.072,2075.989,2224.177,2075.559z"/>
				</g>
			</g>
		</g>
		<path style="fill:#84815A;" d="M4893.771,1799.747c-6.189-21.55-9.035-45.675-25.61-66.419
			c-25.464-31.936-63.929-50.713-104.75-52.156c-48.957-1.745-97.8-6.603-146.352-13.19c-36.034-4.887-71.961-10.786-107.717-17.551
			c-35.354-6.752-70.521-14.171-105.616-22.448c3.539,8.532,5.781,19.836,7.668,35.427c4.968,40.881-1.139,83.233-18.044,120.825
			c-7.023-39.29-14.201-79.168-31.954-114.867c-11.557-23.308-27.338-44.125-44.183-63.994l-20.157-5.299
			c0.276,0.275,0.506,0.604,0.782,0.879c-65.888-18.201-131.047-38.823-195.497-61.511
			c-76.348-26.897-151.702-56.589-225.986-88.781c10.887,22.018,14.402,47.669,15.136,72.475
			c1.323,45.321-5.691,90.859-20.199,133.836c-7.944,23.504-29.94,97.098-60.013,96.065c-7.52-57.713-5.089-110.636-23.952-168.153
			c-20.461-62.376-49.536-121.555-71.554-183.437c-2.504-7.076-4.748-15.678-0.035-21.567c0.581-0.754,1.271-1.418,1.974-1.934
			c-29.178-14.127-58.189-28.62-87.026-43.38c-59.617-30.54-118.555-62.395-176.76-95.518
			c-71.672-40.791-149.458-73.511-231.855-99.251c-2.14,17.513-15.41,35.352-17.478,52.559
			c-4.154,34.765,19.323,65.233,27.223,97.736c10.38,42.585-4.812,86.825-19.832,128.047
			c-34.469,94.662-68.932,189.374-103.446,284.091c-44.297-76.644-11.813-174.377-29.565-261.125
			c-9.128-44.752-31.503-85.531-46.437-128.647c-19.66-56.944-26.142-117.504-32.513-177.425
			c-1.379-13.335-2.597-27.637,3.99-39.255c1.333-2.375,2.941-4.474,4.766-6.394c-126.636-21.363-259.844-30.409-394.964-30.32
			c8.408,27.151,6.596,65.604,4.776,97.452c-8.177,143.188,2.869,287.507,32.716,427.842c2.473,11.633-1.02,29.671-12.501,26.726
			c-3.895-0.992-6.57-4.5-8.921-7.737c-25.517-35.234-50.985-70.473-76.453-105.712c-18.526-25.619-37.423-52.003-45.983-82.445
			c-22.672-80.939,32.36-169.689,6.039-249.491c-9.117-27.787-28.023-54.822-22.206-83.484c1.547-7.65,4.805-14.657,9.282-20.924
			c-90.979,3.328-182.216,10.384-272.348,20.19c16.285,34.433,6.621,78.914,3.172,114.816
			c-5.248,54.935-12.513,109.705-21.759,164.157c-10.522,62.328-23.684,124.248-39.311,185.494
			c-1.356,5.38-3.253,11.41-8.231,13.871c-10.285,5.151-19.241-8.937-22.219-20.074c-10.049-37.36-20.151-74.765-30.205-112.175
			c-12.079-44.73-24.108-89.466-33.887-134.758c-9.506-43.966-16.875-89.18-11.276-133.788c2.319-18.281,10.87-40.089,23.348-60.006
			c-126.927,17.851-250.066,40.408-365.177,64.827c2.385,17.197-6.848,37.566-9.087,55.089c-4.693,36.516-0.428,74.11,8.404,109.68
			c16.741,67.623,47.902,131.514,58.697,200.335c-53.832-55.197-104.676-113.271-152.346-173.839
			c-28.799-36.633-57.977-79.538-51.779-125.802c1.48-11.097,6.676-23.687,14.448-36.014
			c-224.455,52.762-407.77,108.79-513.244,143.282c-58.253,19.03-97.472,73.542-97.077,134.863l3.508,495.945
			c-3.991-12.895-6.142-26.46-6.222-40.366l-3.688-525.056c-0.395-61.321,38.824-115.833,97.077-134.863
			c365.985-119.604,1669.75-499.43,2376.163-97.529c682.962,388.546,1162.827,437.018,1309.485,442.122
			c40.821,1.444,79.286,20.22,104.75,52.156C4896.329,1707.16,4897.396,1756.522,4893.771,1799.747z"/>
		<g>
			<g>
				<g>
					<path style="fill:#B1AD87;" d="M883.735,2006.152c-3.017,0-6.005-0.156-8.882-0.466c-27.211-2.92-51.695-16.391-75.372-29.417
						l-2.454-1.35c-106.5-58.529-218.85-107.993-333.929-147.017l-0.848-0.287c-34.279-11.622-69.725-23.641-91.373-52.423
						c-6.595-8.77-9.928-20.054-8.49-28.747c0.908-5.493,3.671-9.952,7.991-12.896c5.082-3.464,11.227-3.864,15.407-3.864
						c2.066,0,4.121,0.109,5.884,0.211l223.501,12.932c71.533,4.139,152.611,8.83,219.301,48.416
						c44.724,26.547,80.272,68.49,100.098,118.103c0.48,1.2,0.977,2.43,1.483,3.685c7.932,19.645,18.794,46.549,6.669,65.894
						C930.14,1999,904.001,2006.152,883.735,2006.152z"/>
					<path style="fill:#5B4221;" d="M385.784,1732.687c1.915,0,3.835,0.097,5.712,0.206c74.5,4.311,149,8.621,223.5,12.932
						c75.023,4.341,153.321,9.642,217.943,48.001c44.663,26.511,79.608,68.501,98.844,116.636
						c7.952,19.898,20.436,47.661,8.395,66.872c-11.297,18.024-35.443,25.819-56.445,25.819c-2.93,0-5.797-0.152-8.562-0.448
						c-27.54-2.957-52.427-17.073-76.701-30.414c-106.875-58.736-218.918-108.065-334.41-147.228
						c-33.514-11.365-69.516-23.392-90.787-51.674c-8.4-11.168-12.754-29.49-1.206-37.36
						C376.04,1733.323,380.891,1732.687,385.784,1732.687 M385.784,1726.687L385.784,1726.687c-4.577,0-11.329,0.455-17.095,4.384
						c-5.014,3.417-8.217,8.564-9.262,14.885c-1.565,9.464,1.988,21.647,9.052,31.04c22.205,29.524,59.713,42.241,92.806,53.461
						l0.849,0.288c114.917,38.968,227.105,88.36,333.447,146.804l2.446,1.345c23.939,13.171,48.693,26.79,76.505,29.776
						c2.984,0.32,6.08,0.483,9.202,0.483c21.069,0,48.297-7.522,61.529-28.633c12.938-20.643,1.745-48.367-6.428-68.61
						c-0.505-1.251-1-2.478-1.479-3.675c-20.07-50.223-56.065-92.687-101.353-119.569c-29.667-17.61-64.69-29.877-107.071-37.502
						c-36.033-6.483-72.76-8.966-113.588-11.329l-111.75-6.466l-111.75-6.466C390.038,1726.798,387.932,1726.687,385.784,1726.687
						L385.784,1726.687z"/>
				</g>
				<g>
					<path style="fill:#84815A;" d="M931.784,1910.461c-19.236-48.135-54.181-90.125-98.844-116.636
						c-64.622-38.358-142.92-43.66-217.943-48c-74.5-4.311-149-8.621-223.5-12.932c-6.676-0.386-13.903-0.629-19.429,3.137
						c-11.548,7.87-7.193,26.192,1.206,37.36c0.346,0.46,0.728,0.88,1.082,1.332c29.543,1.709,59.087,3.418,88.63,5.128
						c75.023,4.34,133.928,16.434,198.55,54.792c44.663,26.512,79.608,68.502,98.844,116.637c2.7,6.756,25.3,7.634,27.907,15.56
						c3.385,1.836,6.81,3.598,10.184,5.452c24.274,13.34,49.161,27.457,76.701,30.414c22.578,2.423,52.134-4.832,65.007-25.371
						C952.221,1958.122,939.736,1930.359,931.784,1910.461z"/>
				</g>
				<g>
					<path style="fill:#B1AD87;" d="M1032.65,2046.155c-0.655,0-1.31-0.007-1.957-0.022c-23.65-0.554-49.538-17.142-70.339-30.47
						c-3.626-2.323-7.051-4.518-10.31-6.532c-53.813-33.243-102.497-74.897-149.578-115.18
						c-48.212-41.251-98.066-83.906-153.305-117.372c-74.242-44.979-159.132-73.396-245.492-82.183l-3.503-0.35
						c-13.638-1.352-27.741-2.748-40.37-8.886c-13.321-6.474-26.133-20.535-24.728-37.356c1.854-22.199,25.501-33.794,45.896-41.415
						c98.017-36.628,193.196-82.517,282.894-136.39c21.135-12.694,42.394-26.09,62.953-39.045
						c55.423-34.924,112.733-71.038,173.92-97.395c79.62-34.298,167.639-52.426,254.54-52.426c7.754,0,15.605,0.144,23.335,0.428
						c53.458,1.967,104.17,10.905,150.728,26.565c50.941,17.135,95.542,41.949,132.565,73.751
						c39.232,33.701,69.9,76.718,88.688,124.399c19.682,49.95,24.769,101.76,14.71,149.827
						c-11.407,54.508-41.976,108.449-93.452,164.904c-50.031,54.87-108.974,101.369-175.191,138.206
						c-58,32.265-119.853,56.079-183.839,70.782c-6.535,1.502-13.494,3.402-20.862,5.414c-18.439,5.036-39.341,10.744-57.298,10.744
						C1032.652,2046.155,1032.652,2046.155,1032.65,2046.155z"/>
					<path style="fill:#5B4221;" d="M1153.269,1284.133c7.74,0,15.492,0.142,23.227,0.427
						c101.362,3.729,204.508,33.502,281.448,99.595c76.94,66.093,123.191,172.055,102.415,271.335
						c-12.989,62.07-50.005,116.639-92.732,163.498c-50.129,54.977-109.439,101.449-174.433,137.605
						c-57.324,31.889-119.113,55.788-183.052,70.481c-23.479,5.395-53.079,16.082-77.491,16.082c-0.633,0-1.263-0.007-1.888-0.022
						c-26.799-0.627-57.103-22.938-79.143-36.554c-108.727-67.168-193.515-166.293-302.904-232.566
						c-74.793-45.313-159.743-73.751-246.743-82.601c-14.604-1.485-29.663-2.533-42.866-8.949
						c-13.203-6.416-24.271-19.78-23.05-34.408c1.724-20.64,24.555-31.605,43.956-38.855
						c98.371-36.761,193.363-82.558,283.389-136.628c78.076-46.892,152.871-100.225,236.516-136.256
						C979.66,1301.965,1066.449,1284.133,1153.269,1284.133 M1153.269,1278.133c-43.639,0-87.559,4.486-130.539,13.333
						c-43.033,8.858-85.151,22.093-125.186,39.339c-61.402,26.45-118.812,62.626-174.332,97.612
						c-20.546,12.947-41.791,26.334-62.899,39.011c-89.543,53.78-184.556,99.588-282.4,136.152
						c-21.224,7.931-45.841,20.097-47.835,43.976c-1.523,18.237,12.165,33.383,26.406,40.304
						c13.111,6.371,27.483,7.795,41.383,9.172c1.168,0.116,2.334,0.231,3.498,0.349c85.92,8.74,170.377,37.013,244.241,81.763
						c55.028,33.338,104.787,75.912,152.908,117.085c47.168,40.357,95.941,82.088,149.952,115.454
						c3.239,2.001,6.655,4.19,10.271,6.507c21.115,13.53,47.395,30.368,71.885,30.941c0.672,0.016,1.349,0.023,2.029,0.023
						c18.36,0,39.469-5.764,58.092-10.85c7.337-2.004,14.268-3.896,20.742-5.384c64.263-14.767,126.38-38.683,184.625-71.085
						c66.5-36.994,125.699-83.695,175.95-138.806c51.848-56.863,82.652-111.264,94.171-166.312
						c10.179-48.643,5.042-101.045-14.855-151.541c-9.408-23.876-21.912-46.818-37.167-68.191
						c-15.189-21.281-32.805-40.587-52.357-57.383c-37.317-32.056-82.254-57.061-133.563-74.32
						c-46.831-15.753-97.828-24.743-151.574-26.72C1168.949,1278.278,1161.06,1278.133,1153.269,1278.133L1153.269,1278.133z"/>
				</g>
				<g>
					<path style="fill:#84815A;" d="M359.107,1682.463c0.563,0.274,1.147,0.484,1.716,0.738c6.472-3.602,13.517-6.543,20.172-9.031
						c98.371-36.76,193.363-82.558,283.389-136.628c78.076-46.893,152.871-100.225,236.516-136.256
						c86.851-37.413,182.076-55.232,276.578-51.756c101.362,3.728,204.508,33.502,281.448,99.595
						c55.081,47.315,94.419,115.065,104.712,186.167c11.083-93.218-33.951-189.51-105.694-251.138
						c-76.941-66.093-180.087-95.867-281.448-99.595c-94.502-3.477-189.727,14.343-276.578,51.755
						c-83.645,36.031-158.44,89.363-236.516,136.256c-90.026,54.07-185.018,99.868-283.389,136.628
						c-19.401,7.25-42.232,18.216-43.956,38.856C334.835,1662.683,345.904,1676.047,359.107,1682.463z"/>
				</g>
			</g>
		</g>
		
			<ellipse transform="matrix(0.7071 -0.7071 0.7071 0.7071 -871.1381 1033.4788)" style="fill:#D1D3BE;" cx="811.95" cy="1568.296" rx="86.855" ry="86.855"/>
		
			<ellipse transform="matrix(0.1376 -0.9905 0.9905 0.1376 -854.0362 2119.2283)" style="fill:#4F4244;" cx="790.036" cy="1550.079" rx="61.721" ry="61.721"/>
		<path style="fill:#84815A;" d="M1008.928,1861.293c8.378,35.455-5.695,75.209-34.514,97.496
			c39.342-1.567,77.886-18.321,105.87-46.018c13.942-13.8,25.904-32.838,21.669-51.992c-4.652-21.041-26.48-33.166-46.743-40.501
			c-26.835-9.714-59.007-19.212-87.494-17.481C987.398,1817.619,1003.156,1836.865,1008.928,1861.293z"/>
		<path style="fill:#84815A;" d="M360.257,1681.079c0.563,0.274,1.147,0.484,1.716,0.738c6.472-3.602,13.517-6.543,20.172-9.031
			c98.371-36.76,193.363-82.558,283.389-136.628c78.076-46.893,152.871-100.225,236.516-136.256
			c86.851-37.413,182.076-55.232,276.578-51.755c101.362,3.728,204.508,33.502,281.448,99.595
			c55.081,47.315,94.42,115.065,104.712,186.167c11.083-93.217-33.951-189.509-105.694-251.138
			c-76.941-66.093-180.086-95.867-281.448-99.595c-94.502-3.477-189.727,14.343-276.578,51.755
			c-83.645,36.031-158.44,89.363-236.516,136.256c-90.026,54.07-185.017,99.868-283.389,136.628
			c-19.401,7.25-42.232,18.216-43.956,38.856C335.986,1661.3,347.054,1674.663,360.257,1681.079z"/>
		<path style="fill:#4F4244;" d="M784.373,1488.619c-24.583,2.265-44.401,18.681-52.309,40.442
			c9.958-10.597,23.631-17.78,39.25-19.22c33.944-3.128,63.996,21.854,67.124,55.797c0.862,9.361-0.477,18.396-3.489,26.682
			c11.684-12.432,18.236-29.579,16.547-47.904C848.369,1510.473,818.316,1485.491,784.373,1488.619z"/>
		
			<ellipse transform="matrix(0.6536 -0.7569 0.7569 0.6536 -884.239 1170.2837)" style="fill:#F0EBC3;" cx="836.29" cy="1551.078" rx="27.207" ry="27.207"/>
	</g>
</g>
</svg>
