<?xml version="1.0" encoding="utf-8"?>
<!-- Generator: Adobe Illustrator 27.5.0, SVG Export Plug-In . SVG Version: 6.00 Build 0)  -->
<svg version="1.1" id="Layer_1" xmlns="http://www.w3.org/2000/svg" xmlns:xlink="http://www.w3.org/1999/xlink" x="0px" y="0px"
	 viewBox="0 0 514.757 600.612" style="enable-background:new 0 0 514.757 600.612;" xml:space="preserve">
<g>
	<g>
		<path style="fill:#D99668;" d="M450.698,597.784L450.698,597.784c-10.083,5.821-22.976,2.367-28.798-7.716l-50.432-87.35
			c-5.821-10.083-2.367-22.976,7.716-28.798l0,0c10.083-5.821,22.976-2.367,28.798,7.716l50.432,87.35
			C464.236,579.069,460.781,591.962,450.698,597.784z"/>
		<path style="fill:#D99668;" d="M64.072,597.784L64.072,597.784c-10.083-5.821-13.538-18.715-7.716-28.798l50.432-87.35
			c5.821-10.083,18.715-13.538,28.798-7.716l0,0c10.083,5.821,13.538,18.715,7.716,28.798l-50.432,87.35
			C87.048,600.15,74.155,603.605,64.072,597.784z"/>
	</g>
	<g>
		<path style="fill:#7E8596;" d="M433.935,82.134L433.935,82.134c10.251,5.919,13.763,19.027,7.845,29.278l-51.272,88.806
			c-5.918,10.251-19.027,13.763-29.278,7.845l0,0c-10.251-5.918-13.763-19.027-7.845-29.278l51.272-88.806
			C410.576,79.728,423.684,76.216,433.935,82.134z"/>
		<path style="fill:#FFC247;" d="M480.171,147.654c12.712,7.339,28.904,0.252,32.181-14.056
			c9.158-39.993-8.213-82.935-45.601-104.521s-83.262-15.159-113.318,12.769c-10.753,9.991-8.794,27.558,3.918,34.897
			L480.171,147.654z"/>
	</g>
	<g>
		<path style="fill:#7E8596;" d="M80.822,82.134L80.822,82.134c10.251-5.919,23.359-2.406,29.278,7.845l51.272,88.806
			c5.918,10.251,2.406,23.359-7.845,29.278l0,0c-10.251,5.918-23.359,2.406-29.278-7.845l-51.272-88.806
			C67.059,101.161,70.571,88.053,80.822,82.134z"/>
		<path style="fill:#FFC247;" d="M157.407,76.744c12.712-7.339,14.67-24.906,3.918-34.897
			C131.268,13.918,85.394,7.491,48.006,29.077S-6.753,93.605,2.406,133.598c3.276,14.308,19.469,21.395,32.181,14.056
			L157.407,76.744z"/>
	</g>
	<g>
		<rect x="241.177" y="16.202" style="fill:#7E8596;" width="32.404" height="173.571"/>
		<path style="fill:#CDD2E1;" d="M199.171,16.202L199.171,16.202C199.171,7.254,206.425,0,215.373,0h84.012
			c8.948,0,16.202,7.254,16.202,16.202v0c0,8.948-7.254,16.202-16.202,16.202h-84.012C206.425,32.404,199.171,25.15,199.171,16.202z
			"/>
	</g>
	<circle style="fill:#4A98F7;" cx="257.385" cy="322.6" r="233.541"/>
	<path style="fill:#F2F6FC;" d="M447.045,322.621c0,3.601-0.124,7.264-0.31,10.803c-1.49,26.696-8.505,51.902-19.929,74.501
		c-3.228,6.457-6.892,12.727-10.803,18.687c-14.279,21.729-32.842,40.292-54.572,54.572c-5.96,3.973-12.23,7.574-18.687,10.865
		c-22.599,11.424-47.867,18.439-74.563,19.929c-3.601,0.186-7.202,0.31-10.803,0.31s-7.202-0.124-10.803-0.31
		c-26.696-1.49-51.964-8.505-74.563-19.929c-6.457-3.29-12.727-6.891-18.687-10.865c-21.729-14.279-40.292-32.842-54.572-54.572
		c-3.911-5.96-7.512-12.169-10.803-18.625c-11.424-22.599-18.439-47.867-19.929-74.563c-0.186-3.539-0.31-7.202-0.31-10.803
		c0-3.601,0.124-7.264,0.31-10.803c1.49-26.696,8.505-51.964,19.929-74.563c3.29-6.457,6.891-12.727,10.865-18.687
		c14.217-21.729,32.842-40.292,54.572-54.572c5.96-3.911,12.231-7.512,18.687-10.803c22.599-11.424,47.805-18.439,74.501-19.929
		c3.601-0.186,7.202-0.31,10.803-0.31s7.202,0.124,10.803,0.31c26.696,1.49,51.902,8.505,74.501,19.929
		c6.457,3.29,12.728,6.891,18.687,10.803c21.729,14.279,40.355,32.842,54.572,54.572c3.973,5.96,7.574,12.231,10.865,18.687
		c11.423,22.599,18.439,47.867,19.929,74.563C446.921,315.357,447.045,319.02,447.045,322.621z"/>
	<polygon style="fill:#D99668;" points="266.83,218.231 257.385,205.301 247.94,218.231 247.94,322.6 266.83,322.6 	"/>
	<polygon style="fill:#D99668;" points="330.439,331.37 341.635,322.599 330.439,313.828 257.385,313.828 257.385,331.37 	"/>
	<g>
		<path style="fill:#C6C6C6;" d="M268.181,133.265v15.769c0,5.96-4.842,10.803-10.803,10.803c-5.96,0-10.803-4.843-10.803-10.803
			v-15.769c3.601-0.186,7.202-0.31,10.803-0.31S264.581,133.079,268.181,133.265z"/>
		<path style="fill:#C6C6C6;" d="M175.987,181.69c-5.153,2.98-11.734,1.18-14.714-3.973l-7.885-13.72
			c5.96-3.911,12.231-7.512,18.687-10.803l7.885,13.72C182.94,172.067,181.201,178.71,175.987,181.69z"/>
		<path style="fill:#C6C6C6;" d="M116.448,241.229c-2.98,5.153-9.623,6.953-14.776,3.973l-13.72-7.947
			c3.29-6.457,6.891-12.727,10.865-18.687l13.659,7.885C117.69,229.433,119.428,236.076,116.448,241.229z"/>
		<path style="fill:#C6C6C6;" d="M94.657,322.621c0,5.96-4.843,10.803-10.803,10.803H68.022c-0.186-3.539-0.31-7.202-0.31-10.803
			c0-3.601,0.124-7.264,0.31-10.803h15.831C89.814,311.818,94.657,316.661,94.657,322.621z"/>
		<path style="fill:#C6C6C6;" d="M112.475,418.727l-13.721,7.885c-3.911-5.96-7.512-12.169-10.803-18.625l13.72-7.947
			c5.153-2.98,11.796-1.242,14.776,3.911C119.428,409.166,117.69,415.747,112.475,418.727z"/>
		<path style="fill:#C6C6C6;" d="M179.96,478.328l-7.947,13.72c-6.457-3.29-12.727-6.891-18.687-10.865l7.947-13.72
			c2.98-5.153,9.561-6.891,14.714-3.911C181.201,466.532,182.94,473.113,179.96,478.328z"/>
		<path style="fill:#C6C6C6;" d="M268.181,496.146v15.831c-3.601,0.186-7.202,0.31-10.803,0.31s-7.202-0.124-10.803-0.31v-15.831
			c0-5.96,4.843-10.803,10.803-10.803C263.339,485.343,268.181,490.186,268.181,496.146z"/>
		<path style="fill:#C6C6C6;" d="M361.431,481.183c-5.96,3.973-12.23,7.574-18.687,10.865l-7.947-13.72
			c-2.98-5.215-1.242-11.796,3.973-14.776c5.153-2.98,11.734-1.242,14.776,3.911L361.431,481.183z"/>
		<path style="fill:#C6C6C6;" d="M426.806,407.924c-3.228,6.457-6.892,12.727-10.803,18.687l-13.72-7.885
			c-5.153-2.98-6.953-9.561-3.973-14.776c2.98-5.153,9.623-6.891,14.776-3.911L426.806,407.924z"/>
		<path style="fill:#C6C6C6;" d="M447.045,322.621c0,3.601-0.124,7.264-0.31,10.803h-15.831c-5.96,0-10.803-4.842-10.803-10.803
			c0-5.96,4.842-10.803,10.803-10.803h15.831C446.921,315.357,447.045,319.02,447.045,322.621z"/>
		<path style="fill:#C6C6C6;" d="M426.806,237.256l-13.721,7.947c-5.153,2.98-11.796,1.18-14.776-3.973
			c-2.98-5.153-1.18-11.796,3.973-14.776l13.659-7.885C419.914,224.528,423.515,230.799,426.806,237.256z"/>
		<path style="fill:#C6C6C6;" d="M361.369,163.997l-7.885,13.72c-2.98,5.153-9.561,6.954-14.714,3.973
			c-5.215-3.042-6.953-9.623-3.973-14.776l7.884-13.72C349.139,156.484,355.409,160.085,361.369,163.997z"/>
	</g>
	<circle style="fill:#CDD2E1;" cx="257.385" cy="322.6" r="29.035"/>
</g>
</svg>
