<?xml version="1.0" encoding="utf-8"?>
<!-- Generator: Adobe Illustrator 27.5.0, SVG Export Plug-In . SVG Version: 6.00 Build 0)  -->
<svg version="1.1" id="_x2018_ëîé_x5F_1" xmlns="http://www.w3.org/2000/svg" xmlns:xlink="http://www.w3.org/1999/xlink"
	 x="0px" y="0px" viewBox="0 0 4000 2000" style="enable-background:new 0 0 4000 2000;" xml:space="preserve">
<g>
	<path style="fill:#3E5366;" d="M1237.589,746.89c50.685-20.037,104.551-35.586,157.012-50.1
		c-7.763,14.552-12.929,30.743-13.118,47.379C1363.969,744.617,1246.267,751.401,1237.589,746.89z"/>
	<path style="fill:#55657D;" d="M1394.6,696.789c30.635-9.046,62.884-15.696,94.177-22.008
		c-21.756,22.65-44.65,42.353-63.376,67.922c11.896-0.005,24.669-0.819,36.406,1.022c-26.774,0.369-53.549,0.517-80.325,0.443
		C1381.671,727.532,1386.837,711.342,1394.6,696.789z"/>
	<path style="fill:#3E5366;" d="M1488.778,674.781c42.843-9.257,85.956-15.159,129.506-19.82l6.046,1.66
		c-0.914,2.184-1.548,3.481-3.48,4.962c-7.864,6.027-16.825,10.071-25.027,15.515c-9.262,6.148-17.924,13.953-26.291,21.261
		c-15.897,13.884-26.968,29.376-40.739,44.801l-7.611,1.547l-59.375-0.98c-11.737-1.842-24.51-1.028-36.406-1.022
		C1444.128,717.134,1467.021,697.431,1488.778,674.781z"/>
	<path style="fill:#3E5366;" d="M1618.284,654.961c29.483-6.19,68.947-4.548,99.327-4.487c38.15,0.126,75.576,2.413,113.529,6.058
		c-2.091,5.543-6.986,6.822-12.248,9.206c-31.196,14.135-59.714,28.237-86.983,49.202c-10.748,8.264-35.235,33.536-44.567,37.913
		c-2.333,1.096-7.822,0.797-10.504,0.843c-28.561-2.954-57.182-5.098-85.864-6.432c-23.044-2.001-46.649-1.664-69.791-2.558
		l7.611-1.547c13.771-15.425,24.842-30.917,40.739-44.801c8.367-7.307,17.029-15.113,26.291-21.261
		c8.202-5.444,17.163-9.488,25.027-15.515c1.932-1.481,2.566-2.778,3.48-4.962L1618.284,654.961z"/>
	<path style="fill:#55657D;" d="M1618.284,654.961c29.483-6.19,68.947-4.548,99.327-4.487l-1.436,1.01
		c-39.306,27.315-98.004,51.583-124.97,92.253l-0.231,3.527c-23.044-2.001-46.649-1.664-69.791-2.558l7.611-1.547
		c13.771-15.425,24.842-30.917,40.739-44.801c8.367-7.307,17.029-15.113,26.291-21.261c8.202-5.444,17.163-9.488,25.027-15.515
		c1.932-1.481,2.566-2.778,3.48-4.962L1618.284,654.961z"/>
	<path style="fill:#3E5366;" d="M1831.139,656.531c24.612,2.567,49.003,5.995,73.465,9.726c28.529,5.301,71.35,9.807,97.105,22.334
		c10.291,1.296,50.08,10.573,56.793,16.662c-17.885,8.777-39.862,12.962-58.83,19.493c-25.847,8.901-93.077,38.595-107.768,62.009
		l-55.921-11.111c-31.88-7.379-64.374-11.353-96.826-15.232c-20.546-0.75-41.86-4.341-62.321-6.716
		c2.682-0.046,8.171,0.253,10.504-0.843c9.332-4.378,33.819-29.649,44.567-37.913c27.269-20.966,55.787-35.068,86.983-49.202
		C1824.154,663.353,1829.048,662.074,1831.139,656.531z"/>
	<path style="fill:#55657D;" d="M1831.139,656.531c24.612,2.567,49.003,5.995,73.465,9.726
		c-40.555,7.185-141.12,64.548-165.446,94.154c-20.546-0.75-41.86-4.341-62.321-6.716c2.682-0.046,8.171,0.253,10.504-0.843
		c9.332-4.378,33.819-29.649,44.567-37.913c27.269-20.966,55.787-35.068,86.983-49.202
		C1824.154,663.353,1829.048,662.074,1831.139,656.531z"/>
	<path style="fill:#55657D;" d="M2001.709,688.591c10.291,1.296,50.08,10.573,56.793,16.662
		c-17.885,8.777-39.862,12.962-58.83,19.493c-25.847,8.901-93.077,38.595-107.768,62.009l-55.921-11.111
		c16.412-32.609,86.434-62.547,119.584-73.662c14.663-4.916,31.007-7.183,45.132-12.958
		C2001.031,688.885,2001.379,688.734,2001.709,688.591z"/>
	<path style="fill:#6FB1A9;" d="M1301.727,1294.379c1.845,6.384,0.537,13.156,1.17,19.766c1.251,13.055,4.388,24.872,8.471,37.281
		c-224.746,32.577-463.382,47.784-685.919-6.921c-37.875-9.31-75.727-19.077-111.36-35.179c34.605,5.891,68.44,13.842,103.349,18.32
		c125.091,16.048,253.359,14.582,379.006,7.13c49.551-2.939,111.238-6.19,159.571-15.575c12.986,7.991,24.787,13.768,40.377,14.049
		c26.799,0.48,48.286-15.991,66.733-33.415C1275.948,1299.055,1289.016,1296.349,1301.727,1294.379z"/>
	<path style="fill:#5B8085;" d="M1301.727,1294.379c22.754-3.91,45.03-8.216,67.437-13.886
		c18.208-4.607,37.215-11.108,55.744-13.539c5.56,19.405,23.664,39.339,36.848,54.254c12.239,12.896,24.992,23.723,39.451,34.071
		c28.134,20.136,102.37,58.208,101.752,97.415c-0.121,7.683-3.227,14.564-8.748,19.89c-15.18,14.641-40.088,18.247-60.36,17.585
		c-66.083-2.153-140.7-33.041-186.045-81.542c-15.712-16.804-28.16-35.729-36.437-57.202c-4.083-12.409-7.22-24.226-8.471-37.281
		C1302.265,1307.535,1303.573,1300.763,1301.727,1294.379z"/>
	<path style="fill:#6FB1A9;" d="M2848.038,432.649l1.926,4.39c-6.714,16.658-16.07,35.819-18.124,53.778
		c-1.651,14.556,1.119,40.761-3.082,53.228l0.458,1.248c6.127,17.466,7.576,36.949,12.969,54.884
		c16.656,55.39,58.169,95.585,109.221,120.732c60.683,29.895,128.868,48.367,194.485,63.74
		c108.781,25.482,311.796,44.099,354.117,167.138c12.18,35.385,9.979,85.53-6.476,119.286c-1.449,2.948-3.027,5.011-5.797,6.855
		c1.468,11.667-18.363,36.475-25.443,45.583c-11.667,14.979-53.455,59.676-72.991,60.871c-1.523,0.093-2.844-0.279-4.311-0.658
		c1.284-0.733,2.366-1.374,3.504-2.32c23.132-19.135,36.835-55.386,40.192-84.422c18.913-163.557-215.912-198.706-330.838-227.801
		c-56.207-14.228-113.569-29.398-165.648-55.44c-34.01-17.008-63.343-39.218-86.878-69.232
		c-43.127-54.967-62.902-128.822-51.089-197.793c2.843-16.599,12.932-36.209,14.327-49.32c0.037-0.277,0.055-0.555,0.073-0.834
		C2809.203,496.03,2846.588,435.773,2848.038,432.649z"/>
	<path style="fill:#5B8085;" d="M2848.038,432.649l1.926,4.39c-6.714,16.658-16.07,35.819-18.124,53.778
		c-1.651,14.556,1.119,40.761-3.082,53.228l0.458,1.248c6.127,17.466,7.576,36.949,12.969,54.884
		c16.656,55.39,58.169,95.585,109.221,120.732c60.683,29.895,128.868,48.367,194.485,63.74
		c108.781,25.482,311.796,44.099,354.117,167.138c12.18,35.385,9.979,85.53-6.476,119.286c-1.449,2.948-3.027,5.011-5.797,6.855
		c5.503-36.4-4.256-79.015-23.866-110.022c-68.406-108.191-252.71-121.254-368.48-147.423
		c-100.783-22.778-208.72-54.245-261.497-151.013c-18.913-34.679-27.773-72.904-27.351-112.319
		c0.11-10.041,6.494-50.967,5.118-55.797c-0.404-1.36-2.22-3.513-3.027-4.79C2809.203,496.03,2846.588,435.773,2848.038,432.649z"/>
	<path style="fill:#5B8085;" d="M3157.798,267.532c22.251-4.825,145.91-9.013,161.631,1.057c0.349,0.227,0.679,0.478,1.027,0.717
		c10.805,0.225,22.655,1.708,32.708,5.9c-13.116,1.722-26.287,3.489-38.853,7.742c-41.036,13.875-86.365,48.339-112.688,82.588
		c-26.416,34.391-41.238,73.844-48.025,116.435c-3.009,18.899-4.824,38.324-9.649,56.865
		c-10.456,40.176-31.845,77.827-58.83,109.204c-10.346,12.029-25.131,30.239-39.495,37.468l-1.706,0.861
		c-23.682-1.083-49.529-12.345-71.909-19.82c-11.19-6.717-24.214-11.302-35.735-17.889c-17.72-10.133-32.726-22.586-49.089-34.503
		c-13.409-14.919-28.525-29.686-37.239-47.953c-7.595-15.896-10.475-38.52-21.114-52.16c2.366,10.677,4.421,19.658-0.073,30.001
		c4.201-12.467,1.431-38.672,3.082-53.228c2.055-17.959,11.41-37.12,18.124-53.778l-1.926-4.39
		c19.023-13.121,33.68-35.562,52.042-50.476C2969.953,325.422,3067.471,276.568,3157.798,267.532z"/>
	<path style="fill:#6FB1A9;" d="M2848.038,432.649c19.023-13.121,33.68-35.562,52.042-50.476
		c69.873-56.751,167.391-105.606,257.718-114.641c-0.569,1.024-0.899,2.223-1.688,3.077c-3.687,3.886-22.031,9.57-27.737,12.139
		c-21.414,9.874-42.418,20.56-63.012,32.057c-20.228,11.19-39.666,23.607-58.316,37.252
		c-39.624,29.129-75.248,65.028-98.252,108.843c-9.833,18.76-19.096,41.008-22.123,62.076c-2.312,16.191,1.559,88.75,0.513,91.18
		c-13.409-14.919-28.525-29.686-37.239-47.953c-7.595-15.896-10.475-38.52-21.114-52.16c2.366,10.677,4.421,19.658-0.073,30.001
		c4.201-12.467,1.431-38.672,3.082-53.228c2.055-17.959,11.41-37.12,18.124-53.778L2848.038,432.649z"/>
	<path style="fill:#D08B79;" d="M3320.456,269.306c10.805,0.225,22.655,1.708,32.708,5.9c-13.116,1.722-26.287,3.489-38.853,7.742
		c-41.036,13.875-86.365,48.339-112.688,82.588c-26.416,34.391-41.238,73.844-48.025,116.435
		c-3.009,18.899-4.824,38.324-9.649,56.865c-10.456,40.176-31.845,77.827-58.83,109.204c-10.346,12.029-25.131,30.239-39.495,37.468
		l-1.706,0.861c-23.682-1.083-49.529-12.345-71.909-19.82c2.605-5.669,5.228-11.967,9.301-16.764
		c10.603-12.473,33.515-20.18,37.587-37.197c-1.981-20.795-30.084-20.006-40.797-33.116c2.11-16.68,56.115-19.531,71.561-39.747
		c5.136-6.727,8.126-15.397,6.787-23.89c-4.292-27.115-31.937-17.937-47.016-29.862c-2.385-1.889-1.908-3.086-2.146-5.959
		c11.997-20.526,49.383-5.825,69.69-15.736c8.86-4.319,14.382-12.227,17.299-21.451c10.713-34.096-22.985-26.531-31.552-45.026
		c-1.614-3.489-1.192-7.344,0.073-10.871c9.208-25.631,61.141-11.74,81.301-20.979c34.579-15.859,6.127-36.682,13.832-56.61
		c6.824-17.658,91.482-33.662,111.643-35.808c7.833-0.836,44.448-0.733,49.493-3.419
		C3319.539,269.859,3319.998,269.573,3320.456,269.306z"/>
	<path style="fill:#6FB1A9;" d="M1424.909,1266.954c194.344-43.502,426.587-122.711,611.233-5.546
		c42.448,26.934,76.752,65.389,114.229,98.564c34.707,30.708,73.34,58.184,111.698,84.099
		c69.231,46.765,146.644,84.321,224.294,114.762c235.467,92.303,486.048,116.461,733.622,61.893
		c175.811-38.749,360.555-127.189,460.403-282.909c6.476-10.085,31.864-50.216,31.094-61.933c6.714-3.163,9.796-7.731,13.887-13.651
		c6.035,14.137-16.4,68.169-22.875,84.175c-58.298,144.165-186.928,246.266-327.151,305.498
		c-297.231,125.562-629.629,106.32-924.97-13.466c-132.207-53.618-250.692-127.405-359.711-219.186
		c-39.037-32.87-73.744-71.295-118.265-97.017c-116.084-67.082-255.317-50.434-380.941-27.405
		c-43.479,7.971-86.688,16.134-129.697,26.377C1448.573,1306.293,1430.469,1286.359,1424.909,1266.954z"/>
	<path style="fill:#9CC3C2;" d="M2828.831,514.044c10.639,13.64,13.52,36.264,21.114,52.16
		c8.713,18.267,23.829,33.034,37.239,47.953c16.363,11.918,31.369,24.37,49.089,34.503c11.52,6.587,24.545,11.172,35.735,17.889
		c22.38,7.476,48.227,18.738,71.909,19.82l1.706-0.861c13.923,9.603,42.228,9.886,59.068,12.625
		c178.746,29.057,349.164,23.872,493.459,152.169c10.089,8.973,47.713,41.331,50.006,51.967c0.073,0.33,0.055,0.671,0.092,1.006
		c2.495,13.924,6.641,27.623,9.264,41.565c11.832,62.848-22.618,123.957-57.069,174.244
		c-68.938,100.629-175.444,149.335-291.232,173.764c-73.854,15.582-155.596,26.501-231.174,23.982
		c-53.583-1.785-108.433-12.352-160.695-23.797c-223.506-48.968-422.082-161.018-624.474-263.057
		c-116.21-58.584-233.265-114.577-359.394-148.772c-308.117-83.528-638.289-70.225-949.922-12.467l-0.69-0.541
		c-1.565-1.471-3.401-2.769-5.147-4.018c-27.003-19.326-140.337-65.004-173.819-59.766c20.489-5.772,42.47-9.217,63.372-13.268
		c69.734-13.513,139.869-22.393,210.443-30.095c27.063-2.952,147.155-8.442,159.877-14.158c8.679,4.511,126.381-2.272,143.894-2.721
		c26.776,0.073,53.552-0.075,80.325-0.443l59.375,0.98c23.141,0.894,46.747,0.557,69.791,2.558
		c28.682,1.334,57.303,3.478,85.864,6.432c20.461,2.375,41.775,5.966,62.321,6.716c32.453,3.879,64.946,7.853,96.826,15.232
		l55.921,11.111c14.692-23.414,81.922-53.107,107.768-62.009c18.968-6.53,40.944-10.716,58.83-19.493
		c13.96,1.772,90.474,27.751,97.646,36.72c15.318,2.563,31.534,10.87,45.292,18.032l1.559,2.252
		c11.575,2.624,86.896,38.305,91.684,46.774c0.165,0.304,0.239,0.654,0.367,0.982c14.62,5.352,29.442,15.331,41.898,24.619
		l0.899,2.364c12.071,3.544,62.554,37.902,67.397,47.471c0.312,0.61,0.495,1.669,0.624,2.268
		c11.208,3.896,23.939,16.806,32.103,25.42l0.458,2.204c19.225,7.852,50.942,47.83,65.507,64.902l1.009,4.575
		c7.65,3.687,26.563,23.954,28.746,32.112c0.22,0.81,0.183,2.054,0.202,2.818c13.171,6.177,55.858,68.792,61.71,82.771
		c0.514,1.237,0.587,2.232,0.715,3.549c29.571,25.074,70.552,43.212,105.865,58.74c143.085,62.912,302.716,98.23,459.596,85.371
		c66.094-5.418,131.748-18.879,192.522-46.038c7.998-3.573,22.729-9.435,28.379-16.086c0.899-1.068,1.632-2.14,2.311-3.351
		c1.468,0.379,2.788,0.751,4.311,0.658c19.536-1.195,61.324-45.891,72.991-60.871c7.081-9.109,26.911-33.917,25.443-45.583
		c2.77-1.843,4.348-3.906,5.797-6.855c16.455-33.756,18.656-83.901,6.476-119.286c-42.32-123.039-245.335-141.655-354.117-167.138
		c-65.617-15.373-133.802-33.845-194.485-63.74c-51.052-25.147-92.565-65.341-109.221-120.732
		c-5.393-17.935-6.843-37.418-12.969-54.884l-0.458-1.248C2833.252,533.701,2831.198,524.721,2828.831,514.044z"/>
	<path style="fill:#3E5366;" d="M2533.893,1018.768c13.171,6.177,55.858,68.792,61.71,82.771c0.514,1.237,0.587,2.232,0.715,3.549
		l-1.119,0.453c-27.26-6.939-102.012-61.899-136.591-77.78C2473.009,1015.759,2515.42,1019.024,2533.893,1018.768z"/>
	<path style="fill:#3E5366;" d="M2315.946,947.389c31.845-21.851,84.402-28.828,122.484-33.028
		c19.225,7.852,50.942,47.83,65.507,64.902l1.009,4.575c7.65,3.687,26.563,23.954,28.746,32.112c0.22,0.81,0.183,2.054,0.202,2.818
		c-18.473,0.256-60.884-3.009-75.285,8.993c-12.125-10.976-31.094-19.57-45.787-26.963
		C2384.058,980.29,2348.139,962.079,2315.946,947.389z"/>
	<path style="fill:#55657D;" d="M2504.946,983.838c7.65,3.687,26.563,23.954,28.746,32.112c0.22,0.81,0.183,2.054,0.202,2.818
		c-18.473,0.256-60.884-3.009-75.285,8.993c-12.125-10.976-31.094-19.57-45.787-26.963c17.207-0.031,35.881-11.344,53.345-13.939
		C2477.246,985.212,2495.847,988.974,2504.946,983.838z"/>
	<path style="fill:#3E5366;" d="M2337.848,836.997c12.071,3.544,62.554,37.902,67.397,47.471c0.312,0.61,0.495,1.669,0.624,2.268
		c11.208,3.896,23.939,16.806,32.103,25.42l0.458,2.204c-38.082,4.2-90.639,11.177-122.484,33.028
		c-14.027-7.533-28.238-14.705-42.632-21.514c-15.373-12.317-75.156-37.041-95.72-44.462c6.31-5.145,15.207-8.313,22.6-11.604
		c31.387-13.94,65.195-21.198,98.967-26.617C2311.965,841.138,2325.356,840.488,2337.848,836.997z"/>
	<path style="fill:#55657D;" d="M2405.869,886.736c11.208,3.896,23.939,16.806,32.103,25.42l0.458,2.204
		c-38.082,4.2-90.639,11.177-122.484,33.028c-14.027-7.533-28.238-14.705-42.632-21.514c14.125-1.875,44.283-19.515,61.563-24.689
		C2349.919,896.682,2395.468,893.314,2405.869,886.736z"/>
	<path style="fill:#3E5366;" d="M2203,762.257c11.575,2.624,86.896,38.305,91.684,46.774c0.165,0.304,0.239,0.654,0.367,0.982
		c14.62,5.352,29.442,15.331,41.898,24.619l0.899,2.364c-12.492,3.491-25.884,4.141-38.688,6.195
		c-33.772,5.418-67.58,12.676-98.967,26.617c-7.393,3.291-16.29,6.459-22.6,11.604c-13.942-9.669-37.11-15.489-53.18-21.629
		c-22.49-13.156-65.507-25.052-91.244-33.497C2086.698,792.487,2141.235,774.122,2203,762.257z"/>
	<path style="fill:#55657D;" d="M2295.052,810.014c14.62,5.352,29.442,15.331,41.898,24.619l0.899,2.364
		c-12.492,3.491-25.884,4.141-38.688,6.195c-33.772,5.418-67.58,12.676-98.967,26.617c-7.393,3.291-16.29,6.459-22.6,11.604
		c-13.942-9.669-37.11-15.489-53.18-21.629c10.896-0.359,24.508-13.099,34.652-17.842c7.136-3.344,15.005-5.701,22.508-8.119
		c22.105-7.135,45.512-14.347,68.662-17.178c14.639-1.788,29.552-1.49,44.118-3.646L2295.052,810.014z"/>
	<path style="fill:#3E5366;" d="M2058.503,705.253c13.96,1.772,90.474,27.751,97.646,36.72c15.318,2.563,31.534,10.87,45.292,18.032
		l1.559,2.252c-61.765,11.864-116.302,30.23-169.831,64.03c-12.107-5.953-28.25-9.065-41.293-13.114
		c-32.671-10.635-66.637-18.116-99.972-26.419c14.692-23.414,81.922-53.107,107.768-62.009
		C2018.641,718.215,2040.617,714.03,2058.503,705.253z"/>
	<path style="fill:#55657D;" d="M2156.149,741.973c15.318,2.563,31.534,10.87,45.292,18.032l1.559,2.252
		c-61.765,11.864-116.302,30.23-169.831,64.03c-12.107-5.953-28.25-9.065-41.293-13.114c14.345-27.786,86.566-53.816,115.605-60.858
		C2119.736,749.343,2146.94,749.123,2156.149,741.973z"/>
	<path style="fill:#5B8085;" d="M803.897,804.411c33.482-5.239,146.816,40.44,173.819,59.766c1.746,1.25,3.583,2.547,5.147,4.018
		l0.69,0.541c311.633-57.758,641.805-71.06,949.922,12.467c126.129,34.195,243.184,90.188,359.394,148.772
		c202.392,102.04,400.968,214.09,624.474,263.057c52.263,11.445,107.112,22.012,160.695,23.797
		c75.578,2.519,157.32-8.399,231.174-23.982c115.789-24.429,222.295-73.135,291.232-173.764
		c34.451-50.287,68.901-111.396,57.069-174.244c-2.623-13.942-6.769-27.641-9.264-41.565c4.825,3.084,11.906,9.273,13.703,14.783
		c0.33,1.024,0.404,2.195,0.44,3.267c8.09,6.023,14.033,17.16,19.115,25.754c27.131,45.972,41.862,95.471,49.548,148.036
		c4.274,29.272,9.466,140.941-5.191,166.245c-0.165,0.288-0.33,0.581-0.495,0.872c-4.091,5.92-7.173,10.488-13.887,13.651
		c0.771,11.718-24.618,51.848-31.094,61.933c-99.847,155.72-284.592,244.161-460.403,282.909
		c-247.573,54.568-498.155,30.41-733.622-61.893c-77.651-30.441-155.063-67.997-224.294-114.762
		c-38.358-25.915-76.991-53.391-111.698-84.099c-37.477-33.175-71.781-71.63-114.229-98.564
		c-184.646-117.164-416.889-37.955-611.233,5.546c-18.53,2.432-37.536,8.933-55.744,13.539
		c-22.407,5.669-44.683,9.975-67.437,13.886c-12.711,1.97-25.779,4.676-38.602,5.455c-18.447,17.424-39.933,33.895-66.733,33.415
		c-15.591-0.28-27.392-6.058-40.377-14.049c-48.333,9.385-110.019,12.636-159.571,15.575c-125.647,7.452-253.915,8.918-379.006-7.13
		c-34.909-4.478-68.745-12.429-103.349-18.32l-1.238-0.311c-77.315-19.925-185.546-75.652-226.958-146.79
		c-14.021-19.461-20.656-45.796-21.451-69.44c0.152-6.465,1.357-13.004,2.264-19.406c3.168-10.327,6.686-19.881,11.406-29.607
		c0.511-1.383,0.274-0.938,1.009-2.179c46.327-78.179,281.21-166.386,370.325-195.163
		C700.072,830.08,752.296,817.316,803.897,804.411z"/>
	<path style="fill:#3E5366;" d="M266.706,1073.377c105.854,75.991,247.115,91.011,373.319,97.049
		c10.656,0.509,27.546-0.086,32.697,10.818c-1.814,3.798-2.634,4.614-6.764,5.977c-15.903,5.248-40.867,1.228-57.456,0.361
		c-96.191-5.024-207.084-20.333-293.073-66.027c-13.907-7.392-36.755-25.233-50.989-28.771
		C264.594,1086.319,265.799,1079.78,266.706,1073.377z"/>
	<path style="fill:#262B25;" d="M697.359,1000.776c12.406-0.775,23.064-0.665,34.603,4.542c0.858,0.386,1.707,0.793,2.546,1.222
		c0.839,0.427,1.667,0.876,2.484,1.345c0.816,0.47,1.62,0.96,2.412,1.468c0.792,0.509,1.571,1.038,2.337,1.585
		c0.767,0.547,1.519,1.114,2.256,1.699c0.739,0.585,1.462,1.188,2.17,1.809c0.708,0.62,1.4,1.258,2.077,1.913
		c0.676,0.655,1.336,1.326,1.979,2.014c0.643,0.688,1.269,1.391,1.877,2.109c0.608,0.718,1.198,1.451,1.77,2.199
		c0.571,0.749,1.124,1.51,1.658,2.285c0.534,0.775,1.049,1.563,1.545,2.364c0.494,0.8,0.969,1.612,1.423,2.437
		c0.455,0.823,0.889,1.658,1.302,2.503c0.413,0.847,0.805,1.702,1.176,2.567s0.72,1.738,1.047,2.62
		c0.323,0.883,0.624,1.774,0.903,2.673c0.28,0.899,0.537,1.804,0.772,2.714c0.235,0.911,0.447,1.828,0.636,2.75
		c0.19,0.921,0.357,1.846,0.501,2.776c0.144,0.93,0.266,1.862,0.365,2.798c0.099,0.936,0.175,1.873,0.227,2.813
		s0.082,1.879,0.088,2.82c0.007,0.942-0.009,1.883-0.05,2.822c-0.039,0.941-0.102,1.879-0.187,2.816
		c-0.086,0.937-0.194,1.871-0.325,2.802c-0.132,0.932-0.287,1.86-0.464,2.783c-0.176,0.925-0.375,1.845-0.598,2.76
		c-0.222,0.914-0.467,1.822-0.734,2.725c-0.267,0.902-0.555,1.797-0.866,2.686c-0.311,0.888-0.643,1.768-0.996,2.638
		c-0.353,0.872-0.728,1.735-1.125,2.589c-7.938,16.883-21.675,26.507-38.866,32.499c-14.101,1.149-26.594,0.542-39.37-6.314
		c-0.852-0.463-1.693-0.947-2.52-1.451c-0.827-0.506-1.641-1.032-2.444-1.578c-0.801-0.546-1.587-1.111-2.359-1.697
		c-0.773-0.586-1.53-1.191-2.273-1.814c-0.742-0.624-1.468-1.267-2.177-1.927c-0.709-0.66-1.402-1.337-2.078-2.032
		c-0.675-0.695-1.332-1.407-1.972-2.137c-0.64-0.728-1.26-1.472-1.862-2.232c-0.603-0.759-1.186-1.532-1.748-2.322
		c-0.563-0.789-1.105-1.592-1.629-2.408c-0.522-0.816-1.024-1.645-1.504-2.486c-0.481-0.842-0.94-1.695-1.378-2.56
		c-0.438-0.865-0.853-1.74-1.246-2.626c-0.394-0.884-0.765-1.779-1.114-2.684c-0.349-0.904-0.674-1.816-0.976-2.736
		c-0.302-0.921-0.581-1.849-0.836-2.783c-0.259-0.915-0.495-1.835-0.708-2.761c-0.214-0.927-0.404-1.859-0.57-2.794
		c-0.167-0.936-0.311-1.875-0.431-2.818c-0.121-0.942-0.218-1.887-0.292-2.835c-0.075-0.948-0.125-1.897-0.152-2.847
		c-0.026-0.95-0.029-1.901-0.009-2.851c0.021-0.95,0.065-1.9,0.132-2.848c0.067-0.948,0.158-1.894,0.273-2.838
		c0.114-0.943,0.251-1.883,0.413-2.82c0.16-0.937,0.344-1.87,0.552-2.798c0.207-0.927,0.437-1.849,0.69-2.765
		c0.253-0.917,0.528-1.828,0.826-2.73c0.298-0.903,0.619-1.797,0.961-2.684c0.341-0.887,0.705-1.765,1.091-2.633
		c0.385-0.87,0.793-1.728,1.222-2.576c0.428-0.849,0.877-1.687,1.346-2.514C667.727,1013.276,681.297,1005.161,697.359,1000.776z"/>
	<path style="fill:#474B49;" d="M686.958,1015.543c10.755-0.922,22.171-2.16,31.811,3.793c9.651,5.962,12.227,16.695,14.767,26.948
		c-0.303,1.549-0.635,3.091-0.996,4.627c-4.285,18.129-11.434,29.356-27.349,39.177c-7.893,0.779-15.844,1.552-23.431-1.31
		c-0.549-0.211-1.093-0.435-1.631-0.672c-0.538-0.238-1.07-0.49-1.596-0.755c-0.525-0.264-1.043-0.541-1.556-0.832
		c-0.511-0.29-1.015-0.593-1.511-0.909c-0.497-0.315-0.985-0.643-1.466-0.982s-0.952-0.691-1.414-1.054
		c-0.462-0.363-0.916-0.737-1.361-1.123c-0.444-0.386-0.878-0.782-1.302-1.189c-0.424-0.407-0.838-0.824-1.242-1.253
		c-0.402-0.428-0.795-0.865-1.178-1.312c-0.382-0.447-0.752-0.904-1.11-1.371c-0.36-0.465-0.707-0.939-1.042-1.422
		c-0.335-0.484-0.658-0.975-0.969-1.473c-0.311-0.5-0.609-1.007-0.895-1.521c-0.285-0.513-0.557-1.033-0.816-1.561
		c-0.26-0.528-0.507-1.062-0.739-1.602c-4.122-9.746-3.797-21.371,0.343-31.057C667.295,1026.944,675.37,1020.241,686.958,1015.543z
		"/>
	<path style="fill:#FEFEFE;" d="M684.901,1025.068c3.273,0.564,5.989,1.336,8.752,3.265c3.77,2.629,6.538,6.338,7.055,11
		c0.888,7.996-2.992,12.662-7.771,18.399c-3.768-0.812-7.059-1.627-10.168-4c-3.685-2.813-6.232-6.606-6.483-11.324
		C675.874,1034.662,679.97,1030.293,684.901,1025.068z"/>
	<path style="fill:#6FB1A9;" d="M803.897,804.411c33.482-5.239,146.816,40.44,173.819,59.766c1.746,1.25,3.583,2.547,5.147,4.018
		c-144.147,21.021-292.487,54.463-429.486,104.737c-31.129,11.462-61.788,24.067-91.976,37.814
		c-40.499,18.265-110.643,60.545-154.033,59.535c-6.688-0.156-13.22-1.708-18.64-5.77c-7.082-5.306-9.004-12.4-10.617-20.74
		c0.511-1.383,0.274-0.938,1.009-2.179c46.327-78.179,281.21-166.386,370.325-195.163
		C700.072,830.08,752.296,817.316,803.897,804.411z"/>
	<path style="fill:#6FB1A9;" d="M983.552,868.735c311.633-57.758,641.805-71.06,949.922,12.467
		c126.129,34.195,243.184,90.188,359.394,148.772c202.392,102.04,400.968,214.09,624.474,263.057
		c52.263,11.445,107.112,22.012,160.695,23.797c75.578,2.519,157.32-8.399,231.174-23.982
		c115.789-24.429,222.295-73.135,291.232-173.764c34.451-50.287,68.901-111.396,57.069-174.244
		c-2.623-13.942-6.769-27.641-9.264-41.565c4.825,3.084,11.906,9.273,13.703,14.783c0.33,1.024,0.404,2.195,0.44,3.267
		c6.072,25.856,17.666,49.215,21.261,76.193c12.474,93.536-28.03,183.625-83.98,256.331
		c-39.954,51.945-85.392,95.612-142.938,127.947c-218.498,122.784-543.429,53.292-764.825-27.089
		c-76.22-27.672-151.376-62.122-224.423-97.221c-126.997-61.019-245.372-139.623-372.406-200.595
		c-31.87-14.995-64.278-28.726-97.224-41.193c-32.938-12.468-66.314-23.636-100.128-33.503
		c-167.657-48.609-312.802-42.708-483.355-20.658c-112.342,14.523-231.262,28.904-336.027-26.727
		c-17.73-9.415-32.818-22.129-49.018-33.789C1014.182,890.122,998.338,880.121,983.552,868.735z"/>
	<path style="fill:#446368;" d="M1105.938,1224.416c0.948-6.41,0.765-13.147,1.354-19.628
		c4.291-47.174,29.793-85.717,65.858-115.537c23.992-19.839,57.423-35.905,89.314-32.521c18.904,2.007,35.203,11.681,46.91,26.52
		c23.094,29.272,22.552,67.659,18.266,102.648c326.351-81.023,466.963-132.369,774.322,52.405
		c115.22,69.261,228.716,138.601,352.906,191.154c263.716,111.599,600.204,142.132,878.761,73.124
		c6.897-1.672,13.764-3.447,20.601-5.323c6.836-1.877,13.648-3.856,20.435-5.935c6.775-2.079,13.52-4.258,20.234-6.538
		c6.714-2.279,13.397-4.658,20.05-7.137c6.641-2.479,13.245-5.056,19.812-7.731s13.091-5.448,19.573-8.317
		c6.494-2.869,12.939-5.834,19.335-8.894c6.396-3.061,12.743-6.216,19.041-9.466c6.298-3.249,12.553-6.592,18.766-10.029
		c6.2-3.435,12.345-6.962,18.436-10.58c6.103-3.62,12.15-7.328,18.142-11.126c5.98-3.799,11.906-7.686,17.776-11.659
		c5.87-3.975,11.685-8.036,17.446-12.183c5.748-4.147,11.434-8.379,17.06-12.696c5.626-4.317,11.184-8.716,16.675-13.198
		c5.491-4.482,10.915-9.044,16.271-13.688c27.021-23.053,51.162-49.318,78.201-72.198c0.771,11.718-24.618,51.848-31.094,61.933
		c-99.847,155.72-284.592,244.161-460.403,282.909c-247.573,54.568-498.155,30.41-733.622-61.893
		c-77.651-30.441-155.063-67.997-224.294-114.762c-38.358-25.915-76.991-53.391-111.698-84.099
		c-37.477-33.175-71.781-71.63-114.229-98.564c-184.646-117.164-416.889-37.955-611.233,5.546
		c-18.53,2.432-37.536,8.933-55.744,13.539c-22.407,5.669-44.683,9.975-67.437,13.886c-12.711,1.97-25.779,4.676-38.602,5.455
		c-18.447,17.424-39.933,33.895-66.733,33.415c-15.591-0.28-27.392-6.058-40.377-14.049
		c-48.333,9.385-110.019,12.636-159.571,15.575c-125.647,7.452-253.915,8.918-379.006-7.13
		c-34.909-4.478-68.745-12.429-103.349-18.32l-1.238-0.311c-77.315-19.925-185.546-75.652-226.958-146.79
		c0.332,0.057,0.664,0.106,0.995,0.17c14.15,2.719,29.545,11.157,42.98,16.574c23.902,9.638,48.427,18.606,73.494,24.694
		c123.686,30.043,255.617,35.945,382.528,36.924c63.439,0.484,126.821-1.193,190.145-5.031
		C997.844,1234.062,1094.619,1222.732,1105.938,1224.416z"/>
	<path style="fill:#3E5366;" d="M1107.649,1227.846c1.126-2.071,1.264-2.732,3.359-3.813c9.673-4.988,94.509-13.695,114.897-17.605
		c15.763-3.023,90.908-21.684,100.53-18.459c-11.696,43.811-32.068,78.932-63.31,111.865
		c-18.447,17.424-39.933,33.895-66.733,33.415c-15.591-0.28-27.392-6.058-40.377-14.049c-0.317-0.216-0.638-0.427-0.95-0.65
		c-4.204-3.001-8.248-8.726-11.632-12.684C1123.651,1282.731,1112.004,1257.961,1107.649,1227.846z"/>
</g>
</svg>
