<?xml version="1.0" encoding="utf-8"?>
<!-- Generator: Adobe Illustrator 27.5.0, SVG Export Plug-In . SVG Version: 6.00 Build 0)  -->
<svg version="1.1" id="Layer_1" xmlns="http://www.w3.org/2000/svg" xmlns:xlink="http://www.w3.org/1999/xlink" x="0px" y="0px"
	 viewBox="0 0 5000 5000" style="enable-background:new 0 0 5000 5000;" xml:space="preserve">
<g>
	<path style="fill:#8A6D4C;" d="M821.644,3898.985c37.441-22.448,76.497-42.614,114.485-64.167
		c63.785-35.413,126.333-72.889,187.645-112.427c33.681-21.352,70.297-41.92,100.28-68.337c-8.062-4.243-16.326-8.429-23.9-13.499
		c-6.735-4.505-10.039-7.691-11.757-15.681c-18.641,4.678-54.322,30.252-72.136,40.956c-73.9,43.518-146.39,89.268-217.47,137.251
		c-71.081,47.983-140.618,98.108-208.61,150.375c28.803-8.006,71.616-16.173,97.251-29.196
		C791.668,3915.137,812.896,3904.228,821.644,3898.985z"/>
	<path style="fill:#9B9DAF;" d="M1879.435,3704.738c-80.086,15.77-161.607,26.203-243.322,26.264
		c-57.976,37.665-120.082,69.845-180.559,103.361c-24.727,13.7-52.495,25.977-75,43.037c22.541-2.262,45.768-7.865,68.131-11.777
		c46.456-7.878,92.812-16.305,139.066-25.28c73.217-14.201,146.87-26.001,220.184-39.654c34.1-6.348,100.65-23.767,131.161-24.598
		c-5.812-5.699-13.208-10.035-19.549-15.193C1900.205,3745.154,1889.477,3727.194,1879.435,3704.738z"/>
	<path style="fill:#6097C7;" d="M2764.171,4248.14c-121.377-114.226-265.032-157.562-421.505-200.43
		c-8.171-82.106-28.196-118.239-68.128-188.25c34.298-3.057,66.506-4.872,100.743-0.56c-14.604-27.824-27.857-56.064-41.081-84.567
		c-46.857,4.235-93.209,7.881-140.232,9.68c22.844,33.632,42.804,68.26,63.856,102.973c19.657,32.418,40.198,64.24,59.472,96.9
		c-63.913-0.331-140.736-6.884-189.819,41.993c-22.844,22.751-38.153,49.079-49.115,79.174c13.999-8.788,26.518-20.25,41.162-27.821
		c34.548-17.846,85.857-15.947,122.938-7.264c40.307,9.438,72.931,31.713,111.185,45.11c28.929,10.135,59.303,16.528,88.515,26.002
		c81.586,26.453,164.6,58.024,240.934,97.283c37.387,19.491,73.271,41.438,107.652,65.84c5.598,4.025,35.169,30.063,38.585,30.539
		l0.476-5.384c-1.23-3.953-2.371-7.667-4.352-11.317C2811.169,4291.726,2785.728,4268.427,2764.171,4248.14z"/>
	<path style="fill:#B0D9E9;" d="M2932.118,3973.154c-13.866-0.992-49.93-19.282-69.898-22.646
		c-89.422-15.043-181.111-11.204-270.997-2.997c-55.229,4.001-109.62,9.502-164.474,17.1
		c-17.25-34.915-31.567-72.225-51.467-105.712c-34.237-4.312-66.445-2.497-100.743,0.56c39.932,70.011,59.957,106.144,68.128,188.25
		c156.473,42.868,300.128,86.204,421.505,200.43c21.557,20.287,46.998,43.585,61.287,69.902c1.98,3.65,3.122,7.364,4.352,11.317
		c0.456-40.009,1.617-81.598-5.896-121.086c-1.149-2.077-0.694-0.996-1.448-3.674c-8.538-30.269-23.457-57.992-44.917-81.058
		c-65.421-70.33-184.914-84.776-276.229-87.878c62.268-12.107,221.2,4.356,281.076,27.062
		c53.866,20.424,87.64,64.038,110.931,115.158c16.306-14.983,32.624-29.991,52.535-40.089c46.651-23.654,94.911-7.433,141.341,7.457
		c-3.545-9.583-12.229-18.802-19.407-26.062c-123.926-125.39-338.851-139.889-505.342-141.147c1.287-0.311,2.565-0.641,3.855-0.936
		c28.817-6.626,60.65-7.804,90.124-9.954c117.44-8.574,210.291-0.339,316.979,56.375c29.51,15.693,54.407,38.266,82.417,56.206
		l2.037,1.286l-1.815-8.764C3032.095,4034.413,2970.836,3994.868,2932.118,3973.154z"/>
	<path style="fill:#6097C7;" d="M2973.413,4023.528c-106.688-56.714-199.538-64.949-316.979-56.375
		c-29.474,2.15-61.308,3.327-90.124,9.954c-1.291,0.294-2.569,0.625-3.855,0.936c166.491,1.258,381.416,15.757,505.342,141.147
		c7.179,7.259,15.862,16.479,19.407,26.062c14.737,9.76,29.184,19.928,45.945,25.873c-16.371-29.123-49.22-68.765-75.282-90.104
		l-2.037-1.286C3027.82,4061.794,3002.924,4039.22,2973.413,4023.528z"/>
	<path style="fill:#6097C7;" d="M2782.397,4062.726c-59.876-22.707-218.809-39.17-281.076-27.062
		c91.314,3.101,210.807,17.548,276.229,87.878c21.46,23.065,36.379,50.789,44.917,81.058c0.754,2.678,0.299,1.597,1.448,3.674
		c22.19-17.883,45.683-17.862,69.414-30.389C2870.037,4126.763,2836.263,4083.149,2782.397,4062.726z"/>
	<path style="fill:#30241F;" d="M1636.113,3731.002c-14.269-1.875-29.946-1.053-44.401-1.521
		c-26.944-0.699-53.816-2.485-80.618-5.356c-33.91-3.498-67.578-8.602-101.001-15.31c-33.424-6.708-66.452-14.991-99.086-24.848
		c-29.317-9.018-57.714-20.662-86.954-29.914c-29.982,26.417-66.599,46.986-100.28,68.337
		c-61.312,39.538-123.86,77.014-187.645,112.427c-37.988,21.553-77.045,41.719-114.485,64.167
		c-8.748,5.243-29.975,16.152-34.213,25.275c21.662-6.981,42.561-15.225,63.482-24.13c49.999-28.756,103.409-53.229,154.335-80.578
		c41.44-22.247,83.445-43.223,124.998-65.187c25.372-13.406,50.882-29.224,77.367-40.25c9.821-4.086,19.806-7.941,30.547-5.183
		c6.804,1.746,14.302,6.038,17.181,12.805c2.077,4.872,1.19,10.498-1.157,15.08c-6.494,12.7-20.864,24.078-32.6,32.039
		c-12.938,8.784-27.514,15.366-41.146,23.037l-67.054,38.581l-247.787,142.647c-24.719,14.027-53.426,24.57-75.814,42.005
		c38.279-17.729,77.685-32.777,116.185-50.003c89.277-39.94,177.945-81.76,266.791-122.683
		c54.366-25.038,106.337-58.533,162.361-79.372c16.415,6.457,53.201,19.492,62.037,35.257c1.113,1.988,1.186,3.416,1.517,5.517
		c-3.255,5.344-8.195,7.143-13.838,9.627c-52.85,23.255-109.886,40.327-164.144,60.468l-424.94,153.448
		c-22.422,8.014-126.82,39.408-138.885,51.91c30.963-6.655,61.505-16.346,91.953-25.03c77.987-22.247,155.353-47.143,233.471-68.797
		l233.356-62.251c55.201-14.402,110.798-27.639,164.906-45.82c22.505-17.06,50.273-29.337,75-43.037
		C1516.031,3800.847,1578.137,3768.667,1636.113,3731.002z"/>
	<path style="fill:#8A6D4C;" d="M1220.694,3873.939c54.257-20.141,111.294-37.213,164.144-60.468
		c5.642-2.485,10.583-4.283,13.838-9.627c-0.331-2.101-0.403-3.529-1.517-5.517c-8.836-15.765-45.622-28.801-62.037-35.257
		c-56.024,20.839-107.995,54.334-162.361,79.372c-88.845,40.924-177.513,82.743-266.791,122.683
		c-38.5,17.226-77.906,32.273-116.185,50.003c22.388-17.435,51.095-27.978,75.814-42.005l247.787-142.647l67.054-38.581
		c13.632-7.671,28.208-14.253,41.146-23.037c11.736-7.961,26.106-19.339,32.6-32.039c2.347-4.582,3.234-10.208,1.157-15.08
		c-2.88-6.767-10.377-11.059-17.181-12.805c-10.74-2.759-20.726,1.097-30.547,5.183c-26.486,11.027-51.995,26.844-77.367,40.25
		c-41.553,21.964-83.558,42.94-124.998,65.187c-50.926,27.349-104.337,51.822-154.335,80.578
		c-7.425,14.193-123.277,83.917-143.873,98.041c-43.813,30.039-85.276,63.032-124.388,98.98
		c23.376-5.017,52.503-8.082,74.217-17.854c12.065-12.502,116.463-43.896,138.885-51.91L1220.694,3873.939z"/>
	<path style="fill:#FBCE65;" d="M3283.403,1674.632l-3.69,2.408l-0.972,2.996c-2.819,2.243-2.186,2.65-5.271,2.557
		c-8.429-0.258-14.354-8.349-19.484-14.096l-3.811,3.872c3.755,3.969,6.844,5.3,6.776,10.986l-2.71,3.267
		c-11.575-2.242-33.669-17.157-40.307-26.812l1.557-4.227l2.492-1.605c4.005-0.193,5.445,0.141,9.212,1.839
		c3.355,1.512,5.727,2.246,9.474,2.626l10.696-10.018c6.179-0.177,8.002,1.359,13.197,4.63c10.575,6.659,24.28,2.553,35.693,8.433
		c8.196,4.223,11.285,10.926,13.677,19.432c0.182,0.646,0.347,1.299,0.52,1.944c4.065-0.621,5.735-2.041,8.833-4.658
		c-6.949-6.195-16.419-11.765-18.367-21.686c-0.548-2.799,0.92-3.307,2.577-5.279c4.969,0.077,6.691,0.331,11.22-2.009
		c-3.041-6.259-17.814-12.748-24.017-18.274l-1.992-1.811l-0.149,16.383c-6.663,0.428-9.098-1.694-14.93-4.735
		c-5.152,1.482-10.274,3.06-15.366,4.735c-7.954-10.789-8.966-23.618-22.65-30.148c-4.17-1.988-8.409-3.134-12.918-1.714
		l0.214,3.977c-4.557,3.307-12.696-4.949-17.79-5.957c-3.936-0.782-8.663-0.186-12.652,0.125
		c13.741,5.598,27.062,23.812,34.947,36.177c-16.842-9.986-30.397-24.477-47.567-33.58c3.795,7.526,9.087,15.741,9.837,24.215
		l-3.033,1.69c-5.84-2.045-9.478-4.065-14.414-7.804c-4.557-9.276-12.22-19.032-14.479-29.002l2.206-2.146
		c7.933,0.145,14.951,3.868,22.162,6.893l3.356-3.787c7.687,2.86,16.108,3.263,24.005,5.433c4.287,1.173,6.191,1.968,10.68,1.093
		c11.365-2.222,16.758-1.045,27.571,2.722c3.61,1.258,3.997,1.295,8.163,1.044c-2.464-6.699-11.684-10.917-17.863-14.1
		c-12.434-4.759-23.05-3.106-35.875-3.291c-8.538-0.125-17.984-2.73-24.134-8.978l2.589-2.819
		c-2.888-4.666-9.135-9.724-13.075-13.737l-4.227-4.561l1.17-2.823c6.191-0.859,12.535-0.161,17.625,3.836
		c2.432,1.912,4.15,4.525,5.864,7.042l3.392-8.292c-3.597-1.411-6.066-2.516-8.663-5.501c-13.797-15.87-25.045-35.616-36.798-53.064
		c-16.826-25.207-35.321-49.125-55.484-71.753c-34.649-38.299-77.5-74.907-124.45-97.138
		c-69.527-32.918-157.533-31.285-228.948-5.707l-7.566,4.214c-6.52,5.483-12.89,11.134-19.109,16.955
		c-2.517,12.273,10.333,40.876,17.596,51.285c0.411,0.589,0.895,1.125,1.343,1.69c3.113-8.252,7.844-26.316,15.741-30.374
		c3.549,3.989,3.009,7.772,2.545,13.043c-0.661,7.445-2.222,14.794-6.977,20.468c5.32,5.658,4.795,8.784,6.554,15.858l2.94-4.65
		c3.755,4.283,4.255,12.216,8.639,14.777l3.698-2.896c5.429,2.093,5.449,2.924,8.587,7.941l-0.778,5.376
		c-0.524,12.636,1.625,25.247-1.4,37.609l5.332-0.488l3.42-2.658c7.699,2.912,13.087,12.023,17.253,18.798
		c3.041,10.668,8.353,22.509,6.094,33.624l-2.537,4.682c16.338,7.872,29.837,21.674,44.655,32.144
		c44.977,31.789,93.31,63.336,146.624,79.089c7.945,3.973,16.048,7.135,24.336,10.284c29.192,9.857,58.339,19.516,87.95,28.046
		c27.462,6.844,55.33,11.631,83.296,15.87c-11.499-17.883-29.289-29.853-39.339-48.926l0.077-4.485l3.464-0.5
		c17.831,14.289,32.656,33.935,45.748,52.547c23.215,3.408,47.829,4.207,71.257,2.622c-5.034-5.606-10.2-10.167-11.789-17.729
		c9.103,5.384,17.625,15.076,28.7,16.532c5.86,0.77,7.542-0.585,12.337-3.44c0.662-5.336-3.234-8.393-6.296-12.652l1.71-1.988
		l-4.065-8.038L3283.403,1674.632z M3152.552,1571.142c2.173,2.936,4.309,5.898,6.408,8.885l2.819,4.481
		c-1.399,0.613-2.916,1.476-4.412,1.771c-21.263-7.651-27.175-21.186-37.125-40.263
		C3131.967,1552.881,3144.305,1560.035,3152.552,1571.142z M3126.502,1577.333c-7.679-1.226-14.818-4.057-22.105-6.671
		c-7.243-10.216-12.615-19.71-17.431-31.281C3105.325,1545.101,3117.049,1561.479,3126.502,1577.333z M3124.272,1626.049
		l-5.501,3.888c-1.948-1.561-3.872-3.17-5.848-4.695c-5.037-3.884-9.619-7.368-13.596-12.426
		c-4.307-5.477-9.756-14.031-8.792-21.263l3.279-1.206C3108.942,1597.757,3115.629,1612.272,3124.272,1626.049z M3044.913,1532.219
		c0.181-0.165,0.391-0.306,0.549-0.496c2.924-3.61,4.344-6.816,9.014-8.24l2.754,3.037c10.918,7.526,22.142,16.983,24.961,30.607
		c0.23,1.105,0.407,2.226,0.609,3.339l-2.469,2.283c-7.219-3.085-11.103-9.909-15.701-15.955c-4.892,1.452-7.675,1.214-10.716,5.55
		l0.746,7.276l-2.537,0.149c-14.386-10.704-25.038-32.572-34.406-47.865C3028.236,1517.635,3036.943,1523.112,3044.913,1532.219z
		 M3083.562,1617.733c-10.482-4.561-18.149-11.599-26.179-19.557c-3.376-6.384-6.836-11.841-7.211-19.173l2.686-2.359
		c12.825,4.033,21.146,18.633,26.893,29.89C3081.719,1610.389,3083.28,1613.365,3083.562,1617.733z M2931.659,1520.636l3.295,3.884
		l-0.339-2.323c4.065,3.077,7.99,6.171,12.535,8.518c0.799,0.416,1.629,0.766,2.444,1.145c5.897,3.15,11.43,6.804,18.222,7.369
		c21.957,10.135,31.878,28.623,42.05,49.571l-2.993,1.041c-8.062-2.694-14.189-10.059-20.226-15.834
		c-0.585-0.339-1.177-0.673-1.762-1.02c-4.864-2.88-7.74-4.755-10.708-9.784c-2.008,4.844-3.799,9.768-5.634,14.677l-1.363-2.251
		c-13.713-7.735-18.883-15.963-26.155-29.373l-6.388-12.591C2932.013,1528.149,2930.703,1526.814,2931.659,1520.636z
		 M2932.07,1548.368c-8.667-2.408-13.705-10.478-19.73-16.786c-4.267-7.082-8.098-13.14-9.865-21.327l2-2.379
		c8.01,2.109,15.62,11.087,19.738,18.08C2928.444,1533.146,2931.417,1540.031,2932.07,1548.368z M2998.451,1552.675
		c8.853,4.691,17.911,9.167,26.534,14.261c4.291,8.816,8.183,18.621,13.753,26.683c1.335,2.634,2.44,5.352,3.602,8.066l-1.46,2.351
		c-10.309-3.029-18.576-14.447-24.703-22.775C3009.703,1571.961,3003.989,1562.552,2998.451,1552.675z M2987.614,1500.833
		c16.75,5.554,24.961,25.643,32.539,39.944c-17.855-3.21-31.192-27.913-40.932-41.835
		C2982.214,1499.228,2984.726,1499.877,2987.614,1500.833z M2904.774,1464.862c6.062,0.613,12.071,0.839,17.741,3.235l15.596,6.437
		l5.771,3.291c19.839,13.128,28.3,32.305,38.456,52.919l-20.621-18.157c-6.393-1.988-13.89-3.602-19.629-6.985
		c-5.521-3.678-9.748-8.764-14.237-13.592c-6.126-1.714-11.119-2.884-17.5-2.714c-17.246-7.062-30.72-36.459-42.13-51.572
		C2882.031,1444.987,2892.553,1455.388,2904.774,1464.862z M2899.482,1531.465c-8.8-4.606-14.673-11.765-21.327-18.948l-2.674-0.218
		c-0.641-0.734-2.747-3.19-3.392-3.755c-0.831-0.722-1.779-1.299-2.67-1.948l-3.432,5.473l-2.524,2.702l-4.037-1.073
		c-11.684-10.716-16.988-23.259-22.569-37.673c-2.634,5.937-1.105,9.083-6.526,13.539c-7.159-2.751-11.789-12.902-16.168-19.266
		l4.88-2.759c1.065,0.629,2.125,1.27,3.194,1.888c3.948,2.279,5.88,2.815,10.337,1.674l2.642-2.601
		c5.352,2.779,9.946,6.082,14.773,9.688c5.247,1.557,11.89,2.791,16.447,5.719c13.753,7.603,27.082,14.209,31.579,30.551
		C2899.515,1519.918,2899.789,1525.822,2899.482,1531.465z M2825.975,1424.817c6.566,1.153,12.273,3.275,18.468,5.699
		c5.957,3.231,12.127,6.292,17.875,9.881c4.384,7.937,9.627,15.58,10.551,24.751l-2.198,2.049
		c-10.877-5.473-15.35-15.818-20.944-25.969c-5.247,3.299-7.526,8.046-12.781,11.115c-0.73-0.347-1.545-0.548-2.186-1.036
		c-6.235-4.755-11.994-16.705-11.817-24.461L2825.975,1424.817z M2755.924,1398.287l0.916-2.545
		c10.059-0.101,17.213,6.078,26.732,7.699c0.613,0.105,1.238,0.129,1.855,0.194c8.816,3.602,16.854,7.554,25.03,12.438
		c3.818,10.822,7.93,21.53,12.337,32.124c-10.119-9.006-16.87-20.282-26.429-29.462c-2.101,3.791-4.102,7.223-6.848,10.583
		l-4.319-0.161C2773.674,1420.227,2765.059,1409.548,2755.924,1398.287z M2774.972,1447.564c3.029-0.948,4.441-2.315,7.373-0.855
		c6.106,3.045,11.37,3.396,17.431,5.505c4.614,1.601,9.829,5.388,11.22,10.369c0.71,2.537,0.601,4.235,0.641,6.755
		c-1.888,6.651-1.202,7.796,0.714,14.185l-2.701,3.081c0.244,0.194,0.512,0.434,0.753,0.621l-1.807,0.581l1.054-1.202
		C2797.917,1477.296,2782.099,1460.293,2774.972,1447.564z M2838.441,1547.198c-1.779-0.508-2.359-0.557-4.094-1.742
		c-10.345-7.074-29.978-32.789-32.531-45.203c11.97,3.335,20.319,6.909,26.611,18.113c2.787,4.957,5.638,11.071,7.316,16.475
		l4.033,9.272L2838.441,1547.198z M2841.353,1530.218l-0.044-6.505l2.497-2.045c10.405,4.457,15.245,13.822,19.548,23.759
		c5.76,11.193,11.158,22.559,16.197,34.096C2863.769,1565.653,2852.985,1547.508,2841.353,1530.218z M2866.104,1537.587l2.23-2.73
		c12.156,2.988,26.574,18.508,33.842,28.212c6.678,12.652,9.667,29.534,13.599,43.4
		C2901.414,1582.403,2877.744,1562.479,2866.104,1537.587z M2904.754,1556.716c17.721,9.256,30.317,17.383,39.577,35.85
		c3.21,8.466,6.828,16.806,10.28,25.175C2933.461,1599.519,2918.854,1580.709,2904.754,1556.716z M3035.959,1640.778
		c-3.065,1.657-7.03,2.694-8.163,6.102c-0.919,2.767-0.863,4.223-0.52,7.033l-5.998-1.294c-7.933-6.267-13.934-13.346-18.903-22.118
		c-7.55-3.541-14.144-7.381-22.17-9.954c-2.553,5.09-2.916,7.663-2.513,13.33l-1.891-0.387
		c-11.543-13.624-20.791-26.905-28.938-42.812l-0.153-6.356l2.916-1.638c5.303,2.569,9.913,5.513,14.741,8.877l7.514,0.032
		c4.146,4.368,6.61,4.896,12.241,6.235l1.883,1.859c6.544,3.783,13.058,7.62,19.541,11.51c7.316,0.355,12.41,1.617,19.065,4.67
		c7.925,3.505,15.813,7.058,23.904,10.164c6.663,10.32,21.359,28.232,20.557,40.791
		C3056.677,1664.162,3047.034,1647.542,3035.959,1640.778z M3111.532,1680.129l-5.017-1.843
		c-16.439-16.798-30.946-33.745-43.9-53.398c13.696,5.884,29.792,10.24,37.839,23.573c4.783,9.196,11.059,18.851,12.898,29.115
		L3111.532,1680.129z M3151.435,1686.336c-17.117-13.414-35.056-26.239-45.409-45.889c16.153,4.912,25.324,10.841,35.645,24.227
		C3144.846,1671.931,3148.101,1679.152,3151.435,1686.336z M3158.3,1627.203l-4.655-1.831c-2.339,2.484-3.46,3.876-5.065,6.719
		c-4.013-1.383-8.078-3.134-10.623-6.675c-5.683-7.913-14.564-20.049-16.314-29.539l2.448-1.258
		c15.374,4.787,27.316,17.076,36.669,29.736L3158.3,1627.203z M3168.689,1653.349l27.764,2.408
		c9.191,8.502,32.067,26.57,34.62,37.609C3209.633,1681.138,3180.696,1676.463,3168.689,1653.349z"/>
	<path style="fill:#EEEAE2;" d="M2832.573,1471.101c-4.457,1.141-6.388,0.605-10.337-1.674c-1.069-0.617-2.129-1.258-3.194-1.888
		l-4.88,2.759c4.38,6.364,9.01,16.516,16.168,19.266c5.421-4.456,3.892-7.602,6.526-13.539
		C2836.058,1474.243,2833.932,1472.525,2832.573,1471.101z"/>
	<path style="fill:#EEEAE2;" d="M2956.781,1552.965c-3.989-2.166-7.695-4.037-12.011-5.485l-3.747-1.226
		c7.272,13.41,12.442,21.638,26.155,29.373c-0.363-8.365-3.247-16.237-7.135-23.553L2956.781,1552.965z"/>
	<path style="fill:#FBDC93;" d="M3064.631,1546.795c-3.953-6.747-5.8-12.64-7.401-20.274l-2.754-3.037
		c-4.67,1.424-6.09,4.63-9.014,8.24c-0.157,0.19-0.367,0.331-0.549,0.496c2.424,6.84,4.408,14.435,9.002,20.125
		C3056.955,1548.009,3059.738,1548.246,3064.631,1546.795z"/>
	<path style="fill:#EEEAE2;" d="M2822.792,1448.197c-4.407-10.594-8.519-21.302-12.337-32.124
		c-8.175-4.884-16.213-8.836-25.03-12.438l10.938,15.1C2805.922,1427.915,2812.674,1439.191,2822.792,1448.197z"/>
	<path style="fill:#FEFEFE;" d="M2927.851,1492.009c4.489,4.828,8.716,9.913,14.237,13.592c-3.424-10.309-5.449-20.214-3.977-31.067
		l-15.596-6.437C2919.567,1477.316,2923.742,1483.713,2927.851,1492.009z"/>
	<path style="fill:#FBDC93;" d="M2942.088,1505.6c5.739,3.384,13.237,4.997,19.629,6.985c-6.796-10.728-14.144-22.594-17.834-34.761
		l-5.771-3.291C2936.64,1485.386,2938.664,1495.292,2942.088,1505.6z"/>
	<path style="fill:#FBDC93;" d="M2927.851,1492.009c-4.11-8.296-8.284-14.693-5.336-23.912c-5.67-2.396-11.68-2.621-17.741-3.235
		l5.578,24.433C2916.732,1489.125,2921.725,1490.295,2927.851,1492.009z"/>
	<path style="fill:#FEFEFE;" d="M3080.331,1562.75l2.469-2.283c-0.202-1.113-0.379-2.234-0.609-3.339
		c-2.819-13.624-14.043-23.082-24.961-30.607c1.601,7.635,3.448,13.527,7.401,20.274
		C3069.228,1552.84,3073.112,1559.664,3080.331,1562.75z"/>
	<path style="fill:#FEFEFE;" d="M2941.023,1546.254l3.747,1.226c4.315,1.448,8.022,3.319,12.011,5.485l3.263-0.891l-10.45-20.214
		c-0.814-0.379-1.645-0.73-2.444-1.145c-4.545-2.347-8.47-5.441-12.535-8.518l0.339,2.323l-3.295-3.884
		c-0.956,6.179,0.355,7.514,2.976,13.027L2941.023,1546.254z"/>
	<path style="fill:#FEFEFE;" d="M2870.67,1467.197l2.198-2.049c-0.924-9.171-6.167-16.814-10.551-24.751
		c-5.747-3.589-11.918-6.651-17.875-9.881c1.036,4.695,2.266,6.977,5.283,10.712
		C2855.32,1451.379,2859.792,1461.724,2870.67,1467.197z"/>
	<path style="fill:#FEFEFE;" d="M3187.967,1575.329c-1.714-2.517-3.432-5.13-5.864-7.042c-5.09-3.997-11.434-4.694-17.625-3.836
		l-1.17,2.823l4.227,4.561c3.94,4.013,10.188,9.071,13.075,13.737c6.755,2.855,14.039,4.747,21.049,6.913L3187.967,1575.329z"/>
	<path style="fill:#FEFEFE;" d="M2982.339,1530.743c-10.156-20.613-18.617-39.791-38.456-52.919
		c3.69,12.168,11.039,24.033,17.834,34.761L2982.339,1530.743z"/>
	<path style="fill:#FBDC93;" d="M2834.759,1451.307c0.641,0.488,1.456,0.689,2.186,1.036c5.255-3.069,7.534-7.816,12.781-11.115
		c-3.017-3.735-4.247-6.017-5.283-10.712c-6.195-2.424-11.902-4.545-18.468-5.699l-3.033,2.029
		C2822.765,1434.601,2828.524,1446.551,2834.759,1451.307z"/>
	<path style="fill:#FEFEFE;" d="M3052.124,1559.769l2.537-0.149l-0.746-7.276c-4.594-5.691-6.578-13.285-9.002-20.125
		c-7.969-9.107-16.677-14.584-27.195-20.315C3027.086,1527.198,3037.738,1549.065,3052.124,1559.769z"/>
	<path style="fill:#FBDC93;" d="M2984.122,1597.829c-5.63-1.339-8.094-1.867-12.241-6.235l-7.514-0.032
		c4.94,7.816,15.04,19.887,15.838,28.986c8.026,2.573,14.62,6.413,22.17,9.954c-5.804-8.962-15.54-20.049-16.371-30.813
		L2984.122,1597.829z"/>
	<path style="fill:#FBDC93;" d="M2967.178,1575.627l1.363,2.251c1.835-4.908,3.626-9.833,5.634-14.677
		c2.968,5.029,5.844,6.905,10.708,9.784c0.585,0.347,1.178,0.682,1.762,1.02c-6.937-9.934-17.379-22.493-18.831-34.778
		c-6.792-0.565-12.325-4.219-18.222-7.369l10.45,20.214C2963.931,1559.39,2966.815,1567.263,2967.178,1575.627z"/>
	<path style="fill:#FEFEFE;" d="M2904.475,1507.875l-2,2.379c1.766,8.187,5.598,14.245,9.865,21.327
		c6.026,6.308,11.063,14.378,19.73,16.786c-0.653-8.337-3.626-15.221-7.856-22.412
		C2920.096,1518.962,2912.485,1509.984,2904.475,1507.875z"/>
	<path style="fill:#FEFEFE;" d="M3020.153,1540.777c-7.578-14.301-15.79-34.39-32.539-39.944c-2.888-0.956-5.4-1.605-8.393-1.891
		C2988.961,1512.864,3002.299,1537.567,3020.153,1540.777z"/>
	<path style="fill:#FEFEFE;" d="M3157.368,1586.279c1.496-0.294,3.013-1.158,4.412-1.771l-2.819-4.481
		c-2.1-2.987-4.236-5.949-6.408-8.885c-8.248-11.107-20.585-18.262-32.309-25.126
		C3130.193,1565.093,3136.105,1578.628,3157.368,1586.279z"/>
	<path style="fill:#FEFEFE;" d="M3254.24,1686.623l2.71-3.267c0.069-5.687-3.021-7.018-6.776-10.986
		c-10.881-8.094-22.021-12.325-34.685-16.786l-1.557,4.227C3220.571,1669.466,3242.664,1684.38,3254.24,1686.623z"/>
	<path style="fill:#FEFEFE;" d="M2843.805,1521.668l-2.497,2.045l0.044,6.505c11.632,17.29,22.416,35.435,38.198,49.305
		c-5.039-11.537-10.438-22.903-16.197-34.096C2859.05,1535.49,2854.211,1526.125,2843.805,1521.668z"/>
	<path style="fill:#FEFEFE;" d="M3126.502,1577.333c-9.454-15.854-21.178-32.233-39.536-37.952
		c4.815,11.571,10.188,21.065,17.431,31.281C3111.685,1573.276,3118.823,1576.107,3126.502,1577.333z"/>
	<path style="fill:#FEFEFE;" d="M2910.352,1489.294l-5.578-24.433c-12.22-9.474-22.743-19.875-36.552-27.139
		C2879.631,1452.835,2893.106,1482.232,2910.352,1489.294z"/>
	<path style="fill:#FEFEFE;" d="M3106.026,1640.448c10.353,19.649,28.292,32.475,45.409,45.889
		c-3.334-7.184-6.589-14.405-9.764-21.662C3131.35,1651.288,3122.179,1645.36,3106.026,1640.448z"/>
	<path style="fill:#FEFEFE;" d="M3052.858,1576.644l-2.686,2.359c0.375,7.332,3.836,12.789,7.211,19.173
		c8.03,7.958,15.697,14.995,26.179,19.557c-0.282-4.368-1.843-7.344-3.811-11.2
		C3074.004,1595.277,3065.683,1580.677,3052.858,1576.644z"/>
	<path style="fill:#FEFEFE;" d="M3090.535,1591.554c-0.964,7.231,4.485,15.786,8.792,21.263c3.977,5.057,8.558,8.542,13.596,12.426
		c1.976,1.525,3.9,3.134,5.848,4.695l5.501-3.888c-8.643-13.777-15.33-28.292-30.458-35.701L3090.535,1591.554z"/>
	<path style="fill:#EEEAE2;" d="M2768.83,1485.172c3.025-12.361,0.875-24.973,1.4-37.609l0.778-5.376
		c-3.138-5.017-3.158-5.848-8.587-7.941l-3.698,2.896c-4.384-2.561-4.884-10.494-8.639-14.777l-2.94,4.65
		c7.731,19.347,15.201,37.238,18.355,57.924L2768.83,1485.172z"/>
	<path style="fill:#FEFEFE;" d="M2828.427,1518.365c-6.292-11.204-14.64-14.777-26.611-18.113
		c2.553,12.414,22.186,38.129,32.531,45.203c1.734,1.186,2.315,1.234,4.094,1.742l1.335-3.085l-4.033-9.272
		C2834.065,1529.436,2831.214,1523.322,2828.427,1518.365z"/>
	<path style="fill:#FEFEFE;" d="M2866.435,1483.906c0.899,11.402,9.224,18.234,11.72,28.611
		c6.655,7.183,12.527,14.342,21.327,18.948c0.306-5.643,0.032-11.547-1.468-17.008
		C2893.517,1498.115,2880.188,1491.509,2866.435,1483.906z"/>
	<path style="fill:#FEFEFE;" d="M3006.872,1589.84l2.993-1.041c-10.172-20.948-20.093-39.436-42.05-49.571
		c1.452,12.285,11.894,24.844,18.831,34.778C2992.684,1579.781,2998.81,1587.146,3006.872,1589.84z"/>
	<path style="fill:#FEFEFE;" d="M3040.879,1604.036l1.46-2.351c-1.162-2.714-2.267-5.432-3.602-8.066
		c-5.57-8.062-9.462-17.867-13.753-26.683c-8.623-5.094-17.681-9.571-26.534-14.261c5.537,9.877,11.252,19.286,17.726,28.587
		C3022.303,1589.59,3030.571,1601.008,3040.879,1604.036z"/>
	<path style="fill:#FEFEFE;" d="M3124.091,1594.619l-2.448,1.258c1.75,9.49,10.631,21.626,16.314,29.539
		c2.545,3.541,6.61,5.292,10.623,6.675c1.605-2.843,2.727-4.235,5.065-6.719l4.655,1.831l2.46-2.847
		C3151.407,1611.696,3139.465,1599.406,3124.091,1594.619z"/>
	<path style="fill:#EEEAE2;" d="M2810.403,1487.225c-0.241-0.187-0.509-0.427-0.753-0.621l-1.054,1.202L2810.403,1487.225z"/>
	<path style="fill:#EEEAE2;" d="M2812.351,1483.523c-1.916-6.388-2.601-7.534-0.714-14.185c-0.041-2.521,0.069-4.219-0.641-6.755
		c-1.391-4.981-6.606-8.768-11.22-10.369c-6.062-2.109-11.325-2.46-17.431-5.505c-2.932-1.46-4.344-0.093-7.373,0.855
		c7.127,12.729,22.945,29.732,34.678,39.041L2812.351,1483.523z"/>
	<path style="fill:#FBDC93;" d="M2789.515,1429.318c2.747-3.36,4.747-6.792,6.848-10.583l-10.938-15.1
		c-0.617-0.065-1.242-0.089-1.855-0.194c-9.518-1.621-16.673-7.8-26.732-7.699l-0.916,2.545c9.135,11.26,17.75,21.94,29.272,30.87
		L2789.515,1429.318z"/>
	<path style="fill:#FEFEFE;" d="M2904.754,1556.716c14.1,23.993,28.708,42.803,49.857,61.025c-3.452-8.369-7.07-16.709-10.28-25.175
		C2935.071,1574.099,2922.475,1565.972,2904.754,1556.716z"/>
	<path style="fill:#E9CFA2;" d="M2726.498,1442.926l3.295-0.778c5.707-9.345,7.897-20.505,10.797-30.991
		c4.755-5.675,6.316-13.023,6.977-20.468c0.464-5.271,1.004-9.054-2.545-13.043c-7.897,4.057-12.628,22.122-15.741,30.374
		c-2.96,10.603-4.34,20.327-5.231,31.245L2726.498,1442.926z"/>
	<path style="fill:#FEFEFE;" d="M2800.929,1534.449c2.259-11.115-3.053-22.957-6.094-33.624
		c-4.166-6.776-9.554-15.886-17.253-18.798l-3.42,2.658c-0.02,16.201,5.029,30.22,16.334,42.057
		C2793.549,1529.936,2797.146,1532.231,2800.929,1534.449z"/>
	<path style="fill:#FEFEFE;" d="M2949.626,1582.685l-2.916,1.638l0.153,6.356c8.147,15.907,17.395,29.188,28.938,42.812l1.891,0.387
		c-0.403-5.667-0.04-8.24,2.513-13.33c-0.799-9.099-10.898-21.17-15.838-28.986
		C2959.54,1588.198,2954.93,1585.254,2949.626,1582.685z"/>
	<path style="fill:#FEFEFE;" d="M3024.61,1615.87c3.089,8.425,9.397,16.524,11.349,24.909c11.075,6.763,20.718,23.384,33.112,26.046
		c0.802-12.559-13.894-30.47-20.557-40.791C3040.424,1622.928,3032.535,1619.375,3024.61,1615.87z"/>
	<path style="fill:#FEFEFE;" d="M2868.335,1534.857l-2.23,2.73c11.64,24.892,35.31,44.816,49.672,68.882
		c-3.932-13.866-6.921-30.749-13.599-43.4C2894.909,1553.365,2880.49,1537.845,2868.335,1534.857z"/>
	<path style="fill:#FEFEFE;" d="M3196.453,1655.757l-27.764-2.408c12.007,23.114,40.944,27.788,62.384,40.017
		C3228.52,1682.327,3205.644,1664.259,3196.453,1655.757z"/>
	<path style="fill:#FEFEFE;" d="M3062.614,1624.888c12.954,19.653,27.461,36.6,43.9,53.398l5.017,1.843l1.819-2.553
		c-1.839-10.264-8.115-19.92-12.898-29.115C3092.406,1635.128,3076.31,1630.772,3062.614,1624.888z"/>
	<path style="fill:#FEFEFE;" d="M2835.215,1468.5l-2.642,2.601c1.359,1.424,3.485,3.142,4.283,4.924
		c5.582,14.415,10.885,26.957,22.569,37.673l4.037,1.073l2.524-2.702c-6.038-10.672-10.712-22.759-15.999-33.882
		C2845.16,1474.582,2840.567,1471.278,2835.215,1468.5z"/>
	<path style="fill:#FBDC93;" d="M2849.988,1478.187c5.287,11.123,9.962,23.211,15.999,33.882l3.432-5.473
		c0.891,0.649,1.839,1.226,2.67,1.948c0.645,0.565,2.75,3.021,3.392,3.755l2.674,0.218c-2.496-10.377-10.821-17.209-11.72-28.611
		C2861.878,1480.978,2855.235,1479.744,2849.988,1478.187z"/>
	<path style="fill:#FEFEFE;" d="M3157.751,1603.508c2.258,9.97,9.921,19.726,14.479,29.002c4.937,3.739,8.574,5.759,14.414,7.804
		l3.033-1.69c-0.75-8.473-6.042-16.689-9.837-24.215c17.169,9.103,30.725,23.594,47.567,33.58
		c-7.885-12.365-21.206-30.579-34.947-36.177c-3.65-0.222-6.993-2.13-10.341-3.557c-7.211-3.025-14.229-6.747-22.162-6.893
		L3157.751,1603.508z"/>
	<path style="fill:#E6B348;" d="M3201.66,1592.486c-7.01-2.166-14.293-4.057-21.049-6.913l-2.589,2.819
		c6.151,6.247,15.596,8.853,24.134,8.978c12.825,0.185,23.44-1.468,35.875,3.291c-4.993-11.232-16.028-18.528-20.847-30.208
		c-5.336-2.073-10.607-6.562-16.141-9.038c-5.376,0.944-5.739,1.718-9.683,5.622l-3.392,8.292L3201.66,1592.486z"/>
	<path style="fill:#FEFEFE;" d="M2986.005,1599.689c0.831,10.764,10.567,21.851,16.371,30.813
		c4.969,8.772,10.97,15.85,18.903,22.118l5.998,1.294c-9.05-15.797-7.598-29.123-21.73-42.715
		C2999.063,1607.309,2992.549,1603.472,2986.005,1599.689z"/>
	<path style="fill:#FBDC93;" d="M3005.545,1611.199c14.132,13.592,12.68,26.917,21.73,42.715c-0.343-2.811-0.399-4.267,0.52-7.033
		c1.134-3.408,5.098-4.445,8.163-6.102c-1.952-8.385-8.26-16.484-11.349-24.909
		C3017.955,1612.817,3012.861,1611.554,3005.545,1611.199z"/>
	<path style="fill:#E6B348;" d="M3342.04,1686.348c-10.885-2.246-30.47-16.774-35.326-26.615c-1.891-3.831-1.585-2.146-0.04-6.4
		l-3.182-2.093c-1.658,1.972-3.126,2.48-2.577,5.279c1.948,9.922,11.418,15.491,18.367,21.686c-3.097,2.617-4.767,4.037-8.833,4.658
		c-0.174-0.645-0.339-1.299-0.52-1.944c-2.392-8.506-5.481-15.209-13.677-19.432c-11.413-5.88-25.118-1.775-35.693-8.433
		c-5.195-3.271-7.018-4.807-13.197-4.63l-10.696,10.018c-3.747-0.379-6.118-1.113-9.474-2.626c-3.767-1.698-5.207-2.032-9.212-1.839
		l-2.492,1.605c12.664,4.461,23.803,8.692,34.685,16.786l3.811-3.872c-3.436-4.634-6.134-6.957-6.715-12.773
		c11.47-0.407,24.304,13.817,32.442,21.315l3.69-2.408c-2.815-4.07-7.102-8.171-7.066-13.152c5.941-1.162,9.595-0.823,14.741,2.633
		c5.3,3.557,11.236,8.954,12.474,15.495c0.141,0.73,0.113,1.476,0.169,2.214c-3.755,2.114-4.134,1.42-8.131,0.359
		c-3.061-0.811-5.735-2.23-8.534-3.674l4.065,8.038c6.344,5.211,12.595,10.857,19.613,15.136
		c14.543-2.658,28.301-6.223,42.404-10.647l-5.296-4.465C3345.594,1686.675,3344.424,1686.837,3342.04,1686.348z"/>
	<path style="fill:#FEFEFE;" d="M3295.591,1682.182c3.997,1.061,4.376,1.754,8.131-0.359c-0.056-0.738-0.028-1.484-0.169-2.214
		c-1.238-6.542-7.175-11.938-12.474-15.495c-5.146-3.456-8.8-3.795-14.741-2.633c-0.036,4.981,4.251,9.082,7.066,13.152l3.654,3.876
		C3289.856,1679.952,3292.53,1681.371,3295.591,1682.182z"/>
	<path style="fill:#FEFEFE;" d="M3273.469,1682.594c3.085,0.093,2.452-0.315,5.271-2.557l0.972-2.996
		c-8.138-7.498-20.972-21.722-32.442-21.315c0.581,5.816,3.279,8.139,6.715,12.773
		C3259.115,1674.245,3265.04,1682.335,3273.469,1682.594z"/>
	<path style="fill:#EEEAE2;" d="M3306.714,1659.734c4.856,9.841,24.441,24.368,35.326,26.615c2.384,0.488,3.553,0.327,5.804,0.222
		c-9.421-12.454-25.566-29.788-41.17-33.237C3305.129,1657.588,3304.823,1655.902,3306.714,1659.734z"/>
	<path style="fill:#DAA53A;" d="M3258.398,1571.267c-9.418,0.766-15.802-5.634-23.473-10.272c-2.404-1.452-1.541-0.984-4.698-1.411
		l-2.698,2.464c0.52,5.154,1.863,7.28,5.876,10.692c7.336,6.235,21.86,11.664,24.191,21.803c0.145,0.633,0.129,1.291,0.189,1.932
		c-5.268,2.843-8.587,1.875-14.487,1.569c-8.619-9.228-15.217-21.021-26.115-27.591c4.82,11.68,15.854,18.976,20.847,30.208
		c6.178,3.182,15.398,7.401,17.863,14.1c-4.166,0.25-4.553,0.214-8.163-1.044c-10.813-3.767-16.205-4.945-27.571-2.722
		c-4.489,0.875-6.392,0.08-10.68-1.093c-7.897-2.17-16.318-2.573-24.005-5.433l-3.356,3.787c3.348,1.428,6.691,3.335,10.341,3.557
		c3.989-0.311,8.716-0.908,12.652-0.125c5.094,1.008,13.233,9.264,17.79,5.957l-0.214-3.977c4.509-1.42,8.748-0.274,12.918,1.714
		c13.684,6.53,14.697,19.359,22.65,30.148c5.092-1.675,10.214-3.253,15.366-4.735c5.832,3.041,8.268,5.162,14.93,4.735l0.149-16.383
		l1.992,1.811c6.203,5.526,20.976,12.015,24.017,18.274c-4.529,2.339-6.251,2.085-11.22,2.009l3.182,2.093
		c15.604,3.448,31.749,20.783,41.17,33.237l5.296,4.465l4.812-0.69c-30.704-47.26-69.64-91.036-103.825-135.981l0.476,3.118
		C3255.369,1562.233,3256.893,1566.714,3258.398,1571.267z"/>
	<path style="fill:#C39036;" d="M3081.86,1226.303c-116.4-18.819-213.062,8.611-308.521,77.428
		c-12.321,8.877-26.978,18.048-36.322,30.143c71.415-25.578,159.421-27.211,228.948,5.707
		c46.949,22.231,89.801,58.839,124.45,97.138c20.163,22.628,38.657,46.546,55.484,71.753c11.752,17.448,23.001,37.194,36.798,53.064
		c2.598,2.984,5.066,4.089,8.663,5.501c3.945-3.904,4.307-4.678,9.683-5.622c5.533,2.476,10.805,6.965,16.141,9.038
		c10.897,6.57,17.496,18.363,26.115,27.591c5.9,0.306,9.219,1.274,14.487-1.569c-0.061-0.641-0.045-1.298-0.189-1.932
		c-2.331-10.139-16.855-15.568-24.191-21.803c-4.013-3.412-5.356-5.537-5.876-10.692l2.698-2.464
		c3.158,0.428,2.295-0.04,4.698,1.411c7.671,4.638,14.055,11.039,23.473,10.272c-1.504-4.553-3.029-9.034-3.795-13.785l-0.476-3.118
		c-4.654-13.418-16.822-28.603-23.844-41.509c-22.642-41.606-31.616-95.775-24.852-142.534
		c7.119-49.236,28.655-87.668,68.389-117.368C3194.372,1258.399,3157.073,1254.825,3081.86,1226.303z"/>
	
		<linearGradient id="SVGID_1_" gradientUnits="userSpaceOnUse" x1="2461.8057" y1="3754.4348" x2="2856.6577" y2="3785.4805" gradientTransform="matrix(1 0 0 -1 0 5002)">
		<stop  offset="0" style="stop-color:#C38C35"/>
		<stop  offset="1" style="stop-color:#FCCD5A"/>
	</linearGradient>
	<path style="fill:url(#SVGID_1_);" d="M2586.634,1654.233c2.037-4.521,3.727-3.872,8.139-5.526l-1.859-2.097l1.166-0.024
		c4.533,4.449,4.332,10.744,5.074,16.734l10.873-3.606c-1.214-10.704-2.912-20.77-0.459-31.414l2.186-1.206
		c4.888,11.664,14.213,77.464,10.308,87.66c-0.298,0.778-0.686,1.516-1.032,2.275c5.969,8.256,5.348,18.71,5.07,28.534l-3.702,4.682
		l-0.242,1.101c3.912,4.089,7.352,8.082,12.462,10.704c-1.032-13.906-2.234-29.486,7.409-40.847l2.573,0.871
		c3.666,7.26,4.19,14.503,5.134,22.464l2.521-0.956c-1.746-17.77-6.146-48.926,3.852-64.486l3.594,1.089l3.061,6.953l2.13-0.117
		c-0.242-11.853-0.137-32.366,5.981-42.509c1.984-3.287,2.275-2.642,5.663-3.614l4.703,6.388
		c2.678-17.629-4.562-36.512,1.282-53.987c2.025-6.058,5.171-8.32,10.539-11.172c2.504-1.698,2.521-2.827,3.722-5.521
		c-2.194-9.611-1.182-14.249,2.73-23.082l8.663-19.04c6.764-7.623,10.397-18.923,16.528-27.421
		c-0.649-2.468-1.238-4.957-1.912-7.421c-3.231-11.849-5.11-22.872-4.82-35.209c0.181-7.804,0.411-19.71,6.082-25.171
		c0.891-10.918,2.271-20.641,5.231-31.245c-0.448-0.565-0.932-1.101-1.343-1.69c-7.264-10.41-20.113-39.012-17.596-51.285
		l-1.879-1.214c-6.336-3.928-8.078-11.385-10.417-18.068c-9.736-27.853-15.628-57.621-22.541-86.297
		c-36.798-152.641-53.124-336.067,49.506-467.692c12.523-16.061,27.357-34.509,43.114-47.453
		c12.483-10.252,51.721-28.595,57.428-40.434l-3.412-2.724c-133.706,43.61-249.077,127.769-313.668,255.025
		c-80.219,158.042-55.375,375.621-1.428,538.566c22.736,68.184,49.383,134.803,79.941,199.857l2.726-4.432
		C2586.069,1670.914,2582.205,1664.078,2586.634,1654.233z M2691.309,1468.677l2.545,2.444c4.106,18.274,1.754,34.705-4.82,52.039
		l-2.109,0.351l-1.896-2.492C2684.832,1502.91,2686.013,1486.088,2691.309,1468.677z M2649.97,1554.038
		c1.77-3.295,7.49-6.51,10.559-8.845c2.388-16.286,5.663-31.966,9.752-47.913c3.815,28.51,2.876,55.334-2.436,83.602
		c-0.75,3.4-1.464,5.299-3.218,8.336c-3.227,5.578-8.953,35.967-12.849,46.01l-2.037-0.552l0.359-2.174l-1.145-2.96
		C2638.85,1603.048,2638.387,1580.084,2649.97,1554.038z M2629.598,1599.015l5.368,3.969c7.611,21.622,3.686,48.531,1.077,70.825
		c-0.452-0.407-0.96-0.758-1.355-1.222C2622.439,1658.084,2627.38,1616.733,2629.598,1599.015z"/>
	<path style="fill:#E9CFA2;" d="M2686.925,1523.511l2.109-0.351c6.574-17.334,8.925-33.765,4.82-52.039l-2.545-2.444
		c-5.296,17.411-6.477,34.233-6.28,52.342L2686.925,1523.511z"/>
	<path style="fill:#E9CFA2;" d="M2592.913,1646.61l1.859,2.097c-4.412,1.654-6.102,1.004-8.139,5.526
		c-4.428,9.845-0.565,16.681,3.077,25.945c1.807,2.569,2.957,3.339,5.521,5.029l2.67-1.787c2.117-7.256,1.948-12.616,1.25-20.101
		c-0.742-5.99-0.54-12.285-5.074-16.734L2592.913,1646.61z"/>
	<path style="fill:#E9CFA2;" d="M2670.28,1497.28c-4.089,15.947-7.364,31.628-9.752,47.913c1.524,11.438,1.859,25.388,7.316,35.689
		C2673.156,1552.614,2674.096,1525.79,2670.28,1497.28z"/>
	<path style="fill:#E9CFA2;" d="M2650.099,1632.502c4.13-10.381,4.065-68.406-0.129-78.464
		c-11.583,26.046-11.119,49.01-1.016,75.504L2650.099,1632.502z"/>
	<path style="fill:#E9CFA2;" d="M2636.043,1673.809c2.609-22.295,6.533-49.204-1.077-70.825l-5.368-3.969
		c-2.218,17.718-7.159,59.069,5.09,73.572C2635.083,1673.051,2635.592,1673.402,2636.043,1673.809z"/>
	<path style="fill:#E9CFA2;" d="M2656.104,1679.097c-9.998,15.56-5.598,46.716-3.852,64.486l5.88,1.996
		c7.388-17.911,4.602-39.392,4.626-58.44l-3.061-6.953L2656.104,1679.097z"/>
	<path style="fill:#E6B348;" d="M2650.099,1632.502l-0.359,2.174l2.037,0.552c3.896-10.042,9.623-40.432,12.849-46.01
		c1.754-3.037,2.468-4.937,3.218-8.336c-5.457-10.301-5.792-24.251-7.316-35.689c-3.069,2.335-8.788,5.55-10.559,8.845
		C2654.164,1564.097,2654.229,1622.121,2650.099,1632.502z"/>
	<path style="fill:#E9CFA2;" d="M2648.502,1766.095l-0.089,3.061c2.69-3.739,4.231-6.227,5.255-10.748
		c0.746-3.291,1.585-6.142,2.916-9.26l1.549-3.569l-5.88-1.996l-2.521,0.956c-0.944-7.961-1.468-15.205-5.134-22.464l-2.573-0.871
		c-9.643,11.361-8.441,26.941-7.409,40.847c-5.11-2.622-8.55-6.614-12.462-10.704l-9.954-0.508
		c6.449,15.269,12.567,30.797,19.496,45.852c3.045-3.835,5.436-8.425,7.997-12.607
		C2643.662,1778.836,2645.198,1771.955,2648.502,1766.095z"/>
	<path style="fill:#E6B348;" d="M2622.395,1750.245c-1.807-1.411-3.404-3.331-5.001-4.981c-3.069-10.958-1.634-18.27,3.634-28.236
		c0.347-0.758,0.734-1.496,1.032-2.275c3.904-10.196-5.42-75.996-10.308-87.66l-2.186,1.206c-2.452,10.644-0.754,20.71,0.459,31.414
		c3.299,19.391,6.76,37.948,5.425,57.726l-0.036-0.004c-6.586-5.412-13.45-12.204-21.19-15.794
		c5.892,16.362,11.285,33.156,17.976,49.196l9.954,0.508L2622.395,1750.245z"/>
	<path style="fill:#DAA53A;" d="M2621.028,1717.028c-5.268,9.966-6.703,17.278-3.634,28.236c1.597,1.65,3.194,3.569,5.001,4.981
		l3.702-4.682C2626.376,1735.738,2626.997,1725.284,2621.028,1717.028z"/>
	<path style="fill:#DAA53A;" d="M2615.45,1717.44c1.335-19.779-2.125-38.335-5.425-57.726l-10.873,3.606
		c0.698,7.485,0.867,12.845-1.25,20.101l-2.67,1.787c-2.565-1.69-3.715-2.46-5.521-5.029l-2.726,4.432
		c2.335,5.364,5.707,11.45,7.239,17.032c7.74,3.59,14.604,10.381,21.19,15.794L2615.45,1717.44z"/>
	<path style="fill:#FBCE65;" d="M2768.124,734.32c-15.757,12.944-30.591,31.392-43.114,47.453
		c-102.631,131.625-86.305,315.051-49.506,467.692c6.913,28.675,12.805,58.444,22.541,86.297c2.339,6.683,4.081,14.14,10.417,18.068
		c9.974-24.029,24.501-46.433,37.762-68.769c19.109-32.192,38.145-64.235,60.142-94.568
		c38.363-52.906,82.28-101.945,123.546-152.589c-20.468,6.993-32.511,20.557-55.923,22.396c-1.731,0.121-3.464,0.199-5.198,0.234
		c-1.737,0.038-3.473,0.031-5.207-0.02c-1.734-0.048-3.467-0.14-5.198-0.274c-1.729-0.135-3.455-0.311-5.179-0.529
		c-1.721-0.22-3.436-0.482-5.146-0.786c-1.708-0.304-3.407-0.649-5.098-1.036c-1.694-0.387-3.376-0.816-5.046-1.287
		c-1.67-0.468-3.329-0.979-4.977-1.533c-1.646-0.551-3.276-1.141-4.892-1.771c-1.616-0.632-3.216-1.303-4.799-2.013
		c-1.583-0.712-3.149-1.461-4.695-2.246c-1.549-0.788-3.076-1.613-4.582-2.476c-1.506-0.86-2.99-1.758-4.453-2.694
		c-1.463-0.936-2.901-1.906-4.315-2.912c-1.414-1.006-2.803-2.046-4.166-3.122c-1.363-1.073-2.699-2.179-4.009-3.319
		c-30.139-25.836-41.428-64.885-43.578-103.369c-4.852-86.829,37.443-169.325,104.756-222.681
		c15.213-12.06,41.105-19.206,53.136-34.03c0.629-0.775,1.206-1.591,1.807-2.387c-29.482,4.892-62.921,8.999-91.011,19.112
		l3.412,2.724C2819.844,705.725,2780.606,724.068,2768.124,734.32z"/>
	<path style="fill:#185177;" d="M2748.85,3775.33c20.491,25.626,39.365,52.394,56.621,80.303
		c-24.36,3.908-48.781,8.155-73.258,11.232c-49.635,6.239-92.031,8.707-124.631,52.088c-6.433,8.562-12.204,18.702-16.358,28.559
		c89.886-8.208,181.575-12.047,270.997,2.997c19.968,3.364,56.032,21.654,69.898,22.646c36.048-1.9,275.676,80.098,317.438,99.316
		c26.123,12.023,52.233,27.131,73.621,46.429c8.873,8.005,22.69,19.206,25.562,31.147l-1.996,2.912
		c-4.55-3.985-5.985-6.3-12.092-7.058c4.102,5.396,7.796,9.946,13.096,14.201c8.889-1.605-4.727-56.072,3.872-68.313
		c-15.483-24.336-22.303-55.076-37.601-80.328c-58.622-96.767-195.848-98.92-294.292-123.248
		c65.147-3.759,215.001-13.168,269.21,23.384c40.626,27.393,57.146,73.838,66.877,119.425
		c42.598-11.164,85.724-22.872,128.596-32.805c56.887-13.18,79.936-11.543,129.495,19.581
		c-13.946-32.265-33.515-55.976-59.896-79.049c-52.29-45.735-109.898-73.753-169.036-108.64
		c-17.661-10.417-37.871-28.292-58.129-32.426c-24.961-5.098-56.254,1.839-81.562,3.815c-60.932,4.278-121.768,9.661-182.507,16.149
		c-42.662,4.662-85.284,11.652-128.116,14.358c-23.731-36.286-42.823-76.972-63.251-115.234
		c-13.215-25.287-26.823-50.364-40.823-75.229c-45.752,17.209-91.342,35.064-138.287,48.809
		C2708.156,3719.781,2728.031,3749.151,2748.85,3775.33z"/>
	<path style="fill:#103355;" d="M3288.936,3911.596c-54.209-36.552-204.064-27.143-269.21-23.384
		c98.444,24.328,235.671,26.481,294.292,123.248c15.298,25.251,22.118,55.992,37.601,80.328c5.283-18.976,5.767-41.219,4.194-60.767
		C3346.082,3985.435,3329.562,3938.989,3288.936,3911.596z"/>
	<path style="fill:#103355;" d="M3348.74,4150.046c-2.872-11.942-16.689-23.142-25.562-31.147
		c-21.388-19.299-47.498-34.407-73.621-46.429c-41.763-19.218-281.39-101.215-317.438-99.316
		c38.718,21.715,99.977,61.259,123.934,99.102c26.566,4.073,53.431,5.876,80.001,9.922c56.935,8.667,153.585,28.47,198.599,63.723
		c6.106,0.758,7.542,3.073,12.092,7.058L3348.74,4150.046z"/>
	
		<linearGradient id="SVGID_00000142878032979871586100000015689098092028741031_" gradientUnits="userSpaceOnUse" x1="1875.4279" y1="1911.9384" x2="3057.3572" y2="3217.374" gradientTransform="matrix(1 0 0 -1 0 5002)">
		<stop  offset="0" style="stop-color:#F5D194"/>
		<stop  offset="1" style="stop-color:#D9CCBE"/>
	</linearGradient>
	<path style="fill:url(#SVGID_00000142878032979871586100000015689098092028741031_);" d="M2779.872,1540.842
		c-3.948,4.122-6.203,6.598-8.183,12.099c-2.844,12.922-4.562,28.716-9.276,40.904c-13.112,73.254-30.547,150.867-56.125,220.878
		c-3.509,7.191-7.272,14.318-9.913,21.88c-0.286,5.796,0.419,9.966-3.783,14.62c-1.694,1.875-5.312,3.291-7.522,4.529
		c-2.234,1.255-4.432,2.597-6.646,3.884l-8.449,8.829c-1.823,3.597-3.368,6.651-5.715,9.941
		c12.837,41.142,27.208,82.381,37.032,124.361c22.456,95.96,22.751,203.2-24.05,292.187c-28.111,53.455-76.189,81.174-132.56,98.36
		c-141.002,42.977-276.881,95.791-413.725,150.258c-63.812,25.396-129.753,46.974-190.855,78.605
		c-15.138,8.015-29.865,16.724-44.183,26.126c-14.318,9.405-28.162,19.461-41.533,30.168
		c-78.468,63.489-136.073,146.362-198.841,224.072c7.736,0.175,15.466,0.058,23.19-0.351c7.725-0.411,15.424-1.112,23.098-2.101
		c7.671-0.992,15.295-2.271,22.872-3.835c7.574-1.568,15.08-3.419,22.517-5.554c21.492-6.275,45.01-13.886,65.135-23.751
		c10.837-5.316,49.172-29.801,57.815-30.519c2.081-0.173,4.154,0.423,6.231,0.637c45.683-46.974,97.501-82.348,152.827-116.888
		c160.389-100.13,334.942-167.875,511.464-233.631c112.508-41.908,224.709-82.36,339.04-119.114
		c34.939-11.236,70.761-24.594,106.72-31.688c20.044-3.957,72.677-9.191,87.031-18.577c-97.004-24.566-188.1-13.301-284.815,4.558
		c79.759-33.245,196.897-53.076,281.556-34.35c-4.497-27.974-6.606-55.326-13.608-83.038
		c-21.122-83.598-64.857-162.619-107.688-236.889c-16.814-29.164-34.818-58.021-49.918-88.104
		c-34.802-69.309-67.567-146.451-85.099-222.136c-8.893-38.383-13.567-78.085-18.758-117.126
		C2788.293,1538.865,2786.712,1538.486,2779.872,1540.842z"/>
	<path style="fill:#DAA53A;" d="M2757.049,1607.445l-2.351-2.795c0.532-5.917,1.601-12.047-1.246-17.524
		c-0.557-1.073-1.186-2.101-1.779-3.15c-0.629,9.772-0.972,19.399-3.307,28.946c-2.831,4.743-4.731,10.325-10.498,12.023
		c-1.032,0.303-2.137,0.254-3.206,0.383c-0.617,15.528-0.286,31.245-6.63,45.728l-4.941,2.081c-1.5,4.255-2.218,8.046-2.763,12.523
		c1.113,9.042,2.852,16.979-1.633,25.401l-9.002,4.642c-3.243,9.066-2.916,14.556-1.589,23.945
		c1.674,11.857,2.287,21.343-1.347,32.95c-1.867,5.469-4.549,7.425-8.776,11.103l-0.686,3.884c6.457,7.53,3.698,18.742,8.994,27.139
		c25.578-70.011,43.013-147.624,56.125-220.878l-2.714-2.472C2758.763,1596.72,2757.88,1602.078,2757.049,1607.445z"/>
	<path style="fill:#E6B348;" d="M2667.897,1768.003l-5.558,24.142c6.526,10.68,12.003,21.344,15.326,33.491
		c2.706-5.449,3.489-5.989,8.671-9.264c-2.666-0.577-1.714-0.044-3.847-1.859c-5.348-4.545-7.691-43.917-8.716-53.467
		c12.313-22.706,20.198-45.877,28.647-70.196c3.312,8.312,5.646,16.052,7.272,24.852l9.002-4.642
		c-1.67-1.835-2.384-2.444-3.698-4.836c-5.078-9.204-14.386-33.495-12.232-43.61c1.323-6.227,2.392-12.511,3.573-18.762
		c7.897,14.088,11.886,25.941,13.991,41.807c0.545-4.477,1.263-8.268,2.763-12.523l4.941-2.081
		c-5.759-10.268-12.031-36.633-12.85-48.841c-0.294-4.396,1.509-6.715,4.235-9.861c0.863,0.125,4.255,0.665,5.033,0.557
		c5.473-0.786,1.992-17.879,6.691-23.324l2.093,0.698l3.823,10.982c-0.686,8.042-1.416,16.052-2.396,24.062
		c1.069-0.129,2.174-0.08,3.206-0.383c5.768-1.698,7.667-7.28,10.498-12.023c-2.577-8.695-3.84-17.883-6.191-26.711
		c-4.61-12.124-1.561-21.489,3.222-33.047l4.126,0.859l-2.815-2.279l2.634,1.464c2.662,8.159,2.44,15.85,2.492,24.324l-0.161,6.445
		c0.593,1.049,1.222,2.077,1.779,3.15c2.847,5.477,1.779,11.607,1.246,17.524l2.351,2.795c0.831-5.367,1.714-10.724,2.65-16.072
		l2.714,2.472c4.715-12.188,6.433-27.982,9.276-40.904c-0.141-12.781-2.694-25.183-4.941-37.722l-9.841,25.449
		c-8.002-23.622,15.14-32.648,8.591-55.729c-3.154-20.686-10.623-38.577-18.355-57.924c-1.759-7.074-1.234-10.2-6.554-15.858
		c-2.9,10.486-5.09,21.646-10.797,30.991l-3.295,0.778l-2.448-3.662c-5.671,5.461-5.901,17.366-6.082,25.171
		c-0.291,12.337,1.589,23.36,4.82,35.209c0.674,2.464,1.262,4.953,1.912,7.421c-6.13,8.498-9.764,19.798-16.528,27.421
		c3.525,9.797,3.541,17.75,1.448,27.853c-0.234,8.776-0.044,28.361-5.771,35.225c-3.779-0.286-3.033,0.605-4.92-1.859
		c-2.517-3.279-3.493-6.606-5.126-10.349c-0.105-0.242-0.27-0.452-0.407-0.674c0.02,22.618-0.166,50.761-11.353,71.293l-0.883,0.045
		l-4.311,0.875c-1.92,11.482,0.266,38.246-6.873,46.522c-3.936-4.743-4.154-10.51-5.086-16.395l-2.13,0.117
		c-0.024,19.048,2.763,40.529-4.626,58.44l-1.549,3.569c-1.331,3.117-2.17,5.969-2.916,9.26c-1.025,4.521-2.565,7.01-5.255,10.748
		l0.089-3.061c-3.303,5.86-4.84,12.741-8.809,17.988c-2.561,4.182-4.952,8.772-7.997,12.607l5.473,15.173
		C2648.796,1808.354,2661.625,1778.638,2667.897,1768.003z M2747.523,1459.772l3.989,2.331c6.852,13.926-3.315,40.666-8.01,54.798
		c-0.77-1.016-1.621-1.976-2.315-3.045C2731.931,1499.635,2742.643,1474.198,2747.523,1459.772z"/>
	<path style="fill:#E9CFA2;" d="M2751.834,1577.531c-0.052-8.474,0.169-16.165-2.492-24.324l-2.634-1.464l2.815,2.279l-4.126-0.859
		c-4.783,11.559-7.832,20.924-3.222,33.047c2.351,8.829,3.614,18.016,6.191,26.711c2.335-9.546,2.678-19.173,3.307-28.946
		L2751.834,1577.531z"/>
	<path style="fill:#E9CFA2;" d="M2743.502,1516.901c4.695-14.132,14.862-40.872,8.01-54.798l-3.989-2.331
		c-4.88,14.426-15.592,39.863-6.336,54.084C2741.88,1514.925,2742.731,1515.885,2743.502,1516.901z"/>
	<path style="fill:#E9CFA2;" d="M2676.532,1640.899c-3.388,0.972-3.678,0.327-5.663,3.614c-6.118,10.143-6.223,30.656-5.981,42.509
		c0.932,5.884,1.149,11.652,5.086,16.395c7.139-8.276,4.953-35.04,6.873-46.522l4.311-0.875l0.077-8.732L2676.532,1640.899z"/>
	<path style="fill:#E9CFA2;" d="M2720.327,1685.659c-2.105-15.866-6.094-27.72-13.991-41.807c-1.182,6.251-2.25,12.535-3.573,18.762
		c-2.154,10.115,7.155,34.406,12.232,43.61c1.315,2.391,2.029,3,3.698,4.836C2723.179,1702.638,2721.44,1694.701,2720.327,1685.659z
		"/>
	<path style="fill:#E9CFA2;" d="M2737.057,1601.266l-3.823-10.982l-2.093-0.698c-4.698,5.445-1.218,22.537-6.691,23.324
		c-0.778,0.109-4.17-0.432-5.033-0.557c-2.727,3.146-4.529,5.465-4.235,9.861c0.819,12.208,7.091,38.573,12.85,48.841
		c6.344-14.483,6.013-30.2,6.63-45.728C2735.641,1617.318,2736.371,1609.308,2737.057,1601.266z"/>
	<path style="fill:#FBDC93;" d="M2790.496,1526.742c-11.305-11.837-16.354-25.856-16.334-42.057l-5.332,0.488l-3.331-0.234
		c6.55,23.081-16.592,32.108-8.591,55.729l9.841-25.449c2.246,12.539,4.799,24.941,4.941,37.722
		c1.98-5.501,4.235-7.977,8.183-12.099c6.84-2.355,8.421-1.976,15.281-0.754l3.239-0.956l2.537-4.682
		C2797.146,1532.231,2793.549,1529.936,2790.496,1526.742z"/>
	<path style="fill:#E9CFA2;" d="M2705.957,1565.226c-0.081,5.187-1.662,6.763-4.812,10.43l-4.368,0.952
		c-1.202,2.694-1.218,3.823-3.722,5.521c-5.368,2.852-8.514,5.114-10.539,11.172c-5.844,17.475,1.396,36.359-1.282,53.987
		l-0.077,8.732l0.883-0.045c11.188-20.533,11.373-48.675,11.353-71.293c0.137,0.222,0.302,0.432,0.407,0.674
		c1.633,3.743,2.609,7.07,5.126,10.349c1.887,2.464,1.141,1.573,4.92,1.859c5.727-6.865,5.538-26.449,5.771-35.225
		c2.093-10.103,2.077-18.056-1.448-27.853l-8.663,19.04C2703.195,1556.813,2706.042,1559.829,2705.957,1565.226z"/>
	<path style="fill:#EEEAE2;" d="M2705.957,1565.226c0.085-5.396-2.763-8.413-6.449-11.7c-3.912,8.833-4.924,13.471-2.73,23.082
		l4.368-0.952C2704.296,1571.989,2705.877,1570.412,2705.957,1565.226z"/>
	<path style="fill:#E9CFA2;" d="M2677.665,1825.636c-3.323-12.148-8.8-22.811-15.326-33.491l5.558-24.142
		c-6.271,10.635-19.101,40.351-30.728,43.86c9.49,21.892,18.923,44.13,27.09,66.542c2.347-3.291,3.892-6.344,5.715-9.941
		C2669.345,1852.65,2672.858,1840.486,2677.665,1825.636z"/>
	<path style="fill:#E9CFA2;" d="M2695.516,1788.717c-1.286-17.205-1.738-32.995,6.889-48.458c3.569,9.712,2.254,20.323,4.021,30.523
		l0.331,1.815c3.634-11.607,3.021-21.093,1.347-32.95c-1.327-9.389-1.654-14.878,1.589-23.945c-1.625-8.8-3.96-16.54-7.272-24.852
		c-8.449,24.32-16.334,47.49-28.647,70.196c1.024,9.551,3.368,48.922,8.716,53.467c2.134,1.815,1.182,1.282,3.847,1.859l1.169-2.262
		C2689.333,1805.664,2692.878,1796.989,2695.516,1788.717z"/>
	<path style="fill:#E6B348;" d="M2697.98,1783.7c4.227-3.678,6.908-5.634,8.776-11.103l-0.331-1.815
		c-1.767-10.2-0.452-20.811-4.021-30.523c-8.627,15.463-8.175,31.253-6.889,48.458c-2.638,8.272-6.183,16.947-8.01,25.393
		l4.38,1.746l0.218,3.569c-2.533,14.765-10.002,26.147-13.68,40.21c2.214-1.286,4.412-2.629,6.646-3.884
		c2.21-1.238,5.828-2.654,7.522-4.529c4.202-4.654,3.497-8.824,3.783-14.62c2.642-7.562,6.405-14.688,9.913-21.88
		c-5.295-8.397-2.537-19.609-8.994-27.139L2697.98,1783.7z"/>
	<path style="fill:#DAA53A;" d="M2691.886,1815.856l-4.38-1.746l-1.169,2.262c-5.182,3.275-5.965,3.815-8.671,9.264
		c-4.807,14.85-8.32,27.014-7.691,42.828l8.449-8.829c3.678-14.063,11.147-25.445,13.68-40.21L2691.886,1815.856z"/>
	
		<linearGradient id="SVGID_00000008109877549631236930000001385186936954053762_" gradientUnits="userSpaceOnUse" x1="3748.2004" y1="3747.4912" x2="3874.9631" y2="4103.4097" gradientTransform="matrix(1 0 0 -1 0 5002)">
		<stop  offset="0" style="stop-color:#A5C1E0"/>
		<stop  offset="1" style="stop-color:#B6D7E6"/>
	</linearGradient>
	<path style="fill:url(#SVGID_00000008109877549631236930000001385186936954053762_);" d="M4400.798,1125.713
		c-19.545-31.765-48.462-53.943-81.671-70.035c-29.385-14.237-61.88-23.126-93.169-32.184
		c-68.124-19.718-136.267-35.189-205.608-49.789c-95.722-20.153-190.589-46.304-286.61-64.647
		c-86.191-16.467-174.755-25.082-260.087-45.215c-27.498,16.988-48.776,36.661-66.115,64.147
		c-13.543,21.472-22.755,54.092-44.376,68.514c-28.558,19.049-96.456,36.1-131.459,45.119c-19.411,5.001-44.171,9.462-61.005,20.492
		c68.188-1.23,136.533-12.567,204.765-15.745c100.285-4.479,200.615-6.113,300.991-4.9c100.376,1.213,200.638,5.27,300.786,12.172
		c78.222,5.658,157.615,10.297,234.243,28.095c61.473,14.277,140.063,41.247,186.689,86.059c3.4,3.267,6.094,5.856,7.703,10.397
		c2.96,4.67,7.308,7.84,11.45,11.458C4417.697,1165.343,4413.607,1146.536,4400.798,1125.713z"/>
	
		<linearGradient id="SVGID_00000065795918105288512820000009552791797085016489_" gradientUnits="userSpaceOnUse" x1="3725.4111" y1="3755.6079" x2="3852.1736" y2="4111.5249" gradientTransform="matrix(1 0 0 -1 0 5002)">
		<stop  offset="0" style="stop-color:#A5C1E0"/>
		<stop  offset="1" style="stop-color:#B6D7E6"/>
	</linearGradient>
	<path style="fill:url(#SVGID_00000065795918105288512820000009552791797085016489_);" d="M4315.336,1123.753
		c-12.293-5.297-24.771-10.114-37.436-14.451c-12.667-4.334-25.479-8.177-38.436-11.527c-12.962-3.353-26.032-6.202-39.21-8.546
		c-69.914-13.047-142.389-17.475-213.271-22.763c-55.453-4.073-110.96-7.133-166.523-9.179
		c-55.566-2.049-111.148-3.081-166.749-3.097c-55.601-0.019-111.184,0.976-166.749,2.984c-55.566,2.011-111.076,5.035-166.531,9.07
		c-48.805,3.376-131.088,7.022-176.15,20.738c3.993,11.498,21.597,21.577,32.015,27.24c4.957-1.94,8.958-3.005,14.309-3.113
		c23.041-0.476,46.833,3.4,69.906,4.622c34.608,1.831,69.571,1.347,104.216,1.186c134.549-0.637,268.997-8.316,403.542-9.897
		c71.808-1.124,143.571,0.195,215.288,3.956c71.717,3.762,143.224,9.955,214.521,18.58c33.027,4.312,85.938,8.583,115.892,20.702
		c0.762,0.307,1.492,0.702,2.238,1.053c21.513,7.469,46.373,9.732,68.72,15.665c3.174,0.843,2.142,0.548,6.296,1.061
		c-11.668-11.083-25.526-19.472-39.67-27.006C4339.702,1134.806,4327.629,1129.047,4315.336,1123.753z"/>
	
		<linearGradient id="SVGID_00000031174127242497671720000018028942958427455108_" gradientUnits="userSpaceOnUse" x1="3675.7068" y1="3669.1765" x2="3859.4485" y2="4079.0264" gradientTransform="matrix(1 0 0 -1 0 5002)">
		<stop  offset="0" style="stop-color:#95BFD6"/>
		<stop  offset="1" style="stop-color:#BFCDE7"/>
	</linearGradient>
	<path style="fill:url(#SVGID_00000031174127242497671720000018028942958427455108_);" d="M4315.336,1123.753
		c-12.293-5.297-24.771-10.114-37.436-14.451c-12.667-4.334-25.479-8.177-38.436-11.527c-12.962-3.353-26.032-6.202-39.21-8.546
		c-69.914-13.047-142.389-17.475-213.271-22.763c-55.453-4.073-110.96-7.133-166.523-9.179
		c-55.566-2.049-111.148-3.081-166.749-3.097c-55.601-0.019-111.184,0.976-166.749,2.984c-55.566,2.011-111.076,5.035-166.531,9.07
		c-48.805,3.376-131.088,7.022-176.15,20.738c3.993,11.498,21.597,21.577,32.015,27.24c4.957-1.94,8.958-3.005,14.309-3.113
		c23.041-0.476,46.833,3.4,69.906,4.622c34.608,1.831,69.571,1.347,104.216,1.186c134.549-0.637,268.997-8.316,403.542-9.897
		c71.808-1.124,143.571,0.195,215.288,3.956c71.717,3.762,143.224,9.955,214.521,18.58c33.027,4.312,85.938,8.583,115.892,20.702
		c0.762,0.307,1.492,0.702,2.238,1.053c21.513,7.469,46.373,9.732,68.72,15.665c3.174,0.843,2.142,0.548,6.296,1.061
		c-11.668-11.083-25.526-19.472-39.67-27.006C4339.702,1134.806,4327.629,1129.047,4315.336,1123.753z"/>
	<path style="fill:#070809;" d="M4398.172,1167.795c-46.626-44.812-125.216-71.781-186.689-86.059
		c-76.629-17.798-156.021-22.436-234.243-28.095c-100.148-6.902-200.409-10.959-300.786-12.172
		c-100.376-1.213-200.707,0.421-300.991,4.9c-68.232,3.178-136.578,14.515-204.765,15.745c-1.287,0.294-2.541,0.774-3.856,0.887
		c-0.686,0.06-1.343-0.302-2.029-0.367c-6.703-0.633-18.206,5.549-24.683,8.054c-2.029,4.445-2.331,6.784-1.928,11.648
		c2.464,3.279,1.795,3.166,6.078,4.646c45.062-13.717,127.346-17.363,176.15-20.738c55.455-4.036,110.966-7.059,166.531-9.07
		c55.566-2.008,111.149-3.003,166.749-2.984c55.601,0.016,111.183,1.048,166.749,3.097c55.563,2.046,111.071,5.106,166.523,9.179
		c70.882,5.287,143.357,9.716,213.271,22.763c13.178,2.344,26.248,5.193,39.21,8.546c12.957,3.35,25.769,7.193,38.436,11.527
		c12.664,4.337,25.142,9.154,37.436,14.451c12.293,5.294,24.365,11.053,36.217,17.278c14.144,7.534,28.002,15.923,39.67,27.006
		c5.457,2.96,9.889,6.191,14.652,10.155C4404.267,1173.651,4401.572,1171.061,4398.172,1167.795z"/>
	<path style="fill:#6097C7;" d="M4198.078,1129.556c-71.298-8.625-142.805-14.819-214.521-18.58
		c-71.717-3.761-143.48-5.08-215.288-3.956c-134.545,1.581-268.993,9.26-403.542,9.897c-34.645,0.161-69.608,0.645-104.216-1.186
		c-23.073-1.222-46.865-5.098-69.906-4.622c-5.352,0.109-9.353,1.174-14.309,3.113c74.391,44.844,153.892,66.119,237.785,84.93
		c55.863,0.847,113.794-7.728,169.326-14.318c21.71-2.577,48.595-8.457,70.176-6.731l-0.843,2.202
		c66.623-6.417,132.778-16.471,199.555-22.194c81.517-6.981,163.805-8.962,245.584-11.543c71.673-2.259,147.221-5.045,218.329,4.743
		c-0.746-0.351-1.476-0.746-2.238-1.053C4284.015,1138.139,4231.104,1133.868,4198.078,1129.556z"/>
	<path style="fill:#30241F;" d="M3583.406,1184.834c-55.532,6.59-113.464,15.165-169.326,14.318
		c-24.138,9.445-93.004,10.922-121.853,11.837c-60.118,1.904-138.437,1.944-187.334-37.157
		c-19.355-15.475-33.862-34.826-52.088-51.144c-9.195-8.236-14.217-10.143-26.675-9.401l-1.767,0.379
		c-10.111,11.119-20.161,21.291-19.754,37.439c0.347,13.89,9.885,24.691,19.75,33.431c17.395,15.415,41.848,25.38,57.5,41.767
		c75.213,28.522,112.512,32.096,191.96,26.651c33.161-11.228,70.503-17.157,104.793-24.537
		c90.58-19.492,182.051-37.351,274.127-48.111l0.843-2.202C3632.001,1176.377,3605.117,1182.257,3583.406,1184.834z"/>
	<path style="fill:#372617;" d="M3052.805,1122.688c18.226,16.318,32.733,35.669,52.088,51.144
		c48.897,39.101,127.216,39.061,187.334,37.157c28.849-0.915,97.715-2.392,121.853-11.837
		c-83.893-18.811-163.394-40.085-237.785-84.93c-10.417-5.662-28.022-15.741-32.015-27.24c-4.283-1.48-3.614-1.367-6.078-4.646
		c-0.403-4.864-0.101-7.203,1.928-11.648c-35.471,5.106-84.079,22.872-114,42.598
		C3038.589,1112.545,3043.61,1114.452,3052.805,1122.688z"/>
	<path style="fill:#8A6D4C;" d="M3240.494,867.747c-56.879-11.66-122.651-45.094-174.029,1.226
		c-22.041,19.867-35.568,47.837-52.991,71.519c-25.05,34.056-53.685,67.51-83.562,97.412
		c-41.267,50.644-85.183,99.682-123.546,152.589c-21.997,30.333-41.033,62.376-60.142,94.568
		c-13.261,22.336-27.788,44.74-37.762,68.769l1.879,1.214c6.219-5.821,12.589-11.473,19.109-16.955
		c-0.25-10.349,6.158-19.028,12.007-27.127c11.499-15.923,27.002-30.236,41.239-43.796
		c58.266-55.488,121.655-97.234,193.674-132.988c14.326-7.114,32.208-18.201,47.994-20.512l1.767-0.379
		c29.922-19.726,78.529-37.492,114-42.598c6.477-2.504,17.979-8.687,24.683-8.054c0.686,0.064,1.343,0.427,2.029,0.367
		c1.315-0.113,2.569-0.593,3.856-0.887c16.834-11.031,41.594-15.491,61.005-20.492c35.003-9.018,102.901-26.07,131.459-45.119
		c21.621-14.422,30.833-47.042,44.376-68.514c17.339-27.486,38.617-47.159,66.115-64.147l-14.386-4.904
		c-32.297,7.703-64.348,22.464-97.904,22.388C3322.036,881.234,3278.983,875.64,3240.494,867.747z M3221.902,961.295
		c-12.043,29.809-37.407,47.595-65.796,59.597c-24.227,5.646-49.091,3.307-70.479-10.119
		c-18.617-11.684-30.712-30.361-34.701-51.894c-0.245-1.307-0.456-2.619-0.633-3.936c-0.177-1.317-0.323-2.638-0.435-3.961
		c-0.11-1.326-0.19-2.652-0.238-3.981c-0.046-1.328-0.06-2.656-0.041-3.985c0.021-1.328,0.074-2.657,0.157-3.985
		c0.086-1.326,0.206-2.648,0.359-3.969c0.151-1.32,0.335-2.636,0.552-3.948c0.218-1.312,0.467-2.617,0.746-3.916
		c0.282-1.299,0.597-2.589,0.944-3.872c0.347-1.283,0.724-2.557,1.133-3.823c0.409-1.264,0.85-2.517,1.323-3.759
		c0.471-1.242,0.973-2.472,1.508-3.69c0.532-1.218,1.096-2.421,1.69-3.61c0.592-1.191,1.213-2.366,1.863-3.525
		c0.651-1.159,1.331-2.3,2.041-3.424c0.707-1.124,1.443-2.23,2.206-3.319c13.874-19.823,33.33-29.288,56.552-33.249
		c20.541-0.742,40.375-0.189,59.864,7.167c18.278,6.897,33.37,19.843,41.15,37.976
		C3228.774,926.638,3228.629,944.642,3221.902,961.295z"/>
	<path style="fill:#624727;" d="M2782.696,1267.166c-14.237,13.559-29.74,27.873-41.239,43.796
		c-5.848,8.099-12.257,16.778-12.007,27.127l7.566-4.214c9.345-12.095,24.001-21.267,36.322-30.143
		c95.46-68.817,192.122-96.246,308.521-77.428c-15.653-16.386-40.105-26.352-57.5-41.767c-9.865-8.74-19.404-19.54-19.75-33.431
		c-0.407-16.148,9.643-26.32,19.754-37.439c-15.786,2.311-33.668,13.398-47.994,20.512
		C2904.351,1169.932,2840.962,1211.679,2782.696,1267.166z"/>
	<path style="fill:#1DBCFC;" d="M3180.518,872.094c-19.488-7.356-39.323-7.909-59.864-7.167
		c-23.223,3.961-42.678,13.426-56.552,33.249c-0.764,1.089-1.499,2.196-2.206,3.319c-0.71,1.124-1.39,2.265-2.041,3.424
		c-0.651,1.159-1.272,2.334-1.863,3.525c-0.594,1.189-1.157,2.392-1.69,3.61c-0.535,1.218-1.038,2.448-1.508,3.69
		c-0.473,1.242-0.914,2.495-1.323,3.759c-0.409,1.266-0.786,2.541-1.133,3.823c-0.347,1.282-0.661,2.573-0.944,3.872
		c-0.28,1.299-0.528,2.604-0.746,3.916c-0.218,1.312-0.402,2.628-0.552,3.948c-0.154,1.32-0.273,2.643-0.359,3.969
		c-0.083,1.328-0.136,2.657-0.157,3.985c-0.019,1.328-0.005,2.656,0.041,3.985c0.048,1.328,0.128,2.655,0.238,3.981
		c0.113,1.323,0.258,2.643,0.435,3.961c0.177,1.318,0.388,2.63,0.633,3.936c3.989,21.533,16.084,40.21,34.701,51.894
		c21.388,13.426,46.252,15.766,70.479,10.119c28.389-12.003,53.753-29.789,65.796-59.597c6.727-16.653,6.873-34.657-0.234-51.225
		C3213.888,891.937,3198.796,878.991,3180.518,872.094z M3198.865,975.584c-0.734,1.073-1.496,2.127-2.287,3.162
		c-0.788,1.033-1.602,2.045-2.444,3.037c-0.839,0.995-1.703,1.965-2.593,2.912c-0.893,0.949-1.807,1.874-2.742,2.775
		c-0.938,0.901-1.898,1.777-2.88,2.63c-0.984,0.852-1.988,1.679-3.013,2.481c-1.024,0.799-2.069,1.572-3.134,2.319
		c-1.065,0.748-2.148,1.467-3.251,2.158c-1.103,0.694-2.221,1.358-3.355,1.992c-1.135,0.635-2.285,1.24-3.452,1.815
		c-1.167,0.576-2.347,1.12-3.541,1.634c-1.194,0.516-2.4,1-3.618,1.452c-1.221,0.454-2.451,0.877-3.69,1.266
		c-1.242,0.39-2.492,0.747-3.751,1.073c-1.258,0.328-2.525,0.622-3.799,0.883c-1.275,0.261-2.554,0.489-3.839,0.686
		c-1.318,0.218-2.64,0.401-3.969,0.548c-1.328,0.148-2.659,0.262-3.993,0.343c-1.334,0.081-2.669,0.128-4.005,0.141
		c-1.336,0.011-2.671-0.012-4.005-0.068c-1.337-0.056-2.67-0.147-4.001-0.27c-1.328-0.126-2.654-0.285-3.977-0.476
		c-1.323-0.194-2.639-0.421-3.948-0.682c-1.312-0.261-2.615-0.555-3.908-0.883c-1.296-0.325-2.583-0.686-3.86-1.081
		c-1.277-0.393-2.543-0.819-3.799-1.279c-1.253-0.457-2.495-0.946-3.726-1.468c-1.229-0.522-2.444-1.076-3.646-1.662
		c-1.202-0.583-2.388-1.198-3.557-1.843c-1.169-0.645-2.322-1.32-3.456-2.025c-1.135-0.705-2.252-1.439-3.352-2.202
		c-1.097-0.761-2.174-1.55-3.231-2.367c-4.452-3.424-8.244-7.574-11.99-11.737c-3.19-5.227-5.8-11.176-8.603-16.641
		c-2.642-19.545-2.634-36.782,8.49-54.133c10.228-15.959,25.715-24.324,43.864-27.994c22.243-5.521,44.728-3.299,64.615,8.687
		c13.281,8.006,23.122,20.254,26.183,35.649C3212.969,943.372,3208.479,961.383,3198.865,975.584z"/>
	<path style="fill:#103355;" d="M3091.193,914.93c2.533-4.517,6.993-13.64,11.76-15.072c4.332-6.013,7.417-8.764,14.011-12.196
		l1.839-5.582c-18.149,3.67-33.636,12.035-43.864,27.994c-11.123,17.351-11.131,34.588-8.49,54.133
		c2.803,5.465,5.413,11.414,8.603,16.641c1.549-4.932,2.803-9.913,4.094-14.914C3083.344,949.724,3082.953,929.623,3091.193,914.93z
		"/>
	<path style="fill:#070809;" d="M3183.418,890.768c-19.887-11.986-42.372-14.209-64.615-8.687l-1.839,5.582
		c9.676,2.335,20.888,5.154,25.74,14.911c2.432,4.888,2.279,10.248,0.028,15.181c-2.137,4.695-6.917,9.296-11.958,10.873
		c-5.235,1.637-9.93,1.343-14.737-1.48c-9.361-5.489-11.603-17.516-13.083-27.288c-4.767,1.432-9.228,10.555-11.76,15.072
		c-8.24,14.693-7.848,34.794-12.047,51.003c-1.291,5.001-2.545,9.982-4.094,14.914c3.747,4.162,7.538,8.312,11.99,11.737
		c1.057,0.817,2.134,1.607,3.231,2.367c1.1,0.764,2.217,1.498,3.352,2.202c1.135,0.704,2.287,1.379,3.456,2.025
		c1.169,0.645,2.355,1.26,3.557,1.843c1.202,0.586,2.417,1.14,3.646,1.662c1.231,0.522,2.473,1.011,3.726,1.468
		c1.256,0.46,2.522,0.886,3.799,1.279c1.277,0.395,2.564,0.755,3.86,1.081c1.293,0.328,2.596,0.622,3.908,0.883
		c1.31,0.261,2.626,0.488,3.948,0.682c1.323,0.191,2.648,0.35,3.977,0.476c1.331,0.124,2.664,0.214,4.001,0.27
		c1.334,0.056,2.669,0.079,4.005,0.068c1.336-0.013,2.671-0.06,4.005-0.141c1.333-0.081,2.665-0.195,3.993-0.343
		c1.328-0.148,2.651-0.331,3.969-0.548c1.285-0.196,2.565-0.425,3.839-0.686c1.274-0.261,2.541-0.555,3.799-0.883
		c1.259-0.325,2.509-0.683,3.751-1.073c1.239-0.39,2.47-0.812,3.69-1.266c1.218-0.452,2.424-0.936,3.618-1.452
		c1.194-0.513,2.374-1.058,3.541-1.634c1.167-0.575,2.318-1.18,3.452-1.815c1.135-0.634,2.253-1.299,3.355-1.992
		c1.102-0.691,2.186-1.41,3.251-2.158c1.065-0.747,2.109-1.52,3.134-2.319c1.025-0.801,2.029-1.628,3.013-2.481
		c0.981-0.852,1.941-1.729,2.88-2.63c0.936-0.901,1.85-1.826,2.742-2.775c0.89-0.947,1.755-1.917,2.593-2.912
		c0.842-0.992,1.656-2.005,2.444-3.037c0.791-1.035,1.553-2.089,2.287-3.162c9.615-14.201,14.104-32.213,10.736-49.168
		C3206.54,911.022,3196.699,898.773,3183.418,890.768z"/>
	<path style="fill:#FEFEFE;" d="M3102.953,899.858c1.48,9.772,3.723,21.799,13.083,27.288c4.807,2.823,9.502,3.117,14.737,1.48
		c5.042-1.577,9.821-6.179,11.958-10.873c2.251-4.932,2.404-10.292-0.028-15.181c-4.852-9.756-16.064-12.575-25.74-14.911
		C3110.37,891.094,3107.285,893.845,3102.953,899.858z"/>
	<path style="fill:#FBDC93;" d="M2858.208,708.466c-67.313,53.356-109.608,135.852-104.756,222.681
		c2.15,38.484,13.438,77.533,43.578,103.369c1.31,1.14,2.646,2.246,4.009,3.319c1.363,1.076,2.752,2.116,4.166,3.122
		c1.414,1.005,2.853,1.976,4.315,2.912c1.463,0.936,2.947,1.834,4.453,2.694c1.505,0.863,3.033,1.689,4.582,2.476
		c1.546,0.785,3.111,1.534,4.695,2.246c1.583,0.71,3.183,1.381,4.799,2.013c1.616,0.629,3.246,1.219,4.892,1.771
		c1.648,0.554,3.307,1.065,4.977,1.533c1.67,0.471,3.352,0.899,5.046,1.287c1.691,0.387,3.39,0.733,5.098,1.036
		c1.71,0.304,3.425,0.566,5.146,0.786c1.723,0.218,3.45,0.394,5.179,0.529c1.731,0.134,3.464,0.226,5.198,0.274
		c1.734,0.051,3.47,0.058,5.207,0.02c1.734-0.035,3.467-0.113,5.198-0.234c23.412-1.839,35.455-15.402,55.923-22.396
		c29.877-29.902,58.512-63.356,83.562-97.412c17.423-23.682,30.95-51.652,52.991-71.519c51.378-46.32,117.15-12.886,174.029-1.226
		c38.488,7.893,81.542,13.487,120.869,13.58c33.555,0.076,65.607-14.685,97.904-22.388c-4.073-2.073-62.021-70.394-74.484-82.612
		c-18.508-18.149-38.806-32.752-61.17-45.831c-101.36-59.273-227.863-69.526-342.746-63.884
		c-22.219,1.091-46.147-0.257-67.716,5.438c-0.601,0.796-1.178,1.612-1.807,2.387C2899.313,689.26,2873.42,696.406,2858.208,708.466
		z M2913.566,791.825c1.046-1.702,2.135-3.377,3.267-5.025c1.129-1.648,2.299-3.267,3.509-4.856c1.212-1.59,2.463-3.148,3.75-4.676
		c32.757-38.657,78.396-53.359,127.435-57.152c47.244-3.331,105.486,3.839,150.488,19.143c20.097,6.835,57.984,20.445,66.889,40.971
		c3.162,7.286,4.549,18.976,0.387,26.117c-2.952,5.062-8.929,9.284-14.552,10.651c-15.931,3.868-33.422,2.291-49.692,2.315
		c-49.26,0.068-105.276-4.929-152.96,8.014c-44.38,14.305-80.38,61.356-121.151,66.833c-8.756,1.178-18.778,0.625-25.626-5.667
		c-6.038-5.549-8.26-14.229-9.079-22.085c-0.188-1.99-0.328-3.982-0.419-5.977c-0.089-1.998-0.129-3.995-0.121-5.993
		c0.008-1.998,0.067-3.994,0.177-5.989c0.107-1.998,0.264-3.99,0.472-5.977c0.207-1.987,0.464-3.967,0.77-5.941
		c0.307-1.976,0.661-3.943,1.065-5.901c0.403-1.958,0.856-3.903,1.359-5.836c0.5-1.936,1.049-3.857,1.646-5.763
		c0.594-1.909,1.237-3.801,1.928-5.675c0.691-1.877,1.428-3.733,2.21-5.57c0.782-1.84,1.609-3.659,2.48-5.456
		c0.874-1.798,1.792-3.572,2.755-5.324C2911.513,795.254,2912.517,793.527,2913.566,791.825z"/>
	<path style="fill:#E9CFA2;" d="M2907.799,802.33c-0.871,1.798-1.698,3.617-2.48,5.456c-0.782,1.836-1.519,3.693-2.21,5.57
		c-0.691,1.874-1.333,3.766-1.928,5.675c-0.597,1.906-1.146,3.827-1.646,5.763c-0.503,1.933-0.956,3.878-1.359,5.836
		c-0.404,1.957-0.758,3.924-1.065,5.901c-0.306,1.973-0.563,3.954-0.77,5.941c-0.207,1.987-0.364,3.979-0.472,5.977
		c-0.11,1.995-0.17,3.991-0.177,5.989c-0.008,1.998,0.032,3.995,0.121,5.993c0.091,1.995,0.231,3.987,0.419,5.977
		c0.819,7.857,3.041,16.536,9.079,22.085c6.848,6.292,16.871,6.844,25.626,5.667c40.771-5.477,76.77-52.527,121.151-66.833
		c47.684-12.943,103.699-7.945,152.96-8.014c16.27-0.024,33.761,1.553,49.692-2.315c5.622-1.367,11.599-5.59,14.552-10.651
		c4.162-7.14,2.775-18.83-0.387-26.117c-8.905-20.526-46.792-34.136-66.889-40.971c-45.001-15.304-103.244-22.474-150.488-19.143
		c-49.039,3.793-94.677,18.495-127.435,57.152c-1.288,1.528-2.538,3.086-3.75,4.676c-1.21,1.59-2.38,3.208-3.509,4.856
		c-1.132,1.648-2.221,3.323-3.267,5.025c-1.049,1.702-2.053,3.429-3.013,5.181C2909.591,798.758,2908.673,800.532,2907.799,802.33z"
		/>
	<path style="fill:#EEEAE2;" d="M2785.083,3321.043c-38.339,28.341-79.521,51.942-118.263,79.452
		c-29.349,51.204-393.112,206.984-410.071,234.909c-3.614,5.953-4.675,12.773-2.771,19.504c2.561,9.042,9.836,16.507,17.879,21.016
		c33.725,18.903,135.343-9.881,174.073-20.532c331.022-91.052,714.353-278.128,950.448-532.004
		c62.953-67.696,116.836-144.535,164.128-223.798c37.246-62.425,70.241-130.988,96.375-198.8
		c8.765-22.593,17.229-45.3,25.393-68.119c4.666-13.378,8.437-31.818,15.64-43.808c0.452-0.75,0.924-1.484,1.387-2.23
		c0.48-0.875,1.113-1.686,1.432-2.634c5.69-16.79,3.908-51.213,5.11-70.043c3.497-54.802-3.25-110.83-12.083-164.87
		c-5.65-34.576-11.148-69.833-19.73-103.817c-29.272-115.928-89.483-235.324-151.912-336.858c-0.105,0.964-0.238,1.92-0.315,2.884
		c-1.093,13.874,41.723,135.351,48.837,164.801c42.154,174.444,25.86,357.488-61.993,515.582
		c-28.119,50.592-61.267,96.335-103.78,135.855c-44.615,41.472-107.446,79.485-164.922,100.247
		C3142.446,3018.164,2956.023,3194.678,2785.083,3321.043z"/>
	<path style="fill:#B4B3C3;" d="M3682.274,2632.671c-8.163,22.819-16.627,45.526-25.393,68.119
		c-26.135,67.813-59.129,136.376-96.375,198.8c-47.292,79.263-101.175,156.102-164.128,223.798
		c-236.095,253.877-619.426,440.953-950.448,532.004c-38.73,10.651-140.349,39.436-174.073,20.532
		c-8.042-4.509-15.318-11.974-17.879-21.016c-1.904-6.731-0.843-13.552,2.771-19.504c16.959-27.925,380.722-183.705,410.071-234.909
		c-73.383,40.928-146.402,81.711-222.281,117.896c-175.033,83.473-374.443,152.504-565.104,186.346
		c10.042,22.457,20.77,40.416,40.113,56.161c6.34,5.158,13.737,9.494,19.549,15.193c28.921,9.599,211.553,8.417,254.873,7.921
		c47.022-1.799,93.375-5.445,140.232-9.68c121.603-18.298,240.575-48.256,358.096-83.985c46.945-13.745,92.536-31.6,138.287-48.809
		c12.128-6.421,26.836-10.825,39.67-15.866c27.643-10.861,55.153-21.529,82.167-33.918c27.479-12.629,54.555-26.07,81.227-40.323
		c26.672-14.25,52.895-29.288,78.666-45.114c25.772-15.826,51.046-32.409,75.823-49.749s49.012-35.407,72.705-54.201
		c254.925-202.882,402.146-494.488,438.46-815.734c-0.464,0.746-0.936,1.48-1.387,2.23
		C3690.711,2600.854,3686.94,2619.293,3682.274,2632.671z"/>
	<path style="fill:#070809;" d="M2788.668,2321.73c96.714-17.859,187.81-29.123,284.815-4.558
		c58.037,18.246,109.205,48.994,137.654,104.918c4.803,9.437,9.199,19.117,13.612,28.74c41.965,90.047,39.928,210.613,6.36,303.504
		c-41.945,116.073-128.342,224.544-241.402,277.341c-20.428,9.539-63.478,25.925-85.853,17.762c-3.73-1.363-4.448-2.485-6.505-5.63
		c7.449-28.542,59.783-92.947,58.94-116.513l-1.888,3.287l-1.549-1.113l0.371,2.718c-43.904,71.858-101.473,130.044-180.095,163.466
		c-12.285,5.223-24.941,11.091-38.008,14.067c-6.788,1.545-15.814,3.049-22.21-0.649c-4.311-2.492-5.755-5.937-6.993-10.47
		c4.67-22.944,44.82-72.895,57.448-101.542c-15.665,16.273-26.167,37.137-41.315,54.125c-43.65,48.946-117.96,91.003-184.668,92.548
		c-9.429,0.218-17.367,0.036-25.489-5.054c-1.577-2.492-3.331-3.69-2.61-6.796c3.569-15.306,42.34-54.35,54.04-70.81
		c-66.732,56.105-151.141,103.934-241.725,96.21c-11.547-0.988-23.707-2.186-31.6-11.507c-2.101-6.078-1.521-9.998,1.363-15.576
		c11.595-22.44,33.386-44.042,49.591-63.505c-2.014,1.648-4.048,3.271-6.102,4.868c-2.057,1.597-4.131,3.168-6.223,4.715
		c-2.094,1.546-4.208,3.065-6.34,4.557c-2.132,1.495-4.282,2.963-6.449,4.404c-2.167,1.438-4.352,2.852-6.554,4.239
		c-2.202,1.385-4.422,2.744-6.659,4.078c-2.237,1.331-4.49,2.634-6.76,3.908c-2.267,1.275-4.551,2.522-6.852,3.743
		c-2.299,1.218-4.613,2.408-6.941,3.569c-2.329,1.162-4.672,2.294-7.03,3.396c-2.358,1.105-4.728,2.179-7.11,3.222
		c-2.385,1.046-4.782,2.062-7.191,3.049c-2.406,0.984-4.826,1.938-7.26,2.864c-2.434,0.927-4.877,1.823-7.333,2.686
		c-2.455,0.866-4.919,1.701-7.393,2.505c-2.476,0.804-4.962,1.577-7.457,2.319c-2.493,0.742-4.996,1.453-7.51,2.134
		c-2.511,0.68-5.031,1.33-7.558,1.948c-2.53,0.618-5.065,1.205-7.606,1.759c-2.543,0.557-5.094,1.081-7.651,1.573
		c-2.554,0.492-5.115,0.952-7.683,1.38c-2.565,0.43-5.137,0.826-7.716,1.19c-2.576,0.365-5.157,0.699-7.743,1
		c-2.584,0.302-5.172,0.57-7.764,0.807c-2.592,0.236-5.187,0.441-7.784,0.613c-2.597,0.172-5.196,0.313-7.796,0.424
		c-2.6,0.108-5.201,0.183-7.804,0.226c-2.603,0.043-5.205,0.055-7.808,0.036c-2.603-0.021-5.204-0.075-7.804-0.161
		c-2.6-0.083-5.2-0.2-7.8-0.351c-2.597-0.151-5.193-0.332-7.788-0.545c-2.595-0.215-5.186-0.461-7.772-0.738
		c-11.894-1.246-29.547-2.722-37.629-12.519c-3.178-3.852-3.384-8.494-2.42-13.184c3.073-14.979,41.896-51.317,53.866-63.368
		c-61.062,40.614-138.606,48.474-209.863,34.04c-11.216-2.274-27.57-6.219-34.435-16.148c-3.057-4.425-3.497-8.78-2.093-13.858
		c4.703-17.064,49.983-48.531,64.603-58.996c-18.992,8.606-38.774,22.202-58.424,28.119c-31.148,9.381-106.14,4.699-136.19-7.328
		c-7.239-2.896-15.14-7.401-18.762-14.636c-3.118-6.239-1.815-12.132,0.907-18.149c6.03-13.329,16.866-25.671,25.739-37.234
		c-38.778,21.19-82.429,32.741-126.003,19.181c-4.565-1.424-9.01-3.638-13.317-5.691c-6.36,6.138-11.991,12.297-17.383,19.302
		c35.124,10.022,69.011,12.874,105.547,12.378c1.488,15.673,4.199,26.195,16.983,36.363c28.764,22.88,79.106,16.701,113.649,22.283
		c9.236-0.076,18.855-0.903,27.792,1.702c-0.754,10.942-3.464,25.28,4.961,33.915c24.699,25.312,122.53,23.88,156.174,20.867
		c12.019-1.077,24.13-2.343,36.084-3.985c-15.394,15.814-32.41,29.756-48.28,45.054c-11.97,11.539-23.545,25.413-36.359,35.838
		c-45.062,42.828-90.447,84.026-138.042,123.99c-39.795,41.569-105.506,93.508-153.609,125.692
		c-102.333,68.47-307.279,179.954-432.245,183.366c-8.917,0.242-17.863,0.089-26.784-0.061
		c-8.905-8.954-12.047-14.898-14.967-26.982c-4.618,10.623-9.703,32.519-18.818,38.815c1.718,7.99,5.021,11.176,11.757,15.681
		c7.574,5.07,15.838,9.256,23.9,13.499c29.24,9.252,57.637,20.896,86.954,29.914c32.633,9.857,65.662,18.14,99.086,24.848
		c33.424,6.708,67.091,11.812,101.001,15.31c26.802,2.871,53.674,4.657,80.618,5.356c14.455,0.468,30.131-0.355,44.401,1.521
		c81.715-0.061,163.236-10.494,243.322-26.264c190.661-33.842,390.071-102.873,565.104-186.346
		c75.879-36.185,148.899-76.968,222.281-117.896c38.742-27.51,79.924-51.112,118.263-79.452
		c170.94-126.366,357.363-302.879,454.863-493.262c10.534-24.073,19.471-48.725,26.808-73.959
		c31.204-104.829,35.979-231.013-17.964-329.405c-40.605-74.064-98.666-113.895-178.566-137.037
		C2985.565,2268.654,2868.427,2288.485,2788.668,2321.73z M1388.729,3667.677c-13.821-3.005-27.8-5.082-41.456-8.865
		c-24.662-6.836-48.966-16.193-72.947-25.074c26.482-3.15,52.475-6.679,78.238-13.894c100.852-28.24,262.592-111.35,342.166-180.679
		c38.371-31.446,77.952-61.191,115.411-93.794c60.263-52.439,116.868-109.035,173.279-165.555
		c20.163-21.034,40.872-41.517,62.126-61.448c6.598,14.939,13.249,22.92,28.615,29.192c36.31,14.822,105.361,5.618,142.607-4.896
		c15.443-4.36,35.383-14.495,51.325-14.027c0.359,5.178-2.815,8.163-6.042,11.994c-21.908,26.054-49.595,47.28-71.277,73.77
		c-22.307,22.751-45.05,49.482-70.652,68.341c-14.721,25.679-45.336,49.716-66.784,70.007
		c-128.467,121.518-294.365,237.462-466.817,284.395c-37.371,10.172-75.867,17.992-113.976,24.981
		c-15.435,2.831-41.565,1.278-54.859,7.417c26.687,5.307,57.282,2.041,84.232-0.698c130.745-13.285,252.493-61.973,361.145-134.67
		c36.096-24.155,69.083-50.797,102.046-79.009c84.232-72.846,162.752-154.194,236.191-237.785
		c22.61-25.425,51.019-49.244,70.023-77.258c7.227,15.172,12.648,24.279,29.442,30.236c46.155,16.374,117.222-7.014,161.667-21.993
		c-18.544,24.292-36.366,50.817-56.734,73.503c-40.807,51.422-121.651,151.799-172.94,185.761
		c-15.717,23.275-41.598,45.05-62.405,64.05c-123.284,112.564-275.712,183.083-438.807,214.804
		C1619.746,3708.227,1498.801,3691.594,1388.729,3667.677z M2211.368,3573.327c-108.285,41.259-230.953,79.832-344.848,100.977
		c-37.562,7.071-75.426,11.652-113.593,13.741l2.549-0.791c34.237-10.333,70.362-12.531,104.599-22.501
		c40.682-11.845,81.913-24.699,120.771-41.719c91.895-40.255,198.784-111.342,262.605-190.089
		c31.075-33.176,62.142-67.099,90.463-102.655c28.446-35.717,54.681-73.213,82.372-109.519
		c17.988-22.92,49.095-70.689,73.023-84.583c0.69,1,1.396,1.984,2.073,2.993c7.824,11.684,13.592,17.621,27.712,20.843
		c48.869,11.156,128.015-27.784,168.435-53.209c3.102,5.211,6.514,10.284,9.772,15.398c-0.161,14.459-36.604,63.647-46.933,75.799
		c-40.226,54.439-111.128,145.898-161.244,189.698c-35.096,51.136-124.679,116.219-178.365,144.224
		C2278.959,3548.527,2244.839,3560.574,2211.368,3573.327z M2980.834,3093.93c-26.324,26.651-53.552,57.109-85.022,77.722
		c-14.447,33.398-168.435,148.128-203.991,171.299c-15.495,10.103-31.515,18.31-48.397,25.796
		c39.759-35.084,77.589-72.068,110.899-113.464c23.969-31.942,43.957-67.313,67.127-99.973c1.565-4.069,3.23-7.711,3.702-12.075
		c-4.868,5.215-9.063,10.918-13.374,16.596c-30.987,43.09-63.409,89.709-100.505,127.713
		c-10.317,17.355-28.942,32.785-43.876,46.413c-9.938,8.934-20.085,17.625-30.442,26.07c-10.354,8.446-20.907,16.636-31.66,24.574
		c-10.75,7.934-21.685,15.607-32.805,23.017c-11.121,7.41-22.412,14.549-33.874,21.416c-11.465,6.867-23.088,13.453-34.87,19.758
		c-11.779,6.308-23.705,12.328-35.778,18.06c-12.07,5.73-24.271,11.168-36.604,16.314c-12.333,5.144-24.784,9.987-37.351,14.531
		c36.661-26.711,69.635-58.194,101.743-90.148c12.571-12.515,26.328-31.652,40.452-41.291
		c47.458-54.778,84.163-117.775,127.636-175.489c11.196-22.061,26.715-43.283,39.972-64.207c2.108,0.344,4.221,0.659,6.34,0.944
		c47.179,6.187,125.24-45.183,161.72-72.648c5.755,8.022,11.317,13.531,20.759,17.113c51.184,19.416,120.788-37.238,165.063-57.028
		l3.682-1.625C3042.154,3036.753,3006.025,3078.475,2980.834,3093.93z"/>
	<path style="fill:#372617;" d="M2643.424,3368.747c16.883-7.485,32.902-15.693,48.397-25.796
		c35.556-23.17,189.544-137.901,203.991-171.299c-22.182,13.104-126.826,81.078-141.49,83.631
		C2721.013,3296.679,2683.182,3333.663,2643.424,3368.747z"/>
	<path style="fill:#624727;" d="M2821.45,3155.311c-23.17,32.66-43.158,68.031-67.127,99.973
		c14.664-2.553,119.308-70.527,141.49-83.631c31.47-20.613,58.698-51.071,85.022-77.722
		C2962.698,3091.93,2852.69,3146.704,2821.45,3155.311z"/>
	<path style="fill:#372617;" d="M2654.176,3318.285c-29.302,15.259-59.487,28.505-90.556,39.739
		c-8.526,3.025-18.419,7.61-27.413,8.236c-14.124,9.639-27.881,28.776-40.452,41.291c-32.108,31.955-65.083,63.437-101.743,90.148
		c12.567-4.544,25.017-9.387,37.351-14.531c12.333-5.146,24.535-10.584,36.604-16.314c12.073-5.732,23.998-11.752,35.778-18.06
		c11.782-6.305,23.406-12.891,34.87-19.758c11.462-6.867,22.753-14.006,33.874-21.416c11.121-7.41,22.056-15.083,32.805-23.017
		c10.752-7.938,21.305-16.128,31.66-24.574c10.357-8.445,20.505-17.136,30.442-26.07c14.935-13.628,33.56-29.058,43.876-46.413
		l-1.746,0.819C2690.635,3297.381,2672.7,3308.521,2654.176,3318.285z"/>
	<path style="fill:#372617;" d="M2405.7,3221.869c20.368-22.686,38.19-49.212,56.734-73.503
		c-44.445,14.979-115.512,38.367-161.667,21.993c-16.794-5.957-22.215-15.064-29.442-30.236
		c-19.004,28.014-47.413,51.833-70.023,77.258c34.451,1.843,68.914,5.057,103.421,5.4
		C2338.315,3223.115,2372.156,3220.703,2405.7,3221.869z"/>
	<path style="fill:#372617;" d="M2262.052,3140.63c3.227-3.832,6.4-6.816,6.042-11.994c-15.943-0.468-35.883,9.667-51.325,14.027
		c-37.246,10.514-106.297,19.718-142.607,4.896c-15.366-6.271-22.017-14.253-28.615-29.192
		c-21.255,19.931-41.963,40.415-62.126,61.448c69.866,19.557,134.331,32.697,207.355,34.584
		C2212.457,3187.91,2240.145,3166.684,2262.052,3140.63z"/>
	<path style="fill:#372617;" d="M2650.369,3198.013c10.329-12.152,46.772-61.34,46.933-75.799
		c-3.259-5.114-6.671-10.188-9.772-15.398c-40.42,25.425-119.566,64.365-168.435,53.209c-14.12-3.222-19.888-9.159-27.712-20.843
		c-0.678-1.008-1.383-1.992-2.073-2.993c-23.928,13.894-55.036,61.663-73.023,84.583c45.449-1.452,90.019-3.513,135.206-9.059
		C2581.564,3208.023,2621.008,3195.714,2650.369,3198.013z"/>
	<path style="fill:#372617;" d="M2892.634,3071.97c-9.442-3.582-15.003-9.091-20.759-17.113
		c-36.48,27.466-114.541,78.835-161.72,72.648c-2.119-0.285-4.232-0.6-6.34-0.944c-13.257,20.924-28.776,42.146-39.972,64.207
		c26.683-3.009,53.838-8.377,79.86-14.959c21.125-5.344,46.719-15.374,68.075-15.979c4.311-5.678,8.506-11.381,13.374-16.596
		c-0.472,4.364-2.138,8.006-3.702,12.075c31.24-8.607,141.248-63.381,159.385-61.38c25.191-15.455,61.319-57.177,80.545-80.614
		l-3.682,1.625C3013.422,3034.732,2943.818,3091.386,2892.634,3071.97z"/>
	<path style="fill:#624727;" d="M2663.844,3190.77c-43.473,57.714-80.178,120.711-127.636,175.489
		c8.994-0.625,18.887-5.211,27.413-8.236c31.068-11.234,61.254-24.48,90.556-39.739c18.524-9.764,36.459-20.904,55.35-29.922
		l1.746-0.819c37.096-38.004,69.519-84.623,100.505-127.713c-21.355,0.605-46.95,10.635-68.075,15.979
		C2717.682,3182.393,2690.527,3187.761,2663.844,3190.77z"/>
	<path style="fill:#372617;" d="M1665.772,3043.396c35.891,17.605,73.544,32.454,108.797,51.184
		c-26.546,24.537-58.577,48.393-81.739,75.948l1.972,3.416c27.195-25.921,54.556-52.067,83.001-76.601
		c39.484,23.812,79.924,44.413,123.543,59.698c22.198,7.776,51.68,11.486,71.515,23.013c12.813-10.426,24.388-24.3,36.359-35.838
		c15.87-15.298,32.886-29.24,48.28-45.054c-11.954,1.641-24.066,2.908-36.084,3.985c-33.644,3.013-131.476,4.445-156.174-20.867
		c-8.425-8.635-5.715-22.973-4.961-33.915c-8.937-2.605-18.556-1.779-27.792-1.702c-34.544-5.582-84.885,0.597-113.649-22.283
		c-12.785-10.167-15.495-20.69-16.983-36.363c-36.536,0.496-70.422-2.355-105.547-12.378l-20.714,25.78
		c4.791,0.23,9.478,0.71,13.947,2.589C1615.536,3014.922,1640.348,3030.925,1665.772,3043.396z"/>
	<path style="fill:#372617;" d="M2489.125,3387.711c-75.298,24.985-163.97,67.857-245.673,45.235
		c-63.82,78.747-170.71,149.834-262.605,190.089c-38.859,17.02-80.09,29.873-120.771,41.719
		c-34.237,9.97-70.362,12.168-104.599,22.501l-2.549,0.791c38.167-2.089,76.031-6.67,113.593-13.741
		c113.895-21.146,236.562-59.718,344.848-100.977c33.471-12.753,67.591-24.8,99.392-41.392
		C2364.445,3503.929,2454.029,3438.847,2489.125,3387.711z"/>
	<path style="fill:#624727;" d="M2489.125,3387.711c50.116-43.8,121.018-135.259,161.244-189.698
		c-29.361-2.299-68.805,10.01-98.876,13.7c-45.187,5.546-89.757,7.606-135.206,9.059c-27.691,36.306-53.927,73.802-82.372,109.519
		c-28.321,35.556-59.388,69.479-90.463,102.655C2325.155,3455.568,2413.827,3412.696,2489.125,3387.711z"/>
	<path style="fill:#624727;" d="M2007.817,3460.718c89.084,6.913,145.91-19.141,224.943-53.088
		c51.289-33.963,132.133-134.339,172.94-185.761c-33.543-1.166-67.385,1.246-100.977,0.912c-34.507-0.343-68.97-3.557-103.421-5.4
		c-73.439,83.591-151.96,164.938-236.191,237.785c1.133,0.508,2.23,1.101,3.4,1.524
		C1978.887,3460.464,1996.593,3459.847,2007.817,3460.718z"/>
	<path style="fill:#624727;" d="M2002.812,3365.964c40.73-25.59,78.222-55.375,117.311-83.223
		c25.602-18.859,48.345-45.591,70.652-68.341c-73.024-1.887-137.489-15.027-207.355-34.584
		c-56.411,56.52-113.016,113.117-173.279,165.555c-37.459,32.604-77.041,62.348-115.411,93.794c3.38,1.343,2.698,1.335,5.549,1.771
		C1805.318,3456.963,1914.313,3421.565,2002.812,3365.964z"/>
	<path style="fill:#372617;" d="M1248.966,3613.102c124.966-3.412,329.913-114.896,432.245-183.366
		c48.103-32.184,113.814-84.123,153.609-125.692c-1.319,0.371-2.646,0.71-3.957,1.109c-20.98,6.385-51.975,31.285-70.632,43.537
		c-56.956,37.411-138.441,83.232-209.093,70.556c-28.619-5.134-54.133-17.403-81.666-25.74
		c-59.404,63.013-153.759,130.604-237.757,152.343c19.065-11.954,40.158-21.081,59.537-32.761
		c49.773-30.007,124.176-83.607,165.543-122.877c-24.421-4.868-49.055-8.998-73.29-14.749
		c-19.351-4.594-38.355-11.168-58.016-14.285c-31.942,55.064-63.336,109.987-91.741,166.987
		c-9.143,18.351-20.69,38.278-26.534,57.895c2.92,12.083,6.062,18.028,14.967,26.982
		C1231.103,3613.19,1240.049,3613.344,1248.966,3613.102z"/>
	<path style="fill:#070809;" d="M1692.83,3170.528c-54.022,51.169-108.382,101.979-163.079,152.427
		c-22.501,20.883-48.781,49.777-72.955,67.256c-41.368,39.271-115.771,92.871-165.543,122.877
		c-19.379,11.68-40.473,20.807-59.537,32.761c83.998-21.739,178.353-89.33,237.757-152.343
		c74.228-74.091,149.338-147.279,225.33-219.563L1692.83,3170.528z"/>
	<path style="fill:#624727;" d="M1777.804,3097.343c-28.445,24.533-55.806,50.68-83.001,76.601
		c-75.992,72.284-151.102,145.472-225.33,219.563c27.534,8.336,53.047,20.605,81.666,25.74
		c70.652,12.676,152.137-33.144,209.093-70.556c18.657-12.253,49.652-37.153,70.632-43.537c1.311-0.399,2.638-0.738,3.957-1.109
		c47.595-39.964,92.98-81.162,138.042-123.99c-19.835-11.527-49.317-15.237-71.515-23.013
		C1857.728,3141.755,1817.288,3121.154,1777.804,3097.343z"/>
	<path style="fill:#624727;" d="M1456.796,3390.211c24.174-17.479,50.454-46.373,72.955-67.256
		c54.697-50.449,109.057-101.258,163.079-152.427c23.162-27.554,55.193-51.41,81.739-75.948
		c-35.253-18.73-72.906-33.58-108.797-51.184c-25.425-12.47-50.237-28.474-76.23-39.387c-4.469-1.879-9.155-2.359-13.947-2.589
		c-39.194,42.916-72.677,93.584-105.716,141.308c-49.821,71.958-98.154,144.131-144.39,218.45
		c19.661,3.117,38.665,9.691,58.016,14.285C1407.741,3381.213,1432.376,3385.344,1456.796,3390.211z"/>
	<path style="fill:#372617;" d="M2232.76,3407.63c-79.033,33.947-135.86,60.001-224.943,53.088
		c-11.224-0.871-28.929-0.254-39.307-4.029c-1.17-0.424-2.267-1.016-3.4-1.524c-32.963,28.212-65.949,54.854-102.046,79.009
		c-108.652,72.697-230.4,121.385-361.145,134.67c-26.949,2.739-57.545,6.005-84.232,0.698c13.293-6.139,39.424-4.586,54.859-7.417
		c38.109-6.99,76.605-14.81,113.976-24.981c172.452-46.933,338.35-162.877,466.817-284.395
		c21.448-20.291,52.063-44.328,66.784-70.007c-39.089,27.848-76.581,57.633-117.311,83.223
		c-88.499,55.6-197.494,90.999-302.532,74.971c-2.851-0.436-2.17-0.427-5.549-1.771c-79.574,69.329-241.313,152.44-342.166,180.679
		c-25.764,7.215-51.757,10.744-78.238,13.894c23.981,8.881,48.285,18.238,72.947,25.074c13.656,3.783,27.635,5.86,41.456,8.865
		c110.072,23.917,231.017,40.549,342.819,18.807c163.095-31.72,315.523-102.24,438.807-214.804
		C2191.162,3452.68,2217.043,3430.906,2232.76,3407.63z"/>
	<path style="fill:#EEEAE2;" d="M1800.603,2956.188c113.069,15.636,205.064-35.697,292.179-100.844
		c-20.254,21.964-37.613,46.344-57.524,68.579c-24.921,27.833-72.798,67.684-89.713,97.892c20.956,0.488,41.832,0.383,62.699-1.823
		c77.279-8.167,159.474-46.478,217.272-98.122c20.803-18.585,38.198-39.492,55.721-61.07
		c-35.564,95.621-84.857,135.896-140.554,214.114c6.578-0.177,13.176-0.367,19.73-0.96c89.741-8.163,179.934-67.829,242.12-130.274
		c18.774-18.851,35.213-39.726,52.148-60.198c-16.6,41.896-38.476,82.505-61.457,121.207c-14.923,25.13-31.761,48.805-43.638,75.649
		l3.799,3.118c16.233,3.105,33.922-0.182,49.797-4.025c91.487-22.154,179.598-97.375,227.577-176.481
		c-8.308,61.707-29.728,114.045-52.403,171.282c109.564-52.898,163.644-83.655,223.556-194.485
		c-3.238,54.403-13.261,101.07-36.121,150.471c11.737-2.271,22.509-4.614,33.568-9.304c56.552-23.985,122.401-81.34,158.574-131.056
		c19.109-26.26,34.108-55.173,46.244-85.224c-4.932,62.437-29.917,118.057-44.63,178.094c42.566-22.202,84.179-50.87,121.155-81.541
		c66.627-55.27,118.292-153.719,137.989-237.627c7.276-30.999,9.978-62.638,10.768-94.407c0.714-28.817,1.726-58.125,0.202-86.926
		c-0.565-10.688-6.292-18.657-5.134-29.615c0.064-0.593,0.149-1.19,0.222-1.783c-4.412-9.623-8.808-19.303-13.612-28.74
		c-28.449-55.923-79.618-86.672-137.654-104.918c-14.354,9.385-66.986,14.62-87.031,18.577
		c-35.959,7.094-71.781,20.452-106.72,31.688c-114.331,36.754-226.532,77.206-339.04,119.114
		c-176.521,65.756-351.075,133.5-511.464,233.631c-55.326,34.54-107.144,69.914-152.827,116.888
		c-30.708,34.104-60.678,77.242-80.731,118.364C1797.311,2955.708,1798.955,2955.959,1800.603,2956.188z"/>
	<path style="fill:#E9CFA2;" d="M1753.013,2942.846c-8.873,11.563-19.71,23.904-25.739,37.234
		c-2.722,6.017-4.025,11.91-0.907,18.149c3.622,7.236,11.523,11.74,18.762,14.636c30.051,12.027,105.043,16.709,136.19,7.328
		c19.649-5.917,39.432-19.512,58.424-28.119c-14.62,10.466-59.9,41.932-64.603,58.996c-1.404,5.078-0.964,9.433,2.093,13.858
		c6.865,9.929,23.219,13.874,34.435,16.148c71.257,14.434,148.802,6.574,209.863-34.04c-11.97,12.051-50.793,48.389-53.866,63.368
		c-0.964,4.69-0.758,9.333,2.42,13.184c8.082,9.796,25.735,11.272,37.629,12.519c2.586,0.277,5.177,0.523,7.772,0.738
		c2.594,0.212,5.19,0.394,7.788,0.545c2.6,0.151,5.2,0.267,7.8,0.351c2.6,0.086,5.201,0.14,7.804,0.161
		c2.603,0.019,5.205,0.007,7.808-0.036c2.603-0.043,5.204-0.118,7.804-0.226c2.6-0.11,5.199-0.251,7.796-0.424
		c2.597-0.172,5.192-0.376,7.784-0.613c2.592-0.237,5.18-0.505,7.764-0.807c2.586-0.301,5.167-0.635,7.743-1
		c2.579-0.363,5.15-0.76,7.716-1.19c2.568-0.427,5.129-0.887,7.683-1.38c2.557-0.492,5.107-1.016,7.651-1.573
		c2.541-0.554,5.076-1.14,7.606-1.759c2.527-0.618,5.047-1.268,7.558-1.948c2.514-0.68,5.017-1.391,7.51-2.134
		c2.495-0.742,4.981-1.515,7.457-2.319c2.474-0.804,4.938-1.639,7.393-2.505c2.455-0.863,4.899-1.759,7.333-2.686
		c2.433-0.925,4.853-1.88,7.26-2.864c2.409-0.987,4.806-2.003,7.191-3.049c2.382-1.043,4.753-2.117,7.11-3.222
		c2.358-1.102,4.701-2.234,7.03-3.396c2.328-1.161,4.642-2.351,6.941-3.569c2.301-1.221,4.585-2.468,6.852-3.743
		c2.269-1.274,4.522-2.577,6.76-3.908c2.237-1.333,4.457-2.693,6.659-4.078c2.202-1.387,4.386-2.8,6.554-4.239
		c2.167-1.441,4.317-2.909,6.449-4.404c2.132-1.492,4.246-3.011,6.34-4.557c2.092-1.546,4.166-3.118,6.223-4.715
		c2.054-1.597,4.088-3.22,6.102-4.868c-16.205,19.464-37.996,41.065-49.591,63.505c-2.884,5.578-3.465,9.498-1.363,15.576
		c7.893,9.321,20.052,10.519,31.6,11.507c90.584,7.723,174.993-40.105,241.725-96.21c-11.7,16.459-50.471,55.504-54.04,70.81
		c-0.722,3.105,1.033,4.303,2.61,6.796c8.123,5.09,16.06,5.271,25.489,5.054c66.708-1.545,141.018-43.602,184.668-92.548
		c15.149-16.988,25.651-37.851,41.315-54.125c-12.628,28.647-52.777,78.597-57.448,101.542c1.238,4.533,2.682,7.978,6.993,10.47
		c6.396,3.698,15.423,2.194,22.21,0.649c13.067-2.976,25.723-8.844,38.008-14.067c78.622-33.422,136.19-91.608,180.095-163.466
		l-0.371-2.718l1.549,1.113l1.888-3.287c0.843,23.565-51.491,87.97-58.94,116.513c2.057,3.146,2.775,4.267,6.505,5.63
		c22.376,8.163,65.426-8.224,85.853-17.762c113.06-52.797,199.458-161.268,241.402-277.341
		c33.567-92.891,35.604-213.457-6.36-303.504c-0.073,0.593-0.157,1.19-0.222,1.783c-1.157,10.958,4.57,18.927,5.134,29.615
		c1.524,28.801,0.512,58.109-0.202,86.926c-0.79,31.769-3.493,63.409-10.768,94.407c-19.698,83.909-71.362,182.357-137.989,237.627
		c-36.976,30.672-78.589,59.339-121.155,81.541c14.713-60.037,39.698-115.658,44.63-178.094
		c-12.135,30.051-27.135,58.964-46.244,85.224c-36.173,49.716-102.022,107.071-158.574,131.056
		c-11.059,4.691-21.831,7.034-33.568,9.304c22.86-49.402,32.882-96.069,36.121-150.471
		c-59.912,110.83-113.992,141.587-223.556,194.485c22.674-57.238,44.094-109.576,52.403-171.282
		c-47.978,79.106-136.09,154.327-227.577,176.481c-15.875,3.844-33.564,7.131-49.797,4.025l-3.799-3.118
		c11.878-26.844,28.716-50.519,43.638-75.649c22.981-38.702,44.856-79.311,61.457-121.207
		c-16.935,20.472-33.374,41.348-52.148,60.198c-62.187,62.445-152.379,122.111-242.12,130.274c-6.554,0.593-13.152,0.782-19.73,0.96
		c55.697-78.218,104.99-118.493,140.554-214.114c-17.524,21.577-34.918,42.485-55.721,61.07
		c-57.798,51.644-139.993,89.955-217.272,98.122c-20.867,2.206-41.743,2.311-62.699,1.823c16.915-30.208,64.792-70.06,89.713-97.892
		c19.912-22.234,37.27-46.615,57.524-68.579c-87.115,65.147-179.111,116.48-292.179,100.844c-1.648-0.229-3.292-0.48-4.932-0.754
		c20.053-41.122,50.022-84.26,80.731-118.364c-2.077-0.214-4.15-0.811-6.231-0.637c-8.643,0.718-46.978,25.203-57.815,30.519
		c-20.125,9.865-43.642,17.476-65.135,23.751c-7.437,2.135-14.943,3.986-22.517,5.554c-7.577,1.565-15.201,2.843-22.872,3.835
		c-7.674,0.989-15.373,1.69-23.098,2.101c-7.725,0.409-15.455,0.526-23.19,0.351c-15.043,17.157-27.869,35.818-41.852,53.794
		c4.307,2.053,8.752,4.267,13.317,5.691C1670.584,2975.587,1714.234,2964.036,1753.013,2942.846z"/>
</g>
</svg>
