<?xml version="1.0" encoding="utf-8"?>
<!-- Generator: Adobe Illustrator 27.5.0, SVG Export Plug-In . SVG Version: 6.00 Build 0)  -->
<svg version="1.1" id="Layer_1" xmlns="http://www.w3.org/2000/svg" xmlns:xlink="http://www.w3.org/1999/xlink" x="0px" y="0px"
	 viewBox="0 0 500 500" style="enable-background:new 0 0 500 500;" xml:space="preserve">
<g>
	<g>
		<path style="fill:#D9CCB2;" d="M456.822,265.826c-7.978-6.041-10.85-10.17-19.106-13.043c8.256-2.873,11.128-7.003,19.106-13.044
			c28.521-21.598,14.953-42.643,14.953-42.643s-10.521,2.769-41.258,16.338c-30.736,13.567-20.317,27.884-52.611,27.967
			c0,0,2.453,6.394,5.307,11.382c-2.853,4.987-5.307,11.382-5.307,11.382c32.294,0.082,21.875,14.399,52.611,27.966
			c30.737,13.568,41.258,16.338,41.258,16.338S485.343,287.426,456.822,265.826z"/>
		<path style="fill:#D9CCB2;" d="M258.7,289.982c6.093,17.998,35.444,21.443,35.444,21.443s14.121-11.198,38.489-16.182
			c24.367-4.985,34.059-5.261,34.059-5.261s4.219-11.505-6.874-19.16C348.723,263.167,258.7,289.982,258.7,289.982z"/>
		<g>
			<path style="fill:#D9CCB2;" d="M164.64,206.984c0.24-0.521,0.484-1.035,0.733-1.542c11.644-23.708,32.827-31.653,32.827-31.653
				s14.202,18.375,34.405,19.04c20.203,0.665,20.203,0.665,20.203,0.665s3.865,0.53,3.951,18.46
				c0.086,17.931-47.126,20.922-63.883,9.954C176.12,210.943,153.179,231.891,164.64,206.984z"/>
			<path style="opacity:0.1;fill:#4D412A;" d="M174.28,196.49c5.734-10.695,23.676-17.237,23.676-17.237s-7.269,4.776-12.357,9.138
				C180.51,192.751,174.28,196.49,174.28,196.49z"/>
			<path style="opacity:0.1;fill:#4D412A;" d="M182.792,203.546c5.734-10.695,23.675-17.237,23.675-17.237
				s-7.269,4.776-12.356,9.137C189.023,199.808,182.792,203.546,182.792,203.546z"/>
			<path style="opacity:0.1;fill:#4D412A;" d="M195.731,208.842c5.733-10.695,23.675-17.237,23.675-17.237
				s-7.269,4.776-12.357,9.137C201.96,205.104,195.731,208.842,195.731,208.842z"/>
			<path style="opacity:0.1;fill:#4D412A;" d="M214.378,212.164c5.734-10.695,23.675-17.237,23.675-17.237
				s-7.268,4.776-12.356,9.137C220.608,208.426,214.378,212.164,214.378,212.164z"/>
			<path style="opacity:0.1;fill:#4D412A;" d="M229.363,212.591c5.734-10.695,23.675-17.237,23.675-17.237
				s-7.268,4.777-12.356,9.138C235.593,208.853,229.363,212.591,229.363,212.591z"/>
		</g>
		<g>
			<path style="fill:#D9CCB2;" d="M188.909,288.371c-4.15,17.548,7.912,39.421,25.585,37.75
				c17.673-1.672,16.479-15.189,6.687-20.252c-9.792-5.063-13.717-13.406-15.934-18.429
				C203.032,282.417,192.014,275.243,188.909,288.371z"/>
			<path style="opacity:0.2;fill:#B58324;" d="M192.832,307.782c5.462,14.093,20.566,16.048,20.566,16.048
				s-6.203-3.439-11.733-7.619C196.136,312.031,192.832,307.782,192.832,307.782z"/>
			<path style="opacity:0.2;fill:#B58324;" d="M200.637,305.455c5.462,14.093,20.566,16.048,20.566,16.048s-6.204-3.439-11.733-7.62
				C203.941,309.703,200.637,305.455,200.637,305.455z"/>
			<path style="opacity:0.2;fill:#B58324;" d="M205.913,302.186c5.462,14.093,20.566,16.048,20.566,16.048s-6.203-3.439-11.733-7.62
				C209.217,306.433,205.913,302.186,205.913,302.186z"/>
		</g>
		<path style="fill:#C1D2E8;" d="M25.273,255.261c13.095-27.196,95.87-58.979,187.908-58.149
			c92.037,0.83,182.999,37.382,193.383,44.858c10.383,7.477,5.83,20.353-5.799,26.167c-2.379,1.19-97.998,36.967-201.856,36.136
			C95.052,303.442,19.874,266.476,25.273,255.261z"/>
		<path style="opacity:0.1;fill:#8C5F00;" d="M411.271,230.895c18.83-17.168,53.58-26.306,53.58-26.306s-23.397,12.46-34.058,16.752
			C420.133,225.634,411.271,230.895,411.271,230.895z"/>
		<path style="opacity:0.1;fill:#8C5F00;" d="M419.441,237.347c14.985-13.662,42.642-20.936,42.642-20.936
			s-18.622,9.917-27.107,13.334C426.492,233.16,419.441,237.347,419.441,237.347z"/>
		<path style="opacity:0.1;fill:#8C5F00;" d="M421.551,245.181c14.985-13.664,42.642-20.936,42.642-20.936
			s-18.622,9.917-27.106,13.333C428.603,240.994,421.551,245.181,421.551,245.181z"/>
		<path style="opacity:0.1;fill:#8C5F00;" d="M410.026,271.3c18.829,17.167,53.58,26.305,53.58,26.305s-23.398-12.46-34.059-16.752
			C418.887,276.561,410.026,271.3,410.026,271.3z"/>
		<path style="opacity:0.1;fill:#8C5F00;" d="M418.194,264.847c14.985,13.663,42.642,20.936,42.642,20.936
			s-18.621-9.917-27.105-13.333C425.246,269.034,418.194,264.847,418.194,264.847z"/>
		<path style="opacity:0.1;fill:#8C5F00;" d="M420.305,257.013c14.985,13.664,42.642,20.936,42.642,20.936
			s-18.621-9.917-27.105-13.332C427.356,261.2,420.305,257.013,420.305,257.013z"/>
		<path style="opacity:0.3;fill:#769DCF;" d="M406.565,241.97c-10.384-7.476-101.346-44.027-193.383-44.858
			c-92.038-0.83-174.814,30.953-187.908,58.149c-0.189,0.395-0.255,0.828-0.247,1.284c16.734-10.491,71.418-40.174,160.956-44.829
			c76.037-3.954,170.787,25.193,226.152,42.168C412.669,249.575,411.124,245.253,406.565,241.97z"/>
		<path style="fill:#DEECFF;" d="M57.048,246.436c0,4.416-3.579,7.995-7.995,7.995c-4.416,0-7.995-3.579-7.995-7.995
			c0-4.416,3.579-7.996,7.995-7.996C53.468,238.439,57.048,242.02,57.048,246.436z"/>
		<path style="fill:#59616B;" d="M54.868,246.539c0,3.326-2.696,6.023-6.023,6.023c-3.326,0-6.023-2.697-6.023-6.023
			c0-3.326,2.696-6.023,6.023-6.023C52.171,240.516,54.868,243.213,54.868,246.539z"/>
		<path style="fill:#DEECFF;" d="M55.595,242.126c0,1.29-1.046,2.336-2.337,2.336c-1.29,0-2.336-1.046-2.336-2.336
			c0-1.29,1.046-2.336,2.336-2.336C54.549,239.79,55.595,240.836,55.595,242.126z"/>
		<path style="opacity:0.3;fill:#769DCF;" d="M36.696,259.104c-0.584,0.166-5.403,0.048-11.302-1.02
			c0.157,0.383,0.344,0.774,0.605,1.185l2.078,0.873C37.215,261.181,37.423,258.895,36.696,259.104z"/>
		<path style="opacity:0.2;fill:#FFFFFF;" d="M198.911,304.273c103.857,0.831,199.476-34.946,201.854-36.136
			c3.55-1.774,6.33-4.244,8.338-6.98c-23.528-0.607-54.26,0.034-90.592,3.519c-80.855,7.753-129.866-17.998-197.984-9.523
			c-52.509,6.533-70.15,10.598-90.818,8.124C47.355,278.411,113.385,303.589,198.911,304.273z"/>
		<path style="opacity:0.3;fill:#FFFFFF;" d="M198.911,304.273c103.857,0.831,199.476-34.946,201.854-36.136
			c3.245-1.622,5.86-3.821,7.832-6.273c-89.903,30.966-170.08,19.337-241.274,16.085c-43.69-1.997-66.656,5.367-93.339,6.668
			C104.943,294.961,148.533,303.87,198.911,304.273z"/>
		<path style="opacity:0.4;fill:#FFFFFF;" d="M25.667,257.988c13.094-27.196,95.869-58.98,187.907-58.149
			c92.038,0.83,182.999,37.381,193.383,44.858c3.057,2.201,4.685,4.888,5.353,7.707c0.015-3.805-1.711-7.527-5.746-10.434
			c-10.384-7.476-101.346-44.027-193.383-44.858c-92.038-0.83-174.814,30.953-187.908,58.149c-0.432,0.9-0.292,1.98,0.285,3.178
			C25.6,258.291,25.599,258.129,25.667,257.988z"/>
		<path style="opacity:0.4;fill:#FFFFFF;" d="M409.298,244.553c4.819,7.458,0.175,17.257-9.571,22.131
			c-2.379,1.189-97.997,36.966-201.856,36.135c-91.069-0.728-160.074-29.238-172.051-43.809
			c8.288,14.029,78.888,44.509,173.089,45.263c103.857,0.831,199.476-34.946,201.854-36.136
			C411.157,262.941,415.814,252.135,409.298,244.553z"/>
		<path style="opacity:0.1;fill:#FFFFFF;" d="M91.453,230.895c-24.299,7.676-45.966,21.044,24.644,0
			c70.61-21.045,159.771-6.65,159.771-6.65S197.505,197.39,91.453,230.895z"/>
		<path style="opacity:0.5;fill:#FFFFFF;" d="M87.023,220.762c-18.497,7.534-12.738,8.584,6.922,3.185
			C113.605,218.547,112.672,210.315,87.023,220.762z"/>
		<path style="opacity:0.4;fill:#FFFFFF;" d="M110.835,215.109c-0.31,4.061,11.87,2.112,10.523-1.7
			C120.01,209.596,111.251,209.666,110.835,215.109z"/>
		<path style="opacity:0.3;fill:#769DCF;" d="M70.339,227.335c0,0-6.819,9.859-2.163,17.128c4.656,7.269,5.382,5.483-1.627,14.787
			c-7.009,9.303,5.768,17.403,5.195,18.027c-0.573,0.623-5.349-11.423,0.05-17.238c5.4-5.814,7.04-14.936,2.586-17.54
			C69.924,239.894,70.339,227.335,70.339,227.335z"/>
		<path style="opacity:0.3;fill:#769DCF;" d="M82.845,222.373c0,0-6.82,11.818-2.164,20.53c4.656,8.712,5.383,6.573-1.626,17.723
			c-7.009,11.151,5.767,20.859,5.193,21.605c-0.573,0.747-5.349-13.69,0.051-20.659c5.399-6.969,7.04-17.903,2.585-21.024
			C82.43,237.427,82.845,222.373,82.845,222.373z"/>
		<path style="opacity:0.3;fill:#769DCF;" d="M96.515,277.579c5.649,15.928,33.427,15.991,31.35,6.023
			C125.788,273.633,93.2,268.233,96.515,277.579z"/>
		<path style="fill:#D9CCB2;" d="M94.715,273.287c5.648,15.928,33.427,15.992,31.35,6.023
			C123.989,269.341,91.401,263.942,94.715,273.287z"/>
		<path style="opacity:0.1;fill:#B58324;" d="M96.993,275.095c7.717,12.744,20.461,9.538,20.461,9.538s-6.224-0.443-11.931-3.102
			C99.814,278.874,96.993,275.095,96.993,275.095z"/>
		<path style="opacity:0.1;fill:#B58324;" d="M100.097,272.349c7.717,12.744,20.46,9.538,20.46,9.538s-6.223-0.443-11.931-3.1
			C102.919,276.128,100.097,272.349,100.097,272.349z"/>
		<path style="opacity:0.1;fill:#B58324;" d="M104.061,269.472c7.716,12.744,20.46,9.538,20.46,9.538s-6.224-0.444-11.931-3.102
			C106.882,273.251,104.061,269.472,104.061,269.472z"/>
		<path style="opacity:0.3;fill:#FFFFFF;" d="M126.176,226.821c-34.836,11.07-62.136,23.179,23.703,7.396
			c85.838-15.783,221.242,12.219,221.242,12.219s-40.158-20.123-114.363-24.063C182.552,218.434,126.176,226.821,126.176,226.821z"
			/>
	</g>
	<path style="opacity:0.2;fill:#769DCF;" d="M124.558,252.317c0,3.923-3.18,7.104-7.104,7.104s-7.104-3.181-7.104-7.104
		c0-3.924,3.181-7.105,7.104-7.105S124.558,248.393,124.558,252.317z"/>
	<path style="opacity:0.2;fill:#769DCF;" d="M171.744,247.621c0,3.923-3.181,7.104-7.104,7.104c-3.924,0-7.104-3.181-7.104-7.104
		c0-3.924,3.18-7.105,7.104-7.105C168.564,240.516,171.744,243.698,171.744,247.621z"/>
	<path style="opacity:0.2;fill:#769DCF;" d="M228.307,245.212c0,3.924-3.18,7.105-7.104,7.105c-3.924,0-7.104-3.182-7.104-7.105
		c0-3.924,3.181-7.104,7.104-7.104C225.127,238.107,228.307,241.288,228.307,245.212z"/>
	<path style="opacity:0.2;fill:#769DCF;" d="M275.868,247.621c0,3.923-3.181,7.104-7.104,7.104c-3.924,0-7.104-3.181-7.104-7.104
		c0-3.924,3.18-7.105,7.104-7.105C272.687,240.516,275.868,243.698,275.868,247.621z"/>
	<path style="opacity:0.2;fill:#769DCF;" d="M330.74,252.317c0,3.923-3.181,7.104-7.104,7.104c-3.924,0-7.104-3.181-7.104-7.104
		c0-3.924,3.18-7.105,7.104-7.105C327.559,245.212,330.74,248.393,330.74,252.317z"/>
</g>
</svg>
