<svg id="_0-seal" viewBox="0 0 64 64" xmlns="http://www.w3.org/2000/svg"><g><g><path d="m1 63c0-14.359 14.431-24 31-24s31 9.641 31 24z" fill="#918a91"/><path d="m50 63c0-11.046-8.059-16-18-16s-18 4.954-18 16z" fill="#c7bdc7"/></g><path d="m32 53c18 0 25-8 25-17s-4-12-4-12c0-6 0-23-21-23s-21 17-21 23c0 0-4 3-4 12s7 17 25 17z" fill="#aba2ab"/><g><circle cx="32" cy="37" fill="#e6294f" r="8"/><path d="m32 37c2 4 12 4 12-4s-12-6-12-6-12-2-12 6 10 8 12 4z" fill="#c7bdc7"/><path d="m36 26c0 2.209-1.791 4-4 4s-4-1.791-4-4c0-2 1.791-2 4-2s4 0 4 2z" fill="#47323b"/></g></g><g><path d="m56.68 46.778c-.403-.374-1.035-.354-1.413.052-.376.404-.353 1.037.052 1.413 4.108 3.817 6.396 8.557 6.656 13.757h-11.005c-.144-3.283-.996-6.158-2.552-8.546-.302-.462-.923-.592-1.384-.292-.463.302-.594.921-.292 1.384 1.345 2.063 2.095 4.567 2.234 7.454h-33.952c.14-2.887.89-5.391 2.234-7.454.302-.463.171-1.082-.292-1.384-.462-.301-1.083-.171-1.384.292-1.556 2.388-2.408 5.263-2.552 8.546h-11.005c.26-5.2 2.548-9.939 6.656-13.757.404-.376.428-1.009.052-1.413-.377-.406-1.01-.426-1.413-.052-4.788 4.45-7.32 10.059-7.32 16.222 0 .553.447 1 1 1h62c.553 0 1-.447 1-1 0-6.163-2.531-11.772-7.319-16.222z"/><path d="m41 22c1.159 0 2-1.262 2-3s-.841-3-2-3-2 1.262-2 3 .841 3 2 3z"/><path d="m23 22c1.159 0 2-1.262 2-3s-.841-3-2-3-2 1.262-2 3 .841 3 2 3z"/><path d="m23.528 40.039c1.269 3.547 4.641 5.961 8.472 5.961s7.203-2.414 8.472-5.961c2.853-1.11 4.528-3.661 4.528-7.039 0-4.145-2.835-6.654-8.008-7.135-.09-2.858-2.915-2.865-4.992-2.865s-4.901.006-4.992 2.865c-5.173.481-8.008 2.99-8.008 7.135 0 3.378 1.675 5.929 4.528 7.039zm8.472 3.961c-2.509 0-4.75-1.341-5.99-3.408 2.335.176 4.612-.556 5.99-1.924 1.244 1.235 3.221 1.963 5.312 1.963.224 0 .451-.022.677-.039-1.239 2.067-3.481 3.408-5.99 3.408zm0-19c2.705 0 3 .202 3 1 0 1.654-1.346 3-3 3s-3-1.346-3-3c0-.798.295-1 3-1zm-4.633 2.857c.74 1.838 2.534 3.143 4.633 3.143s3.894-1.305 4.633-3.143c4.208.345 6.366 2.061 6.366 5.143 0 4.043-2.862 5.155-4.093 5.446-2.457.578-5.21-.287-6.013-1.894-.34-.678-1.449-.678-1.789 0-.803 1.605-3.554 2.471-6.013 1.894-1.23-.291-4.093-1.403-4.093-5.446 0-3.082 2.158-4.798 6.366-5.143z"/><path d="m25 31h2v2h-2z"/><path d="m28 34h2v2h-2z"/><path d="m23 34h2v2h-2z"/><path d="m37 31h2v2h-2z"/><path d="m34 34h2v2h-2z"/><path d="m39 34h2v2h-2z"/><path d="m1.001 36c.15 0 .303-.034.446-.105 1.218-.609 2.89-.797 4.573-.784-.009.294-.021.583-.021.889 0 1.299.135 2.534.388 3.709-1.538.634-3.041 1.477-4.112 2.601-.381.399-.366 1.032.034 1.413.193.185.441.276.689.276.264 0 .527-.104.724-.311.813-.854 1.979-1.523 3.212-2.048 2.79 7.836 11.721 12.359 25.065 12.359s22.274-4.522 25.065-12.359c1.233.525 2.398 1.195 3.212 2.048.196.207.46.311.724.311.248 0 .496-.092.689-.276.4-.381.415-1.014.034-1.413-1.07-1.124-2.574-1.968-4.112-2.601.253-1.175.388-2.41.388-3.709 0-.307-.012-.596-.021-.89 1.684-.013 3.355.175 4.573.784.144.071.296.105.446.105.367 0 .72-.202.896-.553.247-.494.047-1.095-.447-1.342-1.55-.775-3.596-1.006-5.593-.987-.182-1.768-.521-3.255-.933-4.499 1.261-.369 2.641-.62 4.079-.62.553 0 1-.447 1-1s-.447-1-1-1c-1.721 0-3.35.309-4.821.754-.806-1.695-1.681-2.714-2.179-3.201-.013-6.344-.526-23.554-22-23.554s-21.986 17.213-21.999 23.557c-.497.487-1.373 1.505-2.179 3.201-1.471-.445-3.1-.754-4.821-.754-.553 0-1 .447-1 1s.447 1 1 1c1.436 0 2.816.252 4.078.622-.412 1.244-.751 2.73-.932 4.496-1.996-.02-4.042.211-5.593.987-.494.247-.694.848-.447 1.342.176.351.528.553.896.553zm13.624-5.781c-.13-.103-2.04-1.603-4.901-2.785.917-1.854 1.861-2.622 1.875-2.634.252-.188.4-.485.4-.8 0-6.017 0-22 20-22s20 15.983 20 22c0 .309.149.605.393.795.018.014.964.783 1.883 2.639-2.86 1.183-4.771 2.682-4.9 2.785-.431.346-.501.975-.156 1.406.198.247.488.375.782.375.219 0 .439-.071.624-.219.028-.023 1.785-1.403 4.401-2.489.356 1.08.658 2.372.827 3.924-2.697.228-4.92.771-5.095.815-.536.134-.861.676-.727 1.212.134.534.67.858 1.212.729.041-.011 2.189-.534 4.737-.76.008.263.021.515.021.79 0 1.055-.122 2.055-.317 3.019-2.363-.73-4.404-.992-4.562-1.012-.549-.068-1.047.324-1.113.872-.067.548.323 1.047.871 1.113.036.005 2.03.261 4.273.954-2.549 7.005-10.797 11.054-23.151 11.054s-20.603-4.049-23.151-11.054c2.242-.693 4.236-.949 4.273-.954.548-.066.938-.565.871-1.113-.066-.548-.563-.942-1.113-.872-.158.02-2.198.282-4.562 1.012-.196-.964-.317-1.963-.317-3.019 0-.274.014-.527.021-.789 2.547.227 4.696.749 4.737.76.534.126 1.078-.193 1.212-.729s-.191-1.078-.727-1.212c-.175-.044-2.398-.587-5.095-.815.168-1.55.47-2.84.825-3.92 2.614 1.086 4.375 2.463 4.404 2.486.185.147.404.218.623.218.294 0 .585-.128.782-.376.344-.431.274-1.06-.156-1.404z"/></g></svg>