<?xml version="1.0" encoding="utf-8"?>
<!-- Generator: Adobe Illustrator 27.5.0, SVG Export Plug-In . SVG Version: 6.00 Build 0)  -->
<svg version="1.1" id="Layer_1" xmlns="http://www.w3.org/2000/svg" xmlns:xlink="http://www.w3.org/1999/xlink" x="0px" y="0px"
	 viewBox="0 0 5120 5120" style="enable-background:new 0 0 5120 5120;" xml:space="preserve">
<g>
	<path style="fill:#8A381E;" d="M1013.192,1526.242c32.4-25.65,76.95-17.1,114.3-10.35c135,28.8,243,129.15,315.9,242.1
		c-9.45,8.1-22.5-4.5-33.3-3.6c-49.95,0-93.15,30.6-134.1,55.8c-7.2-25.65-14.85-53.1-38.7-68.4c2.25-10.35,3.6-21.15,3.15-31.5
		c-10.35-4.95-22.05-7.65-31.05-14.85c-3.15-8.55-3.6-17.55-4.95-26.55c-10.8-5.85-24.75-3.15-33.75-11.7
		c-6.75-8.1-4.5-19.35-7.2-28.8c-7.65-8.55-20.25-9.9-30.15-13.5c-2.7-9-1.8-20.7-9.45-27.45c-8.1-0.9-16.2,0-23.85-1.8
		c-8.55-8.1-13.95-19.8-23.85-26.55c-18.9-13.95-42.3-20.25-62.55-32.4L1013.192,1526.242z"/>
	<path style="fill:#8B391E;" d="M3818.042,1603.192c66.15-53.1,148.05-88.2,233.55-92.25c18.45,1.8,42.75,2.7,54,20.25
		c-21.6,9.9-44.1,17.1-63.45,30.15c-9.9,6.3-15.75,17.1-23.4,25.2c-8.1,4.5-18,3.6-27,4.95c-4.5,8.1-6.3,17.55-8.55,27
		c-9,3.15-18,5.85-26.55,10.35c-4.95,9-4.5,19.35-7.2,28.8c-8.1,9.9-22.05,8.55-32.85,12.6c-6.75,7.65-4.95,19.35-6.75,28.8
		c-9.9,6.3-23.4,8.1-30.6,18c-3.15,9.9,1.8,19.8,3.6,29.25c-9.45,8.1-20.25,15.3-25.65,26.55c-7.65,17.1-11.7,35.1-18,52.65
		c-27-24.75-54.9-51.75-91.35-62.55c-23.85-9.45-49.5-4.5-72.9,4.05c37.35-62.55,86.4-118.35,143.55-163.8H3818.042z"/>
	<path style="fill:#C65628;" d="M907.442,1635.142c1.8,0,5.4,0,7.2,0c13.95,18.9,21.6,42.3,37.8,59.4c7.2,2.25,15.75,1.35,22.95,3.6
		c1.35,15.75-3.15,33.75,9.9,45.9c14.85,3.15,29.7-2.25,42.75-9c18.45,12.15,5.85,40.95,21.15,56.7c11.25,12.6,27.45-0.9,40.95-2.25
		c9.9,2.7,11.7,14.4,16.65,21.6c4.95,10.35,19.35,4.5,28.35,6.3c5.85,7.2,11.7,14.85,17.1,22.5c14.85,0,27-9.9,41.85-9.9
		c2.25,6.75,4.95,13.5,7.2,20.25c12.6-1.35,22.5-9.9,33.3-16.2c13.5-7.65,27.45-15.3,40.95-22.95c40.95-25.65,83.7-55.8,134.1-55.8
		c10.8-0.9,24.3,11.7,33.3,3.6c8.1,12.6,24.75,13.5,35.55,22.95c57.15,43.65,94.5,108,116.55,175.5
		c13.05,37.8,15.75,78.3,18.45,117.9c2.25,13.5-9.45,31.05,2.7,40.95c18.45,4.95,39.6-4.05,58.5,4.5
		c18,5.85,27.45,23.85,35.55,40.05c11.25,26.1,21.6,53.1,27.45,81c4.5,20.25,1.8,40.95,1.35,61.2c9.45-0.9,20.25-1.8,27-9.45
		c6.75-13.05,4.95-28.35,8.1-42.3c11.7,3.6,20.7,11.7,28.8,20.25c22.5,25.2,41.85,53.55,64.35,79.2c-10.35,1.35-21.15,1.8-31.5,2.7
		c-28.35,26.1-35.1,66.6-61.65,93.6c-11.25-0.45-22.05-2.25-32.85-4.95c-4.95,5.4-13.05,9.45-14.85,16.65
		c0.9,13.95,6.75,26.55,13.5,38.7c17.1,25.2,36,49.5,55.35,73.8c-35.55-9.45-68.85-25.65-101.7-42.3
		c-24.3-12.15-46.8-27.45-67.95-44.1c-20.25-16.65-33.3-39.15-47.25-60.75c-2.25-5.4-8.1-7.2-12.6-9.9
		c40.05-1.8,84.15-7.65,114.75-36c5.85-4.5,7.65-12.15,10.35-18.9c-20.7,8.1-40.95,18.9-62.55,24.75c-24.3,6.75-49.05,13.5-70.65,27
		c-23.85,2.7-46.35-13.5-60.3-31.95c-22.05-30.6-23.4-70.2-16.65-106.2c-77.85,5.85-149.85-31.5-211.05-76.05
		c-61.2-45.9-115.65-100.35-168.3-155.25c-73.35-80.1-146.7-164.7-184.95-268.2c-14.4-44.1-27.45-93.15-9.9-137.7
		 M1591.442,2120.692c-26.1,18.45-51.3,38.7-72,63.45c-16.2,21.6-29.7,47.7-28.8,75.15c16.65-22.5,28.8-48.6,49.5-67.95
		c22.05-24.75,47.25-45.9,69.75-70.2c0-1.35,0.9-4.05,0.9-5.4c-7.2-4.95-13.95,1.35-20.25,4.95H1591.442z"/>
	<path style="fill:#C75727;" d="M4206.842,1635.592c1.8,0,5.85,0,7.65,0.45c17.55,58.95,1.8,122.85-25.2,176.4
		c-30.15,64.8-73.8,122.4-121.05,175.5c-40.95,50.4-87.75,95.85-134.55,140.85c-63,57.6-131.85,114.75-216,137.25
		c-25.2,8.55-52.2,6.3-78.75,6.75c9.45,41.4,4.5,91.8-29.25,121.05c-16.2,15.3-38.7,17.1-59.4,22.05c3.6-2.25,7.2-4.05,11.25-6.3
		c-28.8-15.75-61.2-22.05-91.8-32.85c-15.3-4.5-28.35-17.1-45-15.75c8.55,12.6,19.8,23.85,33.75,31.5
		c26.1,14.85,56.7,15.75,84.6,24.75l3.15,2.7c-12.15,13.95-20.25,30.15-32.4,44.1c-24.75,30.15-59.85,49.05-93.15,67.5
		c-31.05,13.95-61.2,31.5-94.5,37.35c17.1-23.4,35.55-45.45,52.65-68.85c9.45-13.95,16.2-31.05,13.05-48.15
		c-3.6-4.95-9.45-7.65-14.4-10.8c-10.8,1.8-22.05,6.75-33.3,3.6c-22.95-22.5-31.5-55.35-51.3-80.1
		c-10.8-13.95-30.15-13.5-46.35-13.5c9.9,0.9,13.95-8.55,19.35-14.85c14.4-20.7,30.6-40.5,46.8-59.85c9-10.35,18.9-20.7,31.95-26.1
		c2.7,15.3,2.25,32.85,12.6,45.9c7.2,5.4,16.65,5.4,25.2,6.3c-9.45-48.6,9-96.3,27-140.85c8.55-19.8,22.95-39.15,45-43.65
		c16.65-2.7,33.75,0,50.4,1.35c23.85,24.75,49.5,47.7,73.35,72.45c19.35,20.25,33.75,45,49.95,67.95c0-31.95-16.2-61.65-37.8-84.15
		c-23.85-25.2-51.75-46.35-81.9-63.9c-9-115.65,31.95-237.6,118.8-316.8c13.5-12.6,30.15-20.7,46.8-27.9
		c22.95-8.55,49.05-13.5,72.9-4.05c36.45,10.8,63.9,37.8,91.35,62.55c14.85,17.55,36.45,32.4,60.3,31.5
		c13.95,0,22.95-12.15,29.7-22.95c21.15-1.35,44.55,0,62.1-13.5c2.7-6.75,5.85-13.05,10.35-18.9c13.95,3.15,27.9,8.1,42.3,5.4
		c5.85-12.15,11.7-24.3,17.1-36.9c10.8,0.9,21.6,2.25,31.5,5.4c4.5-2.25,9.45-4.05,13.95-6.3c3.6-9.9,6.75-19.8,11.25-28.8
		c6.3-7.2,17.1-4.05,25.2-5.4c4.5-9.45,4.5-21.6,11.7-29.7c7.2-4.05,15.3-5.4,23.4-7.65c3.15-23.4,17.1-42.3,28.8-61.65
		L4206.842,1635.592z"/>
	<path style="fill:#0E0E0F;" d="M2161.142,2133.292c5.85-21.6,30.6-41.4,53.1-30.15c33.3,17.1,41.85,58.95,40.5,93.15
		c2.7-0.9,9-2.25,11.7-3.15c-0.45,0.9-1.35,3.15-1.8,4.5c-2.25,0-7.2,0-9.9,0c-4.5,13.05-8.1,27.45-20.7,35.1
		c-17.1,14.4-42.75,7.2-56.25-8.55c-19.8-25.2-24.75-60.75-16.2-91.35 M2175.542,2124.292c-14.4,9.9-5.85,39.15,13.05,34.65
		C2210.642,2152.192,2198.042,2109.892,2175.542,2124.292z"/>
	<path style="fill:#0F0F10;" d="M2880.692,2137.792c8.1-18,24.75-36,46.35-35.1c15.75,0,27.9,13.95,33.3,27.9
		c12.15,32.4,4.95,69.75-12.15,99c-13.05,11.25-30.15,22.95-48.15,15.75c-22.05-6.3-27.45-31.05-31.5-50.4
		c-0.9-19.8,4.5-39.15,11.7-57.15 M2901.392,2126.092c-13.95,4.95-15.75,28.35-1.8,34.65c11.7,4.5,22.95-7.2,22.5-18.9
		c0.9-10.35-10.35-20.7-20.25-16.2L2901.392,2126.092z"/>
	<path style="fill:#8A3E1E;" d="M1591.442,2120.692c5.85-3.6,13.05-9.9,20.25-4.95c0,1.35-0.9,4.05-0.9,5.4
		c-22.5,24.3-47.7,45.45-69.75,70.2c-20.7,19.35-32.85,45.45-49.5,67.95c-0.9-27.45,12.6-53.55,28.8-75.15
		c20.25-24.75,45.45-45,72-63.45H1591.442z"/>
	<path style="fill:#8D3E1E;" d="M3509.342,2111.692c29.7,17.55,58.05,38.7,81.9,63.9c21.6,22.5,37.8,52.2,37.8,84.15
		c-16.2-22.95-30.15-47.25-49.95-67.95c-23.85-24.75-49.5-47.7-73.35-72.45L3509.342,2111.692L3509.342,2111.692z"/>
	<path style="fill:#FCFCFC;" d="M2175.542,2124.292c22.05-14.85,35.1,27.45,13.05,34.65
		C2169.692,2163.442,2161.592,2134.192,2175.542,2124.292z"/>
	<path style="fill:#FDFEFB;" d="M2901.392,2126.092c10.35-4.5,21.15,5.4,20.25,16.2c0.9,11.25-10.8,23.4-22.5,18.9
		c-13.5-6.3-12.15-30.15,1.8-34.65L2901.392,2126.092z"/>
	<path style="fill:#1D5240;" d="M2364.092,2199.892c33.3,5.85,61.65-18.45,94.05-18c33.75,0.9,65.7,14.85,99.45,17.55
		c38.25-0.9,74.25-19.8,112.5-17.1c26.55,1.8,49.5,19.8,76.5,18c24.75,0,47.7-12.6,72.45-15.3c16.2-1.8,31.5,4.95,45.45,11.7
		c-10.35,5.4-21.15,9.45-32.4,13.05c2.7,7.2,5.4,14.85,7.65,22.05c0,0-0.45,0.9-0.9,0.9c-30.15,0.9-59.85,22.95-67.5,52.65
		c-3.15,10.35,1.8,20.25,4.5,30.15c-27.9,9-51.3,28.8-80.1,36.45c-24.3,3.6-49.05-2.7-73.35,3.15
		c-22.95,4.05-40.95,24.75-65.7,22.05c-20.25,0.9-34.65-16.2-53.55-20.7c-26.1-7.65-53.55-0.9-80.1-5.85
		c-26.55-10.35-53.1-22.5-76.95-38.25c4.05-16.2,3.6-34.2-6.3-48.6c-12.15-21.6-36.9-29.7-58.95-35.1c0-4.05,0.9-8.1,1.35-12.15
		c-3.6-3.6-6.75-7.2-10.35-10.8c7.2-3.6,13.95-7.65,20.25-12.6c-9.45,1.35-18.9,3.15-28.35,3.15c0.45-0.9,1.35-3.6,1.8-4.5
		c31.05-18.9,65.7,2.7,97.65,6.75L2364.092,2199.892z"/>
	<path style="fill:#24654F;" d="M2264.642,2197.642c9.45,0,18.9-1.8,28.35-3.15c-6.3,4.95-13.05,9-20.25,12.6
		c3.6,3.6,6.75,7.2,10.35,10.8c-0.45,4.05-0.9,8.1-1.35,12.15c13.05,23.85,36,39.6,50.85,61.65c7.2,23.4-26.1,46.8-46.35,32.4
		c-19.35-13.05-32.85-33.3-50.4-48.15c-8.55-8.1-21.6-3.15-31.5-0.9c-18,4.5-35.55,21.15-30.6,40.95c8.1,33.3,49.5,46.8,79.2,34.65
		c31.5-12.6,66.6-17.1,94.95-37.35c23.85,15.75,50.4,27.9,76.95,38.25c26.1,4.95,54-1.8,80.1,5.85c18.9,4.5,33.3,21.6,53.55,20.7
		c24.75,2.7,42.3-18,65.7-22.05c24.3-5.85,49.05,0.45,73.35-3.15c28.35-8.1,51.75-27.45,80.1-36.45c17.1,9.9,35.1,16.65,54,21.6
		c24.3,6.3,47.7,21.15,73.8,16.65c22.95-4.5,47.7-23.85,44.1-49.95c-0.9-16.65-17.1-26.1-31.5-30.6c-9.45-2.7-20.7-5.4-28.8,1.8
		c-19.8,16.2-34.65,38.25-57.15,50.85c-20.7,8.1-51.75-14.4-41.4-36.9c15.75-19.35,34.2-36,49.05-56.25c0,0,0.45-0.9,0.9-0.9
		c-2.25-7.65-4.95-14.85-7.65-22.05c11.25-3.6,22.05-7.65,32.4-13.05l4.05-1.8c3.6,19.35,9,44.1,31.5,50.4
		c18,7.65,35.1-4.05,48.15-15.75c22.05,2.25,40.95,18.45,63.9,20.7c24.75,6.75,50.85-10.8,74.25,2.7
		c23.85,11.25,36,38.25,60.75,48.6c19.8,1.8,34.65-17.1,54.45-17.1c7.65-0.9,13.95,4.5,17.1,10.8c9.9,18.45,13.05,40.5,28.35,55.8
		c16.2,0,35.1,0,46.35,13.5c20.25,24.75,28.8,57.15,51.3,80.1c10.8,3.6,22.5-1.35,33.3-3.6c4.95,3.6,10.8,5.85,14.4,10.8
		c2.7,17.55-3.6,34.2-13.05,48.15c-41.4-18.9-85.5-28.35-128.25-42.75c-54-15.3-108-31.5-162.45-44.1c-18-4.05-35.1-11.7-53.55-15.3
		c-6.75,1.8-6.75,8.1-7.65,13.5c-4.5,38.25-19.8,74.25-37.35,108.45c-22.95,42.3-56.25,83.25-103.05,99.9
		c-37.8,13.5-75.6-7.2-113.85-8.55c-18-36.45-47.7-64.35-77.4-90.45c12.6-25.65,23.85-52.2,36-78.3c-2.7-1.35-8.1-4.5-11.25-5.85
		c-13.05,25.2-23.85,51.75-38.7,76.05c-30.15-5.85-62.55-4.95-90.9,7.65c-13.95,5.85-22.5,18.45-29.7,31.05
		c-6.75-15.75-18.9-29.25-36-33.75c-27-9-56.25-9.9-84.15-4.95c-12.6-25.2-27-49.95-36.9-76.05c-4.05,2.25-14.4,2.7-10.35,9.9
		c11.25,24.75,22.95,49.05,34.2,73.8c-29.25,27-60.3,54-76.95,90.9c-30.15,0.9-59.4,10.8-89.55,12.6
		c-45-3.15-79.65-36.9-105.75-70.65c-32.4-46.8-53.55-101.7-62.1-158.4c-67.95,16.65-135.9,34.65-202.5,54.9
		c-50.85,12.6-99.9,29.7-149.4,46.35c-6.75-12.15-12.6-25.2-13.5-38.7c1.8-7.65,9.9-11.25,14.85-16.65c10.8,2.7,21.6,4.5,32.85,4.95
		c26.55-27,33.75-67.5,61.65-93.6c10.35-0.45,21.15-1.35,31.5-2.7c14.4-3.15,18.9-20.25,24.75-31.5c6.75-13.5,11.7-33.75,30.15-34.2
		c18-1.35,27.9,19.35,45,19.8c8.1,0.9,14.4-5.4,20.25-9.9c16.65-15.3,30.6-34.2,51.75-42.75c22.05-8.55,45,3.6,67.05,0
		c25.2-3.6,47.25-16.2,70.2-26.1c13.95,15.3,39.15,22.95,56.25,8.55c12.6-7.65,16.2-22.5,20.7-35.1c2.7,0,7.2,0,9.9,0
		 M2416.292,2430.292c4.5,19.8,25.2,26.55,42.75,31.05c21.15,5.4,45,7.2,65.7-1.35c5.4-3.6,15.75-5.85,13.95-14.4
		c-22.95-12.15-44.55-28.8-70.2-34.65c-18.45-0.9-39.6,3.6-51.75,18.9 M2580.992,2447.842c22.5,26.55,61.65,20.7,90.9,10.8
		c13.05-5.4,32.85-11.25,32.85-28.35c-8.55-14.85-27.9-16.65-43.2-18.45c-30.15,1.35-54.45,22.5-80.1,36.45L2580.992,2447.842z"/>
	<path style="fill:#081C11;" d="M2281.292,2230.042c22.5,5.4,47.25,13.5,58.95,35.1c10.35,13.95,10.35,31.95,6.3,48.6
		c-28.35,20.25-63.45,24.75-94.95,37.35c-29.7,12.15-71.1-1.35-79.2-34.65c-4.5-19.8,12.6-36.45,30.6-40.95
		c9.9-2.25,22.95-6.75,31.5,0.9c18,14.85,31.05,35.1,50.4,48.15c20.25,13.95,53.55-9,46.35-32.4c-14.85-22.05-37.8-37.8-50.85-61.65
		L2281.292,2230.042z"/>
	<path style="fill:#081B10;" d="M2772.242,2285.842c7.2-29.7,36.9-51.75,67.5-52.65c-14.85,20.25-33.75,36.9-49.05,56.25
		c-10.8,22.95,20.7,45,41.4,36.9c22.5-12.6,37.35-34.65,57.15-50.85c8.1-7.2,19.35-4.5,28.8-1.8c14.4,4.5,30.6,13.95,31.5,30.6
		c3.6,26.1-21.15,45.45-44.1,49.95c-26.1,4.5-49.5-10.35-73.8-16.65c-18.9-4.95-37.35-11.7-54-21.6c-2.7-9.9-7.65-19.8-4.5-30.15
		H2772.242z"/>
	<path style="fill:#823A1D;" d="M1628.792,2383.042c22.05-5.85,41.85-16.2,62.55-24.75c-2.7,6.75-4.5,13.95-10.35,18.9
		c-30.6,28.35-74.7,33.75-114.75,36l-8.55-3.15c21.6-13.5,46.35-20.25,70.65-27H1628.792z"/>
	<path style="fill:#873C1C;" d="M3425.192,2361.442c16.65-1.35,29.7,10.8,45,15.75c30.6,10.8,63,17.1,91.8,32.85
		c-3.6,2.25-7.2,4.05-11.25,6.3l-4.05,2.25l-3.6-0.9c-27.9-9-58.5-9.9-84.6-24.75c-13.95-7.2-24.75-18.45-33.75-31.5
		L3425.192,2361.442z"/>
	<path style="fill:#1D523F;" d="M1889.792,2450.092c67.05-20.7,134.55-38.25,202.5-54.9c8.55,56.25,29.7,111.15,62.1,158.4
		c26.1,33.75,60.75,67.95,105.75,70.65c30.15-2.25,59.4-11.7,89.55-12.6c-12.15,34.2-1.8,70.2,8.55,103.5
		c11.7,36.45,30.15,70.65,43.2,106.65c-22.95,10.35-45.45,22.5-67.95,34.2c-18.9,9.9-40.5,8.55-61.2,8.55
		c-51.75-7.65-103.05-17.55-154.8-24.75c-40.5-13.5-81.45-27-116.55-51.75c-16.2-8.1-30.15-20.25-42.3-33.75
		c-62.1-54-110.25-121.5-163.35-183.6c-19.35-23.85-38.25-48.15-55.35-73.8c49.5-16.65,99-34.2,149.4-46.35L1889.792,2450.092z"/>
	<path style="fill:#1D523F;" d="M3026.942,2412.292c0.9-5.4,0.9-12.15,7.65-13.5c18,3.6,35.1,11.25,53.55,15.3
		c54.9,12.6,108.45,28.8,162.45,44.1c42.75,14.4,87.3,24.3,128.25,42.75c-17.1,23.4-35.55,45.45-52.65,68.85
		c-49.95,58.95-98.1,119.25-151.65,175.05c-40.05,38.7-89.55,67.95-143.1,84.6c-25.2,9.9-52.2,13.05-78.75,13.5
		c4.95,0.9,10.35,1.35,15.75,2.25c-40.05,2.7-78.75,13.5-118.35,16.65c-21.6,2.25-44.55,4.5-64.8-5.4
		c-22.5-11.7-44.1-24.3-66.6-35.55c20.25-48.15,45.45-94.95,55.35-146.7c4.05-20.25,4.5-41.85-1.35-62.1
		c38.25,1.35,76.05,22.05,113.85,8.55c46.8-16.65,80.1-57.6,103.05-99.9C3007.142,2486.542,3022.442,2450.542,3026.942,2412.292
		L3026.942,2412.292z"/>
	<path style="fill:#070D09;" d="M2416.292,2430.292c12.15-15.75,32.85-19.8,51.75-18.9c25.65,5.85,47.25,22.5,70.2,34.65
		c1.8,8.1-8.55,10.8-13.95,14.4c-20.7,8.55-44.55,6.3-65.7,1.35c-17.1-4.5-38.25-11.25-42.75-31.05L2416.292,2430.292z"/>
	<path style="fill:#060C08;" d="M2580.992,2447.842c25.65-13.95,49.95-35.1,80.1-36.45c15.3,1.8,35.1,3.6,43.2,18.45
		c0,17.55-19.8,22.95-32.85,28.35c-29.25,10.35-68.4,15.75-90.9-10.8L2580.992,2447.842z"/>
	<path style="fill:#070D08;" d="M2392.892,2446.492c-4.05-7.2,6.75-7.65,10.35-9.9c10.35,26.55,24.3,50.85,36.9,76.05
		c27.9-4.95,57.15-4.05,84.15,4.95c16.65,4.95,29.25,18.45,36,33.75c7.65-12.6,15.75-25.2,29.7-31.05
		c28.35-12.6,60.75-13.5,90.9-7.65c14.85-24.3,25.65-50.85,38.7-76.05c2.7,1.35,8.1,4.5,11.25,5.85c-11.7,26.1-23.4,52.2-36,78.3
		c30.15,26.1,59.4,54.45,77.4,90.45c5.85,20.25,5.4,41.4,1.35,62.1c-9.9,51.75-35.1,98.55-55.35,146.7
		c22.5,11.25,44.1,23.85,66.6,35.55c20.25,9.9,43.2,7.65,64.8,5.4c-3.6,7.65-7.65,14.85-9.9,22.95c-1.8,5.85-3.6,11.7-5.4,17.55
		c-62.55-58.05-144.9-90-227.25-108.9c-37.35-9.45-76.95-5.85-113.85,4.5c-77.85,21.15-156.6,51.3-214.2,109.35
		c5.4-14.4,0-29.25-6.3-42.75c20.7,0,42.3,1.35,61.2-8.55c22.5-11.7,45-23.85,67.95-34.2c-13.5-36-31.5-69.75-43.2-106.65
		c-10.35-32.85-20.7-69.3-8.55-103.5c16.65-36.9,47.7-63.9,76.95-90.9c-11.25-24.75-22.95-49.5-34.2-73.8 M2441.492,2526.142
		c-34.2,16.65-62.55,45-80.55,77.85c-4.5,8.1-9,20.25,0.9,26.55c28.8,23.4,63.9,40.95,101.25,44.55c21.15-1.35,43.2-9,56.25-26.1
		c13.95-18.45,22.95-41.85,22.05-65.25c-1.35-20.25-13.95-38.25-31.5-47.7C2489.192,2525.242,2463.992,2518.042,2441.492,2526.142
		 M2634.992,2526.142c-22.5,6.75-46.8,20.7-53.1,45.45c-4.5,24.75,1.35,50.4,14.85,71.55c12.15,20.7,36.9,31.5,59.85,31.95
		c32.4-2.25,62.1-17.55,89.1-34.2c9.45-7.2,24.75-15.3,17.55-29.7c-12.15-30.15-36-54-61.65-72.9
		C2683.142,2523.892,2657.492,2519.392,2634.992,2526.142 M2354.192,2640.892c-1.35,35.1,9.45,68.85,23.4,100.35
		c11.25,25.2,21.15,51.3,33.75,76.05c24.75-8.1,49.05-18.9,74.7-23.4c18.45-3.15,34.65-14.85,43.65-31.5
		c13.05-20.7,5.4-46.35-3.6-67.05c-4.95-7.65-8.1-18.9-18-21.15c-14.85,4.5-29.25,12.15-45,11.25c-40.5-1.35-76.5-22.95-109.35-45
		 M2666.042,2684.992c-18.9,3.15-36.45-5.85-54-11.25c-16.2,12.15-22.95,34.2-26.1,53.55c-4.5,22.5,8.55,44.55,26.1,58.05
		c12.6,7.2,27.45,9,40.95,13.05c19.8,4.5,37.8,13.5,56.7,19.8c12.15-23.4,21.6-48.15,32.4-72.45c15.75-32.4,27-67.95,26.1-104.4
		c-30.6,21.15-64.8,39.15-102.15,44.1L2666.042,2684.992z"/>
	<path style="fill:#22664F;" d="M2441.492,2526.142c22.5-8.1,47.7-0.9,68.4,9.9c17.55,9.45,30.15,27.45,31.5,47.7
		c1.35,23.4-7.65,46.8-22.05,65.25c-13.05,17.1-35.55,24.75-56.25,26.1c-37.35-3.6-72.45-21.15-101.25-44.55
		c-9.9-6.3-5.4-18.45-0.9-26.55C2378.942,2571.142,2407.742,2542.792,2441.492,2526.142L2441.492,2526.142z"/>
	<path style="fill:#23654F;" d="M2634.992,2526.142c22.5-6.75,48.15-2.25,66.6,12.15c25.65,19.35,49.5,42.75,61.65,72.9
		c7.2,13.95-8.1,22.5-17.55,29.7c-27,16.65-56.7,31.95-89.1,34.2c-23.4-0.45-47.7-11.7-59.85-31.95
		c-13.5-20.7-19.35-46.8-14.85-71.55C2587.742,2546.842,2612.042,2532.892,2634.992,2526.142L2634.992,2526.142z"/>
	<path style="fill:#9C4021;" d="M1502.342,2598.142c16.65-10.8,37.35-9.45,56.25-6.3c62.55,12.6,123.75,31.95,182.7,57.6
		c72.45,30.15,143.55,63.9,212.4,101.7c1.35,0.9,4.5,2.25,5.85,3.15c12.6,13.5,26.1,25.2,42.3,33.75
		c35.1,24.75,76.05,38.25,116.55,51.75c-10.35,5.4-20.25,10.8-28.8,18.9c-9.45,9.9-9.45,24.3-12.15,36.9
		c0.9-11.25,1.35-22.05,0-32.85c-6.75-6.75-15.75-9.9-23.85-13.5c-67.5-26.1-132.75-58.05-202.95-75.6
		c-59.4-15.3-117.9-35.1-179.1-41.4c-43.2-4.05-86.85-9-129.6,1.35c-20.25-13.05-40.5-26.1-58.05-42.75l0.9-3.6
		c6.3-28.35,4.05-58.95,16.65-85.95l0.9-2.25L1502.342,2598.142z"/>
	<path style="fill:#9D4021;" d="M3546.692,2595.892c23.85-5.4,52.2-12.6,73.35,4.05c3.6,10.8,7.2,21.6,9,33.3
		c3.6,18,0.9,37.35,10.35,54c-7.65,13.95-22.05,21.15-34.2,30.15c-10.8,7.2-21.15,15.75-33.75,19.8c-32.4-10.8-67.5-9.9-101.25-7.2
		c-42.75,4.05-85.5,10.35-127.35,22.05c-49.95,13.95-101.25,25.2-149.85,44.1c-53.55,21.15-108.45,39.6-160.2,64.8
		c-4.05,1.8-8.55,3.6-12.6,5.4c0.9-13.95-13.05-26.1-26.55-24.3c-8.55,0-17.1,1.35-25.65,2.25c-5.4-0.9-10.35-1.35-15.75-2.25
		c26.55,0,53.55-3.6,78.75-13.5c53.55-16.65,102.6-45.9,143.1-84.6c119.7-58.95,240.3-121.05,372.15-148.5L3546.692,2595.892z"/>
	<path style="fill:#6E2B19;" d="M1478.042,2604.442c4.5-9,15.75-4.05,23.4-4.05c-12.6,27.45-10.35,57.6-16.65,85.95
		c-8.1-1.8-16.2-4.05-24.3-6.75C1465.442,2654.392,1466.792,2627.842,1478.042,2604.442L1478.042,2604.442z"/>
	<path style="fill:#6A2C17;" d="M3620.042,2599.942c9-0.9,18.45-1.35,26.1,4.5c8.1,24.3,7.65,50.85,15.75,75.15
		c-7.2,3.15-14.85,5.4-22.5,7.65c-9.45-16.65-6.75-36-10.35-54C3627.242,2621.992,3623.192,2610.742,3620.042,2599.942z"/>
	<path style="fill:#A04222;" d="M1409.192,2622.892c22.05-9.45,45.45-15.75,69.3-18.9c-11.25,23.4-12.6,49.95-17.55,75.15
		c-30.6,43.65-63,85.95-98.55,126c-46.8-25.65-101.7-24.75-153-32.4C1267.442,2712.892,1331.792,2655.742,1409.192,2622.892z"/>
	<path style="fill:#A04222;" d="M3646.142,2604.442c66.15,9.9,125.55,44.55,176.85,85.5c31.95,24.3,60.75,52.65,87.75,81.9
		c-54,3.15-107.1,12.6-159.75,22.95c-32.4-36.45-61.65-75.15-89.55-115.2c-8.1-24.3-7.65-50.85-15.75-75.15H3646.142z"/>
	<path style="fill:#23654F;" d="M2354.192,2640.892c32.85,21.6,68.85,43.2,109.35,45c15.75,0.9,30.15-6.75,45-11.25
		c9.45,2.25,13.05,13.5,18,21.15c9,20.7,16.2,46.35,3.6,67.05c-9,16.65-25.2,27.9-43.65,31.5c-26.1,4.5-49.95,15.3-74.7,23.4
		c-12.6-24.75-22.5-50.4-33.75-76.05c-13.95-31.5-24.75-65.7-23.4-100.35L2354.192,2640.892z"/>
	<path style="fill:#24654F;" d="M2666.042,2684.992c37.35-4.95,71.55-22.95,102.15-44.1c0.9,36.45-10.35,72-26.1,104.4
		c-10.8,24.3-20.25,49.05-32.4,72.45c-18.9-6.3-37.35-15.3-56.7-19.8c-13.95-4.05-28.35-5.85-40.95-13.05
		c-17.55-13.05-30.6-35.55-26.1-58.05c3.15-19.35,9.9-41.4,26.1-53.55c17.55,4.95,35.1,14.4,54,11.25L2666.042,2684.992z"/>
	<path style="fill:#C65728;" d="M1541.492,2732.692c42.75-10.35,86.4-5.4,129.6-1.35c61.2,6.3,119.7,26.1,179.1,41.4
		c70.2,17.55,135.45,49.5,202.95,75.6c8.55,3.6,17.55,6.75,23.85,13.5c1.8,10.8,0.9,22.05,0,32.85
		c-4.5,31.95-28.8,55.35-49.95,77.85c-3.6,1.8-7.65,3.15-11.7,3.6c-70.2-10.35-140.4-23.85-208.8-42.75c-17.55-8.55-36-1.35-54,0
		c-18,0-36.9,3.15-53.55-3.6c-6.75-9.45-9.45-21.6-13.95-32.4c-10.8-3.6-21.6-7.2-32.4-10.35c6.3,16.65,13.95,32.4,20.7,49.05
		c0.9,16.65,0.45,33.3,1.8,49.95c0,20.7-0.9,41.4-2.25,62.1c-3.6,2.7-7.65,5.4-11.25,8.1c-41.85,9.9-80.55,30.6-116.1,54.9
		c0-20.7,6.3-40.5,10.35-60.3c14.4-57.6,36.9-114.75,76.5-159.75c2.25-3.15,4.5-6.3,6.3-9.9c-30.15-8.1-58.05-22.95-86.85-34.2
		c-6.75-2.7-12.15-6.75-18-11.25c-1.8-30.6-15.75-61.2-6.3-92.25C1532.042,2739.892,1536.092,2735.392,1541.492,2732.692
		L1541.492,2732.692z"/>
	<path style="fill:#C75729;" d="M3470.642,2729.992c33.75-2.7,68.4-3.6,101.25,7.2l4.95,1.35c0,1.35,1.35,4.05,1.35,5.4
		c9.45,28.8,3.15,59.4-5.85,87.3c1.8,1.35,4.95,4.05,6.3,5.4c-40.95,19.35-82.8,37.8-126.45,50.85c-9.45,3.6-20.25,6.3-27.9,13.05
		c-9.45,11.25-14.4,25.2-20.7,38.25c-10.8,0.45-21.15,0.9-31.95,0.9c-26.1-0.9-52.65-15.75-78.75-4.95
		c-31.5,9.9-64.35,17.55-96.75,24.75c-33.75,7.65-69.3,8.1-103.05,16.65c-3.15,0-7.65,0-9.45-2.7c-13.5-17.55-29.7-33.3-40.05-53.1
		c-9.45-18.45-8.55-40.05-10.35-59.85c51.75-25.2,106.65-44.1,160.2-64.8c48.6-18.9,99.45-30.15,149.85-44.1
		c41.4-11.7,84.15-18,127.35-22.05V2729.992z"/>
	<path style="fill:#7F3219;" d="M1500.542,2760.142c2.25-13.05,16.65-14.85,27.45-16.2c-9,31.05,4.5,61.2,6.3,92.25
		c-7.2,1.35-14.85,1.8-22.05,1.35c-4.05-25.65-13.05-50.85-11.7-76.95V2760.142z"/>
	<path style="fill:#7E381C;" d="M3577.742,2743.942c9,0,17.1,2.7,25.2,6.3v4.95c4.05,27.9-2.25,55.35-7.65,82.8
		c-5.85,0.9-11.25,0.45-16.65-1.8c-1.8-1.35-4.95-4.05-6.3-5.4c8.55-27.9,15.3-58.5,5.85-87.3L3577.742,2743.942z"/>
	<path style="fill:#C85727;" d="M3603.392,2755.642c68.85,41.4,110.25,114.75,138.15,187.65c11.25,24.75,16.2,51.75,25.65,77.4
		c-17.55-17.1-41.85-24.75-64.35-33.3c-27-9.45-54-19.35-82.35-24.75c-0.9,1.8-2.25,5.4-2.7,7.2c-11.7-42.75-17.1-86.85-22.5-130.95
		c5.4-27.45,11.7-54.9,8.1-82.8L3603.392,2755.642z"/>
	<path style="fill:#C95829;" d="M1478.942,2773.192c6.75-4.95,13.95-9,21.6-13.05c-1.8,26.55,7.65,51.3,11.7,76.95
		c-5.4,40.95-9.45,82.8-21.15,122.4c-49.95,11.25-98.1,28.8-145.35,47.7c2.25-20.25,10.8-39.15,17.55-58.05
		c21.15-59.85,52.2-117.9,99-162c2.7-0.45,5.4-0.9,8.55-0.9c-4.05-7.2,4.5-9.9,8.55-13.5L1478.942,2773.192z"/>
	<path style="fill:#743419;" d="M1195.892,2783.092c4.5-3.6,9-7.2,13.5-10.35c51.3,8.1,106.2,6.75,153,32.4
		c-2.7,2.7-5.4,5.4-7.65,8.55c-51.75-15.75-104.85-25.2-158.4-30.6L1195.892,2783.092z"/>
	<path style="fill:#743219;" d="M3750.992,2794.792c53.1-9.9,106.2-19.8,159.75-22.95c2.25,1.8,7.2,5.4,9.45,7.2
		c-21.15,8.55-44.55,6.75-66.6,11.7c-30.15,6.3-61.2,7.2-90.45,17.1c-4.05-4.5-8.1-9-12.6-13.05L3750.992,2794.792z"/>
	<path style="fill:#A14322;" d="M3920.642,2779.042h1.35c45.45,33.75,87.75,72.45,126,114.3c17.1,19.35,33.75,40.5,41.85,65.25
		c4.05,13.05,0,26.55-3.6,39.6c-17.1,13.5-36.9,24.3-58.95,23.4c-31.95-3.6-58.05-24.75-83.25-42.3
		c-63.9-52.65-127.35-107.1-180.45-171c29.25-10.35,60.3-10.8,90.45-17.1c22.05-4.95,45.45-3.15,66.6-11.7V2779.042z"/>
	<path style="fill:#A24323;" d="M1194.542,2783.092h1.35c53.55,5.85,107.1,15.3,158.4,30.6c-54.9,60.3-113.4,116.55-178.2,166.05
		c-25.2,18-50.85,38.25-82.35,42.3c-22.05,0.9-41.85-10.35-59.4-22.05c-2.25-13.05-8.1-25.65-4.05-39.15
		c8.1-29.25,28.8-52.2,49.05-74.25c35.55-37.35,72.9-73.35,115.2-103.95V2783.092z"/>
	<path style="fill:#24634E;" d="M2493.692,2797.042c36.9-10.35,76.05-13.5,113.85-4.5c82.35,18.45,164.25,50.85,227.25,108.9
		c1.8-5.85,3.6-11.7,5.4-17.55c-6.75,28.35,18,47.7,37.8,62.55c16.2,9.9,33.3,22.5,53.1,21.15c-1.35,0-4.05,0.45-5.4,0.9
		c-22.5,4.5-43.65,15.75-66.6,15.75c-104.85,0-209.7,3.15-314.55,2.7c-91.35,0-183.15-3.15-274.5-2.7c-18.45,0-36.9-4.05-54-10.8
		c-6.75-2.25-13.05-6.75-20.25-4.5c33.75-11.7,63.9-33.75,84.15-63c58.05-58.05,136.8-88.2,214.2-109.35L2493.692,2797.042z"/>
	<path style="fill:#C65829;" d="M2118.392,2839.342c51.75,7.2,103.05,17.1,154.8,24.75c6.3,13.05,11.7,27.9,6.3,42.75
		c-20.25,29.25-50.4,51.3-84.15,63c-47.25,18-98.55,13.95-147.6,6.75c14.85-18.45,31.95-35.55,40.5-57.6
		c8.1-19.35,6.3-40.95,1.35-60.75C2097.692,2850.143,2108.042,2844.742,2118.392,2839.342L2118.392,2839.342z"/>
	<path style="fill:#C75929;" d="M2968.442,2844.742c8.55-0.9,17.1-2.25,25.65-2.25c13.5-1.8,27.45,9.9,26.55,24.3
		c-1.8,14.4-3.15,29.7,1.8,43.65c8.55,24.75,25.65,45.45,42.3,65.25c-45.45,8.55-95.85,13.5-139.05-6.3c1.35,0,4.05-0.45,5.4-0.9
		c-20.25,1.35-36.9-10.8-53.1-21.15c-19.8-14.85-44.55-34.65-37.8-62.55c2.7-8.1,6.3-15.3,9.9-22.95
		c39.6-3.15,78.3-14.4,118.35-16.65L2968.442,2844.742z"/>
	<path style="fill:#7D3418;" d="M2077.442,2895.142c2.7-12.6,2.7-27,12.15-36.9c4.95,19.8,6.3,41.4-1.35,60.75
		c-9,22.05-26.1,39.15-40.5,57.6c-6.75-0.9-13.5-1.8-20.25-3.6C2048.642,2950.492,2072.942,2927.092,2077.442,2895.142
		L2077.442,2895.142z"/>
	<path style="fill:#7D3415;" d="M3020.642,2866.792c4.05-1.8,8.55-3.6,12.6-5.4c2.25,20.25,0.9,41.4,10.35,59.85
		c9.9,19.8,26.1,35.55,40.05,53.1c-6.3,1.8-12.6,2.25-18.9,1.35c-16.65-19.8-33.75-40.5-42.3-65.25
		C3017.492,2896.492,3018.842,2881.192,3020.642,2866.792L3020.642,2866.792z"/>
	<path style="fill:#752F1C;" d="M1652.642,2887.042c10.8,3.15,21.6,6.75,32.4,10.35c4.5,10.8,7.2,22.5,13.95,32.4
		c17.1,6.3,36,3.15,53.55,3.6c-26.55,5.4-53.1-3.15-79.65,3.15c-6.75-16.65-14.4-32.4-20.7-49.05L1652.642,2887.042z"/>
	<path style="fill:#793315;" d="M3424.292,2900.992c7.65-7.2,18.45-9.45,27.9-13.05c1.35,1.35,3.6,4.5,4.95,6.3
		c-11.25,17.1-22.5,34.65-31.5,52.65c-17.55-4.95-36-6.3-54.45-6.75c10.8,0,21.15,0,31.95-0.9c6.3-13.05,11.25-27,20.7-38.25
		H3424.292z"/>
	<path style="fill:#C75728;" d="M3425.642,2946.892c9-18.45,20.25-35.55,31.5-52.65c24.3,22.05,39.6,51.75,53.1,81.45
		c18,38.25,30.15,79.2,35.1,121.5c1.8,16.2,4.5,32.4,7.2,49.05c17.1,64.8,35.1,130.95,33.3,198.45c0,17.1-7.65,33.75-21.15,44.1
		c-18,2.7-38.25,6.3-54-4.95c-13.05-10.35-22.5-24.75-28.8-40.05c-16.65-40.5-25.2-83.7-37.35-125.55
		c-6.3-45.9-17.55-91.35-18-137.7c40.5,22.95,84.15,41.4,121.5,69.75c0-5.4-0.9-11.25-0.9-16.65c-14.4-7.65-27.45-17.55-40.5-27
		c-24.75-17.55-53.55-27.9-81-40.5c-0.9-5.4-1.8-10.8-2.25-16.2c0-16.65,0-33.75,0.9-50.4c1.35-17.55,0.9-35.1,1.8-52.65H3425.642z"
		/>
	<path style="fill:#983D20;" d="M1675.592,2986.042c41.85-22.5,85.5-40.5,131.4-52.65c68.4,18.9,138.6,32.4,208.8,42.75
		c-75.15,33.75-152.1,63-232.2,83.7c-33.75,8.1-67.95,15.75-102.6,12.6c0.9,2.25,2.25,7.2,2.7,9.45c-2.25-4.5-4.95-8.55-7.2-12.6
		c0.45,16.2,7.2,37.8-10.8,46.8c2.7-17.55,4.95-35.55,6.75-53.1c-2.25,0-7.2,0.9-9.45,1.35c2.25-2.7,4.95-5.85,7.2-8.55
		c-2.25,0-6.3,0-8.55,0c3.6-2.7,7.65-5.4,11.25-8.1c1.35-20.7,2.7-41.4,2.25-62.1L1675.592,2986.042z"/>
	<path style="fill:#953C1F;" d="M3196.142,2959.942c32.4-7.2,64.8-14.85,96.75-24.75c45.9,17.1,91.8,35.1,131.4,64.35
		c-0.9,16.65-0.9,33.3-0.9,50.4c-2.7,8.1-5.85,16.2-9,24.3c-41.4,3.15-81.45-9.45-121.5-20.25c-44.1-12.6-86.85-28.8-128.7-46.8
		c-23.4-10.35-48.15-18-71.1-30.15c33.75-8.55,68.85-9,103.05-16.65L3196.142,2959.942z"/>
	<path style="fill:#7B3817;" d="M1345.292,3007.642c47.25-18.9,95.4-36.45,145.35-47.7c-0.45,4.5-1.35,8.55-1.8,13.05l-3.15,0.9
		c-42.75,11.25-84.15,25.65-125.1,41.85c-6.75,2.7-13.95,3.6-21.15,3.6c1.35-2.7,4.5-8.55,5.85-11.25L1345.292,3007.642z"/>
	<path style="fill:#7F381C;" d="M3620.492,2962.192c28.35,5.4,55.35,15.3,82.35,24.75c22.5,8.55,46.8,16.2,64.35,33.3
		c0.9,1.8,2.25,5.85,3.15,8.1c-47.7-20.25-95.4-39.6-145.35-53.55c0,3.6-1.35,9.9-1.8,13.5c-1.8-6.3-4.05-12.6-5.4-18.45
		c0.45-1.8,2.25-5.4,2.7-7.2L3620.492,2962.192z"/>
	<path style="fill:#C85829;" d="M1361.042,3015.292c40.95-16.2,82.35-30.6,125.1-41.85c-0.9,10.8-2.25,21.6-5.85,32.4
		c-19.35,64.35-42.75,127.35-72.45,187.65c-13.95,30.15-29.25,62.1-57.15,81.45c-18.9,11.25-40.95,9.9-61.2,4.05
		c-7.65-9-17.1-17.1-18.9-29.25c-4.5-22.5,2.7-45.45,7.2-67.5c16.2-55.8,36.45-110.7,61.2-162.9h0.9c7.2,0,14.4-0.45,21.15-3.6
		V3015.292z"/>
	<path style="fill:#C75628;" d="M3624.992,2974.792c49.95,13.95,97.65,33.75,145.35,53.55c15.3,27.9,25.2,58.5,36.45,88.2
		c12.6,37.35,24.3,75.6,28.35,115.2c3.15,15.75-1.8,31.5-7.65,45.9c-4.95,2.7-9.9,5.4-14.85,8.1c-19.35,10.8-42.3,4.95-60.3-5.4
		c-18.9-18-33.3-40.05-45-63c-33.75-73.8-66.15-149.4-83.7-229.05c0-3.15,1.35-9.9,1.8-13.5L3624.992,2974.792z"/>
	<path style="fill:#8F3A1D;" d="M4027.292,3021.142c22.5,0.9,41.85-9.9,58.95-23.4c21.15,52.65,19.35,111.15,11.25,166.5
		c-7.2,39.15-15.3,78.3-31.5,114.75l-4.5,2.25C4053.842,3193.942,4033.142,3108.442,4027.292,3021.142z"/>
	<path style="fill:#8B391D;" d="M1034.342,2999.992c17.55,11.7,37.35,22.95,59.4,22.05c-5.85,87.3-23.4,173.25-32.85,260.1
		c-8.55-4.05-9-14.85-12.6-22.95c-21.15-65.7-34.2-135-27.9-203.85c1.8-18.9,6.3-37.8,13.5-55.35L1034.342,2999.992z"/>
	<path style="fill:#913A1E;" d="M3413.942,3073.792c3.15-8.1,6.3-16.2,9-24.3c0.9,5.4,1.35,10.8,2.25,16.2
		c27.45,12.15,56.25,22.95,81,40.5c13.5,9.45,26.1,19.35,40.5,27c0,5.4,0.9,10.8,0.9,16.65c-37.35-28.35-81-46.8-121.5-69.75
		c0,46.8,11.7,91.8,18,137.7c-10.35,31.95-14.85,65.25-25.65,96.75c-7.2,22.5-16.2,49.05-40.95,57.15
		c-21.6,40.5-58.5,69.75-96.75,92.7c-14.4,8.55-28.8,17.55-45,22.5c35.55-45.45,71.55-90,109.35-133.65
		c-7.2-25.2-3.6-51.75,0.9-77.4c14.85-69.75,35.1-138.6,67.5-202.05L3413.942,3073.792z"/>
	<path style="fill:#783020;" d="M1545.992,3111.142c35.55-24.3,73.8-45,116.1-54.9c2.25,0,6.3,0,8.55,0
		c-2.25,2.7-4.95,5.85-7.2,8.55c-38.25,21.15-79.2,36-117.9,56.7c0-1.8-0.45-5.4-0.45-7.65l1.35-2.7H1545.992z"/>
	<path style="fill:#C75729;" d="M1662.992,3064.792c2.25,0,7.2-0.9,9.45-1.35c-1.8,17.55-3.6,35.55-6.75,53.1
		c-6.75,36.45-15.75,72.45-25.65,108c-16.2,46.8-25.2,100.8-63.45,135.9c-16.65,11.25-36.9,7.2-54.9,3.6c0,2.7,0,8.1,0.45,10.8
		c-3.15-18-22.5-28.8-20.7-49.05c-1.8-72.9,22.5-143.1,43.2-211.5c0,1.8,0.45,5.4,0.45,7.65c38.7-20.25,79.65-35.55,117.9-56.7
		V3064.792z"/>
	<path style="fill:#923C1F;" d="M1665.692,3116.542c18-9.45,11.7-30.6,10.8-46.8c2.7,4.05,4.95,8.1,7.2,12.6
		c18.45,36.9,30.15,76.95,39.6,117.45c9.45,46.35,18.9,92.7,21.15,139.95c0.9,17.1-2.25,33.75-8.55,49.95
		c9,12.15,17.55,24.3,25.2,36.9c-0.9,4.95-1.35,9.45-2.25,14.4c-10.35-6.75-20.25-15.3-32.4-17.55c-6.3,0.9-12.15,5.4-18,8.1
		c-4.05-8.55-6.75-18.45-12.6-26.1c-18.45-5.85-25.65-24.75-31.05-41.4c-13.95-45-18.45-92.25-25.65-138.6
		c9.9-35.55,18.9-71.55,25.65-108L1665.692,3116.542z"/>
	<path style="fill:#8D381C;" d="M1289.492,3278.992c20.25,6.3,42.3,7.2,61.2-4.05c38.7,81,75.15,163.35,109.35,246.6
		c-30.15-19.35-54.45-46.35-79.2-71.55C1338.092,3401.392,1298.042,3345.142,1289.492,3278.992L1289.492,3278.992z"/>
	<path style="fill:#8F391D;" d="M3751.892,3279.892c18,9.9,41.4,16.2,60.3,5.4c-9.45,63.9-48.15,118.8-89.55,166.5
		c-24.75,26.55-50.85,52.65-80.55,73.8c18.45-49.5,42.3-97.2,63.45-145.8C3720.392,3346.492,3735.242,3312.742,3751.892,3279.892
		L3751.892,3279.892z"/>
	<path style="fill:#8F381D;" d="M1521.242,3364.042c18.45,3.6,38.7,7.65,54.9-3.6c18.9,37.8,35.55,76.95,52.2,115.65
		c16.65,40.5,36,79.65,51.75,120.6c-4.95-1.35-9-3.15-12.6-6.3c-26.55-22.5-50.85-47.7-73.35-74.7
		c-35.1-40.05-63.45-87.75-72-140.85c0-2.7,0-8.1-0.45-10.8H1521.242z"/>
	<path style="fill:#8E381C;" d="M3510.692,3383.392c15.75,10.8,36,7.2,54,4.95c-6.75,61.2-45,113.4-85.05,157.95
		c-22.5,23.4-45,48.6-74.25,64.8c35.1-76.05,65.7-153.9,105.3-227.25V3383.392z"/>
	<path style="fill:#8B371B;" d="M1708.892,3430.642c5.85-2.7,11.25-6.75,18-8.1c12.15,2.25,22.05,11.25,32.4,17.55
		c0.9-4.95,1.35-9.9,2.25-14.4c28.8,44.55,58.05,88.65,85.05,134.1c-4.05-1.35-8.1-3.6-12.15-5.4
		C1785.842,3521.092,1738.142,3483.292,1708.892,3430.642z"/>
</g>
</svg>
