<?xml version="1.0" encoding="utf-8"?>
<!-- Generator: Adobe Illustrator 27.5.0, SVG Export Plug-In . SVG Version: 6.00 Build 0)  -->
<svg version="1.1" id="Layer_1" xmlns="http://www.w3.org/2000/svg" xmlns:xlink="http://www.w3.org/1999/xlink" x="0px" y="0px"
	 viewBox="0 0 2000 2000" style="enable-background:new 0 0 2000 2000;" xml:space="preserve">
<g>
	<polygon style="fill:#58574B;" points="1037.847,577.675 1034.114,729.332 996.121,782.308 942.52,835.238 1106.387,896.286 
		1177.743,914.959 1303.596,926.809 1428.823,922.449 1488.953,903.755 1580.547,847.067 1702.063,762.986 1788.983,717.526 
		1800.185,717.526 1792.695,816.544 1743.477,914.959 1690.233,983.163 1765.906,1028.646 1807.655,1077.841 1834.444,1138.6 
		1841.936,1195.265 1819.507,1203.36 1750.967,1187.796 1637.235,1138.6 1458.429,1077.841 1402.032,1085.938 1383.338,1138.6 
		1307.331,1191.553 1291.744,1191.553 1200.777,1241.062 1155.605,1278.428 1128.816,1324.516 1121.326,1369.999 1125.081,1449.741 
		1117.591,1468.415 1090.8,1475.905 1060.276,1472.15 976.779,1377.492 908.887,1256.022 829.726,1267.203 825.364,1267.203 
		821.632,1270.958 904.504,1301.482 916.333,1332.006 889.567,1411.704 863.067,1400.523 840.951,1377.492 810.405,1415.462 
		768.679,1373.734 707.608,1270.958 601.993,1263.468 598.259,1259.757 586.406,1274.716 582.695,1320.781 571.47,1332.006 
		540.946,1316.421 476.766,1244.774 279.534,1165.389 191.697,1108.077 165.533,1077.841 158.064,1051.7 161.778,1013.709 
		187.962,983.163 279.534,914.959 388.906,869.497 601.993,804.714 749.984,789.755 753.696,793.51 768.679,786.02 863.067,638.095 
		912.599,581.387 973.044,539.659 1003.568,524.095 1018.527,527.807 1037.847,577.675 	"/>
	<polygon style="fill:#C3D5BC;" points="916.333,626.893 908.887,638.095 912.599,641.807 1011.035,554.619 1018.527,554.619 
		1018.527,565.823 935.028,641.807 923.803,660.815 931.293,668.308 988.629,607.572 1018.527,581.387 1026.645,588.877 
		942.52,672.019 942.52,679.51 946.88,683.244 1022.262,611.911 1030.357,611.911 1030.357,623.113 950.615,698.831 
		950.615,710.033 954.327,713.768 1018.527,649.925 1022.262,649.925 1030.357,641.807 1030.357,664.573 976.779,710.033 
		965.551,721.238 965.551,724.995 976.779,724.995 1030.357,683.244 1022.262,706.301 980.511,748.027 996.121,748.027 
		1014.792,729.332 992.34,767.326 927.558,827.748 814.162,800.98 783.638,793.51 787.351,771.083 871.161,645.565 931.293,577.675 
		980.511,547.151 1003.568,539.659 1011.035,539.659 916.333,626.893 	"/>
	<polygon style="fill:#CDB0BF;" points="1781.491,816.544 1731.648,911.225 1686.453,964.489 1667.781,983.163 1671.516,994.388 
		1716.688,1009.975 1769.661,1047.945 1807.655,1104.342 1826.977,1157.295 1826.977,1187.796 1765.906,1180.326 1599.242,1115.544 
		1481.485,1074.13 1481.485,960.129 1477.751,934.279 1477.751,922.449 1595.509,850.802 1660.291,800.98 1785.226,733.09 
		1792.695,755.496 1781.491,816.544 	"/>
	<polygon style="fill:#A8A690;" points="1481.485,964.803 1742.224,891.301 1731.648,911.225 1686.453,964.489 1667.781,983.163 
		1671.516,994.388 1716.688,1009.975 1786.478,1061.361 1481.485,1025.225 	"/>
	<polygon style="fill:#C3D5BC;" points="859.332,824.036 1155.605,922.449 1280.519,937.723 1436.291,934.279 1447.204,930.544 
		1458.429,930.544 1466.503,975.716 1458.429,1066.639 1318.535,1085.938 1200.777,1111.809 1189.573,1119.279 1177.743,1119.279 
		1189.573,1104.342 1189.573,1100.561 1185.817,1096.849 1173.988,1096.849 1151.87,1127.373 1037.847,1199 973.044,1225.498 
		923.803,1241.062 874.896,1252.287 799.203,1256.022 787.351,1244.774 749.984,1236.679 707.608,1244.774 711.969,1259.757 
		598.259,1252.287 548.39,1214.271 487.97,1184.061 468.648,1180.326 449.954,1195.265 461.181,1221.763 313.211,1169.124 
		210.996,1108.077 184.228,1085.938 187.962,1081.599 173.003,1066.639 173.003,1055.435 191.697,1074.13 203.55,1074.13 
		207.284,1070.395 191.697,1047.945 173.003,1028.646 176.761,1009.975 275.822,930.544 426.923,869.497 601.993,816.544 
		700.139,800.98 757.475,804.714 859.332,824.036 	"/>
	<polygon style="fill:#ADD3D6;" points="205.113,1110.87 199.792,1047.34 263.658,1020.551 327.545,1009.975 412.902,994.074 
		444.655,1031.128 434.078,1110.87 391.412,1142.96 316.946,1164.137 	"/>
	<g>
		<path style="fill:#B8D0D7;" d="M230.964,1112.436c-1.273-18.069-2.817-35.825-4.383-53.871
			c18.069-7.804,36.138-15.294,54.228-22.74c18.381-3.13,36.427-6.24,54.496-9.056c24.016-4.653,48.302-9.036,72.609-13.686
			c9.033,10.6,18.046,21.154,27.103,31.753c-3.11,22.743-6.24,44.835-9.056,67.601c-12.143,9.011-24.286,18.067-36.429,27.103
			c-20.886,6.217-42.062,12.12-63.239,18.046C294.516,1142.646,262.719,1127.687,230.964,1112.436z"/>
		<path style="fill:#BFC9D3;" d="M257.128,1113.98c-1.252-14.962-2.482-29.585-3.755-44.524
			c14.96-5.926,29.919-12.164,44.856-18.381c14.983-2.505,29.922-4.987,44.858-7.492c19.97-3.712,39.58-7.467,59.527-11.202
			c7.47,8.743,14.962,17.419,22.429,26.184c-2.482,18.36-4.964,36.72-7.467,55.415c-9.974,7.467-19.947,14.96-29.922,22.429
			c-17.128,4.985-34.572,9.949-52.014,14.937C309.455,1138.891,283.291,1126.457,257.128,1113.98z"/>
		<path style="fill:#C3BFCC;" d="M283.291,1115.544c-0.939-11.539-1.857-23.368-2.796-34.884
			c11.518-4.674,23.368-9.661,35.197-14.648c11.518-1.878,23.368-3.712,34.886-5.59c15.898-3.13,31.486-5.926,47.05-9.033
			c5.926,6.865,11.829,13.707,17.465,20.549c-1.903,14.648-3.758,28.96-5.635,43.606c-7.783,5.903-15.878,11.829-23.682,17.755
			c-13.686,3.735-27.08,7.804-40.81,11.516C324.415,1135.156,303.863,1125.518,283.291,1115.544z"/>
		<path style="fill:#C9B9C6;" d="M309.455,1117.11c-0.605-8.431-1.566-16.817-2.171-25.539c8.408-3.107,17.13-6.551,25.562-10.286
			c8.697-1.253,17.128-2.817,25.536-4.36c11.516-1.878,22.72-4.048,34.259-6.24c4.046,4.987,8.431,9.975,12.768,14.962
			c-1.543,10.286-2.796,20.863-4.337,31.463c-5.635,4.337-11.227,8.699-17.153,13.082c-9.972,2.794-19.633,5.589-29.606,8.408
			C339.375,1131.445,324.415,1124.266,309.455,1117.11z"/>
	</g>
	<polygon style="fill:#CDB0BF;" points="335.64,1118.965 334.076,1102.798 350.265,1096.245 366.164,1093.451 387.654,1089.671 
		395.437,1098.727 392.955,1118.965 382.064,1126.771 363.661,1132.047 	"/>
	<path style="fill:#ADD3D6;" d="M278.618,934.593l-100.316,70.081l65.119-14.982l90.342-9.929l125.225,4.964
		c0,0,250.499-4.964,275.701-4.964c24.955,0,370.446,39.871,370.446,39.871h350.792l-30.212-55.144l-160.132-19.924l-110.289-19.947
		l-200.632-75.359l-129.922-34.884l-140.187-15.273l-90.342,20.261l-115.253,29.896l-120.261,45.126L278.618,934.593z"/>
	<g>
		<path style="fill:#A9C4C1;" d="M335.64,932.713c-29.606,19.926-58.879,39.894-88.173,59.797
			c19.008-4.362,38.016-8.699,57.315-12.748c26.475-3.13,52.639-5.947,79.137-8.743c36.764,1.587,73.527,2.796,110.268,4.36
			c0,0,220.286-4.36,242.402-4.36c22.116,0,325.544,34.281,325.544,34.281c102.819,0,205.931,0,308.75,0
			c-9.033-15.901-17.755-31.486-26.498-47.027c-47.027-5.635-94.076-11.227-141.103-16.84
			c-32.426-5.903-64.514-11.516-96.895-17.128c-58.879-21.467-117.467-42.667-176.323-63.844
			c-38.014-9.975-76.344-19.947-114.358-29.899c-41.124-4.36-82.224-8.408-123.371-12.768
			c-26.164,5.612-52.639,11.225-79.117,17.128c-33.968,8.408-67.599,16.817-101.255,25.539
			c-35.511,12.768-70.729,25.536-105.906,38.305C382.667,909.995,358.987,921.511,335.64,932.713z"/>
		<path style="fill:#A1B3AB;" d="M392.641,931.172c-25.225,16.189-50.762,32.692-76.007,48.882
			c16.503-3.421,33.006-6.842,49.239-10.577c23.034-2.191,45.754-4.674,68.54-6.865c31.753,1.253,63.216,2.191,94.992,3.421
			c0,0,190.053-3.421,209.061-3.421c19.008,0,281,28.042,281,28.042c88.778,0,177.285,0,266.04,0
			c-7.469-12.768-15.25-25.85-22.72-38.618c-40.498-4.674-81.017-9.347-121.827-14.021c-27.73-4.674-55.749-9.347-83.5-13.998
			c-50.784-17.465-101.232-35.197-152.017-52.662c-33.029-8.074-65.43-16.192-98.436-24.6
			c-35.534-3.421-71.043-6.842-106.554-10.263c-22.743,4.674-45.506,9.324-68.226,13.998c-29.294,6.865-58.588,14.021-87.548,20.865
			c-30.524,10.6-60.734,21.177-91.28,31.486C433.137,912.163,412.902,921.845,392.641,931.172z"/>
		<path style="fill:#98A396;" d="M449.64,929.292c-21.177,12.771-42.687,25.539-63.864,38.641
			c13.73-2.817,27.751-5.635,41.458-8.429c19.299-1.88,38.307-3.735,57.606-5.278c26.498,0.605,53.287,1.543,79.765,2.482
			c0,0,159.841-2.482,175.719-2.482c16.189,0,236.455,21.781,236.455,21.781c74.441,0,148.93,0,223.685,0
			c-6.529-9.975-12.768-20.238-19.32-30.189c-33.947-3.755-68.226-7.49-102.15-10.911c-23.391-3.735-47.07-7.492-70.441-11.204
			c-42.665-13.707-85.041-27.416-127.73-41.123c-27.728-6.531-55.122-13.082-82.872-19.299c-29.922-2.817-59.484-5.635-89.403-8.429
			c-19.322,3.755-38.307,7.467-57.626,10.911c-24.33,5.592-48.928,11.204-73.527,16.817c-25.56,8.095-51.119,16.503-76.655,24.598
			C483.631,914.669,466.794,921.845,449.64,929.292z"/>
		<path style="fill:#8D9282;" d="M506.664,927.414c-17.151,9.347-34.572,18.694-51.7,28.042c11.202-1.855,22.429-3.735,33.654-5.903
			c15.564-1.275,31.128-2.817,46.713-4.048c21.513,0.605,42.981,1.232,64.491,2.171c0,0,129.588-2.171,142.67-2.171
			c12.791,0,191.283,16.192,191.283,16.192c60.445,0,120.888,0,181.311,0c-5.278-7.47-10.243-14.96-15.541-22.115
			c-27.439-2.819-55.167-5.301-82.874-8.097c-19.006-2.503-38.014-5.299-57.022-8.095c-34.572-9.995-69.165-19.947-103.424-29.896
			c-22.138-4.674-44.545-9.347-67.308-14.021c-23.995-2.194-48.279-4.048-72.275-5.926c-15.587,2.503-31.149,5.299-46.713,7.781
			c-19.97,4.048-39.871,8.117-59.527,12.166c-20.865,5.903-41.414,12.12-62.323,18.044
			C534.392,916.837,520.685,922.136,506.664,927.414z"/>
	</g>
	<path style="fill:#80806F;" d="M563.686,925.871l-39.557,17.421l25.827-3.712l35.555-2.505l49.823,1.253
		c0,0,99.064-1.253,109.015-1.253c9.995,0,146.759,9.972,146.759,9.972h138.935l-12.141-13.707l-63.241-4.964l-43.917-4.987
		l-79.163-19.008l-51.387-8.72l-55.749-3.735l-35.511,4.964l-45.818,7.49l-47.677,11.204L563.686,925.871z"/>
	<polygon style="fill:#58574B;" points="457.446,964.489 473.01,1089.671 442.484,1149.779 430.634,1157.295 381.416,1157.295 
		377.702,1161.007 370.212,1161.007 370.212,1149.779 415.695,1138.6 464.936,1085.938 449.954,968.247 408.228,918.715 
		388.906,914.959 377.702,914.959 366.477,926.809 362.743,1024.911 350.89,1044.233 325.04,1059.147 290.761,1055.435 
		260.214,1024.911 260.214,983.163 298.228,948.927 328.752,948.927 343.423,956.394 350.89,964.489 358.987,948.927 
		355.252,918.715 355.252,907.513 362.743,903.755 408.228,907.513 457.446,964.489 	"/>
	<polygon style="fill:#FFCA05;" points="355.252,994.388 347.158,1028.646 332.196,1044.233 298.228,1044.233 279.534,1028.646 
		271.439,1021.177 275.822,983.163 294.516,964.489 309.455,960.129 339.688,968.247 355.252,994.388 	"/>
	<polygon style="fill:#231F20;" points="339.688,994.388 335.931,1024.911 317.55,1032.381 298.228,1028.646 287.026,1013.709 
		290.761,983.163 301.986,975.716 332.196,979.451 339.688,994.388 	"/>
	<polygon style="fill:#C3D5BC;" points="1378.978,1123.638 1360.283,1096.849 1356.549,1096.849 1356.549,1111.809 
		1371.508,1131.108 1367.753,1134.866 1367.753,1138.6 1340.964,1104.342 1337.229,1104.342 1333.517,1108.077 1352.814,1142.333 
		1356.549,1146.047 1352.814,1149.779 1345.347,1149.779 1314.821,1111.809 1311.065,1115.544 1337.229,1157.295 1326.025,1161.007 
		1284.276,1115.544 1284.276,1131.108 1314.821,1169.124 1303.596,1176.571 1257.485,1119.279 1249.995,1127.373 1288.011,1180.326 
		1276.807,1187.796 1261.199,1180.326 1227.566,1131.108 1223.831,1127.373 1219.471,1127.373 1215.737,1131.108 1215.737,1142.333 
		1257.485,1195.265 1242.525,1195.265 1204.511,1146.047 1200.777,1142.333 1193.307,1149.779 1238.791,1207.094 1223.831,1207.094 
		1185.817,1161.007 1177.743,1153.56 1177.743,1169.124 1219.471,1218.006 1208.267,1221.763 1200.777,1221.763 1159.34,1169.124 
		1155.605,1169.124 1155.605,1184.061 1193.307,1229.233 1185.817,1236.679 1136.285,1180.326 1132.551,1184.061 1173.988,1248.529 
		1170.253,1248.529 1162.761,1256.022 1117.591,1195.265 1113.879,1191.553 1110.121,1191.553 1113.879,1207.094 1155.605,1263.468 
		1148.115,1270.958 1090.8,1207.094 1087.067,1210.85 1136.285,1286.523 1128.816,1293.992 1064.011,1221.763 1060.276,1225.498 
		1094.535,1274.716 1121.326,1305.217 1117.591,1320.781 1052.786,1244.774 1049.051,1241.062 1041.581,1248.529 1113.879,1335.741 
		1110.121,1354.415 1106.387,1460.923 1064.011,1460.923 980.511,1362.509 923.803,1259.757 1079.575,1195.265 1148.115,1149.779 
		1227.566,1119.279 1378.978,1089.671 1383.338,1089.671 1378.978,1123.638 	"/>
	<polygon style="fill:#BFC9D3;" points="575.202,1259.757 571.47,1312.687 556.508,1312.687 491.725,1241.062 473.01,1203.36 
		468.648,1199 476.766,1195.265 552.775,1232.968 575.202,1259.757 	"/>
	<polygon style="fill:#BFC9D3;" points="855.577,1297.75 897.035,1312.687 904.504,1332.006 882.388,1392.428 810.405,1343.21 
		730.663,1259.757 741.867,1252.287 787.351,1263.468 855.577,1297.75 	"/>
	<polygon style="fill:#B2C3D1;" points="814.162,1396.163 799.203,1392.428 738.132,1301.482 726.928,1282.788 825.364,1373.734 
		814.162,1396.163 	"/>
	<path style="fill:#80806F;" d="M202.922,989.109l160.739-69.477l152.665-54.496l123.057-28.042l77.26-10.577l104.699,16.212
		l116.192,28.935l132.09,42.69l135.827,20.238h48.279l-98.125-12.143l-155.458-60.443l-142.065-42.958l-21.177-6.24l-79.43-8.095
		l-81.017-7.49l-97.207,19.32L423.188,863.28l-147.366,67.265L202.922,989.109L202.922,989.109z M1419.14,934.593h40.228
		l-0.939-4.048h-11.225l-10.913,3.735L1419.14,934.593z"/>
	<path style="fill:#6D6D60;" d="M412.902,983.163c19.297-5.278,38.619-11.204,58.565-14.021
		c166.663-10.242-38.932-16.192,128.021-16.794l143.652-11.204c31.442,1.253,292.515,14.939,323.062,22.429
		c22.429,6.531,193.765,13.998,249.2,17.733l72.923,10.891c28.042,4.987,57.94,6.842,84.729,17.778
		c-24.598,9.949-60.443,4.36-86.921,3.735c-33.631-1.88-69.77-0.941-102.798-7.179c-28.353-5.903-50.157-10.577-79.451-9.638
		l-157.338,4.964c-85.645-8.385-171.65-19.59-257.318-22.095C663.689,976.632,538.127,990.653,412.902,983.163z"/>
	<path style="fill:#FFCA05;" d="M455.589,999.375c37.993-27.73,130.526-3.735,191.574-18.694
		c28.98-3.735,165.433,1.587,199.401,14.96c67.287,10.286,4.026,15.564,66.997,46.402c-78.199-6.554-176.971-22.409-266.397-13.396
		C588.598,1024.263,511.652,1017.442,455.589,999.375z"/>
	<polygon style="fill:#ADD3D6;" points="1440.964,1068.494 1467.776,1020.551 1392.999,1015.25 1265.268,1009.975 1206.703,1015.25 
		1190.511,1057.917 1190.511,1110.87 1350.311,1073.795 	"/>
	<g>
		<path style="fill:#C3D5BC;" d="M1439.109,1065.096c7.781-13.396,15.273-27.103,22.764-40.498
			c-21.22-1.564-42.397-3.13-63.596-4.674c-36.116-1.564-72.252-3.107-108.725-4.674c-16.503,1.566-33.026,3.11-49.532,4.674
			c-4.674,12.143-9.347,24.309-13.707,36.138c0,15.25,0,30.21,0,45.17c45.193-10.6,90.678-20.886,135.848-31.463
			C1388.034,1068.203,1413.571,1066.639,1439.109,1065.096z"/>
		<path style="fill:#D2D5A0;" d="M1437.252,1061.966c6.24-11.204,12.457-22.406,18.674-33.633
			c-17.444-1.253-34.863-2.503-52.014-3.735c-29.922-1.23-59.841-2.482-89.739-3.732c-13.684,1.25-27.414,2.503-41.124,3.732
			c-3.735,9.975-7.176,19.926-10.891,29.899c0,12.457,0,24.934,0,36.741c37.054-8.095,74.466-16.794,111.832-25.536
			C1395.167,1064.471,1416.053,1063.218,1437.252,1061.966z"/>
		<path style="fill:#E4D480;" d="M1435.375,1058.565c4.964-8.766,9.952-17.442,14.646-26.498c-13.73-0.939-27.1-1.855-40.81-2.796
			c-23.681-0.939-47.05-1.878-70.417-2.794c-10.911,0.916-21.511,1.855-32.401,2.794c-2.796,7.783-5.613,15.564-8.722,23.347
			c0,9.972,0,19.633,0,29.294c29.271-6.865,58.565-13.709,87.86-20.552C1402.346,1060.422,1418.849,1059.461,1435.375,1058.565z"/>
		<path style="fill:#F2CF53;" d="M1433.497,1055.124c3.755-6.217,7.156-12.771,10.911-19.008
			c-9.972-0.939-19.947-1.543-29.919-2.171c-17.107-0.625-34.258-1.564-51.098-2.168c-8.095,0.604-15.876,1.543-23.659,2.168
			c-2.192,5.615-4.046,11.204-6.215,17.13c0,6.842,0,14.021,0,21.177c21.177-4.987,42.665-9.952,63.864-14.96
			C1409.502,1056.688,1421.645,1056.063,1433.497,1055.124z"/>
	</g>
	<polygon style="fill:#FFCA05;" points="1431.64,1052.014 1438.482,1039.871 1419.788,1038.598 1387.721,1037.368 
		1373.052,1038.598 1369.026,1049.218 1369.026,1062.591 1409.211,1053.244 	"/>
	<polygon style="fill:#ADD3D6;" points="913.56,999.375 886.748,1004.674 934.737,1084.395 924.114,1169.436 870.873,1233.279 
		929.438,1227.98 1030.671,1190.903 1147.801,1148.238 1185.19,1094.995 1206.703,1036.427 1190.511,1004.674 	"/>
	<g>
		<path style="fill:#A1C9CD;" d="M945.002,1018.046c-7.469,1.275-14.939,2.819-22.743,4.383
			c13.707,22.72,27.416,45.483,40.833,67.578c-2.817,24.284-5.949,48.279-9.056,72.563c-14.939,18.069-30.233,36.138-45.149,54.182
			c16.503-1.541,33.006-2.794,49.823-4.337c28.667-10.6,57.313-21.199,85.982-31.776c33.34-12.166,66.369-24.307,99.712-36.136
			c10.554-15.25,21.177-30.212,31.753-45.486c5.926-16.189,11.829-32.669,18.09-49.509c-4.674-9.056-9.056-18.067-13.73-27.08
			C1102.027,1020.865,1023.515,1019.322,945.002,1018.046z"/>
		<path style="fill:#94C0C4;" d="M976.465,1036.427c-5.903,1.253-12.143,2.482-18.36,3.735
			c11.204,18.694,22.115,37.389,33.342,55.772c-2.528,19.924-5.01,39.848-7.492,59.772c-12.164,14.96-24.62,29.608-37.075,44.545
			c13.684-1.25,27.416-2.482,40.787-3.732c23.681-8.722,47.363-17.444,71.045-25.853c27.414-9.972,54.831-19.924,81.933-29.873
			c8.743-12.48,17.442-24.934,26.187-37.391c4.964-13.73,9.949-27.1,14.937-40.81c-3.735-7.467-7.469-14.914-11.204-22.429
			C1106.073,1038.909,1041.27,1037.68,976.465,1036.427z"/>
		<path style="fill:#8AB7BA;" d="M1008.241,1055.124c-4.964,0.939-9.952,2.168-14.625,3.13
			c8.722,14.623,17.419,29.248,26.164,43.583c-1.878,15.587-3.758,31.149-5.612,46.713c-9.975,11.829-19.636,23.659-29.274,35.197
			c10.579-0.939,21.467-1.878,32.09-2.794c18.671-6.844,37.055-13.73,55.749-20.574c21.49-7.781,43.001-15.564,64.491-23.345
			c6.865-9.972,13.707-19.61,20.552-29.271c3.755-10.913,7.804-21.177,11.539-32.09c-2.796-5.903-5.906-11.539-8.722-17.419
			C1109.808,1057.292,1059.026,1056.063,1008.241,1055.124z"/>
		<path style="fill:#7FAEB2;" d="M1039.704,1073.795c-3.398,0.648-7.156,1.564-10.6,2.191c6.551,10.6,12.768,20.863,19.322,31.776
			c-1.543,11.202-3.11,22.741-4.339,33.945c-7.179,8.743-14.334,17.128-21.534,25.516c8.118-0.582,15.921-1.232,23.702-2.171
			c13.396-4.964,26.791-9.949,40.498-14.602c15.564-5.947,31.149-11.559,46.736-17.151c4.988-7.179,9.952-14.334,14.937-21.49
			c2.819-7.804,5.635-15.564,8.745-23.031c-2.214-4.383-4.383-8.431-6.551-12.791
			C1113.542,1075.359,1076.779,1074.443,1039.704,1073.795z"/>
	</g>
	<polygon style="fill:#74A5A9;" points="1071.503,1092.176 1064.659,1093.451 1076.779,1113.352 1073.985,1134.866 
		1060.59,1150.741 1075.215,1149.489 1100.751,1140.141 1130.068,1129.565 1139.416,1116.171 1144.714,1101.523 1140.645,1093.451 	
		"/>
	<polygon style="fill:#ADD3D6;" points="450.291,1115.544 476.766,1015.25 668.653,1032.067 860.25,1037.68 929.438,1082.224 
		950.926,1143.565 913.56,1227.332 849.694,1244.192 604.787,1244.192 444.655,1182.517 	"/>
	<g>
		<path style="fill:#B8D0D7;" d="M474.574,1111.184c7.783-28.042,15.587-56.688,23.368-85.043
			c56.083,4.674,112.146,9.347,168.229,14.021c56.083,1.566,112.166,3.421,168.229,4.987c19.947,12.455,40.185,25.246,60.443,37.993
			c6.24,17.151,12.457,34.281,18.717,51.723c-10.934,23.97-21.825,47.652-32.738,71.311c-18.695,4.674-37.075,9.661-55.77,14.334
			c-71.647,0-143.295,0-214.965,0c-46.715-17.442-93.451-34.884-140.187-52.325C471.467,1149.198,473.01,1130.192,474.574,1111.184z
			"/>
		<path style="fill:#BFC9D3;" d="M499.172,1106.824c6.574-23.034,13.419-46.402,19.97-70.083
			c48.256,4.048,96.581,7.783,144.547,11.829c48.279,1.23,96.268,2.505,144.547,4.048c17.465,10.286,34.907,20.863,51.7,31.172
			c5.635,13.998,10.936,28.332,16.212,42.667c-9.347,19.59-18.694,39.223-27.728,58.856c-16.189,3.735-32.067,7.781-48.279,11.516
			c-61.361,0-123.057,0-184.418,0c-40.207-14.312-80.392-28.644-120.575-42.978C496.399,1138.287,497.942,1122.7,499.172,1106.824z"
			/>
		<path style="fill:#C3BFCC;" d="M523.815,1102.798c5.59-18.404,11.204-36.786,16.817-55.121
			c40.205,3.084,80.39,6.194,120.575,9.324c40.475,0.916,80.66,1.855,120.843,2.796c14.648,8.406,29.294,16.503,43.651,24.598
			c4.651,11.225,9.013,22.429,13.373,33.631c-7.783,15.273-15.564,30.86-23.368,46.111c-13.373,3.087-26.789,6.217-40.185,9.033
			c-51.7,0-103.11,0-154.499,0c-33.654-11.225-66.997-22.429-100.651-33.631C521.624,1127.062,522.54,1114.919,523.815,1102.798z"/>
		<path style="fill:#C9B9C6;" d="M548.079,1098.439c4.696-13.105,9.079-26.5,13.73-39.873c32.401,2.171,64.782,4.339,97.207,6.531
			c32.09,0.605,64.469,1.543,96.893,2.169c11.829,5.926,23.347,12.166,35.2,18.069c3.421,7.781,7.156,15.898,10.911,24.284
			c-6.551,11.227-12.791,22.118-19.008,33.343c-10.911,2.168-21.511,4.674-32.401,6.819c-41.458,0-82.872,0-124.019,0
			c-27.103-8.385-54.205-16.48-80.972-24.575C546.535,1116.171,547.497,1107.115,548.079,1098.439z"/>
	</g>
	<polygon style="fill:#CDB0BF;" points="572.72,1094.053 582.985,1069.122 656.51,1073.481 729.724,1074.757 756.513,1085.938 
		764.63,1100.898 750.296,1122.097 725.675,1126.121 631.913,1126.121 570.842,1110.87 	"/>
	<path style="fill:#FFFFFF;" d="M319.116,975.379c6.238,0,11.225,5.301,11.225,11.852c0,6.531-4.987,12.143-11.225,12.143
		c-6.24,0-11.541-5.612-11.541-12.143C307.575,980.68,312.876,975.379,319.116,975.379z"/>
	<path style="fill:#B2C3D1;" d="M965.551,1335.406l133.657-17.13l14.671,17.465l-3.758,18.674l-3.735,106.508h-42.376l-83.5-98.413
		L965.551,1335.406L965.551,1335.406z M1113.879,1316.421l3.712,4.36l1.253-4.964L1113.879,1316.421z"/>
	<path style="fill:#D2D5A0;" d="M971.164,1345.402c4.383,6.217,8.117,12.434,10.623,18.36l0.895,1.564
		c0.962-5.926,5.322-15.564,5.322-25.536c0,5.612,21.49,26.789,21.49,32.067l5.299-5.278v-5.299v-5.301
		c5.301,0,15.878,21.2,26.478,21.2v-42.667c0,5.278,5.276,10.891,10.911,16.192v-26.791c0,5.278,10.577,15.878,15.878,15.878
		l5.299-10.6c5.301,0,10.6,5.322,10.6,10.6l2.168-37.389l-44.545-53.871l7.47-7.467l3.735,3.712l34.281,40.542l0.939-19.656
		l-27.73-40.162l3.735-3.735l24.934,27.998l0.291-5.569l5.299-5.612c3.109,0,6.217-0.65,9.347-1.901l-16.814-25.83l3.732-3.755
		l22.429,24.932c4.362-2.169,9.036-4.046,13.419-4.046c0-0.939,0.291-1.901,0.602-2.796l-13.37-18.09l-3.758-15.541h3.758
		l3.712,3.712l15.273,20.258c3.107-3.755,7.467-7.781,12.454-11.85l-12.768-19.613l3.735-3.735l15.898,18.069
		c3.11-2.191,6.551-4.383,9.975-6.531l-6.553-7.804v-14.937h3.735l13.082,16.794c5.926-2.796,11.204-4.653,15.273-5.592
		l-9.952-11.202v-15.564l8.074,7.447l9.347,11.202c2.482-3.084,5.299-6.528,8.429-9.638l-10.286-12.791l7.469-7.447l3.735,3.714
		l6.551,8.429c3.735-3.735,6.24-6.238,6.24-6.238c0-1.232,0-2.191,0.625-3.423l-2.191-2.482v-11.225l3.735-3.735h4.36l3.735,3.735
		l0.314,0.337c0-2.819,0-7.806-0.604-12.166l-79.16,30.501l-68.54,45.486l-155.772,64.491L971.164,1345.402z"/>
	<path style="fill:#D2D5A0;" d="M832.232,704.107l17.462-13.707l-5.322,58.565c5.322-5.299,21.2-21.511,31.776-21.511
		c0,10.62-21.177,21.511-21.177,32.111c5.278,0,15.901-10.6,21.177-10.6c0,5.301,10.6,21.177,10.6,31.776
		c5.301,0,5.301,5.278,5.301,10.913c10.888,0,26.789,5.255,37.389,5.255c0,5.299,2.794,14.96,4.985,24.621l-6.865,6.217
		L814.162,800.98l-30.524-7.47l3.712-22.427L832.232,704.107z"/>
	<path style="fill:#F38480;" d="M1488.953,936.761c18.069-17.128,32.717-26.141,55.749-35.197
		c11.225-5.278,20.863-13.707,31.172-20.551c20.261-11.829,39.246-22.72,57.94-37.052c10.286-6.217,23.972-11.852,33.32-19.322
		c3.444-2.482,5.322-6.551,8.431-9.347c22.115-21.467,55.456-31.753,82.247-45.461c2.794-1.857,21.177-15.564,21.802-15.564
		c0.939,3.712-15.273,16.503-19.008,18.985c-24.284,14.937-57.626,27.103-77.573,47.966c-3.421,3.735-6.238,8.408-9.949,11.852
		c-9.347,7.781-23.079,13.998-33.343,20.549C1593.318,887.252,1538.485,908.115,1488.953,936.761z"/>
	<path style="fill:#F38480;" d="M1490.185,950.157c10.307-9.013,22.45-14,34.593-19.926c56.688-37.7,121.493-65.721,176.01-107.156
		c3.444-2.796,6.24-6.844,9.975-9.661c20.572-14.312,46.422-21.154,66.994-35.174h0.314c-13.73,15.271-34.593,23.345-51.744,34.884
		c-11.518,7.156-20.217,15.587-31.128,23.368c-25.248,19.61-51.746,35.488-78.201,52.639
		c-29.919,14.312-60.757,29.251-89.403,46.088C1515.14,940.205,1502.348,944.253,1490.185,950.157z M1490.185,950.157"/>
	<path style="fill:#F38480;" d="M1493.001,959.19c38.328-16.794,75.068-34.258,112.457-53.869
		c26.478-12.48,50.16-27.707,77.283-39.246c11.829-5.301,20.238-12.457,32.381-17.778c15.898-7.133,37.389-12.745,50.471-23.659
		l0.625,0.314c-8.406,12.455-34.259,22.115-47.966,29.585c-11.829,5.926-19.947,13.73-31.463,19.633
		c-15.878,7.47-28.042,14.96-42.69,24.307c-19.32,9.952-38.953,18.985-58.252,28.623c-9.661,4.987-19.633,6.554-29.294,10.623
		c-3.735,1.543-6.531,4.674-10.265,6.217c-4.985,1.878-10.286,2.169-15.271,3.735
		C1517.912,952.639,1507.022,957.313,1493.001,959.19z"/>
	<path style="fill:#F38480;" d="M1499.532,970.104c20.886-16.503,46.757-20.865,71.356-30.524
		c30.21-14.334,62.634-22.409,93.449-35.2c24.621-9.034,48.927-19.006,73.236-28.644c1.878-0.627,3.732-0.314,5.59-0.314
		c-13.707,6.842-25.536,14.625-39.871,20.551c-42.063,22.741-85.043,33.945-128.67,51.387
		C1549.689,955.769,1524.152,960.443,1499.532,970.104z"/>
	<path style="fill:#F38480;" d="M1504.831,977.885c36.763-14.625,75.405-23.972,113.084-35.823
		c31.486-7.469,63.262-20.217,94.724-26.791c-13.082,11.829-33.029,15.587-49.532,21.177c-32.09,13.709-63.866,24.62-98.75,29.922
		C1544.097,970.415,1525.403,975.716,1504.831,977.885z M1504.831,977.885"/>
	<path style="fill:#F38480;" d="M1507.647,985.979c25.852-13.707,63.866-15.564,92.535-19.947c24.284-1.23,48.279-5.59,72.586-6.842
		C1620.732,980.992,1562.48,979.137,1507.647,985.979z"/>
	<path style="fill:#F38480;" d="M1495.483,1003.421c19.008-3.107,36.764-8.72,55.458-11.516
		c34.906-4.674,69.479-4.069,104.362-3.107c-7.156,4.36-13.059,3.107-21.177,4.023c-27.416,4.071-54.519,7.179-82.247,8.722
		C1531.642,1002.482,1515.744,1007.133,1495.483,1003.421z"/>
	<path style="fill:#F38480;" d="M1510.152,1019.322c15.541-2.505,30.524-3.13,46.088-6.554c44.568-8.095,87.86-5.276,132.718-2.482
		c20.26,4.362,21.176,4.048-0.625,4.63c-43.606,2.817-87.525,1.275-130.84,5.635
		C1540.028,1022.429,1527.594,1021.781,1510.152,1019.322z"/>
	<path style="fill:#F38480;" d="M1507.647,1033.945c69.167-10.263,137.08-9.949,206.558-6.238c20.235,4.069,21.467,4.36-0.291,4.36
		c-39.582,2.168-79.162,4.048-118.406,2.819C1565.901,1035.488,1536.921,1038.33,1507.647,1033.945z"/>
	<path style="fill:#F38480;" d="M1522.295,1048.57c15.878-0.625,31.44-1.543,47.654-3.421c38.328-4.696,80.39,0,118.07,8.095
		c30.86,5.903,60.443,11.539,90.051,21.804v0.311c-9.056,3.11-31.776-4.36-42.397-6.238c-45.776-5.278-90.946-12.12-136.766-17.421
		C1572.766,1050.761,1548.146,1055.124,1522.295,1048.57z"/>
	<path style="fill:#F38480;" d="M1510.152,1061.966c26.455-4.674,47.027-4.362,73.527-1.543c16.814,0.939,32.692,0,48.882,3.107
		c16.84,3.735,33.029,8.722,49.868,11.829c28.019,3.11,50.471,9.347,76.007,20.574c11.225,4.046,23.345,5.299,34.258,10.891
		c-21.804,0-43.919-8.385-64.157-14.939c-27.751-5.299-55.144-6.238-82.581-14.044
		C1603.915,1066.639,1553.735,1063.53,1510.152,1061.966z"/>
	<path style="fill:#F38480;" d="M1530.056,1069.77c7.49,1.543,16.837,4.987,23.993,5.589c14.334,1.253,30.233,0.314,45.193,1.253
		c25.852,6.531,55.146,8.408,79.43,18.383l100.942,37.052c-34.593-11.202-70.709-14.937-104.99-26.475
		c-33.027-12.768-71.938-20.552-107.47-24.911C1550.941,1079.431,1545.038,1076.925,1530.056,1069.77L1530.056,1069.77z
		 M1689.897,1099.018l89.717,33.029c10.263,3.421,22.115,8.745,33.029,9.661v-0.314
		C1773.687,1118.965,1731.02,1113.352,1689.897,1099.018L1689.897,1099.018z"/>
	<path style="fill:#F38480;" d="M1524.777,1081.913c29.271,1.543,61.696,4.674,90.028,11.202
		c28.356,5.903,53.29,18.694,80.995,27.417c36.473,13.082,71.961,30.21,109.373,40.81c4.049,1.23,7.469,3.4,11.539,5.301
		c-14.669-2.819-29.294-5.301-43.629-9.056c-34.593-13.687-70.729-23.368-106.24-34.886c-18.381-8.72-33.945-15.876-53.601-20.863
		C1584.282,1093.115,1554.362,1090.007,1524.777,1081.913z"/>
	<path style="fill:#80806F;" d="M1482.111,991.28c2.796-7.806,4.36-18.069,7.493-25.248c3.398-7.758,39.223-56.037,47.317-52.639
		c0,1.275-12.768,21.513-14,23.368c-7.49,12.166-18.695,22.743-26.789,34.259c-2.191,3.444-2.505,7.469-4.673,10.6
		C1489.266,985.666,1485.511,988.148,1482.111,991.28z"/>
	<path style="fill:#80806F;" d="M1508.275,988.148c2.505-8.095,4.046-18.044,7.156-25.223c3.735-8.095,39.266-56.374,47.363-52.639
		c0,0.939-12.771,21.197-14.023,23.054c-7.467,12.164-18.715,22.743-26.789,34.593c-1.855,3.087-2.505,7.135-4.36,10.556
		C1515.14,982.267,1511.361,985.04,1508.275,988.148z"/>
	<path style="fill:#80806F;" d="M1534.148,984.727c2.459-7.781,4.026-18.067,7.447-25.223c3.444-7.783,38.953-56.353,47.07-52.641
		c0,1.253-12.791,21.513-13.753,23.057c-7.758,12.477-18.985,23.031-26.766,34.57c-2.168,3.11-2.482,7.469-4.674,10.579
		C1540.99,978.823,1537.255,981.619,1534.148,984.727z"/>
	<path style="fill:#80806F;" d="M1561.227,981.306c2.796-7.804,4.337-17.733,7.469-24.911c3.444-8.118,39.266-56.374,47.361-52.639
		c0,0.939-12.768,21.177-14.021,23.054c-7.469,12.12-18.672,22.743-26.789,34.572c-2.191,3.107-2.482,7.156-4.36,10.577
		C1568.383,975.716,1564.671,978.489,1561.227,981.306z"/>
	<path style="fill:#80806F;" d="M1589.894,980.68c2.796-7.76,4.339-17.756,7.47-24.911c3.444-8.095,39.246-56.374,47.363-52.619
		c0,0.895-13.082,21.156-14.021,23.034c-7.804,12.143-18.674,22.743-26.791,34.572c-2.191,3.107-2.503,7.176-4.673,10.577
		C1597.05,975.068,1593.318,977.885,1589.894,980.68z"/>
	<path style="fill:#80806F;" d="M1622.589,977.571c2.505-7.781,4.069-18.067,7.179-25.223c3.755-8.095,39.266-56.374,47.361-52.641
		c0,0.941-12.791,21.49-13.707,23.034c-7.804,12.477-19.008,22.763-26.812,34.572c-2.169,3.13-2.482,7.49-4.674,10.62
		C1629.477,971.645,1625.719,974.464,1622.589,977.571z"/>
	<path style="fill:#80806F;" d="M1645.957,978.175c2.505-7.76,4.046-18.046,7.179-25.225c3.755-7.781,39.266-56.06,47.338-52.616
		c0,1.23-12.745,21.511-14.021,23.368c-7.467,12.143-18.672,22.72-26.766,34.236c-2.191,3.444-2.482,7.492-4.383,10.6
		C1652.822,972.606,1649.087,975.068,1645.957,978.175z"/>
	<path style="fill:#80806F;" d="M1670.577,978.823c2.505-7.804,4.046-17.756,7.179-24.911c3.712-8.095,39.244-56.397,47.361-52.639
		c0,0.916-12.791,21.177-14.021,23.034c-7.49,12.141-18.694,22.741-26.812,34.593c-2.168,3.087-2.505,7.133-4.36,10.577
		C1677.442,973.211,1673.685,976.007,1670.577,978.823z"/>
	<path style="fill:#80806F;" d="M1484.907,990.028c14.334,21.49,30.524,38.953,41.437,62.277l-0.314,0.314
		C1507.022,1040.453,1484.907,1013.082,1484.907,990.028z"/>
	<path style="fill:#80806F;" d="M1500.157,985.354c14.334,21.49,30.547,38.909,41.437,62.323l-0.291,0.268
		C1522.295,1035.825,1500.157,1008.385,1500.157,985.354z"/>
	<path style="fill:#80806F;" d="M1530.056,987.545c14.332,21.49,30.544,38.596,41.458,62.254l-0.314,0.337
		C1552.194,1037.993,1530.056,1010.6,1530.056,987.545z"/>
	<path style="fill:#80806F;" d="M1553.444,988.148c14.334,21.49,30.526,38.621,41.437,62.3l-0.314,0.314
		C1575.562,1038.598,1553.444,1011.204,1553.444,988.148z"/>
	<path style="fill:#80806F;" d="M1574.019,984.727c14.334,21.513,30.524,38.955,41.414,62.614l-0.314,0.337
		C1596.134,1035.177,1574.019,1008.095,1574.019,984.727z"/>
	<path style="fill:#80806F;" d="M1602.685,984.124c14.312,21.467,30.524,38.909,41.414,62.591l-0.312,0.311
		C1624.78,1034.572,1602.685,1007.492,1602.685,984.124z"/>
	<path style="fill:#80806F;" d="M1636.609,991.592c14.334,21.49,30.524,38.932,41.458,62.279l-0.311,0.311
		C1658.748,1042.042,1636.609,1014.648,1636.609,991.592z"/>
	<path style="fill:#80806F;" d="M1661.23,992.196c14.021,21.513,30.233,38.932,41.435,62.591l-0.311,0.337
		C1683.345,1042.667,1661.23,1015.25,1661.23,992.196z"/>
	<path style="fill:#80806F;" d="M1689.585,996.893c14.332,21.467,30.524,38.932,41.749,62.568l-0.625,0.337
		C1711.701,1047.34,1689.897,1020.238,1689.585,996.893z"/>
	<path style="fill:#80806F;" d="M1481.485,1018.694c8.408,11.204,16.189,22.72,22.429,36.093l-0.337,0.337
		c-7.447-4.676-15.25-11.852-22.093-19.947V1018.694z"/>
	<path style="fill:#80806F;" d="M1479.606,945.817c9.661-11.539,19.322-21.199,23.368-19.633c0,1.23-13.08,21.49-14.021,23.054
		c-2.168,3.712-4.674,7.156-7.467,10.577L1479.606,945.817z"/>
	<path style="fill:#6D6D60;" d="M821.632,719.694c12.455-8.118,34.593-22.743,34.593-28.019c0,9.324-24.934,39.848-30.21,50.762
		l34.236-34.886c-2.796,12.143-21.177,23.973-21.177,38.598c0,26.812,11.829-13.059,15.898-17.108l15.901-13.393
		c0,5.276-2.819,8.095-5.301,12.12c-31.776,51.721,4.025,0,31.776-13.373c-5.299,18.694-26.475,29.271-26.475,50.448
		c5.276-9.347,30.524-28.042,30.524-39.848c6.842,6.528-15.901,51.991-19.947,65.094c0,1.566,1.253-2.503,1.253-3.755
		c4.046-12.143,12.141-36.116,23.97-41.414c0,17.419-13.082,36.113-13.082,50.761c6.531,0,42.376-37.368,41.146-32.067
		c-4.069,13.373-15.898,26.475-21.177,38.595c0-12.12,15.878-18.671,19.903-26.766c2.503,12.143-5.278,22.741-5.278,33.297
		c6.551-10.556,18.694-13.059,28.042-19.903c0,9.036-14.021,17.13-14.648,26.141l50.762-47.652l16.84-28.332
		c-0.939-0.314-2.191-0.314-3.421-0.605l-9.638,9.638h-15.61l23.368-23.368c0-0.291,0-0.605,0-0.916l-11.83-1.543
		c0-3.758,1.253-5.322,4.071-7.804c-0.962-0.962-1.589-2.171-1.589-3.11l-17.753,13.709h-11.227v-3.758l11.227-11.204l9.034-7.49
		c1.252-1.543,2.191-3.421,2.191-4.339c-5.01,0-6.217-8.72-5.612-12.477l-28.064,28.042l-3.712-3.735v-11.202l17.442-16.503h-2.796
		h-1.273c0-5.322,2.817-7.804,5.322-11.852l-9.034,0.314l-13.396,12.454l-4.36-3.735v-1.855c-2.191,0.602-4.383,1.543-4.987,2.168
		c-1.566,0-2.796-1.566-4.069-1.566c0-5.276,1.564-10.911,4.36-16.503l-6.531,6.554l-7.49-7.492l11.225-19.008l18.092-16.503
		c-2.505-3.398-0.962-9.347,1.541-14.937l-7.781,0.916l-34.281,30.524l-3.712-3.712l7.447-11.202l0,0l32.401-29.899
		c2.191-2.505,4.696-4.987,4.696-6.551c-10.62,0-23.993,5.278-33.34,10.577c1.23-3.735,15.876-15.878,21.488-15.878
		c0-4.674,0-9.324,0.627-13.998l-10.913,6.531l-60.132,67.89L821.632,719.694L821.632,719.694z M943.122,671.706l-0.311,0.314
		c-0.291-0.314-0.918-0.314-1.232-0.314H943.122z"/>
	<path style="fill:#6D6D60;" d="M944.689,1297.436c0.314-1.253,0.625-2.796,0.625-4.048c13.709,6.844,14.335,19.299,12.143,27.394
		l20.886,37.702c0.627,0.314,1.253,0.916,1.878,1.253c1.232,1.543,6.554,4.026,6.554,5.59c2.459,0,6.528-6.842,8.072-8.095
		c3.758,1.253,3.758,9.347,7.804,4.048c2.796,5.299,9.347,10.577,13.373,14.646c1.253-4.069,6.531-12.164,6.531-16.189
		c6.888,9.324,8.118,23.973,14.646,33.32c0-6.554,2.819-13.105,2.819-19.947c0,19.947,26.498,42.688,26.498,63.843
		c0-13.061-9.347-27.707-3.758-43.896c29.294,43.896,18.383,4.046,3.758-25.225c4.026,13.373,6.842-21.199,10.891-34.572
		l3.734,4.026c0-4.026,2.817-8.095,5.612-10.554c1.253,0,3.735,1.23,5.299,1.23c0-14.648,5.301,1.23,5.301-12.143
		c-1.589,0-1.589-2.505-4.048-2.505c0-0.916-0.625-2.168-0.939-3.421l-40.496-48.591c-0.337,1.25-0.65,2.482-1.253,4.069
		c0-2.191-1.566-5.612-2.191-8.408l-0.291-0.648c0,10.891,2.191,28.042-1.589,35.511l-14.623-13.082v18.381
		c-2.482-2.482-10.6-10.6-11.829-14.646l1.23,28.042c-5.301-2.482-11.829-9.347-13.373-14.648l-1.275,32.09
		c-4.026-2.796-9.347-6.865-10.554-12.143v21.467c-10.623,0-14.669-16.189-17.465-22.72c0,5.278-2.505,13.396-2.505,18.694
		c-8.095,0-13.373-22.741-14.646-26.789c-2.482,4.964-4.048,8.699-5.278,11.807L944.689,1297.436z"/>
	<path style="fill:#6D6D60;" d="M769.931,1261.3c5.276,5.903,11.516,14.332,18.067,18.694c4.026,2.482,8.699,3.421,12.768,5.903
		c3.421,2.505,6.24,5.926,9.638,8.095c24.957,14.334,55.167,23.077,77.887,41.414l-0.291,0.671
		c-19.633-5.322-37.412-14.044-56.083-20.595c-7.783-3.735-18.383-7.447-25.559-12.434c-4.026-2.817-7.156-7.179-11.204-10.6
		c-3.755-2.817-8.118-4.046-11.516-7.133C776.146,1278.742,773.016,1270.333,769.931,1261.3z"/>
	<path style="fill:#6D6D60;" d="M761.814,1270.647c19.32,8.406,33.34,16.814,48.904,31.149c9.034,7.469,20.863,12.434,30.86,19.299
		c15.562,10.6,30.21,23.993,46.422,33.32v0.334c-5.612,3.087-74.466-36.473-84.125-45.797
		C790.167,1295.558,775.835,1283.727,761.814,1270.647z"/>
	<path style="fill:#6D6D60;" d="M763.355,1284.041c19.345,11.204,36.159,24.911,55.167,36.741
		c17.442,13.082,34.281,24.934,50.784,39.246c4.964,3.13,10.263,5.612,14.021,10.263l-0.939,0.314
		c-21.49-7.447-39.58-21.467-59.504-32.692C802.937,1322.659,777.689,1304.592,763.355,1284.041z"/>
	<path style="fill:#6D6D60;" d="M937.533,967.285c45.149,21.825,62.3,73.168,61.07,122.386l-4.697,95.643h-0.916
		c-2.819-38.955-4.362-73.816-9.347-114c-4.362-10.577-13.709-32.067-18.383-46.715
		C958.419,1007.133,951.554,979.451,937.533,967.285z"/>
	<path style="fill:#6D6D60;" d="M1004.193,977.885c4.048,4.674,7.156,10.263,12.143,14.021c5.635,4.36,23.993-13.082,28.355-7.49
		c3.444,4.383,1.564,22.429,4.36,27.103c3.13,5.633,2.819,12.745,3.444,19.924c5.278,26.162,4.048,56.688,3.107,79.428
		l-2.503,37.368h-2.191c-2.148-32.067-6.531-61.05-7.135-93.115c-5.299-11.204-6.574-21.513-11.225-32.09
		c-2.796-5.301-2.192-11.829-5.299-16.794c-3.11-4.987-9.974-5.926-14.021-10.286
		C1008.553,990.966,1006.675,984.124,1004.193,977.885z"/>
	<path style="fill:#6D6D60;" d="M1078.659,977.885c41.435,3.735,49.218,37.68,47.989,74.734
		c-0.939,23.993,1.878,47.943-10.286,69.165l-0.941-0.627c3.423-14.041,2.796-22.718,1.88-36.761
		c-0.939-25.83-14.357-58.565-19.008-84.081c-0.939-4.674,13.082,0.314,9.952-3.421
		C1101.399,988.461,1088.317,982.558,1078.659,977.885z"/>
	<path style="fill:#6D6D60;" d="M1158.735,983.163c13.687,6.528,24.286,15.876,26.455,31.753c0.939,6.865-1.23,13.73-0.605,20.572
		c0.605,5.926,3.714,11.227,4.048,17.13c0.314,5.299-1.543,10.6-2.505,15.876h-1.855c-0.962-5.276-0.962-10.891-2.505-15.876
		c-1.253-5.278-5.299-9.661-6.531-14.939c-2.817-11.85-13.707-33.945-19.633-45.17
		C1151.87,985.666,1162.158,990.653,1158.735,983.163z M1158.735,983.163"/>
	<path style="fill:#6D6D60;" d="M1238.479,983.163c35.823,21.199,34.259,43.606,27.103,80.056h-0.627
		c-3.444-17.755-16.503-53.58-23.054-70.397C1237.852,983.163,1244.069,992.196,1238.479,983.163z"/>
</g>
</svg>
