<?xml version="1.0" encoding="utf-8"?>
<!-- Generator: Adobe Illustrator 27.5.0, SVG Export Plug-In . SVG Version: 6.00 Build 0)  -->
<svg version="1.1" id="Layer_1" xmlns="http://www.w3.org/2000/svg" xmlns:xlink="http://www.w3.org/1999/xlink" x="0px" y="0px"
	 viewBox="0 0 500 500" style="enable-background:new 0 0 500 500;" xml:space="preserve">
<g>
	<linearGradient id="SVGID_1_" gradientUnits="userSpaceOnUse" x1="163.298" y1="273.9968" x2="333.3094" y2="261.226">
		<stop  offset="0" style="stop-color:#66BDFF"/>
		<stop  offset="0.3238" style="stop-color:#4387BA"/>
		<stop  offset="1" style="stop-color:#A5DFE8"/>
	</linearGradient>
	<path style="fill:url(#SVGID_1_);" d="M335.224,368.843c-2.395-17.96,2.793-35.52,0-46.745
		c-2.795-11.222-9.179-29.482-8.381-49.835c0.798-20.353,4.391-51.881,0-69.841c-4.391-17.958-17.56-39.909-18.758-49.885
		c-1.198-9.977-1.595-59.864-26.739-75.827c-25.142-15.965-42.702-28.305-90.991-13.14c-48.29,15.167-37.151,57.439-23.982,67.416
		c13.17,9.977,34.358,37.513,36.752,55.474c2.395,17.958-6.385,29.532-5.188,45.495c1.197,15.965,0,69.043,6.385,77.024
		c6.385,7.981,13.569,34.323,13.17,42.697c-0.399,8.377-7.184,26.744-7.184,35.525c0,8.779,0,54.076,0,54.076
		c0,18.626,12.272,33.723,27.41,33.723c7.938,0,14.949-4.291,19.953-10.924C262.677,470.709,269.69,475,277.628,475
		c7.938,0,14.949-4.291,19.953-10.924c5.004,6.634,12.017,10.924,19.956,10.924c15.135,0,27.407-15.097,27.407-33.723
		C344.944,441.277,337.617,386.801,335.224,368.843z"/>
	<path style="opacity:0.2;fill:#FFFFFF;" d="M344.944,441.277c0,0-7.327-54.476-9.72-72.434c-2.395-17.96,2.793-35.52,0-46.745
		c-2.795-11.222-9.179-29.482-8.381-49.835c0.798-20.353,4.391-51.881,0-69.841c-4.391-17.958-17.56-39.909-18.758-49.885
		c-1.198-9.977-1.595-59.864-26.739-75.827c-24.421-15.508-41.929-27.378-87.158-14.158c13.26,3.45,25.352,7.683,30.615,10.754
		c11.315,6.597,11.847,2.87,21.425,8.193c9.577,5.32,10.022,6.072,18.844,14.21c8.824,8.138,10.942,0.214,13.613,15.588
		c2.673,15.376,3.727,6.386,4.259,23.946c0.532,17.558-6.484,22.964-3.507,34.63c2.975,11.663,2.975,12.581,8.295,23.033
		c5.32,10.449,10.163,20.026,11.733,32.266c1.57,12.238-2.102,14.367,0,23.946c2.102,9.577,3.166,14.967,5.295,28.5
		c2.127,13.535,1.064,5.554,2.659,20.453c1.598,14.899-6.331,20.746-7.954,32.989c-1.623,12.242,0.507,0.534,7.422,26.076
		c6.918,25.542,5.854,11.327,8.515,39.986c2.659,28.657,2.129,25.189,1.064,31.714c-1.064,6.522,4.257,12.908-11.706,18.228
		c-15.962,5.322-26.607-3.191-44.165-1.064c-17.56,2.127-2.661-5.32-23.414,2.661c-7.649,2.941-16.666,2.975-25.302,2.186
		C215.282,464.712,225.34,475,237.719,475c7.938,0,14.949-4.291,19.953-10.924C262.677,470.709,269.69,475,277.628,475
		c7.938,0,14.949-4.291,19.953-10.924c5.004,6.634,12.017,10.924,19.956,10.924C332.672,475,344.944,459.903,344.944,441.277z"/>
	<path style="opacity:0.2;fill:#01002E;" d="M227.482,56.919c-10.238,0.109-22.081,1.927-37.128,6.652
		c-8.023,2.52-13.896,5.956-18.901,9.702C180.906,79.958,222.183,71.904,227.482,56.919z"/>
	<path style="opacity:0.2;fill:#01002E;" d="M257.673,464.076C262.677,470.709,269.69,475,277.628,475
		c7.938,0,14.949-4.291,19.953-10.924c5.004,6.634,12.017,10.924,19.956,10.924c15.135,0,27.407-15.097,27.407-33.723
		c0,0-0.123-0.9-0.25-1.857c-5.67,6.625-12.849,14.644-24.157,16.485c-22.883,3.725-24.823-6.181-38.125,2.863
		c-13.304,9.047-36.716-4.257-36.716-4.257s-21.286,4.788-26.607-15.431c-5.321-20.221,10.643-68.643,14.899-95.662
		c4.257-27.019-11.706-30.45-19.688-52.799c-7.982-22.348-3.193-68.643,3.193-95.25c6.386-26.605-11.706-60.128-29.266-69.173
		c-13.574-6.995-25.352-31.087-20.26-50.053c-20.684,18.908-12.03,46.936-1.593,54.842c13.17,9.977,34.357,37.513,36.752,55.474
		c2.395,17.958-6.385,29.532-5.188,45.495c1.197,15.965,0,69.043,6.385,77.024c6.385,7.981,13.569,34.323,13.17,42.697
		c-0.399,8.377-7.184,26.744-7.184,35.525c0,8.779,0,54.076,0,54.076c0,18.626,12.272,33.723,27.41,33.723
		C245.658,475,252.668,470.709,257.673,464.076z"/>
	<defs>
		<filter id="Adobe_OpacityMaskFilter" filterUnits="userSpaceOnUse" x="239.598" y="93.066" width="59.867" height="102.665">
			<feFlood  style="flood-color:white;flood-opacity:1" result="back"/>
			<feBlend  in="SourceGraphic" in2="back" mode="normal"/>
		</filter>
	</defs>
	
		<mask maskUnits="userSpaceOnUse" x="239.598" y="93.066" width="59.867" height="102.665" id="SVGID_00000140001356496690242370000013781308352690821804_">
		<g style="filter:url(#Adobe_OpacityMaskFilter);">
			<defs>
				
					<filter id="Adobe_OpacityMaskFilter_00000001637585415488416870000008940307680667255193_" filterUnits="userSpaceOnUse" x="191.196" y="208.838" width="2.634" height="4.518">
					<feFlood  style="flood-color:white;flood-opacity:1" result="back"/>
					<feBlend  in="SourceGraphic" in2="back" mode="normal"/>
				</filter>
			</defs>
			
				<mask maskUnits="userSpaceOnUse" x="191.196" y="208.838" width="2.634" height="4.518" id="SVGID_00000140001356496690242370000013781308352690821804_">
				<g style="filter:url(#Adobe_OpacityMaskFilter_00000001637585415488416870000008940307680667255193_);">
				</g>
			</mask>
			
				<linearGradient id="SVGID_00000162349056870351865590000007403610409477974660_" gradientUnits="userSpaceOnUse" x1="191.1963" y1="211.0971" x2="193.8306" y2="211.0971">
				<stop  offset="0" style="stop-color:#FFFFFF"/>
				<stop  offset="1" style="stop-color:#000000"/>
			</linearGradient>
			
				<path style="mask:url(#SVGID_00000140001356496690242370000013781308352690821804_);fill:url(#SVGID_00000162349056870351865590000007403610409477974660_);" d="
				M192.977,209.329c0,0,0.287,0.959-0.272,2.206c-0.559,1.247-1.303,1.302-1.491,1.483c-0.188,0.181,1.17,0.66,1.813-0.001
				c0.643-0.661,0.716-0.444,0.766-1.444c0.05-1,0.039-1.617,0.027-1.705C193.809,209.779,193.753,208.001,192.977,209.329z"/>
		</g>
	</mask>
	
		<linearGradient id="SVGID_00000101825626562491714760000002114192866079755416_" gradientUnits="userSpaceOnUse" x1="239.5978" y1="144.3989" x2="299.4645" y2="144.3989">
		<stop  offset="0" style="stop-color:#01002E"/>
		<stop  offset="1" style="stop-color:#A5DFE8"/>
	</linearGradient>
	<path style="opacity:0.2;fill:url(#SVGID_00000101825626562491714760000002114192866079755416_);" d="M280.069,104.211
		c0,0,6.527,21.799-6.19,50.137c-12.715,28.341-29.6,29.6-33.877,33.709c-4.279,4.111,26.585,14.999,41.199-0.014
		c14.615-15.01,16.283-10.099,17.419-32.823c1.136-22.721,0.884-36.739,0.621-38.757
		C298.977,114.447,297.708,74.047,280.069,104.211z"/>
	<defs>
		
			<filter id="Adobe_OpacityMaskFilter_00000048503605410944960770000012183610435173340849_" filterUnits="userSpaceOnUse" x="239.62" y="94.464" width="50.905" height="98.441">
			<feFlood  style="flood-color:white;flood-opacity:1" result="back"/>
			<feBlend  in="SourceGraphic" in2="back" mode="normal"/>
		</filter>
	</defs>
	
		<mask maskUnits="userSpaceOnUse" x="239.62" y="94.464" width="50.905" height="98.441" id="SVGID_00000030473629118242378390000018307409961522565028_">
		<g style="filter:url(#Adobe_OpacityMaskFilter_00000048503605410944960770000012183610435173340849_);">
			<defs>
				
					<filter id="Adobe_OpacityMaskFilter_00000094593519730682703580000001142755185211412157_" filterUnits="userSpaceOnUse" x="191.197" y="208.9" width="2.24" height="4.332">
					<feFlood  style="flood-color:white;flood-opacity:1" result="back"/>
					<feBlend  in="SourceGraphic" in2="back" mode="normal"/>
				</filter>
			</defs>
			
				<mask maskUnits="userSpaceOnUse" x="191.197" y="208.9" width="2.24" height="4.332" id="SVGID_00000030473629118242378390000018307409961522565028_">
				<g style="filter:url(#Adobe_OpacityMaskFilter_00000094593519730682703580000001142755185211412157_);">
				</g>
			</mask>
			
				<linearGradient id="SVGID_00000013160875417325250110000000427294305205508750_" gradientUnits="userSpaceOnUse" x1="192.2078" y1="210.9714" x2="194.3327" y2="212.2709">
				<stop  offset="0" style="stop-color:#FFFFFF"/>
				<stop  offset="1" style="stop-color:#000000"/>
			</linearGradient>
			
				<path style="mask:url(#SVGID_00000030473629118242378390000018307409961522565028_);fill:url(#SVGID_00000013160875417325250110000000427294305205508750_);" d="
				M193.316,208.9c-0.094,0.069-0.205,0.2-0.339,0.429c0,0,0.287,0.959-0.272,2.206c-0.559,1.247-1.303,1.302-1.491,1.483
				c-0.059,0.057,0.045,0.142,0.222,0.213c0.131-0.018,0.265-0.041,0.385-0.055c0.299-0.035,0.509-0.369,0.615-0.404
				c0.105-0.035,0.632-0.702,0.632-0.702s0.123-0.316,0.158-0.474c0.035-0.158,0.176-0.808,0.176-0.808l0.035-0.843l-0.088-0.896
				C193.349,209.049,193.335,208.98,193.316,208.9z"/>
		</g>
	</mask>
	
		<linearGradient id="SVGID_00000106841971698815707340000013796834094284473526_" gradientUnits="userSpaceOnUse" x1="262.5862" y1="141.5419" x2="310.8757" y2="171.0743">
		<stop  offset="0" style="stop-color:#01002E"/>
		<stop  offset="1" style="stop-color:#A5DFE8"/>
	</linearGradient>
	<path style="opacity:0.3;fill:url(#SVGID_00000106841971698815707340000013796834094284473526_);" d="M287.773,94.464
		c-2.145,1.568-4.666,4.554-7.702,9.747c0,0,6.524,21.799-6.193,50.137c-12.715,28.341-29.6,29.6-33.877,33.711
		c-1.35,1.295,1.02,3.225,5.05,4.845c2.973-0.398,6.018-0.934,8.758-1.257c6.786-0.8,11.574-8.381,13.969-9.179
		c2.393-0.8,14.367-15.965,14.367-15.965s2.793-7.184,3.591-10.774c0.798-3.593,3.991-18.358,3.991-18.358l0.798-19.158
		l-1.995-20.353C288.53,97.862,288.202,96.291,287.773,94.464z"/>
	<path style="opacity:0.2;fill:#FFFFFF;" d="M210.229,251.251c-3.379,11.167-9.2,43.188,3.006,51.181
		c12.206,7.993,16.691,8.554,19.042,19.669c2.351,11.115,5.669-2.216,2.211,17.085c-3.457,19.301-3.321,18.958-6.155,31.084
		c-2.833,12.126-8.26,24.398-7.422,26.85c0.838,2.452,12.544-1.673,21.058-18.701c8.515-17.026,13.835-29.798,14.367-43.634
		c0.534-13.835-7.45-34.054-11.174-37.247c-3.725-3.193-1.02-5.972-5.566-10.17c-4.544-4.197-14.935-16.435-14.794-18.033
		C224.942,267.741,210.229,251.251,210.229,251.251z"/>
	<defs>
		
			<filter id="Adobe_OpacityMaskFilter_00000131350173817228725870000014131332254888499857_" filterUnits="userSpaceOnUse" x="235.052" y="302.516" width="53.29" height="95.253">
			<feFlood  style="flood-color:white;flood-opacity:1" result="back"/>
			<feBlend  in="SourceGraphic" in2="back" mode="normal"/>
		</filter>
	</defs>
	
		<mask maskUnits="userSpaceOnUse" x="235.052" y="302.516" width="53.29" height="95.253" id="SVGID_00000057110911700918382920000015367501176537499537_">
		<g style="filter:url(#Adobe_OpacityMaskFilter_00000131350173817228725870000014131332254888499857_);">
			<defs>
				
					<filter id="Adobe_OpacityMaskFilter_00000021802527114325727300000001173165880314054845_" filterUnits="userSpaceOnUse" x="190.996" y="218.055" width="2.345" height="4.191">
					<feFlood  style="flood-color:white;flood-opacity:1" result="back"/>
					<feBlend  in="SourceGraphic" in2="back" mode="normal"/>
				</filter>
			</defs>
			
				<mask maskUnits="userSpaceOnUse" x="190.996" y="218.055" width="2.345" height="4.191" id="SVGID_00000057110911700918382920000015367501176537499537_">
				<g style="filter:url(#Adobe_OpacityMaskFilter_00000021802527114325727300000001173165880314054845_);">
				</g>
			</mask>
			
				<linearGradient id="SVGID_00000090992884032684735860000001034430150492679821_" gradientUnits="userSpaceOnUse" x1="191.6087" y1="219.7514" x2="193.558" y2="222.5085">
				<stop  offset="0" style="stop-color:#FFFFFF"/>
				<stop  offset="1" style="stop-color:#000000"/>
			</linearGradient>
			
				<path style="mask:url(#SVGID_00000057110911700918382920000015367501176537499537_);fill:url(#SVGID_00000090992884032684735860000001034430150492679821_);" d="
				M190.996,222.246c0,0,0.804-0.728,0.938-0.904c0.133-0.176,0.621-0.983,0.579-1.229c-0.042-0.246,0.001-1.09,0.001-1.09
				s0.238-1.035,0.273-0.964c0.035,0.07,0.474,1.019,0.509,1.264c0.035,0.246,0.07,0.632,0.018,1.106
				c-0.053,0.474,0.053,0.544-0.193,0.825c-0.246,0.281-0.232,0.176-0.608,0.492S190.996,222.246,190.996,222.246z"/>
		</g>
	</mask>
	
		<linearGradient id="SVGID_00000112597331994766250100000015056971825052881554_" gradientUnits="userSpaceOnUse" x1="248.9698" y1="341.0747" x2="293.2691" y2="403.7321">
		<stop  offset="0" style="stop-color:#01002E"/>
		<stop  offset="1" style="stop-color:#A5DFE8"/>
	</linearGradient>
	<path style="opacity:0.3;fill:url(#SVGID_00000112597331994766250100000015056971825052881554_);" d="M235.052,397.769
		c0,0,18.275-16.553,21.311-20.544c3.034-3.993,14.122-22.351,13.167-27.937c-0.954-5.588,0.034-24.778,0.034-24.778
		s5.397-23.512,6.195-21.917c0.798,1.598,10.774,23.148,11.572,28.734c0.8,5.588,1.598,14.367,0.4,25.144
		c-1.198,10.774,1.198,12.372-4.391,18.758c-5.586,6.384-5.272,3.991-13.81,11.174C260.993,393.587,235.052,397.769,235.052,397.769
		z"/>
	<defs>
		
			<filter id="Adobe_OpacityMaskFilter_00000078756654899449061780000007631971617852006301_" filterUnits="userSpaceOnUse" x="252.255" y="407.511" width="76.024" height="26.802">
			<feFlood  style="flood-color:white;flood-opacity:1" result="back"/>
			<feBlend  in="SourceGraphic" in2="back" mode="normal"/>
		</filter>
	</defs>
	
		<mask maskUnits="userSpaceOnUse" x="252.255" y="407.511" width="76.024" height="26.802" id="SVGID_00000063592255995610132230000005715617240823104420_">
		<g style="filter:url(#Adobe_OpacityMaskFilter_00000078756654899449061780000007631971617852006301_);">
			<defs>
				
					<filter id="Adobe_OpacityMaskFilter_00000122719764997512008730000008439626705291317914_" filterUnits="userSpaceOnUse" x="191.753" y="222.675" width="3.345" height="1.179">
					<feFlood  style="flood-color:white;flood-opacity:1" result="back"/>
					<feBlend  in="SourceGraphic" in2="back" mode="normal"/>
				</filter>
			</defs>
			
				<mask maskUnits="userSpaceOnUse" x="191.753" y="222.675" width="3.345" height="1.179" id="SVGID_00000063592255995610132230000005715617240823104420_">
				<g style="filter:url(#Adobe_OpacityMaskFilter_00000122719764997512008730000008439626705291317914_);">
				</g>
			</mask>
			
				<linearGradient id="SVGID_00000093862548557182499890000003580735974711774641_" gradientUnits="userSpaceOnUse" x1="193.4203" y1="222.8843" x2="193.4997" y2="223.7702">
				<stop  offset="0" style="stop-color:#FFFFFF"/>
				<stop  offset="1" style="stop-color:#000000"/>
			</linearGradient>
			
				<path style="mask:url(#SVGID_00000063592255995610132230000005715617240823104420_);fill:url(#SVGID_00000093862548557182499890000003580735974711774641_);" d="
				M191.753,223.217c0,0,0.278-0.185,0.569-0.185c0.291,0,1.124,0.079,1.203,0.079c0.079,0,0.555-0.119,0.661-0.119
				c0.106,0,0.912-0.317,0.912-0.317s-0.291,0.635-0.595,0.873c-0.304,0.238-0.423,0.238-0.833,0.278
				c-0.41,0.04-0.569,0.013-0.807,0.026c-0.238,0.013-0.317-0.026-0.516-0.079C192.15,223.719,191.753,223.217,191.753,223.217z"/>
		</g>
	</mask>
	
		<linearGradient id="SVGID_00000150089455868071081960000017654295831249925013_" gradientUnits="userSpaceOnUse" x1="290.1416" y1="412.2722" x2="291.9446" y2="432.406">
		<stop  offset="0" style="stop-color:#01002E"/>
		<stop  offset="1" style="stop-color:#A5DFE8"/>
	</linearGradient>
	<path style="opacity:0.4;fill:url(#SVGID_00000150089455868071081960000017654295831249925013_);" d="M252.255,419.833
		c0,0,6.311-4.209,12.922-4.209s25.541,1.804,27.344,1.804c1.805,0,12.622-2.704,15.026-2.704c2.402,0,20.733-7.213,20.733-7.213
		s-6.611,14.424-13.522,19.833c-6.911,5.409-9.615,5.409-18.931,6.311c-9.315,0.902-12.922,0.3-18.331,0.6
		c-5.409,0.302-7.211-0.6-11.72-1.802C261.27,431.251,252.255,419.833,252.255,419.833z"/>
	<defs>
		
			<filter id="Adobe_OpacityMaskFilter_00000161621313202099540260000011893316791981585330_" filterUnits="userSpaceOnUse" x="250.148" y="192.905" width="63.825" height="85.942">
			<feFlood  style="flood-color:white;flood-opacity:1" result="back"/>
			<feBlend  in="SourceGraphic" in2="back" mode="normal"/>
		</filter>
	</defs>
	
		<mask maskUnits="userSpaceOnUse" x="250.148" y="192.905" width="63.825" height="85.942" id="SVGID_00000093888837658094330350000005501172780244089225_">
		<g style="filter:url(#Adobe_OpacityMaskFilter_00000161621313202099540260000011893316791981585330_);">
			<defs>
				
					<filter id="Adobe_OpacityMaskFilter_00000054244819949863274030000001203871558691939478_" filterUnits="userSpaceOnUse" x="191.66" y="213.232" width="2.808" height="3.782">
					<feFlood  style="flood-color:white;flood-opacity:1" result="back"/>
					<feBlend  in="SourceGraphic" in2="back" mode="normal"/>
				</filter>
			</defs>
			
				<mask maskUnits="userSpaceOnUse" x="191.66" y="213.232" width="2.808" height="3.782" id="SVGID_00000093888837658094330350000005501172780244089225_">
				<g style="filter:url(#Adobe_OpacityMaskFilter_00000054244819949863274030000001203871558691939478_);">
				</g>
			</mask>
			
				<linearGradient id="SVGID_00000008840394585682839850000009726212552120435369_" gradientUnits="userSpaceOnUse" x1="192.3638" y1="214.8389" x2="194.2604" y2="216.5774">
				<stop  offset="0" style="stop-color:#FFFFFF"/>
				<stop  offset="1" style="stop-color:#000000"/>
			</linearGradient>
			
				<path style="mask:url(#SVGID_00000093888837658094330350000005501172780244089225_);fill:url(#SVGID_00000008840394585682839850000009726212552120435369_);" d="
				M191.66,216.249c0,0,0.951-0.755,1.127-0.984c0.176-0.228,0.858-1.345,0.776-1.522c-0.082-0.177-0.126-0.512-0.126-0.512
				s0.948,0.963,0.966,1.701c0.018,0.737,0.228,0.597-0.211,1.229c-0.439,0.632-0.65,0.752-1.229,0.798
				c-0.579,0.045-0.847,0.059-1.029,0.052C191.751,217.005,191.66,216.249,191.66,216.249z"/>
		</g>
	</mask>
	
		<linearGradient id="SVGID_00000088132185525532346290000016646416078834931329_" gradientUnits="userSpaceOnUse" x1="266.1312" y1="229.4343" x2="309.2323" y2="268.9436">
		<stop  offset="0" style="stop-color:#01002E"/>
		<stop  offset="1" style="stop-color:#A5DFE8"/>
	</linearGradient>
	<path style="opacity:0.3;fill:url(#SVGID_00000088132185525532346290000016646416078834931329_);" d="M250.148,261.489
		c0,0,21.621-17.162,25.612-22.351c3.991-5.188,19.487-30.566,17.626-34.591c-1.859-4.025-2.861-11.643-2.861-11.643
		s21.551,21.889,21.951,38.652c0.4,16.76,5.188,13.567-4.788,27.934c-9.979,14.367-14.767,17.099-27.937,18.128
		c-13.169,1.029-19.24,1.348-23.387,1.189C252.214,278.649,250.148,261.489,250.148,261.489z"/>
	<defs>
		
			<filter id="Adobe_OpacityMaskFilter_00000046305825983660686450000013871318473954763424_" filterUnits="userSpaceOnUse" x="245.519" y="187.273" width="46.425" height="75.805">
			<feFlood  style="flood-color:white;flood-opacity:1" result="back"/>
			<feBlend  in="SourceGraphic" in2="back" mode="normal"/>
		</filter>
	</defs>
	
		<mask maskUnits="userSpaceOnUse" x="245.519" y="187.273" width="46.425" height="75.805" id="SVGID_00000073705299688409137860000003328966449111342252_">
		<g style="filter:url(#Adobe_OpacityMaskFilter_00000046305825983660686450000013871318473954763424_);">
			<defs>
				
					<filter id="Adobe_OpacityMaskFilter_00000069365076682464910660000002208224948074239394_" filterUnits="userSpaceOnUse" x="191.457" y="212.984" width="2.043" height="3.336">
					<feFlood  style="flood-color:white;flood-opacity:1" result="back"/>
					<feBlend  in="SourceGraphic" in2="back" mode="normal"/>
				</filter>
			</defs>
			
				<mask maskUnits="userSpaceOnUse" x="191.457" y="212.984" width="2.043" height="3.336" id="SVGID_00000073705299688409137860000003328966449111342252_">
				<g style="filter:url(#Adobe_OpacityMaskFilter_00000069365076682464910660000002208224948074239394_);">
				</g>
			</mask>
			
				<linearGradient id="SVGID_00000115500742056640409150000008880628816529440185_" gradientUnits="userSpaceOnUse" x1="192.924" y1="214.9678" x2="191.9192" y2="214.3596">
				<stop  offset="0" style="stop-color:#FFFFFF"/>
				<stop  offset="1" style="stop-color:#000000"/>
			</linearGradient>
			
				<path style="mask:url(#SVGID_00000073705299688409137860000003328966449111342252_);fill:url(#SVGID_00000115500742056640409150000008880628816529440185_);" d="
				M191.502,216.319c-0.053-0.062-0.079-0.617,0.035-0.785c0.115-0.168,0.326-0.467,0.547-0.573c0.22-0.106,0.599-0.485,0.705-0.573
				c0.106-0.088,0.3-0.353,0.37-0.529s0.135-0.667,0.135-0.667s0.03-0.241,0-0.205c-0.03,0.035,0.173,0.617,0.182,0.714
				c0.009,0.097,0.065,0.259-0.039,0.465c-0.104,0.207-0.278,0.478-0.463,0.689c-0.185,0.212-0.3,0.238-0.326,0.344
				c-0.027,0.106,0.146,0.087-0.069,0.278c-0.215,0.191-0.319,0.224-0.522,0.321C191.855,215.896,191.502,216.319,191.502,216.319z"
				/>
		</g>
	</mask>
	
		<linearGradient id="SVGID_00000073680722731398250730000017556180766558446003_" gradientUnits="userSpaceOnUse" x1="278.8623" y1="232.364" x2="256.0263" y2="218.5422">
		<stop  offset="0" style="stop-color:#FFFFFF"/>
		<stop  offset="1" style="stop-color:#A5DFE8"/>
	</linearGradient>
	<path style="opacity:0.4;fill:url(#SVGID_00000073680722731398250730000017556180766558446003_);" d="M246.546,263.078
		c-1.202-1.404-1.802-14.024,0.802-17.831c2.604-3.806,7.411-10.617,12.42-13.022c5.009-2.402,13.622-11.018,16.026-13.02
		c2.404-2.004,6.811-8.013,8.413-12.02c1.602-4.007,3.079-15.163,3.079-15.163s0.673-5.472,0-4.67
		c-0.675,0.802,3.932,14.022,4.134,16.226c0.2,2.204,1.479,5.884-0.895,10.579c-2.375,4.695-6.318,10.856-10.524,15.665
		c-4.206,4.807-6.811,5.409-7.411,7.813c-0.602,2.402,3.327,1.979-1.559,6.311c-4.884,4.331-7.256,5.093-11.865,7.304
		C254.559,253.46,246.546,263.078,246.546,263.078z"/>
	<defs>
		
			<filter id="Adobe_OpacityMaskFilter_00000103984840536815491790000000999849267250632832_" filterUnits="userSpaceOnUse" x="245.389" y="302.516" width="64.313" height="95.51">
			<feFlood  style="flood-color:white;flood-opacity:1" result="back"/>
			<feBlend  in="SourceGraphic" in2="back" mode="normal"/>
		</filter>
	</defs>
	
		<mask maskUnits="userSpaceOnUse" x="245.389" y="302.516" width="64.313" height="95.51" id="SVGID_00000132059613663695675300000016977550087305328562_">
		<g style="filter:url(#Adobe_OpacityMaskFilter_00000103984840536815491790000000999849267250632832_);">
			<defs>
				
					<filter id="Adobe_OpacityMaskFilter_00000131362519763661717260000007692489954195435655_" filterUnits="userSpaceOnUse" x="191.451" y="218.055" width="2.83" height="4.203">
					<feFlood  style="flood-color:white;flood-opacity:1" result="back"/>
					<feBlend  in="SourceGraphic" in2="back" mode="normal"/>
				</filter>
			</defs>
			
				<mask maskUnits="userSpaceOnUse" x="191.451" y="218.055" width="2.83" height="4.203" id="SVGID_00000132059613663695675300000016977550087305328562_">
				<g style="filter:url(#Adobe_OpacityMaskFilter_00000131362519763661717260000007692489954195435655_);">
				</g>
			</mask>
			
				<linearGradient id="SVGID_00000049194613324977984240000012958881867693178517_" gradientUnits="userSpaceOnUse" x1="194.111" y1="221.3209" x2="191.0525" y2="219.4697">
				<stop  offset="0" style="stop-color:#FFFFFF"/>
				<stop  offset="1" style="stop-color:#000000"/>
			</linearGradient>
			
				<path style="mask:url(#SVGID_00000132059613663695675300000016977550087305328562_);fill:url(#SVGID_00000049194613324977984240000012958881867693178517_);" d="
				M192.91,218.055c0,0,0.351,0.916,0.386,1.268c0.036,0.352,0.178,0.386,0.203,0.895c0.025,0.509,0.08,0.492,0,0.738
				c-0.08,0.246-0.045,0.334-0.203,0.492c-0.158,0.158-0.105,0.228-0.597,0.439c-0.492,0.211-1.134,0.298-1.243,0.36
				c-0.109,0.062,1.383-0.149,1.436-0.167c0.053-0.018,0.966-0.211,1.054-0.298c0.088-0.088,0.351-1.106,0.334-1.247
				c-0.018-0.14-0.454-1.251-0.42-1.374c0.034-0.123-0.159-0.558-0.177-0.611C193.665,218.497,192.91,218.055,192.91,218.055z"/>
		</g>
	</mask>
	
		<linearGradient id="SVGID_00000043426959845072572880000014575755128930355640_" gradientUnits="userSpaceOnUse" x1="305.8374" y1="376.7425" x2="236.3302" y2="334.6723">
		<stop  offset="0" style="stop-color:#FFFFFF"/>
		<stop  offset="1" style="stop-color:#A5DFE8"/>
	</linearGradient>
	<path style="opacity:0.3;fill:url(#SVGID_00000043426959845072572880000014575755128930355640_);" d="M278.553,302.516
		c0,0,7.972,20.808,8.779,28.812c0.809,8.006,4.034,8.772,4.611,20.351c0.577,11.577,1.818,11.179,0,16.765
		c-1.816,5.588-1.018,7.583-4.611,11.174c-3.591,3.593-2.393,5.188-13.567,9.979c-11.174,4.788-25.762,6.77-28.246,8.172
		c-2.484,1.404,31.439-3.384,32.634-3.784c1.198-0.398,21.951-4.788,23.946-6.784c1.995-1.995,7.981-25.144,7.583-28.335
		c-0.4-3.193-10.329-28.421-9.554-31.216c0.773-2.795-3.616-12.685-4.016-13.881C295.713,312.572,278.553,302.516,278.553,302.516z"
		/>
	<defs>
		
			<filter id="Adobe_OpacityMaskFilter_00000043421698686328968440000004988167249157946766_" filterUnits="userSpaceOnUse" x="163.217" y="66.282" width="89.179" height="63.109">
			<feFlood  style="flood-color:white;flood-opacity:1" result="back"/>
			<feBlend  in="SourceGraphic" in2="back" mode="normal"/>
		</filter>
	</defs>
	
		<mask maskUnits="userSpaceOnUse" x="163.217" y="66.282" width="89.179" height="63.109" id="SVGID_00000121248452163324019350000000127447946161997983_">
		<g style="filter:url(#Adobe_OpacityMaskFilter_00000043421698686328968440000004988167249157946766_);">
			<defs>
				
					<filter id="Adobe_OpacityMaskFilter_00000047029427098275079970000017778308070982575772_" filterUnits="userSpaceOnUse" x="187.835" y="207.66" width="3.924" height="2.777">
					<feFlood  style="flood-color:white;flood-opacity:1" result="back"/>
					<feBlend  in="SourceGraphic" in2="back" mode="normal"/>
				</filter>
			</defs>
			
				<mask maskUnits="userSpaceOnUse" x="187.835" y="207.66" width="3.924" height="2.777" id="SVGID_00000121248452163324019350000000127447946161997983_">
				<g style="filter:url(#Adobe_OpacityMaskFilter_00000047029427098275079970000017778308070982575772_);">
				</g>
			</mask>
			
				<linearGradient id="SVGID_00000042013968463613887180000000971257245440530842_" gradientUnits="userSpaceOnUse" x1="189.6351" y1="208.3588" x2="190.2204" y2="210.4662">
				<stop  offset="0" style="stop-color:#FFFFFF"/>
				<stop  offset="1" style="stop-color:#000000"/>
			</linearGradient>
			
				<path style="mask:url(#SVGID_00000121248452163324019350000000127447946161997983_);fill:url(#SVGID_00000042013968463613887180000000971257245440530842_);" d="
				M190.996,207.66c0,0-0.304,0.763-0.726,0.904c-0.422,0.14-0.603,0.198-0.84,0.275c-0.237,0.076-0.05,0.047-0.448,0.062
				c-0.398,0.015-0.468,0.009-0.632,0c-0.164-0.008-0.515,0-0.515,0s0.173,0.553,0.169,0.741c-0.005,0.187,0.111,0.234,0.194,0.351
				c0.082,0.117,0.533,0.172,0.738,0.304c0.205,0.133,0.702,0.187,1.124,0.094c0.421-0.094,1.214-0.211,1.391-0.538
				c0.177-0.328,0.216-0.592,0.302-0.951C191.84,208.54,190.996,207.66,190.996,207.66z"/>
		</g>
	</mask>
	
		<linearGradient id="SVGID_00000085231902808873939740000016025243973294088587_" gradientUnits="userSpaceOnUse" x1="204.1182" y1="82.1685" x2="217.4216" y2="130.0606">
		<stop  offset="0" style="stop-color:#01002E"/>
		<stop  offset="1" style="stop-color:#A5DFE8"/>
	</linearGradient>
	<path style="opacity:0.3;fill:url(#SVGID_00000085231902808873939740000016025243973294088587_);" d="M235.052,66.282
		c0,0-6.917,17.346-16.496,20.539c-9.578,3.191-13.7,4.509-19.089,6.245c-5.389,1.736-1.132,1.061-10.178,1.398
		c-9.046,0.339-10.643,0.195-14.367,0c-3.725-0.193-11.706,0-11.706,0s3.939,12.576,3.832,16.833
		c-0.107,4.259,2.533,5.322,4.406,7.984c1.873,2.659,12.12,3.904,16.773,6.918c4.652,3.011,15.963,4.257,25.541,2.127
		c9.578-2.127,27.59-4.788,31.622-12.238c4.029-7.45,4.904-13.447,6.865-21.624C254.218,86.287,235.052,66.282,235.052,66.282z"/>
	<defs>
		
			<filter id="Adobe_OpacityMaskFilter_00000131334589220919402810000015544686493128102786_" filterUnits="userSpaceOnUse" x="164.818" y="89.576" width="96.559" height="45.718">
			<feFlood  style="flood-color:white;flood-opacity:1" result="back"/>
			<feBlend  in="SourceGraphic" in2="back" mode="normal"/>
		</filter>
	</defs>
	
		<mask maskUnits="userSpaceOnUse" x="164.818" y="89.576" width="96.559" height="45.718" id="SVGID_00000056398474117666509340000006072593383192626320_">
		<g style="filter:url(#Adobe_OpacityMaskFilter_00000131334589220919402810000015544686493128102786_);">
			<defs>
				
					<filter id="Adobe_OpacityMaskFilter_00000133488016085722067040000003659172898131961743_" filterUnits="userSpaceOnUse" x="187.906" y="208.685" width="4.249" height="2.012">
					<feFlood  style="flood-color:white;flood-opacity:1" result="back"/>
					<feBlend  in="SourceGraphic" in2="back" mode="normal"/>
				</filter>
			</defs>
			
				<mask maskUnits="userSpaceOnUse" x="187.906" y="208.685" width="4.249" height="2.012" id="SVGID_00000056398474117666509340000006072593383192626320_">
				<g style="filter:url(#Adobe_OpacityMaskFilter_00000133488016085722067040000003659172898131961743_);">
				</g>
			</mask>
			
				<linearGradient id="SVGID_00000079469333806931291660000004890150062371931789_" gradientUnits="userSpaceOnUse" x1="190.0734" y1="209.6311" x2="190.4246" y2="211.5277">
				<stop  offset="0" style="stop-color:#FFFFFF"/>
				<stop  offset="1" style="stop-color:#000000"/>
			</linearGradient>
			
				<path style="mask:url(#SVGID_00000056398474117666509340000006072593383192626320_);fill:url(#SVGID_00000079469333806931291660000004890150062371931789_);" d="
				M187.906,209.753c0,0,1.227,0.258,1.363,0.281c0.136,0.023,1.624-0.281,1.624-0.281s0.225-0.141,0.375-0.328
				c0.15-0.187,0.556-0.741,0.556-0.741s0.25,0.001,0.273,0.055c0.023,0.054,0.117,0.946,0,1.144
				c-0.117,0.198,0.004,0.151-0.373,0.338c-0.377,0.187-0.209,0.164-0.831,0.281c-0.622,0.117-0.36,0.023-1.111,0.141
				c-0.752,0.117-1.259,0.015-1.403-0.051C188.233,210.526,187.906,209.753,187.906,209.753z"/>
		</g>
	</mask>
	
		<linearGradient id="SVGID_00000108284788179323958150000008185769925306848156_" gradientUnits="userSpaceOnUse" x1="214.08" y1="111.0821" x2="222.0619" y2="154.1843">
		<stop  offset="0" style="stop-color:#FFFFFF"/>
		<stop  offset="1" style="stop-color:#A5DFE8"/>
	</linearGradient>
	<path style="opacity:0.2;fill:url(#SVGID_00000108284788179323958150000008185769925306848156_);" d="M164.818,113.858
		c0,0,27.887,5.854,30.971,6.386c3.084,0.532,36.914-6.386,36.914-6.386s5.105-3.193,8.518-7.45
		c3.413-4.257,12.635-16.833,12.635-16.833s5.677,0.025,6.211,1.245c0.532,1.22,2.659,21.494,0,25.992
		c-2.661,4.495,0.095,3.432-8.468,7.688c-8.561,4.257-4.754,3.725-18.897,6.386c-14.142,2.661-8.176,0.532-25.26,3.193
		c-17.084,2.661-28.602,0.334-31.889-1.164C172.267,131.418,164.818,113.858,164.818,113.858z"/>
	<defs>
		
			<filter id="Adobe_OpacityMaskFilter_00000155853212091903553210000009944070233396678275_" filterUnits="userSpaceOnUse" x="212.305" y="167.159" width="18.797" height="84.695">
			<feFlood  style="flood-color:white;flood-opacity:1" result="back"/>
			<feBlend  in="SourceGraphic" in2="back" mode="normal"/>
		</filter>
	</defs>
	
		<mask maskUnits="userSpaceOnUse" x="212.305" y="167.159" width="18.797" height="84.695" id="SVGID_00000168083842835162454220000016983400190817455782_">
		<g style="filter:url(#Adobe_OpacityMaskFilter_00000155853212091903553210000009944070233396678275_);">
			<defs>
				
					<filter id="Adobe_OpacityMaskFilter_00000023276060377407560080000017228465152673404578_" filterUnits="userSpaceOnUse" x="189.995" y="212.099" width="0.827" height="3.727">
					<feFlood  style="flood-color:white;flood-opacity:1" result="back"/>
					<feBlend  in="SourceGraphic" in2="back" mode="normal"/>
				</filter>
			</defs>
			
				<mask maskUnits="userSpaceOnUse" x="189.995" y="212.099" width="0.827" height="3.727" id="SVGID_00000168083842835162454220000016983400190817455782_">
				<g style="filter:url(#Adobe_OpacityMaskFilter_00000023276060377407560080000017228465152673404578_);">
				</g>
			</mask>
			
				<linearGradient id="SVGID_00000049944637504018925110000004600398987437581955_" gradientUnits="userSpaceOnUse" x1="190.212" y1="213.5379" x2="191.0276" y2="217.9427">
				<stop  offset="0" style="stop-color:#FFFFFF"/>
				<stop  offset="1" style="stop-color:#000000"/>
			</linearGradient>
			
				<path style="mask:url(#SVGID_00000168083842835162454220000016983400190817455782_);fill:url(#SVGID_00000049944637504018925110000004600398987437581955_);" d="
				M190.181,212.099c0.017,0.071-0.063-0.033-0.151,0.885c-0.088,0.918,0.074,0.774,0,1.393c-0.074,0.618-0.033,0.281,0.151,0.746
				c0.183,0.466,0.383,0.489,0.482,0.677c0.099,0.187,0.159-0.677,0.159-0.677s-0.165-0.518-0.159-0.893
				c0.005-0.375-0.124-1.017-0.118-1.246C190.551,212.755,190.181,212.099,190.181,212.099z"/>
		</g>
	</mask>
	
		<linearGradient id="SVGID_00000132050844105201648740000003670972844998683038_" gradientUnits="userSpaceOnUse" x1="217.2285" y1="199.868" x2="235.7661" y2="299.9706">
		<stop  offset="0" style="stop-color:#FFFFFF"/>
		<stop  offset="1" style="stop-color:#A5DFE8"/>
	</linearGradient>
	<path style="opacity:0.2;fill:url(#SVGID_00000132050844105201648740000003670972844998683038_);" d="M216.52,167.159
		c0.381,1.623-1.432-0.757-3.422,20.115c-1.99,20.869,1.685,17.592,0,31.648c-1.685,14.056-0.743,6.375,3.422,16.953
		c4.166,10.581,8.714,11.124,10.963,15.376c2.249,4.25,3.62-15.376,3.62-15.376s-3.741-11.767-3.62-20.283
		c0.12-8.513-2.821-23.117-2.68-28.319C224.942,182.07,216.52,167.159,216.52,167.159z"/>
	<defs>
		
			<filter id="Adobe_OpacityMaskFilter_00000111877380777729957420000009714059395443742652_" filterUnits="userSpaceOnUse" x="155.356" y="67.127" width="142.68" height="407.873">
			<feFlood  style="flood-color:white;flood-opacity:1" result="back"/>
			<feBlend  in="SourceGraphic" in2="back" mode="normal"/>
		</filter>
	</defs>
	
		<mask maskUnits="userSpaceOnUse" x="155.356" y="67.127" width="142.68" height="407.873" id="SVGID_00000170969717548025083560000000576950201813306299_">
		<g style="filter:url(#Adobe_OpacityMaskFilter_00000111877380777729957420000009714059395443742652_);">
			<defs>
				
					<filter id="Adobe_OpacityMaskFilter_00000069370499572924477160000007670197976590462875_" filterUnits="userSpaceOnUse" x="187.489" y="207.697" width="6.278" height="17.948">
					<feFlood  style="flood-color:white;flood-opacity:1" result="back"/>
					<feBlend  in="SourceGraphic" in2="back" mode="normal"/>
				</filter>
			</defs>
			
				<mask maskUnits="userSpaceOnUse" x="187.489" y="207.697" width="6.278" height="17.948" id="SVGID_00000170969717548025083560000000576950201813306299_">
				<g style="filter:url(#Adobe_OpacityMaskFilter_00000069370499572924477160000007670197976590462875_);">
				</g>
			</mask>
			
				<linearGradient id="SVGID_00000031171733244401788560000016952166734267423635_" gradientUnits="userSpaceOnUse" x1="189.4204" y1="216.9013" x2="194.9345" y2="215.9881">
				<stop  offset="0" style="stop-color:#FFFFFF"/>
				<stop  offset="1" style="stop-color:#000000"/>
			</linearGradient>
			
				<path style="mask:url(#SVGID_00000170969717548025083560000000576950201813306299_);fill:url(#SVGID_00000031171733244401788560000016952166734267423635_);" d="
				M193.525,223.111c-0.223-2.053-0.211-2.682,0.158-4.561c0.369-1.879-0.579-2.002-0.709-3.694c-0.13-1.692-0.31-1.602-0.819-3.328
				c-0.51-1.726-1.673-1.693-2.724-2.69c-0.276-0.261-0.537-0.658-0.754-1.141c-1.679,0.759-1.244,2.399-0.702,2.81
				c0.579,0.439,1.512,1.651,1.617,2.441c0.105,0.79-0.281,1.299-0.228,2.002c0.053,0.702,0,3.038,0.281,3.389
				c0.281,0.351,0.597,1.51,0.58,1.879c-0.018,0.369-0.316,1.177-0.316,1.563c0,0.386,0,2.38,0,2.38c0,0.82,0.54,1.484,1.206,1.484
				c0.349,0,0.658-0.189,0.878-0.481c0.22,0.292,0.529,0.481,0.878,0.481c0.261,0,0.499-0.106,0.695-0.281
				C193.608,224.78,193.632,224.095,193.525,223.111z"/>
		</g>
	</mask>
	
		<linearGradient id="SVGID_00000121993282159742266150000006792346177509592961_" gradientUnits="userSpaceOnUse" x1="199.2391" y1="276.3031" x2="324.553" y2="255.5505">
		<stop  offset="0" style="stop-color:#01002E"/>
		<stop  offset="1" style="stop-color:#A5DFE8"/>
	</linearGradient>
	<path style="opacity:0.4;fill:url(#SVGID_00000121993282159742266150000006792346177509592961_);" d="M292.52,417.427
		c-5.059-46.647-4.788-60.955,3.593-103.657c8.381-42.704-13.17-45.497-16.113-83.949c-2.943-38.45-7.036-36.402-18.624-75.624
		c-11.588-39.225-38.021-38.475-61.909-61.13c-6.267-5.943-12.216-14.956-17.134-25.939c-38.16,17.24-28.275,54.53-15.96,63.859
		c13.17,9.977,34.357,37.513,36.752,55.474c2.395,17.958-6.385,29.532-5.188,45.495c1.197,15.965,0,69.043,6.385,77.024
		c6.385,7.981,13.569,34.323,13.17,42.697c-0.399,8.377-7.184,26.744-7.184,35.525c0,8.779,0,54.076,0,54.076
		c0,18.626,12.272,33.723,27.41,33.723c7.938,0,14.949-4.291,19.953-10.924C262.677,470.709,269.69,475,277.628,475
		c5.936,0,11.349-2.404,15.797-6.388C294.397,455.358,294.947,439.791,292.52,417.427z"/>
	
		<linearGradient id="SVGID_00000008837839009998587460000006867683163192363679_" gradientUnits="userSpaceOnUse" x1="166.4574" y1="52.6528" x2="224.466" y2="48.2954">
		<stop  offset="0.3238" style="stop-color:#64BA2F"/>
		<stop  offset="1" style="stop-color:#A5DFE8"/>
	</linearGradient>
	<path style="fill:url(#SVGID_00000008837839009998587460000006867683163192363679_);" d="M216.343,26.975L167.048,40.37
		l8.412,30.959c0.826,3.045,12.532,2.511,26.145-1.186c13.613-3.7,23.978-9.165,23.15-12.208L216.343,26.975z"/>
	
		<linearGradient id="SVGID_00000103244454854198336190000007206308005317351565_" gradientUnits="userSpaceOnUse" x1="252.3613" y1="25.6945" x2="304.8989" y2="21.748" gradientTransform="matrix(0.965 -0.2622 0.2622 0.965 -83.871 84.0055)">
		<stop  offset="0.3238" style="stop-color:#64BA2F"/>
		<stop  offset="1" style="stop-color:#A5DFE8"/>
	</linearGradient>
	<path style="fill:url(#SVGID_00000103244454854198336190000007206308005317351565_);" d="M216.344,26.975
		c0.827,3.043-9.538,8.508-23.151,12.208c-13.613,3.697-25.318,4.229-26.145,1.186c-0.827-3.043,9.538-8.506,23.151-12.206
		C203.812,24.464,215.517,23.932,216.344,26.975z"/>
</g>
</svg>
