<svg id="Layer_1" enable-background="new 0 0 512 512" height="512" viewBox="0 0 512 512" width="512" xmlns="http://www.w3.org/2000/svg"><path d="m415.8 32.4-97.2-32.4h-17.6l-16.17 15-13.83-15h-110.33l-128.82 96.61-28.59 114.39 5.24 19.06-8.5 10.94v141.63l97.36 97.35 96.04 32.02h47.6l15-17.42.5-.58 14.5 18h80.33l107.36-80.52-3.19-24.48 25.8 3.71 30.7-92.11v-157.93z" fill="#766e6e"/><path d="m512 160.67v157.93l-30.7 92.11-25.8-3.71 3.19 24.48-107.36 80.52h-80.33l-14.5-18-.5.58v-494.58h15l13.83 15 16.17-15h17.6l97.2 32.4z" fill="#5b5555"/><path d="m331 346v69.27l-60 30v66.73h-30v-69.79l-51.21-51.21h-53.79v-30h66.21l56.75 56.75 42.04-21.02v-50.73z" fill="#5b5555"/><path d="m331 346v69.27l-60 30v66.73h-15v-97.21l2.96 2.96 42.04-21.02v-50.73z" fill="#463f3f"/><g fill="#5b5555"><path d="m414.64 363.74-17.28 24.52 61.33 43.22 20.91-15.68 1.7-5.09z"/><path d="m121 205.27 51.71-25.85-13.42-26.84-68.29 34.15v24.27h-87.74l-3.26 13.03v16.97h91v60h60v-30h-30c0-13.471 0-52.425 0-65.73z"/><path d="m421 271v-60h-46.76l-13.8-49.06-28.88 8.12 11.57 41.14-45.07 4.06-42.06-21.03-36.71-18.35-38.29 76.58v42.81l75 37.5 45-40.56v-47.09l45.67-4.12h44.33v60h45v-30z"/></g><path d="m421 271v-60h-46.76l-13.8-49.06-28.88 8.12 11.57 41.14-45.07 4.06-42.06-21.03v138.54l45-40.56v-47.09l45.67-4.12h44.33v60h45v-30z" fill="#463f3f"/><path d="m326.61 95.39-21.22 21.22-25.6-25.61h-38.79v45h-30v-75h60v-61h30v69.79z" fill="#5b5555"/><path d="m326.61 95.39-21.22 21.22-25.6-25.61h-23.79v-30h15v-61h30v69.79z" fill="#463f3f"/></svg>