<?xml version="1.0" encoding="utf-8"?>
<!-- Generator: Adobe Illustrator 27.5.0, SVG Export Plug-In . SVG Version: 6.00 Build 0)  -->
<svg version="1.1" id="Layer_1" xmlns="http://www.w3.org/2000/svg" xmlns:xlink="http://www.w3.org/1999/xlink" x="0px" y="0px"
	 viewBox="0 0 2000 2000" style="enable-background:new 0 0 2000 2000;" xml:space="preserve">
<g>
	<path style="fill:#E5BF63;" d="M1482.234,1484.681c-4.809-3.638-9.866-7.101-15.173-10.439
		c-16.02-10.065-33.036-17.714-50.676-23.718c-95.421-32.413-209.055-15.97-283.922-66.994
		c-19.981-13.628-35.926-29.374-48.608-45.593c-42.802-54.761-48.633-114.879-48.831-116.972c0-0.025,0-0.025,0-0.05
		c4.31-15.646,8.595-32.912,12.806-52.046c43.849-198.666,116.349-727.643,136.654-878.424c3.09-22.946-12.307-44.372-35.079-48.583
		c-8.795-1.619-17.515-3.189-26.185-4.659c-83.786-14.4-161.867-22.223-232.948-25.612c-45.568-2.193-88.271-2.541-127.785-1.595
		c-130.5,3.015-226.071,19.906-274.779,30.694c-21.052,4.659-35.478,24.042-33.958,45.543
		c7.25,103.145,29.199,404.357,53.541,628.211c8.072,74.12,16.393,139.743,24.54,186.906
		c23.32,134.985-4.161,217.675-15.571,290.823c-5.78,36.823-7.449,71.255,3.488,108.725c2.99,10.339,6.976,20.878,12.083,31.79
		c4.336,9.268,9.269,17.515,14.725,24.864c19.881,26.808,46.888,41.831,79.028,50.85c82.117,23.071,197.769,6.901,313.396,47.212
		c41.233,14.375,82.59,28.875,123.649,41.806l0.025,0.025c131.497,41.407,259.78,66.745,370.125,20.654
		c16.494-6.901,31.018-14.55,43.65-22.771c31.915-20.853,51.722-45.493,60.765-71.205c0.374-0.997,0.698-2.018,1.022-3.015
		C1553.463,1573.25,1531.863,1522.002,1482.234,1484.681z M925.476,1414.497l-33.808,59.744
		C902.381,1447.733,913.717,1429.57,925.476,1414.497z"/>
	<path style="fill:#7C7056;" d="M1496.958,1730.733c-15.497,10.389-33.584,19.707-52.744,28.352
		c-11.385,5.132-24.266,9.816-38.368,13.902c-6.851,1.993-13.977,3.837-21.377,5.506c-42.03,9.617-92.257,14.201-144.701,10.987
		c-47.96-2.915-97.813-12.333-144.926-30.395c-126.29-48.358-174.673-63.157-280.833-55.085
		c-106.134,8.072-292.816-32.065-304.924-95.87c-0.15-0.772-0.274-1.545-0.423-2.342c-2.043-12.208-2.243-25.288-1.395-37.944
		c2.242-34.357,12.008-65.524,12.482-66.944c2.99,10.339,6.976,20.878,12.083,31.79c49.28,105.088,173.478,80.398,311.577,100.379
		c18.611,2.666,37.496,6.179,56.48,10.937c0,0,0.026,0,0.05,0.025c12.98,3.214,26.011,7.051,39.041,11.585
		c30.146,10.514,60.342,21.077,90.439,31.043c12.108,4.036,24.217,7.948,36.275,11.734
		c130.451,40.859,257.588,65.425,367.086,19.707c9.243-3.862,17.838-7.948,25.861-12.233c27.655-14.874,48.084-32.214,61.912-50.85
		c8.147-10.962,13.977-22.348,17.664-33.908C1559.468,1669.793,1536.87,1703.9,1496.958,1730.733z"/>
	<path style="fill:#D8B45B;" d="M1537.194,1624.125c-12.632,35.876-46.166,69.66-104.415,93.976
		c-144.801,60.467-320.471-2.018-493.799-62.485c-115.627-40.311-231.278-24.142-313.396-47.212
		c8.545-9.417,24.59-18.611,47.337-28.352c105.835-45.344,169.317-160.248,56.231-238.852
		c-63.282-43.998-188.551,46.365-188.551,46.365s17.44-58.473,53.715-106.832c36.275-48.358-50.028-48.358-53.715-151.154
		c-3.712-102.796,11.386-99.781,108.153-42.329c96.741,57.452,229.758-54.413,220.689-368.829
		c-9.069-314.442-117.221-401.965-21.102-452.716c31.766-16.767,42.204-35.951,41.931-54.114
		c71.08,3.388,149.161,11.211,232.948,25.612c8.67,1.47,17.39,3.04,26.185,4.659c22.771,4.21,38.169,25.637,35.079,48.583
		c-20.305,150.781-92.805,679.758-136.654,878.424c-4.21,19.134-8.496,36.399-12.806,52.046c0,0.025,0,0.025,0,0.05
		c0.199,2.093,6.029,62.211,48.831,116.972c12.682,16.219,28.626,31.965,48.608,45.593c74.867,51.024,188.501,34.581,283.922,66.994
		c-133.316,14.226-239.948,26.808-326.251-30.719c-99.756-66.496-209.528,43.002-198.466,83.487
		c11.037,40.485,101.699-31.766,242.315,63.058c140.615,94.848,284.794,79.476,346.855,54.114
		C1502.09,1611.793,1523.939,1614.11,1537.194,1624.125z"/>
	<path style="fill:#CEAA52;" d="M1035.024,1220.914c0,0.025,0,0.025,0,0.05c0.199,2.093,6.029,62.211,48.831,116.972
		c-48.533,18.686-102.497,20.18-135.085,49.629c-44.621,40.311-73.272,110.843-94.25,56.431
		c-21.003-54.437,51.199-133.017,17.939-187.429c-33.236-54.438-133.017,9.069-144.229,24.167
		c-11.062,14.899-90.812,33.335-93.303,33.908c2.068-1.669,76.237-61.837-0.05-112.513
		c-77.359-51.398-70.781-126.963-70.781-126.963s81.618,148.14,269.073,105.81c187.429-42.329,190.469-160.248,165.156-400.819
		c-25.288-240.546,106.931-234.069,46.614-367.11C984.647,280.03,839.224,286.085,908.559,268.246
		c69.361-17.864,115.079,2.716,211.82-2.99c36.798-2.168,27.954-14.126,2.84-28.053c8.67,1.47,17.39,3.04,26.185,4.659
		c22.771,4.21,38.169,25.637,35.079,48.583c-20.305,150.781-92.805,679.758-136.654,878.424
		C1043.62,1188.002,1039.334,1205.268,1035.024,1220.914z"/>
	<path style="fill:#CEAA52;" d="M1432.779,1718.101c-110.345,46.091-238.628,20.753-370.125-20.654l-0.025-0.025
		c-15.297-14.425-34.506-30.395-53.714-46.515c-81.245-68.19-193.882-67.841-251.335-70.856c-57.427-3.039,134.088-76.76,305.348,0
		c171.285,76.761,154.194,96.742,228.762,117.894C1366.258,1719.123,1507.372,1649.588,1432.779,1718.101z"/>
	<path style="fill:#EDC96E;" d="M645.715,1500.85c-27.356,27.605-62.684,47.91-99.158,56.705
		c-5.456-7.35-10.389-15.596-14.725-24.864c-5.107-10.912-9.094-21.451-12.083-31.79c-10.938-37.471-9.268-71.902-3.488-108.725
		c7.176-0.249,15.248-1.744,24.341-4.609C639.686,1356.323,715.251,1430.741,645.715,1500.85z"/>
	<path style="fill:#EDC96E;" d="M685.03,697.243c51.398,160.248,12.083,275.127-84.659,202.552
		c-33.559-25.163-65.998-14.699-93.079,14.649c-24.341-223.854-46.291-525.066-53.541-628.211
		c-1.52-21.501,12.905-40.884,33.958-45.543c48.707-10.788,144.278-27.68,274.779-30.694
		c-79.451,33.983-285.641,58.349-255.694,74.743c30.096,16.443,244.732-36.25,184.265,56.605
		C630.592,434.224,633.632,537.02,685.03,697.243z"/>
	<path style="fill:#EDC96E;" d="M1538.216,1621.111c-0.324,0.996-0.648,2.018-1.022,3.015c-9.043,25.711-28.85,50.352-60.765,71.205
		c-50.924-33.958,88.146-96.642-35.578-77.782c-126.987,19.383-114.879-79.825-39.315-116.698
		c28.577-13.927,56.73-17.315,80.697-16.169C1531.863,1522.002,1553.463,1573.25,1538.216,1621.111z"/>
	<ellipse style="fill:#EDC96E;" cx="733.396" cy="574.801" rx="27.21" ry="61.978"/>
	<ellipse style="fill:#EDC96E;" cx="719.792" cy="1444.369" rx="13.605" ry="29.872"/>
	<ellipse style="fill:#EDC96E;" cx="1235.926" cy="1524.266" rx="52.059" ry="20.982"/>
	<path style="fill:#72664F;" d="M464.664,1545.247l-0.274,9.168C463.393,1548.511,464.664,1545.247,464.664,1545.247z"/>
	<path style="fill:#72664F;" d="M1018.257,1710.727c60.666,39.838,139.021,68.564,221.512,78.754
		c-47.96-2.915-97.813-12.333-144.926-30.395c-126.29-48.358-174.673-63.157-280.833-55.085
		c-106.134,8.072-292.816-32.065-304.924-95.87c-0.15-0.772-0.274-1.545-0.423-2.342c21.7,14.6,53.789,31.043,101.126,48.508
		c163.911,60.467,233.645,20.156,315.687,28.203c81.121,7.973-23.17-37.446-25.537-38.468c12.98,3.214,26.011,7.051,39.041,11.585
		c30.146,10.514,60.342,21.077,90.439,31.043C998.873,1682.848,978.145,1684.368,1018.257,1710.727z"/>
	<path style="fill:#72664F;" d="M1496.958,1730.733c24.765-26.085,32.936-54.986,23.843-75.116c-0.1-0.199-0.175-0.399-0.249-0.598
		c8.147-10.962,13.977-22.348,17.664-33.908C1559.468,1669.793,1536.87,1703.9,1496.958,1730.733z"/>
	<path style="fill:#82785E;" d="M843.409,1633.069c-2.042,3.214-4.684,6.851-7.898,10.937
		c-36.275,46.141-135.707,26.409-260.677-29.922c-31.666-14.276-53.142-30.296-67.567-46.241
		c2.242-34.357,12.008-65.524,12.482-66.944c2.99,10.339,6.976,20.878,12.083,31.79
		C581.112,1637.778,705.31,1613.088,843.409,1633.069z"/>
	<path style="fill:#82785E;" d="M1410.605,1770.596c-1.67,0.872-3.239,1.669-4.759,2.392c-9.243,4.385-15.87,5.805-21.377,5.506
		c-19.059-0.972-24.665-22.398-79.999-11.336c-73.92,14.774-220.665-20.828-240.521-55.036c-3.837-6.627-2.666-11.012,1.744-13.728
		c130.451,40.859,257.588,65.425,367.086,19.707c9.243-3.862,17.838-7.948,25.861-12.233c-9.417,21.65-17.789,35.378,15.123,20.978
		C1516.764,1708.036,1457.643,1745.656,1410.605,1770.596z"/>
	<g>
		<path style="fill:#5B5140;" d="M519.756,1500.856c-7.297,25.544-11.958,52.071-12.263,78.662
			c-0.016,6.537,0.387,13.364,1.081,19.856c0.287,1.703,0.886,5.708,1.159,7.354c1.695,10.598,8.234,19.739,15.846,27.027
			c57.701,52.762,207.732,73.509,284.926,68.208c39.874-3.207,80.571-3.863,120.138,2.873
			c66.178,11.043,127.419,39.418,190.458,60.805c88.62,27.167,185.134,30.424,275.237,8.306
			c25.809-6.405,50.488-16.572,73.991-28.912c28.413-15.054,59.573-34.483,71.533-65.79c7.168-18.877,4.21-39.944-3.658-58.147
			c8.249,18.172,11.666,39.365,4.639,58.5c-4.465,12.71-12.632,23.805-22.147,33.211c-14.402,14.058-31.584,24.886-49.223,34.393
			c-23.559,12.686-48.4,23.11-74.333,29.797c-77.729,20.072-160.297,20.41-238.654,3.538
			c-52.39-11.081-100.892-34.796-151.712-50.866c-53.379-18.539-109.549-28.116-166.095-24.854
			c-7.09,0.156-22.688,1.238-29.877,1.679c-40.11,2.334-80.373-1.138-119.934-7.59c-26.36-4.397-52.501-10.245-78.045-18.179
			c-25.476-8.057-50.764-17.767-73.098-32.715c-13.989-9.648-28.034-22.372-31.489-39.739c0,0-0.179-1.246-0.179-1.246l-0.357-2.491
			l-0.713-4.98c-0.629-6.569-0.924-13.457-0.812-20.052C506.82,1552.793,511.933,1526.344,519.756,1500.856L519.756,1500.856z"/>
	</g>
	<g>
		<path style="fill:#AD873B;" d="M1035.021,1220.912c7.069,52.52,31.743,103.223,70.121,139.942
			c19.181,18.364,41.824,33.124,66.843,42.173c50.19,18.326,104.163,20.521,156.658,27.785
			c65.932,8.354,133.918,25.705,180.366,76.557c58.809,64.907,40.97,141.731-30.426,188.219
			c-22.228,14.836-47.083,25.638-72.484,33.765c-4.561,1.244-9.846,2.854-14.466,4.104c-4.786,1.196-9.887,2.266-14.646,3.396
			c-9.651,1.932-19.994,3.614-29.668,4.803c-53.119,6.17-106.94,0.978-159.201-9.331c-91.583-17.858-179.114-51.203-267.415-80.474
			c-76.63-23.561-157.407-22.918-236.535-30.707c-73.226-7.916-132.226-26.74-160.352-101.358
			c-21.456-53.75-15.287-103.332-4.568-158.384c17.43-81.026,26.218-164.513,12.209-246.745c-0.987-6.096-3.631-23.185-4.667-29.538
			c-22.068-144.478-34.329-290.949-47.331-436.477c-10.232-119.149-19.37-238.763-27.822-358.081
			c-0.675-6.856-0.504-13.972,1.537-20.624c4.424-14.455,15.702-26.028,30.24-30.556c0.833-0.236,2.991-0.801,3.809-1.024
			l1.223-0.258l2.446-0.516c5.738-1.137,13.92-3.033,19.588-4.027c75.156-14.614,151.743-22.182,228.204-25.035
			c40.487-1.646,89.218-1.288,129.818-0.051c22.139,1.398,47.746,1.945,69.789,4.033c6.711,0.518,23.381,1.851,29.869,2.355
			c6.93,0.341,42.069,4.482,49.66,5.201c24.264,2.643,50.008,6.587,74.216,10.025c11.982,2.045,44.846,7.649,56.6,9.655l1.233,0.217
			l1.268,0.299l2.535,0.604c21.597,5.916,35.831,27.774,32.655,49.927c-24.933,182.876-51.67,370.546-80.1,552.892
			c-14.478,91.267-29.615,184.565-47.343,275.302c-10.309,52.064-21.712,104.525-39.956,154.458
			c-13.664,37.518-32.667,73.416-59.772,102.998c-8.8,9.984-18.054,19.548-26.642,29.699c-17.417,20.156-30.93,43.411-40.857,68.095
			c9.814-24.747,23.234-48.08,40.569-68.338c17.231-20.215,36.378-38.937,50.851-61.347c29.221-44.65,44.633-96.551,57.531-147.879
			c4.749-18.42,8.889-39.686,12.816-58.431c5.897-28.152,13.179-69.587,18.232-98.051c40.325-235.69,73.266-473.391,105.632-710.354
			c0,0,5.312-39.545,5.312-39.545c0.833-6.326,0.197-12.799-1.798-18.836c-4.422-13.645-16.44-24.498-30.494-27.381
			c0,0-1.159-0.275-1.159-0.275l-1.223-0.212l-2.457-0.414c-13.254-2.153-45.687-7.818-58.974-9.863
			c-41.279-5.836-86.983-11.797-128.65-14.974c-11.682-0.977-28.202-2.189-39.741-3.038c-14.327-0.693-35.48-1.758-49.76-2.453
			c-24.549-0.732-65.046-1.278-89.659-0.874c-15.419,0.068-34.331,1.026-49.794,1.374c-7.154,0.342-22.685,1.306-29.84,1.663
			c-69.559,4.303-138.989,12.604-207.144,27.26l-2.435,0.514l-1.217,0.257l-1.14,0.308l-2.277,0.613
			c-5.229,1.687-10.171,4.325-14.324,7.934c-4.208,3.484-7.622,8.037-10.132,12.874c0,0-0.965,2.149-0.965,2.149l-0.483,1.074
			l-0.385,1.113l-0.776,2.225c-1.287,4.534-1.921,9.256-1.651,13.969c0.038,1.574,0.214,3.293,0.314,4.933l2.851,39.797
			c13.599,185.543,28.346,371.433,47.578,556.507c7.884,75.933,16.921,152.055,29.421,227.394
			c8.781,56.046,9.397,113.473,1.47,169.655c-6.522,52.728-22.548,104.12-23.648,157.382c-0.19,19.726,2.213,39.513,7.693,58.455
			c2.566,9.142,6.284,19.124,10.169,27.776c0,0,1.971,4.529,1.971,4.529l2.175,4.408c21.83,44.336,62.236,65.643,109.29,74.714
			c52.133,10.121,105.731,9.967,158.539,15.383c43.108,4.104,86.237,11.195,127.5,24.718c84.703,29.189,169.3,60.371,257.349,77.964
			c56.723,11.318,115.506,16.615,172.916,7.599c1.639-0.231,3.258-0.582,4.888-0.867l9.765-1.802
			c5.288-1.05,9.377-2.249,14.514-3.331c4.304-1.284,9.967-2.72,14.333-4.034c0,0,9.42-3.13,9.42-3.13
			c1.564-0.538,3.153-1.008,4.697-1.6c38.366-14.236,76.278-35.186,100.966-68.676c34.535-46.745,25.015-102.817-12.985-144.152
			c-45.932-50.624-113.442-67.974-178.88-76.518c-78.2-11.022-164.333-11.364-223.805-70.999
			C1066.333,1324.408,1041.861,1273.559,1035.021,1220.912L1035.021,1220.912z"/>
	</g>
	<g>
		<path style="fill:#AD873B;" d="M1162.704,304.217c-142.014-30.742-288.316-40.836-433.357-34.558
			c-41.434,2.031-83.617,5.731-124.787,10.944c-45.078,5.823-89.79,13.813-134.189,23.614c63.31-16.381,128.23-27.7,193.374-34.241
			c50.558-5.038,101.907-7.306,152.745-7.188C932.782,263.88,1049.851,275.557,1162.704,304.217L1162.704,304.217z"/>
	</g>
	<g>
		<path style="fill:#AD873B;" d="M564.092,1061.048c-0.061,9.207,2.616,18.35,5.844,26.889c0.731,2.305,3.683,8.503,4.724,10.851
			c0,0,3.753,6.944,3.753,6.944c1.18,2.351,2.675,4.527,4.062,6.761c1.363,2.105,2.85,4.665,4.276,6.624
			c18.03,25.956,41.128,48.055,65.864,67.57c21.557,17.686,90.938,65.344,77.144,96.864c-8.659,18.351-39.97,23.008-58.006,26.074
			c-7.873,1.197-15.698,1.927-23.408,3.574c-33.429,6.912-63.745,25.737-87.537,50.014c-3.694,3.765-7.235,7.684-10.615,11.742
			c-3.39,4.048-6.667,8.206-9.602,12.61c8.304-13.565,18.896-25.682,30.443-36.605c20.404-19.135,45.287-33.897,72.542-40.759
			c8.945-2.45,18.45-3.456,27.5-4.903c16.643-3.031,55.49-9.028,55.624-30.459c-0.782-26.656-50.46-63.319-70.638-79.724
			c-5.962-4.917-12.742-10.068-18.401-15.276c0,0-11.826-10.704-11.826-10.704c-22.757-22.111-43.986-47.182-55.662-77.04
			C566.49,1082.26,563.54,1071.63,564.092,1061.048L564.092,1061.048z"/>
	</g>
	<g>
		<path style="fill:#AD873B;" d="M1525.5,1592.14c-56.254,45.036-128.846,65.672-199.883,70.852
			c-33.581,2.063-67.911,0.494-101.184-4.444c-16.496-2.258-33.522-5.836-49.803-9.512c-77.749-18.366-155.1-39.512-232.654-58.508
			c-57.061-13.596-115.371-25.887-174.343-23.15c-8.407,0.296-16.791,1.05-25.167,1.901c16.692-2.341,33.53-3.53,50.392-3.557
			c67.527,0.193,133.866,17.115,199.157,32.772c60.255,14.998,123.575,31.284,183.757,45.767
			c20.288,4.752,41.164,8.678,61.801,11.336c66.377,8.323,135.109,4.186,198.691-17.528
			C1467.941,1627.186,1498.924,1612.757,1525.5,1592.14L1525.5,1592.14z"/>
	</g>
</g>
</svg>
