<?xml version="1.0" encoding="utf-8"?>
<!-- Generator: Adobe Illustrator 27.5.0, SVG Export Plug-In . SVG Version: 6.00 Build 0)  -->
<svg version="1.1" id="Ñëîé_1" xmlns="http://www.w3.org/2000/svg" xmlns:xlink="http://www.w3.org/1999/xlink" x="0px" y="0px"
	 viewBox="0 0 500 500" style="enable-background:new 0 0 500 500;" xml:space="preserve">
<g>
	<g>
		<g>
			<g>
				<path style="fill:#7F4D31;" d="M413.923,301.948c-6.567-5.955-14.361-11.646-23.117-16.9c-1.051-0.7-2.101-1.314-3.152-1.926
					c-7.531-4.291-15.411-8.232-23.73-11.646c-7.444-3.153-15.149-5.867-23.117-8.319c-8.757-2.626-17.688-4.815-26.883-6.655
					c-7.618-1.576-15.324-2.802-23.117-3.678c-8.844-1.138-17.864-1.926-26.883-2.276c-7.706-0.262-15.412-0.35-23.117-0.175
					c-8.931,0.262-17.951,0.876-26.795,1.839c-7.794,0.875-15.499,1.927-23.117,3.415c-9.195,1.576-18.126,3.677-26.883,6.217
					c-7.969,2.189-15.675,4.816-23.117,7.706c-9.458,3.677-18.477,7.88-26.883,12.697c-0.613,0.263-1.138,0.525-1.663,0.875
					c-7.969,4.64-15.149,9.545-21.454,14.712c-23.643,19.264-35.464,42.031-35.464,64.798h21.453
					c0-13.398,4.641-26.882,14.011-39.405c5.779-7.967,13.485-15.587,23.118-22.591c4.115-2.978,8.669-5.956,13.485-8.757
					c4.291-2.452,8.757-4.817,13.398-6.918c7.355-3.503,15.061-6.568,23.117-9.194c8.669-2.802,17.6-5.255,26.883-7.18
					c7.53-1.576,15.236-2.803,23.117-3.765c8.844-1.14,17.776-1.752,26.795-2.101c7.706-0.176,15.412-0.088,23.117,0.261
					c9.019,0.351,18.039,1.226,26.883,2.452c7.794,1.139,15.586,2.539,23.117,4.291c9.282,2.102,18.301,4.642,26.883,7.706
					c8.056,2.891,15.849,6.129,23.117,9.896c2.977,1.401,5.779,2.977,8.581,4.554c6.83,3.94,12.872,8.143,18.301,12.434
					c10.07,8.143,17.776,16.988,23.117,26.182c6.13,10.42,9.194,21.278,9.194,32.136h21.454
					C444.572,341.528,434.413,320.337,413.923,301.948z"/>
			</g>
		</g>
		<g>
			<g>
				<path style="fill:#7F4D31;" d="M387.654,232.619c-75.92-43.783-199.388-43.783-275.307,0
					c-38.004,21.892-56.918,50.7-56.918,79.51h21.453c0-25.569,16.9-51.226,50.613-70.753c67.513-38.968,177.409-38.968,245.01,0
					c33.713,19.527,50.613,45.184,50.613,70.753h21.454C444.572,283.319,425.657,254.511,387.654,232.619z"/>
			</g>
		</g>
		<g>
			<g>
				<path style="fill:#7F4D31;" d="M387.654,182.117c-75.92-43.783-199.388-43.783-275.307,0
					c-38.004,21.892-56.918,50.7-56.918,79.51h21.453c0-25.568,16.9-51.226,50.613-70.753c67.513-38.968,177.409-38.968,245.01,0
					c33.713,19.527,50.613,45.185,50.613,70.753h21.454C444.572,232.817,425.657,204.009,387.654,182.117z"/>
			</g>
		</g>
		<g>
			<g>
				<path style="fill:#7F4D31;" d="M387.654,131.615c-75.92-43.783-199.388-43.783-275.307,0
					c-38.004,21.892-56.918,50.7-56.918,79.51h21.453c0-25.568,16.9-51.226,50.613-70.753c67.513-38.968,177.409-38.968,245.01,0
					c33.713,19.527,50.613,45.185,50.613,70.753h21.454C444.572,182.315,425.657,153.507,387.654,131.615z"/>
			</g>
		</g>
		<g>
			<g>
				<path style="fill:#7F4D31;" d="M413.923,99.932c-6.567-5.954-14.361-11.646-23.117-16.899c-1.051-0.701-2.101-1.313-3.152-1.927
					c-7.531-4.291-15.411-8.231-23.73-11.646c-7.444-3.152-15.149-5.866-23.117-8.318c-8.757-2.627-17.688-4.817-26.883-6.656
					c-7.618-1.576-15.324-2.803-23.117-3.678c-8.844-1.138-17.864-1.926-26.883-2.277c-7.706-0.261-15.412-0.349-23.117-0.174
					c-8.931,0.262-17.951,0.875-26.795,1.839c-7.794,0.875-15.499,1.926-23.117,3.414c-9.195,1.576-18.126,3.678-26.883,6.218
					c-7.969,2.19-15.675,4.815-23.117,7.706c-9.458,3.678-18.477,7.88-26.883,12.697c-0.613,0.263-1.138,0.526-1.663,0.876
					c-7.969,4.641-15.149,9.544-21.454,14.711c-23.643,19.265-35.464,42.033-35.464,64.799h21.453
					c0-13.397,4.641-26.883,14.011-39.405c5.779-7.969,13.485-15.587,23.118-22.592c4.115-3.065,8.669-5.955,13.485-8.757
					c4.291-2.452,8.757-4.816,13.398-6.918c7.355-3.503,15.061-6.567,23.117-9.194c8.669-2.89,17.6-5.254,26.883-7.181
					c7.53-1.576,15.236-2.888,23.117-3.764c8.844-1.139,17.776-1.751,26.795-2.102c7.706-0.175,15.412-0.088,23.117,0.263
					c9.019,0.35,18.039,1.224,26.883,2.452c7.794,1.05,15.586,2.452,23.117,4.203c9.282,2.102,18.301,4.729,26.883,7.793
					c8.056,2.891,15.849,6.13,23.117,9.809c2.977,1.488,5.779,3.064,8.581,4.641c6.83,3.941,12.872,8.056,18.301,12.434
					c10.07,8.143,17.776,16.987,23.117,26.182c6.13,10.42,9.194,21.279,9.194,32.137h21.454
					C444.572,139.513,434.413,118.322,413.923,99.932z"/>
			</g>
		</g>
		<g>
			<g>
				<path style="fill:#7F4D31;" d="M114.01,80.23v220.405c-9.632,7.004-17.338,14.624-23.118,22.591V95.817
					c6.305-5.167,13.485-10.07,21.454-14.711C112.872,80.756,113.396,80.493,114.01,80.23z"/>
			</g>
			<g>
				<path style="fill:#7F4D31;" d="M164.01,59.828v215.938c-8.057,2.626-15.762,5.692-23.117,9.194V67.533
					C148.336,64.643,156.041,62.017,164.01,59.828z"/>
			</g>
			<g>
				<path style="fill:#7F4D31;" d="M214.01,50.195V264.82c-7.881,0.962-15.587,2.19-23.117,3.765V53.61
					C198.511,52.122,206.217,51.071,214.01,50.195z"/>
			</g>
			<g>
				<path style="fill:#7F4D31;" d="M263.922,48.531V262.98c-7.706-0.349-15.412-0.437-23.117-0.261V48.357
					C248.511,48.182,256.217,48.27,263.922,48.531z"/>
			</g>
			<g>
				<path style="fill:#7F4D31;" d="M313.923,54.486v215.237c-7.531-1.752-15.324-3.152-23.117-4.291V50.808
					C298.599,51.683,306.305,52.91,313.923,54.486z"/>
			</g>
			<g>
				<path style="fill:#7F4D31;" d="M363.923,69.46v217.864c-7.268-3.766-15.062-7.005-23.117-9.896V61.142
					C348.774,63.594,356.48,66.308,363.923,69.46z"/>
			</g>
			<g>
				<path style="fill:#7F4D31;" d="M413.923,99.932v230.562c-5.342-9.195-13.047-18.039-23.117-26.182V83.033
					C399.562,88.287,407.356,93.978,413.923,99.932z"/>
			</g>
		</g>
		<g>
			<path style="fill:#C99666;" d="M423.117,362.631c0,12.259-3.853,24.431-11.646,36.077c-5.604,8.494-13.31,16.637-23.117,24.168
				c-4.816,3.591-10.07,7.179-15.849,10.509c-3.503,2.013-7.18,3.94-10.945,5.778c-7.356,3.591-15.062,6.743-23.117,9.545
				c-8.582,2.889-17.601,5.427-26.883,7.355c-7.531,1.751-15.325,3.065-23.118,4.028c-8.844,1.225-17.863,2.014-26.883,2.276
				c-7.706,0.351-15.412,0.351-23.117,0c-9.019-0.262-18.039-1.051-26.883-2.276c-7.793-0.963-15.587-2.277-23.117-4.028
				c-9.282-1.927-18.301-4.466-26.883-7.355c-8.057-2.803-15.762-5.955-23.118-9.545c-3.765-1.839-7.443-3.765-10.945-5.778
				c-5.779-3.329-11.033-6.918-15.849-10.509c-9.808-7.531-17.513-15.674-23.117-24.168c-7.794-11.646-11.646-23.818-11.646-36.077
				c0-13.398,4.641-26.882,14.011-39.405c5.779-7.967,13.485-15.587,23.118-22.591c4.115-2.978,8.669-5.956,13.485-8.757
				c4.291-2.452,8.757-4.817,13.398-6.918c7.355-3.503,15.061-6.568,23.117-9.194c8.669-2.802,17.6-5.255,26.883-7.18
				c7.53-1.576,15.236-2.803,23.117-3.765c8.844-1.14,17.776-1.752,26.795-2.101c7.706-0.176,15.412-0.088,23.117,0.261
				c9.019,0.351,18.039,1.226,26.883,2.452c7.794,1.139,15.586,2.539,23.117,4.291c9.282,2.102,18.301,4.642,26.883,7.706
				c8.056,2.891,15.849,6.129,23.117,9.896c2.977,1.401,5.779,2.977,8.581,4.554c6.83,3.94,12.872,8.143,18.301,12.434
				c10.07,8.143,17.776,16.988,23.117,26.182C420.053,340.914,423.117,351.772,423.117,362.631z"/>
		</g>
		<g>
			<path style="fill:#996B3E;" d="M444.572,362.631c0,21.979-11.034,43.958-33.101,62.873c-6.655,5.692-14.361,11.12-23.117,16.199
				c-0.262,0.175-0.438,0.263-0.7,0.438c-8.143,4.728-16.9,8.932-26.095,12.522c-7.444,3.065-15.149,5.779-23.117,8.143
				c-8.757,2.54-17.689,4.729-26.883,6.393c-7.619,1.489-15.325,2.714-23.118,3.591c-8.931,1.049-17.863,1.663-26.883,2.013
				c-7.706,0.263-15.412,0.263-23.117,0c-9.019-0.35-17.951-0.964-26.883-2.013c-7.793-0.876-15.499-2.102-23.117-3.591
				c-9.194-1.664-18.127-3.854-26.883-6.393c-7.969-2.363-15.675-5.077-23.118-8.143c-9.194-3.59-17.95-7.793-26.094-12.522
				c-0.263-0.174-0.438-0.262-0.701-0.438c-8.757-5.079-16.462-10.508-23.117-16.199c-22.066-18.914-33.1-40.894-33.1-62.873h21.453
				c0,12.259,3.853,24.431,11.646,36.077c5.604,8.494,13.31,16.637,23.117,24.168c4.816,3.591,10.07,7.179,15.849,10.509
				c3.503,2.013,7.18,3.94,10.945,5.778c7.356,3.591,15.062,6.743,23.118,9.545c8.581,2.889,17.6,5.427,26.883,7.355
				c7.53,1.751,15.324,3.065,23.117,4.028c8.844,1.225,17.864,2.014,26.883,2.276c7.706,0.351,15.412,0.351,23.117,0
				c9.02-0.262,18.039-1.051,26.883-2.276c7.793-0.963,15.587-2.277,23.118-4.028c9.281-1.927,18.3-4.466,26.883-7.355
				c8.056-2.803,15.762-5.955,23.117-9.545c3.765-1.839,7.443-3.765,10.945-5.778c5.779-3.329,11.033-6.918,15.849-10.509
				c9.808-7.531,17.513-15.674,23.117-24.168c7.794-11.646,11.646-23.818,11.646-36.077H444.572z"/>
		</g>
		<g>
			<path style="fill:#996B3E;" d="M444.572,312.129c0,28.809-18.914,57.619-56.918,79.511c-75.92,43.783-199.388,43.783-275.307,0
				c-38.004-21.892-56.918-50.702-56.918-79.511h21.453c0,25.569,16.9,51.226,50.613,70.754c67.513,38.966,177.496,38.966,245.01,0
				c33.713-19.528,50.613-45.185,50.613-70.754H444.572z"/>
		</g>
		<g>
			<path style="fill:#996B3E;" d="M444.572,261.627c0,28.809-18.914,57.619-56.918,79.511c-75.92,43.783-199.388,43.783-275.307,0
				c-38.004-21.892-56.918-50.702-56.918-79.511h21.453c0,25.569,16.9,51.227,50.613,70.754c67.513,38.967,177.496,38.967,245.01,0
				c33.713-19.527,50.613-45.185,50.613-70.754H444.572z"/>
		</g>
		<g>
			<path style="fill:#996B3E;" d="M444.572,211.125c0,28.81-18.914,57.619-56.918,79.511c-75.92,43.783-199.388,43.783-275.307,0
				c-38.004-21.892-56.918-50.701-56.918-79.511h21.453c0,25.569,16.9,51.227,50.613,70.754c67.513,38.967,177.496,38.967,245.01,0
				c33.713-19.527,50.613-45.185,50.613-70.754H444.572z"/>
		</g>
		<g>
			<path style="fill:#996B3E;" d="M444.572,160.616c0,21.978-11.034,43.957-33.101,62.873c-6.655,5.691-14.361,11.12-23.117,16.198
				c-0.262,0.176-0.438,0.263-0.7,0.439c-8.143,4.728-16.9,8.931-26.095,12.521c-7.444,3.066-15.149,5.781-23.117,8.144
				c-8.757,2.54-17.689,4.728-26.883,6.393c-7.619,1.489-15.325,2.714-23.118,3.59c-8.931,1.051-17.863,1.663-26.883,2.014
				c-7.706,0.263-15.412,0.263-23.117,0c-9.019-0.351-17.951-0.963-26.883-2.014c-7.793-0.876-15.499-2.101-23.117-3.59
				c-9.194-1.664-18.127-3.853-26.883-6.393c-7.969-2.363-15.675-5.078-23.118-8.144c-9.194-3.59-17.95-7.793-26.094-12.521
				c-0.263-0.176-0.438-0.263-0.701-0.439c-8.757-5.078-16.462-10.508-23.117-16.198c-22.066-18.915-33.1-40.895-33.1-62.873h21.453
				c0,12.26,3.853,24.431,11.646,36.077c5.604,8.493,13.31,16.637,23.117,24.168c4.816,3.677,10.07,7.18,15.849,10.508
				c3.503,2.014,7.18,4.028,10.945,5.779c7.356,3.591,15.062,6.742,23.118,9.544c8.581,2.978,17.6,5.429,26.883,7.444
				c7.53,1.663,15.324,2.976,23.117,3.94c8.844,1.225,17.864,2.014,26.883,2.276c7.706,0.351,15.412,0.351,23.117,0
				c9.02-0.262,18.039-1.052,26.883-2.276c7.793-0.964,15.587-2.276,23.118-3.94c9.281-2.015,18.3-4.466,26.883-7.444
				c8.056-2.803,15.762-5.954,23.117-9.544c3.765-1.752,7.443-3.765,10.945-5.779c5.779-3.327,11.033-6.83,15.849-10.508
				c9.808-7.531,17.513-15.675,23.117-24.168c7.794-11.646,11.646-23.817,11.646-36.077H444.572z"/>
		</g>
		<g>
			<g>
				<path style="fill:#996B3E;" d="M111.645,220.862v220.841c-8.757-5.079-16.462-10.508-23.117-16.199v-228.81
					C94.132,205.187,101.838,213.33,111.645,220.862z"/>
			</g>
			<g>
				<path style="fill:#996B3E;" d="M161.558,246.693v216.112c-7.969-2.363-15.675-5.077-23.118-8.143V237.149
					C145.796,240.739,153.502,243.89,161.558,246.693z"/>
			</g>
			<g>
				<path style="fill:#996B3E;" d="M211.558,258.077v214.712c-7.793-0.876-15.499-2.102-23.117-3.591V254.138
					C195.971,255.801,203.765,257.113,211.558,258.077z"/>
			</g>
			<g>
				<path style="fill:#996B3E;" d="M261.558,260.354v214.449c-7.706,0.263-15.412,0.263-23.117,0V260.354
					C246.147,260.705,253.852,260.705,261.558,260.354z"/>
			</g>
			<g>
				<path style="fill:#996B3E;" d="M311.559,254.138v215.061c-7.619,1.489-15.325,2.714-23.118,3.591V258.077
					C296.234,257.113,304.028,255.801,311.559,254.138z"/>
			</g>
			<g>
				<path style="fill:#996B3E;" d="M361.559,237.149v217.514c-7.444,3.065-15.149,5.779-23.117,8.143V246.693
					C346.497,243.89,354.203,240.739,361.559,237.149z"/>
			</g>
			<g>
				<path style="fill:#996B3E;" d="M411.471,196.693v228.81c-6.655,5.692-14.361,11.12-23.117,16.199V220.862
					C398.161,213.33,405.867,205.187,411.471,196.693z"/>
			</g>
		</g>
	</g>
	<g>
		<path style="fill:#C99666;" d="M413.923,99.932c-6.567-5.954-14.361-11.646-23.117-16.899c-1.051-0.701-2.101-1.313-3.152-1.927
			c-7.531-4.291-15.411-8.231-23.73-11.646c-7.444-3.152-15.149-5.866-23.117-8.318c-8.757-2.627-17.688-4.817-26.883-6.656
			c-7.618-1.576-15.324-2.803-23.117-3.678c-8.844-1.138-17.864-1.926-26.883-2.277c-7.706-0.261-15.412-0.349-23.117-0.174
			c-8.931,0.262-17.951,0.875-26.795,1.839c-7.794,0.875-15.499,1.926-23.117,3.414c-9.195,1.576-18.126,3.678-26.883,6.218
			c-7.969,2.19-15.675,4.815-23.117,7.706c-9.458,3.678-18.477,7.88-26.883,12.697c-0.613,0.263-1.138,0.526-1.663,0.876
			c-7.969,4.641-15.149,9.544-21.454,14.711c-23.643,19.265-35.464,42.033-35.464,64.799c0,21.978,11.033,43.957,33.1,62.873
			c6.655,5.691,14.361,11.12,23.117,16.198c0.263,0.176,0.438,0.263,0.701,0.439c8.144,4.728,16.9,8.931,26.094,12.521
			c7.444,3.066,15.149,5.781,23.118,8.144c8.756,2.54,17.688,4.728,26.883,6.393c7.618,1.489,15.324,2.714,23.117,3.59
			c8.931,1.051,17.864,1.663,26.883,2.014c7.706,0.263,15.412,0.263,23.117,0c9.02-0.351,17.951-0.963,26.883-2.014
			c7.793-0.876,15.499-2.101,23.118-3.59c9.194-1.664,18.126-3.853,26.883-6.393c7.968-2.363,15.674-5.078,23.117-8.144
			c9.194-3.59,17.951-7.793,26.095-12.521c0.262-0.176,0.438-0.263,0.7-0.439c8.757-5.078,16.462-10.508,23.117-16.198
			c22.066-18.915,33.101-40.895,33.101-62.873C444.572,139.513,434.413,118.322,413.923,99.932z M411.471,196.693
			c-5.604,8.493-13.31,16.637-23.117,24.168c-4.816,3.677-10.07,7.18-15.849,10.508c-3.503,2.014-7.18,4.028-10.945,5.779
			c-7.356,3.591-15.062,6.742-23.117,9.544c-8.582,2.978-17.601,5.429-26.883,7.444c-7.531,1.663-15.325,2.976-23.118,3.94
			c-8.844,1.225-17.863,2.014-26.883,2.276c-7.706,0.351-15.412,0.351-23.117,0c-9.019-0.262-18.039-1.052-26.883-2.276
			c-7.793-0.964-15.587-2.276-23.117-3.94c-9.282-2.015-18.301-4.466-26.883-7.444c-8.057-2.803-15.762-5.954-23.118-9.544
			c-3.765-1.752-7.443-3.765-10.945-5.779c-5.779-3.327-11.033-6.83-15.849-10.508c-9.808-7.531-17.513-15.675-23.117-24.168
			c-7.794-11.646-11.646-23.817-11.646-36.077c0-13.397,4.641-26.883,14.011-39.405c5.779-7.969,13.485-15.587,23.118-22.592
			c4.115-3.065,8.669-5.955,13.485-8.757c4.291-2.452,8.757-4.816,13.398-6.918c7.355-3.503,15.061-6.567,23.117-9.194
			c8.669-2.89,17.6-5.254,26.883-7.181c7.53-1.576,15.236-2.888,23.117-3.764c8.844-1.139,17.776-1.751,26.795-2.102
			c7.706-0.175,15.412-0.088,23.117,0.263c9.019,0.35,18.039,1.224,26.883,2.452c7.794,1.05,15.586,2.452,23.117,4.203
			c9.282,2.102,18.301,4.729,26.883,7.793c8.056,2.891,15.849,6.13,23.117,9.809c2.977,1.488,5.779,3.064,8.581,4.641
			c6.83,3.941,12.872,8.056,18.301,12.434c10.07,8.143,17.776,16.987,23.117,26.182c6.13,10.42,9.194,21.279,9.194,32.137
			C423.117,172.876,419.265,185.047,411.471,196.693z"/>
	</g>
	<g>
		<g>
			<g>
				<path style="fill:#7F4D31;" d="M169.712,248.159c0,4.499-3.68,8.179-8.179,8.179c-4.498,0-8.179-3.68-8.179-8.179
					c0-21.346-15.622-48.418-34.187-59.133c-7.444-4.336-14.313-5.316-18.812-2.698c-4.499,2.616-7.116,9.078-7.116,17.667
					c0,4.579-3.68,8.178-8.179,8.178c-4.498,0-8.179-3.599-8.179-8.178c0-1.882,0.082-3.762,0.246-5.563
					c1.227-12.022,6.461-21.265,15.049-26.253c9.896-5.644,22.329-4.743,35.169,2.698c22.247,12.76,39.913,41.714,42.121,67.721
					C169.63,244.479,169.712,246.36,169.712,248.159z"/>
			</g>
		</g>
		<g>
			<g>
				<path style="fill:#C99666;" d="M169.467,242.598c-0.9,3.598-4.171,6.134-7.933,6.134c-4.498,0-8.179-3.598-8.179-8.179
					c0-21.347-15.622-48.418-34.187-59.133c-7.444-4.253-14.313-5.234-18.812-2.618c-4.499,2.618-7.116,8.998-7.116,17.667
					c0,4.498-3.68,8.179-8.179,8.179c-3.843,0-7.034-2.616-7.933-6.216c1.227-12.022,6.461-21.265,15.049-26.253
					c9.896-5.644,22.329-4.743,35.169,2.698C149.592,187.637,167.258,216.59,169.467,242.598z"/>
			</g>
		</g>
	</g>
	<g>
		<g>
			<g>
				<path style="fill:#7F4D31;" d="M419.042,104.632c0,4.499-3.68,8.179-8.179,8.179c-4.498,0-8.179-3.68-8.179-8.179
					c0-21.346-15.622-48.419-34.187-59.133c-7.443-4.335-14.313-5.315-18.812-2.699c-4.499,2.617-7.116,9.079-7.116,17.667
					c0,4.58-3.68,8.179-8.179,8.179c-4.498,0-8.178-3.599-8.178-8.179c0-1.881,0.081-3.761,0.246-5.562
					c1.226-12.023,6.461-21.265,15.048-26.253c9.896-5.644,22.329-4.743,35.17,2.698c22.246,12.76,39.912,41.713,42.12,67.721
					C418.959,100.951,419.042,102.832,419.042,104.632z"/>
			</g>
		</g>
		<g>
			<g>
				<path style="fill:#C99666;" d="M418.796,99.071c-0.9,3.598-4.171,6.134-7.934,6.134c-4.498,0-8.179-3.598-8.179-8.179
					c0-21.347-15.622-48.418-34.187-59.133c-7.443-4.253-14.313-5.235-18.812-2.618c-4.499,2.618-7.116,8.998-7.116,17.667
					c0,4.498-3.68,8.179-8.179,8.179c-3.844,0-7.034-2.617-7.933-6.216c1.226-12.023,6.461-21.265,15.048-26.253
					c9.896-5.644,22.329-4.743,35.17,2.698C398.921,44.109,416.588,73.062,418.796,99.071z"/>
			</g>
		</g>
	</g>
</g>
</svg>
